<?xml version="1.0" encoding="UTF-8" standalone="no"?>
<!DOCTYPE svg PUBLIC "-//W3C//DTD SVG 1.0//EN"
 "http://www.w3.org/TR/2001/REC-SVG-20010904/DTD/svg10.dtd">
<!-- Generated by dot version 2.2 (Tue Jan 25 21:58:56 UTC 2005)
     For user: (amfrye) Alex Frye   Title: Tree    Pages: 1 -->
<svg width="1162pt" height="1254pt"
 viewBox = "-1 -1 1161 1253"
 xmlns="http://www.w3.org/2000/svg">
<g id="graph0" class="graph" style="font-family:Times-Roman;font-size:14.00;">
<title>Tree</title>
<g id="node1" class="node"><title>0</title>
<polygon style="fill:#399de5;stroke:black;" points="277,593 5,593 5,681 277,681 277,593"/>
<text text-anchor="middle" x="141" y="610">BLS_FEDERAL_JobOpenings_Level &lt;= 0.5</text>
<text text-anchor="middle" x="141" y="626">0.5</text>
<text text-anchor="middle" x="141" y="642">7557</text>
<text text-anchor="middle" x="141" y="658">[5965, 5972]</text>
<text text-anchor="middle" x="141" y="674">SD</text>
</g>
<g id="node2" class="node"><title>1</title>
<polygon style="fill:#399de5;stroke:black;" points="537,514 313,514 313,602 537,602 537,514"/>
<text text-anchor="middle" x="425" y="531">BLS_FEDERAL_Quits_Rate &lt;= 0.5</text>
<text text-anchor="middle" x="425" y="547">0.4979</text>
<text text-anchor="middle" x="425" y="563">6595</text>
<text text-anchor="middle" x="425" y="579">[4884, 5562]</text>
<text text-anchor="middle" x="425" y="595">SD</text>
</g>
<g id="edge2" class="edge"><title>0&#45;&gt;1</title>
<path style="fill:none;stroke:black;" d="M277,599C286,597 294,594 303,592"/>
<polygon style="fill:black;stroke:black;" points="302,589 313,589 304,595 302,589"/>
<text text-anchor="middle" x="291" y="582">True</text>
</g>
<g id="node28" class="node"><title>14</title>
<polygon style="fill:#e58139;stroke:black;" points="522,672 328,672 328,760 522,760 522,672"/>
<text text-anchor="middle" x="425" y="689">SalaryOverUnderIndAvg &lt;= 0.5</text>
<text text-anchor="middle" x="425" y="705">0.3987</text>
<text text-anchor="middle" x="425" y="721">962</text>
<text text-anchor="middle" x="425" y="737">[1081, 410]</text>
<text text-anchor="middle" x="425" y="753">NS</text>
</g>
<g id="edge28" class="edge"><title>0&#45;&gt;14</title>
<path style="fill:none;stroke:black;" d="M277,675C291,679 304,682 317,686"/>
<polygon style="fill:black;stroke:black;" points="318,683 327,689 316,689 318,683"/>
<text text-anchor="middle" x="305" y="706">False</text>
</g>
<g id="node4" class="node"><title>2</title>
<polygon style="fill:#e58139;stroke:black;" points="758,229 624,229 624,317 758,317 758,229"/>
<text text-anchor="middle" x="691" y="246">GSEGRD &lt;= 0.5625</text>
<text text-anchor="middle" x="691" y="262">0.5</text>
<text text-anchor="middle" x="691" y="278">5812</text>
<text text-anchor="middle" x="691" y="294">[4600, 4597]</text>
<text text-anchor="middle" x="691" y="310">NS</text>
</g>
<g id="edge4" class="edge"><title>1&#45;&gt;2</title>
<path style="fill:none;stroke:black;" d="M466,514C514,463 593,379 643,324"/>
<polygon style="fill:black;stroke:black;" points="640,322 650,317 645,327 640,322"/>
</g>
<g id="node18" class="node"><title>9</title>
<polygon style="fill:#399de5;stroke:black;" points="809,514 573,514 573,602 809,602 809,514"/>
<text text-anchor="middle" x="691" y="531">BLS_FEDERAL_Layoffs_Rate &lt;= 0.5</text>
<text text-anchor="middle" x="691" y="547">0.3514</text>
<text text-anchor="middle" x="691" y="563">783</text>
<text text-anchor="middle" x="691" y="579">[284, 965]</text>
<text text-anchor="middle" x="691" y="595">SD</text>
</g>
<g id="edge18" class="edge"><title>1&#45;&gt;9</title>
<path style="fill:none;stroke:black;" d="M537,558C546,558 554,558 563,558"/>
<polygon style="fill:black;stroke:black;" points="563,554 573,558 563,561 563,554"/>
</g>
<g id="node6" class="node"><title>3</title>
<polygon style="fill:#399de5;stroke:black;" points="1029,86 847,86 847,174 1029,174 1029,86"/>
<text text-anchor="middle" x="938" y="103">YearsToRetirement &lt;= 0.3616</text>
<text text-anchor="middle" x="938" y="119">0.4597</text>
<text text-anchor="middle" x="938" y="135">2007</text>
<text text-anchor="middle" x="938" y="151">[1146, 2055]</text>
<text text-anchor="middle" x="938" y="167">SD</text>
</g>
<g id="edge6" class="edge"><title>2&#45;&gt;3</title>
<path style="fill:none;stroke:black;" d="M758,234C787,218 822,197 853,179"/>
<polygon style="fill:black;stroke:black;" points="852,176 862,174 855,182 852,176"/>
</g>
<g id="node12" class="node"><title>6</title>
<polygon style="fill:#e58139;stroke:black;" points="999,229 877,229 877,317 999,317 999,229"/>
<text text-anchor="middle" x="938" y="246">AGELVL_I &lt;= 0.5</text>
<text text-anchor="middle" x="938" y="262">0.4884</text>
<text text-anchor="middle" x="938" y="278">3805</text>
<text text-anchor="middle" x="938" y="294">[3454, 2542]</text>
<text text-anchor="middle" x="938" y="310">NS</text>
</g>
<g id="edge12" class="edge"><title>2&#45;&gt;6</title>
<path style="fill:none;stroke:black;" d="M758,273C792,273 832,273 866,273"/>
<polygon style="fill:black;stroke:black;" points="866,269 876,273 866,276 866,269"/>
</g>
<g id="node8" class="node"><title>4</title>
<polygon style="fill:#399de5;stroke:black;" points="1151,4 1071,4 1071,76 1151,76 1151,4"/>
<text text-anchor="middle" x="1111" y="21">0.3613</text>
<text text-anchor="middle" x="1111" y="37">1500</text>
<text text-anchor="middle" x="1111" y="53">[568, 1832]</text>
<text text-anchor="middle" x="1111" y="69">SD</text>
</g>
<g id="edge8" class="edge"><title>3&#45;&gt;4</title>
<path style="fill:none;stroke:black;" d="M1023,86C1036,79 1049,72 1061,66"/>
<polygon style="fill:black;stroke:black;" points="1060,63 1070,61 1063,69 1060,63"/>
</g>
<g id="node10" class="node"><title>5</title>
<polygon style="fill:#e58139;stroke:black;" points="1148,94 1074,94 1074,166 1148,166 1148,94"/>
<text text-anchor="middle" x="1111" y="111">0.4018</text>
<text text-anchor="middle" x="1111" y="127">507</text>
<text text-anchor="middle" x="1111" y="143">[578, 223]</text>
<text text-anchor="middle" x="1111" y="159">NS</text>
</g>
<g id="edge10" class="edge"><title>3&#45;&gt;5</title>
<path style="fill:none;stroke:black;" d="M1030,130C1041,130 1053,130 1064,130"/>
<polygon style="fill:black;stroke:black;" points="1064,126 1074,130 1064,133 1064,126"/>
</g>
<g id="node14" class="node"><title>7</title>
<polygon style="fill:#e58139;stroke:black;" points="1154,184 1068,184 1068,256 1154,256 1154,184"/>
<text text-anchor="middle" x="1111" y="201">0.4836</text>
<text text-anchor="middle" x="1111" y="217">3422</text>
<text text-anchor="middle" x="1111" y="233">[3185, 2207]</text>
<text text-anchor="middle" x="1111" y="249">NS</text>
</g>
<g id="edge14" class="edge"><title>6&#45;&gt;7</title>
<path style="fill:none;stroke:black;" d="M1000,254C1019,248 1039,242 1057,237"/>
<polygon style="fill:black;stroke:black;" points="1056,234 1067,234 1058,240 1056,234"/>
</g>
<g id="node16" class="node"><title>8</title>
<polygon style="fill:#399de5;stroke:black;" points="1148,274 1074,274 1074,346 1148,346 1148,274"/>
<text text-anchor="middle" x="1111" y="291">0.494</text>
<text text-anchor="middle" x="1111" y="307">383</text>
<text text-anchor="middle" x="1111" y="323">[269, 335]</text>
<text text-anchor="middle" x="1111" y="339">SD</text>
</g>
<g id="edge16" class="edge"><title>6&#45;&gt;8</title>
<path style="fill:none;stroke:black;" d="M1000,286C1021,290 1044,295 1063,300"/>
<polygon style="fill:black;stroke:black;" points="1064,297 1073,302 1063,303 1064,297"/>
</g>
<g id="node20" class="node"><title>10</title>
<polygon style="fill:#399de5;stroke:black;" points="1021,418 855,418 855,506 1021,506 1021,418"/>
<text text-anchor="middle" x="938" y="435">LowerLimitAge &lt;= 0.4028</text>
<text text-anchor="middle" x="938" y="451">0.35</text>
<text text-anchor="middle" x="938" y="467">773</text>
<text text-anchor="middle" x="938" y="483">[279, 955]</text>
<text text-anchor="middle" x="938" y="499">SD</text>
</g>
<g id="edge20" class="edge"><title>9&#45;&gt;10</title>
<path style="fill:none;stroke:black;" d="M804,514C818,509 831,504 845,499"/>
<polygon style="fill:black;stroke:black;" points="843,496 854,495 846,502 843,496"/>
</g>
<g id="node26" class="node"><title>13</title>
<polygon style="fill:#399de5;stroke:black;" points="966,524 910,524 910,596 966,596 966,524"/>
<text text-anchor="middle" x="938" y="541">0.4444</text>
<text text-anchor="middle" x="938" y="557">10</text>
<text text-anchor="middle" x="938" y="573">[5, 10]</text>
<text text-anchor="middle" x="938" y="589">SD</text>
</g>
<g id="edge26" class="edge"><title>9&#45;&gt;13</title>
<path style="fill:none;stroke:black;" d="M809,559C842,559 875,559 900,560"/>
<polygon style="fill:black;stroke:black;" points="900,556 910,560 900,563 900,556"/>
</g>
<g id="node22" class="node"><title>11</title>
<polygon style="fill:#399de5;stroke:black;" points="1147,364 1075,364 1075,436 1147,436 1147,364"/>
<text text-anchor="middle" x="1111" y="381">0.4091</text>
<text text-anchor="middle" x="1111" y="397">331</text>
<text text-anchor="middle" x="1111" y="413">[152, 378]</text>
<text text-anchor="middle" x="1111" y="429">SD</text>
</g>
<g id="edge22" class="edge"><title>10&#45;&gt;11</title>
<path style="fill:none;stroke:black;" d="M1022,432C1036,426 1051,421 1064,417"/>
<polygon style="fill:black;stroke:black;" points="1063,413 1074,413 1066,420 1063,413"/>
</g>
<g id="node24" class="node"><title>12</title>
<polygon style="fill:#399de5;stroke:black;" points="1147,454 1075,454 1075,526 1147,526 1147,454"/>
<text text-anchor="middle" x="1111" y="471">0.2957</text>
<text text-anchor="middle" x="1111" y="487">442</text>
<text text-anchor="middle" x="1111" y="503">[127, 577]</text>
<text text-anchor="middle" x="1111" y="519">SD</text>
</g>
<g id="edge24" class="edge"><title>10&#45;&gt;12</title>
<path style="fill:none;stroke:black;" d="M1022,476C1037,478 1052,481 1065,483"/>
<polygon style="fill:black;stroke:black;" points="1065,480 1075,484 1065,486 1065,480"/>
</g>
<g id="node30" class="node"><title>15</title>
<polygon style="fill:#e58139;stroke:black;" points="758,672 624,672 624,760 758,760 758,672"/>
<text text-anchor="middle" x="691" y="689">GSEGRD &lt;= 0.5625</text>
<text text-anchor="middle" x="691" y="705">0.4319</text>
<text text-anchor="middle" x="691" y="721">573</text>
<text text-anchor="middle" x="691" y="737">[614, 283]</text>
<text text-anchor="middle" x="691" y="753">NS</text>
</g>
<g id="edge30" class="edge"><title>14&#45;&gt;15</title>
<path style="fill:none;stroke:black;" d="M523,716C552,716 585,716 614,716"/>
<polygon style="fill:black;stroke:black;" points="614,712 624,716 614,719 614,712"/>
</g>
<g id="node44" class="node"><title>22</title>
<polygon style="fill:#e58139;stroke:black;" points="752,933 630,933 630,1021 752,1021 752,933"/>
<text text-anchor="middle" x="691" y="950">AGELVL_I &lt;= 0.5</text>
<text text-anchor="middle" x="691" y="966">0.3362</text>
<text text-anchor="middle" x="691" y="982">389</text>
<text text-anchor="middle" x="691" y="998">[467, 127]</text>
<text text-anchor="middle" x="691" y="1014">NS</text>
</g>
<g id="edge44" class="edge"><title>14&#45;&gt;22</title>
<path style="fill:none;stroke:black;" d="M470,760C517,806 589,878 639,926"/>
<polygon style="fill:black;stroke:black;" points="641,923 646,933 636,928 641,923"/>
</g>
<g id="node32" class="node"><title>16</title>
<polygon style="fill:#399de5;stroke:black;" points="1020,618 856,618 856,706 1020,706 1020,618"/>
<text text-anchor="middle" x="938" y="635">LowerLimitAge &lt;= 0.8194</text>
<text text-anchor="middle" x="938" y="651">0.4987</text>
<text text-anchor="middle" x="938" y="667">148</text>
<text text-anchor="middle" x="938" y="683">[111, 123]</text>
<text text-anchor="middle" x="938" y="699">SD</text>
</g>
<g id="edge32" class="edge"><title>15&#45;&gt;16</title>
<path style="fill:none;stroke:black;" d="M758,701C785,695 816,688 845,682"/>
<polygon style="fill:black;stroke:black;" points="845,679 855,680 846,685 845,679"/>
</g>
<g id="node38" class="node"><title>19</title>
<polygon style="fill:#e58139;stroke:black;" points="990,724 886,724 886,812 990,812 990,724"/>
<text text-anchor="middle" x="938" y="741">LOC_01 &lt;= 0.5</text>
<text text-anchor="middle" x="938" y="757">0.3662</text>
<text text-anchor="middle" x="938" y="773">425</text>
<text text-anchor="middle" x="938" y="789">[503, 160]</text>
<text text-anchor="middle" x="938" y="805">NS</text>
</g>
<g id="edge38" class="edge"><title>15&#45;&gt;19</title>
<path style="fill:none;stroke:black;" d="M758,730C795,738 839,747 875,755"/>
<polygon style="fill:black;stroke:black;" points="876,752 885,757 875,758 876,752"/>
</g>
<g id="node34" class="node"><title>17</title>
<polygon style="fill:#399de5;stroke:black;" points="1141,544 1081,544 1081,616 1141,616 1141,544"/>
<text text-anchor="middle" x="1111" y="561">0.4873</text>
<text text-anchor="middle" x="1111" y="577">103</text>
<text text-anchor="middle" x="1111" y="593">[66, 91]</text>
<text text-anchor="middle" x="1111" y="609">SD</text>
</g>
<g id="edge34" class="edge"><title>16&#45;&gt;17</title>
<path style="fill:none;stroke:black;" d="M1021,623C1038,615 1056,606 1072,598"/>
<polygon style="fill:black;stroke:black;" points="1070,595 1081,594 1073,601 1070,595"/>
</g>
<g id="node36" class="node"><title>18</title>
<polygon style="fill:#e58139;stroke:black;" points="1141,634 1081,634 1081,706 1141,706 1141,634"/>
<text text-anchor="middle" x="1111" y="651">0.4857</text>
<text text-anchor="middle" x="1111" y="667">45</text>
<text text-anchor="middle" x="1111" y="683">[45, 32]</text>
<text text-anchor="middle" x="1111" y="699">NS</text>
</g>
<g id="edge36" class="edge"><title>16&#45;&gt;18</title>
<path style="fill:none;stroke:black;" d="M1021,666C1038,667 1055,668 1070,668"/>
<polygon style="fill:black;stroke:black;" points="1070,665 1080,669 1070,671 1070,665"/>
</g>
<g id="node40" class="node"><title>20</title>
<polygon style="fill:#399de5;stroke:black;" points="1140,724 1082,724 1082,796 1140,796 1140,724"/>
<text text-anchor="middle" x="1111" y="741">0.4931</text>
<text text-anchor="middle" x="1111" y="757">22</text>
<text text-anchor="middle" x="1111" y="773">[15, 19]</text>
<text text-anchor="middle" x="1111" y="789">SD</text>
</g>
<g id="edge40" class="edge"><title>19&#45;&gt;20</title>
<path style="fill:none;stroke:black;" d="M991,766C1017,764 1047,763 1071,762"/>
<polygon style="fill:black;stroke:black;" points="1071,759 1081,761 1071,765 1071,759"/>
</g>
<g id="node42" class="node"><title>21</title>
<polygon style="fill:#e58139;stroke:black;" points="1147,814 1075,814 1075,886 1147,886 1147,814"/>
<text text-anchor="middle" x="1111" y="831">0.3478</text>
<text text-anchor="middle" x="1111" y="847">403</text>
<text text-anchor="middle" x="1111" y="863">[488, 141]</text>
<text text-anchor="middle" x="1111" y="879">NS</text>
</g>
<g id="edge42" class="edge"><title>19&#45;&gt;21</title>
<path style="fill:none;stroke:black;" d="M991,793C1015,804 1042,817 1065,829"/>
<polygon style="fill:black;stroke:black;" points="1066,826 1074,833 1063,832 1066,826"/>
</g>
<g id="node46" class="node"><title>23</title>
<polygon style="fill:#e58139;stroke:black;" points="1030,933 846,933 846,1021 1030,1021 1030,933"/>
<text text-anchor="middle" x="938" y="950">YearsToRetirement &lt;= 0.3292</text>
<text text-anchor="middle" x="938" y="966">0.3104</text>
<text text-anchor="middle" x="938" y="982">366</text>
<text text-anchor="middle" x="938" y="998">[450, 107]</text>
<text text-anchor="middle" x="938" y="1014">NS</text>
</g>
<g id="edge46" class="edge"><title>22&#45;&gt;23</title>
<path style="fill:none;stroke:black;" d="M753,977C778,977 807,977 835,977"/>
<polygon style="fill:black;stroke:black;" points="835,973 845,977 835,980 835,973"/>
</g>
<g id="node52" class="node"><title>26</title>
<polygon style="fill:#399de5;stroke:black;" points="1030,1076 846,1076 846,1164 1030,1164 1030,1076"/>
<text text-anchor="middle" x="938" y="1093">YearsToRetirement &lt;= 0.3359</text>
<text text-anchor="middle" x="938" y="1109">0.4967</text>
<text text-anchor="middle" x="938" y="1125">23</text>
<text text-anchor="middle" x="938" y="1141">[17, 20]</text>
<text text-anchor="middle" x="938" y="1157">SD</text>
</g>
<g id="edge52" class="edge"><title>22&#45;&gt;26</title>
<path style="fill:none;stroke:black;" d="M753,1013C783,1030 820,1052 853,1071"/>
<polygon style="fill:black;stroke:black;" points="855,1068 862,1076 852,1074 855,1068"/>
</g>
<g id="node48" class="node"><title>24</title>
<polygon style="fill:#399de5;stroke:black;" points="1141,904 1081,904 1081,976 1141,976 1141,904"/>
<text text-anchor="middle" x="1111" y="921">0.375</text>
<text text-anchor="middle" x="1111" y="937">69</text>
<text text-anchor="middle" x="1111" y="953">[26, 78]</text>
<text text-anchor="middle" x="1111" y="969">SD</text>
</g>
<g id="edge48" class="edge"><title>23&#45;&gt;24</title>
<path style="fill:none;stroke:black;" d="M1031,957C1045,954 1059,951 1071,948"/>
<polygon style="fill:black;stroke:black;" points="1071,945 1081,946 1072,951 1071,945"/>
</g>
<g id="node50" class="node"><title>25</title>
<polygon style="fill:#e58139;stroke:black;" points="1145,994 1077,994 1077,1066 1145,1066 1145,994"/>
<text text-anchor="middle" x="1111" y="1011">0.1198</text>
<text text-anchor="middle" x="1111" y="1027">297</text>
<text text-anchor="middle" x="1111" y="1043">[424, 29]</text>
<text text-anchor="middle" x="1111" y="1059">NS</text>
</g>
<g id="edge50" class="edge"><title>23&#45;&gt;25</title>
<path style="fill:none;stroke:black;" d="M1031,1005C1043,1009 1056,1013 1067,1016"/>
<polygon style="fill:black;stroke:black;" points="1068,1013 1077,1019 1066,1019 1068,1013"/>
</g>
<g id="node54" class="node"><title>27</title>
<polygon style="fill:#399de5;stroke:black;" points="1138,1084 1084,1084 1084,1156 1138,1156 1138,1084"/>
<text text-anchor="middle" x="1111" y="1101">0.2076</text>
<text text-anchor="middle" x="1111" y="1117">11</text>
<text text-anchor="middle" x="1111" y="1133">[2, 15]</text>
<text text-anchor="middle" x="1111" y="1149">SD</text>
</g>
<g id="edge54" class="edge"><title>26&#45;&gt;27</title>
<path style="fill:none;stroke:black;" d="M1031,1120C1046,1120 1061,1120 1074,1120"/>
<polygon style="fill:black;stroke:black;" points="1074,1116 1084,1120 1074,1123 1074,1116"/>
</g>
<g id="node56" class="node"><title>28</title>
<polygon style="fill:#e58139;stroke:black;" points="1138,1174 1084,1174 1084,1246 1138,1246 1138,1174"/>
<text text-anchor="middle" x="1111" y="1191">0.375</text>
<text text-anchor="middle" x="1111" y="1207">12</text>
<text text-anchor="middle" x="1111" y="1223">[15, 5]</text>
<text text-anchor="middle" x="1111" y="1239">NS</text>
</g>
<g id="edge56" class="edge"><title>26&#45;&gt;28</title>
<path style="fill:none;stroke:black;" d="M1023,1164C1041,1174 1059,1183 1075,1191"/>
<polygon style="fill:black;stroke:black;" points="1077,1188 1084,1196 1074,1194 1077,1188"/>
</g>
</g>
</svg>
