<?xml version="1.0" encoding="UTF-8" standalone="no"?>
<!DOCTYPE svg PUBLIC "-//W3C//DTD SVG 1.0//EN"
 "http://www.w3.org/TR/2001/REC-SVG-20010904/DTD/svg10.dtd">
<!-- Generated by dot version 2.2 (Tue Jan 25 21:58:56 UTC 2005)
     For user: (amfrye) Alex Frye   Title: Tree    Pages: 1 -->
<svg width="1016pt" height="1254pt"
 viewBox = "-1 -1 1015 1253"
 xmlns="http://www.w3.org/2000/svg">
<g id="graph0" class="graph" style="font-family:Times-Roman;font-size:14.00;">
<title>Tree</title>
<g id="node1" class="node"><title>0</title>
<polygon style="fill:#e58139;stroke:black;" points="139,527 5,527 5,615 139,615 139,527"/>
<text text-anchor="middle" x="72" y="544">GSEGRD &lt;= 0.5625</text>
<text text-anchor="middle" x="72" y="560">0.4998</text>
<text text-anchor="middle" x="72" y="576">7532</text>
<text text-anchor="middle" x="72" y="592">[6076, 5861]</text>
<text text-anchor="middle" x="72" y="608">NS</text>
</g>
<g id="node2" class="node"><title>1</title>
<polygon style="fill:#399de5;stroke:black;" points="345,383 191,383 191,471 345,471 345,383"/>
<text text-anchor="middle" x="268" y="400">IndAvgSalary &lt;= 0.8333</text>
<text text-anchor="middle" x="268" y="416">0.4499</text>
<text text-anchor="middle" x="268" y="432">2614</text>
<text text-anchor="middle" x="268" y="448">[1418, 2731]</text>
<text text-anchor="middle" x="268" y="464">SD</text>
</g>
<g id="edge2" class="edge"><title>0&#45;&gt;1</title>
<path style="fill:none;stroke:black;" d="M132,527C153,511 178,494 200,477"/>
<polygon style="fill:black;stroke:black;" points="198,474 208,471 202,480 198,474"/>
<text text-anchor="middle" x="183" y="472">True</text>
</g>
<g id="node28" class="node"><title>14</title>
<polygon style="fill:#e58139;stroke:black;" points="360,671 176,671 176,759 360,759 360,671"/>
<text text-anchor="middle" x="268" y="688">YearsToRetirement &lt;= 0.4223</text>
<text text-anchor="middle" x="268" y="704">0.4808</text>
<text text-anchor="middle" x="268" y="720">4918</text>
<text text-anchor="middle" x="268" y="736">[4658, 3130]</text>
<text text-anchor="middle" x="268" y="752">NS</text>
</g>
<g id="edge28" class="edge"><title>0&#45;&gt;14</title>
<path style="fill:none;stroke:black;" d="M132,615C153,631 178,648 200,665"/>
<polygon style="fill:black;stroke:black;" points="202,662 208,671 198,668 202,662"/>
<text text-anchor="middle" x="183" y="680">False</text>
</g>
<g id="node4" class="node"><title>2</title>
<polygon style="fill:#399de5;stroke:black;" points="582,207 398,207 398,295 582,295 582,207"/>
<text text-anchor="middle" x="490" y="224">YearsToRetirement &lt;= 0.3674</text>
<text text-anchor="middle" x="490" y="240">0.41</text>
<text text-anchor="middle" x="490" y="256">2303</text>
<text text-anchor="middle" x="490" y="272">[1063, 2629]</text>
<text text-anchor="middle" x="490" y="288">SD</text>
</g>
<g id="edge4" class="edge"><title>1&#45;&gt;2</title>
<path style="fill:none;stroke:black;" d="M324,383C355,358 394,327 426,301"/>
<polygon style="fill:black;stroke:black;" points="424,298 434,295 428,304 424,298"/>
</g>
<g id="node18" class="node"><title>9</title>
<polygon style="fill:#e58139;stroke:black;" points="554,383 426,383 426,471 554,471 554,383"/>
<text text-anchor="middle" x="490" y="400">AGELVL_C &lt;= 0.5</text>
<text text-anchor="middle" x="490" y="416">0.3468</text>
<text text-anchor="middle" x="490" y="432">311</text>
<text text-anchor="middle" x="490" y="448">[355, 102]</text>
<text text-anchor="middle" x="490" y="464">NS</text>
</g>
<g id="edge18" class="edge"><title>1&#45;&gt;9</title>
<path style="fill:none;stroke:black;" d="M346,427C369,427 393,427 416,427"/>
<polygon style="fill:black;stroke:black;" points="416,423 426,427 416,430 416,423"/>
</g>
<g id="node6" class="node"><title>3</title>
<polygon style="fill:#399de5;stroke:black;" points="888,86 622,86 622,174 888,174 888,86"/>
<text text-anchor="middle" x="755" y="103">BLS_FEDERAL_JobOpenings_Rate &lt;= 0.5</text>
<text text-anchor="middle" x="755" y="119">0.3405</text>
<text text-anchor="middle" x="755" y="135">1938</text>
<text text-anchor="middle" x="755" y="151">[678, 2438]</text>
<text text-anchor="middle" x="755" y="167">SD</text>
</g>
<g id="edge6" class="edge"><title>2&#45;&gt;3</title>
<path style="fill:none;stroke:black;" d="M582,209C604,199 627,189 650,178"/>
<polygon style="fill:black;stroke:black;" points="648,175 659,174 651,181 648,175"/>
</g>
<g id="node12" class="node"><title>6</title>
<polygon style="fill:#e58139;stroke:black;" points="819,207 691,207 691,295 819,295 819,207"/>
<text text-anchor="middle" x="755" y="224">AGELVL_C &lt;= 0.5</text>
<text text-anchor="middle" x="755" y="240">0.4433</text>
<text text-anchor="middle" x="755" y="256">365</text>
<text text-anchor="middle" x="755" y="272">[385, 191]</text>
<text text-anchor="middle" x="755" y="288">NS</text>
</g>
<g id="edge12" class="edge"><title>2&#45;&gt;6</title>
<path style="fill:none;stroke:black;" d="M582,251C614,251 650,251 681,251"/>
<polygon style="fill:black;stroke:black;" points="681,247 691,251 681,254 681,247"/>
</g>
<g id="node8" class="node"><title>4</title>
<polygon style="fill:#399de5;stroke:black;" points="1007,4 929,4 929,76 1007,76 1007,4"/>
<text text-anchor="middle" x="968" y="21">0.3266</text>
<text text-anchor="middle" x="968" y="37">1689</text>
<text text-anchor="middle" x="968" y="53">[561, 2168]</text>
<text text-anchor="middle" x="968" y="69">SD</text>
</g>
<g id="edge8" class="edge"><title>3&#45;&gt;4</title>
<path style="fill:none;stroke:black;" d="M859,86C880,77 902,68 920,60"/>
<polygon style="fill:black;stroke:black;" points="918,57 929,56 921,63 918,57"/>
</g>
<g id="node10" class="node"><title>5</title>
<polygon style="fill:#399de5;stroke:black;" points="1003,94 933,94 933,166 1003,166 1003,94"/>
<text text-anchor="middle" x="968" y="111">0.4218</text>
<text text-anchor="middle" x="968" y="127">249</text>
<text text-anchor="middle" x="968" y="143">[117, 270]</text>
<text text-anchor="middle" x="968" y="159">SD</text>
</g>
<g id="edge10" class="edge"><title>3&#45;&gt;5</title>
<path style="fill:none;stroke:black;" d="M889,130C901,130 912,130 922,130"/>
<polygon style="fill:black;stroke:black;" points="922,126 932,130 922,133 922,126"/>
</g>
<g id="node14" class="node"><title>7</title>
<polygon style="fill:#e58139;stroke:black;" points="1004,184 932,184 932,256 1004,256 1004,184"/>
<text text-anchor="middle" x="968" y="201">0.4526</text>
<text text-anchor="middle" x="968" y="217">335</text>
<text text-anchor="middle" x="968" y="233">[342, 181]</text>
<text text-anchor="middle" x="968" y="249">NS</text>
</g>
<g id="edge14" class="edge"><title>6&#45;&gt;7</title>
<path style="fill:none;stroke:black;" d="M819,242C852,238 891,231 921,227"/>
<polygon style="fill:black;stroke:black;" points="921,224 931,226 921,230 921,224"/>
</g>
<g id="node16" class="node"><title>8</title>
<polygon style="fill:#e58139;stroke:black;" points="998,274 938,274 938,346 998,346 998,274"/>
<text text-anchor="middle" x="968" y="291">0.3062</text>
<text text-anchor="middle" x="968" y="307">30</text>
<text text-anchor="middle" x="968" y="323">[43, 10]</text>
<text text-anchor="middle" x="968" y="339">NS</text>
</g>
<g id="edge16" class="edge"><title>6&#45;&gt;8</title>
<path style="fill:none;stroke:black;" d="M819,269C854,279 897,290 928,299"/>
<polygon style="fill:black;stroke:black;" points="929,296 938,302 927,302 929,296"/>
</g>
<g id="node20" class="node"><title>10</title>
<polygon style="fill:#e58139;stroke:black;" points="788,342 722,342 722,414 788,414 788,342"/>
<text text-anchor="middle" x="755" y="359">0.3296</text>
<text text-anchor="middle" x="755" y="375">284</text>
<text text-anchor="middle" x="755" y="391">[331, 87]</text>
<text text-anchor="middle" x="755" y="407">NS</text>
</g>
<g id="edge20" class="edge"><title>9&#45;&gt;10</title>
<path style="fill:none;stroke:black;" d="M554,415C603,407 669,394 712,386"/>
<polygon style="fill:black;stroke:black;" points="712,383 722,384 713,389 712,383"/>
</g>
<g id="node22" class="node"><title>11</title>
<polygon style="fill:#e58139;stroke:black;" points="832,432 678,432 678,520 832,520 832,432"/>
<text text-anchor="middle" x="755" y="449">IndAvgSalary &lt;= 0.9444</text>
<text text-anchor="middle" x="755" y="465">0.4734</text>
<text text-anchor="middle" x="755" y="481">27</text>
<text text-anchor="middle" x="755" y="497">[24, 15]</text>
<text text-anchor="middle" x="755" y="513">NS</text>
</g>
<g id="edge22" class="edge"><title>9&#45;&gt;11</title>
<path style="fill:none;stroke:black;" d="M554,439C588,445 630,453 667,460"/>
<polygon style="fill:black;stroke:black;" points="668,457 677,462 667,463 668,457"/>
</g>
<g id="node24" class="node"><title>12</title>
<polygon style="fill:#e58139;stroke:black;" points="997,364 939,364 939,436 997,436 997,364"/>
<text text-anchor="middle" x="968" y="381">0.4734</text>
<text text-anchor="middle" x="968" y="397">18</text>
<text text-anchor="middle" x="968" y="413">[16, 10]</text>
<text text-anchor="middle" x="968" y="429">NS</text>
</g>
<g id="edge24" class="edge"><title>11&#45;&gt;12</title>
<path style="fill:none;stroke:black;" d="M833,448C865,436 902,423 928,414"/>
<polygon style="fill:black;stroke:black;" points="927,411 938,411 929,417 927,411"/>
</g>
<g id="node26" class="node"><title>13</title>
<polygon style="fill:#e58139;stroke:black;" points="995,454 941,454 941,526 995,526 995,454"/>
<text text-anchor="middle" x="968" y="471">0.4734</text>
<text text-anchor="middle" x="968" y="487">9</text>
<text text-anchor="middle" x="968" y="503">[8, 5]</text>
<text text-anchor="middle" x="968" y="519">NS</text>
</g>
<g id="edge26" class="edge"><title>11&#45;&gt;13</title>
<path style="fill:none;stroke:black;" d="M833,481C866,483 904,485 931,487"/>
<polygon style="fill:black;stroke:black;" points="931,484 941,488 931,490 931,484"/>
</g>
<g id="node30" class="node"><title>15</title>
<polygon style="fill:#399de5;stroke:black;" points="573,671 407,671 407,759 573,759 573,671"/>
<text text-anchor="middle" x="490" y="688">LowerLimitAge &lt;= 0.4028</text>
<text text-anchor="middle" x="490" y="704">0.4759</text>
<text text-anchor="middle" x="490" y="720">2857</text>
<text text-anchor="middle" x="490" y="736">[1743, 2723]</text>
<text text-anchor="middle" x="490" y="752">SD</text>
</g>
<g id="edge30" class="edge"><title>14&#45;&gt;15</title>
<path style="fill:none;stroke:black;" d="M361,715C372,715 385,715 396,715"/>
<polygon style="fill:black;stroke:black;" points="396,711 406,715 396,718 396,711"/>
</g>
<g id="node44" class="node"><title>22</title>
<polygon style="fill:#e58139;stroke:black;" points="582,933 398,933 398,1021 582,1021 582,933"/>
<text text-anchor="middle" x="490" y="950">YearsToRetirement &lt;= 0.5659</text>
<text text-anchor="middle" x="490" y="966">0.215</text>
<text text-anchor="middle" x="490" y="982">2061</text>
<text text-anchor="middle" x="490" y="998">[2915, 407]</text>
<text text-anchor="middle" x="490" y="1014">NS</text>
</g>
<g id="edge44" class="edge"><title>14&#45;&gt;22</title>
<path style="fill:none;stroke:black;" d="M305,759C344,804 405,876 445,925"/>
<polygon style="fill:black;stroke:black;" points="448,923 452,933 443,928 448,923"/>
</g>
<g id="node32" class="node"><title>16</title>
<polygon style="fill:#399de5;stroke:black;" points="832,618 678,618 678,706 832,706 832,618"/>
<text text-anchor="middle" x="755" y="635">IndAvgSalary &lt;= 0.9444</text>
<text text-anchor="middle" x="755" y="651">0.4971</text>
<text text-anchor="middle" x="755" y="667">1267</text>
<text text-anchor="middle" x="755" y="683">[906, 1055]</text>
<text text-anchor="middle" x="755" y="699">SD</text>
</g>
<g id="edge32" class="edge"><title>15&#45;&gt;16</title>
<path style="fill:none;stroke:black;" d="M574,698C604,693 637,686 667,680"/>
<polygon style="fill:black;stroke:black;" points="667,677 677,678 668,683 667,677"/>
</g>
<g id="node38" class="node"><title>19</title>
<polygon style="fill:#399de5;stroke:black;" points="891,724 619,724 619,812 891,812 891,724"/>
<text text-anchor="middle" x="755" y="741">BLS_FEDERAL_JobOpenings_Level &lt;= 0.5</text>
<text text-anchor="middle" x="755" y="757">0.445</text>
<text text-anchor="middle" x="755" y="773">1590</text>
<text text-anchor="middle" x="755" y="789">[837, 1668]</text>
<text text-anchor="middle" x="755" y="805">SD</text>
</g>
<g id="edge38" class="edge"><title>15&#45;&gt;19</title>
<path style="fill:none;stroke:black;" d="M574,732C585,734 597,737 609,739"/>
<polygon style="fill:black;stroke:black;" points="610,736 619,741 609,742 610,736"/>
</g>
<g id="node34" class="node"><title>17</title>
<polygon style="fill:#399de5;stroke:black;" points="1008,544 928,544 928,616 1008,616 1008,544"/>
<text text-anchor="middle" x="968" y="561">0.4945</text>
<text text-anchor="middle" x="968" y="577">1218</text>
<text text-anchor="middle" x="968" y="593">[840, 1036]</text>
<text text-anchor="middle" x="968" y="609">SD</text>
</g>
<g id="edge34" class="edge"><title>16&#45;&gt;17</title>
<path style="fill:none;stroke:black;" d="M833,632C861,621 892,609 918,600"/>
<polygon style="fill:black;stroke:black;" points="916,597 927,596 919,603 916,597"/>
</g>
<g id="node36" class="node"><title>18</title>
<polygon style="fill:#e58139;stroke:black;" points="998,634 938,634 938,706 998,706 998,634"/>
<text text-anchor="middle" x="968" y="651">0.3471</text>
<text text-anchor="middle" x="968" y="667">49</text>
<text text-anchor="middle" x="968" y="683">[66, 19]</text>
<text text-anchor="middle" x="968" y="699">NS</text>
</g>
<g id="edge36" class="edge"><title>16&#45;&gt;18</title>
<path style="fill:none;stroke:black;" d="M833,665C865,666 901,668 928,669"/>
<polygon style="fill:black;stroke:black;" points="928,665 938,669 928,672 928,665"/>
</g>
<g id="node40" class="node"><title>20</title>
<polygon style="fill:#399de5;stroke:black;" points="1008,724 928,724 928,796 1008,796 1008,724"/>
<text text-anchor="middle" x="968" y="741">0.4419</text>
<text text-anchor="middle" x="968" y="757">1474</text>
<text text-anchor="middle" x="968" y="773">[758, 1542]</text>
<text text-anchor="middle" x="968" y="789">SD</text>
</g>
<g id="edge40" class="edge"><title>19&#45;&gt;20</title>
<path style="fill:none;stroke:black;" d="M891,763C900,762 909,762 918,762"/>
<polygon style="fill:black;stroke:black;" points="918,759 928,761 918,765 918,759"/>
</g>
<g id="node42" class="node"><title>21</title>
<polygon style="fill:#399de5;stroke:black;" points="1001,814 935,814 935,886 1001,886 1001,814"/>
<text text-anchor="middle" x="968" y="831">0.4737</text>
<text text-anchor="middle" x="968" y="847">116</text>
<text text-anchor="middle" x="968" y="863">[79, 126]</text>
<text text-anchor="middle" x="968" y="879">SD</text>
</g>
<g id="edge42" class="edge"><title>19&#45;&gt;21</title>
<path style="fill:none;stroke:black;" d="M869,812C889,819 908,827 924,833"/>
<polygon style="fill:black;stroke:black;" points="926,830 934,837 923,837 926,830"/>
</g>
<g id="node46" class="node"><title>23</title>
<polygon style="fill:#e58139;stroke:black;" points="821,933 689,933 689,1021 821,1021 821,933"/>
<text text-anchor="middle" x="755" y="950">GSEGRD &lt;= 0.9375</text>
<text text-anchor="middle" x="755" y="966">0.3992</text>
<text text-anchor="middle" x="755" y="982">670</text>
<text text-anchor="middle" x="755" y="998">[794, 302]</text>
<text text-anchor="middle" x="755" y="1014">NS</text>
</g>
<g id="edge46" class="edge"><title>22&#45;&gt;23</title>
<path style="fill:none;stroke:black;" d="M583,977C614,977 648,977 678,977"/>
<polygon style="fill:black;stroke:black;" points="678,973 688,977 678,980 678,973"/>
</g>
<g id="node52" class="node"><title>26</title>
<polygon style="fill:#e58139;stroke:black;" points="847,1076 663,1076 663,1164 847,1164 847,1076"/>
<text text-anchor="middle" x="755" y="1093">YearsToRetirement &lt;= 0.6013</text>
<text text-anchor="middle" x="755" y="1109">0.0899</text>
<text text-anchor="middle" x="755" y="1125">1391</text>
<text text-anchor="middle" x="755" y="1141">[2121, 105]</text>
<text text-anchor="middle" x="755" y="1157">NS</text>
</g>
<g id="edge52" class="edge"><title>22&#45;&gt;26</title>
<path style="fill:none;stroke:black;" d="M572,1021C601,1036 634,1054 664,1071"/>
<polygon style="fill:black;stroke:black;" points="666,1068 673,1076 663,1074 666,1068"/>
</g>
<g id="node48" class="node"><title>24</title>
<polygon style="fill:#e58139;stroke:black;" points="1005,904 931,904 931,976 1005,976 1005,904"/>
<text text-anchor="middle" x="968" y="921">0.3775</text>
<text text-anchor="middle" x="968" y="937">558</text>
<text text-anchor="middle" x="968" y="953">[675, 228]</text>
<text text-anchor="middle" x="968" y="969">NS</text>
</g>
<g id="edge48" class="edge"><title>23&#45;&gt;24</title>
<path style="fill:none;stroke:black;" d="M822,965C854,960 892,953 921,949"/>
<polygon style="fill:black;stroke:black;" points="921,946 931,947 922,952 921,946"/>
</g>
<g id="node50" class="node"><title>25</title>
<polygon style="fill:#e58139;stroke:black;" points="1000,994 936,994 936,1066 1000,1066 1000,994"/>
<text text-anchor="middle" x="968" y="1011">0.4728</text>
<text text-anchor="middle" x="968" y="1027">112</text>
<text text-anchor="middle" x="968" y="1043">[119, 74]</text>
<text text-anchor="middle" x="968" y="1059">NS</text>
</g>
<g id="edge50" class="edge"><title>23&#45;&gt;25</title>
<path style="fill:none;stroke:black;" d="M822,994C856,1002 896,1012 925,1019"/>
<polygon style="fill:black;stroke:black;" points="926,1016 935,1022 924,1022 926,1016"/>
</g>
<g id="node54" class="node"><title>27</title>
<polygon style="fill:#e58139;stroke:black;" points="1002,1084 934,1084 934,1156 1002,1156 1002,1084"/>
<text text-anchor="middle" x="968" y="1101">0.2162</text>
<text text-anchor="middle" x="968" y="1117">220</text>
<text text-anchor="middle" x="968" y="1133">[320, 45]</text>
<text text-anchor="middle" x="968" y="1149">NS</text>
</g>
<g id="edge54" class="edge"><title>26&#45;&gt;27</title>
<path style="fill:none;stroke:black;" d="M847,1120C874,1120 902,1120 924,1120"/>
<polygon style="fill:black;stroke:black;" points="924,1116 934,1120 924,1123 924,1116"/>
</g>
<g id="node56" class="node"><title>28</title>
<polygon style="fill:#e58139;stroke:black;" points="1004,1174 932,1174 932,1246 1004,1246 1004,1174"/>
<text text-anchor="middle" x="968" y="1191">0.0624</text>
<text text-anchor="middle" x="968" y="1207">1171</text>
<text text-anchor="middle" x="968" y="1223">[1801, 60]</text>
<text text-anchor="middle" x="968" y="1239">NS</text>
</g>
<g id="edge56" class="edge"><title>26&#45;&gt;28</title>
<path style="fill:none;stroke:black;" d="M847,1159C873,1169 901,1181 923,1191"/>
<polygon style="fill:black;stroke:black;" points="924,1188 932,1195 921,1194 924,1188"/>
</g>
</g>
</svg>
