<?xml version="1.0" encoding="UTF-8" standalone="no"?>
<!DOCTYPE svg PUBLIC "-//W3C//DTD SVG 1.0//EN"
 "http://www.w3.org/TR/2001/REC-SVG-20010904/DTD/svg10.dtd">
<!-- Generated by dot version 2.2 (Tue Jan 25 21:58:56 UTC 2005)
     For user: (amfrye) Alex Frye   Title: Tree    Pages: 1 -->
<svg width="1014pt" height="820pt"
 viewBox = "-1 -1 1013 819"
 xmlns="http://www.w3.org/2000/svg">
<g id="graph0" class="graph" style="font-family:Times-Roman;font-size:14.00;">
<title>Tree</title>
<g id="node1" class="node"><title>0</title>
<polygon style="fill:#e58139;stroke:black;" points="129,557 5,557 5,645 129,645 129,557"/>
<text text-anchor="middle" x="67" y="574">AGELVL_J &lt;= 0.5</text>
<text text-anchor="middle" x="67" y="590">0.5</text>
<text text-anchor="middle" x="67" y="606">7521</text>
<text text-anchor="middle" x="67" y="622">[6003, 5934]</text>
<text text-anchor="middle" x="67" y="638">NS</text>
</g>
<g id="node2" class="node"><title>1</title>
<polygon style="fill:#e58139;stroke:black;" points="432,479 166,479 166,567 432,567 432,479"/>
<text text-anchor="middle" x="299" y="496">BLS_FEDERAL_JobOpenings_Rate &lt;= 0.5</text>
<text text-anchor="middle" x="299" y="512">0.5</text>
<text text-anchor="middle" x="299" y="528">7485</text>
<text text-anchor="middle" x="299" y="544">[6000, 5883]</text>
<text text-anchor="middle" x="299" y="560">NS</text>
</g>
<g id="edge2" class="edge"><title>0&#45;&gt;1</title>
<path style="fill:none;stroke:black;" d="M129,580C138,577 148,574 158,570"/>
<polygon style="fill:black;stroke:black;" points="157,567 168,567 159,573 157,567"/>
<text text-anchor="middle" x="146" y="560">True</text>
</g>
<g id="node32" class="node"><title>16</title>
<polygon style="fill:#399de5;stroke:black;" points="423,634 175,634 175,722 423,722 423,634"/>
<text text-anchor="middle" x="299" y="651">BLS_FEDERAL_TotalSep_Level &lt;= 0.5</text>
<text text-anchor="middle" x="299" y="667">0.1049</text>
<text text-anchor="middle" x="299" y="683">36</text>
<text text-anchor="middle" x="299" y="699">[3, 51]</text>
<text text-anchor="middle" x="299" y="715">SD</text>
</g>
<g id="edge32" class="edge"><title>0&#45;&gt;16</title>
<path style="fill:none;stroke:black;" d="M129,622C140,626 153,630 165,634"/>
<polygon style="fill:black;stroke:black;" points="166,631 175,637 164,637 166,631"/>
<text text-anchor="middle" x="153" y="654">False</text>
</g>
<g id="node4" class="node"><title>2</title>
<polygon style="fill:#e58139;stroke:black;" points="664,229 470,229 470,317 664,317 664,229"/>
<text text-anchor="middle" x="567" y="246">SalaryOverUnderIndAvg &lt;= 0.5</text>
<text text-anchor="middle" x="567" y="262">0.4992</text>
<text text-anchor="middle" x="567" y="278">6717</text>
<text text-anchor="middle" x="567" y="294">[5547, 5129]</text>
<text text-anchor="middle" x="567" y="310">NS</text>
</g>
<g id="edge4" class="edge"><title>1&#45;&gt;2</title>
<path style="fill:none;stroke:black;" d="M346,479C393,435 464,370 513,324"/>
<polygon style="fill:black;stroke:black;" points="510,322 520,317 515,327 510,322"/>
</g>
<g id="node18" class="node"><title>9</title>
<polygon style="fill:#399de5;stroke:black;" points="659,479 475,479 475,567 659,567 659,479"/>
<text text-anchor="middle" x="567" y="496">YearsToRetirement &lt;= 0.3805</text>
<text text-anchor="middle" x="567" y="512">0.4689</text>
<text text-anchor="middle" x="567" y="528">768</text>
<text text-anchor="middle" x="567" y="544">[453, 754]</text>
<text text-anchor="middle" x="567" y="560">SD</text>
</g>
<g id="edge18" class="edge"><title>1&#45;&gt;9</title>
<path style="fill:none;stroke:black;" d="M433,523C443,523 454,523 464,523"/>
<polygon style="fill:black;stroke:black;" points="464,519 474,523 464,526 464,519"/>
</g>
<g id="node6" class="node"><title>3</title>
<polygon style="fill:#399de5;stroke:black;" points="869,86 715,86 715,174 869,174 869,86"/>
<text text-anchor="middle" x="792" y="103">IndAvgSalary &lt;= 0.7222</text>
<text text-anchor="middle" x="792" y="119">0.4996</text>
<text text-anchor="middle" x="792" y="135">4288</text>
<text text-anchor="middle" x="792" y="151">[3334, 3533]</text>
<text text-anchor="middle" x="792" y="167">SD</text>
</g>
<g id="edge6" class="edge"><title>2&#45;&gt;3</title>
<path style="fill:none;stroke:black;" d="M636,229C660,214 689,196 714,180"/>
<polygon style="fill:black;stroke:black;" points="712,177 722,174 716,183 712,177"/>
</g>
<g id="node12" class="node"><title>6</title>
<polygon style="fill:#e58139;stroke:black;" points="874,229 710,229 710,317 874,317 874,229"/>
<text text-anchor="middle" x="792" y="246">LowerLimitAge &lt;= 0.6111</text>
<text text-anchor="middle" x="792" y="262">0.4869</text>
<text text-anchor="middle" x="792" y="278">2429</text>
<text text-anchor="middle" x="792" y="294">[2213, 1596]</text>
<text text-anchor="middle" x="792" y="310">NS</text>
</g>
<g id="edge12" class="edge"><title>2&#45;&gt;6</title>
<path style="fill:none;stroke:black;" d="M665,273C677,273 688,273 700,273"/>
<polygon style="fill:black;stroke:black;" points="700,269 710,273 700,276 700,269"/>
</g>
<g id="node8" class="node"><title>4</title>
<polygon style="fill:#399de5;stroke:black;" points="1007,4 919,4 919,76 1007,76 1007,4"/>
<text text-anchor="middle" x="963" y="21">0.4577</text>
<text text-anchor="middle" x="963" y="37">2986</text>
<text text-anchor="middle" x="963" y="53">[1694, 3084]</text>
<text text-anchor="middle" x="963" y="69">SD</text>
</g>
<g id="edge8" class="edge"><title>3&#45;&gt;4</title>
<path style="fill:none;stroke:black;" d="M869,89C883,82 897,75 910,68"/>
<polygon style="fill:black;stroke:black;" points="909,65 919,63 912,71 909,65"/>
</g>
<g id="node10" class="node"><title>5</title>
<polygon style="fill:#e58139;stroke:black;" points="1003,94 923,94 923,166 1003,166 1003,94"/>
<text text-anchor="middle" x="963" y="111">0.3375</text>
<text text-anchor="middle" x="963" y="127">1302</text>
<text text-anchor="middle" x="963" y="143">[1640, 449]</text>
<text text-anchor="middle" x="963" y="159">NS</text>
</g>
<g id="edge10" class="edge"><title>3&#45;&gt;5</title>
<path style="fill:none;stroke:black;" d="M869,130C884,130 898,130 912,130"/>
<polygon style="fill:black;stroke:black;" points="912,126 922,130 912,133 912,126"/>
</g>
<g id="node14" class="node"><title>7</title>
<polygon style="fill:#e58139;stroke:black;" points="1001,184 925,184 925,256 1001,256 1001,184"/>
<text text-anchor="middle" x="963" y="201">0.451</text>
<text text-anchor="middle" x="963" y="217">1695</text>
<text text-anchor="middle" x="963" y="233">[1751, 916]</text>
<text text-anchor="middle" x="963" y="249">NS</text>
</g>
<g id="edge14" class="edge"><title>6&#45;&gt;7</title>
<path style="fill:none;stroke:black;" d="M874,248C888,243 902,239 915,235"/>
<polygon style="fill:black;stroke:black;" points="914,232 925,232 916,238 914,232"/>
</g>
<g id="node16" class="node"><title>8</title>
<polygon style="fill:#399de5;stroke:black;" points="1000,274 926,274 926,346 1000,346 1000,274"/>
<text text-anchor="middle" x="963" y="291">0.4818</text>
<text text-anchor="middle" x="963" y="307">734</text>
<text text-anchor="middle" x="963" y="323">[462, 680]</text>
<text text-anchor="middle" x="963" y="339">SD</text>
</g>
<g id="edge16" class="edge"><title>6&#45;&gt;8</title>
<path style="fill:none;stroke:black;" d="M874,291C888,294 902,297 915,300"/>
<polygon style="fill:black;stroke:black;" points="916,297 925,302 915,303 916,297"/>
</g>
<g id="node20" class="node"><title>10</title>
<polygon style="fill:#399de5;stroke:black;" points="883,430 701,430 701,518 883,518 883,430"/>
<text text-anchor="middle" x="792" y="447">YearsToRetirement &lt;= 0.1774</text>
<text text-anchor="middle" x="792" y="463">0.4132</text>
<text text-anchor="middle" x="792" y="479">563</text>
<text text-anchor="middle" x="792" y="495">[259, 629]</text>
<text text-anchor="middle" x="792" y="511">SD</text>
</g>
<g id="edge20" class="edge"><title>9&#45;&gt;10</title>
<path style="fill:none;stroke:black;" d="M660,503C670,501 680,498 691,496"/>
<polygon style="fill:black;stroke:black;" points="691,493 701,494 692,499 691,493"/>
</g>
<g id="node26" class="node"><title>13</title>
<polygon style="fill:#e58139;stroke:black;" points="875,536 709,536 709,624 875,624 875,536"/>
<text text-anchor="middle" x="792" y="553">LowerLimitAge &lt;= 0.4028</text>
<text text-anchor="middle" x="792" y="569">0.4766</text>
<text text-anchor="middle" x="792" y="585">205</text>
<text text-anchor="middle" x="792" y="601">[194, 125]</text>
<text text-anchor="middle" x="792" y="617">NS</text>
</g>
<g id="edge26" class="edge"><title>9&#45;&gt;13</title>
<path style="fill:none;stroke:black;" d="M660,547C673,550 686,553 698,556"/>
<polygon style="fill:black;stroke:black;" points="699,553 708,559 697,559 699,553"/>
</g>
<g id="node22" class="node"><title>11</title>
<polygon style="fill:#399de5;stroke:black;" points="996,364 930,364 930,436 996,436 996,364"/>
<text text-anchor="middle" x="963" y="381">0.2457</text>
<text text-anchor="middle" x="963" y="397">153</text>
<text text-anchor="middle" x="963" y="413">[37, 221]</text>
<text text-anchor="middle" x="963" y="429">SD</text>
</g>
<g id="edge22" class="edge"><title>10&#45;&gt;11</title>
<path style="fill:none;stroke:black;" d="M883,435C896,430 909,423 921,418"/>
<polygon style="fill:black;stroke:black;" points="919,415 930,414 922,421 919,415"/>
</g>
<g id="node24" class="node"><title>12</title>
<polygon style="fill:#399de5;stroke:black;" points="1000,454 926,454 926,526 1000,526 1000,454"/>
<text text-anchor="middle" x="963" y="471">0.4564</text>
<text text-anchor="middle" x="963" y="487">410</text>
<text text-anchor="middle" x="963" y="503">[222, 408]</text>
<text text-anchor="middle" x="963" y="519">SD</text>
</g>
<g id="edge24" class="edge"><title>10&#45;&gt;12</title>
<path style="fill:none;stroke:black;" d="M883,483C894,484 905,484 915,485"/>
<polygon style="fill:black;stroke:black;" points="915,482 925,486 915,488 915,482"/>
</g>
<g id="node28" class="node"><title>14</title>
<polygon style="fill:#e58139;stroke:black;" points="996,544 930,544 930,616 996,616 996,544"/>
<text text-anchor="middle" x="963" y="561">0.3952</text>
<text text-anchor="middle" x="963" y="577">104</text>
<text text-anchor="middle" x="963" y="593">[121, 45]</text>
<text text-anchor="middle" x="963" y="609">NS</text>
</g>
<g id="edge28" class="edge"><title>13&#45;&gt;14</title>
<path style="fill:none;stroke:black;" d="M876,580C891,580 906,580 920,580"/>
<polygon style="fill:black;stroke:black;" points="920,576 930,580 920,583 920,576"/>
</g>
<g id="node30" class="node"><title>15</title>
<polygon style="fill:#399de5;stroke:black;" points="993,634 933,634 933,706 993,706 993,634"/>
<text text-anchor="middle" x="963" y="651">0.499</text>
<text text-anchor="middle" x="963" y="667">101</text>
<text text-anchor="middle" x="963" y="683">[73, 80]</text>
<text text-anchor="middle" x="963" y="699">SD</text>
</g>
<g id="edge30" class="edge"><title>13&#45;&gt;15</title>
<path style="fill:none;stroke:black;" d="M876,624C892,633 909,642 924,649"/>
<polygon style="fill:black;stroke:black;" points="926,646 933,654 923,652 926,646"/>
</g>
<g id="node34" class="node"><title>17</title>
<polygon style="fill:#399de5;stroke:black;" points="655,634 479,634 479,722 655,722 655,634"/>
<text text-anchor="middle" x="567" y="651">YearsToRetirement &lt;= 0.169</text>
<text text-anchor="middle" x="567" y="667">0.1454</text>
<text text-anchor="middle" x="567" y="683">25</text>
<text text-anchor="middle" x="567" y="699">[3, 35]</text>
<text text-anchor="middle" x="567" y="715">SD</text>
</g>
<g id="edge34" class="edge"><title>16&#45;&gt;17</title>
<path style="fill:none;stroke:black;" d="M423,678C438,678 454,678 469,678"/>
<polygon style="fill:black;stroke:black;" points="469,674 479,678 469,681 469,674"/>
</g>
<g id="node40" class="node"><title>20</title>
<polygon style="fill:#399de5;stroke:black;" points="594,740 540,740 540,812 594,812 594,740"/>
<text text-anchor="middle" x="567" y="757">0.0</text>
<text text-anchor="middle" x="567" y="773">11</text>
<text text-anchor="middle" x="567" y="789">[0, 16]</text>
<text text-anchor="middle" x="567" y="805">SD</text>
</g>
<g id="edge40" class="edge"><title>16&#45;&gt;20</title>
<path style="fill:none;stroke:black;" d="M420,722C460,736 501,751 530,762"/>
<polygon style="fill:black;stroke:black;" points="532,759 540,766 529,766 532,759"/>
</g>
<g id="node36" class="node"><title>18</title>
<polygon style="fill:#399de5;stroke:black;" points="819,642 765,642 765,714 819,714 819,642"/>
<text text-anchor="middle" x="792" y="659">0.0</text>
<text text-anchor="middle" x="792" y="675">11</text>
<text text-anchor="middle" x="792" y="691">[0, 16]</text>
<text text-anchor="middle" x="792" y="707">SD</text>
</g>
<g id="edge36" class="edge"><title>17&#45;&gt;18</title>
<path style="fill:none;stroke:black;" d="M655,678C689,678 728,678 755,678"/>
<polygon style="fill:black;stroke:black;" points="755,674 765,678 755,681 755,674"/>
</g>
<g id="node38" class="node"><title>19</title>
<polygon style="fill:#399de5;stroke:black;" points="819,732 765,732 765,804 819,804 819,732"/>
<text text-anchor="middle" x="792" y="749">0.2355</text>
<text text-anchor="middle" x="792" y="765">14</text>
<text text-anchor="middle" x="792" y="781">[3, 19]</text>
<text text-anchor="middle" x="792" y="797">SD</text>
</g>
<g id="edge38" class="edge"><title>17&#45;&gt;19</title>
<path style="fill:none;stroke:black;" d="M655,713C690,727 728,742 755,753"/>
<polygon style="fill:black;stroke:black;" points="756,750 764,757 753,756 756,750"/>
</g>
</g>
</svg>
