<?xml version="1.0" encoding="UTF-8" standalone="no"?>
<!DOCTYPE svg PUBLIC "-//W3C//DTD SVG 1.0//EN"
 "http://www.w3.org/TR/2001/REC-SVG-20010904/DTD/svg10.dtd">
<!-- Generated by dot version 2.2 (Tue Jan 25 21:58:56 UTC 2005)
     For user: (amfrye) Alex Frye   Title: Tree    Pages: 1 -->
<svg width="1138pt" height="1082pt"
 viewBox = "-1 -1 1137 1081"
 xmlns="http://www.w3.org/2000/svg">
<g id="graph0" class="graph" style="font-family:Times-Roman;font-size:14.00;">
<title>Tree</title>
<g id="node1" class="node"><title>0</title>
<polygon style="fill:#e58139;stroke:black;" points="190,548 6,548 6,636 190,636 190,548"/>
<text text-anchor="middle" x="98" y="565">YearsToRetirement &lt;= 0.3967</text>
<text text-anchor="middle" x="98" y="581">0.5</text>
<text text-anchor="middle" x="98" y="597">7540</text>
<text text-anchor="middle" x="98" y="613">[5992, 5945]</text>
<text text-anchor="middle" x="98" y="629">NS</text>
</g>
<g id="node2" class="node"><title>1</title>
<polygon style="fill:#399de5;stroke:black;" points="434,481 268,481 268,569 434,569 434,481"/>
<text text-anchor="middle" x="351" y="498">LowerLimitAge &lt;= 0.4028</text>
<text text-anchor="middle" x="351" y="514">0.4318</text>
<text text-anchor="middle" x="351" y="530">4827</text>
<text text-anchor="middle" x="351" y="546">[2417, 5247]</text>
<text text-anchor="middle" x="351" y="562">SD</text>
</g>
<g id="edge2" class="edge"><title>0&#45;&gt;1</title>
<path style="fill:none;stroke:black;" d="M191,567C213,561 236,555 257,549"/>
<polygon style="fill:black;stroke:black;" points="257,546 267,547 258,552 257,546"/>
<text text-anchor="middle" x="246" y="538">True</text>
</g>
<g id="node28" class="node"><title>14</title>
<polygon style="fill:#e58139;stroke:black;" points="475,614 227,614 227,702 475,702 475,614"/>
<text text-anchor="middle" x="351" y="631">BLS_FEDERAL_TotalSep_Level &lt;= 0.5</text>
<text text-anchor="middle" x="351" y="647">0.2733</text>
<text text-anchor="middle" x="351" y="663">2713</text>
<text text-anchor="middle" x="351" y="679">[3575, 698]</text>
<text text-anchor="middle" x="351" y="695">NS</text>
</g>
<g id="edge28" class="edge"><title>0&#45;&gt;14</title>
<path style="fill:none;stroke:black;" d="M191,616C200,618 208,620 217,623"/>
<polygon style="fill:black;stroke:black;" points="218,620 227,625 217,626 218,620"/>
<text text-anchor="middle" x="206" y="644">False</text>
</g>
<g id="node4" class="node"><title>2</title>
<polygon style="fill:#399de5;stroke:black;" points="685,229 551,229 551,317 685,317 685,229"/>
<text text-anchor="middle" x="618" y="246">GSEGRD &lt;= 0.5625</text>
<text text-anchor="middle" x="618" y="262">0.4658</text>
<text text-anchor="middle" x="618" y="278">2094</text>
<text text-anchor="middle" x="618" y="294">[1221, 2086]</text>
<text text-anchor="middle" x="618" y="310">SD</text>
</g>
<g id="edge4" class="edge"><title>1&#45;&gt;2</title>
<path style="fill:none;stroke:black;" d="M398,481C444,437 515,370 564,324"/>
<polygon style="fill:black;stroke:black;" points="561,322 571,317 566,327 561,322"/>
</g>
<g id="node18" class="node"><title>9</title>
<polygon style="fill:#399de5;stroke:black;" points="680,481 556,481 556,569 680,569 680,481"/>
<text text-anchor="middle" x="618" y="498">AGELVL_J &lt;= 0.5</text>
<text text-anchor="middle" x="618" y="514">0.3983</text>
<text text-anchor="middle" x="618" y="530">2733</text>
<text text-anchor="middle" x="618" y="546">[1196, 3161]</text>
<text text-anchor="middle" x="618" y="562">SD</text>
</g>
<g id="edge18" class="edge"><title>1&#45;&gt;9</title>
<path style="fill:none;stroke:black;" d="M435,525C470,525 511,525 546,525"/>
<polygon style="fill:black;stroke:black;" points="546,521 556,525 546,528 546,521"/>
</g>
<g id="node6" class="node"><title>3</title>
<polygon style="fill:#399de5;stroke:black;" points="953,86 821,86 821,174 953,174 953,86"/>
<text text-anchor="middle" x="887" y="103">GSEGRD &lt;= 0.4375</text>
<text text-anchor="middle" x="887" y="119">0.4019</text>
<text text-anchor="middle" x="887" y="135">933</text>
<text text-anchor="middle" x="887" y="151">[429, 1111]</text>
<text text-anchor="middle" x="887" y="167">SD</text>
</g>
<g id="edge6" class="edge"><title>2&#45;&gt;3</title>
<path style="fill:none;stroke:black;" d="M685,237C723,217 771,191 811,171"/>
<polygon style="fill:black;stroke:black;" points="810,168 820,166 813,174 810,168"/>
</g>
<g id="node12" class="node"><title>6</title>
<polygon style="fill:#399de5;stroke:black;" points="970,229 804,229 804,317 970,317 970,229"/>
<text text-anchor="middle" x="887" y="246">LowerLimitAge &lt;= 0.1389</text>
<text text-anchor="middle" x="887" y="262">0.4946</text>
<text text-anchor="middle" x="887" y="278">1161</text>
<text text-anchor="middle" x="887" y="294">[792, 975]</text>
<text text-anchor="middle" x="887" y="310">SD</text>
</g>
<g id="edge12" class="edge"><title>2&#45;&gt;6</title>
<path style="fill:none;stroke:black;" d="M685,273C718,273 758,273 794,273"/>
<polygon style="fill:black;stroke:black;" points="794,269 804,273 794,276 794,269"/>
</g>
<g id="node8" class="node"><title>4</title>
<polygon style="fill:#399de5;stroke:black;" points="1127,4 1053,4 1053,76 1127,76 1127,4"/>
<text text-anchor="middle" x="1090" y="21">0.3308</text>
<text text-anchor="middle" x="1090" y="37">432</text>
<text text-anchor="middle" x="1090" y="53">[146, 552]</text>
<text text-anchor="middle" x="1090" y="69">SD</text>
</g>
<g id="edge8" class="edge"><title>3&#45;&gt;4</title>
<path style="fill:none;stroke:black;" d="M954,100C984,87 1017,73 1044,60"/>
<polygon style="fill:black;stroke:black;" points="1042,57 1053,56 1045,63 1042,57"/>
</g>
<g id="node10" class="node"><title>5</title>
<polygon style="fill:#399de5;stroke:black;" points="1127,94 1053,94 1053,166 1127,166 1127,94"/>
<text text-anchor="middle" x="1090" y="111">0.4463</text>
<text text-anchor="middle" x="1090" y="127">501</text>
<text text-anchor="middle" x="1090" y="143">[283, 559]</text>
<text text-anchor="middle" x="1090" y="159">SD</text>
</g>
<g id="edge10" class="edge"><title>3&#45;&gt;5</title>
<path style="fill:none;stroke:black;" d="M954,130C983,130 1016,130 1042,130"/>
<polygon style="fill:black;stroke:black;" points="1042,126 1052,130 1042,133 1042,126"/>
</g>
<g id="node14" class="node"><title>7</title>
<polygon style="fill:#399de5;stroke:black;" points="1127,184 1053,184 1053,256 1127,256 1127,184"/>
<text text-anchor="middle" x="1090" y="201">0.411</text>
<text text-anchor="middle" x="1090" y="217">448</text>
<text text-anchor="middle" x="1090" y="233">[196, 482]</text>
<text text-anchor="middle" x="1090" y="249">SD</text>
</g>
<g id="edge14" class="edge"><title>6&#45;&gt;7</title>
<path style="fill:none;stroke:black;" d="M970,251C995,245 1022,238 1043,233"/>
<polygon style="fill:black;stroke:black;" points="1042,230 1053,230 1044,236 1042,230"/>
</g>
<g id="node16" class="node"><title>8</title>
<polygon style="fill:#e58139;stroke:black;" points="1127,274 1053,274 1053,346 1127,346 1127,274"/>
<text text-anchor="middle" x="1090" y="291">0.4955</text>
<text text-anchor="middle" x="1090" y="307">713</text>
<text text-anchor="middle" x="1090" y="323">[596, 493]</text>
<text text-anchor="middle" x="1090" y="339">NS</text>
</g>
<g id="edge16" class="edge"><title>6&#45;&gt;8</title>
<path style="fill:none;stroke:black;" d="M970,288C995,292 1021,297 1042,301"/>
<polygon style="fill:black;stroke:black;" points="1043,298 1052,303 1042,304 1043,298"/>
</g>
<g id="node20" class="node"><title>10</title>
<polygon style="fill:#399de5;stroke:black;" points="969,398 805,398 805,486 969,486 969,398"/>
<text text-anchor="middle" x="887" y="415">LowerLimitAge &lt;= 0.8194</text>
<text text-anchor="middle" x="887" y="431">0.4001</text>
<text text-anchor="middle" x="887" y="447">2716</text>
<text text-anchor="middle" x="887" y="463">[1196, 3129]</text>
<text text-anchor="middle" x="887" y="479">SD</text>
</g>
<g id="edge20" class="edge"><title>9&#45;&gt;10</title>
<path style="fill:none;stroke:black;" d="M680,506C714,495 756,482 794,470"/>
<polygon style="fill:black;stroke:black;" points="793,467 804,467 795,473 793,467"/>
</g>
<g id="node26" class="node"><title>13</title>
<polygon style="fill:#399de5;stroke:black;" points="914,504 860,504 860,576 914,576 914,504"/>
<text text-anchor="middle" x="887" y="521">0.0</text>
<text text-anchor="middle" x="887" y="537">17</text>
<text text-anchor="middle" x="887" y="553">[0, 32]</text>
<text text-anchor="middle" x="887" y="569">SD</text>
</g>
<g id="edge26" class="edge"><title>9&#45;&gt;13</title>
<path style="fill:none;stroke:black;" d="M680,528C732,532 806,535 850,538"/>
<polygon style="fill:black;stroke:black;" points="850,535 860,539 850,541 850,535"/>
</g>
<g id="node22" class="node"><title>11</title>
<polygon style="fill:#399de5;stroke:black;" points="1131,364 1049,364 1049,436 1131,436 1131,364"/>
<text text-anchor="middle" x="1090" y="381">0.3297</text>
<text text-anchor="middle" x="1090" y="397">1786</text>
<text text-anchor="middle" x="1090" y="413">[594, 2259]</text>
<text text-anchor="middle" x="1090" y="429">SD</text>
</g>
<g id="edge22" class="edge"><title>10&#45;&gt;11</title>
<path style="fill:none;stroke:black;" d="M970,425C993,420 1018,415 1039,410"/>
<polygon style="fill:black;stroke:black;" points="1039,407 1049,408 1040,413 1039,407"/>
</g>
<g id="node24" class="node"><title>12</title>
<polygon style="fill:#399de5;stroke:black;" points="1127,454 1053,454 1053,526 1127,526 1127,454"/>
<text text-anchor="middle" x="1090" y="471">0.4834</text>
<text text-anchor="middle" x="1090" y="487">930</text>
<text text-anchor="middle" x="1090" y="503">[602, 870]</text>
<text text-anchor="middle" x="1090" y="519">SD</text>
</g>
<g id="edge24" class="edge"><title>10&#45;&gt;12</title>
<path style="fill:none;stroke:black;" d="M970,462C995,468 1022,474 1043,479"/>
<polygon style="fill:black;stroke:black;" points="1044,476 1053,481 1043,482 1044,476"/>
</g>
<g id="node30" class="node"><title>15</title>
<polygon style="fill:#e58139;stroke:black;" points="725,614 511,614 511,702 725,702 725,614"/>
<text text-anchor="middle" x="618" y="631">SalaryOverUnderIndAvg &lt;= 0.1667</text>
<text text-anchor="middle" x="618" y="647">0.2467</text>
<text text-anchor="middle" x="618" y="663">2560</text>
<text text-anchor="middle" x="618" y="679">[3438, 579]</text>
<text text-anchor="middle" x="618" y="695">NS</text>
</g>
<g id="edge30" class="edge"><title>14&#45;&gt;15</title>
<path style="fill:none;stroke:black;" d="M475,658C484,658 492,658 501,658"/>
<polygon style="fill:black;stroke:black;" points="501,654 511,658 501,661 501,654"/>
</g>
<g id="node44" class="node"><title>22</title>
<polygon style="fill:#e58139;stroke:black;" points="701,814 535,814 535,902 701,902 701,814"/>
<text text-anchor="middle" x="618" y="831">LowerLimitAge &lt;= 0.1389</text>
<text text-anchor="middle" x="618" y="847">0.4975</text>
<text text-anchor="middle" x="618" y="863">153</text>
<text text-anchor="middle" x="618" y="879">[137, 119]</text>
<text text-anchor="middle" x="618" y="895">NS</text>
</g>
<g id="edge44" class="edge"><title>14&#45;&gt;22</title>
<path style="fill:none;stroke:black;" d="M410,702C452,733 508,775 551,808"/>
<polygon style="fill:black;stroke:black;" points="553,805 559,814 549,811 553,805"/>
</g>
<g id="node32" class="node"><title>16</title>
<polygon style="fill:#e58139;stroke:black;" points="951,610 823,610 823,698 951,698 951,610"/>
<text text-anchor="middle" x="887" y="627">AGELVL_G &lt;= 0.5</text>
<text text-anchor="middle" x="887" y="643">0.155</text>
<text text-anchor="middle" x="887" y="659">441</text>
<text text-anchor="middle" x="887" y="675">[627, 58]</text>
<text text-anchor="middle" x="887" y="691">NS</text>
</g>
<g id="edge32" class="edge"><title>15&#45;&gt;16</title>
<path style="fill:none;stroke:black;" d="M725,656C754,656 785,655 812,655"/>
<polygon style="fill:black;stroke:black;" points="812,651 822,655 812,658 812,651"/>
</g>
<g id="node38" class="node"><title>19</title>
<polygon style="fill:#e58139;stroke:black;" points="1013,716 761,716 761,804 1013,804 1013,716"/>
<text text-anchor="middle" x="887" y="733">BLS_FEDERAL_OtherSep_Level &lt;= 0.5</text>
<text text-anchor="middle" x="887" y="749">0.2638</text>
<text text-anchor="middle" x="887" y="765">2119</text>
<text text-anchor="middle" x="887" y="781">[2811, 521]</text>
<text text-anchor="middle" x="887" y="797">NS</text>
</g>
<g id="edge38" class="edge"><title>15&#45;&gt;19</title>
<path style="fill:none;stroke:black;" d="M725,699C737,704 749,708 761,712"/>
<polygon style="fill:black;stroke:black;" points="762,709 770,716 759,715 762,709"/>
</g>
<g id="node34" class="node"><title>17</title>
<polygon style="fill:#e58139;stroke:black;" points="1123,544 1057,544 1057,616 1123,616 1123,544"/>
<text text-anchor="middle" x="1090" y="561">0.1371</text>
<text text-anchor="middle" x="1090" y="577">413</text>
<text text-anchor="middle" x="1090" y="593">[588, 47]</text>
<text text-anchor="middle" x="1090" y="609">NS</text>
</g>
<g id="edge34" class="edge"><title>16&#45;&gt;17</title>
<path style="fill:none;stroke:black;" d="M952,630C983,619 1019,606 1046,596"/>
<polygon style="fill:black;stroke:black;" points="1045,592 1056,592 1048,599 1045,592"/>
</g>
<g id="node36" class="node"><title>18</title>
<polygon style="fill:#e58139;stroke:black;" points="1120,634 1060,634 1060,706 1120,706 1120,634"/>
<text text-anchor="middle" x="1090" y="651">0.3432</text>
<text text-anchor="middle" x="1090" y="667">28</text>
<text text-anchor="middle" x="1090" y="683">[39, 11]</text>
<text text-anchor="middle" x="1090" y="699">NS</text>
</g>
<g id="edge36" class="edge"><title>16&#45;&gt;18</title>
<path style="fill:none;stroke:black;" d="M952,659C984,662 1022,664 1050,667"/>
<polygon style="fill:black;stroke:black;" points="1050,664 1060,668 1050,670 1050,664"/>
</g>
<g id="node40" class="node"><title>20</title>
<polygon style="fill:#e58139;stroke:black;" points="1130,724 1050,724 1050,796 1130,796 1130,724"/>
<text text-anchor="middle" x="1090" y="741">0.2355</text>
<text text-anchor="middle" x="1090" y="757">1914</text>
<text text-anchor="middle" x="1090" y="773">[2622, 414]</text>
<text text-anchor="middle" x="1090" y="789">NS</text>
</g>
<g id="edge40" class="edge"><title>19&#45;&gt;20</title>
<path style="fill:none;stroke:black;" d="M1013,760C1022,760 1031,760 1040,760"/>
<polygon style="fill:black;stroke:black;" points="1040,756 1050,760 1040,763 1040,756"/>
</g>
<g id="node42" class="node"><title>21</title>
<polygon style="fill:#e58139;stroke:black;" points="1126,814 1054,814 1054,886 1126,886 1126,814"/>
<text text-anchor="middle" x="1090" y="831">0.4616</text>
<text text-anchor="middle" x="1090" y="847">205</text>
<text text-anchor="middle" x="1090" y="863">[189, 107]</text>
<text text-anchor="middle" x="1090" y="879">NS</text>
</g>
<g id="edge42" class="edge"><title>19&#45;&gt;21</title>
<path style="fill:none;stroke:black;" d="M992,804C999,807 1006,810 1013,813 1023,818 1034,823 1044,827"/>
<polygon style="fill:black;stroke:black;" points="1046,824 1053,832 1043,830 1046,824"/>
</g>
<g id="node46" class="node"><title>23</title>
<polygon style="fill:#399de5;stroke:black;" points="917,822 857,822 857,894 917,894 917,822"/>
<text text-anchor="middle" x="887" y="839">0.4224</text>
<text text-anchor="middle" x="887" y="855">19</text>
<text text-anchor="middle" x="887" y="871">[10, 23]</text>
<text text-anchor="middle" x="887" y="887">SD</text>
</g>
<g id="edge46" class="edge"><title>22&#45;&gt;23</title>
<path style="fill:none;stroke:black;" d="M701,858C749,858 808,858 847,858"/>
<polygon style="fill:black;stroke:black;" points="847,854 857,858 847,861 847,854"/>
</g>
<g id="node48" class="node"><title>24</title>
<polygon style="fill:#e58139;stroke:black;" points="970,912 804,912 804,1000 970,1000 970,912"/>
<text text-anchor="middle" x="887" y="929">LowerLimitAge &lt;= 0.4028</text>
<text text-anchor="middle" x="887" y="945">0.4903</text>
<text text-anchor="middle" x="887" y="961">134</text>
<text text-anchor="middle" x="887" y="977">[127, 96]</text>
<text text-anchor="middle" x="887" y="993">NS</text>
</g>
<g id="edge48" class="edge"><title>22&#45;&gt;24</title>
<path style="fill:none;stroke:black;" d="M701,888C731,899 764,911 793,922"/>
<polygon style="fill:black;stroke:black;" points="795,919 803,926 792,926 795,919"/>
</g>
<g id="node50" class="node"><title>25</title>
<polygon style="fill:#e58139;stroke:black;" points="1120,912 1060,912 1060,984 1120,984 1120,912"/>
<text text-anchor="middle" x="1090" y="929">0.3903</text>
<text text-anchor="middle" x="1090" y="945">46</text>
<text text-anchor="middle" x="1090" y="961">[58, 21]</text>
<text text-anchor="middle" x="1090" y="977">NS</text>
</g>
<g id="edge50" class="edge"><title>24&#45;&gt;25</title>
<path style="fill:none;stroke:black;" d="M971,953C998,951 1027,950 1050,949"/>
<polygon style="fill:black;stroke:black;" points="1050,945 1060,949 1050,952 1050,945"/>
</g>
<g id="node52" class="node"><title>26</title>
<polygon style="fill:#399de5;stroke:black;" points="1120,1002 1060,1002 1060,1074 1120,1074 1120,1002"/>
<text text-anchor="middle" x="1090" y="1019">0.4991</text>
<text text-anchor="middle" x="1090" y="1035">88</text>
<text text-anchor="middle" x="1090" y="1051">[69, 75]</text>
<text text-anchor="middle" x="1090" y="1067">SD</text>
</g>
<g id="edge52" class="edge"><title>24&#45;&gt;26</title>
<path style="fill:none;stroke:black;" d="M971,990C998,1000 1028,1013 1051,1022"/>
<polygon style="fill:black;stroke:black;" points="1052,1019 1060,1026 1049,1025 1052,1019"/>
</g>
</g>
</svg>
