<?xml version="1.0" encoding="UTF-8" standalone="no"?>
<!DOCTYPE svg PUBLIC "-//W3C//DTD SVG 1.0//EN"
 "http://www.w3.org/TR/2001/REC-SVG-20010904/DTD/svg10.dtd">
<!-- Generated by dot version 2.2 (Tue Jan 25 21:58:56 UTC 2005)
     For user: (amfrye) Alex Frye   Title: Tree    Pages: 1 -->
<svg width="1152pt" height="714pt"
 viewBox = "-1 -1 1151 713"
 xmlns="http://www.w3.org/2000/svg">
<g id="graph0" class="graph" style="font-family:Times-Roman;font-size:14.00;">
<title>Tree</title>
<g id="node1" class="node"><title>0</title>
<polygon style="fill:#e58139;stroke:black;" points="229,428 5,428 5,516 229,516 229,428"/>
<text text-anchor="middle" x="117" y="445">BLS_FEDERAL_Quits_Rate &lt;= 0.5</text>
<text text-anchor="middle" x="117" y="461">0.5</text>
<text text-anchor="middle" x="117" y="477">7571</text>
<text text-anchor="middle" x="117" y="493">[6013, 5924]</text>
<text text-anchor="middle" x="117" y="509">NS</text>
</g>
<g id="node2" class="node"><title>1</title>
<polygon style="fill:#e58139;stroke:black;" points="415,375 281,375 281,463 415,463 415,375"/>
<text text-anchor="middle" x="348" y="392">GSEGRD &lt;= 0.5625</text>
<text text-anchor="middle" x="348" y="408">0.4976</text>
<text text-anchor="middle" x="348" y="424">6786</text>
<text text-anchor="middle" x="348" y="440">[5703, 4969]</text>
<text text-anchor="middle" x="348" y="456">NS</text>
</g>
<g id="edge2" class="edge"><title>0&#45;&gt;1</title>
<path style="fill:none;stroke:black;" d="M229,446C243,443 258,440 271,436"/>
<polygon style="fill:black;stroke:black;" points="271,433 281,434 272,439 271,433"/>
<text text-anchor="middle" x="260" y="425">True</text>
</g>
<g id="node32" class="node"><title>16</title>
<polygon style="fill:#399de5;stroke:black;" points="430,481 266,481 266,569 430,569 430,481"/>
<text text-anchor="middle" x="348" y="498">LowerLimitAge &lt;= 0.8194</text>
<text text-anchor="middle" x="348" y="514">0.37</text>
<text text-anchor="middle" x="348" y="530">785</text>
<text text-anchor="middle" x="348" y="546">[310, 955]</text>
<text text-anchor="middle" x="348" y="562">SD</text>
</g>
<g id="edge32" class="edge"><title>0&#45;&gt;16</title>
<path style="fill:none;stroke:black;" d="M229,498C238,500 246,502 255,504"/>
<polygon style="fill:black;stroke:black;" points="256,501 265,506 255,507 256,501"/>
<text text-anchor="middle" x="244" y="525">False</text>
</g>
<g id="node4" class="node"><title>2</title>
<polygon style="fill:#399de5;stroke:black;" points="713,244 467,244 467,332 713,332 713,244"/>
<text text-anchor="middle" x="590" y="261">BLS_FEDERAL_OtherSep_Rate &lt;= 0.5</text>
<text text-anchor="middle" x="590" y="277">0.4659</text>
<text text-anchor="middle" x="590" y="293">2183</text>
<text text-anchor="middle" x="590" y="309">[1263, 2156]</text>
<text text-anchor="middle" x="590" y="325">SD</text>
</g>
<g id="edge4" class="edge"><title>1&#45;&gt;2</title>
<path style="fill:none;stroke:black;" d="M415,383C441,368 472,352 500,337"/>
<polygon style="fill:black;stroke:black;" points="499,334 509,332 502,340 499,334"/>
</g>
<g id="node18" class="node"><title>9</title>
<polygon style="fill:#e58139;stroke:black;" points="687,379 493,379 493,467 687,467 687,379"/>
<text text-anchor="middle" x="590" y="396">SalaryOverUnderIndAvg &lt;= 0.5</text>
<text text-anchor="middle" x="590" y="412">0.4748</text>
<text text-anchor="middle" x="590" y="428">4603</text>
<text text-anchor="middle" x="590" y="444">[4440, 2813]</text>
<text text-anchor="middle" x="590" y="460">NS</text>
</g>
<g id="edge18" class="edge"><title>1&#45;&gt;9</title>
<path style="fill:none;stroke:black;" d="M415,420C436,420 459,421 482,421"/>
<polygon style="fill:black;stroke:black;" points="482,417 492,421 482,424 482,417"/>
</g>
<g id="node6" class="node"><title>3</title>
<polygon style="fill:#399de5;stroke:black;" points="968,86 802,86 802,174 968,174 968,86"/>
<text text-anchor="middle" x="885" y="103">LowerLimitAge &lt;= 0.1389</text>
<text text-anchor="middle" x="885" y="119">0.4698</text>
<text text-anchor="middle" x="885" y="135">2094</text>
<text text-anchor="middle" x="885" y="151">[1235, 2040]</text>
<text text-anchor="middle" x="885" y="167">SD</text>
</g>
<g id="edge6" class="edge"><title>2&#45;&gt;3</title>
<path style="fill:none;stroke:black;" d="M672,244C710,224 755,200 793,179"/>
<polygon style="fill:black;stroke:black;" points="792,176 802,174 795,182 792,176"/>
</g>
<g id="node12" class="node"><title>6</title>
<polygon style="fill:#399de5;stroke:black;" points="968,244 802,244 802,332 968,332 968,244"/>
<text text-anchor="middle" x="885" y="261">LowerLimitAge &lt;= 0.4028</text>
<text text-anchor="middle" x="885" y="277">0.3133</text>
<text text-anchor="middle" x="885" y="293">89</text>
<text text-anchor="middle" x="885" y="309">[28, 116]</text>
<text text-anchor="middle" x="885" y="325">SD</text>
</g>
<g id="edge12" class="edge"><title>2&#45;&gt;6</title>
<path style="fill:none;stroke:black;" d="M713,288C739,288 766,288 791,288"/>
<polygon style="fill:black;stroke:black;" points="791,284 801,288 791,291 791,284"/>
</g>
<g id="node8" class="node"><title>4</title>
<polygon style="fill:#399de5;stroke:black;" points="1137,4 1065,4 1065,76 1137,76 1137,4"/>
<text text-anchor="middle" x="1101" y="21">0.3897</text>
<text text-anchor="middle" x="1101" y="37">361</text>
<text text-anchor="middle" x="1101" y="53">[149, 413]</text>
<text text-anchor="middle" x="1101" y="69">SD</text>
</g>
<g id="edge8" class="edge"><title>3&#45;&gt;4</title>
<path style="fill:none;stroke:black;" d="M968,95C998,83 1031,69 1056,59"/>
<polygon style="fill:black;stroke:black;" points="1054,56 1065,55 1057,62 1054,56"/>
</g>
<g id="node10" class="node"><title>5</title>
<polygon style="fill:#399de5;stroke:black;" points="1144,94 1058,94 1058,166 1144,166 1144,94"/>
<text text-anchor="middle" x="1101" y="111">0.4801</text>
<text text-anchor="middle" x="1101" y="127">1733</text>
<text text-anchor="middle" x="1101" y="143">[1086, 1627]</text>
<text text-anchor="middle" x="1101" y="159">SD</text>
</g>
<g id="edge10" class="edge"><title>3&#45;&gt;5</title>
<path style="fill:none;stroke:black;" d="M968,130C994,130 1023,130 1047,130"/>
<polygon style="fill:black;stroke:black;" points="1047,126 1057,130 1047,133 1047,126"/>
</g>
<g id="node14" class="node"><title>7</title>
<polygon style="fill:#399de5;stroke:black;" points="1131,184 1071,184 1071,256 1131,256 1131,184"/>
<text text-anchor="middle" x="1101" y="201">0.4321</text>
<text text-anchor="middle" x="1101" y="217">36</text>
<text text-anchor="middle" x="1101" y="233">[18, 39]</text>
<text text-anchor="middle" x="1101" y="249">SD</text>
</g>
<g id="edge14" class="edge"><title>6&#45;&gt;7</title>
<path style="fill:none;stroke:black;" d="M969,262C1001,252 1035,241 1061,233"/>
<polygon style="fill:black;stroke:black;" points="1060,230 1071,230 1062,236 1060,230"/>
</g>
<g id="node16" class="node"><title>8</title>
<polygon style="fill:#399de5;stroke:black;" points="1131,274 1071,274 1071,346 1131,346 1131,274"/>
<text text-anchor="middle" x="1101" y="291">0.2035</text>
<text text-anchor="middle" x="1101" y="307">53</text>
<text text-anchor="middle" x="1101" y="323">[10, 77]</text>
<text text-anchor="middle" x="1101" y="339">SD</text>
</g>
<g id="edge16" class="edge"><title>6&#45;&gt;8</title>
<path style="fill:none;stroke:black;" d="M969,297C1001,301 1035,303 1061,306"/>
<polygon style="fill:black;stroke:black;" points="1061,303 1071,307 1061,309 1061,303"/>
</g>
<g id="node20" class="node"><title>10</title>
<polygon style="fill:#e58139;stroke:black;" points="1021,379 749,379 749,467 1021,467 1021,379"/>
<text text-anchor="middle" x="885" y="396">BLS_FEDERAL_JobOpenings_Level &lt;= 0.5</text>
<text text-anchor="middle" x="885" y="412">0.4861</text>
<text text-anchor="middle" x="885" y="428">2831</text>
<text text-anchor="middle" x="885" y="444">[2596, 1854]</text>
<text text-anchor="middle" x="885" y="460">NS</text>
</g>
<g id="edge20" class="edge"><title>9&#45;&gt;10</title>
<path style="fill:none;stroke:black;" d="M688,423C705,423 721,423 739,423"/>
<polygon style="fill:black;stroke:black;" points="739,419 749,423 739,426 739,419"/>
</g>
<g id="node26" class="node"><title>13</title>
<polygon style="fill:#e58139;stroke:black;" points="1018,536 752,536 752,624 1018,624 1018,536"/>
<text text-anchor="middle" x="885" y="553">BLS_FEDERAL_JobOpenings_Rate &lt;= 0.5</text>
<text text-anchor="middle" x="885" y="569">0.4502</text>
<text text-anchor="middle" x="885" y="585">1772</text>
<text text-anchor="middle" x="885" y="601">[1844, 959]</text>
<text text-anchor="middle" x="885" y="617">NS</text>
</g>
<g id="edge26" class="edge"><title>9&#45;&gt;13</title>
<path style="fill:none;stroke:black;" d="M688,466C696,470 705,474 713,478 744,494 777,513 806,531"/>
<polygon style="fill:black;stroke:black;" points="808,528 815,536 805,534 808,528"/>
</g>
<g id="node22" class="node"><title>11</title>
<polygon style="fill:#e58139;stroke:black;" points="1143,364 1059,364 1059,436 1143,436 1143,364"/>
<text text-anchor="middle" x="1101" y="381">0.4947</text>
<text text-anchor="middle" x="1101" y="397">2424</text>
<text text-anchor="middle" x="1101" y="413">[2109, 1716]</text>
<text text-anchor="middle" x="1101" y="429">NS</text>
</g>
<g id="edge22" class="edge"><title>10&#45;&gt;11</title>
<path style="fill:none;stroke:black;" d="M1021,408C1030,407 1040,406 1049,405"/>
<polygon style="fill:black;stroke:black;" points="1049,402 1059,404 1049,408 1049,402"/>
</g>
<g id="node24" class="node"><title>12</title>
<polygon style="fill:#e58139;stroke:black;" points="1137,454 1065,454 1065,526 1137,526 1137,454"/>
<text text-anchor="middle" x="1101" y="471">0.3441</text>
<text text-anchor="middle" x="1101" y="487">407</text>
<text text-anchor="middle" x="1101" y="503">[487, 138]</text>
<text text-anchor="middle" x="1101" y="519">NS</text>
</g>
<g id="edge24" class="edge"><title>10&#45;&gt;12</title>
<path style="fill:none;stroke:black;" d="M1021,465C1033,469 1044,472 1054,476"/>
<polygon style="fill:black;stroke:black;" points="1055,473 1064,479 1053,479 1055,473"/>
</g>
<g id="node28" class="node"><title>14</title>
<polygon style="fill:#e58139;stroke:black;" points="1141,544 1061,544 1061,616 1141,616 1141,544"/>
<text text-anchor="middle" x="1101" y="561">0.4311</text>
<text text-anchor="middle" x="1101" y="577">1600</text>
<text text-anchor="middle" x="1101" y="593">[1734, 795]</text>
<text text-anchor="middle" x="1101" y="609">NS</text>
</g>
<g id="edge28" class="edge"><title>13&#45;&gt;14</title>
<path style="fill:none;stroke:black;" d="M1019,580C1030,580 1041,580 1051,580"/>
<polygon style="fill:black;stroke:black;" points="1051,576 1061,580 1051,583 1051,576"/>
</g>
<g id="node30" class="node"><title>15</title>
<polygon style="fill:#399de5;stroke:black;" points="1137,634 1065,634 1065,706 1137,706 1137,634"/>
<text text-anchor="middle" x="1101" y="651">0.4806</text>
<text text-anchor="middle" x="1101" y="667">172</text>
<text text-anchor="middle" x="1101" y="683">[110, 164]</text>
<text text-anchor="middle" x="1101" y="699">SD</text>
</g>
<g id="edge30" class="edge"><title>13&#45;&gt;15</title>
<path style="fill:none;stroke:black;" d="M991,624C1014,633 1036,643 1056,651"/>
<polygon style="fill:black;stroke:black;" points="1057,648 1065,655 1054,654 1057,648"/>
</g>
<g id="node34" class="node"><title>17</title>
<polygon style="fill:#399de5;stroke:black;" points="627,487 553,487 553,559 627,559 627,487"/>
<text text-anchor="middle" x="590" y="504">0.3329</text>
<text text-anchor="middle" x="590" y="520">658</text>
<text text-anchor="middle" x="590" y="536">[223, 834]</text>
<text text-anchor="middle" x="590" y="552">SD</text>
</g>
<g id="edge34" class="edge"><title>16&#45;&gt;17</title>
<path style="fill:none;stroke:black;" d="M431,524C468,524 510,524 542,523"/>
<polygon style="fill:black;stroke:black;" points="542,519 552,523 542,526 542,519"/>
</g>
<g id="node36" class="node"><title>18</title>
<polygon style="fill:#399de5;stroke:black;" points="622,577 558,577 558,649 622,649 622,577"/>
<text text-anchor="middle" x="590" y="594">0.4866</text>
<text text-anchor="middle" x="590" y="610">127</text>
<text text-anchor="middle" x="590" y="626">[87, 121]</text>
<text text-anchor="middle" x="590" y="642">SD</text>
</g>
<g id="edge36" class="edge"><title>16&#45;&gt;18</title>
<path style="fill:none;stroke:black;" d="M431,555C470,569 516,586 548,597"/>
<polygon style="fill:black;stroke:black;" points="549,594 557,601 546,600 549,594"/>
</g>
</g>
</svg>
