<?xml version="1.0" encoding="UTF-8" standalone="no"?>
<!DOCTYPE svg PUBLIC "-//W3C//DTD SVG 1.0//EN"
 "http://www.w3.org/TR/2001/REC-SVG-20010904/DTD/svg10.dtd">
<!-- Generated by dot version 2.2 (Tue Jan 25 21:58:56 UTC 2005)
     For user: (amfrye) Alex Frye   Title: Tree    Pages: 1 -->
<svg width="1042pt" height="1082pt"
 viewBox = "-1 -1 1041 1081"
 xmlns="http://www.w3.org/2000/svg">
<g id="graph0" class="graph" style="font-family:Times-Roman;font-size:14.00;">
<title>Tree</title>
<g id="node1" class="node"><title>0</title>
<polygon style="fill:#e58139;stroke:black;" points="159,527 5,527 5,615 159,615 159,527"/>
<text text-anchor="middle" x="82" y="544">IndAvgSalary &lt;= 0.7222</text>
<text text-anchor="middle" x="82" y="560">0.4999</text>
<text text-anchor="middle" x="82" y="576">7514</text>
<text text-anchor="middle" x="82" y="592">[6059, 5878]</text>
<text text-anchor="middle" x="82" y="608">NS</text>
</g>
<g id="node2" class="node"><title>1</title>
<polygon style="fill:#399de5;stroke:black;" points="334,383 212,383 212,471 334,471 334,383"/>
<text text-anchor="middle" x="273" y="400">AGELVL_I &lt;= 0.5</text>
<text text-anchor="middle" x="273" y="416">0.465</text>
<text text-anchor="middle" x="273" y="432">5173</text>
<text text-anchor="middle" x="273" y="448">[3011, 5177]</text>
<text text-anchor="middle" x="273" y="464">SD</text>
</g>
<g id="edge2" class="edge"><title>0&#45;&gt;1</title>
<path style="fill:none;stroke:black;" d="M141,527C161,511 185,494 206,477"/>
<polygon style="fill:black;stroke:black;" points="204,474 214,471 208,480 204,474"/>
<text text-anchor="middle" x="189" y="472">True</text>
</g>
<g id="node28" class="node"><title>14</title>
<polygon style="fill:#e58139;stroke:black;" points="350,671 196,671 196,759 350,759 350,671"/>
<text text-anchor="middle" x="273" y="688">IndAvgSalary &lt;= 0.8333</text>
<text text-anchor="middle" x="273" y="704">0.304</text>
<text text-anchor="middle" x="273" y="720">2341</text>
<text text-anchor="middle" x="273" y="736">[3048, 701]</text>
<text text-anchor="middle" x="273" y="752">NS</text>
</g>
<g id="edge28" class="edge"><title>0&#45;&gt;14</title>
<path style="fill:none;stroke:black;" d="M141,615C161,631 185,648 206,665"/>
<polygon style="fill:black;stroke:black;" points="208,662 214,671 204,668 208,662"/>
<text text-anchor="middle" x="189" y="680">False</text>
</g>
<g id="node4" class="node"><title>2</title>
<polygon style="fill:#399de5;stroke:black;" points="639,207 387,207 387,295 639,295 639,207"/>
<text text-anchor="middle" x="513" y="224">BLS_FEDERAL_OtherSep_Level &lt;= 0.5</text>
<text text-anchor="middle" x="513" y="240">0.4741</text>
<text text-anchor="middle" x="513" y="256">4490</text>
<text text-anchor="middle" x="513" y="272">[2750, 4371]</text>
<text text-anchor="middle" x="513" y="288">SD</text>
</g>
<g id="edge4" class="edge"><title>1&#45;&gt;2</title>
<path style="fill:none;stroke:black;" d="M333,383C367,358 409,327 445,301"/>
<polygon style="fill:black;stroke:black;" points="443,298 453,295 447,304 443,298"/>
</g>
<g id="node18" class="node"><title>9</title>
<polygon style="fill:#399de5;stroke:black;" points="620,383 406,383 406,471 620,471 620,383"/>
<text text-anchor="middle" x="513" y="400">SalaryOverUnderIndAvg &lt;= 0.1667</text>
<text text-anchor="middle" x="513" y="416">0.3696</text>
<text text-anchor="middle" x="513" y="432">683</text>
<text text-anchor="middle" x="513" y="448">[261, 806]</text>
<text text-anchor="middle" x="513" y="464">SD</text>
</g>
<g id="edge18" class="edge"><title>1&#45;&gt;9</title>
<path style="fill:none;stroke:black;" d="M335,427C354,427 375,427 396,427"/>
<polygon style="fill:black;stroke:black;" points="396,423 406,427 396,430 396,423"/>
</g>
<g id="node6" class="node"><title>3</title>
<polygon style="fill:#399de5;stroke:black;" points="900,86 686,86 686,174 900,174 900,86"/>
<text text-anchor="middle" x="793" y="103">SalaryOverUnderIndAvg &lt;= 0.1667</text>
<text text-anchor="middle" x="793" y="119">0.4667</text>
<text text-anchor="middle" x="793" y="135">3870</text>
<text text-anchor="middle" x="793" y="151">[2273, 3855]</text>
<text text-anchor="middle" x="793" y="167">SD</text>
</g>
<g id="edge6" class="edge"><title>2&#45;&gt;3</title>
<path style="fill:none;stroke:black;" d="M615,207C637,197 660,188 682,178"/>
<polygon style="fill:black;stroke:black;" points="680,175 691,174 683,181 680,175"/>
</g>
<g id="node12" class="node"><title>6</title>
<polygon style="fill:#399de5;stroke:black;" points="901,207 685,207 685,295 901,295 901,207"/>
<text text-anchor="middle" x="793" y="224">SalaryOverUnderIndAvg &lt;= 0.8333</text>
<text text-anchor="middle" x="793" y="240">0.4992</text>
<text text-anchor="middle" x="793" y="256">620</text>
<text text-anchor="middle" x="793" y="272">[477, 516]</text>
<text text-anchor="middle" x="793" y="288">SD</text>
</g>
<g id="edge12" class="edge"><title>2&#45;&gt;6</title>
<path style="fill:none;stroke:black;" d="M639,251C651,251 663,251 675,251"/>
<polygon style="fill:black;stroke:black;" points="675,247 685,251 675,254 675,247"/>
</g>
<g id="node8" class="node"><title>4</title>
<polygon style="fill:#399de5;stroke:black;" points="1027,4 955,4 955,76 1027,76 1027,4"/>
<text text-anchor="middle" x="991" y="21">0.4999</text>
<text text-anchor="middle" x="991" y="37">735</text>
<text text-anchor="middle" x="991" y="53">[574, 589]</text>
<text text-anchor="middle" x="991" y="69">SD</text>
</g>
<g id="edge8" class="edge"><title>3&#45;&gt;4</title>
<path style="fill:none;stroke:black;" d="M890,86C909,77 928,68 945,61"/>
<polygon style="fill:black;stroke:black;" points="943,58 954,57 946,64 943,58"/>
</g>
<g id="node10" class="node"><title>5</title>
<polygon style="fill:#399de5;stroke:black;" points="1035,94 947,94 947,166 1035,166 1035,94"/>
<text text-anchor="middle" x="991" y="111">0.4502</text>
<text text-anchor="middle" x="991" y="127">3135</text>
<text text-anchor="middle" x="991" y="143">[1699, 3266]</text>
<text text-anchor="middle" x="991" y="159">SD</text>
</g>
<g id="edge10" class="edge"><title>3&#45;&gt;5</title>
<path style="fill:none;stroke:black;" d="M900,130C913,130 925,130 937,130"/>
<polygon style="fill:black;stroke:black;" points="937,126 947,130 937,133 937,126"/>
</g>
<g id="node14" class="node"><title>7</title>
<polygon style="fill:#399de5;stroke:black;" points="1028,184 954,184 954,256 1028,256 1028,184"/>
<text text-anchor="middle" x="991" y="201">0.4999</text>
<text text-anchor="middle" x="991" y="217">562</text>
<text text-anchor="middle" x="991" y="233">[449, 459]</text>
<text text-anchor="middle" x="991" y="249">SD</text>
</g>
<g id="edge14" class="edge"><title>6&#45;&gt;7</title>
<path style="fill:none;stroke:black;" d="M901,234C916,232 930,229 943,227"/>
<polygon style="fill:black;stroke:black;" points="943,224 953,226 943,230 943,224"/>
</g>
<g id="node16" class="node"><title>8</title>
<polygon style="fill:#399de5;stroke:black;" points="1021,274 961,274 961,346 1021,346 1021,274"/>
<text text-anchor="middle" x="991" y="291">0.4418</text>
<text text-anchor="middle" x="991" y="307">58</text>
<text text-anchor="middle" x="991" y="323">[28, 57]</text>
<text text-anchor="middle" x="991" y="339">SD</text>
</g>
<g id="edge16" class="edge"><title>6&#45;&gt;8</title>
<path style="fill:none;stroke:black;" d="M901,283C919,289 936,294 951,298"/>
<polygon style="fill:black;stroke:black;" points="952,295 961,301 950,301 952,295"/>
</g>
<g id="node20" class="node"><title>10</title>
<polygon style="fill:#399de5;stroke:black;" points="826,342 760,342 760,414 826,414 826,342"/>
<text text-anchor="middle" x="793" y="359">0.4767</text>
<text text-anchor="middle" x="793" y="375">128</text>
<text text-anchor="middle" x="793" y="391">[80, 124]</text>
<text text-anchor="middle" x="793" y="407">SD</text>
</g>
<g id="edge20" class="edge"><title>9&#45;&gt;10</title>
<path style="fill:none;stroke:black;" d="M620,408C665,400 715,392 749,386"/>
<polygon style="fill:black;stroke:black;" points="749,383 759,384 750,389 749,383"/>
</g>
<g id="node22" class="node"><title>11</title>
<polygon style="fill:#399de5;stroke:black;" points="870,432 716,432 716,520 870,520 870,432"/>
<text text-anchor="middle" x="793" y="449">IndAvgSalary &lt;= 0.3889</text>
<text text-anchor="middle" x="793" y="465">0.3315</text>
<text text-anchor="middle" x="793" y="481">555</text>
<text text-anchor="middle" x="793" y="497">[181, 682]</text>
<text text-anchor="middle" x="793" y="513">SD</text>
</g>
<g id="edge22" class="edge"><title>9&#45;&gt;11</title>
<path style="fill:none;stroke:black;" d="M620,446C648,451 678,457 705,461"/>
<polygon style="fill:black;stroke:black;" points="706,458 715,463 705,464 706,458"/>
</g>
<g id="node24" class="node"><title>12</title>
<polygon style="fill:#399de5;stroke:black;" points="1024,364 958,364 958,436 1024,436 1024,364"/>
<text text-anchor="middle" x="991" y="381">0.2602</text>
<text text-anchor="middle" x="991" y="397">341</text>
<text text-anchor="middle" x="991" y="413">[83, 457]</text>
<text text-anchor="middle" x="991" y="429">SD</text>
</g>
<g id="edge24" class="edge"><title>11&#45;&gt;12</title>
<path style="fill:none;stroke:black;" d="M871,446C897,436 926,425 948,417"/>
<polygon style="fill:black;stroke:black;" points="946,414 957,413 949,420 946,414"/>
</g>
<g id="node26" class="node"><title>13</title>
<polygon style="fill:#399de5;stroke:black;" points="1025,454 957,454 957,526 1025,526 1025,454"/>
<text text-anchor="middle" x="991" y="471">0.4227</text>
<text text-anchor="middle" x="991" y="487">214</text>
<text text-anchor="middle" x="991" y="503">[98, 225]</text>
<text text-anchor="middle" x="991" y="519">SD</text>
</g>
<g id="edge26" class="edge"><title>11&#45;&gt;13</title>
<path style="fill:none;stroke:black;" d="M871,481C897,483 924,485 947,486"/>
<polygon style="fill:black;stroke:black;" points="947,483 957,487 947,489 947,483"/>
</g>
<g id="node30" class="node"><title>15</title>
<polygon style="fill:#e58139;stroke:black;" points="574,671 452,671 452,759 574,759 574,671"/>
<text text-anchor="middle" x="513" y="688">AGELVL_I &lt;= 0.5</text>
<text text-anchor="middle" x="513" y="704">0.4012</text>
<text text-anchor="middle" x="513" y="720">944</text>
<text text-anchor="middle" x="513" y="736">[1134, 436]</text>
<text text-anchor="middle" x="513" y="752">NS</text>
</g>
<g id="edge30" class="edge"><title>14&#45;&gt;15</title>
<path style="fill:none;stroke:black;" d="M351,715C380,715 413,715 441,715"/>
<polygon style="fill:black;stroke:black;" points="441,711 451,715 441,718 441,711"/>
</g>
<g id="node44" class="node"><title>22</title>
<polygon style="fill:#e58139;stroke:black;" points="631,896 395,896 395,984 631,984 631,896"/>
<text text-anchor="middle" x="513" y="913">BLS_FEDERAL_Layoffs_Rate &lt;= 0.5</text>
<text text-anchor="middle" x="513" y="929">0.2137</text>
<text text-anchor="middle" x="513" y="945">1397</text>
<text text-anchor="middle" x="513" y="961">[1914, 265]</text>
<text text-anchor="middle" x="513" y="977">NS</text>
</g>
<g id="edge44" class="edge"><title>14&#45;&gt;22</title>
<path style="fill:none;stroke:black;" d="M320,759C360,797 417,850 458,889"/>
<polygon style="fill:black;stroke:black;" points="461,887 466,896 456,892 461,887"/>
</g>
<g id="node32" class="node"><title>16</title>
<polygon style="fill:#e58139;stroke:black;" points="911,618 675,618 675,706 911,706 911,618"/>
<text text-anchor="middle" x="793" y="635">BLS_FEDERAL_Layoffs_Rate &lt;= 0.5</text>
<text text-anchor="middle" x="793" y="651">0.3688</text>
<text text-anchor="middle" x="793" y="667">863</text>
<text text-anchor="middle" x="793" y="683">[1082, 349]</text>
<text text-anchor="middle" x="793" y="699">NS</text>
</g>
<g id="edge32" class="edge"><title>15&#45;&gt;16</title>
<path style="fill:none;stroke:black;" d="M575,703C601,698 634,692 665,686"/>
<polygon style="fill:black;stroke:black;" points="665,683 675,684 666,689 665,683"/>
</g>
<g id="node38" class="node"><title>19</title>
<polygon style="fill:#399de5;stroke:black;" points="876,724 710,724 710,812 876,812 876,724"/>
<text text-anchor="middle" x="793" y="741">LowerLimitAge &lt;= 0.9306</text>
<text text-anchor="middle" x="793" y="757">0.4683</text>
<text text-anchor="middle" x="793" y="773">81</text>
<text text-anchor="middle" x="793" y="789">[52, 87]</text>
<text text-anchor="middle" x="793" y="805">SD</text>
</g>
<g id="edge38" class="edge"><title>15&#45;&gt;19</title>
<path style="fill:none;stroke:black;" d="M575,727C611,733 658,742 699,750"/>
<polygon style="fill:black;stroke:black;" points="700,747 709,752 699,753 700,747"/>
</g>
<g id="node34" class="node"><title>17</title>
<polygon style="fill:#e58139;stroke:black;" points="1031,544 951,544 951,616 1031,616 1031,544"/>
<text text-anchor="middle" x="991" y="561">0.363</text>
<text text-anchor="middle" x="991" y="577">844</text>
<text text-anchor="middle" x="991" y="593">[1071, 335]</text>
<text text-anchor="middle" x="991" y="609">NS</text>
</g>
<g id="edge34" class="edge"><title>16&#45;&gt;17</title>
<path style="fill:none;stroke:black;" d="M899,618C913,612 928,606 941,601"/>
<polygon style="fill:black;stroke:black;" points="940,597 951,597 943,604 940,597"/>
</g>
<g id="node36" class="node"><title>18</title>
<polygon style="fill:#399de5;stroke:black;" points="1020,634 962,634 962,706 1020,706 1020,634"/>
<text text-anchor="middle" x="991" y="651">0.4928</text>
<text text-anchor="middle" x="991" y="667">19</text>
<text text-anchor="middle" x="991" y="683">[11, 14]</text>
<text text-anchor="middle" x="991" y="699">SD</text>
</g>
<g id="edge36" class="edge"><title>16&#45;&gt;18</title>
<path style="fill:none;stroke:black;" d="M911,667C926,667 940,668 952,668"/>
<polygon style="fill:black;stroke:black;" points="952,665 962,669 952,671 952,665"/>
</g>
<g id="node40" class="node"><title>20</title>
<polygon style="fill:#399de5;stroke:black;" points="1021,724 961,724 961,796 1021,796 1021,724"/>
<text text-anchor="middle" x="991" y="741">0.4819</text>
<text text-anchor="middle" x="991" y="757">72</text>
<text text-anchor="middle" x="991" y="773">[49, 72]</text>
<text text-anchor="middle" x="991" y="789">SD</text>
</g>
<g id="edge40" class="edge"><title>19&#45;&gt;20</title>
<path style="fill:none;stroke:black;" d="M877,765C903,763 929,762 951,761"/>
<polygon style="fill:black;stroke:black;" points="951,757 961,761 951,764 951,757"/>
</g>
<g id="node42" class="node"><title>21</title>
<polygon style="fill:#399de5;stroke:black;" points="1018,814 964,814 964,886 1018,886 1018,814"/>
<text text-anchor="middle" x="991" y="831">0.2778</text>
<text text-anchor="middle" x="991" y="847">9</text>
<text text-anchor="middle" x="991" y="863">[3, 15]</text>
<text text-anchor="middle" x="991" y="879">SD</text>
</g>
<g id="edge42" class="edge"><title>19&#45;&gt;21</title>
<path style="fill:none;stroke:black;" d="M877,803C904,814 933,826 955,835"/>
<polygon style="fill:black;stroke:black;" points="956,832 964,839 953,838 956,832"/>
</g>
<g id="node46" class="node"><title>23</title>
<polygon style="fill:#e58139;stroke:black;" points="856,896 730,896 730,984 856,984 856,896"/>
<text text-anchor="middle" x="793" y="913">AGELVL_F &lt;= 0.5</text>
<text text-anchor="middle" x="793" y="929">0.2072</text>
<text text-anchor="middle" x="793" y="945">1361</text>
<text text-anchor="middle" x="793" y="961">[1872, 249]</text>
<text text-anchor="middle" x="793" y="977">NS</text>
</g>
<g id="edge46" class="edge"><title>22&#45;&gt;23</title>
<path style="fill:none;stroke:black;" d="M631,940C661,940 692,940 719,940"/>
<polygon style="fill:black;stroke:black;" points="719,936 729,940 719,943 719,936"/>
</g>
<g id="node52" class="node"><title>26</title>
<polygon style="fill:#e58139;stroke:black;" points="823,1002 763,1002 763,1074 823,1074 823,1002"/>
<text text-anchor="middle" x="793" y="1019">0.3995</text>
<text text-anchor="middle" x="793" y="1035">36</text>
<text text-anchor="middle" x="793" y="1051">[42, 16]</text>
<text text-anchor="middle" x="793" y="1067">NS</text>
</g>
<g id="edge52" class="edge"><title>22&#45;&gt;26</title>
<path style="fill:none;stroke:black;" d="M631,981C675,996 721,1013 754,1024"/>
<polygon style="fill:black;stroke:black;" points="755,1021 763,1027 752,1027 755,1021"/>
</g>
<g id="node48" class="node"><title>24</title>
<polygon style="fill:#e58139;stroke:black;" points="1030,904 952,904 952,976 1030,976 1030,904"/>
<text text-anchor="middle" x="991" y="921">0.2006</text>
<text text-anchor="middle" x="991" y="937">1348</text>
<text text-anchor="middle" x="991" y="953">[1867, 238]</text>
<text text-anchor="middle" x="991" y="969">NS</text>
</g>
<g id="edge48" class="edge"><title>23&#45;&gt;24</title>
<path style="fill:none;stroke:black;" d="M857,940C884,940 915,940 941,940"/>
<polygon style="fill:black;stroke:black;" points="941,936 951,940 941,943 941,936"/>
</g>
<g id="node50" class="node"><title>25</title>
<polygon style="fill:#399de5;stroke:black;" points="1018,994 964,994 964,1066 1018,1066 1018,994"/>
<text text-anchor="middle" x="991" y="1011">0.4297</text>
<text text-anchor="middle" x="991" y="1027">13</text>
<text text-anchor="middle" x="991" y="1043">[5, 11]</text>
<text text-anchor="middle" x="991" y="1059">SD</text>
</g>
<g id="edge50" class="edge"><title>23&#45;&gt;25</title>
<path style="fill:none;stroke:black;" d="M857,969C874,977 893,985 911,993 925,999 941,1007 954,1013"/>
<polygon style="fill:black;stroke:black;" points="955,1010 963,1017 952,1016 955,1010"/>
</g>
</g>
</svg>
