<?xml version="1.0" encoding="UTF-8" standalone="no"?>
<!DOCTYPE svg PUBLIC "-//W3C//DTD SVG 1.0//EN"
 "http://www.w3.org/TR/2001/REC-SVG-20010904/DTD/svg10.dtd">
<!-- Generated by dot version 2.2 (Tue Jan 25 21:58:56 UTC 2005)
     For user: (amfrye) Alex Frye   Title: Tree    Pages: 1 -->
<svg width="1006pt" height="1008pt"
 viewBox = "-1 -1 1005 1007"
 xmlns="http://www.w3.org/2000/svg">
<g id="graph0" class="graph" style="font-family:Times-Roman;font-size:14.00;">
<title>Tree</title>
<g id="node1" class="node"><title>0</title>
<polygon style="fill:#e58139;stroke:black;" points="139,586 5,586 5,674 139,674 139,586"/>
<text text-anchor="middle" x="72" y="603">SALARYLog &lt;= 0.5</text>
<text text-anchor="middle" x="72" y="619">0.5</text>
<text text-anchor="middle" x="72" y="635">7499</text>
<text text-anchor="middle" x="72" y="651">[6026, 5911]</text>
<text text-anchor="middle" x="72" y="667">NS</text>
</g>
<g id="node2" class="node"><title>1</title>
<polygon style="fill:#e58139;stroke:black;" points="345,512 191,512 191,600 345,600 345,512"/>
<text text-anchor="middle" x="268" y="529">IndAvgSalary &lt;= 0.7222</text>
<text text-anchor="middle" x="268" y="545">0.5</text>
<text text-anchor="middle" x="268" y="561">7356</text>
<text text-anchor="middle" x="268" y="577">[5882, 5827]</text>
<text text-anchor="middle" x="268" y="593">NS</text>
</g>
<g id="edge2" class="edge"><title>0&#45;&gt;1</title>
<path style="fill:none;stroke:black;" d="M139,605C153,600 167,595 181,589"/>
<polygon style="fill:black;stroke:black;" points="180,585 191,585 183,592 180,585"/>
<text text-anchor="middle" x="168" y="580">True</text>
</g>
<g id="node32" class="node"><title>16</title>
<polygon style="fill:#e58139;stroke:black;" points="360,659 176,659 176,747 360,747 360,659"/>
<text text-anchor="middle" x="268" y="676">YearsToRetirement &lt;= 0.3073</text>
<text text-anchor="middle" x="268" y="692">0.4654</text>
<text text-anchor="middle" x="268" y="708">143</text>
<text text-anchor="middle" x="268" y="724">[144, 84]</text>
<text text-anchor="middle" x="268" y="740">NS</text>
</g>
<g id="edge32" class="edge"><title>0&#45;&gt;16</title>
<path style="fill:none;stroke:black;" d="M139,655C148,658 157,661 165,665"/>
<polygon style="fill:black;stroke:black;" points="166,662 175,668 164,668 166,662"/>
<text text-anchor="middle" x="153" y="685">False</text>
</g>
<g id="node4" class="node"><title>2</title>
<polygon style="fill:#399de5;stroke:black;" points="643,229 397,229 397,317 643,317 643,229"/>
<text text-anchor="middle" x="520" y="246">BLS_FEDERAL_OtherSep_Rate &lt;= 0.5</text>
<text text-anchor="middle" x="520" y="262">0.4624</text>
<text text-anchor="middle" x="520" y="278">5072</text>
<text text-anchor="middle" x="520" y="294">[2930, 5143]</text>
<text text-anchor="middle" x="520" y="310">SD</text>
</g>
<g id="edge4" class="edge"><title>1&#45;&gt;2</title>
<path style="fill:none;stroke:black;" d="M307,512C352,461 426,378 473,325"/>
<polygon style="fill:black;stroke:black;" points="471,322 480,317 476,327 471,322"/>
</g>
<g id="node18" class="node"><title>9</title>
<polygon style="fill:#e58139;stroke:black;" points="597,512 443,512 443,600 597,600 597,512"/>
<text text-anchor="middle" x="520" y="529">IndAvgSalary &lt;= 0.8333</text>
<text text-anchor="middle" x="520" y="545">0.3055</text>
<text text-anchor="middle" x="520" y="561">2284</text>
<text text-anchor="middle" x="520" y="577">[2952, 684]</text>
<text text-anchor="middle" x="520" y="593">NS</text>
</g>
<g id="edge18" class="edge"><title>1&#45;&gt;9</title>
<path style="fill:none;stroke:black;" d="M345,556C373,556 403,556 432,556"/>
<polygon style="fill:black;stroke:black;" points="432,552 442,556 432,559 432,552"/>
</g>
<g id="node6" class="node"><title>3</title>
<polygon style="fill:#399de5;stroke:black;" points="860,86 694,86 694,174 860,174 860,86"/>
<text text-anchor="middle" x="777" y="103">LowerLimitAge &lt;= 0.4028</text>
<text text-anchor="middle" x="777" y="119">0.4642</text>
<text text-anchor="middle" x="777" y="135">4985</text>
<text text-anchor="middle" x="777" y="151">[2908, 5033]</text>
<text text-anchor="middle" x="777" y="167">SD</text>
</g>
<g id="edge6" class="edge"><title>2&#45;&gt;3</title>
<path style="fill:none;stroke:black;" d="M599,229C627,214 659,196 689,179"/>
<polygon style="fill:black;stroke:black;" points="688,176 698,174 691,182 688,176"/>
</g>
<g id="node12" class="node"><title>6</title>
<polygon style="fill:#399de5;stroke:black;" points="841,229 713,229 713,317 841,317 841,229"/>
<text text-anchor="middle" x="777" y="246">AGELVL_D &lt;= 0.5</text>
<text text-anchor="middle" x="777" y="262">0.2778</text>
<text text-anchor="middle" x="777" y="278">87</text>
<text text-anchor="middle" x="777" y="294">[22, 110]</text>
<text text-anchor="middle" x="777" y="310">SD</text>
</g>
<g id="edge12" class="edge"><title>2&#45;&gt;6</title>
<path style="fill:none;stroke:black;" d="M643,273C663,273 683,273 702,273"/>
<polygon style="fill:black;stroke:black;" points="702,269 712,273 702,276 702,269"/>
</g>
<g id="node8" class="node"><title>4</title>
<polygon style="fill:#399de5;stroke:black;" points="998,4 912,4 912,76 998,76 998,4"/>
<text text-anchor="middle" x="955" y="21">0.4936</text>
<text text-anchor="middle" x="955" y="37">2165</text>
<text text-anchor="middle" x="955" y="53">[1533, 1924]</text>
<text text-anchor="middle" x="955" y="69">SD</text>
</g>
<g id="edge8" class="edge"><title>3&#45;&gt;4</title>
<path style="fill:none;stroke:black;" d="M861,88C875,81 889,74 902,67"/>
<polygon style="fill:black;stroke:black;" points="901,64 911,62 904,70 901,64"/>
</g>
<g id="node10" class="node"><title>5</title>
<polygon style="fill:#399de5;stroke:black;" points="997,94 913,94 913,166 997,166 997,94"/>
<text text-anchor="middle" x="955" y="111">0.4252</text>
<text text-anchor="middle" x="955" y="127">2820</text>
<text text-anchor="middle" x="955" y="143">[1375, 3109]</text>
<text text-anchor="middle" x="955" y="159">SD</text>
</g>
<g id="edge10" class="edge"><title>3&#45;&gt;5</title>
<path style="fill:none;stroke:black;" d="M861,130C875,130 889,130 902,130"/>
<polygon style="fill:black;stroke:black;" points="902,126 912,130 902,133 902,126"/>
</g>
<g id="node14" class="node"><title>7</title>
<polygon style="fill:#399de5;stroke:black;" points="985,184 925,184 925,256 985,256 985,184"/>
<text text-anchor="middle" x="955" y="201">0.2996</text>
<text text-anchor="middle" x="955" y="217">71</text>
<text text-anchor="middle" x="955" y="233">[20, 89]</text>
<text text-anchor="middle" x="955" y="249">SD</text>
</g>
<g id="edge14" class="edge"><title>6&#45;&gt;7</title>
<path style="fill:none;stroke:black;" d="M842,254C866,247 893,239 914,232"/>
<polygon style="fill:black;stroke:black;" points="913,229 924,229 915,235 913,229"/>
</g>
<g id="node16" class="node"><title>8</title>
<polygon style="fill:#399de5;stroke:black;" points="982,274 928,274 928,346 982,346 982,274"/>
<text text-anchor="middle" x="955" y="291">0.1588</text>
<text text-anchor="middle" x="955" y="307">16</text>
<text text-anchor="middle" x="955" y="323">[2, 21]</text>
<text text-anchor="middle" x="955" y="339">SD</text>
</g>
<g id="edge16" class="edge"><title>6&#45;&gt;8</title>
<path style="fill:none;stroke:black;" d="M842,286C867,291 896,298 918,302"/>
<polygon style="fill:black;stroke:black;" points="919,299 928,304 918,305 919,299"/>
</g>
<g id="node20" class="node"><title>10</title>
<polygon style="fill:#e58139;stroke:black;" points="844,430 710,430 710,518 844,518 844,430"/>
<text text-anchor="middle" x="777" y="447">GSEGRD &lt;= 0.5625</text>
<text text-anchor="middle" x="777" y="463">0.397</text>
<text text-anchor="middle" x="777" y="479">940</text>
<text text-anchor="middle" x="777" y="495">[1086, 408]</text>
<text text-anchor="middle" x="777" y="511">NS</text>
</g>
<g id="edge20" class="edge"><title>9&#45;&gt;10</title>
<path style="fill:none;stroke:black;" d="M598,531C630,521 668,508 700,498"/>
<polygon style="fill:black;stroke:black;" points="699,495 710,495 701,501 699,495"/>
</g>
<g id="node26" class="node"><title>13</title>
<polygon style="fill:#e58139;stroke:black;" points="866,536 688,536 688,624 866,624 866,536"/>
<text text-anchor="middle" x="777" y="553">YearsToRetirement &lt;= 0.255</text>
<text text-anchor="middle" x="777" y="569">0.2245</text>
<text text-anchor="middle" x="777" y="585">1344</text>
<text text-anchor="middle" x="777" y="601">[1866, 276]</text>
<text text-anchor="middle" x="777" y="617">NS</text>
</g>
<g id="edge26" class="edge"><title>9&#45;&gt;13</title>
<path style="fill:none;stroke:black;" d="M598,563C623,566 651,568 678,570"/>
<polygon style="fill:black;stroke:black;" points="678,567 688,571 678,573 678,567"/>
</g>
<g id="node22" class="node"><title>11</title>
<polygon style="fill:#e58139;stroke:black;" points="991,364 919,364 919,436 991,436 991,364"/>
<text text-anchor="middle" x="955" y="381">0.4999</text>
<text text-anchor="middle" x="955" y="397">219</text>
<text text-anchor="middle" x="955" y="413">[175, 170]</text>
<text text-anchor="middle" x="955" y="429">NS</text>
</g>
<g id="edge22" class="edge"><title>10&#45;&gt;11</title>
<path style="fill:none;stroke:black;" d="M844,446C866,437 889,427 910,419"/>
<polygon style="fill:black;stroke:black;" points="908,416 919,415 911,422 908,416"/>
</g>
<g id="node24" class="node"><title>12</title>
<polygon style="fill:#e58139;stroke:black;" points="991,454 919,454 919,526 991,526 991,454"/>
<text text-anchor="middle" x="955" y="471">0.3285</text>
<text text-anchor="middle" x="955" y="487">721</text>
<text text-anchor="middle" x="955" y="503">[911, 238]</text>
<text text-anchor="middle" x="955" y="519">NS</text>
</g>
<g id="edge24" class="edge"><title>10&#45;&gt;12</title>
<path style="fill:none;stroke:black;" d="M844,480C865,483 889,484 909,486"/>
<polygon style="fill:black;stroke:black;" points="909,483 919,487 909,489 909,483"/>
</g>
<g id="node28" class="node"><title>14</title>
<polygon style="fill:#399de5;stroke:black;" points="988,544 922,544 922,616 988,616 988,544"/>
<text text-anchor="middle" x="955" y="561">0.2412</text>
<text text-anchor="middle" x="955" y="577">107</text>
<text text-anchor="middle" x="955" y="593">[23, 141]</text>
<text text-anchor="middle" x="955" y="609">SD</text>
</g>
<g id="edge28" class="edge"><title>13&#45;&gt;14</title>
<path style="fill:none;stroke:black;" d="M866,580C882,580 898,580 912,580"/>
<polygon style="fill:black;stroke:black;" points="912,576 922,580 912,583 912,576"/>
</g>
<g id="node30" class="node"><title>15</title>
<polygon style="fill:#e58139;stroke:black;" points="995,634 915,634 915,706 995,706 995,634"/>
<text text-anchor="middle" x="955" y="651">0.1272</text>
<text text-anchor="middle" x="955" y="667">1237</text>
<text text-anchor="middle" x="955" y="683">[1843, 135]</text>
<text text-anchor="middle" x="955" y="699">NS</text>
</g>
<g id="edge30" class="edge"><title>13&#45;&gt;15</title>
<path style="fill:none;stroke:black;" d="M864,624C878,631 893,638 906,645"/>
<polygon style="fill:black;stroke:black;" points="908,642 915,650 905,648 908,642"/>
</g>
<g id="node34" class="node"><title>17</title>
<polygon style="fill:#399de5;stroke:black;" points="627,659 413,659 413,747 627,747 627,659"/>
<text text-anchor="middle" x="520" y="676">SalaryOverUnderIndAvg &lt;= 0.1667</text>
<text text-anchor="middle" x="520" y="692">0.3958</text>
<text text-anchor="middle" x="520" y="708">59</text>
<text text-anchor="middle" x="520" y="724">[25, 67]</text>
<text text-anchor="middle" x="520" y="740">SD</text>
</g>
<g id="edge34" class="edge"><title>16&#45;&gt;17</title>
<path style="fill:none;stroke:black;" d="M361,703C375,703 389,703 403,703"/>
<polygon style="fill:black;stroke:black;" points="403,699 413,703 403,706 403,699"/>
</g>
<g id="node44" class="node"><title>22</title>
<polygon style="fill:#e58139;stroke:black;" points="627,830 413,830 413,918 627,918 627,830"/>
<text text-anchor="middle" x="520" y="847">SalaryOverUnderIndAvg &lt;= 0.1667</text>
<text text-anchor="middle" x="520" y="863">0.2188</text>
<text text-anchor="middle" x="520" y="879">84</text>
<text text-anchor="middle" x="520" y="895">[119, 17]</text>
<text text-anchor="middle" x="520" y="911">NS</text>
</g>
<g id="edge44" class="edge"><title>16&#45;&gt;22</title>
<path style="fill:none;stroke:black;" d="M333,747C368,771 411,799 447,824"/>
<polygon style="fill:black;stroke:black;" points="449,821 455,830 445,827 449,821"/>
</g>
<g id="node36" class="node"><title>18</title>
<polygon style="fill:#e58139;stroke:black;" points="804,642 750,642 750,714 804,714 804,642"/>
<text text-anchor="middle" x="777" y="659">0.455</text>
<text text-anchor="middle" x="777" y="675">14</text>
<text text-anchor="middle" x="777" y="691">[13, 7]</text>
<text text-anchor="middle" x="777" y="707">NS</text>
</g>
<g id="edge36" class="edge"><title>17&#45;&gt;18</title>
<path style="fill:none;stroke:black;" d="M627,693C667,689 710,685 740,682"/>
<polygon style="fill:black;stroke:black;" points="740,679 750,681 740,685 740,679"/>
</g>
<g id="node38" class="node"><title>19</title>
<polygon style="fill:#399de5;stroke:black;" points="874,732 680,732 680,820 874,820 874,732"/>
<text text-anchor="middle" x="777" y="749">SalaryOverUnderIndAvg &lt;= 0.5</text>
<text text-anchor="middle" x="777" y="765">0.2778</text>
<text text-anchor="middle" x="777" y="781">45</text>
<text text-anchor="middle" x="777" y="797">[12, 60]</text>
<text text-anchor="middle" x="777" y="813">SD</text>
</g>
<g id="edge38" class="edge"><title>17&#45;&gt;19</title>
<path style="fill:none;stroke:black;" d="M627,733C641,737 655,741 669,745"/>
<polygon style="fill:black;stroke:black;" points="670,742 679,748 668,748 670,742"/>
</g>
<g id="node40" class="node"><title>20</title>
<polygon style="fill:#399de5;stroke:black;" points="982,732 928,732 928,804 982,804 982,732"/>
<text text-anchor="middle" x="955" y="749">0.3047</text>
<text text-anchor="middle" x="955" y="765">29</text>
<text text-anchor="middle" x="955" y="781">[9, 39]</text>
<text text-anchor="middle" x="955" y="797">SD</text>
</g>
<g id="edge40" class="edge"><title>19&#45;&gt;20</title>
<path style="fill:none;stroke:black;" d="M875,772C890,771 904,770 917,770"/>
<polygon style="fill:black;stroke:black;" points="917,767 927,769 917,773 917,767"/>
</g>
<g id="node42" class="node"><title>21</title>
<polygon style="fill:#399de5;stroke:black;" points="982,822 928,822 928,894 982,894 982,822"/>
<text text-anchor="middle" x="955" y="839">0.2188</text>
<text text-anchor="middle" x="955" y="855">16</text>
<text text-anchor="middle" x="955" y="871">[3, 21]</text>
<text text-anchor="middle" x="955" y="887">SD</text>
</g>
<g id="edge42" class="edge"><title>19&#45;&gt;21</title>
<path style="fill:none;stroke:black;" d="M873,820C889,827 905,834 919,841"/>
<polygon style="fill:black;stroke:black;" points="920,838 928,845 917,844 920,838"/>
</g>
<g id="node46" class="node"><title>23</title>
<polygon style="fill:#e58139;stroke:black;" points="804,838 750,838 750,910 804,910 804,838"/>
<text text-anchor="middle" x="777" y="855">0.0783</text>
<text text-anchor="middle" x="777" y="871">30</text>
<text text-anchor="middle" x="777" y="887">[47, 2]</text>
<text text-anchor="middle" x="777" y="903">NS</text>
</g>
<g id="edge46" class="edge"><title>22&#45;&gt;23</title>
<path style="fill:none;stroke:black;" d="M627,874C667,874 710,874 739,874"/>
<polygon style="fill:black;stroke:black;" points="739,870 749,874 739,877 739,870"/>
</g>
<g id="node48" class="node"><title>24</title>
<polygon style="fill:#e58139;stroke:black;" points="807,928 747,928 747,1000 807,1000 807,928"/>
<text text-anchor="middle" x="777" y="945">0.2854</text>
<text text-anchor="middle" x="777" y="961">54</text>
<text text-anchor="middle" x="777" y="977">[72, 15]</text>
<text text-anchor="middle" x="777" y="993">NS</text>
</g>
<g id="edge48" class="edge"><title>22&#45;&gt;24</title>
<path style="fill:none;stroke:black;" d="M627,912C667,925 708,940 737,950"/>
<polygon style="fill:black;stroke:black;" points="738,947 747,953 736,953 738,947"/>
</g>
</g>
</svg>
