<?xml version="1.0" encoding="UTF-8" standalone="no"?>
<!DOCTYPE svg PUBLIC "-//W3C//DTD SVG 1.0//EN"
 "http://www.w3.org/TR/2001/REC-SVG-20010904/DTD/svg10.dtd">
<!-- Generated by dot version 2.2 (Tue Jan 25 21:58:56 UTC 2005)
     For user: (amfrye) Alex Frye   Title: Tree    Pages: 1 -->
<svg width="1028pt" height="1254pt"
 viewBox = "-1 -1 1027 1253"
 xmlns="http://www.w3.org/2000/svg">
<g id="graph0" class="graph" style="font-family:Times-Roman;font-size:14.00;">
<title>Tree</title>
<g id="node1" class="node"><title>0</title>
<polygon style="fill:#e58139;stroke:black;" points="128,527 6,527 6,615 128,615 128,527"/>
<text text-anchor="middle" x="67" y="544">AGELVL_I &lt;= 0.5</text>
<text text-anchor="middle" x="67" y="560">0.4999</text>
<text text-anchor="middle" x="67" y="576">7503</text>
<text text-anchor="middle" x="67" y="592">[6058, 5879]</text>
<text text-anchor="middle" x="67" y="608">NS</text>
</g>
<g id="node2" class="node"><title>1</title>
<polygon style="fill:#e58139;stroke:black;" points="326,383 172,383 172,471 326,471 326,383"/>
<text text-anchor="middle" x="249" y="400">IndAvgSalary &lt;= 0.7222</text>
<text text-anchor="middle" x="249" y="416">0.4985</text>
<text text-anchor="middle" x="249" y="432">6617</text>
<text text-anchor="middle" x="249" y="448">[5556, 4988]</text>
<text text-anchor="middle" x="249" y="464">NS</text>
</g>
<g id="edge2" class="edge"><title>0&#45;&gt;1</title>
<path style="fill:none;stroke:black;" d="M123,527C142,511 165,494 185,477"/>
<polygon style="fill:black;stroke:black;" points="183,474 193,471 187,480 183,474"/>
<text text-anchor="middle" x="168" y="472">True</text>
</g>
<g id="node28" class="node"><title>14</title>
<polygon style="fill:#399de5;stroke:black;" points="332,671 166,671 166,759 332,759 332,671"/>
<text text-anchor="middle" x="249" y="688">LowerLimitAge &lt;= 0.4028</text>
<text text-anchor="middle" x="249" y="704">0.461</text>
<text text-anchor="middle" x="249" y="720">886</text>
<text text-anchor="middle" x="249" y="736">[502, 891]</text>
<text text-anchor="middle" x="249" y="752">SD</text>
</g>
<g id="edge28" class="edge"><title>0&#45;&gt;14</title>
<path style="fill:none;stroke:black;" d="M123,615C142,631 165,648 185,665"/>
<polygon style="fill:black;stroke:black;" points="187,662 193,671 183,668 187,662"/>
<text text-anchor="middle" x="168" y="680">False</text>
</g>
<g id="node4" class="node"><title>2</title>
<polygon style="fill:#399de5;stroke:black;" points="558,207 432,207 432,295 558,295 558,207"/>
<text text-anchor="middle" x="495" y="224">AGELVL_F &lt;= 0.5</text>
<text text-anchor="middle" x="495" y="240">0.476</text>
<text text-anchor="middle" x="495" y="256">4502</text>
<text text-anchor="middle" x="495" y="272">[2800, 4373]</text>
<text text-anchor="middle" x="495" y="288">SD</text>
</g>
<g id="edge4" class="edge"><title>1&#45;&gt;2</title>
<path style="fill:none;stroke:black;" d="M311,383C346,358 389,327 425,301"/>
<polygon style="fill:black;stroke:black;" points="424,298 434,295 428,303 424,298"/>
</g>
<g id="node18" class="node"><title>9</title>
<polygon style="fill:#e58139;stroke:black;" points="577,383 413,383 413,471 577,471 577,383"/>
<text text-anchor="middle" x="495" y="400">LowerLimitAge &lt;= 0.0417</text>
<text text-anchor="middle" x="495" y="416">0.2983</text>
<text text-anchor="middle" x="495" y="432">2115</text>
<text text-anchor="middle" x="495" y="448">[2756, 615]</text>
<text text-anchor="middle" x="495" y="464">NS</text>
</g>
<g id="edge18" class="edge"><title>1&#45;&gt;9</title>
<path style="fill:none;stroke:black;" d="M326,427C350,427 377,427 402,427"/>
<polygon style="fill:black;stroke:black;" points="402,423 412,427 402,430 402,423"/>
</g>
<g id="node6" class="node"><title>3</title>
<polygon style="fill:#399de5;stroke:black;" points="892,86 664,86 664,174 892,174 892,86"/>
<text text-anchor="middle" x="778" y="103">BLS_FEDERAL_Quits_Level &lt;= 0.5</text>
<text text-anchor="middle" x="778" y="119">0.4786</text>
<text text-anchor="middle" x="778" y="135">4392</text>
<text text-anchor="middle" x="778" y="151">[2775, 4223]</text>
<text text-anchor="middle" x="778" y="167">SD</text>
</g>
<g id="edge6" class="edge"><title>2&#45;&gt;3</title>
<path style="fill:none;stroke:black;" d="M559,224C590,210 629,194 666,178"/>
<polygon style="fill:black;stroke:black;" points="664,175 675,174 667,181 664,175"/>
</g>
<g id="node12" class="node"><title>6</title>
<polygon style="fill:#399de5;stroke:black;" points="898,207 658,207 658,295 898,295 898,207"/>
<text text-anchor="middle" x="778" y="224">BLS_FEDERAL_Layoffs_Level &lt;= 0.5</text>
<text text-anchor="middle" x="778" y="240">0.2449</text>
<text text-anchor="middle" x="778" y="256">110</text>
<text text-anchor="middle" x="778" y="272">[25, 150]</text>
<text text-anchor="middle" x="778" y="288">SD</text>
</g>
<g id="edge12" class="edge"><title>2&#45;&gt;6</title>
<path style="fill:none;stroke:black;" d="M559,251C585,251 617,251 647,251"/>
<polygon style="fill:black;stroke:black;" points="647,247 657,251 647,254 647,247"/>
</g>
<g id="node8" class="node"><title>4</title>
<polygon style="fill:#399de5;stroke:black;" points="1021,4 935,4 935,76 1021,76 1021,4"/>
<text text-anchor="middle" x="978" y="21">0.4641</text>
<text text-anchor="middle" x="978" y="37">3693</text>
<text text-anchor="middle" x="978" y="53">[2153, 3728]</text>
<text text-anchor="middle" x="978" y="69">SD</text>
</g>
<g id="edge8" class="edge"><title>3&#45;&gt;4</title>
<path style="fill:none;stroke:black;" d="M876,86C893,79 910,70 926,64"/>
<polygon style="fill:black;stroke:black;" points="924,61 935,60 927,67 924,61"/>
</g>
<g id="node10" class="node"><title>5</title>
<polygon style="fill:#e58139;stroke:black;" points="1015,94 941,94 941,166 1015,166 1015,94"/>
<text text-anchor="middle" x="978" y="111">0.4935</text>
<text text-anchor="middle" x="978" y="127">699</text>
<text text-anchor="middle" x="978" y="143">[622, 495]</text>
<text text-anchor="middle" x="978" y="159">NS</text>
</g>
<g id="edge10" class="edge"><title>3&#45;&gt;5</title>
<path style="fill:none;stroke:black;" d="M893,130C906,130 918,130 930,130"/>
<polygon style="fill:black;stroke:black;" points="930,126 940,130 930,133 930,126"/>
</g>
<g id="node14" class="node"><title>7</title>
<polygon style="fill:#399de5;stroke:black;" points="1011,184 945,184 945,256 1011,256 1011,184"/>
<text text-anchor="middle" x="978" y="201">0.2691</text>
<text text-anchor="middle" x="978" y="217">96</text>
<text text-anchor="middle" x="978" y="233">[25, 131]</text>
<text text-anchor="middle" x="978" y="249">SD</text>
</g>
<g id="edge14" class="edge"><title>6&#45;&gt;7</title>
<path style="fill:none;stroke:black;" d="M899,232C912,230 924,228 935,227"/>
<polygon style="fill:black;stroke:black;" points="935,224 945,225 936,230 935,224"/>
</g>
<g id="node16" class="node"><title>8</title>
<polygon style="fill:#399de5;stroke:black;" points="1005,274 951,274 951,346 1005,346 1005,274"/>
<text text-anchor="middle" x="978" y="291">0.0</text>
<text text-anchor="middle" x="978" y="307">14</text>
<text text-anchor="middle" x="978" y="323">[0, 19]</text>
<text text-anchor="middle" x="978" y="339">SD</text>
</g>
<g id="edge16" class="edge"><title>6&#45;&gt;8</title>
<path style="fill:none;stroke:black;" d="M899,287C914,292 929,296 941,299"/>
<polygon style="fill:black;stroke:black;" points="942,296 951,302 940,302 942,296"/>
</g>
<g id="node20" class="node"><title>10</title>
<polygon style="fill:#e58139;stroke:black;" points="811,342 745,342 745,414 811,414 811,342"/>
<text text-anchor="middle" x="778" y="359">0.4545</text>
<text text-anchor="middle" x="778" y="375">122</text>
<text text-anchor="middle" x="778" y="391">[123, 66]</text>
<text text-anchor="middle" x="778" y="407">NS</text>
</g>
<g id="edge20" class="edge"><title>9&#45;&gt;10</title>
<path style="fill:none;stroke:black;" d="M578,413C629,404 693,393 734,386"/>
<polygon style="fill:black;stroke:black;" points="734,383 744,384 735,389 734,383"/>
</g>
<g id="node22" class="node"><title>11</title>
<polygon style="fill:#e58139;stroke:black;" points="855,432 701,432 701,520 855,520 855,432"/>
<text text-anchor="middle" x="778" y="449">IndAvgSalary &lt;= 0.8333</text>
<text text-anchor="middle" x="778" y="465">0.2855</text>
<text text-anchor="middle" x="778" y="481">1993</text>
<text text-anchor="middle" x="778" y="497">[2633, 549]</text>
<text text-anchor="middle" x="778" y="513">NS</text>
</g>
<g id="edge22" class="edge"><title>9&#45;&gt;11</title>
<path style="fill:none;stroke:black;" d="M578,441C613,447 654,455 690,461"/>
<polygon style="fill:black;stroke:black;" points="691,458 700,463 690,464 691,458"/>
</g>
<g id="node24" class="node"><title>12</title>
<polygon style="fill:#e58139;stroke:black;" points="1014,364 942,364 942,436 1014,436 1014,364"/>
<text text-anchor="middle" x="978" y="381">0.3913</text>
<text text-anchor="middle" x="978" y="397">838</text>
<text text-anchor="middle" x="978" y="413">[981, 357]</text>
<text text-anchor="middle" x="978" y="429">NS</text>
</g>
<g id="edge24" class="edge"><title>11&#45;&gt;12</title>
<path style="fill:none;stroke:black;" d="M856,447C881,437 909,426 931,418"/>
<polygon style="fill:black;stroke:black;" points="930,414 941,414 933,421 930,414"/>
</g>
<g id="node26" class="node"><title>13</title>
<polygon style="fill:#e58139;stroke:black;" points="1018,454 938,454 938,526 1018,526 1018,454"/>
<text text-anchor="middle" x="978" y="471">0.1866</text>
<text text-anchor="middle" x="978" y="487">1155</text>
<text text-anchor="middle" x="978" y="503">[1652, 192]</text>
<text text-anchor="middle" x="978" y="519">NS</text>
</g>
<g id="edge26" class="edge"><title>11&#45;&gt;13</title>
<path style="fill:none;stroke:black;" d="M856,481C880,483 906,484 928,486"/>
<polygon style="fill:black;stroke:black;" points="928,483 938,487 928,489 928,483"/>
</g>
<g id="node30" class="node"><title>15</title>
<polygon style="fill:#399de5;stroke:black;" points="621,671 369,671 369,759 621,759 621,671"/>
<text text-anchor="middle" x="495" y="688">BLS_FEDERAL_OtherSep_Level &lt;= 0.5</text>
<text text-anchor="middle" x="495" y="704">0.4952</text>
<text text-anchor="middle" x="495" y="720">379</text>
<text text-anchor="middle" x="495" y="736">[266, 324]</text>
<text text-anchor="middle" x="495" y="752">SD</text>
</g>
<g id="edge30" class="edge"><title>14&#45;&gt;15</title>
<path style="fill:none;stroke:black;" d="M333,715C342,715 350,715 359,715"/>
<polygon style="fill:black;stroke:black;" points="359,711 369,715 359,718 359,711"/>
</g>
<g id="node44" class="node"><title>22</title>
<polygon style="fill:#399de5;stroke:black;" points="619,933 371,933 371,1021 619,1021 619,933"/>
<text text-anchor="middle" x="495" y="950">BLS_FEDERAL_TotalSep_Level &lt;= 0.5</text>
<text text-anchor="middle" x="495" y="966">0.415</text>
<text text-anchor="middle" x="495" y="982">507</text>
<text text-anchor="middle" x="495" y="998">[236, 567]</text>
<text text-anchor="middle" x="495" y="1014">SD</text>
</g>
<g id="edge44" class="edge"><title>14&#45;&gt;22</title>
<path style="fill:none;stroke:black;" d="M290,759C334,805 401,877 446,926"/>
<polygon style="fill:black;stroke:black;" points="448,923 453,933 443,928 448,923"/>
</g>
<g id="node32" class="node"><title>16</title>
<polygon style="fill:#399de5;stroke:black;" points="870,618 686,618 686,706 870,706 870,618"/>
<text text-anchor="middle" x="778" y="635">YearsToRetirement &lt;= 0.3597</text>
<text text-anchor="middle" x="778" y="651">0.4941</text>
<text text-anchor="middle" x="778" y="667">345</text>
<text text-anchor="middle" x="778" y="683">[243, 302]</text>
<text text-anchor="middle" x="778" y="699">SD</text>
</g>
<g id="edge32" class="edge"><title>15&#45;&gt;16</title>
<path style="fill:none;stroke:black;" d="M621,691C639,688 658,684 675,681"/>
<polygon style="fill:black;stroke:black;" points="675,678 685,679 676,684 675,678"/>
</g>
<g id="node38" class="node"><title>19</title>
<polygon style="fill:#e58139;stroke:black;" points="845,724 711,724 711,812 845,812 845,724"/>
<text text-anchor="middle" x="778" y="741">GSEGRD &lt;= 0.5625</text>
<text text-anchor="middle" x="778" y="757">0.4998</text>
<text text-anchor="middle" x="778" y="773">34</text>
<text text-anchor="middle" x="778" y="789">[23, 22]</text>
<text text-anchor="middle" x="778" y="805">NS</text>
</g>
<g id="edge38" class="edge"><title>15&#45;&gt;19</title>
<path style="fill:none;stroke:black;" d="M621,739C648,744 676,750 701,754"/>
<polygon style="fill:black;stroke:black;" points="702,751 711,756 701,757 702,751"/>
</g>
<g id="node34" class="node"><title>17</title>
<polygon style="fill:#399de5;stroke:black;" points="1015,544 941,544 941,616 1015,616 1015,544"/>
<text text-anchor="middle" x="978" y="561">0.4088</text>
<text text-anchor="middle" x="978" y="577">248</text>
<text text-anchor="middle" x="978" y="593">[108, 269]</text>
<text text-anchor="middle" x="978" y="609">SD</text>
</g>
<g id="edge34" class="edge"><title>16&#45;&gt;17</title>
<path style="fill:none;stroke:black;" d="M871,624C892,616 913,607 932,600"/>
<polygon style="fill:black;stroke:black;" points="930,597 941,596 933,603 930,597"/>
</g>
<g id="node36" class="node"><title>18</title>
<polygon style="fill:#e58139;stroke:black;" points="1011,634 945,634 945,706 1011,706 1011,634"/>
<text text-anchor="middle" x="978" y="651">0.3157</text>
<text text-anchor="middle" x="978" y="667">97</text>
<text text-anchor="middle" x="978" y="683">[135, 33]</text>
<text text-anchor="middle" x="978" y="699">NS</text>
</g>
<g id="edge36" class="edge"><title>16&#45;&gt;18</title>
<path style="fill:none;stroke:black;" d="M871,666C893,667 915,668 934,669"/>
<polygon style="fill:black;stroke:black;" points="934,665 944,669 934,672 934,665"/>
</g>
<g id="node40" class="node"><title>20</title>
<polygon style="fill:#399de5;stroke:black;" points="1005,724 951,724 951,796 1005,796 1005,724"/>
<text text-anchor="middle" x="978" y="741">0.4922</text>
<text text-anchor="middle" x="978" y="757">13</text>
<text text-anchor="middle" x="978" y="773">[7, 9]</text>
<text text-anchor="middle" x="978" y="789">SD</text>
</g>
<g id="edge40" class="edge"><title>19&#45;&gt;20</title>
<path style="fill:none;stroke:black;" d="M845,765C877,764 913,762 940,761"/>
<polygon style="fill:black;stroke:black;" points="940,757 950,761 940,764 940,757"/>
</g>
<g id="node42" class="node"><title>21</title>
<polygon style="fill:#e58139;stroke:black;" points="1007,814 949,814 949,886 1007,886 1007,814"/>
<text text-anchor="middle" x="978" y="831">0.4946</text>
<text text-anchor="middle" x="978" y="847">21</text>
<text text-anchor="middle" x="978" y="863">[16, 13]</text>
<text text-anchor="middle" x="978" y="879">NS</text>
</g>
<g id="edge42" class="edge"><title>19&#45;&gt;21</title>
<path style="fill:none;stroke:black;" d="M845,796C876,808 912,823 939,834"/>
<polygon style="fill:black;stroke:black;" points="940,831 948,838 937,837 940,831"/>
</g>
<g id="node46" class="node"><title>23</title>
<polygon style="fill:#399de5;stroke:black;" points="869,933 687,933 687,1021 869,1021 869,933"/>
<text text-anchor="middle" x="778" y="950">YearsToRetirement &lt;= 0.4618</text>
<text text-anchor="middle" x="778" y="966">0.4329</text>
<text text-anchor="middle" x="778" y="982">427</text>
<text text-anchor="middle" x="778" y="998">[212, 457]</text>
<text text-anchor="middle" x="778" y="1014">SD</text>
</g>
<g id="edge46" class="edge"><title>22&#45;&gt;23</title>
<path style="fill:none;stroke:black;" d="M619,977C638,977 658,977 676,977"/>
<polygon style="fill:black;stroke:black;" points="676,973 686,977 676,980 676,973"/>
</g>
<g id="node52" class="node"><title>26</title>
<polygon style="fill:#399de5;stroke:black;" points="869,1076 687,1076 687,1164 869,1164 869,1076"/>
<text text-anchor="middle" x="778" y="1093">YearsToRetirement &lt;= 0.1713</text>
<text text-anchor="middle" x="778" y="1109">0.2941</text>
<text text-anchor="middle" x="778" y="1125">80</text>
<text text-anchor="middle" x="778" y="1141">[24, 110]</text>
<text text-anchor="middle" x="778" y="1157">SD</text>
</g>
<g id="edge52" class="edge"><title>22&#45;&gt;26</title>
<path style="fill:none;stroke:black;" d="M582,1021C613,1037 649,1055 681,1071"/>
<polygon style="fill:black;stroke:black;" points="683,1068 690,1076 680,1074 683,1068"/>
</g>
<g id="node48" class="node"><title>24</title>
<polygon style="fill:#399de5;stroke:black;" points="1015,904 941,904 941,976 1015,976 1015,904"/>
<text text-anchor="middle" x="978" y="921">0.3337</text>
<text text-anchor="middle" x="978" y="937">364</text>
<text text-anchor="middle" x="978" y="953">[120, 447]</text>
<text text-anchor="middle" x="978" y="969">SD</text>
</g>
<g id="edge48" class="edge"><title>23&#45;&gt;24</title>
<path style="fill:none;stroke:black;" d="M870,960C891,956 912,952 931,949"/>
<polygon style="fill:black;stroke:black;" points="931,946 941,947 932,952 931,946"/>
</g>
<g id="node50" class="node"><title>25</title>
<polygon style="fill:#e58139;stroke:black;" points="1008,994 948,994 948,1066 1008,1066 1008,994"/>
<text text-anchor="middle" x="978" y="1011">0.1769</text>
<text text-anchor="middle" x="978" y="1027">63</text>
<text text-anchor="middle" x="978" y="1043">[92, 10]</text>
<text text-anchor="middle" x="978" y="1059">NS</text>
</g>
<g id="edge50" class="edge"><title>23&#45;&gt;25</title>
<path style="fill:none;stroke:black;" d="M870,1001C894,1007 918,1014 938,1019"/>
<polygon style="fill:black;stroke:black;" points="939,1016 948,1022 937,1022 939,1016"/>
</g>
<g id="node54" class="node"><title>27</title>
<polygon style="fill:#399de5;stroke:black;" points="1005,1084 951,1084 951,1156 1005,1156 1005,1084"/>
<text text-anchor="middle" x="978" y="1101">0.1567</text>
<text text-anchor="middle" x="978" y="1117">21</text>
<text text-anchor="middle" x="978" y="1133">[3, 32]</text>
<text text-anchor="middle" x="978" y="1149">SD</text>
</g>
<g id="edge54" class="edge"><title>26&#45;&gt;27</title>
<path style="fill:none;stroke:black;" d="M869,1120C894,1120 921,1120 941,1120"/>
<polygon style="fill:black;stroke:black;" points="941,1116 951,1120 941,1123 941,1116"/>
</g>
<g id="node56" class="node"><title>28</title>
<polygon style="fill:#399de5;stroke:black;" points="1007,1174 949,1174 949,1246 1007,1246 1007,1174"/>
<text text-anchor="middle" x="978" y="1191">0.3343</text>
<text text-anchor="middle" x="978" y="1207">59</text>
<text text-anchor="middle" x="978" y="1223">[21, 78]</text>
<text text-anchor="middle" x="978" y="1239">SD</text>
</g>
<g id="edge56" class="edge"><title>26&#45;&gt;28</title>
<path style="fill:none;stroke:black;" d="M869,1161C894,1172 919,1183 939,1193"/>
<polygon style="fill:black;stroke:black;" points="940,1190 948,1197 937,1196 940,1190"/>
</g>
</g>
</svg>
