<?xml version="1.0" encoding="UTF-8" standalone="no"?>
<!DOCTYPE svg PUBLIC "-//W3C//DTD SVG 1.0//EN"
 "http://www.w3.org/TR/2001/REC-SVG-20010904/DTD/svg10.dtd">
<!-- Generated by dot version 2.2 (Tue Jan 25 21:58:56 UTC 2005)
     For user: (amfrye) Alex Frye   Title: Tree    Pages: 1 -->
<svg width="1220pt" height="1074pt"
 viewBox = "-1 -1 1219 1073"
 xmlns="http://www.w3.org/2000/svg">
<g id="graph0" class="graph" style="font-family:Times-Roman;font-size:14.00;">
<title>Tree</title>
<g id="node1" class="node"><title>0</title>
<polygon style="fill:#e58139;stroke:black;" points="277,520 5,520 5,608 277,608 277,520"/>
<text text-anchor="middle" x="141" y="537">BLS_FEDERAL_JobOpenings_Level &lt;= 0.5</text>
<text text-anchor="middle" x="141" y="553">0.4997</text>
<text text-anchor="middle" x="141" y="569">7565</text>
<text text-anchor="middle" x="141" y="585">[6112, 5825]</text>
<text text-anchor="middle" x="141" y="601">NS</text>
</g>
<g id="node2" class="node"><title>1</title>
<polygon style="fill:#399de5;stroke:black;" points="545,445 313,445 313,533 545,533 545,445"/>
<text text-anchor="middle" x="429" y="462">SEPCount_EFDATE_LOCLog &lt;= 0.5</text>
<text text-anchor="middle" x="429" y="478">0.499</text>
<text text-anchor="middle" x="429" y="494">6589</text>
<text text-anchor="middle" x="429" y="510">[4945, 5417]</text>
<text text-anchor="middle" x="429" y="526">SD</text>
</g>
<g id="edge2" class="edge"><title>0&#45;&gt;1</title>
<path style="fill:none;stroke:black;" d="M277,528C286,526 294,524 303,521"/>
<polygon style="fill:black;stroke:black;" points="303,518 313,519 304,524 303,518"/>
<text text-anchor="middle" x="292" y="510">True</text>
</g>
<g id="node28" class="node"><title>14</title>
<polygon style="fill:#e58139;stroke:black;" points="496,594 362,594 362,682 496,682 496,594"/>
<text text-anchor="middle" x="429" y="611">GSEGRD &lt;= 0.5625</text>
<text text-anchor="middle" x="429" y="627">0.3839</text>
<text text-anchor="middle" x="429" y="643">976</text>
<text text-anchor="middle" x="429" y="659">[1167, 408]</text>
<text text-anchor="middle" x="429" y="675">NS</text>
</g>
<g id="edge28" class="edge"><title>0&#45;&gt;14</title>
<path style="fill:none;stroke:black;" d="M277,599C303,605 329,612 352,618"/>
<polygon style="fill:black;stroke:black;" points="353,615 362,621 351,621 353,615"/>
<text text-anchor="middle" x="340" y="638">False</text>
</g>
<g id="node4" class="node"><title>2</title>
<polygon style="fill:#399de5;stroke:black;" points="819,253 595,253 595,341 819,341 819,253"/>
<text text-anchor="middle" x="707" y="270">BLS_FEDERAL_Quits_Rate &lt;= 0.5</text>
<text text-anchor="middle" x="707" y="286">0.4987</text>
<text text-anchor="middle" x="707" y="302">6439</text>
<text text-anchor="middle" x="707" y="318">[4803, 5327]</text>
<text text-anchor="middle" x="707" y="334">SD</text>
</g>
<g id="edge4" class="edge"><title>1&#45;&gt;2</title>
<path style="fill:none;stroke:black;" d="M493,445C535,416 591,377 635,347"/>
<polygon style="fill:black;stroke:black;" points="633,344 643,341 637,350 633,344"/>
</g>
<g id="node18" class="node"><title>9</title>
<polygon style="fill:#e58139;stroke:black;" points="833,445 581,445 581,533 833,533 833,445"/>
<text text-anchor="middle" x="707" y="462">BLS_FEDERAL_OtherSep_Level &lt;= 0.5</text>
<text text-anchor="middle" x="707" y="478">0.4749</text>
<text text-anchor="middle" x="707" y="494">150</text>
<text text-anchor="middle" x="707" y="510">[142, 90]</text>
<text text-anchor="middle" x="707" y="526">NS</text>
</g>
<g id="edge18" class="edge"><title>1&#45;&gt;9</title>
<path style="fill:none;stroke:black;" d="M545,489C554,489 562,489 571,489"/>
<polygon style="fill:black;stroke:black;" points="571,485 581,489 571,492 571,485"/>
</g>
<g id="node6" class="node"><title>3</title>
<polygon style="fill:#e58139;stroke:black;" points="1048,86 914,86 914,174 1048,174 1048,86"/>
<text text-anchor="middle" x="981" y="103">GSEGRD &lt;= 0.5625</text>
<text text-anchor="middle" x="981" y="119">0.4999</text>
<text text-anchor="middle" x="981" y="135">5686</text>
<text text-anchor="middle" x="981" y="151">[4532, 4436]</text>
<text text-anchor="middle" x="981" y="167">NS</text>
</g>
<g id="edge6" class="edge"><title>2&#45;&gt;3</title>
<path style="fill:none;stroke:black;" d="M779,253C818,229 866,200 905,176"/>
<polygon style="fill:black;stroke:black;" points="904,173 914,171 907,179 904,173"/>
</g>
<g id="node12" class="node"><title>6</title>
<polygon style="fill:#399de5;stroke:black;" points="1063,253 899,253 899,341 1063,341 1063,253"/>
<text text-anchor="middle" x="981" y="270">LowerLimitAge &lt;= 0.8194</text>
<text text-anchor="middle" x="981" y="286">0.3577</text>
<text text-anchor="middle" x="981" y="302">753</text>
<text text-anchor="middle" x="981" y="318">[271, 891]</text>
<text text-anchor="middle" x="981" y="334">SD</text>
</g>
<g id="edge12" class="edge"><title>2&#45;&gt;6</title>
<path style="fill:none;stroke:black;" d="M819,297C842,297 866,297 888,297"/>
<polygon style="fill:black;stroke:black;" points="888,293 898,297 888,300 888,293"/>
</g>
<g id="node8" class="node"><title>4</title>
<polygon style="fill:#399de5;stroke:black;" points="1213,4 1129,4 1129,76 1213,76 1213,4"/>
<text text-anchor="middle" x="1171" y="21">0.4584</text>
<text text-anchor="middle" x="1171" y="37">1995</text>
<text text-anchor="middle" x="1171" y="53">[1115, 2019]</text>
<text text-anchor="middle" x="1171" y="69">SD</text>
</g>
<g id="edge8" class="edge"><title>3&#45;&gt;4</title>
<path style="fill:none;stroke:black;" d="M1048,98C1072,87 1098,74 1120,64"/>
<polygon style="fill:black;stroke:black;" points="1118,61 1129,60 1121,67 1118,61"/>
</g>
<g id="node10" class="node"><title>5</title>
<polygon style="fill:#e58139;stroke:black;" points="1212,94 1130,94 1130,166 1212,166 1212,94"/>
<text text-anchor="middle" x="1171" y="111">0.4853</text>
<text text-anchor="middle" x="1171" y="127">3691</text>
<text text-anchor="middle" x="1171" y="143">[3417, 2417]</text>
<text text-anchor="middle" x="1171" y="159">NS</text>
</g>
<g id="edge10" class="edge"><title>3&#45;&gt;5</title>
<path style="fill:none;stroke:black;" d="M1048,130C1071,130 1097,130 1119,130"/>
<polygon style="fill:black;stroke:black;" points="1119,126 1129,130 1119,133 1119,126"/>
</g>
<g id="node14" class="node"><title>7</title>
<polygon style="fill:#399de5;stroke:black;" points="1207,184 1135,184 1135,256 1207,256 1207,184"/>
<text text-anchor="middle" x="1171" y="201">0.3267</text>
<text text-anchor="middle" x="1171" y="217">628</text>
<text text-anchor="middle" x="1171" y="233">[198, 765]</text>
<text text-anchor="middle" x="1171" y="249">SD</text>
</g>
<g id="edge14" class="edge"><title>6&#45;&gt;7</title>
<path style="fill:none;stroke:black;" d="M1064,264C1085,256 1106,246 1125,239"/>
<polygon style="fill:black;stroke:black;" points="1123,236 1134,235 1126,242 1123,236"/>
</g>
<g id="node16" class="node"><title>8</title>
<polygon style="fill:#399de5;stroke:black;" points="1204,274 1138,274 1138,346 1204,346 1204,274"/>
<text text-anchor="middle" x="1171" y="291">0.4645</text>
<text text-anchor="middle" x="1171" y="307">125</text>
<text text-anchor="middle" x="1171" y="323">[73, 126]</text>
<text text-anchor="middle" x="1171" y="339">SD</text>
</g>
<g id="edge16" class="edge"><title>6&#45;&gt;8</title>
<path style="fill:none;stroke:black;" d="M1064,303C1086,305 1108,306 1127,307"/>
<polygon style="fill:black;stroke:black;" points="1127,304 1137,308 1127,310 1127,304"/>
</g>
<g id="node20" class="node"><title>10</title>
<polygon style="fill:#e58139;stroke:black;" points="1093,370 869,370 869,458 1093,458 1093,370"/>
<text text-anchor="middle" x="981" y="387">BLS_FEDERAL_Quits_Rate &lt;= 0.5</text>
<text text-anchor="middle" x="981" y="403">0.4729</text>
<text text-anchor="middle" x="981" y="419">133</text>
<text text-anchor="middle" x="981" y="435">[127, 79]</text>
<text text-anchor="middle" x="981" y="451">NS</text>
</g>
<g id="edge20" class="edge"><title>9&#45;&gt;10</title>
<path style="fill:none;stroke:black;" d="M833,454C842,452 851,450 859,447"/>
<polygon style="fill:black;stroke:black;" points="858,444 869,444 860,450 858,444"/>
</g>
<g id="node26" class="node"><title>13</title>
<polygon style="fill:#e58139;stroke:black;" points="1010,476 952,476 952,548 1010,548 1010,476"/>
<text text-anchor="middle" x="981" y="493">0.4882</text>
<text text-anchor="middle" x="981" y="509">17</text>
<text text-anchor="middle" x="981" y="525">[15, 11]</text>
<text text-anchor="middle" x="981" y="541">NS</text>
</g>
<g id="edge26" class="edge"><title>9&#45;&gt;13</title>
<path style="fill:none;stroke:black;" d="M833,500C872,504 913,506 941,509"/>
<polygon style="fill:black;stroke:black;" points="941,506 951,510 941,512 941,506"/>
</g>
<g id="node22" class="node"><title>11</title>
<polygon style="fill:#e58139;stroke:black;" points="1204,364 1138,364 1138,436 1204,436 1204,364"/>
<text text-anchor="middle" x="1171" y="381">0.4567</text>
<text text-anchor="middle" x="1171" y="397">121</text>
<text text-anchor="middle" x="1171" y="413">[121, 66]</text>
<text text-anchor="middle" x="1171" y="429">NS</text>
</g>
<g id="edge22" class="edge"><title>10&#45;&gt;11</title>
<path style="fill:none;stroke:black;" d="M1093,406C1105,405 1117,404 1128,404"/>
<polygon style="fill:black;stroke:black;" points="1128,401 1138,403 1128,407 1128,401"/>
</g>
<g id="node24" class="node"><title>12</title>
<polygon style="fill:#399de5;stroke:black;" points="1198,454 1144,454 1144,526 1198,526 1198,454"/>
<text text-anchor="middle" x="1171" y="471">0.4321</text>
<text text-anchor="middle" x="1171" y="487">12</text>
<text text-anchor="middle" x="1171" y="503">[6, 13]</text>
<text text-anchor="middle" x="1171" y="519">SD</text>
</g>
<g id="edge24" class="edge"><title>10&#45;&gt;12</title>
<path style="fill:none;stroke:black;" d="M1091,458C1107,464 1122,470 1134,475"/>
<polygon style="fill:black;stroke:black;" points="1136,472 1144,479 1133,479 1136,472"/>
</g>
<g id="node30" class="node"><title>15</title>
<polygon style="fill:#e58139;stroke:black;" points="815,594 599,594 599,682 815,682 815,594"/>
<text text-anchor="middle" x="707" y="611">SalaryOverUnderIndAvg &lt;= 0.8333</text>
<text text-anchor="middle" x="707" y="627">0.4996</text>
<text text-anchor="middle" x="707" y="643">232</text>
<text text-anchor="middle" x="707" y="659">[186, 176]</text>
<text text-anchor="middle" x="707" y="675">NS</text>
</g>
<g id="edge30" class="edge"><title>14&#45;&gt;15</title>
<path style="fill:none;stroke:black;" d="M496,638C524,638 557,638 589,638"/>
<polygon style="fill:black;stroke:black;" points="589,634 599,638 589,641 589,634"/>
</g>
<g id="node40" class="node"><title>20</title>
<polygon style="fill:#e58139;stroke:black;" points="799,778 615,778 615,866 799,866 799,778"/>
<text text-anchor="middle" x="707" y="795">YearsToRetirement &lt;= 0.4002</text>
<text text-anchor="middle" x="707" y="811">0.3094</text>
<text text-anchor="middle" x="707" y="827">744</text>
<text text-anchor="middle" x="707" y="843">[981, 232]</text>
<text text-anchor="middle" x="707" y="859">NS</text>
</g>
<g id="edge40" class="edge"><title>14&#45;&gt;20</title>
<path style="fill:none;stroke:black;" d="M496,682C537,709 589,744 632,772"/>
<polygon style="fill:black;stroke:black;" points="634,769 640,778 630,775 634,769"/>
</g>
<g id="node32" class="node"><title>16</title>
<polygon style="fill:#399de5;stroke:black;" points="1078,570 884,570 884,658 1078,658 1078,570"/>
<text text-anchor="middle" x="981" y="587">SalaryOverUnderIndAvg &lt;= 0.5</text>
<text text-anchor="middle" x="981" y="603">0.4988</text>
<text text-anchor="middle" x="981" y="619">198</text>
<text text-anchor="middle" x="981" y="635">[144, 159]</text>
<text text-anchor="middle" x="981" y="651">SD</text>
</g>
<g id="edge32" class="edge"><title>15&#45;&gt;16</title>
<path style="fill:none;stroke:black;" d="M815,629C834,627 854,626 873,624"/>
<polygon style="fill:black;stroke:black;" points="873,621 883,623 873,627 873,621"/>
</g>
<g id="node38" class="node"><title>19</title>
<polygon style="fill:#e58139;stroke:black;" points="1011,676 951,676 951,748 1011,748 1011,676"/>
<text text-anchor="middle" x="981" y="693">0.4102</text>
<text text-anchor="middle" x="981" y="709">34</text>
<text text-anchor="middle" x="981" y="725">[42, 17]</text>
<text text-anchor="middle" x="981" y="741">NS</text>
</g>
<g id="edge38" class="edge"><title>15&#45;&gt;19</title>
<path style="fill:none;stroke:black;" d="M815,667C859,679 908,692 941,701"/>
<polygon style="fill:black;stroke:black;" points="942,698 951,704 940,704 942,698"/>
</g>
<g id="node34" class="node"><title>17</title>
<polygon style="fill:#399de5;stroke:black;" points="1204,544 1138,544 1138,616 1204,616 1204,544"/>
<text text-anchor="middle" x="1171" y="561">0.4931</text>
<text text-anchor="middle" x="1171" y="577">145</text>
<text text-anchor="middle" x="1171" y="593">[94, 119]</text>
<text text-anchor="middle" x="1171" y="609">SD</text>
</g>
<g id="edge34" class="edge"><title>16&#45;&gt;17</title>
<path style="fill:none;stroke:black;" d="M1079,597C1096,594 1113,590 1128,588"/>
<polygon style="fill:black;stroke:black;" points="1128,585 1138,586 1129,591 1128,585"/>
</g>
<g id="node36" class="node"><title>18</title>
<polygon style="fill:#e58139;stroke:black;" points="1201,634 1141,634 1141,706 1201,706 1201,634"/>
<text text-anchor="middle" x="1171" y="651">0.4938</text>
<text text-anchor="middle" x="1171" y="667">53</text>
<text text-anchor="middle" x="1171" y="683">[50, 40]</text>
<text text-anchor="middle" x="1171" y="699">NS</text>
</g>
<g id="edge36" class="edge"><title>16&#45;&gt;18</title>
<path style="fill:none;stroke:black;" d="M1079,643C1097,648 1115,654 1130,658"/>
<polygon style="fill:black;stroke:black;" points="1131,655 1140,661 1129,661 1131,655"/>
</g>
<g id="node42" class="node"><title>21</title>
<polygon style="fill:#399de5;stroke:black;" points="1033,778 929,778 929,866 1033,866 1033,778"/>
<text text-anchor="middle" x="981" y="795">LOC_01 &lt;= 0.5</text>
<text text-anchor="middle" x="981" y="811">0.4854</text>
<text text-anchor="middle" x="981" y="827">182</text>
<text text-anchor="middle" x="981" y="843">[119, 168]</text>
<text text-anchor="middle" x="981" y="859">SD</text>
</g>
<g id="edge42" class="edge"><title>20&#45;&gt;21</title>
<path style="fill:none;stroke:black;" d="M800,822C839,822 883,822 918,822"/>
<polygon style="fill:black;stroke:black;" points="918,818 928,822 918,825 918,818"/>
</g>
<g id="node48" class="node"><title>24</title>
<polygon style="fill:#e58139;stroke:black;" points="1073,896 889,896 889,984 1073,984 1073,896"/>
<text text-anchor="middle" x="981" y="913">YearsToRetirement &lt;= 0.5895</text>
<text text-anchor="middle" x="981" y="929">0.1287</text>
<text text-anchor="middle" x="981" y="945">562</text>
<text text-anchor="middle" x="981" y="961">[862, 64]</text>
<text text-anchor="middle" x="981" y="977">NS</text>
</g>
<g id="edge48" class="edge"><title>20&#45;&gt;24</title>
<path style="fill:none;stroke:black;" d="M800,862C825,873 853,885 879,896"/>
<polygon style="fill:black;stroke:black;" points="880,893 888,900 877,899 880,893"/>
</g>
<g id="node44" class="node"><title>22</title>
<polygon style="fill:#399de5;stroke:black;" points="1198,724 1144,724 1144,796 1198,796 1198,724"/>
<text text-anchor="middle" x="1171" y="741">0.3122</text>
<text text-anchor="middle" x="1171" y="757">20</text>
<text text-anchor="middle" x="1171" y="773">[6, 25]</text>
<text text-anchor="middle" x="1171" y="789">SD</text>
</g>
<g id="edge44" class="edge"><title>21&#45;&gt;22</title>
<path style="fill:none;stroke:black;" d="M1034,805C1066,794 1106,781 1134,772"/>
<polygon style="fill:black;stroke:black;" points="1133,769 1144,769 1135,775 1133,769"/>
</g>
<g id="node46" class="node"><title>23</title>
<polygon style="fill:#399de5;stroke:black;" points="1207,814 1135,814 1135,886 1207,886 1207,814"/>
<text text-anchor="middle" x="1171" y="831">0.4931</text>
<text text-anchor="middle" x="1171" y="847">162</text>
<text text-anchor="middle" x="1171" y="863">[113, 143]</text>
<text text-anchor="middle" x="1171" y="879">SD</text>
</g>
<g id="edge46" class="edge"><title>21&#45;&gt;23</title>
<path style="fill:none;stroke:black;" d="M1034,830C1062,834 1097,839 1125,843"/>
<polygon style="fill:black;stroke:black;" points="1126,840 1135,845 1125,846 1126,840"/>
</g>
<g id="node50" class="node"><title>25</title>
<polygon style="fill:#e58139;stroke:black;" points="1203,904 1139,904 1139,976 1203,976 1203,904"/>
<text text-anchor="middle" x="1171" y="921">0.3794</text>
<text text-anchor="middle" x="1171" y="937">146</text>
<text text-anchor="middle" x="1171" y="953">[167, 57]</text>
<text text-anchor="middle" x="1171" y="969">NS</text>
</g>
<g id="edge50" class="edge"><title>24&#45;&gt;25</title>
<path style="fill:none;stroke:black;" d="M1074,940C1093,940 1112,940 1128,940"/>
<polygon style="fill:black;stroke:black;" points="1128,936 1138,940 1128,943 1128,936"/>
</g>
<g id="node52" class="node"><title>26</title>
<polygon style="fill:#e58139;stroke:black;" points="1201,994 1141,994 1141,1066 1201,1066 1201,994"/>
<text text-anchor="middle" x="1171" y="1011">0.0197</text>
<text text-anchor="middle" x="1171" y="1027">416</text>
<text text-anchor="middle" x="1171" y="1043">[695, 7]</text>
<text text-anchor="middle" x="1171" y="1059">NS</text>
</g>
<g id="edge52" class="edge"><title>24&#45;&gt;26</title>
<path style="fill:none;stroke:black;" d="M1074,984C1094,993 1114,1003 1131,1011"/>
<polygon style="fill:black;stroke:black;" points="1133,1008 1140,1016 1130,1014 1133,1008"/>
</g>
</g>
</svg>
