<?xml version="1.0" encoding="UTF-8" standalone="no"?>
<!DOCTYPE svg PUBLIC "-//W3C//DTD SVG 1.0//EN"
 "http://www.w3.org/TR/2001/REC-SVG-20010904/DTD/svg10.dtd">
<!-- Generated by dot version 2.2 (Tue Jan 25 21:58:56 UTC 2005)
     For user: (amfrye) Alex Frye   Title: Tree    Pages: 1 -->
<svg width="1142pt" height="1074pt"
 viewBox = "-1 -1 1141 1073"
 xmlns="http://www.w3.org/2000/svg">
<g id="graph0" class="graph" style="font-family:Times-Roman;font-size:14.00;">
<title>Tree</title>
<g id="node1" class="node"><title>0</title>
<polygon style="fill:#399de5;stroke:black;" points="237,641 5,641 5,729 237,729 237,641"/>
<text text-anchor="middle" x="121" y="658">SEPCount_EFDATE_LOCLog &lt;= 0.5</text>
<text text-anchor="middle" x="121" y="674">0.5</text>
<text text-anchor="middle" x="121" y="690">7498</text>
<text text-anchor="middle" x="121" y="706">[5949, 5988]</text>
<text text-anchor="middle" x="121" y="722">SD</text>
</g>
<g id="node2" class="node"><title>1</title>
<polygon style="fill:#399de5;stroke:black;" points="514,491 274,491 274,579 514,579 514,491"/>
<text text-anchor="middle" x="394" y="508">BLS_FEDERAL_Layoffs_Level &lt;= 0.5</text>
<text text-anchor="middle" x="394" y="524">0.5</text>
<text text-anchor="middle" x="394" y="540">7337</text>
<text text-anchor="middle" x="394" y="556">[5794, 5901]</text>
<text text-anchor="middle" x="394" y="572">SD</text>
</g>
<g id="edge2" class="edge"><title>0&#45;&gt;1</title>
<path style="fill:none;stroke:black;" d="M201,641C234,624 272,603 305,584"/>
<polygon style="fill:black;stroke:black;" points="304,581 314,579 307,587 304,581"/>
<text text-anchor="middle" x="290" y="577">True</text>
</g>
<g id="node32" class="node"><title>16</title>
<polygon style="fill:#e58139;stroke:black;" points="458,753 330,753 330,841 458,841 458,753"/>
<text text-anchor="middle" x="394" y="770">AGELVL_G &lt;= 0.5</text>
<text text-anchor="middle" x="394" y="786">0.4605</text>
<text text-anchor="middle" x="394" y="802">161</text>
<text text-anchor="middle" x="394" y="818">[155, 87]</text>
<text text-anchor="middle" x="394" y="834">NS</text>
</g>
<g id="edge32" class="edge"><title>0&#45;&gt;16</title>
<path style="fill:none;stroke:black;" d="M229,729C260,742 292,755 320,766"/>
<polygon style="fill:black;stroke:black;" points="321,763 329,770 318,769 321,763"/>
<text text-anchor="middle" x="306" y="784">False</text>
</g>
<g id="node4" class="node"><title>2</title>
<polygon style="fill:#e58139;stroke:black;" points="705,229 551,229 551,317 705,317 705,229"/>
<text text-anchor="middle" x="628" y="246">IndAvgSalary &lt;= 0.7222</text>
<text text-anchor="middle" x="628" y="262">0.5</text>
<text text-anchor="middle" x="628" y="278">6783</text>
<text text-anchor="middle" x="628" y="294">[5443, 5358]</text>
<text text-anchor="middle" x="628" y="310">NS</text>
</g>
<g id="edge4" class="edge"><title>1&#45;&gt;2</title>
<path style="fill:none;stroke:black;" d="M433,491C474,445 538,374 581,325"/>
<polygon style="fill:black;stroke:black;" points="579,322 588,317 584,327 579,322"/>
</g>
<g id="node18" class="node"><title>9</title>
<polygon style="fill:#399de5;stroke:black;" points="691,491 565,491 565,579 691,579 691,491"/>
<text text-anchor="middle" x="628" y="508">AGELVL_F &lt;= 0.5</text>
<text text-anchor="middle" x="628" y="524">0.4769</text>
<text text-anchor="middle" x="628" y="540">554</text>
<text text-anchor="middle" x="628" y="556">[351, 543]</text>
<text text-anchor="middle" x="628" y="572">SD</text>
</g>
<g id="edge18" class="edge"><title>1&#45;&gt;9</title>
<path style="fill:none;stroke:black;" d="M515,535C528,535 542,535 554,535"/>
<polygon style="fill:black;stroke:black;" points="554,531 564,535 554,538 554,531"/>
</g>
<g id="node6" class="node"><title>3</title>
<polygon style="fill:#399de5;stroke:black;" points="982,86 768,86 768,174 982,174 982,86"/>
<text text-anchor="middle" x="875" y="103">SalaryOverUnderIndAvg &lt;= 0.1667</text>
<text text-anchor="middle" x="875" y="119">0.4644</text>
<text text-anchor="middle" x="875" y="135">4679</text>
<text text-anchor="middle" x="875" y="151">[2721, 4702]</text>
<text text-anchor="middle" x="875" y="167">SD</text>
</g>
<g id="edge6" class="edge"><title>2&#45;&gt;3</title>
<path style="fill:none;stroke:black;" d="M704,229C731,214 762,196 790,179"/>
<polygon style="fill:black;stroke:black;" points="789,176 799,174 792,182 789,176"/>
</g>
<g id="node12" class="node"><title>6</title>
<polygon style="fill:#e58139;stroke:black;" points="942,229 808,229 808,317 942,317 942,229"/>
<text text-anchor="middle" x="875" y="246">GSEGRD &lt;= 0.5625</text>
<text text-anchor="middle" x="875" y="262">0.313</text>
<text text-anchor="middle" x="875" y="278">2104</text>
<text text-anchor="middle" x="875" y="294">[2722, 656]</text>
<text text-anchor="middle" x="875" y="310">NS</text>
</g>
<g id="edge12" class="edge"><title>2&#45;&gt;6</title>
<path style="fill:none;stroke:black;" d="M705,273C735,273 768,273 798,273"/>
<polygon style="fill:black;stroke:black;" points="798,269 808,273 798,276 798,269"/>
</g>
<g id="node8" class="node"><title>4</title>
<polygon style="fill:#399de5;stroke:black;" points="1126,4 1054,4 1054,76 1126,76 1126,4"/>
<text text-anchor="middle" x="1090" y="21">0.4998</text>
<text text-anchor="middle" x="1090" y="37">890</text>
<text text-anchor="middle" x="1090" y="53">[693, 718]</text>
<text text-anchor="middle" x="1090" y="69">SD</text>
</g>
<g id="edge8" class="edge"><title>3&#45;&gt;4</title>
<path style="fill:none;stroke:black;" d="M980,86C1002,77 1025,67 1044,59"/>
<polygon style="fill:black;stroke:black;" points="1042,56 1053,55 1045,62 1042,56"/>
</g>
<g id="node10" class="node"><title>5</title>
<polygon style="fill:#399de5;stroke:black;" points="1134,94 1046,94 1046,166 1134,166 1134,94"/>
<text text-anchor="middle" x="1090" y="111">0.4471</text>
<text text-anchor="middle" x="1090" y="127">3789</text>
<text text-anchor="middle" x="1090" y="143">[2028, 3984]</text>
<text text-anchor="middle" x="1090" y="159">SD</text>
</g>
<g id="edge10" class="edge"><title>3&#45;&gt;5</title>
<path style="fill:none;stroke:black;" d="M982,130C1000,130 1019,130 1035,130"/>
<polygon style="fill:black;stroke:black;" points="1035,126 1045,130 1035,133 1035,126"/>
</g>
<g id="node14" class="node"><title>7</title>
<polygon style="fill:#e58139;stroke:black;" points="1127,184 1053,184 1053,256 1127,256 1127,184"/>
<text text-anchor="middle" x="1090" y="201">0.4663</text>
<text text-anchor="middle" x="1090" y="217">484</text>
<text text-anchor="middle" x="1090" y="233">[490, 288]</text>
<text text-anchor="middle" x="1090" y="249">NS</text>
</g>
<g id="edge14" class="edge"><title>6&#45;&gt;7</title>
<path style="fill:none;stroke:black;" d="M942,256C974,248 1013,239 1042,232"/>
<polygon style="fill:black;stroke:black;" points="1041,229 1052,229 1043,235 1041,229"/>
</g>
<g id="node16" class="node"><title>8</title>
<polygon style="fill:#e58139;stroke:black;" points="1131,274 1049,274 1049,346 1131,346 1131,274"/>
<text text-anchor="middle" x="1090" y="291">0.243</text>
<text text-anchor="middle" x="1090" y="307">1620</text>
<text text-anchor="middle" x="1090" y="323">[2232, 368]</text>
<text text-anchor="middle" x="1090" y="339">NS</text>
</g>
<g id="edge16" class="edge"><title>6&#45;&gt;8</title>
<path style="fill:none;stroke:black;" d="M942,285C973,290 1010,297 1039,301"/>
<polygon style="fill:black;stroke:black;" points="1040,298 1049,303 1039,304 1040,298"/>
</g>
<g id="node20" class="node"><title>10</title>
<polygon style="fill:#399de5;stroke:black;" points="942,438 808,438 808,526 942,526 942,438"/>
<text text-anchor="middle" x="875" y="455">GSEGRD &lt;= 0.5625</text>
<text text-anchor="middle" x="875" y="471">0.4816</text>
<text text-anchor="middle" x="875" y="487">532</text>
<text text-anchor="middle" x="875" y="503">[348, 513]</text>
<text text-anchor="middle" x="875" y="519">SD</text>
</g>
<g id="edge20" class="edge"><title>9&#45;&gt;10</title>
<path style="fill:none;stroke:black;" d="M692,521C725,515 764,506 798,499"/>
<polygon style="fill:black;stroke:black;" points="798,496 808,497 799,502 798,496"/>
</g>
<g id="node26" class="node"><title>13</title>
<polygon style="fill:#399de5;stroke:black;" points="950,544 800,544 800,632 950,632 950,544"/>
<text text-anchor="middle" x="875" y="561">IndAvgSalary &lt;= 0.6111</text>
<text text-anchor="middle" x="875" y="577">0.1653</text>
<text text-anchor="middle" x="875" y="593">22</text>
<text text-anchor="middle" x="875" y="609">[3, 30]</text>
<text text-anchor="middle" x="875" y="625">SD</text>
</g>
<g id="edge26" class="edge"><title>9&#45;&gt;13</title>
<path style="fill:none;stroke:black;" d="M692,549C722,555 757,562 789,570"/>
<polygon style="fill:black;stroke:black;" points="790,567 799,572 789,573 790,567"/>
</g>
<g id="node22" class="node"><title>11</title>
<polygon style="fill:#399de5;stroke:black;" points="1124,364 1056,364 1056,436 1124,436 1124,364"/>
<text text-anchor="middle" x="1090" y="381">0.3916</text>
<text text-anchor="middle" x="1090" y="397">210</text>
<text text-anchor="middle" x="1090" y="413">[93, 255]</text>
<text text-anchor="middle" x="1090" y="429">SD</text>
</g>
<g id="edge22" class="edge"><title>10&#45;&gt;11</title>
<path style="fill:none;stroke:black;" d="M942,456C976,443 1016,427 1047,416"/>
<polygon style="fill:black;stroke:black;" points="1045,413 1056,413 1048,419 1045,413"/>
</g>
<g id="node24" class="node"><title>12</title>
<polygon style="fill:#399de5;stroke:black;" points="1127,454 1053,454 1053,526 1127,526 1127,454"/>
<text text-anchor="middle" x="1090" y="471">0.5</text>
<text text-anchor="middle" x="1090" y="487">322</text>
<text text-anchor="middle" x="1090" y="503">[255, 258]</text>
<text text-anchor="middle" x="1090" y="519">SD</text>
</g>
<g id="edge24" class="edge"><title>10&#45;&gt;12</title>
<path style="fill:none;stroke:black;" d="M942,484C974,486 1012,487 1042,488"/>
<polygon style="fill:black;stroke:black;" points="1042,485 1052,489 1042,491 1042,485"/>
</g>
<g id="node28" class="node"><title>14</title>
<polygon style="fill:#399de5;stroke:black;" points="1117,544 1063,544 1063,616 1117,616 1117,544"/>
<text text-anchor="middle" x="1090" y="561">0.0</text>
<text text-anchor="middle" x="1090" y="577">13</text>
<text text-anchor="middle" x="1090" y="593">[0, 20]</text>
<text text-anchor="middle" x="1090" y="609">SD</text>
</g>
<g id="edge28" class="edge"><title>13&#45;&gt;14</title>
<path style="fill:none;stroke:black;" d="M951,585C986,584 1025,582 1053,581"/>
<polygon style="fill:black;stroke:black;" points="1053,577 1063,581 1053,584 1053,577"/>
</g>
<g id="node30" class="node"><title>15</title>
<polygon style="fill:#399de5;stroke:black;" points="1117,634 1063,634 1063,706 1117,706 1117,634"/>
<text text-anchor="middle" x="1090" y="651">0.355</text>
<text text-anchor="middle" x="1090" y="667">9</text>
<text text-anchor="middle" x="1090" y="683">[3, 10]</text>
<text text-anchor="middle" x="1090" y="699">SD</text>
</g>
<g id="edge30" class="edge"><title>13&#45;&gt;15</title>
<path style="fill:none;stroke:black;" d="M951,617C986,630 1026,645 1054,656"/>
<polygon style="fill:black;stroke:black;" points="1055,653 1063,660 1052,659 1055,653"/>
</g>
<g id="node34" class="node"><title>17</title>
<polygon style="fill:#e58139;stroke:black;" points="695,753 561,753 561,841 695,841 695,753"/>
<text text-anchor="middle" x="628" y="770">GSEGRD &lt;= 0.5625</text>
<text text-anchor="middle" x="628" y="786">0.4709</text>
<text text-anchor="middle" x="628" y="802">152</text>
<text text-anchor="middle" x="628" y="818">[139, 85]</text>
<text text-anchor="middle" x="628" y="834">NS</text>
</g>
<g id="edge34" class="edge"><title>16&#45;&gt;17</title>
<path style="fill:none;stroke:black;" d="M459,797C488,797 521,797 551,797"/>
<polygon style="fill:black;stroke:black;" points="551,793 561,797 551,800 551,793"/>
</g>
<g id="node48" class="node"><title>24</title>
<polygon style="fill:#e58139;stroke:black;" points="655,859 601,859 601,931 655,931 655,859"/>
<text text-anchor="middle" x="628" y="876">0.1975</text>
<text text-anchor="middle" x="628" y="892">9</text>
<text text-anchor="middle" x="628" y="908">[16, 2]</text>
<text text-anchor="middle" x="628" y="924">NS</text>
</g>
<g id="edge48" class="edge"><title>16&#45;&gt;24</title>
<path style="fill:none;stroke:black;" d="M459,824C502,842 556,865 591,880"/>
<polygon style="fill:black;stroke:black;" points="593,877 601,884 590,884 593,877"/>
</g>
<g id="node36" class="node"><title>18</title>
<polygon style="fill:#399de5;stroke:black;" points="951,753 799,753 799,841 951,841 951,753"/>
<text text-anchor="middle" x="875" y="770">IndAvgSalary &lt;= 0.1667</text>
<text text-anchor="middle" x="875" y="786">0.4362</text>
<text text-anchor="middle" x="875" y="802">38</text>
<text text-anchor="middle" x="875" y="818">[18, 38]</text>
<text text-anchor="middle" x="875" y="834">SD</text>
</g>
<g id="edge36" class="edge"><title>17&#45;&gt;18</title>
<path style="fill:none;stroke:black;" d="M695,797C724,797 758,797 789,797"/>
<polygon style="fill:black;stroke:black;" points="789,793 799,797 789,800 789,793"/>
</g>
<g id="node42" class="node"><title>21</title>
<polygon style="fill:#e58139;stroke:black;" points="1008,896 742,896 742,984 1008,984 1008,896"/>
<text text-anchor="middle" x="875" y="913">BLS_FEDERAL_JobOpenings_Rate &lt;= 0.5</text>
<text text-anchor="middle" x="875" y="929">0.403</text>
<text text-anchor="middle" x="875" y="945">114</text>
<text text-anchor="middle" x="875" y="961">[121, 47]</text>
<text text-anchor="middle" x="875" y="977">NS</text>
</g>
<g id="edge42" class="edge"><title>17&#45;&gt;21</title>
<path style="fill:none;stroke:black;" d="M695,836C724,852 759,873 790,891"/>
<polygon style="fill:black;stroke:black;" points="792,888 799,896 789,894 792,888"/>
</g>
<g id="node38" class="node"><title>19</title>
<polygon style="fill:#399de5;stroke:black;" points="1117,724 1063,724 1063,796 1117,796 1117,724"/>
<text text-anchor="middle" x="1090" y="741">0.0</text>
<text text-anchor="middle" x="1090" y="757">10</text>
<text text-anchor="middle" x="1090" y="773">[0, 17]</text>
<text text-anchor="middle" x="1090" y="789">SD</text>
</g>
<g id="edge38" class="edge"><title>18&#45;&gt;19</title>
<path style="fill:none;stroke:black;" d="M951,784C986,778 1025,771 1053,767"/>
<polygon style="fill:black;stroke:black;" points="1053,764 1063,765 1054,770 1053,764"/>
</g>
<g id="node40" class="node"><title>20</title>
<polygon style="fill:#399de5;stroke:black;" points="1119,814 1061,814 1061,886 1119,886 1119,814"/>
<text text-anchor="middle" x="1090" y="831">0.497</text>
<text text-anchor="middle" x="1090" y="847">28</text>
<text text-anchor="middle" x="1090" y="863">[18, 21]</text>
<text text-anchor="middle" x="1090" y="879">SD</text>
</g>
<g id="edge40" class="edge"><title>18&#45;&gt;20</title>
<path style="fill:none;stroke:black;" d="M951,816C985,824 1023,834 1050,841"/>
<polygon style="fill:black;stroke:black;" points="1051,838 1060,843 1050,844 1051,838"/>
</g>
<g id="node44" class="node"><title>22</title>
<polygon style="fill:#e58139;stroke:black;" points="1123,904 1057,904 1057,976 1123,976 1123,904"/>
<text text-anchor="middle" x="1090" y="921">0.3829</text>
<text text-anchor="middle" x="1090" y="937">103</text>
<text text-anchor="middle" x="1090" y="953">[115, 40]</text>
<text text-anchor="middle" x="1090" y="969">NS</text>
</g>
<g id="edge44" class="edge"><title>21&#45;&gt;22</title>
<path style="fill:none;stroke:black;" d="M1009,940C1022,940 1035,940 1047,940"/>
<polygon style="fill:black;stroke:black;" points="1047,936 1057,940 1047,943 1047,936"/>
</g>
<g id="node46" class="node"><title>23</title>
<polygon style="fill:#399de5;stroke:black;" points="1117,994 1063,994 1063,1066 1117,1066 1117,994"/>
<text text-anchor="middle" x="1090" y="1011">0.497</text>
<text text-anchor="middle" x="1090" y="1027">11</text>
<text text-anchor="middle" x="1090" y="1043">[6, 7]</text>
<text text-anchor="middle" x="1090" y="1059">SD</text>
</g>
<g id="edge46" class="edge"><title>21&#45;&gt;23</title>
<path style="fill:none;stroke:black;" d="M980,984C1007,995 1033,1006 1054,1015"/>
<polygon style="fill:black;stroke:black;" points="1055,1012 1063,1019 1052,1018 1055,1012"/>
</g>
</g>
</svg>
