<?xml version="1.0" encoding="UTF-8" standalone="no"?>
<!DOCTYPE svg PUBLIC "-//W3C//DTD SVG 1.0//EN"
 "http://www.w3.org/TR/2001/REC-SVG-20010904/DTD/svg10.dtd">
<!-- Generated by dot version 2.2 (Tue Jan 25 21:58:56 UTC 2005)
     For user: (amfrye) Alex Frye   Title: Tree    Pages: 1 -->
<svg width="1098pt" height="1254pt"
 viewBox = "-1 -1 1097 1253"
 xmlns="http://www.w3.org/2000/svg">
<g id="graph0" class="graph" style="font-family:Times-Roman;font-size:14.00;">
<title>Tree</title>
<g id="node1" class="node"><title>0</title>
<polygon style="fill:#e58139;stroke:black;" points="139,593 5,593 5,681 139,681 139,593"/>
<text text-anchor="middle" x="72" y="610">GSEGRD &lt;= 0.5625</text>
<text text-anchor="middle" x="72" y="626">0.4999</text>
<text text-anchor="middle" x="72" y="642">7552</text>
<text text-anchor="middle" x="72" y="658">[6040, 5897]</text>
<text text-anchor="middle" x="72" y="674">NS</text>
</g>
<g id="node2" class="node"><title>1</title>
<polygon style="fill:#399de5;stroke:black;" points="391,514 207,514 207,602 391,602 391,514"/>
<text text-anchor="middle" x="299" y="531">YearsToRetirement &lt;= 0.3805</text>
<text text-anchor="middle" x="299" y="547">0.4444</text>
<text text-anchor="middle" x="299" y="563">2620</text>
<text text-anchor="middle" x="299" y="579">[1378, 2757]</text>
<text text-anchor="middle" x="299" y="595">SD</text>
</g>
<g id="edge2" class="edge"><title>0&#45;&gt;1</title>
<path style="fill:none;stroke:black;" d="M139,614C157,607 177,600 196,593"/>
<polygon style="fill:black;stroke:black;" points="195,590 206,590 197,596 195,590"/>
<text text-anchor="middle" x="184" y="583">True</text>
</g>
<g id="node28" class="node"><title>14</title>
<polygon style="fill:#e58139;stroke:black;" points="423,672 175,672 175,760 423,760 423,672"/>
<text text-anchor="middle" x="299" y="689">BLS_FEDERAL_TotalSep_Level &lt;= 0.5</text>
<text text-anchor="middle" x="299" y="705">0.481</text>
<text text-anchor="middle" x="299" y="721">4932</text>
<text text-anchor="middle" x="299" y="737">[4662, 3140]</text>
<text text-anchor="middle" x="299" y="753">NS</text>
</g>
<g id="edge28" class="edge"><title>0&#45;&gt;14</title>
<path style="fill:none;stroke:black;" d="M139,660C147,663 156,666 166,669"/>
<polygon style="fill:black;stroke:black;" points="167,666 175,673 164,672 167,666"/>
<text text-anchor="middle" x="152" y="687">False</text>
</g>
<g id="node4" class="node"><title>2</title>
<polygon style="fill:#399de5;stroke:black;" points="643,229 517,229 517,317 643,317 643,229"/>
<text text-anchor="middle" x="580" y="246">AGELVL_F &lt;= 0.5</text>
<text text-anchor="middle" x="580" y="262">0.3424</text>
<text text-anchor="middle" x="580" y="278">2096</text>
<text text-anchor="middle" x="580" y="294">[722, 2571]</text>
<text text-anchor="middle" x="580" y="310">SD</text>
</g>
<g id="edge4" class="edge"><title>1&#45;&gt;2</title>
<path style="fill:none;stroke:black;" d="M343,514C394,463 476,379 529,324"/>
<polygon style="fill:black;stroke:black;" points="526,322 536,317 531,327 526,322"/>
</g>
<g id="node18" class="node"><title>9</title>
<polygon style="fill:#e58139;stroke:black;" points="700,514 460,514 460,602 700,602 700,514"/>
<text text-anchor="middle" x="580" y="531">BLS_FEDERAL_Layoffs_Level &lt;= 0.5</text>
<text text-anchor="middle" x="580" y="547">0.3442</text>
<text text-anchor="middle" x="580" y="563">524</text>
<text text-anchor="middle" x="580" y="579">[656, 186]</text>
<text text-anchor="middle" x="580" y="595">NS</text>
</g>
<g id="edge18" class="edge"><title>1&#45;&gt;9</title>
<path style="fill:none;stroke:black;" d="M392,558C411,558 430,558 449,558"/>
<polygon style="fill:black;stroke:black;" points="449,554 459,558 449,561 449,554"/>
</g>
<g id="node6" class="node"><title>3</title>
<polygon style="fill:#399de5;stroke:black;" points="916,86 788,86 788,174 916,174 916,86"/>
<text text-anchor="middle" x="852" y="103">AGELVL_C &lt;= 0.5</text>
<text text-anchor="middle" x="852" y="119">0.3492</text>
<text text-anchor="middle" x="852" y="135">2006</text>
<text text-anchor="middle" x="852" y="151">[712, 2447]</text>
<text text-anchor="middle" x="852" y="167">SD</text>
</g>
<g id="edge6" class="edge"><title>2&#45;&gt;3</title>
<path style="fill:none;stroke:black;" d="M644,239C684,218 736,190 779,169"/>
<polygon style="fill:black;stroke:black;" points="778,166 788,164 781,172 778,166"/>
</g>
<g id="node12" class="node"><title>6</title>
<polygon style="fill:#399de5;stroke:black;" points="929,229 775,229 775,317 929,317 929,229"/>
<text text-anchor="middle" x="852" y="246">IndAvgSalary &lt;= 0.2778</text>
<text text-anchor="middle" x="852" y="262">0.1381</text>
<text text-anchor="middle" x="852" y="278">90</text>
<text text-anchor="middle" x="852" y="294">[10, 124]</text>
<text text-anchor="middle" x="852" y="310">SD</text>
</g>
<g id="edge12" class="edge"><title>2&#45;&gt;6</title>
<path style="fill:none;stroke:black;" d="M644,273C680,273 725,273 765,273"/>
<polygon style="fill:black;stroke:black;" points="765,269 775,273 765,276 765,269"/>
</g>
<g id="node8" class="node"><title>4</title>
<polygon style="fill:#399de5;stroke:black;" points="1087,4 1007,4 1007,76 1087,76 1087,4"/>
<text text-anchor="middle" x="1047" y="21">0.3552</text>
<text text-anchor="middle" x="1047" y="37">1856</text>
<text text-anchor="middle" x="1047" y="53">[678, 2258]</text>
<text text-anchor="middle" x="1047" y="69">SD</text>
</g>
<g id="edge8" class="edge"><title>3&#45;&gt;4</title>
<path style="fill:none;stroke:black;" d="M916,100C943,88 972,74 997,63"/>
<polygon style="fill:black;stroke:black;" points="995,60 1006,59 998,66 995,60"/>
</g>
<g id="node10" class="node"><title>5</title>
<polygon style="fill:#399de5;stroke:black;" points="1080,94 1014,94 1014,166 1080,166 1080,94"/>
<text text-anchor="middle" x="1047" y="111">0.2584</text>
<text text-anchor="middle" x="1047" y="127">150</text>
<text text-anchor="middle" x="1047" y="143">[34, 189]</text>
<text text-anchor="middle" x="1047" y="159">SD</text>
</g>
<g id="edge10" class="edge"><title>3&#45;&gt;5</title>
<path style="fill:none;stroke:black;" d="M916,130C945,130 978,130 1003,130"/>
<polygon style="fill:black;stroke:black;" points="1003,126 1013,130 1003,133 1003,126"/>
</g>
<g id="node14" class="node"><title>7</title>
<polygon style="fill:#399de5;stroke:black;" points="1074,184 1020,184 1020,256 1074,256 1074,184"/>
<text text-anchor="middle" x="1047" y="201">0.1734</text>
<text text-anchor="middle" x="1047" y="217">47</text>
<text text-anchor="middle" x="1047" y="233">[7, 66]</text>
<text text-anchor="middle" x="1047" y="249">SD</text>
</g>
<g id="edge14" class="edge"><title>6&#45;&gt;7</title>
<path style="fill:none;stroke:black;" d="M929,252C957,244 987,236 1010,230"/>
<polygon style="fill:black;stroke:black;" points="1009,227 1020,227 1011,233 1009,227"/>
</g>
<g id="node16" class="node"><title>8</title>
<polygon style="fill:#399de5;stroke:black;" points="1074,274 1020,274 1020,346 1074,346 1074,274"/>
<text text-anchor="middle" x="1047" y="291">0.0935</text>
<text text-anchor="middle" x="1047" y="307">43</text>
<text text-anchor="middle" x="1047" y="323">[3, 58]</text>
<text text-anchor="middle" x="1047" y="339">SD</text>
</g>
<g id="edge16" class="edge"><title>6&#45;&gt;8</title>
<path style="fill:none;stroke:black;" d="M929,288C957,293 986,298 1009,303"/>
<polygon style="fill:black;stroke:black;" points="1010,300 1019,305 1009,306 1010,300"/>
</g>
<g id="node20" class="node"><title>10</title>
<polygon style="fill:#e58139;stroke:black;" points="966,418 738,418 738,506 966,506 966,418"/>
<text text-anchor="middle" x="852" y="435">BLS_FEDERAL_Quits_Level &lt;= 0.5</text>
<text text-anchor="middle" x="852" y="451">0.3277</text>
<text text-anchor="middle" x="852" y="467">484</text>
<text text-anchor="middle" x="852" y="483">[611, 159]</text>
<text text-anchor="middle" x="852" y="499">NS</text>
</g>
<g id="edge20" class="edge"><title>9&#45;&gt;10</title>
<path style="fill:none;stroke:black;" d="M701,515C710,512 719,509 727,506"/>
<polygon style="fill:black;stroke:black;" points="726,502 737,502 729,509 726,502"/>
</g>
<g id="node26" class="node"><title>13</title>
<polygon style="fill:#e58139;stroke:black;" points="882,524 822,524 822,596 882,596 882,524"/>
<text text-anchor="middle" x="852" y="541">0.4688</text>
<text text-anchor="middle" x="852" y="557">40</text>
<text text-anchor="middle" x="852" y="573">[45, 27]</text>
<text text-anchor="middle" x="852" y="589">NS</text>
</g>
<g id="edge26" class="edge"><title>9&#45;&gt;13</title>
<path style="fill:none;stroke:black;" d="M701,559C740,559 782,559 811,560"/>
<polygon style="fill:black;stroke:black;" points="811,556 821,560 811,563 811,556"/>
</g>
<g id="node22" class="node"><title>11</title>
<polygon style="fill:#e58139;stroke:black;" points="1084,364 1010,364 1010,436 1084,436 1084,364"/>
<text text-anchor="middle" x="1047" y="381">0.3113</text>
<text text-anchor="middle" x="1047" y="397">426</text>
<text text-anchor="middle" x="1047" y="413">[540, 129]</text>
<text text-anchor="middle" x="1047" y="429">NS</text>
</g>
<g id="edge22" class="edge"><title>10&#45;&gt;11</title>
<path style="fill:none;stroke:black;" d="M967,426C978,422 990,418 1000,415"/>
<polygon style="fill:black;stroke:black;" points="999,412 1010,412 1001,418 999,412"/>
</g>
<g id="node24" class="node"><title>12</title>
<polygon style="fill:#e58139;stroke:black;" points="1076,454 1018,454 1018,526 1076,526 1076,454"/>
<text text-anchor="middle" x="1047" y="471">0.4176</text>
<text text-anchor="middle" x="1047" y="487">58</text>
<text text-anchor="middle" x="1047" y="503">[71, 30]</text>
<text text-anchor="middle" x="1047" y="519">NS</text>
</g>
<g id="edge24" class="edge"><title>10&#45;&gt;12</title>
<path style="fill:none;stroke:black;" d="M967,478C982,480 995,483 1007,484"/>
<polygon style="fill:black;stroke:black;" points="1008,481 1017,486 1007,487 1008,481"/>
</g>
<g id="node30" class="node"><title>15</title>
<polygon style="fill:#e58139;stroke:black;" points="692,672 468,672 468,760 692,760 692,672"/>
<text text-anchor="middle" x="580" y="689">BLS_FEDERAL_Quits_Rate &lt;= 0.5</text>
<text text-anchor="middle" x="580" y="705">0.4699</text>
<text text-anchor="middle" x="580" y="721">4344</text>
<text text-anchor="middle" x="580" y="737">[4261, 2581]</text>
<text text-anchor="middle" x="580" y="753">NS</text>
</g>
<g id="edge30" class="edge"><title>14&#45;&gt;15</title>
<path style="fill:none;stroke:black;" d="M423,716C435,716 446,716 458,716"/>
<polygon style="fill:black;stroke:black;" points="458,712 468,716 458,719 458,712"/>
</g>
<g id="node44" class="node"><title>22</title>
<polygon style="fill:#399de5;stroke:black;" points="662,933 498,933 498,1021 662,1021 662,933"/>
<text text-anchor="middle" x="580" y="950">LowerLimitAge &lt;= 0.8194</text>
<text text-anchor="middle" x="580" y="966">0.4865</text>
<text text-anchor="middle" x="580" y="982">588</text>
<text text-anchor="middle" x="580" y="998">[401, 559]</text>
<text text-anchor="middle" x="580" y="1014">SD</text>
</g>
<g id="edge44" class="edge"><title>14&#45;&gt;22</title>
<path style="fill:none;stroke:black;" d="M347,760C397,806 473,878 525,926"/>
<polygon style="fill:black;stroke:black;" points="528,924 533,933 523,929 528,924"/>
</g>
<g id="node32" class="node"><title>16</title>
<polygon style="fill:#e58139;stroke:black;" points="913,618 791,618 791,706 913,706 913,618"/>
<text text-anchor="middle" x="852" y="635">AGELVL_I &lt;= 0.5</text>
<text text-anchor="middle" x="852" y="651">0.4539</text>
<text text-anchor="middle" x="852" y="667">4000</text>
<text text-anchor="middle" x="852" y="683">[4097, 2189]</text>
<text text-anchor="middle" x="852" y="699">NS</text>
</g>
<g id="edge32" class="edge"><title>15&#45;&gt;16</title>
<path style="fill:none;stroke:black;" d="M692,694C722,688 753,682 780,676"/>
<polygon style="fill:black;stroke:black;" points="780,673 790,674 781,679 780,673"/>
</g>
<g id="node38" class="node"><title>19</title>
<polygon style="fill:#399de5;stroke:black;" points="916,724 788,724 788,812 916,812 916,724"/>
<text text-anchor="middle" x="852" y="741">AGELVL_G &lt;= 0.5</text>
<text text-anchor="middle" x="852" y="757">0.4159</text>
<text text-anchor="middle" x="852" y="773">344</text>
<text text-anchor="middle" x="852" y="789">[164, 392]</text>
<text text-anchor="middle" x="852" y="805">SD</text>
</g>
<g id="edge38" class="edge"><title>15&#45;&gt;19</title>
<path style="fill:none;stroke:black;" d="M692,737C721,743 751,749 777,754"/>
<polygon style="fill:black;stroke:black;" points="778,751 787,756 777,757 778,751"/>
</g>
<g id="node34" class="node"><title>17</title>
<polygon style="fill:#e58139;stroke:black;" points="1091,544 1003,544 1003,616 1091,616 1091,544"/>
<text text-anchor="middle" x="1047" y="561">0.4431</text>
<text text-anchor="middle" x="1047" y="577">3645</text>
<text text-anchor="middle" x="1047" y="593">[3840, 1903]</text>
<text text-anchor="middle" x="1047" y="609">NS</text>
</g>
<g id="edge34" class="edge"><title>16&#45;&gt;17</title>
<path style="fill:none;stroke:black;" d="M914,636C940,625 969,613 994,603"/>
<polygon style="fill:black;stroke:black;" points="992,600 1003,599 995,606 992,600"/>
</g>
<g id="node36" class="node"><title>18</title>
<polygon style="fill:#399de5;stroke:black;" points="1083,634 1011,634 1011,706 1083,706 1083,634"/>
<text text-anchor="middle" x="1047" y="651">0.4986</text>
<text text-anchor="middle" x="1047" y="667">355</text>
<text text-anchor="middle" x="1047" y="683">[257, 286]</text>
<text text-anchor="middle" x="1047" y="699">SD</text>
</g>
<g id="edge36" class="edge"><title>16&#45;&gt;18</title>
<path style="fill:none;stroke:black;" d="M914,665C942,666 974,668 1000,669"/>
<polygon style="fill:black;stroke:black;" points="1000,665 1010,669 1000,672 1000,665"/>
</g>
<g id="node40" class="node"><title>20</title>
<polygon style="fill:#399de5;stroke:black;" points="1083,724 1011,724 1011,796 1083,796 1083,724"/>
<text text-anchor="middle" x="1047" y="741">0.4239</text>
<text text-anchor="middle" x="1047" y="757">325</text>
<text text-anchor="middle" x="1047" y="773">[161, 367]</text>
<text text-anchor="middle" x="1047" y="789">SD</text>
</g>
<g id="edge40" class="edge"><title>19&#45;&gt;20</title>
<path style="fill:none;stroke:black;" d="M917,765C944,764 975,762 1001,761"/>
<polygon style="fill:black;stroke:black;" points="1001,757 1011,761 1001,764 1001,757"/>
</g>
<g id="node42" class="node"><title>21</title>
<polygon style="fill:#399de5;stroke:black;" points="1074,814 1020,814 1020,886 1074,886 1074,814"/>
<text text-anchor="middle" x="1047" y="831">0.1913</text>
<text text-anchor="middle" x="1047" y="847">19</text>
<text text-anchor="middle" x="1047" y="863">[3, 25]</text>
<text text-anchor="middle" x="1047" y="879">SD</text>
</g>
<g id="edge42" class="edge"><title>19&#45;&gt;21</title>
<path style="fill:none;stroke:black;" d="M917,795C948,808 984,823 1011,835"/>
<polygon style="fill:black;stroke:black;" points="1012,832 1020,839 1009,838 1012,832"/>
</g>
<g id="node46" class="node"><title>23</title>
<polygon style="fill:#399de5;stroke:black;" points="935,933 769,933 769,1021 935,1021 935,933"/>
<text text-anchor="middle" x="852" y="950">LowerLimitAge &lt;= 0.4028</text>
<text text-anchor="middle" x="852" y="966">0.4685</text>
<text text-anchor="middle" x="852" y="982">471</text>
<text text-anchor="middle" x="852" y="998">[285, 476]</text>
<text text-anchor="middle" x="852" y="1014">SD</text>
</g>
<g id="edge46" class="edge"><title>22&#45;&gt;23</title>
<path style="fill:none;stroke:black;" d="M663,977C693,977 727,977 758,977"/>
<polygon style="fill:black;stroke:black;" points="758,973 768,977 758,980 758,973"/>
</g>
<g id="node52" class="node"><title>26</title>
<polygon style="fill:#e58139;stroke:black;" points="918,1076 786,1076 786,1164 918,1164 918,1076"/>
<text text-anchor="middle" x="852" y="1093">GSEGRD &lt;= 0.6875</text>
<text text-anchor="middle" x="852" y="1109">0.4863</text>
<text text-anchor="middle" x="852" y="1125">117</text>
<text text-anchor="middle" x="852" y="1141">[116, 83]</text>
<text text-anchor="middle" x="852" y="1157">NS</text>
</g>
<g id="edge52" class="edge"><title>22&#45;&gt;26</title>
<path style="fill:none;stroke:black;" d="M663,1020C699,1039 741,1062 776,1080"/>
<polygon style="fill:black;stroke:black;" points="778,1077 785,1085 775,1083 778,1077"/>
</g>
<g id="node48" class="node"><title>24</title>
<polygon style="fill:#399de5;stroke:black;" points="1084,904 1010,904 1010,976 1084,976 1084,904"/>
<text text-anchor="middle" x="1047" y="921">0.5</text>
<text text-anchor="middle" x="1047" y="937">250</text>
<text text-anchor="middle" x="1047" y="953">[199, 202]</text>
<text text-anchor="middle" x="1047" y="969">SD</text>
</g>
<g id="edge48" class="edge"><title>23&#45;&gt;24</title>
<path style="fill:none;stroke:black;" d="M936,961C958,957 981,953 1000,949"/>
<polygon style="fill:black;stroke:black;" points="1000,946 1010,947 1001,952 1000,946"/>
</g>
<g id="node50" class="node"><title>25</title>
<polygon style="fill:#399de5;stroke:black;" points="1080,994 1014,994 1014,1066 1080,1066 1080,994"/>
<text text-anchor="middle" x="1047" y="1011">0.3636</text>
<text text-anchor="middle" x="1047" y="1027">221</text>
<text text-anchor="middle" x="1047" y="1043">[86, 274]</text>
<text text-anchor="middle" x="1047" y="1059">SD</text>
</g>
<g id="edge50" class="edge"><title>23&#45;&gt;25</title>
<path style="fill:none;stroke:black;" d="M936,1000C959,1006 983,1013 1003,1018"/>
<polygon style="fill:black;stroke:black;" points="1004,1015 1013,1021 1002,1021 1004,1015"/>
</g>
<g id="node54" class="node"><title>27</title>
<polygon style="fill:#e58139;stroke:black;" points="1077,1084 1017,1084 1017,1156 1077,1156 1077,1084"/>
<text text-anchor="middle" x="1047" y="1101">0.4717</text>
<text text-anchor="middle" x="1047" y="1117">38</text>
<text text-anchor="middle" x="1047" y="1133">[39, 24]</text>
<text text-anchor="middle" x="1047" y="1149">NS</text>
</g>
<g id="edge54" class="edge"><title>26&#45;&gt;27</title>
<path style="fill:none;stroke:black;" d="M919,1120C948,1120 981,1120 1006,1120"/>
<polygon style="fill:black;stroke:black;" points="1006,1116 1016,1120 1006,1123 1006,1116"/>
</g>
<g id="node56" class="node"><title>28</title>
<polygon style="fill:#e58139;stroke:black;" points="1077,1174 1017,1174 1017,1246 1077,1246 1077,1174"/>
<text text-anchor="middle" x="1047" y="1191">0.4912</text>
<text text-anchor="middle" x="1047" y="1207">79</text>
<text text-anchor="middle" x="1047" y="1223">[77, 59]</text>
<text text-anchor="middle" x="1047" y="1239">NS</text>
</g>
<g id="edge56" class="edge"><title>26&#45;&gt;28</title>
<path style="fill:none;stroke:black;" d="M919,1151C948,1164 982,1180 1008,1192"/>
<polygon style="fill:black;stroke:black;" points="1009,1189 1017,1196 1006,1195 1009,1189"/>
</g>
</g>
</svg>
