<?xml version="1.0" encoding="UTF-8" standalone="no"?>
<!DOCTYPE svg PUBLIC "-//W3C//DTD SVG 1.0//EN"
 "http://www.w3.org/TR/2001/REC-SVG-20010904/DTD/svg10.dtd">
<!-- Generated by dot version 2.2 (Tue Jan 25 21:58:56 UTC 2005)
     For user: (amfrye) Alex Frye   Title: Tree    Pages: 1 -->
<svg width="1068pt" height="1074pt"
 viewBox = "-1 -1 1067 1073"
 xmlns="http://www.w3.org/2000/svg">
<g id="graph0" class="graph" style="font-family:Times-Roman;font-size:14.00;">
<title>Tree</title>
<g id="node1" class="node"><title>0</title>
<polygon style="fill:#e58139;stroke:black;" points="172,424 6,424 6,512 172,512 172,424"/>
<text text-anchor="middle" x="89" y="441">LowerLimitAge &lt;= 0.4028</text>
<text text-anchor="middle" x="89" y="457">0.4999</text>
<text text-anchor="middle" x="89" y="473">7573</text>
<text text-anchor="middle" x="89" y="489">[6029, 5908]</text>
<text text-anchor="middle" x="89" y="505">NS</text>
</g>
<g id="node2" class="node"><title>1</title>
<polygon style="fill:#e58139;stroke:black;" points="360,356 236,356 236,444 360,444 360,356"/>
<text text-anchor="middle" x="298" y="373">AGELVL_J &lt;= 0.5</text>
<text text-anchor="middle" x="298" y="389">0.4917</text>
<text text-anchor="middle" x="298" y="405">3328</text>
<text text-anchor="middle" x="298" y="421">[2975, 2295]</text>
<text text-anchor="middle" x="298" y="437">NS</text>
</g>
<g id="edge2" class="edge"><title>0&#45;&gt;1</title>
<path style="fill:none;stroke:black;" d="M173,441C191,435 209,429 226,423"/>
<polygon style="fill:black;stroke:black;" points="225,420 236,420 227,426 225,420"/>
<text text-anchor="middle" x="214" y="413">True</text>
</g>
<g id="node20" class="node"><title>10</title>
<polygon style="fill:#399de5;stroke:black;" points="387,491 209,491 209,579 387,579 387,491"/>
<text text-anchor="middle" x="298" y="508">YearsToRetirement &lt;= 0.448</text>
<text text-anchor="middle" x="298" y="524">0.4965</text>
<text text-anchor="middle" x="298" y="540">4245</text>
<text text-anchor="middle" x="298" y="556">[3054, 3613]</text>
<text text-anchor="middle" x="298" y="572">SD</text>
</g>
<g id="edge20" class="edge"><title>0&#45;&gt;10</title>
<path style="fill:none;stroke:black;" d="M173,495C182,498 191,500 199,503"/>
<polygon style="fill:black;stroke:black;" points="200,500 209,506 198,506 200,500"/>
<text text-anchor="middle" x="187" y="523">False</text>
</g>
<g id="node4" class="node"><title>2</title>
<polygon style="fill:#e58139;stroke:black;" points="671,229 423,229 423,317 671,317 671,229"/>
<text text-anchor="middle" x="547" y="246">BLS_FEDERAL_TotalSep_Level &lt;= 0.5</text>
<text text-anchor="middle" x="547" y="262">0.491</text>
<text text-anchor="middle" x="547" y="278">3312</text>
<text text-anchor="middle" x="547" y="294">[2973, 2271]</text>
<text text-anchor="middle" x="547" y="310">NS</text>
</g>
<g id="edge4" class="edge"><title>1&#45;&gt;2</title>
<path style="fill:none;stroke:black;" d="M360,368C387,354 421,337 452,322"/>
<polygon style="fill:black;stroke:black;" points="451,319 461,317 454,325 451,319"/>
</g>
<g id="node18" class="node"><title>9</title>
<polygon style="fill:#399de5;stroke:black;" points="574,364 520,364 520,436 574,436 574,364"/>
<text text-anchor="middle" x="547" y="381">0.142</text>
<text text-anchor="middle" x="547" y="397">16</text>
<text text-anchor="middle" x="547" y="413">[2, 24]</text>
<text text-anchor="middle" x="547" y="429">SD</text>
</g>
<g id="edge18" class="edge"><title>1&#45;&gt;9</title>
<path style="fill:none;stroke:black;" d="M360,400C407,400 470,400 510,400"/>
<polygon style="fill:black;stroke:black;" points="510,396 520,400 510,403 510,396"/>
</g>
<g id="node6" class="node"><title>3</title>
<polygon style="fill:#e58139;stroke:black;" points="934,86 710,86 710,174 934,174 934,86"/>
<text text-anchor="middle" x="822" y="103">BLS_FEDERAL_Quits_Rate &lt;= 0.5</text>
<text text-anchor="middle" x="822" y="119">0.4829</text>
<text text-anchor="middle" x="822" y="135">2901</text>
<text text-anchor="middle" x="822" y="151">[2718, 1869]</text>
<text text-anchor="middle" x="822" y="167">NS</text>
</g>
<g id="edge6" class="edge"><title>2&#45;&gt;3</title>
<path style="fill:none;stroke:black;" d="M632,229C663,214 697,196 728,179"/>
<polygon style="fill:black;stroke:black;" points="727,176 737,174 730,182 727,176"/>
</g>
<g id="node12" class="node"><title>6</title>
<polygon style="fill:#399de5;stroke:black;" points="900,229 744,229 744,317 900,317 900,229"/>
<text text-anchor="middle" x="822" y="246">IndAvgSalaryLog &lt;= 0.5</text>
<text text-anchor="middle" x="822" y="262">0.475</text>
<text text-anchor="middle" x="822" y="278">411</text>
<text text-anchor="middle" x="822" y="294">[255, 402]</text>
<text text-anchor="middle" x="822" y="310">SD</text>
</g>
<g id="edge12" class="edge"><title>2&#45;&gt;6</title>
<path style="fill:none;stroke:black;" d="M671,273C692,273 714,273 734,273"/>
<polygon style="fill:black;stroke:black;" points="734,269 744,273 734,276 734,269"/>
</g>
<g id="node8" class="node"><title>4</title>
<polygon style="fill:#e58139;stroke:black;" points="1060,4 974,4 974,76 1060,76 1060,4"/>
<text text-anchor="middle" x="1017" y="21">0.4698</text>
<text text-anchor="middle" x="1017" y="37">2582</text>
<text text-anchor="middle" x="1017" y="53">[2545, 1541]</text>
<text text-anchor="middle" x="1017" y="69">NS</text>
</g>
<g id="edge8" class="edge"><title>3&#45;&gt;4</title>
<path style="fill:none;stroke:black;" d="M918,86C934,79 950,71 964,64"/>
<polygon style="fill:black;stroke:black;" points="962,61 973,60 965,67 962,61"/>
</g>
<g id="node10" class="node"><title>5</title>
<polygon style="fill:#399de5;stroke:black;" points="1053,94 981,94 981,166 1053,166 1053,94"/>
<text text-anchor="middle" x="1017" y="111">0.4521</text>
<text text-anchor="middle" x="1017" y="127">319</text>
<text text-anchor="middle" x="1017" y="143">[173, 328]</text>
<text text-anchor="middle" x="1017" y="159">SD</text>
</g>
<g id="edge10" class="edge"><title>3&#45;&gt;5</title>
<path style="fill:none;stroke:black;" d="M934,130C947,130 959,130 970,130"/>
<polygon style="fill:black;stroke:black;" points="970,126 980,130 970,133 970,126"/>
</g>
<g id="node14" class="node"><title>7</title>
<polygon style="fill:#399de5;stroke:black;" points="1053,184 981,184 981,256 1053,256 1053,184"/>
<text text-anchor="middle" x="1017" y="201">0.4704</text>
<text text-anchor="middle" x="1017" y="217">400</text>
<text text-anchor="middle" x="1017" y="233">[241, 396]</text>
<text text-anchor="middle" x="1017" y="249">SD</text>
</g>
<g id="edge14" class="edge"><title>6&#45;&gt;7</title>
<path style="fill:none;stroke:black;" d="M900,252C924,245 950,238 970,233"/>
<polygon style="fill:black;stroke:black;" points="969,230 980,230 971,236 969,230"/>
</g>
<g id="node16" class="node"><title>8</title>
<polygon style="fill:#e58139;stroke:black;" points="1044,274 990,274 990,346 1044,346 1044,274"/>
<text text-anchor="middle" x="1017" y="291">0.42</text>
<text text-anchor="middle" x="1017" y="307">11</text>
<text text-anchor="middle" x="1017" y="323">[14, 6]</text>
<text text-anchor="middle" x="1017" y="339">NS</text>
</g>
<g id="edge16" class="edge"><title>6&#45;&gt;8</title>
<path style="fill:none;stroke:black;" d="M900,288C928,293 957,298 980,303"/>
<polygon style="fill:black;stroke:black;" points="981,300 990,305 980,306 981,300"/>
</g>
<g id="node22" class="node"><title>11</title>
<polygon style="fill:#399de5;stroke:black;" points="624,491 470,491 470,579 624,579 624,491"/>
<text text-anchor="middle" x="547" y="508">IndAvgSalary &lt;= 0.8333</text>
<text text-anchor="middle" x="547" y="524">0.4048</text>
<text text-anchor="middle" x="547" y="540">3010</text>
<text text-anchor="middle" x="547" y="556">[1331, 3392]</text>
<text text-anchor="middle" x="547" y="572">SD</text>
</g>
<g id="edge22" class="edge"><title>10&#45;&gt;11</title>
<path style="fill:none;stroke:black;" d="M387,535C411,535 436,535 459,535"/>
<polygon style="fill:black;stroke:black;" points="459,531 469,535 459,538 459,531"/>
</g>
<g id="node36" class="node"><title>18</title>
<polygon style="fill:#e58139;stroke:black;" points="639,753 455,753 455,841 639,841 639,753"/>
<text text-anchor="middle" x="547" y="770">YearsToRetirement &lt;= 0.5848</text>
<text text-anchor="middle" x="547" y="786">0.2015</text>
<text text-anchor="middle" x="547" y="802">1235</text>
<text text-anchor="middle" x="547" y="818">[1723, 221]</text>
<text text-anchor="middle" x="547" y="834">NS</text>
</g>
<g id="edge36" class="edge"><title>10&#45;&gt;18</title>
<path style="fill:none;stroke:black;" d="M340,579C384,625 452,697 498,746"/>
<polygon style="fill:black;stroke:black;" points="500,743 505,753 495,748 500,743"/>
</g>
<g id="node24" class="node"><title>12</title>
<polygon style="fill:#399de5;stroke:black;" points="889,438 755,438 755,526 889,526 889,438"/>
<text text-anchor="middle" x="822" y="455">GSEGRD &lt;= 0.5625</text>
<text text-anchor="middle" x="822" y="471">0.3817</text>
<text text-anchor="middle" x="822" y="487">2784</text>
<text text-anchor="middle" x="822" y="503">[1121, 3245]</text>
<text text-anchor="middle" x="822" y="519">SD</text>
</g>
<g id="edge24" class="edge"><title>11&#45;&gt;12</title>
<path style="fill:none;stroke:black;" d="M625,520C662,513 707,504 745,497"/>
<polygon style="fill:black;stroke:black;" points="745,494 755,495 746,500 745,494"/>
</g>
<g id="node30" class="node"><title>15</title>
<polygon style="fill:#e58139;stroke:black;" points="883,544 761,544 761,632 883,632 883,544"/>
<text text-anchor="middle" x="822" y="561">AGELVL_I &lt;= 0.5</text>
<text text-anchor="middle" x="822" y="577">0.4844</text>
<text text-anchor="middle" x="822" y="593">226</text>
<text text-anchor="middle" x="822" y="609">[210, 147]</text>
<text text-anchor="middle" x="822" y="625">NS</text>
</g>
<g id="edge30" class="edge"><title>11&#45;&gt;15</title>
<path style="fill:none;stroke:black;" d="M625,550C664,557 712,567 750,574"/>
<polygon style="fill:black;stroke:black;" points="751,571 760,576 750,577 751,571"/>
</g>
<g id="node26" class="node"><title>13</title>
<polygon style="fill:#399de5;stroke:black;" points="1056,364 978,364 978,436 1056,436 1056,364"/>
<text text-anchor="middle" x="1017" y="381">0.3029</text>
<text text-anchor="middle" x="1017" y="397">1191</text>
<text text-anchor="middle" x="1017" y="413">[341, 1492]</text>
<text text-anchor="middle" x="1017" y="429">SD</text>
</g>
<g id="edge26" class="edge"><title>12&#45;&gt;13</title>
<path style="fill:none;stroke:black;" d="M889,454C915,443 944,431 968,421"/>
<polygon style="fill:black;stroke:black;" points="966,418 977,417 969,424 966,418"/>
</g>
<g id="node28" class="node"><title>14</title>
<polygon style="fill:#399de5;stroke:black;" points="1056,454 978,454 978,526 1056,526 1056,454"/>
<text text-anchor="middle" x="1017" y="471">0.4262</text>
<text text-anchor="middle" x="1017" y="487">1593</text>
<text text-anchor="middle" x="1017" y="503">[780, 1753]</text>
<text text-anchor="middle" x="1017" y="519">SD</text>
</g>
<g id="edge28" class="edge"><title>12&#45;&gt;14</title>
<path style="fill:none;stroke:black;" d="M889,485C915,486 944,487 967,488"/>
<polygon style="fill:black;stroke:black;" points="967,484 977,488 967,491 967,484"/>
</g>
<g id="node32" class="node"><title>16</title>
<polygon style="fill:#e58139;stroke:black;" points="1053,544 981,544 981,616 1053,616 1053,544"/>
<text text-anchor="middle" x="1017" y="561">0.4872</text>
<text text-anchor="middle" x="1017" y="577">191</text>
<text text-anchor="middle" x="1017" y="593">[174, 126]</text>
<text text-anchor="middle" x="1017" y="609">NS</text>
</g>
<g id="edge32" class="edge"><title>15&#45;&gt;16</title>
<path style="fill:none;stroke:black;" d="M884,585C912,584 945,582 971,581"/>
<polygon style="fill:black;stroke:black;" points="971,577 981,581 971,584 971,577"/>
</g>
<g id="node34" class="node"><title>17</title>
<polygon style="fill:#e58139;stroke:black;" points="1047,634 987,634 987,706 1047,706 1047,634"/>
<text text-anchor="middle" x="1017" y="651">0.4654</text>
<text text-anchor="middle" x="1017" y="667">35</text>
<text text-anchor="middle" x="1017" y="683">[36, 21]</text>
<text text-anchor="middle" x="1017" y="699">NS</text>
</g>
<g id="edge34" class="edge"><title>15&#45;&gt;17</title>
<path style="fill:none;stroke:black;" d="M884,614C914,626 950,642 977,653"/>
<polygon style="fill:black;stroke:black;" points="979,650 987,657 976,657 979,650"/>
</g>
<g id="node38" class="node"><title>19</title>
<polygon style="fill:#e58139;stroke:black;" points="883,753 761,753 761,841 883,841 883,753"/>
<text text-anchor="middle" x="822" y="770">AGELVL_I &lt;= 0.5</text>
<text text-anchor="middle" x="822" y="786">0.398</text>
<text text-anchor="middle" x="822" y="802">404</text>
<text text-anchor="middle" x="822" y="818">[466, 176]</text>
<text text-anchor="middle" x="822" y="834">NS</text>
</g>
<g id="edge38" class="edge"><title>18&#45;&gt;19</title>
<path style="fill:none;stroke:black;" d="M640,797C676,797 717,797 750,797"/>
<polygon style="fill:black;stroke:black;" points="750,793 760,797 750,800 750,793"/>
</g>
<g id="node44" class="node"><title>22</title>
<polygon style="fill:#e58139;stroke:black;" points="936,896 708,896 708,984 936,984 936,896"/>
<text text-anchor="middle" x="822" y="913">BLS_FEDERAL_Quits_Level &lt;= 0.5</text>
<text text-anchor="middle" x="822" y="929">0.0667</text>
<text text-anchor="middle" x="822" y="945">831</text>
<text text-anchor="middle" x="822" y="961">[1257, 45]</text>
<text text-anchor="middle" x="822" y="977">NS</text>
</g>
<g id="edge44" class="edge"><title>18&#45;&gt;22</title>
<path style="fill:none;stroke:black;" d="M632,841C663,856 697,874 728,891"/>
<polygon style="fill:black;stroke:black;" points="730,888 737,896 727,894 730,888"/>
</g>
<g id="node40" class="node"><title>20</title>
<polygon style="fill:#e58139;stroke:black;" points="1054,724 980,724 980,796 1054,796 1054,724"/>
<text text-anchor="middle" x="1017" y="741">0.3916</text>
<text text-anchor="middle" x="1017" y="757">374</text>
<text text-anchor="middle" x="1017" y="773">[436, 159]</text>
<text text-anchor="middle" x="1017" y="789">NS</text>
</g>
<g id="edge40" class="edge"><title>19&#45;&gt;20</title>
<path style="fill:none;stroke:black;" d="M884,785C912,780 944,774 970,769"/>
<polygon style="fill:black;stroke:black;" points="970,766 980,767 971,772 970,766"/>
</g>
<g id="node42" class="node"><title>21</title>
<polygon style="fill:#e58139;stroke:black;" points="1047,814 987,814 987,886 1047,886 1047,814"/>
<text text-anchor="middle" x="1017" y="831">0.4617</text>
<text text-anchor="middle" x="1017" y="847">30</text>
<text text-anchor="middle" x="1017" y="863">[30, 17]</text>
<text text-anchor="middle" x="1017" y="879">NS</text>
</g>
<g id="edge42" class="edge"><title>19&#45;&gt;21</title>
<path style="fill:none;stroke:black;" d="M884,814C914,822 950,832 977,839"/>
<polygon style="fill:black;stroke:black;" points="978,836 987,842 976,842 978,836"/>
</g>
<g id="node46" class="node"><title>23</title>
<polygon style="fill:#e58139;stroke:black;" points="1053,904 981,904 981,976 1053,976 1053,904"/>
<text text-anchor="middle" x="1017" y="921">0.0411</text>
<text text-anchor="middle" x="1017" y="937">758</text>
<text text-anchor="middle" x="1017" y="953">[1165, 25]</text>
<text text-anchor="middle" x="1017" y="969">NS</text>
</g>
<g id="edge46" class="edge"><title>22&#45;&gt;23</title>
<path style="fill:none;stroke:black;" d="M937,940C949,940 960,940 970,940"/>
<polygon style="fill:black;stroke:black;" points="970,936 980,940 970,943 970,936"/>
</g>
<g id="node48" class="node"><title>24</title>
<polygon style="fill:#e58139;stroke:black;" points="1047,994 987,994 987,1066 1047,1066 1047,994"/>
<text text-anchor="middle" x="1017" y="1011">0.2934</text>
<text text-anchor="middle" x="1017" y="1027">73</text>
<text text-anchor="middle" x="1017" y="1043">[92, 20]</text>
<text text-anchor="middle" x="1017" y="1059">NS</text>
</g>
<g id="edge48" class="edge"><title>22&#45;&gt;24</title>
<path style="fill:none;stroke:black;" d="M918,984C939,994 960,1003 977,1011"/>
<polygon style="fill:black;stroke:black;" points="979,1008 986,1016 976,1014 979,1008"/>
</g>
</g>
</svg>
