<?xml version="1.0" encoding="UTF-8" standalone="no"?>
<!DOCTYPE svg PUBLIC "-//W3C//DTD SVG 1.0//EN"
 "http://www.w3.org/TR/2001/REC-SVG-20010904/DTD/svg10.dtd">
<!-- Generated by dot version 2.2 (Tue Jan 25 21:58:56 UTC 2005)
     For user: (amfrye) Alex Frye   Title: Tree    Pages: 1 -->
<svg width="1100pt" height="1090pt"
 viewBox = "-1 -1 1099 1089"
 xmlns="http://www.w3.org/2000/svg">
<g id="graph0" class="graph" style="font-family:Times-Roman;font-size:14.00;">
<title>Tree</title>
<g id="node1" class="node"><title>0</title>
<polygon style="fill:#e58139;stroke:black;" points="257,500 5,500 5,588 257,588 257,500"/>
<text text-anchor="middle" x="131" y="517">BLS_FEDERAL_OtherSep_Level &lt;= 0.5</text>
<text text-anchor="middle" x="131" y="533">0.4999</text>
<text text-anchor="middle" x="131" y="549">7573</text>
<text text-anchor="middle" x="131" y="565">[6036, 5901]</text>
<text text-anchor="middle" x="131" y="581">NS</text>
</g>
<g id="node2" class="node"><title>1</title>
<polygon style="fill:#e58139;stroke:black;" points="525,426 293,426 293,514 525,514 525,426"/>
<text text-anchor="middle" x="409" y="443">SEPCount_EFDATE_LOCLog &lt;= 0.5</text>
<text text-anchor="middle" x="409" y="459">0.4998</text>
<text text-anchor="middle" x="409" y="475">6843</text>
<text text-anchor="middle" x="409" y="491">[5522, 5287]</text>
<text text-anchor="middle" x="409" y="507">NS</text>
</g>
<g id="edge2" class="edge"><title>0&#45;&gt;1</title>
<path style="fill:none;stroke:black;" d="M257,510C266,508 274,506 283,503"/>
<polygon style="fill:black;stroke:black;" points="283,500 293,501 284,506 283,500"/>
<text text-anchor="middle" x="272" y="492">True</text>
</g>
<g id="node28" class="node"><title>14</title>
<polygon style="fill:#399de5;stroke:black;" points="498,573 320,573 320,661 498,661 498,573"/>
<text text-anchor="middle" x="409" y="590">YearsToRetirement &lt;= 0.232</text>
<text text-anchor="middle" x="409" y="606">0.4961</text>
<text text-anchor="middle" x="409" y="622">730</text>
<text text-anchor="middle" x="409" y="638">[514, 614]</text>
<text text-anchor="middle" x="409" y="654">SD</text>
</g>
<g id="edge28" class="edge"><title>0&#45;&gt;14</title>
<path style="fill:none;stroke:black;" d="M257,577C275,581 293,586 310,590"/>
<polygon style="fill:black;stroke:black;" points="311,587 320,593 309,593 311,587"/>
<text text-anchor="middle" x="298" y="610">False</text>
</g>
<g id="node4" class="node"><title>2</title>
<polygon style="fill:#e58139;stroke:black;" points="731,221 577,221 577,309 731,309 731,221"/>
<text text-anchor="middle" x="654" y="238">IndAvgSalary &lt;= 0.7222</text>
<text text-anchor="middle" x="654" y="254">0.4999</text>
<text text-anchor="middle" x="654" y="270">6681</text>
<text text-anchor="middle" x="654" y="286">[5341, 5208]</text>
<text text-anchor="middle" x="654" y="302">NS</text>
</g>
<g id="edge4" class="edge"><title>1&#45;&gt;2</title>
<path style="fill:none;stroke:black;" d="M462,426C501,394 553,350 593,315"/>
<polygon style="fill:black;stroke:black;" points="591,312 601,309 595,318 591,312"/>
</g>
<g id="node18" class="node"><title>9</title>
<polygon style="fill:#e58139;stroke:black;" points="718,426 590,426 590,514 718,514 718,426"/>
<text text-anchor="middle" x="654" y="443">AGELVL_G &lt;= 0.5</text>
<text text-anchor="middle" x="654" y="459">0.423</text>
<text text-anchor="middle" x="654" y="475">162</text>
<text text-anchor="middle" x="654" y="491">[181, 79]</text>
<text text-anchor="middle" x="654" y="507">NS</text>
</g>
<g id="edge18" class="edge"><title>1&#45;&gt;9</title>
<path style="fill:none;stroke:black;" d="M525,470C543,470 561,470 579,470"/>
<polygon style="fill:black;stroke:black;" points="579,466 589,470 579,473 579,466"/>
</g>
<g id="node6" class="node"><title>3</title>
<polygon style="fill:#399de5;stroke:black;" points="953,86 799,86 799,174 953,174 953,86"/>
<text text-anchor="middle" x="876" y="103">IndAvgSalary &lt;= 0.5556</text>
<text text-anchor="middle" x="876" y="119">0.4573</text>
<text text-anchor="middle" x="876" y="135">4423</text>
<text text-anchor="middle" x="876" y="151">[2479, 4527]</text>
<text text-anchor="middle" x="876" y="167">SD</text>
</g>
<g id="edge6" class="edge"><title>2&#45;&gt;3</title>
<path style="fill:none;stroke:black;" d="M726,221C748,208 773,193 795,179"/>
<polygon style="fill:black;stroke:black;" points="794,176 804,174 797,182 794,176"/>
</g>
<g id="node12" class="node"><title>6</title>
<polygon style="fill:#e58139;stroke:black;" points="968,221 784,221 784,309 968,309 968,221"/>
<text text-anchor="middle" x="876" y="238">YearsToRetirement &lt;= 0.3397</text>
<text text-anchor="middle" x="876" y="254">0.3105</text>
<text text-anchor="middle" x="876" y="270">2258</text>
<text text-anchor="middle" x="876" y="286">[2862, 681]</text>
<text text-anchor="middle" x="876" y="302">NS</text>
</g>
<g id="edge12" class="edge"><title>2&#45;&gt;6</title>
<path style="fill:none;stroke:black;" d="M731,265C745,265 759,265 773,265"/>
<polygon style="fill:black;stroke:black;" points="773,261 783,265 773,268 773,261"/>
</g>
<g id="node8" class="node"><title>4</title>
<polygon style="fill:#399de5;stroke:black;" points="1093,4 1005,4 1005,76 1093,76 1093,4"/>
<text text-anchor="middle" x="1049" y="21">0.4333</text>
<text text-anchor="middle" x="1049" y="37">3653</text>
<text text-anchor="middle" x="1049" y="53">[1832, 3940]</text>
<text text-anchor="middle" x="1049" y="69">SD</text>
</g>
<g id="edge8" class="edge"><title>3&#45;&gt;4</title>
<path style="fill:none;stroke:black;" d="M954,90C968,83 983,75 996,68"/>
<polygon style="fill:black;stroke:black;" points="995,65 1005,63 998,71 995,65"/>
</g>
<g id="node10" class="node"><title>5</title>
<polygon style="fill:#e58139;stroke:black;" points="1085,94 1013,94 1013,166 1085,166 1085,94"/>
<text text-anchor="middle" x="1049" y="111">0.4988</text>
<text text-anchor="middle" x="1049" y="127">770</text>
<text text-anchor="middle" x="1049" y="143">[647, 587]</text>
<text text-anchor="middle" x="1049" y="159">NS</text>
</g>
<g id="edge10" class="edge"><title>3&#45;&gt;5</title>
<path style="fill:none;stroke:black;" d="M954,130C970,130 987,130 1002,130"/>
<polygon style="fill:black;stroke:black;" points="1002,126 1012,130 1002,133 1002,126"/>
</g>
<g id="node14" class="node"><title>7</title>
<polygon style="fill:#399de5;stroke:black;" points="1086,184 1012,184 1012,256 1086,256 1086,184"/>
<text text-anchor="middle" x="1049" y="201">0.4457</text>
<text text-anchor="middle" x="1049" y="217">453</text>
<text text-anchor="middle" x="1049" y="233">[236, 468]</text>
<text text-anchor="middle" x="1049" y="249">SD</text>
</g>
<g id="edge14" class="edge"><title>6&#45;&gt;7</title>
<path style="fill:none;stroke:black;" d="M969,241C980,238 991,235 1001,233"/>
<polygon style="fill:black;stroke:black;" points="1000,230 1011,230 1002,236 1000,230"/>
</g>
<g id="node16" class="node"><title>8</title>
<polygon style="fill:#e58139;stroke:black;" points="1089,274 1009,274 1009,346 1089,346 1089,274"/>
<text text-anchor="middle" x="1049" y="291">0.1388</text>
<text text-anchor="middle" x="1049" y="307">1805</text>
<text text-anchor="middle" x="1049" y="323">[2626, 213]</text>
<text text-anchor="middle" x="1049" y="339">NS</text>
</g>
<g id="edge16" class="edge"><title>6&#45;&gt;8</title>
<path style="fill:none;stroke:black;" d="M969,289C979,292 990,294 999,297"/>
<polygon style="fill:black;stroke:black;" points="1000,294 1009,300 998,300 1000,294"/>
</g>
<g id="node20" class="node"><title>10</title>
<polygon style="fill:#e58139;stroke:black;" points="953,356 799,356 799,444 953,444 953,356"/>
<text text-anchor="middle" x="876" y="373">IndAvgSalary &lt;= 0.5556</text>
<text text-anchor="middle" x="876" y="389">0.4283</text>
<text text-anchor="middle" x="876" y="405">149</text>
<text text-anchor="middle" x="876" y="421">[162, 73]</text>
<text text-anchor="middle" x="876" y="437">NS</text>
</g>
<g id="edge20" class="edge"><title>9&#45;&gt;10</title>
<path style="fill:none;stroke:black;" d="M719,450C741,443 765,435 788,428"/>
<polygon style="fill:black;stroke:black;" points="787,425 798,425 789,431 787,425"/>
</g>
<g id="node26" class="node"><title>13</title>
<polygon style="fill:#e58139;stroke:black;" points="903,462 849,462 849,534 903,534 903,462"/>
<text text-anchor="middle" x="876" y="479">0.3648</text>
<text text-anchor="middle" x="876" y="495">13</text>
<text text-anchor="middle" x="876" y="511">[19, 6]</text>
<text text-anchor="middle" x="876" y="527">NS</text>
</g>
<g id="edge26" class="edge"><title>9&#45;&gt;13</title>
<path style="fill:none;stroke:black;" d="M719,478C758,483 806,489 838,493"/>
<polygon style="fill:black;stroke:black;" points="838,490 848,494 838,496 838,490"/>
</g>
<g id="node22" class="node"><title>11</title>
<polygon style="fill:#399de5;stroke:black;" points="1079,364 1019,364 1019,436 1079,436 1079,364"/>
<text text-anchor="middle" x="1049" y="381">0.48</text>
<text text-anchor="middle" x="1049" y="397">65</text>
<text text-anchor="middle" x="1049" y="413">[38, 57]</text>
<text text-anchor="middle" x="1049" y="429">SD</text>
</g>
<g id="edge22" class="edge"><title>10&#45;&gt;11</title>
<path style="fill:none;stroke:black;" d="M954,400C973,400 992,400 1009,400"/>
<polygon style="fill:black;stroke:black;" points="1009,396 1019,400 1009,403 1009,396"/>
</g>
<g id="node24" class="node"><title>12</title>
<polygon style="fill:#e58139;stroke:black;" points="1082,454 1016,454 1016,526 1082,526 1082,454"/>
<text text-anchor="middle" x="1049" y="471">0.2024</text>
<text text-anchor="middle" x="1049" y="487">84</text>
<text text-anchor="middle" x="1049" y="503">[124, 16]</text>
<text text-anchor="middle" x="1049" y="519">NS</text>
</g>
<g id="edge24" class="edge"><title>10&#45;&gt;12</title>
<path style="fill:none;stroke:black;" d="M954,440C972,449 991,459 1007,467"/>
<polygon style="fill:black;stroke:black;" points="1009,464 1016,472 1006,470 1009,464"/>
</g>
<g id="node30" class="node"><title>15</title>
<polygon style="fill:#399de5;stroke:black;" points="720,573 588,573 588,661 720,661 720,573"/>
<text text-anchor="middle" x="654" y="590">GSEGRD &lt;= 0.4375</text>
<text text-anchor="middle" x="654" y="606">0.262</text>
<text text-anchor="middle" x="654" y="622">203</text>
<text text-anchor="middle" x="654" y="638">[49, 267]</text>
<text text-anchor="middle" x="654" y="654">SD</text>
</g>
<g id="edge30" class="edge"><title>14&#45;&gt;15</title>
<path style="fill:none;stroke:black;" d="M498,617C524,617 552,617 577,617"/>
<polygon style="fill:black;stroke:black;" points="577,613 587,617 577,620 577,613"/>
</g>
<g id="node40" class="node"><title>20</title>
<polygon style="fill:#e58139;stroke:black;" points="746,777 562,777 562,865 746,865 746,777"/>
<text text-anchor="middle" x="654" y="794">YearsToRetirement &lt;= 0.5622</text>
<text text-anchor="middle" x="654" y="810">0.4894</text>
<text text-anchor="middle" x="654" y="826">527</text>
<text text-anchor="middle" x="654" y="842">[465, 347]</text>
<text text-anchor="middle" x="654" y="858">NS</text>
</g>
<g id="edge40" class="edge"><title>14&#45;&gt;20</title>
<path style="fill:none;stroke:black;" d="M462,661C501,693 553,736 593,771"/>
<polygon style="fill:black;stroke:black;" points="595,768 601,777 591,774 595,768"/>
</g>
<g id="node32" class="node"><title>16</title>
<polygon style="fill:#399de5;stroke:black;" points="903,552 849,552 849,624 903,624 903,552"/>
<text text-anchor="middle" x="876" y="569">0.0599</text>
<text text-anchor="middle" x="876" y="585">59</text>
<text text-anchor="middle" x="876" y="601">[3, 94]</text>
<text text-anchor="middle" x="876" y="617">SD</text>
</g>
<g id="edge32" class="edge"><title>15&#45;&gt;16</title>
<path style="fill:none;stroke:black;" d="M721,608C760,604 806,597 838,593"/>
<polygon style="fill:black;stroke:black;" points="838,590 848,592 838,596 838,590"/>
</g>
<g id="node34" class="node"><title>17</title>
<polygon style="fill:#399de5;stroke:black;" points="967,642 785,642 785,730 967,730 967,642"/>
<text text-anchor="middle" x="876" y="659">YearsToRetirement &lt;= 0.1211</text>
<text text-anchor="middle" x="876" y="675">0.3319</text>
<text text-anchor="middle" x="876" y="691">144</text>
<text text-anchor="middle" x="876" y="707">[46, 173]</text>
<text text-anchor="middle" x="876" y="723">SD</text>
</g>
<g id="edge34" class="edge"><title>15&#45;&gt;17</title>
<path style="fill:none;stroke:black;" d="M721,638C738,643 757,649 775,655"/>
<polygon style="fill:black;stroke:black;" points="776,652 785,658 774,658 776,652"/>
</g>
<g id="node36" class="node"><title>18</title>
<polygon style="fill:#399de5;stroke:black;" points="1076,560 1022,560 1022,632 1076,632 1076,560"/>
<text text-anchor="middle" x="1049" y="577">0.1928</text>
<text text-anchor="middle" x="1049" y="593">48</text>
<text text-anchor="middle" x="1049" y="609">[8, 66]</text>
<text text-anchor="middle" x="1049" y="625">SD</text>
</g>
<g id="edge36" class="edge"><title>17&#45;&gt;18</title>
<path style="fill:none;stroke:black;" d="M961,642C979,632 997,623 1013,615"/>
<polygon style="fill:black;stroke:black;" points="1012,612 1022,610 1015,618 1012,612"/>
</g>
<g id="node38" class="node"><title>19</title>
<polygon style="fill:#399de5;stroke:black;" points="1082,650 1016,650 1016,722 1082,722 1082,650"/>
<text text-anchor="middle" x="1049" y="667">0.3868</text>
<text text-anchor="middle" x="1049" y="683">96</text>
<text text-anchor="middle" x="1049" y="699">[38, 107]</text>
<text text-anchor="middle" x="1049" y="715">SD</text>
</g>
<g id="edge38" class="edge"><title>17&#45;&gt;19</title>
<path style="fill:none;stroke:black;" d="M967,686C980,686 993,686 1005,686"/>
<polygon style="fill:black;stroke:black;" points="1005,682 1015,686 1005,689 1005,682"/>
</g>
<g id="node42" class="node"><title>21</title>
<polygon style="fill:#e58139;stroke:black;" points="942,777 810,777 810,865 942,865 942,777"/>
<text text-anchor="middle" x="876" y="794">GSEGRD &lt;= 0.4375</text>
<text text-anchor="middle" x="876" y="810">0.4989</text>
<text text-anchor="middle" x="876" y="826">442</text>
<text text-anchor="middle" x="876" y="842">[361, 329]</text>
<text text-anchor="middle" x="876" y="858">NS</text>
</g>
<g id="edge42" class="edge"><title>20&#45;&gt;21</title>
<path style="fill:none;stroke:black;" d="M747,821C764,821 782,821 799,821"/>
<polygon style="fill:black;stroke:black;" points="799,817 809,821 799,824 799,817"/>
</g>
<g id="node48" class="node"><title>24</title>
<polygon style="fill:#e58139;stroke:black;" points="942,912 810,912 810,1000 942,1000 942,912"/>
<text text-anchor="middle" x="876" y="929">GSEGRD &lt;= 0.6875</text>
<text text-anchor="middle" x="876" y="945">0.2515</text>
<text text-anchor="middle" x="876" y="961">85</text>
<text text-anchor="middle" x="876" y="977">[104, 18]</text>
<text text-anchor="middle" x="876" y="993">NS</text>
</g>
<g id="edge48" class="edge"><title>20&#45;&gt;24</title>
<path style="fill:none;stroke:black;" d="M726,865C750,879 776,895 800,910"/>
<polygon style="fill:black;stroke:black;" points="802,907 809,915 799,913 802,907"/>
</g>
<g id="node44" class="node"><title>22</title>
<polygon style="fill:#399de5;stroke:black;" points="1079,740 1019,740 1019,812 1079,812 1079,740"/>
<text text-anchor="middle" x="1049" y="757">0.4181</text>
<text text-anchor="middle" x="1049" y="773">54</text>
<text text-anchor="middle" x="1049" y="789">[25, 59]</text>
<text text-anchor="middle" x="1049" y="805">SD</text>
</g>
<g id="edge44" class="edge"><title>21&#45;&gt;22</title>
<path style="fill:none;stroke:black;" d="M943,804C965,798 989,792 1008,787"/>
<polygon style="fill:black;stroke:black;" points="1007,784 1018,784 1009,790 1007,784"/>
</g>
<g id="node46" class="node"><title>23</title>
<polygon style="fill:#e58139;stroke:black;" points="1086,830 1012,830 1012,902 1086,902 1086,830"/>
<text text-anchor="middle" x="1049" y="847">0.4941</text>
<text text-anchor="middle" x="1049" y="863">388</text>
<text text-anchor="middle" x="1049" y="879">[336, 270]</text>
<text text-anchor="middle" x="1049" y="895">NS</text>
</g>
<g id="edge46" class="edge"><title>21&#45;&gt;23</title>
<path style="fill:none;stroke:black;" d="M943,838C963,843 984,849 1002,854"/>
<polygon style="fill:black;stroke:black;" points="1003,851 1012,856 1002,857 1003,851"/>
</g>
<g id="node50" class="node"><title>25</title>
<polygon style="fill:#e58139;stroke:black;" points="1076,920 1022,920 1022,992 1076,992 1076,920"/>
<text text-anchor="middle" x="1049" y="937">0.0815</text>
<text text-anchor="middle" x="1049" y="953">36</text>
<text text-anchor="middle" x="1049" y="969">[45, 2]</text>
<text text-anchor="middle" x="1049" y="985">NS</text>
</g>
<g id="edge50" class="edge"><title>24&#45;&gt;25</title>
<path style="fill:none;stroke:black;" d="M943,956C967,956 992,956 1012,956"/>
<polygon style="fill:black;stroke:black;" points="1012,952 1022,956 1012,959 1012,952"/>
</g>
<g id="node52" class="node"><title>26</title>
<polygon style="fill:#e58139;stroke:black;" points="1079,1010 1019,1010 1019,1082 1079,1082 1079,1010"/>
<text text-anchor="middle" x="1049" y="1027">0.3356</text>
<text text-anchor="middle" x="1049" y="1043">49</text>
<text text-anchor="middle" x="1049" y="1059">[59, 16]</text>
<text text-anchor="middle" x="1049" y="1075">NS</text>
</g>
<g id="edge52" class="edge"><title>24&#45;&gt;26</title>
<path style="fill:none;stroke:black;" d="M943,991C965,1002 990,1015 1010,1025"/>
<polygon style="fill:black;stroke:black;" points="1012,1022 1019,1030 1009,1028 1012,1022"/>
</g>
</g>
</svg>
