<?xml version="1.0" encoding="UTF-8" standalone="no"?>
<!DOCTYPE svg PUBLIC "-//W3C//DTD SVG 1.0//EN"
 "http://www.w3.org/TR/2001/REC-SVG-20010904/DTD/svg10.dtd">
<!-- Generated by dot version 2.2 (Tue Jan 25 21:58:56 UTC 2005)
     For user: (amfrye) Alex Frye   Title: Tree    Pages: 1 -->
<svg width="1180pt" height="1262pt"
 viewBox = "-1 -1 1179 1261"
 xmlns="http://www.w3.org/2000/svg">
<g id="graph0" class="graph" style="font-family:Times-Roman;font-size:14.00;">
<title>Tree</title>
<g id="node1" class="node"><title>0</title>
<polygon style="fill:#e58139;stroke:black;" points="187,671 5,671 5,759 187,759 187,671"/>
<text text-anchor="middle" x="96" y="688">YearsToRetirement &lt;= 0.4173</text>
<text text-anchor="middle" x="96" y="704">0.5</text>
<text text-anchor="middle" x="96" y="720">7529</text>
<text text-anchor="middle" x="96" y="736">[5984, 5953]</text>
<text text-anchor="middle" x="96" y="752">NS</text>
</g>
<g id="node2" class="node"><title>1</title>
<polygon style="fill:#399de5;stroke:black;" points="424,491 270,491 270,579 424,579 424,491"/>
<text text-anchor="middle" x="347" y="508">IndAvgSalary &lt;= 0.8333</text>
<text text-anchor="middle" x="347" y="524">0.4355</text>
<text text-anchor="middle" x="347" y="540">5046</text>
<text text-anchor="middle" x="347" y="556">[2566, 5444]</text>
<text text-anchor="middle" x="347" y="572">SD</text>
</g>
<g id="edge2" class="edge"><title>0&#45;&gt;1</title>
<path style="fill:none;stroke:black;" d="M157,671C193,645 240,612 278,585"/>
<polygon style="fill:black;stroke:black;" points="276,582 286,579 280,588 276,582"/>
<text text-anchor="middle" x="261" y="580">True</text>
</g>
<g id="node32" class="node"><title>16</title>
<polygon style="fill:#e58139;stroke:black;" points="471,851 223,851 223,939 471,939 471,851"/>
<text text-anchor="middle" x="347" y="868">BLS_FEDERAL_TotalSep_Level &lt;= 0.5</text>
<text text-anchor="middle" x="347" y="884">0.2256</text>
<text text-anchor="middle" x="347" y="900">2483</text>
<text text-anchor="middle" x="347" y="916">[3418, 509]</text>
<text text-anchor="middle" x="347" y="932">NS</text>
</g>
<g id="edge32" class="edge"><title>0&#45;&gt;16</title>
<path style="fill:none;stroke:black;" d="M157,759C193,785 240,818 278,845"/>
<polygon style="fill:black;stroke:black;" points="280,842 286,851 276,848 280,842"/>
<text text-anchor="middle" x="261" y="860">False</text>
</g>
<g id="node4" class="node"><title>2</title>
<polygon style="fill:#399de5;stroke:black;" points="725,229 561,229 561,317 725,317 725,229"/>
<text text-anchor="middle" x="643" y="246">LowerLimitAge &lt;= 0.8194</text>
<text text-anchor="middle" x="643" y="262">0.4192</text>
<text text-anchor="middle" x="643" y="278">4702</text>
<text text-anchor="middle" x="643" y="294">[2232, 5234]</text>
<text text-anchor="middle" x="643" y="310">SD</text>
</g>
<g id="edge4" class="edge"><title>1&#45;&gt;2</title>
<path style="fill:none;stroke:black;" d="M397,491C449,445 530,373 585,324"/>
<polygon style="fill:black;stroke:black;" points="583,321 593,317 588,326 583,321"/>
</g>
<g id="node18" class="node"><title>9</title>
<polygon style="fill:#e58139;stroke:black;" points="707,491 579,491 579,579 707,579 707,491"/>
<text text-anchor="middle" x="643" y="508">AGELVL_C &lt;= 0.5</text>
<text text-anchor="middle" x="643" y="524">0.474</text>
<text text-anchor="middle" x="643" y="540">344</text>
<text text-anchor="middle" x="643" y="556">[334, 210]</text>
<text text-anchor="middle" x="643" y="572">NS</text>
</g>
<g id="edge18" class="edge"><title>1&#45;&gt;9</title>
<path style="fill:none;stroke:black;" d="M425,535C470,535 524,535 569,535"/>
<polygon style="fill:black;stroke:black;" points="569,531 579,535 569,538 569,531"/>
</g>
<g id="node6" class="node"><title>3</title>
<polygon style="fill:#399de5;stroke:black;" points="1015,86 849,86 849,174 1015,174 1015,86"/>
<text text-anchor="middle" x="932" y="103">LowerLimitAge &lt;= 0.4028</text>
<text text-anchor="middle" x="932" y="119">0.3943</text>
<text text-anchor="middle" x="932" y="135">3803</text>
<text text-anchor="middle" x="932" y="151">[1623, 4386]</text>
<text text-anchor="middle" x="932" y="167">SD</text>
</g>
<g id="edge6" class="edge"><title>2&#45;&gt;3</title>
<path style="fill:none;stroke:black;" d="M726,232C761,214 803,194 839,176"/>
<polygon style="fill:black;stroke:black;" points="838,173 848,171 841,179 838,173"/>
</g>
<g id="node12" class="node"><title>6</title>
<polygon style="fill:#399de5;stroke:black;" points="1015,229 849,229 849,317 1015,317 1015,229"/>
<text text-anchor="middle" x="932" y="246">LowerLimitAge &lt;= 0.9306</text>
<text text-anchor="middle" x="932" y="262">0.4865</text>
<text text-anchor="middle" x="932" y="278">899</text>
<text text-anchor="middle" x="932" y="294">[609, 848]</text>
<text text-anchor="middle" x="932" y="310">SD</text>
</g>
<g id="edge12" class="edge"><title>2&#45;&gt;6</title>
<path style="fill:none;stroke:black;" d="M726,273C761,273 802,273 838,273"/>
<polygon style="fill:black;stroke:black;" points="838,269 848,273 838,276 838,269"/>
</g>
<g id="node8" class="node"><title>4</title>
<polygon style="fill:#399de5;stroke:black;" points="1172,4 1086,4 1086,76 1172,76 1172,4"/>
<text text-anchor="middle" x="1129" y="21">0.4617</text>
<text text-anchor="middle" x="1129" y="37">2009</text>
<text text-anchor="middle" x="1129" y="53">[1153, 2036]</text>
<text text-anchor="middle" x="1129" y="69">SD</text>
</g>
<g id="edge8" class="edge"><title>3&#45;&gt;4</title>
<path style="fill:none;stroke:black;" d="M1016,92C1036,83 1058,73 1076,64"/>
<polygon style="fill:black;stroke:black;" points="1074,61 1085,60 1077,67 1074,61"/>
</g>
<g id="node10" class="node"><title>5</title>
<polygon style="fill:#399de5;stroke:black;" points="1169,94 1089,94 1089,166 1169,166 1169,94"/>
<text text-anchor="middle" x="1129" y="111">0.2778</text>
<text text-anchor="middle" x="1129" y="127">1794</text>
<text text-anchor="middle" x="1129" y="143">[470, 2350]</text>
<text text-anchor="middle" x="1129" y="159">SD</text>
</g>
<g id="edge10" class="edge"><title>3&#45;&gt;5</title>
<path style="fill:none;stroke:black;" d="M1016,130C1037,130 1059,130 1078,130"/>
<polygon style="fill:black;stroke:black;" points="1078,126 1088,130 1078,133 1078,126"/>
</g>
<g id="node14" class="node"><title>7</title>
<polygon style="fill:#e58139;stroke:black;" points="1166,184 1092,184 1092,256 1166,256 1166,184"/>
<text text-anchor="middle" x="1129" y="201">0.4991</text>
<text text-anchor="middle" x="1129" y="217">563</text>
<text text-anchor="middle" x="1129" y="233">[489, 449]</text>
<text text-anchor="middle" x="1129" y="249">NS</text>
</g>
<g id="edge14" class="edge"><title>6&#45;&gt;7</title>
<path style="fill:none;stroke:black;" d="M1016,251C1038,245 1062,238 1081,233"/>
<polygon style="fill:black;stroke:black;" points="1080,230 1091,230 1082,236 1080,230"/>
</g>
<g id="node16" class="node"><title>8</title>
<polygon style="fill:#399de5;stroke:black;" points="1166,274 1092,274 1092,346 1166,346 1166,274"/>
<text text-anchor="middle" x="1129" y="291">0.3555</text>
<text text-anchor="middle" x="1129" y="307">336</text>
<text text-anchor="middle" x="1129" y="323">[120, 399]</text>
<text text-anchor="middle" x="1129" y="339">SD</text>
</g>
<g id="edge16" class="edge"><title>6&#45;&gt;8</title>
<path style="fill:none;stroke:black;" d="M1016,289C1038,293 1062,298 1082,301"/>
<polygon style="fill:black;stroke:black;" points="1083,298 1092,303 1082,304 1083,298"/>
</g>
<g id="node20" class="node"><title>10</title>
<polygon style="fill:#e58139;stroke:black;" points="993,438 871,438 871,526 993,526 993,438"/>
<text text-anchor="middle" x="932" y="455">AGELVL_I &lt;= 0.5</text>
<text text-anchor="middle" x="932" y="471">0.4655</text>
<text text-anchor="middle" x="932" y="487">306</text>
<text text-anchor="middle" x="932" y="503">[303, 177]</text>
<text text-anchor="middle" x="932" y="519">NS</text>
</g>
<g id="edge20" class="edge"><title>9&#45;&gt;10</title>
<path style="fill:none;stroke:black;" d="M707,523C753,515 813,504 860,495"/>
<polygon style="fill:black;stroke:black;" points="860,492 870,493 861,498 860,492"/>
</g>
<g id="node26" class="node"><title>13</title>
<polygon style="fill:#399de5;stroke:black;" points="1015,544 849,544 849,632 1015,632 1015,544"/>
<text text-anchor="middle" x="932" y="561">LowerLimitAge &lt;= 0.2361</text>
<text text-anchor="middle" x="932" y="577">0.4995</text>
<text text-anchor="middle" x="932" y="593">38</text>
<text text-anchor="middle" x="932" y="609">[31, 33]</text>
<text text-anchor="middle" x="932" y="625">SD</text>
</g>
<g id="edge26" class="edge"><title>9&#45;&gt;13</title>
<path style="fill:none;stroke:black;" d="M707,547C746,553 796,563 839,571"/>
<polygon style="fill:black;stroke:black;" points="840,568 849,573 839,574 840,568"/>
</g>
<g id="node22" class="node"><title>11</title>
<polygon style="fill:#e58139;stroke:black;" points="1165,364 1093,364 1093,436 1165,436 1165,364"/>
<text text-anchor="middle" x="1129" y="381">0.4683</text>
<text text-anchor="middle" x="1129" y="397">249</text>
<text text-anchor="middle" x="1129" y="413">[246, 147]</text>
<text text-anchor="middle" x="1129" y="429">NS</text>
</g>
<g id="edge22" class="edge"><title>10&#45;&gt;11</title>
<path style="fill:none;stroke:black;" d="M994,456C1022,444 1057,430 1083,419"/>
<polygon style="fill:black;stroke:black;" points="1081,416 1092,415 1084,422 1081,416"/>
</g>
<g id="node24" class="node"><title>12</title>
<polygon style="fill:#e58139;stroke:black;" points="1158,454 1100,454 1100,526 1158,526 1158,454"/>
<text text-anchor="middle" x="1129" y="471">0.4518</text>
<text text-anchor="middle" x="1129" y="487">57</text>
<text text-anchor="middle" x="1129" y="503">[57, 30]</text>
<text text-anchor="middle" x="1129" y="519">NS</text>
</g>
<g id="edge24" class="edge"><title>10&#45;&gt;12</title>
<path style="fill:none;stroke:black;" d="M994,484C1025,486 1062,488 1089,489"/>
<polygon style="fill:black;stroke:black;" points="1089,485 1099,489 1089,492 1089,485"/>
</g>
<g id="node28" class="node"><title>14</title>
<polygon style="fill:#399de5;stroke:black;" points="1156,544 1102,544 1102,616 1156,616 1156,544"/>
<text text-anchor="middle" x="1129" y="561">0.4527</text>
<text text-anchor="middle" x="1129" y="577">14</text>
<text text-anchor="middle" x="1129" y="593">[9, 17]</text>
<text text-anchor="middle" x="1129" y="609">SD</text>
</g>
<g id="edge28" class="edge"><title>13&#45;&gt;14</title>
<path style="fill:none;stroke:black;" d="M1015,585C1042,583 1070,582 1091,581"/>
<polygon style="fill:black;stroke:black;" points="1091,577 1101,581 1091,584 1091,577"/>
</g>
<g id="node30" class="node"><title>15</title>
<polygon style="fill:#e58139;stroke:black;" points="1159,634 1099,634 1099,706 1159,706 1159,634"/>
<text text-anchor="middle" x="1129" y="651">0.4875</text>
<text text-anchor="middle" x="1129" y="667">24</text>
<text text-anchor="middle" x="1129" y="683">[22, 16]</text>
<text text-anchor="middle" x="1129" y="699">NS</text>
</g>
<g id="edge30" class="edge"><title>13&#45;&gt;15</title>
<path style="fill:none;stroke:black;" d="M1015,623C1041,633 1068,645 1089,653"/>
<polygon style="fill:black;stroke:black;" points="1091,650 1099,657 1088,657 1091,650"/>
</g>
<g id="node34" class="node"><title>17</title>
<polygon style="fill:#e58139;stroke:black;" points="779,851 507,851 507,939 779,939 779,851"/>
<text text-anchor="middle" x="643" y="868">BLS_FEDERAL_JobOpenings_Level &lt;= 0.5</text>
<text text-anchor="middle" x="643" y="884">0.2116</text>
<text text-anchor="middle" x="643" y="900">2389</text>
<text text-anchor="middle" x="643" y="916">[3336, 456]</text>
<text text-anchor="middle" x="643" y="932">NS</text>
</g>
<g id="edge34" class="edge"><title>16&#45;&gt;17</title>
<path style="fill:none;stroke:black;" d="M471,895C480,895 488,895 497,895"/>
<polygon style="fill:black;stroke:black;" points="497,891 507,895 497,898 497,891"/>
</g>
<g id="node48" class="node"><title>24</title>
<polygon style="fill:#e58139;stroke:black;" points="709,1076 577,1076 577,1164 709,1164 709,1076"/>
<text text-anchor="middle" x="643" y="1093">GSEGRD &lt;= 0.9375</text>
<text text-anchor="middle" x="643" y="1109">0.4769</text>
<text text-anchor="middle" x="643" y="1125">94</text>
<text text-anchor="middle" x="643" y="1141">[82, 53]</text>
<text text-anchor="middle" x="643" y="1157">NS</text>
</g>
<g id="edge48" class="edge"><title>16&#45;&gt;24</title>
<path style="fill:none;stroke:black;" d="M405,939C454,977 525,1031 577,1070"/>
<polygon style="fill:black;stroke:black;" points="579,1067 585,1076 575,1073 579,1067"/>
</g>
<g id="node36" class="node"><title>18</title>
<polygon style="fill:#e58139;stroke:black;" points="1048,798 816,798 816,886 1048,886 1048,798"/>
<text text-anchor="middle" x="932" y="815">SEPCount_EFDATE_OCCLog &lt;= 0.5</text>
<text text-anchor="middle" x="932" y="831">0.2317</text>
<text text-anchor="middle" x="932" y="847">1771</text>
<text text-anchor="middle" x="932" y="863">[2436, 376]</text>
<text text-anchor="middle" x="932" y="879">NS</text>
</g>
<g id="edge36" class="edge"><title>17&#45;&gt;18</title>
<path style="fill:none;stroke:black;" d="M779,870C788,869 796,867 805,865"/>
<polygon style="fill:black;stroke:black;" points="805,862 815,863 806,868 805,862"/>
</g>
<g id="node42" class="node"><title>21</title>
<polygon style="fill:#e58139;stroke:black;" points="1040,904 824,904 824,992 1040,992 1040,904"/>
<text text-anchor="middle" x="932" y="921">SalaryOverUnderIndAvg &lt;= 0.8333</text>
<text text-anchor="middle" x="932" y="937">0.1499</text>
<text text-anchor="middle" x="932" y="953">618</text>
<text text-anchor="middle" x="932" y="969">[900, 80]</text>
<text text-anchor="middle" x="932" y="985">NS</text>
</g>
<g id="edge42" class="edge"><title>17&#45;&gt;21</title>
<path style="fill:none;stroke:black;" d="M779,920C791,922 802,925 814,926"/>
<polygon style="fill:black;stroke:black;" points="815,923 824,928 814,929 815,923"/>
</g>
<g id="node38" class="node"><title>19</title>
<polygon style="fill:#e58139;stroke:black;" points="1169,724 1089,724 1089,796 1169,796 1169,724"/>
<text text-anchor="middle" x="1129" y="741">0.2302</text>
<text text-anchor="middle" x="1129" y="757">1743</text>
<text text-anchor="middle" x="1129" y="773">[2399, 367]</text>
<text text-anchor="middle" x="1129" y="789">NS</text>
</g>
<g id="edge38" class="edge"><title>18&#45;&gt;19</title>
<path style="fill:none;stroke:black;" d="M1038,798C1052,792 1066,786 1079,781"/>
<polygon style="fill:black;stroke:black;" points="1077,778 1088,777 1080,784 1077,778"/>
</g>
<g id="node40" class="node"><title>20</title>
<polygon style="fill:#e58139;stroke:black;" points="1156,814 1102,814 1102,886 1156,886 1156,814"/>
<text text-anchor="middle" x="1129" y="831">0.3147</text>
<text text-anchor="middle" x="1129" y="847">28</text>
<text text-anchor="middle" x="1129" y="863">[37, 9]</text>
<text text-anchor="middle" x="1129" y="879">NS</text>
</g>
<g id="edge40" class="edge"><title>18&#45;&gt;20</title>
<path style="fill:none;stroke:black;" d="M1049,847C1065,847 1079,848 1092,848"/>
<polygon style="fill:black;stroke:black;" points="1092,845 1102,849 1092,851 1092,845"/>
</g>
<g id="node44" class="node"><title>22</title>
<polygon style="fill:#e58139;stroke:black;" points="1162,904 1096,904 1096,976 1162,976 1162,904"/>
<text text-anchor="middle" x="1129" y="921">0.1594</text>
<text text-anchor="middle" x="1129" y="937">514</text>
<text text-anchor="middle" x="1129" y="953">[742, 71]</text>
<text text-anchor="middle" x="1129" y="969">NS</text>
</g>
<g id="edge44" class="edge"><title>21&#45;&gt;22</title>
<path style="fill:none;stroke:black;" d="M1040,944C1056,943 1072,942 1086,942"/>
<polygon style="fill:black;stroke:black;" points="1086,938 1096,942 1086,945 1086,938"/>
</g>
<g id="node46" class="node"><title>23</title>
<polygon style="fill:#e58139;stroke:black;" points="1159,994 1099,994 1099,1066 1159,1066 1159,994"/>
<text text-anchor="middle" x="1129" y="1011">0.102</text>
<text text-anchor="middle" x="1129" y="1027">104</text>
<text text-anchor="middle" x="1129" y="1043">[158, 9]</text>
<text text-anchor="middle" x="1129" y="1059">NS</text>
</g>
<g id="edge46" class="edge"><title>21&#45;&gt;23</title>
<path style="fill:none;stroke:black;" d="M1038,992C1056,999 1074,1007 1089,1013"/>
<polygon style="fill:black;stroke:black;" points="1091,1010 1099,1017 1088,1017 1091,1010"/>
</g>
<g id="node50" class="node"><title>25</title>
<polygon style="fill:#e58139;stroke:black;" points="1039,1076 825,1076 825,1164 1039,1164 1039,1076"/>
<text text-anchor="middle" x="932" y="1093">SalaryOverUnderIndAvg &lt;= 0.1667</text>
<text text-anchor="middle" x="932" y="1109">0.4652</text>
<text text-anchor="middle" x="932" y="1125">85</text>
<text text-anchor="middle" x="932" y="1141">[79, 46]</text>
<text text-anchor="middle" x="932" y="1157">NS</text>
</g>
<g id="edge50" class="edge"><title>24&#45;&gt;25</title>
<path style="fill:none;stroke:black;" d="M710,1120C741,1120 779,1120 815,1120"/>
<polygon style="fill:black;stroke:black;" points="815,1116 825,1120 815,1123 815,1116"/>
</g>
<g id="node56" class="node"><title>28</title>
<polygon style="fill:#399de5;stroke:black;" points="959,1182 905,1182 905,1254 959,1254 959,1182"/>
<text text-anchor="middle" x="932" y="1199">0.42</text>
<text text-anchor="middle" x="932" y="1215">9</text>
<text text-anchor="middle" x="932" y="1231">[3, 7]</text>
<text text-anchor="middle" x="932" y="1247">SD</text>
</g>
<g id="edge56" class="edge"><title>24&#45;&gt;28</title>
<path style="fill:none;stroke:black;" d="M710,1143C768,1163 848,1190 895,1206"/>
<polygon style="fill:black;stroke:black;" points="896,1203 905,1209 894,1209 896,1203"/>
</g>
<g id="node52" class="node"><title>26</title>
<polygon style="fill:#e58139;stroke:black;" points="1156,1084 1102,1084 1102,1156 1156,1156 1156,1084"/>
<text text-anchor="middle" x="1129" y="1101">0.375</text>
<text text-anchor="middle" x="1129" y="1117">16</text>
<text text-anchor="middle" x="1129" y="1133">[18, 6]</text>
<text text-anchor="middle" x="1129" y="1149">NS</text>
</g>
<g id="edge52" class="edge"><title>25&#45;&gt;26</title>
<path style="fill:none;stroke:black;" d="M1039,1120C1058,1120 1076,1120 1092,1120"/>
<polygon style="fill:black;stroke:black;" points="1092,1116 1102,1120 1092,1123 1092,1116"/>
</g>
<g id="node54" class="node"><title>27</title>
<polygon style="fill:#e58139;stroke:black;" points="1158,1174 1100,1174 1100,1246 1158,1246 1158,1174"/>
<text text-anchor="middle" x="1129" y="1191">0.4784</text>
<text text-anchor="middle" x="1129" y="1207">69</text>
<text text-anchor="middle" x="1129" y="1223">[61, 40]</text>
<text text-anchor="middle" x="1129" y="1239">NS</text>
</g>
<g id="edge54" class="edge"><title>25&#45;&gt;27</title>
<path style="fill:none;stroke:black;" d="M1029,1164C1036,1167 1043,1170 1049,1173 1063,1179 1077,1186 1090,1192"/>
<polygon style="fill:black;stroke:black;" points="1091,1189 1099,1196 1088,1195 1091,1189"/>
</g>
</g>
</svg>
