<?xml version="1.0" encoding="UTF-8" standalone="no"?>
<!DOCTYPE svg PUBLIC "-//W3C//DTD SVG 1.0//EN"
 "http://www.w3.org/TR/2001/REC-SVG-20010904/DTD/svg10.dtd">
<!-- Generated by dot version 2.2 (Tue Jan 25 21:58:56 UTC 2005)
     For user: (amfrye) Alex Frye   Title: Tree    Pages: 1 -->
<svg width="1158pt" height="1262pt"
 viewBox = "-1 -1 1157 1261"
 xmlns="http://www.w3.org/2000/svg">
<g id="graph0" class="graph" style="font-family:Times-Roman;font-size:14.00;">
<title>Tree</title>
<g id="node1" class="node"><title>0</title>
<polygon style="fill:#e58139;stroke:black;" points="229,671 5,671 5,759 229,759 229,671"/>
<text text-anchor="middle" x="117" y="688">BLS_FEDERAL_Quits_Rate &lt;= 0.5</text>
<text text-anchor="middle" x="117" y="704">0.4999</text>
<text text-anchor="middle" x="117" y="720">7475</text>
<text text-anchor="middle" x="117" y="736">[6032, 5905]</text>
<text text-anchor="middle" x="117" y="752">NS</text>
</g>
<g id="node2" class="node"><title>1</title>
<polygon style="fill:#e58139;stroke:black;" points="537,491 265,491 265,579 537,579 537,491"/>
<text text-anchor="middle" x="401" y="508">BLS_FEDERAL_JobOpenings_Level &lt;= 0.5</text>
<text text-anchor="middle" x="401" y="524">0.4975</text>
<text text-anchor="middle" x="401" y="540">6689</text>
<text text-anchor="middle" x="401" y="556">[5739, 4983]</text>
<text text-anchor="middle" x="401" y="572">NS</text>
</g>
<g id="edge2" class="edge"><title>0&#45;&gt;1</title>
<path style="fill:none;stroke:black;" d="M186,671C228,645 281,612 323,585"/>
<polygon style="fill:black;stroke:black;" points="322,582 332,579 326,587 322,582"/>
<text text-anchor="middle" x="307" y="579">True</text>
</g>
<g id="node32" class="node"><title>16</title>
<polygon style="fill:#399de5;stroke:black;" points="465,851 337,851 337,939 465,939 465,851"/>
<text text-anchor="middle" x="401" y="868">AGELVL_E &lt;= 0.5</text>
<text text-anchor="middle" x="401" y="884">0.366</text>
<text text-anchor="middle" x="401" y="900">786</text>
<text text-anchor="middle" x="401" y="916">[293, 922]</text>
<text text-anchor="middle" x="401" y="932">SD</text>
</g>
<g id="edge32" class="edge"><title>0&#45;&gt;16</title>
<path style="fill:none;stroke:black;" d="M186,759C229,786 285,821 328,849"/>
<polygon style="fill:black;stroke:black;" points="330,846 337,854 327,852 330,846"/>
<text text-anchor="middle" x="313" y="866">False</text>
</g>
<g id="node4" class="node"><title>2</title>
<polygon style="fill:#e58139;stroke:black;" points="767,229 613,229 613,317 767,317 767,229"/>
<text text-anchor="middle" x="690" y="246">IndAvgSalary &lt;= 0.7778</text>
<text text-anchor="middle" x="690" y="262">0.4999</text>
<text text-anchor="middle" x="690" y="278">5779</text>
<text text-anchor="middle" x="690" y="294">[4675, 4556]</text>
<text text-anchor="middle" x="690" y="310">NS</text>
</g>
<g id="edge4" class="edge"><title>1&#45;&gt;2</title>
<path style="fill:none;stroke:black;" d="M450,491C501,445 580,373 633,324"/>
<polygon style="fill:black;stroke:black;" points="631,321 641,317 636,326 631,321"/>
</g>
<g id="node18" class="node"><title>9</title>
<polygon style="fill:#e58139;stroke:black;" points="754,491 626,491 626,579 754,579 754,491"/>
<text text-anchor="middle" x="690" y="508">AGELVL_C &lt;= 0.5</text>
<text text-anchor="middle" x="690" y="524">0.4087</text>
<text text-anchor="middle" x="690" y="540">910</text>
<text text-anchor="middle" x="690" y="556">[1064, 427]</text>
<text text-anchor="middle" x="690" y="572">NS</text>
</g>
<g id="edge18" class="edge"><title>1&#45;&gt;9</title>
<path style="fill:none;stroke:black;" d="M537,535C564,535 592,535 616,535"/>
<polygon style="fill:black;stroke:black;" points="616,531 626,535 616,538 616,531"/>
</g>
<g id="node6" class="node"><title>3</title>
<polygon style="fill:#399de5;stroke:black;" points="1002,86 868,86 868,174 1002,174 1002,86"/>
<text text-anchor="middle" x="935" y="103">IndAvgSalary &lt;= 0.5</text>
<text text-anchor="middle" x="935" y="119">0.4744</text>
<text text-anchor="middle" x="935" y="135">4373</text>
<text text-anchor="middle" x="935" y="151">[2698, 4278]</text>
<text text-anchor="middle" x="935" y="167">SD</text>
</g>
<g id="edge6" class="edge"><title>2&#45;&gt;3</title>
<path style="fill:none;stroke:black;" d="M766,229C795,212 829,192 859,174"/>
<polygon style="fill:black;stroke:black;" points="858,171 868,169 861,177 858,171"/>
</g>
<g id="node12" class="node"><title>6</title>
<polygon style="fill:#e58139;stroke:black;" points="988,229 882,229 882,317 988,317 988,229"/>
<text text-anchor="middle" x="935" y="246">LOSSqrt &lt;= 0.5</text>
<text text-anchor="middle" x="935" y="262">0.2162</text>
<text text-anchor="middle" x="935" y="278">1406</text>
<text text-anchor="middle" x="935" y="294">[1977, 278]</text>
<text text-anchor="middle" x="935" y="310">NS</text>
</g>
<g id="edge12" class="edge"><title>2&#45;&gt;6</title>
<path style="fill:none;stroke:black;" d="M767,273C800,273 839,273 871,273"/>
<polygon style="fill:black;stroke:black;" points="871,269 881,273 871,276 871,269"/>
</g>
<g id="node8" class="node"><title>4</title>
<polygon style="fill:#399de5;stroke:black;" points="1151,4 1063,4 1063,76 1151,76 1151,4"/>
<text text-anchor="middle" x="1107" y="21">0.4454</text>
<text text-anchor="middle" x="1107" y="37">2919</text>
<text text-anchor="middle" x="1107" y="53">[1546, 3072]</text>
<text text-anchor="middle" x="1107" y="69">SD</text>
</g>
<g id="edge8" class="edge"><title>3&#45;&gt;4</title>
<path style="fill:none;stroke:black;" d="M1002,95C1020,86 1037,76 1054,68"/>
<polygon style="fill:black;stroke:black;" points="1053,65 1063,63 1056,71 1053,65"/>
</g>
<g id="node10" class="node"><title>5</title>
<polygon style="fill:#399de5;stroke:black;" points="1150,94 1064,94 1064,166 1150,166 1150,94"/>
<text text-anchor="middle" x="1107" y="111">0.4997</text>
<text text-anchor="middle" x="1107" y="127">1454</text>
<text text-anchor="middle" x="1107" y="143">[1152, 1206]</text>
<text text-anchor="middle" x="1107" y="159">SD</text>
</g>
<g id="edge10" class="edge"><title>3&#45;&gt;5</title>
<path style="fill:none;stroke:black;" d="M1002,130C1019,130 1037,130 1054,130"/>
<polygon style="fill:black;stroke:black;" points="1054,126 1064,130 1054,133 1054,126"/>
</g>
<g id="node14" class="node"><title>7</title>
<polygon style="fill:#e58139;stroke:black;" points="1147,184 1067,184 1067,256 1147,256 1147,184"/>
<text text-anchor="middle" x="1107" y="201">0.2111</text>
<text text-anchor="middle" x="1107" y="217">1388</text>
<text text-anchor="middle" x="1107" y="233">[1952, 266]</text>
<text text-anchor="middle" x="1107" y="249">NS</text>
</g>
<g id="edge14" class="edge"><title>6&#45;&gt;7</title>
<path style="fill:none;stroke:black;" d="M989,256C1011,250 1035,242 1056,235"/>
<polygon style="fill:black;stroke:black;" points="1055,232 1066,232 1057,238 1055,232"/>
</g>
<g id="node16" class="node"><title>8</title>
<polygon style="fill:#e58139;stroke:black;" points="1137,274 1077,274 1077,346 1137,346 1137,274"/>
<text text-anchor="middle" x="1107" y="291">0.4383</text>
<text text-anchor="middle" x="1107" y="307">18</text>
<text text-anchor="middle" x="1107" y="323">[25, 12]</text>
<text text-anchor="middle" x="1107" y="339">NS</text>
</g>
<g id="edge16" class="edge"><title>6&#45;&gt;8</title>
<path style="fill:none;stroke:black;" d="M989,285C1014,290 1043,296 1067,301"/>
<polygon style="fill:black;stroke:black;" points="1068,298 1077,303 1067,304 1068,298"/>
</g>
<g id="node20" class="node"><title>10</title>
<polygon style="fill:#e58139;stroke:black;" points="1002,438 868,438 868,526 1002,526 1002,438"/>
<text text-anchor="middle" x="935" y="455">GSEGRD &lt;= 0.5625</text>
<text text-anchor="middle" x="935" y="471">0.3973</text>
<text text-anchor="middle" x="935" y="487">852</text>
<text text-anchor="middle" x="935" y="503">[1015, 382]</text>
<text text-anchor="middle" x="935" y="519">NS</text>
</g>
<g id="edge20" class="edge"><title>9&#45;&gt;10</title>
<path style="fill:none;stroke:black;" d="M754,521C786,514 824,506 858,498"/>
<polygon style="fill:black;stroke:black;" points="858,495 868,496 859,501 858,495"/>
</g>
<g id="node26" class="node"><title>13</title>
<polygon style="fill:#e58139;stroke:black;" points="1018,544 852,544 852,632 1018,632 1018,544"/>
<text text-anchor="middle" x="935" y="561">LowerLimitAge &lt;= 0.2361</text>
<text text-anchor="middle" x="935" y="577">0.4991</text>
<text text-anchor="middle" x="935" y="593">58</text>
<text text-anchor="middle" x="935" y="609">[49, 45]</text>
<text text-anchor="middle" x="935" y="625">NS</text>
</g>
<g id="edge26" class="edge"><title>9&#45;&gt;13</title>
<path style="fill:none;stroke:black;" d="M754,549C781,555 813,562 842,568"/>
<polygon style="fill:black;stroke:black;" points="843,565 852,570 842,571 843,565"/>
</g>
<g id="node22" class="node"><title>11</title>
<polygon style="fill:#399de5;stroke:black;" points="1143,364 1071,364 1071,436 1143,436 1143,364"/>
<text text-anchor="middle" x="1107" y="381">0.4965</text>
<text text-anchor="middle" x="1107" y="397">188</text>
<text text-anchor="middle" x="1107" y="413">[137, 162]</text>
<text text-anchor="middle" x="1107" y="429">SD</text>
</g>
<g id="edge22" class="edge"><title>10&#45;&gt;11</title>
<path style="fill:none;stroke:black;" d="M1002,450C1022,441 1044,431 1062,422"/>
<polygon style="fill:black;stroke:black;" points="1061,419 1071,417 1064,425 1061,419"/>
</g>
<g id="node24" class="node"><title>12</title>
<polygon style="fill:#e58139;stroke:black;" points="1144,454 1070,454 1070,526 1144,526 1144,454"/>
<text text-anchor="middle" x="1107" y="471">0.3204</text>
<text text-anchor="middle" x="1107" y="487">664</text>
<text text-anchor="middle" x="1107" y="503">[878, 220]</text>
<text text-anchor="middle" x="1107" y="519">NS</text>
</g>
<g id="edge24" class="edge"><title>10&#45;&gt;12</title>
<path style="fill:none;stroke:black;" d="M1002,485C1021,486 1042,487 1060,488"/>
<polygon style="fill:black;stroke:black;" points="1060,484 1070,488 1060,491 1060,484"/>
</g>
<g id="node28" class="node"><title>14</title>
<polygon style="fill:#399de5;stroke:black;" points="1136,544 1078,544 1078,616 1136,616 1136,544"/>
<text text-anchor="middle" x="1107" y="561">0.4861</text>
<text text-anchor="middle" x="1107" y="577">17</text>
<text text-anchor="middle" x="1107" y="593">[10, 14]</text>
<text text-anchor="middle" x="1107" y="609">SD</text>
</g>
<g id="edge28" class="edge"><title>13&#45;&gt;14</title>
<path style="fill:none;stroke:black;" d="M1018,584C1035,583 1052,582 1067,582"/>
<polygon style="fill:black;stroke:black;" points="1067,579 1077,581 1067,585 1067,579"/>
</g>
<g id="node30" class="node"><title>15</title>
<polygon style="fill:#e58139;stroke:black;" points="1137,634 1077,634 1077,706 1137,706 1137,634"/>
<text text-anchor="middle" x="1107" y="651">0.4935</text>
<text text-anchor="middle" x="1107" y="667">41</text>
<text text-anchor="middle" x="1107" y="683">[39, 31]</text>
<text text-anchor="middle" x="1107" y="699">NS</text>
</g>
<g id="edge30" class="edge"><title>13&#45;&gt;15</title>
<path style="fill:none;stroke:black;" d="M1018,628C1035,636 1053,645 1068,652"/>
<polygon style="fill:black;stroke:black;" points="1069,649 1077,656 1066,655 1069,649"/>
</g>
<g id="node34" class="node"><title>17</title>
<polygon style="fill:#399de5;stroke:black;" points="806,851 574,851 574,939 806,939 806,851"/>
<text text-anchor="middle" x="690" y="868">SEPCount_EFDATE_OCCLog &lt;= 0.5</text>
<text text-anchor="middle" x="690" y="884">0.3696</text>
<text text-anchor="middle" x="690" y="900">755</text>
<text text-anchor="middle" x="690" y="916">[285, 880]</text>
<text text-anchor="middle" x="690" y="932">SD</text>
</g>
<g id="edge34" class="edge"><title>16&#45;&gt;17</title>
<path style="fill:none;stroke:black;" d="M465,895C494,895 529,895 563,895"/>
<polygon style="fill:black;stroke:black;" points="563,891 573,895 563,898 563,891"/>
</g>
<g id="node48" class="node"><title>24</title>
<polygon style="fill:#399de5;stroke:black;" points="787,1076 593,1076 593,1164 787,1164 787,1076"/>
<text text-anchor="middle" x="690" y="1093">SalaryOverUnderIndAvg &lt;= 0.5</text>
<text text-anchor="middle" x="690" y="1109">0.2688</text>
<text text-anchor="middle" x="690" y="1125">31</text>
<text text-anchor="middle" x="690" y="1141">[8, 42]</text>
<text text-anchor="middle" x="690" y="1157">SD</text>
</g>
<g id="edge48" class="edge"><title>16&#45;&gt;24</title>
<path style="fill:none;stroke:black;" d="M458,939C506,977 575,1031 625,1070"/>
<polygon style="fill:black;stroke:black;" points="627,1067 633,1076 623,1073 627,1067"/>
</g>
<g id="node36" class="node"><title>18</title>
<polygon style="fill:#399de5;stroke:black;" points="987,798 883,798 883,886 987,886 987,798"/>
<text text-anchor="middle" x="935" y="815">LOC_01 &lt;= 0.5</text>
<text text-anchor="middle" x="935" y="831">0.3674</text>
<text text-anchor="middle" x="935" y="847">736</text>
<text text-anchor="middle" x="935" y="863">[274, 856]</text>
<text text-anchor="middle" x="935" y="879">SD</text>
</g>
<g id="edge36" class="edge"><title>17&#45;&gt;18</title>
<path style="fill:none;stroke:black;" d="M807,870C829,865 852,860 872,855"/>
<polygon style="fill:black;stroke:black;" points="872,852 882,853 873,858 872,852"/>
</g>
<g id="node42" class="node"><title>21</title>
<polygon style="fill:#399de5;stroke:black;" points="1001,904 869,904 869,992 1001,992 1001,904"/>
<text text-anchor="middle" x="935" y="921">GSEGRD &lt;= 0.4375</text>
<text text-anchor="middle" x="935" y="937">0.431</text>
<text text-anchor="middle" x="935" y="953">19</text>
<text text-anchor="middle" x="935" y="969">[11, 24]</text>
<text text-anchor="middle" x="935" y="985">SD</text>
</g>
<g id="edge42" class="edge"><title>17&#45;&gt;21</title>
<path style="fill:none;stroke:black;" d="M807,920C824,924 842,928 858,932"/>
<polygon style="fill:black;stroke:black;" points="859,929 868,934 858,935 859,929"/>
</g>
<g id="node38" class="node"><title>19</title>
<polygon style="fill:#399de5;stroke:black;" points="1134,724 1080,724 1080,796 1134,796 1134,724"/>
<text text-anchor="middle" x="1107" y="741">0.426</text>
<text text-anchor="middle" x="1107" y="757">9</text>
<text text-anchor="middle" x="1107" y="773">[4, 9]</text>
<text text-anchor="middle" x="1107" y="789">SD</text>
</g>
<g id="edge38" class="edge"><title>18&#45;&gt;19</title>
<path style="fill:none;stroke:black;" d="M988,817C1014,805 1046,789 1071,777"/>
<polygon style="fill:black;stroke:black;" points="1069,774 1080,773 1072,780 1069,774"/>
</g>
<g id="node40" class="node"><title>20</title>
<polygon style="fill:#399de5;stroke:black;" points="1144,814 1070,814 1070,886 1144,886 1144,814"/>
<text text-anchor="middle" x="1107" y="831">0.3666</text>
<text text-anchor="middle" x="1107" y="847">727</text>
<text text-anchor="middle" x="1107" y="863">[270, 847]</text>
<text text-anchor="middle" x="1107" y="879">SD</text>
</g>
<g id="edge40" class="edge"><title>18&#45;&gt;20</title>
<path style="fill:none;stroke:black;" d="M988,844C1010,846 1037,847 1060,848"/>
<polygon style="fill:black;stroke:black;" points="1060,844 1070,848 1060,851 1060,844"/>
</g>
<g id="node44" class="node"><title>22</title>
<polygon style="fill:#399de5;stroke:black;" points="1134,904 1080,904 1080,976 1134,976 1134,904"/>
<text text-anchor="middle" x="1107" y="921">0.0</text>
<text text-anchor="middle" x="1107" y="937">9</text>
<text text-anchor="middle" x="1107" y="953">[0, 12]</text>
<text text-anchor="middle" x="1107" y="969">SD</text>
</g>
<g id="edge44" class="edge"><title>21&#45;&gt;22</title>
<path style="fill:none;stroke:black;" d="M1002,945C1025,944 1050,943 1070,942"/>
<polygon style="fill:black;stroke:black;" points="1070,939 1080,941 1070,945 1070,939"/>
</g>
<g id="node46" class="node"><title>23</title>
<polygon style="fill:#399de5;stroke:black;" points="1136,994 1078,994 1078,1066 1136,1066 1136,994"/>
<text text-anchor="middle" x="1107" y="1011">0.4991</text>
<text text-anchor="middle" x="1107" y="1027">10</text>
<text text-anchor="middle" x="1107" y="1043">[11, 12]</text>
<text text-anchor="middle" x="1107" y="1059">SD</text>
</g>
<g id="edge46" class="edge"><title>21&#45;&gt;23</title>
<path style="fill:none;stroke:black;" d="M1002,980C1024,990 1049,1002 1069,1012"/>
<polygon style="fill:black;stroke:black;" points="1070,1009 1078,1016 1067,1015 1070,1009"/>
</g>
<g id="node50" class="node"><title>25</title>
<polygon style="fill:#399de5;stroke:black;" points="1027,1076 843,1076 843,1164 1027,1164 1027,1076"/>
<text text-anchor="middle" x="935" y="1093">YearsToRetirement &lt;= 0.2577</text>
<text text-anchor="middle" x="935" y="1109">0.2378</text>
<text text-anchor="middle" x="935" y="1125">20</text>
<text text-anchor="middle" x="935" y="1141">[4, 25]</text>
<text text-anchor="middle" x="935" y="1157">SD</text>
</g>
<g id="edge50" class="edge"><title>24&#45;&gt;25</title>
<path style="fill:none;stroke:black;" d="M788,1120C803,1120 818,1120 833,1120"/>
<polygon style="fill:black;stroke:black;" points="833,1116 843,1120 833,1123 833,1116"/>
</g>
<g id="node56" class="node"><title>28</title>
<polygon style="fill:#399de5;stroke:black;" points="962,1182 908,1182 908,1254 962,1254 962,1182"/>
<text text-anchor="middle" x="935" y="1199">0.3084</text>
<text text-anchor="middle" x="935" y="1215">11</text>
<text text-anchor="middle" x="935" y="1231">[4, 17]</text>
<text text-anchor="middle" x="935" y="1247">SD</text>
</g>
<g id="edge56" class="edge"><title>24&#45;&gt;28</title>
<path style="fill:none;stroke:black;" d="M788,1159C827,1174 868,1191 898,1203"/>
<polygon style="fill:black;stroke:black;" points="899,1200 907,1207 896,1206 899,1200"/>
</g>
<g id="node52" class="node"><title>26</title>
<polygon style="fill:#399de5;stroke:black;" points="1134,1084 1080,1084 1080,1156 1134,1156 1134,1084"/>
<text text-anchor="middle" x="1107" y="1101">0.355</text>
<text text-anchor="middle" x="1107" y="1117">9</text>
<text text-anchor="middle" x="1107" y="1133">[3, 10]</text>
<text text-anchor="middle" x="1107" y="1149">SD</text>
</g>
<g id="edge52" class="edge"><title>25&#45;&gt;26</title>
<path style="fill:none;stroke:black;" d="M1027,1120C1042,1120 1057,1120 1070,1120"/>
<polygon style="fill:black;stroke:black;" points="1070,1116 1080,1120 1070,1123 1070,1116"/>
</g>
<g id="node54" class="node"><title>27</title>
<polygon style="fill:#399de5;stroke:black;" points="1134,1174 1080,1174 1080,1246 1134,1246 1134,1174"/>
<text text-anchor="middle" x="1107" y="1191">0.1172</text>
<text text-anchor="middle" x="1107" y="1207">11</text>
<text text-anchor="middle" x="1107" y="1223">[1, 15]</text>
<text text-anchor="middle" x="1107" y="1239">SD</text>
</g>
<g id="edge54" class="edge"><title>25&#45;&gt;27</title>
<path style="fill:none;stroke:black;" d="M1019,1164C1037,1174 1055,1183 1071,1191"/>
<polygon style="fill:black;stroke:black;" points="1073,1188 1080,1196 1070,1194 1073,1188"/>
</g>
</g>
</svg>
