<?xml version="1.0" encoding="UTF-8" standalone="no"?>
<!DOCTYPE svg PUBLIC "-//W3C//DTD SVG 1.0//EN"
 "http://www.w3.org/TR/2001/REC-SVG-20010904/DTD/svg10.dtd">
<!-- Generated by dot version 2.2 (Tue Jan 25 21:58:56 UTC 2005)
     For user: (amfrye) Alex Frye   Title: Tree    Pages: 1 -->
<svg width="1060pt" height="1254pt"
 viewBox = "-1 -1 1059 1253"
 xmlns="http://www.w3.org/2000/svg">
<g id="graph0" class="graph" style="font-family:Times-Roman;font-size:14.00;">
<title>Tree</title>
<g id="node1" class="node"><title>0</title>
<polygon style="fill:#399de5;stroke:black;" points="159,641 5,641 5,729 159,729 159,641"/>
<text text-anchor="middle" x="82" y="658">IndAvgSalary &lt;= 0.7222</text>
<text text-anchor="middle" x="82" y="674">0.5</text>
<text text-anchor="middle" x="82" y="690">7575</text>
<text text-anchor="middle" x="82" y="706">[5950, 5987]</text>
<text text-anchor="middle" x="82" y="722">SD</text>
</g>
<g id="node2" class="node"><title>1</title>
<polygon style="fill:#399de5;stroke:black;" points="380,491 196,491 196,579 380,579 380,491"/>
<text text-anchor="middle" x="288" y="508">YearsToRetirement &lt;= 0.4223</text>
<text text-anchor="middle" x="288" y="524">0.4598</text>
<text text-anchor="middle" x="288" y="540">5220</text>
<text text-anchor="middle" x="288" y="556">[2947, 5278]</text>
<text text-anchor="middle" x="288" y="572">SD</text>
</g>
<g id="edge2" class="edge"><title>0&#45;&gt;1</title>
<path style="fill:none;stroke:black;" d="M143,641C166,624 195,604 220,585"/>
<polygon style="fill:black;stroke:black;" points="218,582 228,579 222,588 218,582"/>
<text text-anchor="middle" x="203" y="580">True</text>
</g>
<g id="node32" class="node"><title>16</title>
<polygon style="fill:#e58139;stroke:black;" points="380,790 196,790 196,878 380,878 380,790"/>
<text text-anchor="middle" x="288" y="807">YearsToRetirement &lt;= 0.3271</text>
<text text-anchor="middle" x="288" y="823">0.309</text>
<text text-anchor="middle" x="288" y="839">2355</text>
<text text-anchor="middle" x="288" y="855">[3003, 709]</text>
<text text-anchor="middle" x="288" y="871">NS</text>
</g>
<g id="edge32" class="edge"><title>0&#45;&gt;16</title>
<path style="fill:none;stroke:black;" d="M143,729C167,746 195,766 219,784"/>
<polygon style="fill:black;stroke:black;" points="221,781 227,790 217,787 221,781"/>
<text text-anchor="middle" x="202" y="799">False</text>
</g>
<g id="node4" class="node"><title>2</title>
<polygon style="fill:#399de5;stroke:black;" points="614,229 450,229 450,317 614,317 614,229"/>
<text text-anchor="middle" x="532" y="246">LowerLimitAge &lt;= 0.8194</text>
<text text-anchor="middle" x="532" y="262">0.4228</text>
<text text-anchor="middle" x="532" y="278">4450</text>
<text text-anchor="middle" x="532" y="294">[2140, 4910]</text>
<text text-anchor="middle" x="532" y="310">SD</text>
</g>
<g id="edge4" class="edge"><title>1&#45;&gt;2</title>
<path style="fill:none;stroke:black;" d="M329,491C372,445 439,373 484,324"/>
<polygon style="fill:black;stroke:black;" points="481,322 491,317 486,327 481,322"/>
</g>
<g id="node18" class="node"><title>9</title>
<polygon style="fill:#e58139;stroke:black;" points="646,491 418,491 418,579 646,579 646,491"/>
<text text-anchor="middle" x="532" y="508">BLS_FEDERAL_Quits_Level &lt;= 0.5</text>
<text text-anchor="middle" x="532" y="524">0.4302</text>
<text text-anchor="middle" x="532" y="540">770</text>
<text text-anchor="middle" x="532" y="556">[807, 368]</text>
<text text-anchor="middle" x="532" y="572">NS</text>
</g>
<g id="edge18" class="edge"><title>1&#45;&gt;9</title>
<path style="fill:none;stroke:black;" d="M381,535C390,535 398,535 407,535"/>
<polygon style="fill:black;stroke:black;" points="407,531 417,535 407,538 407,531"/>
</g>
<g id="node6" class="node"><title>3</title>
<polygon style="fill:#399de5;stroke:black;" points="890,86 724,86 724,174 890,174 890,86"/>
<text text-anchor="middle" x="807" y="103">LowerLimitAge &lt;= 0.4028</text>
<text text-anchor="middle" x="807" y="119">0.4008</text>
<text text-anchor="middle" x="807" y="135">3593</text>
<text text-anchor="middle" x="807" y="151">[1573, 4100]</text>
<text text-anchor="middle" x="807" y="167">SD</text>
</g>
<g id="edge6" class="edge"><title>2&#45;&gt;3</title>
<path style="fill:none;stroke:black;" d="M615,230C646,214 682,195 714,179"/>
<polygon style="fill:black;stroke:black;" points="713,176 723,174 716,182 713,176"/>
</g>
<g id="node12" class="node"><title>6</title>
<polygon style="fill:#399de5;stroke:black;" points="925,229 689,229 689,317 925,317 925,229"/>
<text text-anchor="middle" x="807" y="246">BLS_FEDERAL_Layoffs_Rate &lt;= 0.5</text>
<text text-anchor="middle" x="807" y="262">0.4844</text>
<text text-anchor="middle" x="807" y="278">857</text>
<text text-anchor="middle" x="807" y="294">[567, 810]</text>
<text text-anchor="middle" x="807" y="310">SD</text>
</g>
<g id="edge12" class="edge"><title>2&#45;&gt;6</title>
<path style="fill:none;stroke:black;" d="M615,273C635,273 657,273 679,273"/>
<polygon style="fill:black;stroke:black;" points="679,269 689,273 679,276 679,269"/>
</g>
<g id="node8" class="node"><title>4</title>
<polygon style="fill:#399de5;stroke:black;" points="1053,4 967,4 967,76 1053,76 1053,4"/>
<text text-anchor="middle" x="1010" y="21">0.4621</text>
<text text-anchor="middle" x="1010" y="37">1887</text>
<text text-anchor="middle" x="1010" y="53">[1072, 1887]</text>
<text text-anchor="middle" x="1010" y="69">SD</text>
</g>
<g id="edge8" class="edge"><title>3&#45;&gt;4</title>
<path style="fill:none;stroke:black;" d="M891,93C913,83 937,72 958,63"/>
<polygon style="fill:black;stroke:black;" points="956,60 967,59 959,66 956,60"/>
</g>
<g id="node10" class="node"><title>5</title>
<polygon style="fill:#399de5;stroke:black;" points="1049,94 971,94 971,166 1049,166 1049,94"/>
<text text-anchor="middle" x="1010" y="111">0.301</text>
<text text-anchor="middle" x="1010" y="127">1706</text>
<text text-anchor="middle" x="1010" y="143">[501, 2213]</text>
<text text-anchor="middle" x="1010" y="159">SD</text>
</g>
<g id="edge10" class="edge"><title>3&#45;&gt;5</title>
<path style="fill:none;stroke:black;" d="M891,130C915,130 939,130 960,130"/>
<polygon style="fill:black;stroke:black;" points="960,126 970,130 960,133 960,126"/>
</g>
<g id="node14" class="node"><title>7</title>
<polygon style="fill:#399de5;stroke:black;" points="1046,184 974,184 974,256 1046,256 1046,184"/>
<text text-anchor="middle" x="1010" y="201">0.4855</text>
<text text-anchor="middle" x="1010" y="217">840</text>
<text text-anchor="middle" x="1010" y="233">[561, 791]</text>
<text text-anchor="middle" x="1010" y="249">SD</text>
</g>
<g id="edge14" class="edge"><title>6&#45;&gt;7</title>
<path style="fill:none;stroke:black;" d="M925,242C939,239 952,235 964,232"/>
<polygon style="fill:black;stroke:black;" points="964,229 974,230 965,235 964,229"/>
</g>
<g id="node16" class="node"><title>8</title>
<polygon style="fill:#399de5;stroke:black;" points="1037,274 983,274 983,346 1037,346 1037,274"/>
<text text-anchor="middle" x="1010" y="291">0.3648</text>
<text text-anchor="middle" x="1010" y="307">17</text>
<text text-anchor="middle" x="1010" y="323">[6, 19]</text>
<text text-anchor="middle" x="1010" y="339">SD</text>
</g>
<g id="edge16" class="edge"><title>6&#45;&gt;8</title>
<path style="fill:none;stroke:black;" d="M925,295C942,298 958,301 972,303"/>
<polygon style="fill:black;stroke:black;" points="973,300 982,305 972,306 973,300"/>
</g>
<g id="node20" class="node"><title>10</title>
<polygon style="fill:#e58139;stroke:black;" points="931,438 683,438 683,526 931,526 931,438"/>
<text text-anchor="middle" x="807" y="455">BLS_FEDERAL_TotalSep_Level &lt;= 0.5</text>
<text text-anchor="middle" x="807" y="471">0.4593</text>
<text text-anchor="middle" x="807" y="487">457</text>
<text text-anchor="middle" x="807" y="503">[455, 253]</text>
<text text-anchor="middle" x="807" y="519">NS</text>
</g>
<g id="edge20" class="edge"><title>9&#45;&gt;10</title>
<path style="fill:none;stroke:black;" d="M647,513C656,512 664,510 673,508"/>
<polygon style="fill:black;stroke:black;" points="673,505 683,506 674,511 673,505"/>
</g>
<g id="node26" class="node"><title>13</title>
<polygon style="fill:#e58139;stroke:black;" points="923,544 691,544 691,632 923,632 923,544"/>
<text text-anchor="middle" x="807" y="561">SEPCount_EFDATE_LOCLog &lt;= 0.5</text>
<text text-anchor="middle" x="807" y="577">0.3712</text>
<text text-anchor="middle" x="807" y="593">313</text>
<text text-anchor="middle" x="807" y="609">[352, 115]</text>
<text text-anchor="middle" x="807" y="625">NS</text>
</g>
<g id="edge26" class="edge"><title>9&#45;&gt;13</title>
<path style="fill:none;stroke:black;" d="M647,557C659,559 670,562 681,564"/>
<polygon style="fill:black;stroke:black;" points="682,561 691,566 681,567 682,561"/>
</g>
<g id="node22" class="node"><title>11</title>
<polygon style="fill:#e58139;stroke:black;" points="1047,364 973,364 973,436 1047,436 1047,364"/>
<text text-anchor="middle" x="1010" y="381">0.4486</text>
<text text-anchor="middle" x="1010" y="397">374</text>
<text text-anchor="middle" x="1010" y="413">[383, 197]</text>
<text text-anchor="middle" x="1010" y="429">NS</text>
</g>
<g id="edge22" class="edge"><title>10&#45;&gt;11</title>
<path style="fill:none;stroke:black;" d="M916,438C932,431 949,425 964,419"/>
<polygon style="fill:black;stroke:black;" points="962,416 973,415 965,422 962,416"/>
</g>
<g id="node24" class="node"><title>12</title>
<polygon style="fill:#e58139;stroke:black;" points="1040,454 980,454 980,526 1040,526 1040,454"/>
<text text-anchor="middle" x="1010" y="471">0.4922</text>
<text text-anchor="middle" x="1010" y="487">83</text>
<text text-anchor="middle" x="1010" y="503">[72, 56]</text>
<text text-anchor="middle" x="1010" y="519">NS</text>
</g>
<g id="edge24" class="edge"><title>10&#45;&gt;12</title>
<path style="fill:none;stroke:black;" d="M931,487C945,488 958,489 970,489"/>
<polygon style="fill:black;stroke:black;" points="970,485 980,489 970,492 970,485"/>
</g>
<g id="node28" class="node"><title>14</title>
<polygon style="fill:#e58139;stroke:black;" points="1046,544 974,544 974,616 1046,616 1046,544"/>
<text text-anchor="middle" x="1010" y="561">0.3783</text>
<text text-anchor="middle" x="1010" y="577">304</text>
<text text-anchor="middle" x="1010" y="593">[339, 115]</text>
<text text-anchor="middle" x="1010" y="609">NS</text>
</g>
<g id="edge28" class="edge"><title>13&#45;&gt;14</title>
<path style="fill:none;stroke:black;" d="M923,583C937,583 951,582 963,582"/>
<polygon style="fill:black;stroke:black;" points="963,578 973,582 963,585 963,578"/>
</g>
<g id="node30" class="node"><title>15</title>
<polygon style="fill:#e58139;stroke:black;" points="1037,634 983,634 983,706 1037,706 1037,634"/>
<text text-anchor="middle" x="1010" y="651">0.0</text>
<text text-anchor="middle" x="1010" y="667">9</text>
<text text-anchor="middle" x="1010" y="683">[13, 0]</text>
<text text-anchor="middle" x="1010" y="699">NS</text>
</g>
<g id="edge30" class="edge"><title>13&#45;&gt;15</title>
<path style="fill:none;stroke:black;" d="M916,632C937,640 957,649 974,655"/>
<polygon style="fill:black;stroke:black;" points="975,652 983,659 972,658 975,652"/>
</g>
<g id="node34" class="node"><title>17</title>
<polygon style="fill:#399de5;stroke:black;" points="593,790 471,790 471,878 593,878 593,790"/>
<text text-anchor="middle" x="532" y="807">AGELVL_I &lt;= 0.5</text>
<text text-anchor="middle" x="532" y="823">0.4271</text>
<text text-anchor="middle" x="532" y="839">457</text>
<text text-anchor="middle" x="532" y="855">[221, 494]</text>
<text text-anchor="middle" x="532" y="871">SD</text>
</g>
<g id="edge34" class="edge"><title>16&#45;&gt;17</title>
<path style="fill:none;stroke:black;" d="M380,834C406,834 435,834 460,834"/>
<polygon style="fill:black;stroke:black;" points="460,830 470,834 460,837 460,830"/>
</g>
<g id="node44" class="node"><title>22</title>
<polygon style="fill:#e58139;stroke:black;" points="596,955 468,955 468,1043 596,1043 596,955"/>
<text text-anchor="middle" x="532" y="972">AGELVL_C &lt;= 0.5</text>
<text text-anchor="middle" x="532" y="988">0.1332</text>
<text text-anchor="middle" x="532" y="1004">1898</text>
<text text-anchor="middle" x="532" y="1020">[2782, 215]</text>
<text text-anchor="middle" x="532" y="1036">NS</text>
</g>
<g id="edge44" class="edge"><title>16&#45;&gt;22</title>
<path style="fill:none;stroke:black;" d="M353,878C385,900 425,927 459,950"/>
<polygon style="fill:black;stroke:black;" points="462,948 468,956 458,953 462,948"/>
</g>
<g id="node36" class="node"><title>18</title>
<polygon style="fill:#399de5;stroke:black;" points="871,745 743,745 743,833 871,833 871,745"/>
<text text-anchor="middle" x="807" y="762">AGELVL_C &lt;= 0.5</text>
<text text-anchor="middle" x="807" y="778">0.4145</text>
<text text-anchor="middle" x="807" y="794">375</text>
<text text-anchor="middle" x="807" y="810">[173, 417]</text>
<text text-anchor="middle" x="807" y="826">SD</text>
</g>
<g id="edge36" class="edge"><title>17&#45;&gt;18</title>
<path style="fill:none;stroke:black;" d="M594,824C635,818 689,808 733,802"/>
<polygon style="fill:black;stroke:black;" points="733,799 743,800 734,805 733,799"/>
</g>
<g id="node42" class="node"><title>21</title>
<polygon style="fill:#399de5;stroke:black;" points="837,851 777,851 777,923 837,923 837,851"/>
<text text-anchor="middle" x="807" y="868">0.4731</text>
<text text-anchor="middle" x="807" y="884">82</text>
<text text-anchor="middle" x="807" y="900">[48, 77]</text>
<text text-anchor="middle" x="807" y="916">SD</text>
</g>
<g id="edge42" class="edge"><title>17&#45;&gt;21</title>
<path style="fill:none;stroke:black;" d="M594,846C647,856 720,871 766,879"/>
<polygon style="fill:black;stroke:black;" points="767,876 776,881 766,882 767,876"/>
</g>
<g id="node38" class="node"><title>19</title>
<polygon style="fill:#399de5;stroke:black;" points="1046,724 974,724 974,796 1046,796 1046,724"/>
<text text-anchor="middle" x="1010" y="741">0.4191</text>
<text text-anchor="middle" x="1010" y="757">339</text>
<text text-anchor="middle" x="1010" y="773">[159, 373]</text>
<text text-anchor="middle" x="1010" y="789">SD</text>
</g>
<g id="edge38" class="edge"><title>18&#45;&gt;19</title>
<path style="fill:none;stroke:black;" d="M871,780C901,776 936,770 963,766"/>
<polygon style="fill:black;stroke:black;" points="963,763 973,765 963,769 963,763"/>
</g>
<g id="node40" class="node"><title>20</title>
<polygon style="fill:#399de5;stroke:black;" points="1040,814 980,814 980,886 1040,886 1040,814"/>
<text text-anchor="middle" x="1010" y="831">0.3662</text>
<text text-anchor="middle" x="1010" y="847">36</text>
<text text-anchor="middle" x="1010" y="863">[14, 44]</text>
<text text-anchor="middle" x="1010" y="879">SD</text>
</g>
<g id="edge40" class="edge"><title>18&#45;&gt;20</title>
<path style="fill:none;stroke:black;" d="M871,808C904,818 942,829 970,838"/>
<polygon style="fill:black;stroke:black;" points="971,835 980,841 969,841 971,835"/>
</g>
<g id="node46" class="node"><title>23</title>
<polygon style="fill:#e58139;stroke:black;" points="871,955 743,955 743,1043 871,1043 871,955"/>
<text text-anchor="middle" x="807" y="972">AGELVL_G &lt;= 0.5</text>
<text text-anchor="middle" x="807" y="988">0.1281</text>
<text text-anchor="middle" x="807" y="1004">1782</text>
<text text-anchor="middle" x="807" y="1020">[2626, 194]</text>
<text text-anchor="middle" x="807" y="1036">NS</text>
</g>
<g id="edge46" class="edge"><title>22&#45;&gt;23</title>
<path style="fill:none;stroke:black;" d="M596,999C637,999 689,999 732,999"/>
<polygon style="fill:black;stroke:black;" points="732,995 742,999 732,1002 732,995"/>
</g>
<g id="node52" class="node"><title>26</title>
<polygon style="fill:#e58139;stroke:black;" points="889,1076 725,1076 725,1164 889,1164 889,1076"/>
<text text-anchor="middle" x="807" y="1093">LowerLimitAge &lt;= 0.8194</text>
<text text-anchor="middle" x="807" y="1109">0.2091</text>
<text text-anchor="middle" x="807" y="1125">116</text>
<text text-anchor="middle" x="807" y="1141">[156, 21]</text>
<text text-anchor="middle" x="807" y="1157">NS</text>
</g>
<g id="edge52" class="edge"><title>22&#45;&gt;26</title>
<path style="fill:none;stroke:black;" d="M596,1027C631,1043 676,1063 715,1080"/>
<polygon style="fill:black;stroke:black;" points="716,1077 724,1084 713,1083 716,1077"/>
</g>
<g id="node48" class="node"><title>24</title>
<polygon style="fill:#e58139;stroke:black;" points="1049,904 971,904 971,976 1049,976 1049,904"/>
<text text-anchor="middle" x="1010" y="921">0.1281</text>
<text text-anchor="middle" x="1010" y="937">1680</text>
<text text-anchor="middle" x="1010" y="953">[2477, 183]</text>
<text text-anchor="middle" x="1010" y="969">NS</text>
</g>
<g id="edge48" class="edge"><title>23&#45;&gt;24</title>
<path style="fill:none;stroke:black;" d="M872,980C900,972 933,962 960,955"/>
<polygon style="fill:black;stroke:black;" points="959,952 970,952 961,958 959,952"/>
</g>
<g id="node50" class="node"><title>25</title>
<polygon style="fill:#e58139;stroke:black;" points="1043,994 977,994 977,1066 1043,1066 1043,994"/>
<text text-anchor="middle" x="1010" y="1011">0.128</text>
<text text-anchor="middle" x="1010" y="1027">102</text>
<text text-anchor="middle" x="1010" y="1043">[149, 11]</text>
<text text-anchor="middle" x="1010" y="1059">NS</text>
</g>
<g id="edge50" class="edge"><title>23&#45;&gt;25</title>
<path style="fill:none;stroke:black;" d="M872,1009C903,1013 940,1019 967,1024"/>
<polygon style="fill:black;stroke:black;" points="967,1021 977,1025 967,1027 967,1021"/>
</g>
<g id="node54" class="node"><title>27</title>
<polygon style="fill:#e58139;stroke:black;" points="1042,1084 978,1084 978,1156 1042,1156 1042,1084"/>
<text text-anchor="middle" x="1010" y="1101">0.2565</text>
<text text-anchor="middle" x="1010" y="1117">90</text>
<text text-anchor="middle" x="1010" y="1133">[118, 21]</text>
<text text-anchor="middle" x="1010" y="1149">NS</text>
</g>
<g id="edge54" class="edge"><title>26&#45;&gt;27</title>
<path style="fill:none;stroke:black;" d="M890,1120C917,1120 945,1120 967,1120"/>
<polygon style="fill:black;stroke:black;" points="967,1116 977,1120 967,1123 967,1116"/>
</g>
<g id="node56" class="node"><title>28</title>
<polygon style="fill:#e58139;stroke:black;" points="1037,1174 983,1174 983,1246 1037,1246 1037,1174"/>
<text text-anchor="middle" x="1010" y="1191">0.0</text>
<text text-anchor="middle" x="1010" y="1207">26</text>
<text text-anchor="middle" x="1010" y="1223">[38, 0]</text>
<text text-anchor="middle" x="1010" y="1239">NS</text>
</g>
<g id="edge56" class="edge"><title>26&#45;&gt;28</title>
<path style="fill:none;stroke:black;" d="M890,1157C919,1170 950,1184 974,1194"/>
<polygon style="fill:black;stroke:black;" points="975,1191 983,1198 972,1197 975,1191"/>
</g>
</g>
</svg>
