<?xml version="1.0" encoding="UTF-8" standalone="no"?>
<!DOCTYPE svg PUBLIC "-//W3C//DTD SVG 1.0//EN"
 "http://www.w3.org/TR/2001/REC-SVG-20010904/DTD/svg10.dtd">
<!-- Generated by dot version 2.2 (Tue Jan 25 21:58:56 UTC 2005)
     For user: (amfrye) Alex Frye   Title: Tree    Pages: 1 -->
<svg width="1098pt" height="902pt"
 viewBox = "-1 -1 1097 901"
 xmlns="http://www.w3.org/2000/svg">
<g id="graph0" class="graph" style="font-family:Times-Roman;font-size:14.00;">
<title>Tree</title>
<g id="node1" class="node"><title>0</title>
<polygon style="fill:#399de5;stroke:black;" points="128,604 6,604 6,692 128,692 128,604"/>
<text text-anchor="middle" x="67" y="621">AGELVL_I &lt;= 0.5</text>
<text text-anchor="middle" x="67" y="637">0.5</text>
<text text-anchor="middle" x="67" y="653">7561</text>
<text text-anchor="middle" x="67" y="669">[5909, 6028]</text>
<text text-anchor="middle" x="67" y="685">SD</text>
</g>
<g id="node2" class="node"><title>1</title>
<polygon style="fill:#e58139;stroke:black;" points="432,491 166,491 166,579 432,579 432,491"/>
<text text-anchor="middle" x="299" y="508">BLS_FEDERAL_JobOpenings_Rate &lt;= 0.5</text>
<text text-anchor="middle" x="299" y="524">0.4995</text>
<text text-anchor="middle" x="299" y="540">6649</text>
<text text-anchor="middle" x="299" y="556">[5413, 5068]</text>
<text text-anchor="middle" x="299" y="572">NS</text>
</g>
<g id="edge2" class="edge"><title>0&#45;&gt;1</title>
<path style="fill:none;stroke:black;" d="M129,618C150,607 175,595 200,583"/>
<polygon style="fill:black;stroke:black;" points="198,580 209,579 201,586 198,580"/>
<text text-anchor="middle" x="186" y="575">True</text>
</g>
<g id="node32" class="node"><title>16</title>
<polygon style="fill:#399de5;stroke:black;" points="376,716 222,716 222,804 376,804 376,716"/>
<text text-anchor="middle" x="299" y="733">IndAvgSalary &lt;= 0.8333</text>
<text text-anchor="middle" x="299" y="749">0.4492</text>
<text text-anchor="middle" x="299" y="765">912</text>
<text text-anchor="middle" x="299" y="781">[496, 960]</text>
<text text-anchor="middle" x="299" y="797">SD</text>
</g>
<g id="edge32" class="edge"><title>0&#45;&gt;16</title>
<path style="fill:none;stroke:black;" d="M129,678C154,691 184,705 212,718"/>
<polygon style="fill:black;stroke:black;" points="214,715 221,723 211,721 214,715"/>
<text text-anchor="middle" x="197" y="735">False</text>
</g>
<g id="node4" class="node"><title>2</title>
<polygon style="fill:#e58139;stroke:black;" points="659,229 493,229 493,317 659,317 659,229"/>
<text text-anchor="middle" x="576" y="246">LowerLimitAge &lt;= 0.1389</text>
<text text-anchor="middle" x="576" y="262">0.4981</text>
<text text-anchor="middle" x="576" y="278">5945</text>
<text text-anchor="middle" x="576" y="294">[4981, 4399]</text>
<text text-anchor="middle" x="576" y="310">NS</text>
</g>
<g id="edge4" class="edge"><title>1&#45;&gt;2</title>
<path style="fill:none;stroke:black;" d="M346,491C395,445 470,373 522,324"/>
<polygon style="fill:black;stroke:black;" points="519,322 529,317 524,327 519,322"/>
</g>
<g id="node18" class="node"><title>9</title>
<polygon style="fill:#399de5;stroke:black;" points="683,491 469,491 469,579 683,579 683,491"/>
<text text-anchor="middle" x="576" y="508">SalaryOverUnderIndAvg &lt;= 0.1667</text>
<text text-anchor="middle" x="576" y="524">0.4768</text>
<text text-anchor="middle" x="576" y="540">704</text>
<text text-anchor="middle" x="576" y="556">[432, 669]</text>
<text text-anchor="middle" x="576" y="572">SD</text>
</g>
<g id="edge18" class="edge"><title>1&#45;&gt;9</title>
<path style="fill:none;stroke:black;" d="M433,535C442,535 450,535 459,535"/>
<polygon style="fill:black;stroke:black;" points="459,531 469,535 459,538 459,531"/>
</g>
<g id="node6" class="node"><title>3</title>
<polygon style="fill:#399de5;stroke:black;" points="961,86 725,86 725,174 961,174 961,86"/>
<text text-anchor="middle" x="843" y="103">BLS_FEDERAL_Layoffs_Rate &lt;= 0.5</text>
<text text-anchor="middle" x="843" y="119">0.4769</text>
<text text-anchor="middle" x="843" y="135">884</text>
<text text-anchor="middle" x="843" y="151">[551, 853]</text>
<text text-anchor="middle" x="843" y="167">SD</text>
</g>
<g id="edge6" class="edge"><title>2&#45;&gt;3</title>
<path style="fill:none;stroke:black;" d="M658,229C688,214 721,196 752,179"/>
<polygon style="fill:black;stroke:black;" points="751,176 761,174 754,182 751,176"/>
</g>
<g id="node12" class="node"><title>6</title>
<polygon style="fill:#e58139;stroke:black;" points="910,229 776,229 776,317 910,317 910,229"/>
<text text-anchor="middle" x="843" y="246">GSEGRD &lt;= 0.5625</text>
<text text-anchor="middle" x="843" y="262">0.4939</text>
<text text-anchor="middle" x="843" y="278">5061</text>
<text text-anchor="middle" x="843" y="294">[4430, 3546]</text>
<text text-anchor="middle" x="843" y="310">NS</text>
</g>
<g id="edge12" class="edge"><title>2&#45;&gt;6</title>
<path style="fill:none;stroke:black;" d="M659,273C693,273 732,273 766,273"/>
<polygon style="fill:black;stroke:black;" points="766,269 776,273 766,276 766,269"/>
</g>
<g id="node8" class="node"><title>4</title>
<polygon style="fill:#399de5;stroke:black;" points="1083,4 1011,4 1011,76 1083,76 1083,4"/>
<text text-anchor="middle" x="1047" y="21">0.4808</text>
<text text-anchor="middle" x="1047" y="37">856</text>
<text text-anchor="middle" x="1047" y="53">[545, 811]</text>
<text text-anchor="middle" x="1047" y="69">SD</text>
</g>
<g id="edge8" class="edge"><title>3&#45;&gt;4</title>
<path style="fill:none;stroke:black;" d="M943,86C963,77 983,68 1001,60"/>
<polygon style="fill:black;stroke:black;" points="999,57 1010,56 1002,63 999,57"/>
</g>
<g id="node10" class="node"><title>5</title>
<polygon style="fill:#399de5;stroke:black;" points="1074,94 1020,94 1020,166 1074,166 1074,94"/>
<text text-anchor="middle" x="1047" y="111">0.2188</text>
<text text-anchor="middle" x="1047" y="127">28</text>
<text text-anchor="middle" x="1047" y="143">[6, 42]</text>
<text text-anchor="middle" x="1047" y="159">SD</text>
</g>
<g id="edge10" class="edge"><title>3&#45;&gt;5</title>
<path style="fill:none;stroke:black;" d="M961,130C979,130 995,130 1010,130"/>
<polygon style="fill:black;stroke:black;" points="1010,126 1020,130 1010,133 1010,126"/>
</g>
<g id="node14" class="node"><title>7</title>
<polygon style="fill:#399de5;stroke:black;" points="1087,184 1007,184 1007,256 1087,256 1087,184"/>
<text text-anchor="middle" x="1047" y="201">0.4647</text>
<text text-anchor="middle" x="1047" y="217">1650</text>
<text text-anchor="middle" x="1047" y="233">[950, 1637]</text>
<text text-anchor="middle" x="1047" y="249">SD</text>
</g>
<g id="edge14" class="edge"><title>6&#45;&gt;7</title>
<path style="fill:none;stroke:black;" d="M910,256C938,248 971,240 997,233"/>
<polygon style="fill:black;stroke:black;" points="996,230 1007,230 998,236 996,230"/>
</g>
<g id="node16" class="node"><title>8</title>
<polygon style="fill:#e58139;stroke:black;" points="1091,274 1003,274 1003,346 1091,346 1091,274"/>
<text text-anchor="middle" x="1047" y="291">0.4575</text>
<text text-anchor="middle" x="1047" y="307">3411</text>
<text text-anchor="middle" x="1047" y="323">[3480, 1909]</text>
<text text-anchor="middle" x="1047" y="339">NS</text>
</g>
<g id="edge16" class="edge"><title>6&#45;&gt;8</title>
<path style="fill:none;stroke:black;" d="M910,285C937,290 968,296 993,300"/>
<polygon style="fill:black;stroke:black;" points="994,297 1003,302 993,303 994,297"/>
</g>
<g id="node20" class="node"><title>10</title>
<polygon style="fill:#e58139;stroke:black;" points="910,438 776,438 776,526 910,526 910,438"/>
<text text-anchor="middle" x="843" y="455">GSEGRD &lt;= 0.5625</text>
<text text-anchor="middle" x="843" y="471">0.4997</text>
<text text-anchor="middle" x="843" y="487">142</text>
<text text-anchor="middle" x="843" y="503">[117, 111]</text>
<text text-anchor="middle" x="843" y="519">NS</text>
</g>
<g id="edge20" class="edge"><title>9&#45;&gt;10</title>
<path style="fill:none;stroke:black;" d="M683,514C710,509 740,503 766,497"/>
<polygon style="fill:black;stroke:black;" points="766,494 776,495 767,500 766,494"/>
</g>
<g id="node26" class="node"><title>13</title>
<polygon style="fill:#399de5;stroke:black;" points="907,544 779,544 779,632 907,632 907,544"/>
<text text-anchor="middle" x="843" y="561">AGELVL_D &lt;= 0.5</text>
<text text-anchor="middle" x="843" y="577">0.4613</text>
<text text-anchor="middle" x="843" y="593">562</text>
<text text-anchor="middle" x="843" y="609">[315, 558]</text>
<text text-anchor="middle" x="843" y="625">SD</text>
</g>
<g id="edge26" class="edge"><title>9&#45;&gt;13</title>
<path style="fill:none;stroke:black;" d="M683,556C711,562 742,568 768,573"/>
<polygon style="fill:black;stroke:black;" points="769,570 778,575 768,576 769,570"/>
</g>
<g id="node22" class="node"><title>11</title>
<polygon style="fill:#399de5;stroke:black;" points="1076,364 1018,364 1018,436 1076,436 1076,364"/>
<text text-anchor="middle" x="1047" y="381">0.4587</text>
<text text-anchor="middle" x="1047" y="397">50</text>
<text text-anchor="middle" x="1047" y="413">[31, 56]</text>
<text text-anchor="middle" x="1047" y="429">SD</text>
</g>
<g id="edge22" class="edge"><title>10&#45;&gt;11</title>
<path style="fill:none;stroke:black;" d="M910,455C943,442 980,427 1008,416"/>
<polygon style="fill:black;stroke:black;" points="1006,413 1017,412 1009,419 1006,413"/>
</g>
<g id="node24" class="node"><title>12</title>
<polygon style="fill:#e58139;stroke:black;" points="1077,454 1017,454 1017,526 1077,526 1077,454"/>
<text text-anchor="middle" x="1047" y="471">0.4758</text>
<text text-anchor="middle" x="1047" y="487">92</text>
<text text-anchor="middle" x="1047" y="503">[86, 55]</text>
<text text-anchor="middle" x="1047" y="519">NS</text>
</g>
<g id="edge24" class="edge"><title>10&#45;&gt;12</title>
<path style="fill:none;stroke:black;" d="M910,485C942,486 979,488 1006,489"/>
<polygon style="fill:black;stroke:black;" points="1006,485 1016,489 1006,492 1006,485"/>
</g>
<g id="node28" class="node"><title>14</title>
<polygon style="fill:#399de5;stroke:black;" points="1082,544 1012,544 1012,616 1082,616 1082,544"/>
<text text-anchor="middle" x="1047" y="561">0.4521</text>
<text text-anchor="middle" x="1047" y="577">505</text>
<text text-anchor="middle" x="1047" y="593">[271, 514]</text>
<text text-anchor="middle" x="1047" y="609">SD</text>
</g>
<g id="edge28" class="edge"><title>13&#45;&gt;14</title>
<path style="fill:none;stroke:black;" d="M908,585C938,584 973,582 1001,581"/>
<polygon style="fill:black;stroke:black;" points="1001,577 1011,581 1001,584 1001,577"/>
</g>
<g id="node30" class="node"><title>15</title>
<polygon style="fill:#e58139;stroke:black;" points="1077,634 1017,634 1017,706 1077,706 1077,634"/>
<text text-anchor="middle" x="1047" y="651">0.5</text>
<text text-anchor="middle" x="1047" y="667">57</text>
<text text-anchor="middle" x="1047" y="683">[44, 44]</text>
<text text-anchor="middle" x="1047" y="699">NS</text>
</g>
<g id="edge30" class="edge"><title>13&#45;&gt;15</title>
<path style="fill:none;stroke:black;" d="M908,614C940,627 979,642 1007,654"/>
<polygon style="fill:black;stroke:black;" points="1008,651 1016,658 1005,657 1008,651"/>
</g>
<g id="node34" class="node"><title>17</title>
<polygon style="fill:#399de5;stroke:black;" points="668,716 484,716 484,804 668,804 668,716"/>
<text text-anchor="middle" x="576" y="733">YearsToRetirement &lt;= 0.3877</text>
<text text-anchor="middle" x="576" y="749">0.3723</text>
<text text-anchor="middle" x="576" y="765">767</text>
<text text-anchor="middle" x="576" y="781">[301, 916]</text>
<text text-anchor="middle" x="576" y="797">SD</text>
</g>
<g id="edge34" class="edge"><title>16&#45;&gt;17</title>
<path style="fill:none;stroke:black;" d="M377,760C407,760 441,760 473,760"/>
<polygon style="fill:black;stroke:black;" points="473,756 483,760 473,763 473,756"/>
</g>
<g id="node44" class="node"><title>22</title>
<polygon style="fill:#e58139;stroke:black;" points="609,822 543,822 543,894 609,894 609,822"/>
<text text-anchor="middle" x="576" y="839">0.3004</text>
<text text-anchor="middle" x="576" y="855">145</text>
<text text-anchor="middle" x="576" y="871">[195, 44]</text>
<text text-anchor="middle" x="576" y="887">NS</text>
</g>
<g id="edge44" class="edge"><title>16&#45;&gt;22</title>
<path style="fill:none;stroke:black;" d="M377,787C427,805 491,827 532,843"/>
<polygon style="fill:black;stroke:black;" points="533,840 542,846 531,846 533,840"/>
</g>
<g id="node36" class="node"><title>18</title>
<polygon style="fill:#399de5;stroke:black;" points="967,716 719,716 719,804 967,804 967,716"/>
<text text-anchor="middle" x="843" y="733">BLS_FEDERAL_TotalSep_Level &lt;= 0.5</text>
<text text-anchor="middle" x="843" y="749">0.3193</text>
<text text-anchor="middle" x="843" y="765">667</text>
<text text-anchor="middle" x="843" y="781">[212, 851]</text>
<text text-anchor="middle" x="843" y="797">SD</text>
</g>
<g id="edge36" class="edge"><title>17&#45;&gt;18</title>
<path style="fill:none;stroke:black;" d="M669,760C682,760 695,760 709,760"/>
<polygon style="fill:black;stroke:black;" points="709,756 719,760 709,763 709,756"/>
</g>
<g id="node42" class="node"><title>21</title>
<polygon style="fill:#e58139;stroke:black;" points="873,822 813,822 813,894 873,894 873,822"/>
<text text-anchor="middle" x="843" y="839">0.4879</text>
<text text-anchor="middle" x="843" y="855">100</text>
<text text-anchor="middle" x="843" y="871">[89, 65]</text>
<text text-anchor="middle" x="843" y="887">NS</text>
</g>
<g id="edge42" class="edge"><title>17&#45;&gt;21</title>
<path style="fill:none;stroke:black;" d="M669,794C685,801 703,807 719,813 747,823 779,835 802,843"/>
<polygon style="fill:black;stroke:black;" points="804,840 812,847 801,847 804,840"/>
</g>
<g id="node38" class="node"><title>19</title>
<polygon style="fill:#399de5;stroke:black;" points="1083,724 1011,724 1011,796 1083,796 1083,724"/>
<text text-anchor="middle" x="1047" y="741">0.323</text>
<text text-anchor="middle" x="1047" y="757">548</text>
<text text-anchor="middle" x="1047" y="773">[175, 689]</text>
<text text-anchor="middle" x="1047" y="789">SD</text>
</g>
<g id="edge38" class="edge"><title>18&#45;&gt;19</title>
<path style="fill:none;stroke:black;" d="M967,760C979,760 990,760 1000,760"/>
<polygon style="fill:black;stroke:black;" points="1000,756 1010,760 1000,763 1000,756"/>
</g>
<g id="node40" class="node"><title>20</title>
<polygon style="fill:#399de5;stroke:black;" points="1079,814 1015,814 1015,886 1079,886 1079,814"/>
<text text-anchor="middle" x="1047" y="831">0.3027</text>
<text text-anchor="middle" x="1047" y="847">119</text>
<text text-anchor="middle" x="1047" y="863">[37, 162]</text>
<text text-anchor="middle" x="1047" y="879">SD</text>
</g>
<g id="edge40" class="edge"><title>18&#45;&gt;20</title>
<path style="fill:none;stroke:black;" d="M947,804C954,807 960,810 967,813 980,819 993,825 1005,830"/>
<polygon style="fill:black;stroke:black;" points="1007,827 1014,835 1004,833 1007,827"/>
</g>
</g>
</svg>
