<?xml version="1.0" encoding="UTF-8" standalone="no"?>
<!DOCTYPE svg PUBLIC "-//W3C//DTD SVG 1.0//EN"
 "http://www.w3.org/TR/2001/REC-SVG-20010904/DTD/svg10.dtd">
<!-- Generated by dot version 2.2 (Tue Jan 25 21:58:56 UTC 2005)
     For user: (amfrye) Alex Frye   Title: Tree    Pages: 1 -->
<svg width="1100pt" height="1172pt"
 viewBox = "-1 -1 1099 1171"
 xmlns="http://www.w3.org/2000/svg">
<g id="graph0" class="graph" style="font-family:Times-Roman;font-size:14.00;">
<title>Tree</title>
<g id="node1" class="node"><title>0</title>
<polygon style="fill:#e58139;stroke:black;" points="139,694 5,694 5,782 139,782 139,694"/>
<text text-anchor="middle" x="72" y="711">GSEGRD &lt;= 0.5625</text>
<text text-anchor="middle" x="72" y="727">0.5</text>
<text text-anchor="middle" x="72" y="743">7565</text>
<text text-anchor="middle" x="72" y="759">[5994, 5943]</text>
<text text-anchor="middle" x="72" y="775">NS</text>
</g>
<g id="node2" class="node"><title>1</title>
<polygon style="fill:#399de5;stroke:black;" points="411,491 175,491 175,579 411,579 411,491"/>
<text text-anchor="middle" x="293" y="508">BLS_FEDERAL_Layoffs_Rate &lt;= 0.5</text>
<text text-anchor="middle" x="293" y="524">0.4499</text>
<text text-anchor="middle" x="293" y="540">2634</text>
<text text-anchor="middle" x="293" y="556">[1454, 2800]</text>
<text text-anchor="middle" x="293" y="572">SD</text>
</g>
<g id="edge2" class="edge"><title>0&#45;&gt;1</title>
<path style="fill:none;stroke:black;" d="M120,694C155,662 201,619 237,586"/>
<polygon style="fill:black;stroke:black;" points="235,583 245,579 240,588 235,583"/>
<text text-anchor="middle" x="220" y="582">True</text>
</g>
<g id="node32" class="node"><title>16</title>
<polygon style="fill:#e58139;stroke:black;" points="405,839 181,839 181,927 405,927 405,839"/>
<text text-anchor="middle" x="293" y="856">BLS_FEDERAL_Quits_Rate &lt;= 0.5</text>
<text text-anchor="middle" x="293" y="872">0.4835</text>
<text text-anchor="middle" x="293" y="888">4931</text>
<text text-anchor="middle" x="293" y="904">[4540, 3143]</text>
<text text-anchor="middle" x="293" y="920">NS</text>
</g>
<g id="edge32" class="edge"><title>0&#45;&gt;16</title>
<path style="fill:none;stroke:black;" d="M139,782C163,798 192,817 217,833"/>
<polygon style="fill:black;stroke:black;" points="220,831 226,839 216,836 220,831"/>
<text text-anchor="middle" x="201" y="849">False</text>
</g>
<g id="node4" class="node"><title>2</title>
<polygon style="fill:#399de5;stroke:black;" points="618,229 490,229 490,317 618,317 618,229"/>
<text text-anchor="middle" x="554" y="246">AGELVL_G &lt;= 0.5</text>
<text text-anchor="middle" x="554" y="262">0.4524</text>
<text text-anchor="middle" x="554" y="278">2532</text>
<text text-anchor="middle" x="554" y="294">[1417, 2681]</text>
<text text-anchor="middle" x="554" y="310">SD</text>
</g>
<g id="edge4" class="edge"><title>1&#45;&gt;2</title>
<path style="fill:none;stroke:black;" d="M337,491C383,445 455,373 503,324"/>
<polygon style="fill:black;stroke:black;" points="500,322 510,317 505,327 500,322"/>
</g>
<g id="node18" class="node"><title>9</title>
<polygon style="fill:#399de5;stroke:black;" points="651,491 457,491 457,579 651,579 651,491"/>
<text text-anchor="middle" x="554" y="508">SalaryOverUnderIndAvg &lt;= 0.5</text>
<text text-anchor="middle" x="554" y="524">0.3619</text>
<text text-anchor="middle" x="554" y="540">102</text>
<text text-anchor="middle" x="554" y="556">[37, 119]</text>
<text text-anchor="middle" x="554" y="572">SD</text>
</g>
<g id="edge18" class="edge"><title>1&#45;&gt;9</title>
<path style="fill:none;stroke:black;" d="M411,535C423,535 434,535 446,535"/>
<polygon style="fill:black;stroke:black;" points="446,531 456,535 446,538 446,531"/>
</g>
<g id="node6" class="node"><title>3</title>
<polygon style="fill:#399de5;stroke:black;" points="945,86 721,86 721,174 945,174 945,86"/>
<text text-anchor="middle" x="833" y="103">BLS_FEDERAL_Quits_Rate &lt;= 0.5</text>
<text text-anchor="middle" x="833" y="119">0.4555</text>
<text text-anchor="middle" x="833" y="135">2493</text>
<text text-anchor="middle" x="833" y="151">[1415, 2618]</text>
<text text-anchor="middle" x="833" y="167">SD</text>
</g>
<g id="edge6" class="edge"><title>2&#45;&gt;3</title>
<path style="fill:none;stroke:black;" d="M619,240C654,221 699,199 738,179"/>
<polygon style="fill:black;stroke:black;" points="737,176 747,174 740,182 737,176"/>
</g>
<g id="node12" class="node"><title>6</title>
<polygon style="fill:#399de5;stroke:black;" points="945,229 721,229 721,317 945,317 945,229"/>
<text text-anchor="middle" x="833" y="246">BLS_FEDERAL_Quits_Rate &lt;= 0.5</text>
<text text-anchor="middle" x="833" y="262">0.0596</text>
<text text-anchor="middle" x="833" y="278">39</text>
<text text-anchor="middle" x="833" y="294">[2, 63]</text>
<text text-anchor="middle" x="833" y="310">SD</text>
</g>
<g id="edge12" class="edge"><title>2&#45;&gt;6</title>
<path style="fill:none;stroke:black;" d="M619,273C646,273 679,273 711,273"/>
<polygon style="fill:black;stroke:black;" points="711,269 721,273 711,276 711,269"/>
</g>
<g id="node8" class="node"><title>4</title>
<polygon style="fill:#399de5;stroke:black;" points="1093,4 1005,4 1005,76 1093,76 1093,4"/>
<text text-anchor="middle" x="1049" y="21">0.4738</text>
<text text-anchor="middle" x="1049" y="37">2081</text>
<text text-anchor="middle" x="1049" y="53">[1298, 2068]</text>
<text text-anchor="middle" x="1049" y="69">SD</text>
</g>
<g id="edge8" class="edge"><title>3&#45;&gt;4</title>
<path style="fill:none;stroke:black;" d="M939,86C958,78 979,70 996,63"/>
<polygon style="fill:black;stroke:black;" points="994,60 1005,59 997,66 994,60"/>
</g>
<g id="node10" class="node"><title>5</title>
<polygon style="fill:#399de5;stroke:black;" points="1084,94 1014,94 1014,166 1084,166 1084,94"/>
<text text-anchor="middle" x="1049" y="111">0.2893</text>
<text text-anchor="middle" x="1049" y="127">412</text>
<text text-anchor="middle" x="1049" y="143">[117, 550]</text>
<text text-anchor="middle" x="1049" y="159">SD</text>
</g>
<g id="edge10" class="edge"><title>3&#45;&gt;5</title>
<path style="fill:none;stroke:black;" d="M945,130C966,130 986,130 1003,130"/>
<polygon style="fill:black;stroke:black;" points="1003,126 1013,130 1003,133 1003,126"/>
</g>
<g id="node14" class="node"><title>7</title>
<polygon style="fill:#399de5;stroke:black;" points="1076,184 1022,184 1022,256 1076,256 1076,184"/>
<text text-anchor="middle" x="1049" y="201">0.04</text>
<text text-anchor="middle" x="1049" y="217">30</text>
<text text-anchor="middle" x="1049" y="233">[1, 48]</text>
<text text-anchor="middle" x="1049" y="249">SD</text>
</g>
<g id="edge14" class="edge"><title>6&#45;&gt;7</title>
<path style="fill:none;stroke:black;" d="M945,245C969,239 993,234 1012,229"/>
<polygon style="fill:black;stroke:black;" points="1012,226 1022,227 1013,232 1012,226"/>
</g>
<g id="node16" class="node"><title>8</title>
<polygon style="fill:#399de5;stroke:black;" points="1076,274 1022,274 1022,346 1076,346 1076,274"/>
<text text-anchor="middle" x="1049" y="291">0.1172</text>
<text text-anchor="middle" x="1049" y="307">9</text>
<text text-anchor="middle" x="1049" y="323">[1, 15]</text>
<text text-anchor="middle" x="1049" y="339">SD</text>
</g>
<g id="edge16" class="edge"><title>6&#45;&gt;8</title>
<path style="fill:none;stroke:black;" d="M945,292C969,296 993,300 1012,303"/>
<polygon style="fill:black;stroke:black;" points="1013,300 1022,305 1012,306 1013,300"/>
</g>
<g id="node20" class="node"><title>10</title>
<polygon style="fill:#399de5;stroke:black;" points="969,438 697,438 697,526 969,526 969,438"/>
<text text-anchor="middle" x="833" y="455">BLS_FEDERAL_JobOpenings_Level &lt;= 0.5</text>
<text text-anchor="middle" x="833" y="471">0.3354</text>
<text text-anchor="middle" x="833" y="487">78</text>
<text text-anchor="middle" x="833" y="503">[26, 96]</text>
<text text-anchor="middle" x="833" y="519">SD</text>
</g>
<g id="edge20" class="edge"><title>9&#45;&gt;10</title>
<path style="fill:none;stroke:black;" d="M652,516C664,514 675,511 687,510"/>
<polygon style="fill:black;stroke:black;" points="687,507 697,508 688,513 687,507"/>
</g>
<g id="node26" class="node"><title>13</title>
<polygon style="fill:#399de5;stroke:black;" points="915,544 751,544 751,632 915,632 915,544"/>
<text text-anchor="middle" x="833" y="561">LowerLimitAge &lt;= 0.3611</text>
<text text-anchor="middle" x="833" y="577">0.4377</text>
<text text-anchor="middle" x="833" y="593">24</text>
<text text-anchor="middle" x="833" y="609">[11, 23]</text>
<text text-anchor="middle" x="833" y="625">SD</text>
</g>
<g id="edge26" class="edge"><title>9&#45;&gt;13</title>
<path style="fill:none;stroke:black;" d="M652,554C681,559 712,566 740,570"/>
<polygon style="fill:black;stroke:black;" points="741,567 750,572 740,573 741,567"/>
</g>
<g id="node22" class="node"><title>11</title>
<polygon style="fill:#399de5;stroke:black;" points="1078,364 1020,364 1020,436 1078,436 1078,364"/>
<text text-anchor="middle" x="1049" y="381">0.3111</text>
<text text-anchor="middle" x="1049" y="397">69</text>
<text text-anchor="middle" x="1049" y="413">[21, 88]</text>
<text text-anchor="middle" x="1049" y="429">SD</text>
</g>
<g id="edge22" class="edge"><title>10&#45;&gt;11</title>
<path style="fill:none;stroke:black;" d="M949,438C971,430 992,422 1010,415"/>
<polygon style="fill:black;stroke:black;" points="1008,412 1019,411 1011,418 1008,412"/>
</g>
<g id="node24" class="node"><title>12</title>
<polygon style="fill:#399de5;stroke:black;" points="1076,454 1022,454 1022,526 1076,526 1076,454"/>
<text text-anchor="middle" x="1049" y="471">0.4734</text>
<text text-anchor="middle" x="1049" y="487">9</text>
<text text-anchor="middle" x="1049" y="503">[5, 8]</text>
<text text-anchor="middle" x="1049" y="519">SD</text>
</g>
<g id="edge24" class="edge"><title>10&#45;&gt;12</title>
<path style="fill:none;stroke:black;" d="M969,487C984,488 999,489 1012,489"/>
<polygon style="fill:black;stroke:black;" points="1012,485 1022,489 1012,492 1012,485"/>
</g>
<g id="node28" class="node"><title>14</title>
<polygon style="fill:#399de5;stroke:black;" points="1076,544 1022,544 1022,616 1076,616 1076,544"/>
<text text-anchor="middle" x="1049" y="561">0.48</text>
<text text-anchor="middle" x="1049" y="577">9</text>
<text text-anchor="middle" x="1049" y="593">[4, 6]</text>
<text text-anchor="middle" x="1049" y="609">SD</text>
</g>
<g id="edge28" class="edge"><title>13&#45;&gt;14</title>
<path style="fill:none;stroke:black;" d="M916,585C950,584 985,582 1012,581"/>
<polygon style="fill:black;stroke:black;" points="1012,577 1022,581 1012,584 1012,577"/>
</g>
<g id="node30" class="node"><title>15</title>
<polygon style="fill:#399de5;stroke:black;" points="1076,634 1022,634 1022,706 1076,706 1076,634"/>
<text text-anchor="middle" x="1049" y="651">0.4132</text>
<text text-anchor="middle" x="1049" y="667">15</text>
<text text-anchor="middle" x="1049" y="683">[7, 17]</text>
<text text-anchor="middle" x="1049" y="699">SD</text>
</g>
<g id="edge30" class="edge"><title>13&#45;&gt;15</title>
<path style="fill:none;stroke:black;" d="M916,619C950,632 986,646 1012,656"/>
<polygon style="fill:black;stroke:black;" points="1014,653 1022,660 1011,660 1014,653"/>
</g>
<g id="node34" class="node"><title>17</title>
<polygon style="fill:#e58139;stroke:black;" points="620,839 488,839 488,927 620,927 620,839"/>
<text text-anchor="middle" x="554" y="856">GSEGRD &lt;= 0.6875</text>
<text text-anchor="middle" x="554" y="872">0.4746</text>
<text text-anchor="middle" x="554" y="888">4595</text>
<text text-anchor="middle" x="554" y="904">[4384, 2770]</text>
<text text-anchor="middle" x="554" y="920">NS</text>
</g>
<g id="edge34" class="edge"><title>16&#45;&gt;17</title>
<path style="fill:none;stroke:black;" d="M405,883C429,883 454,883 477,883"/>
<polygon style="fill:black;stroke:black;" points="477,879 487,883 477,886 477,879"/>
</g>
<g id="node48" class="node"><title>24</title>
<polygon style="fill:#399de5;stroke:black;" points="661,994 447,994 447,1082 661,1082 661,994"/>
<text text-anchor="middle" x="554" y="1011">SalaryOverUnderIndAvg &lt;= 0.1667</text>
<text text-anchor="middle" x="554" y="1027">0.4159</text>
<text text-anchor="middle" x="554" y="1043">336</text>
<text text-anchor="middle" x="554" y="1059">[156, 373]</text>
<text text-anchor="middle" x="554" y="1075">SD</text>
</g>
<g id="edge48" class="edge"><title>16&#45;&gt;24</title>
<path style="fill:none;stroke:black;" d="M367,927C399,946 437,969 471,989"/>
<polygon style="fill:black;stroke:black;" points="473,986 480,994 470,992 473,986"/>
</g>
<g id="node36" class="node"><title>18</title>
<polygon style="fill:#e58139;stroke:black;" points="885,790 781,790 781,878 885,878 885,790"/>
<text text-anchor="middle" x="833" y="807">LOC_01 &lt;= 0.5</text>
<text text-anchor="middle" x="833" y="823">0.4924</text>
<text text-anchor="middle" x="833" y="839">1710</text>
<text text-anchor="middle" x="833" y="855">[1501, 1171]</text>
<text text-anchor="middle" x="833" y="871">NS</text>
</g>
<g id="edge36" class="edge"><title>17&#45;&gt;18</title>
<path style="fill:none;stroke:black;" d="M621,871C666,864 726,853 770,845"/>
<polygon style="fill:black;stroke:black;" points="770,842 780,843 771,848 770,842"/>
</g>
<g id="node42" class="node"><title>21</title>
<polygon style="fill:#e58139;stroke:black;" points="957,896 709,896 709,984 957,984 957,896"/>
<text text-anchor="middle" x="833" y="913">BLS_FEDERAL_TotalSep_Level &lt;= 0.5</text>
<text text-anchor="middle" x="833" y="929">0.459</text>
<text text-anchor="middle" x="833" y="945">2885</text>
<text text-anchor="middle" x="833" y="961">[2883, 1599]</text>
<text text-anchor="middle" x="833" y="977">NS</text>
</g>
<g id="edge42" class="edge"><title>17&#45;&gt;21</title>
<path style="fill:none;stroke:black;" d="M621,897C644,901 672,907 699,913"/>
<polygon style="fill:black;stroke:black;" points="700,910 709,915 699,916 700,910"/>
</g>
<g id="node38" class="node"><title>19</title>
<polygon style="fill:#399de5;stroke:black;" points="1079,724 1019,724 1019,796 1079,796 1079,724"/>
<text text-anchor="middle" x="1049" y="741">0.4331</text>
<text text-anchor="middle" x="1049" y="757">24</text>
<text text-anchor="middle" x="1049" y="773">[13, 28]</text>
<text text-anchor="middle" x="1049" y="789">SD</text>
</g>
<g id="edge38" class="edge"><title>18&#45;&gt;19</title>
<path style="fill:none;stroke:black;" d="M886,816C923,803 974,785 1010,773"/>
<polygon style="fill:black;stroke:black;" points="1008,770 1019,770 1011,776 1008,770"/>
</g>
<g id="node40" class="node"><title>20</title>
<polygon style="fill:#e58139;stroke:black;" points="1092,814 1006,814 1006,886 1092,886 1092,814"/>
<text text-anchor="middle" x="1049" y="831">0.4914</text>
<text text-anchor="middle" x="1049" y="847">1686</text>
<text text-anchor="middle" x="1049" y="863">[1488, 1143]</text>
<text text-anchor="middle" x="1049" y="879">NS</text>
</g>
<g id="edge40" class="edge"><title>18&#45;&gt;20</title>
<path style="fill:none;stroke:black;" d="M886,838C919,841 962,843 996,846"/>
<polygon style="fill:black;stroke:black;" points="996,843 1006,847 996,849 996,843"/>
</g>
<g id="node44" class="node"><title>22</title>
<polygon style="fill:#e58139;stroke:black;" points="1093,904 1005,904 1005,976 1093,976 1093,904"/>
<text text-anchor="middle" x="1049" y="921">0.4384</text>
<text text-anchor="middle" x="1049" y="937">2532</text>
<text text-anchor="middle" x="1049" y="953">[2665, 1280]</text>
<text text-anchor="middle" x="1049" y="969">NS</text>
</g>
<g id="edge44" class="edge"><title>21&#45;&gt;22</title>
<path style="fill:none;stroke:black;" d="M957,940C970,940 983,940 995,940"/>
<polygon style="fill:black;stroke:black;" points="995,936 1005,940 995,943 995,936"/>
</g>
<g id="node46" class="node"><title>23</title>
<polygon style="fill:#399de5;stroke:black;" points="1084,994 1014,994 1014,1066 1084,1066 1084,994"/>
<text text-anchor="middle" x="1049" y="1011">0.4823</text>
<text text-anchor="middle" x="1049" y="1027">353</text>
<text text-anchor="middle" x="1049" y="1043">[218, 319]</text>
<text text-anchor="middle" x="1049" y="1059">SD</text>
</g>
<g id="edge46" class="edge"><title>21&#45;&gt;23</title>
<path style="fill:none;stroke:black;" d="M948,984C955,987 962,990 969,993 981,998 993,1003 1004,1009"/>
<polygon style="fill:black;stroke:black;" points="1005,1006 1013,1013 1002,1012 1005,1006"/>
</g>
<g id="node50" class="node"><title>25</title>
<polygon style="fill:#399de5;stroke:black;" points="863,1002 803,1002 803,1074 863,1074 863,1002"/>
<text text-anchor="middle" x="833" y="1019">0.4847</text>
<text text-anchor="middle" x="833" y="1035">47</text>
<text text-anchor="middle" x="833" y="1051">[33, 47]</text>
<text text-anchor="middle" x="833" y="1067">SD</text>
</g>
<g id="edge50" class="edge"><title>24&#45;&gt;25</title>
<path style="fill:none;stroke:black;" d="M661,1038C707,1038 758,1038 793,1038"/>
<polygon style="fill:black;stroke:black;" points="793,1034 803,1038 793,1041 793,1034"/>
</g>
<g id="node52" class="node"><title>26</title>
<polygon style="fill:#399de5;stroke:black;" points="870,1092 796,1092 796,1164 870,1164 870,1092"/>
<text text-anchor="middle" x="833" y="1109">0.3978</text>
<text text-anchor="middle" x="833" y="1125">289</text>
<text text-anchor="middle" x="833" y="1141">[123, 326]</text>
<text text-anchor="middle" x="833" y="1157">SD</text>
</g>
<g id="edge52" class="edge"><title>24&#45;&gt;26</title>
<path style="fill:none;stroke:black;" d="M661,1073C705,1087 752,1102 786,1113"/>
<polygon style="fill:black;stroke:black;" points="787,1110 796,1116 785,1116 787,1110"/>
</g>
</g>
</svg>
