<?xml version="1.0" encoding="UTF-8" standalone="no"?>
<!DOCTYPE svg PUBLIC "-//W3C//DTD SVG 1.0//EN"
 "http://www.w3.org/TR/2001/REC-SVG-20010904/DTD/svg10.dtd">
<!-- Generated by dot version 2.2 (Tue Jan 25 21:58:56 UTC 2005)
     For user: (amfrye) Alex Frye   Title: Tree    Pages: 1 -->
<svg width="1242pt" height="934pt"
 viewBox = "-1 -1 1241 933"
 xmlns="http://www.w3.org/2000/svg">
<g id="graph0" class="graph" style="font-family:Times-Roman;font-size:14.00;">
<title>Tree</title>
<g id="node1" class="node"><title>0</title>
<polygon style="fill:#e58139;stroke:black;" points="190,504 6,504 6,592 190,592 190,504"/>
<text text-anchor="middle" x="98" y="521">YearsToRetirement &lt;= 0.3967</text>
<text text-anchor="middle" x="98" y="537">0.5</text>
<text text-anchor="middle" x="98" y="553">7541</text>
<text text-anchor="middle" x="98" y="569">[5980, 5957]</text>
<text text-anchor="middle" x="98" y="585">NS</text>
</g>
<g id="node2" class="node"><title>1</title>
<polygon style="fill:#399de5;stroke:black;" points="483,430 243,430 243,518 483,518 483,430"/>
<text text-anchor="middle" x="363" y="447">BLS_FEDERAL_Layoffs_Level &lt;= 0.5</text>
<text text-anchor="middle" x="363" y="463">0.4281</text>
<text text-anchor="middle" x="363" y="479">4814</text>
<text text-anchor="middle" x="363" y="495">[2367, 5260]</text>
<text text-anchor="middle" x="363" y="511">SD</text>
</g>
<g id="edge2" class="edge"><title>0&#45;&gt;1</title>
<path style="fill:none;stroke:black;" d="M191,522C204,518 218,515 232,511"/>
<polygon style="fill:black;stroke:black;" points="231,508 242,508 233,514 231,508"/>
<text text-anchor="middle" x="220" y="501">True</text>
</g>
<g id="node28" class="node"><title>14</title>
<polygon style="fill:#e58139;stroke:black;" points="499,577 227,577 227,665 499,665 499,577"/>
<text text-anchor="middle" x="363" y="594">BLS_FEDERAL_JobOpenings_Level &lt;= 0.5</text>
<text text-anchor="middle" x="363" y="610">0.2711</text>
<text text-anchor="middle" x="363" y="626">2727</text>
<text text-anchor="middle" x="363" y="642">[3613, 697]</text>
<text text-anchor="middle" x="363" y="658">NS</text>
</g>
<g id="edge28" class="edge"><title>0&#45;&gt;14</title>
<path style="fill:none;stroke:black;" d="M191,574C200,576 208,579 217,581"/>
<polygon style="fill:black;stroke:black;" points="218,578 227,584 216,584 218,578"/>
<text text-anchor="middle" x="205" y="601">False</text>
</g>
<g id="node4" class="node"><title>2</title>
<polygon style="fill:#399de5;stroke:black;" points="738,221 604,221 604,309 738,309 738,221"/>
<text text-anchor="middle" x="671" y="238">GSEGRD &lt;= 0.5625</text>
<text text-anchor="middle" x="671" y="254">0.4339</text>
<text text-anchor="middle" x="671" y="270">4439</text>
<text text-anchor="middle" x="671" y="286">[2241, 4803]</text>
<text text-anchor="middle" x="671" y="302">SD</text>
</g>
<g id="edge4" class="edge"><title>1&#45;&gt;2</title>
<path style="fill:none;stroke:black;" d="M428,430C477,397 546,350 598,315"/>
<polygon style="fill:black;stroke:black;" points="596,312 606,309 600,318 596,312"/>
</g>
<g id="node18" class="node"><title>9</title>
<polygon style="fill:#399de5;stroke:black;" points="807,430 535,430 535,518 807,518 807,430"/>
<text text-anchor="middle" x="671" y="447">BLS_FEDERAL_JobOpenings_Level &lt;= 0.5</text>
<text text-anchor="middle" x="671" y="463">0.3388</text>
<text text-anchor="middle" x="671" y="479">375</text>
<text text-anchor="middle" x="671" y="495">[126, 457]</text>
<text text-anchor="middle" x="671" y="511">SD</text>
</g>
<g id="edge18" class="edge"><title>1&#45;&gt;9</title>
<path style="fill:none;stroke:black;" d="M484,474C498,474 511,474 525,474"/>
<polygon style="fill:black;stroke:black;" points="525,470 535,474 525,477 525,470"/>
</g>
<g id="node6" class="node"><title>3</title>
<polygon style="fill:#399de5;stroke:black;" points="1069,86 885,86 885,174 1069,174 1069,86"/>
<text text-anchor="middle" x="977" y="103">YearsToRetirement &lt;= 0.2259</text>
<text text-anchor="middle" x="977" y="119">0.3676</text>
<text text-anchor="middle" x="977" y="135">1933</text>
<text text-anchor="middle" x="977" y="151">[743, 2318]</text>
<text text-anchor="middle" x="977" y="167">SD</text>
</g>
<g id="edge6" class="edge"><title>2&#45;&gt;3</title>
<path style="fill:none;stroke:black;" d="M738,235C778,217 830,195 875,175"/>
<polygon style="fill:black;stroke:black;" points="873,172 884,171 876,178 873,172"/>
</g>
<g id="node12" class="node"><title>6</title>
<polygon style="fill:#399de5;stroke:black;" points="1110,221 844,221 844,309 1110,309 1110,221"/>
<text text-anchor="middle" x="977" y="238">BLS_FEDERAL_JobOpenings_Rate &lt;= 0.5</text>
<text text-anchor="middle" x="977" y="254">0.4693</text>
<text text-anchor="middle" x="977" y="270">2506</text>
<text text-anchor="middle" x="977" y="286">[1498, 2485]</text>
<text text-anchor="middle" x="977" y="302">SD</text>
</g>
<g id="edge12" class="edge"><title>2&#45;&gt;6</title>
<path style="fill:none;stroke:black;" d="M738,265C766,265 800,265 833,265"/>
<polygon style="fill:black;stroke:black;" points="833,261 843,265 833,268 833,261"/>
</g>
<g id="node8" class="node"><title>4</title>
<polygon style="fill:#399de5;stroke:black;" points="1230,4 1152,4 1152,76 1230,76 1230,4"/>
<text text-anchor="middle" x="1191" y="21">0.257</text>
<text text-anchor="middle" x="1191" y="37">1083</text>
<text text-anchor="middle" x="1191" y="53">[253, 1418]</text>
<text text-anchor="middle" x="1191" y="69">SD</text>
</g>
<g id="edge8" class="edge"><title>3&#45;&gt;4</title>
<path style="fill:none;stroke:black;" d="M1070,91C1094,81 1120,69 1141,61"/>
<polygon style="fill:black;stroke:black;" points="1140,57 1151,57 1143,64 1140,57"/>
</g>
<g id="node10" class="node"><title>5</title>
<polygon style="fill:#399de5;stroke:black;" points="1228,94 1154,94 1154,166 1228,166 1228,94"/>
<text text-anchor="middle" x="1191" y="111">0.4565</text>
<text text-anchor="middle" x="1191" y="127">850</text>
<text text-anchor="middle" x="1191" y="143">[490, 900]</text>
<text text-anchor="middle" x="1191" y="159">SD</text>
</g>
<g id="edge10" class="edge"><title>3&#45;&gt;5</title>
<path style="fill:none;stroke:black;" d="M1070,130C1095,130 1121,130 1143,130"/>
<polygon style="fill:black;stroke:black;" points="1143,126 1153,130 1143,133 1143,126"/>
</g>
<g id="node14" class="node"><title>7</title>
<polygon style="fill:#399de5;stroke:black;" points="1234,184 1148,184 1148,256 1234,256 1234,184"/>
<text text-anchor="middle" x="1191" y="201">0.4735</text>
<text text-anchor="middle" x="1191" y="217">2186</text>
<text text-anchor="middle" x="1191" y="233">[1338, 2139]</text>
<text text-anchor="middle" x="1191" y="249">SD</text>
</g>
<g id="edge14" class="edge"><title>6&#45;&gt;7</title>
<path style="fill:none;stroke:black;" d="M1111,237C1120,235 1129,233 1137,231"/>
<polygon style="fill:black;stroke:black;" points="1137,228 1147,229 1138,234 1137,228"/>
</g>
<g id="node16" class="node"><title>8</title>
<polygon style="fill:#399de5;stroke:black;" points="1228,274 1154,274 1154,346 1228,346 1228,274"/>
<text text-anchor="middle" x="1191" y="291">0.4324</text>
<text text-anchor="middle" x="1191" y="307">320</text>
<text text-anchor="middle" x="1191" y="323">[160, 346]</text>
<text text-anchor="middle" x="1191" y="339">SD</text>
</g>
<g id="edge16" class="edge"><title>6&#45;&gt;8</title>
<path style="fill:none;stroke:black;" d="M1111,293C1122,295 1134,298 1144,300"/>
<polygon style="fill:black;stroke:black;" points="1145,297 1154,302 1144,303 1145,297"/>
</g>
<g id="node20" class="node"><title>10</title>
<polygon style="fill:#399de5;stroke:black;" points="1044,356 910,356 910,444 1044,444 1044,356"/>
<text text-anchor="middle" x="977" y="373">GSEGRD &lt;= 0.0625</text>
<text text-anchor="middle" x="977" y="389">0.3342</text>
<text text-anchor="middle" x="977" y="405">355</text>
<text text-anchor="middle" x="977" y="421">[116, 431]</text>
<text text-anchor="middle" x="977" y="437">SD</text>
</g>
<g id="edge20" class="edge"><title>9&#45;&gt;10</title>
<path style="fill:none;stroke:black;" d="M807,441C839,433 872,425 900,418"/>
<polygon style="fill:black;stroke:black;" points="900,415 910,416 901,421 900,415"/>
</g>
<g id="node26" class="node"><title>13</title>
<polygon style="fill:#399de5;stroke:black;" points="1007,462 947,462 947,534 1007,534 1007,462"/>
<text text-anchor="middle" x="977" y="479">0.4012</text>
<text text-anchor="middle" x="977" y="495">20</text>
<text text-anchor="middle" x="977" y="511">[10, 26]</text>
<text text-anchor="middle" x="977" y="527">SD</text>
</g>
<g id="edge26" class="edge"><title>9&#45;&gt;13</title>
<path style="fill:none;stroke:black;" d="M807,485C854,489 903,492 937,495"/>
<polygon style="fill:black;stroke:black;" points="937,492 947,496 937,498 937,492"/>
</g>
<g id="node22" class="node"><title>11</title>
<polygon style="fill:#399de5;stroke:black;" points="1218,364 1164,364 1164,436 1218,436 1218,364"/>
<text text-anchor="middle" x="1191" y="381">0.0997</text>
<text text-anchor="middle" x="1191" y="397">12</text>
<text text-anchor="middle" x="1191" y="413">[1, 18]</text>
<text text-anchor="middle" x="1191" y="429">SD</text>
</g>
<g id="edge22" class="edge"><title>10&#45;&gt;11</title>
<path style="fill:none;stroke:black;" d="M1044,400C1080,400 1123,400 1153,400"/>
<polygon style="fill:black;stroke:black;" points="1153,396 1163,400 1153,403 1153,396"/>
</g>
<g id="node24" class="node"><title>12</title>
<polygon style="fill:#399de5;stroke:black;" points="1227,454 1155,454 1155,526 1227,526 1227,454"/>
<text text-anchor="middle" x="1191" y="471">0.3407</text>
<text text-anchor="middle" x="1191" y="487">343</text>
<text text-anchor="middle" x="1191" y="503">[115, 413]</text>
<text text-anchor="middle" x="1191" y="519">SD</text>
</g>
<g id="edge24" class="edge"><title>10&#45;&gt;12</title>
<path style="fill:none;stroke:black;" d="M1044,426C1066,434 1090,444 1111,453 1123,458 1134,464 1146,469"/>
<polygon style="fill:black;stroke:black;" points="1147,466 1155,473 1144,472 1147,466"/>
</g>
<g id="node30" class="node"><title>15</title>
<polygon style="fill:#e58139;stroke:black;" points="734,577 608,577 608,665 734,665 734,577"/>
<text text-anchor="middle" x="671" y="594">AGELVL_F &lt;= 0.5</text>
<text text-anchor="middle" x="671" y="610">0.3025</text>
<text text-anchor="middle" x="671" y="626">2039</text>
<text text-anchor="middle" x="671" y="642">[2621, 598]</text>
<text text-anchor="middle" x="671" y="658">NS</text>
</g>
<g id="edge30" class="edge"><title>14&#45;&gt;15</title>
<path style="fill:none;stroke:black;" d="M499,621C533,621 568,621 597,621"/>
<polygon style="fill:black;stroke:black;" points="597,617 607,621 597,624 597,617"/>
</g>
<g id="node40" class="node"><title>20</title>
<polygon style="fill:#e58139;stroke:black;" points="738,748 604,748 604,836 738,836 738,748"/>
<text text-anchor="middle" x="671" y="765">SALARYLog &lt;= 0.5</text>
<text text-anchor="middle" x="671" y="781">0.165</text>
<text text-anchor="middle" x="671" y="797">688</text>
<text text-anchor="middle" x="671" y="813">[992, 99]</text>
<text text-anchor="middle" x="671" y="829">NS</text>
</g>
<g id="edge40" class="edge"><title>14&#45;&gt;20</title>
<path style="fill:none;stroke:black;" d="M442,665C489,691 548,724 595,750"/>
<polygon style="fill:black;stroke:black;" points="597,747 604,755 594,753 597,747"/>
</g>
<g id="node32" class="node"><title>16</title>
<polygon style="fill:#e58139;stroke:black;" points="1069,552 885,552 885,640 1069,640 1069,552"/>
<text text-anchor="middle" x="977" y="569">YearsToRetirement &lt;= 0.5503</text>
<text text-anchor="middle" x="977" y="585">0.2982</text>
<text text-anchor="middle" x="977" y="601">2029</text>
<text text-anchor="middle" x="977" y="617">[2619, 584]</text>
<text text-anchor="middle" x="977" y="633">NS</text>
</g>
<g id="edge32" class="edge"><title>15&#45;&gt;16</title>
<path style="fill:none;stroke:black;" d="M735,616C775,612 828,608 874,604"/>
<polygon style="fill:black;stroke:black;" points="874,601 884,603 874,607 874,601"/>
</g>
<g id="node38" class="node"><title>19</title>
<polygon style="fill:#399de5;stroke:black;" points="1004,658 950,658 950,730 1004,730 1004,658"/>
<text text-anchor="middle" x="977" y="675">0.2188</text>
<text text-anchor="middle" x="977" y="691">10</text>
<text text-anchor="middle" x="977" y="707">[2, 14]</text>
<text text-anchor="middle" x="977" y="723">SD</text>
</g>
<g id="edge38" class="edge"><title>15&#45;&gt;19</title>
<path style="fill:none;stroke:black;" d="M735,636C797,651 889,673 940,686"/>
<polygon style="fill:black;stroke:black;" points="941,683 950,688 940,689 941,683"/>
</g>
<g id="node34" class="node"><title>17</title>
<polygon style="fill:#e58139;stroke:black;" points="1228,552 1154,552 1154,624 1228,624 1228,552"/>
<text text-anchor="middle" x="1191" y="569">0.4458</text>
<text text-anchor="middle" x="1191" y="585">925</text>
<text text-anchor="middle" x="1191" y="601">[975, 492]</text>
<text text-anchor="middle" x="1191" y="617">NS</text>
</g>
<g id="edge34" class="edge"><title>16&#45;&gt;17</title>
<path style="fill:none;stroke:black;" d="M1070,593C1095,591 1122,590 1144,589"/>
<polygon style="fill:black;stroke:black;" points="1144,585 1154,589 1144,592 1144,585"/>
</g>
<g id="node36" class="node"><title>18</title>
<polygon style="fill:#e58139;stroke:black;" points="1228,642 1154,642 1154,714 1228,714 1228,642"/>
<text text-anchor="middle" x="1191" y="659">0.1004</text>
<text text-anchor="middle" x="1191" y="675">1104</text>
<text text-anchor="middle" x="1191" y="691">[1644, 92]</text>
<text text-anchor="middle" x="1191" y="707">NS</text>
</g>
<g id="edge36" class="edge"><title>16&#45;&gt;18</title>
<path style="fill:none;stroke:black;" d="M1070,631C1095,641 1122,652 1144,660"/>
<polygon style="fill:black;stroke:black;" points="1146,657 1154,664 1143,664 1146,657"/>
</g>
<g id="node42" class="node"><title>21</title>
<polygon style="fill:#e58139;stroke:black;" points="1093,748 861,748 861,836 1093,836 1093,748"/>
<text text-anchor="middle" x="977" y="765">SEPCount_EFDATE_LOCLog &lt;= 0.5</text>
<text text-anchor="middle" x="977" y="781">0.1633</text>
<text text-anchor="middle" x="977" y="797">677</text>
<text text-anchor="middle" x="977" y="813">[974, 96]</text>
<text text-anchor="middle" x="977" y="829">NS</text>
</g>
<g id="edge42" class="edge"><title>20&#45;&gt;21</title>
<path style="fill:none;stroke:black;" d="M738,792C771,792 812,792 851,792"/>
<polygon style="fill:black;stroke:black;" points="851,788 861,792 851,795 851,788"/>
</g>
<g id="node48" class="node"><title>24</title>
<polygon style="fill:#e58139;stroke:black;" points="1004,854 950,854 950,926 1004,926 1004,854"/>
<text text-anchor="middle" x="977" y="871">0.2449</text>
<text text-anchor="middle" x="977" y="887">11</text>
<text text-anchor="middle" x="977" y="903">[18, 3]</text>
<text text-anchor="middle" x="977" y="919">NS</text>
</g>
<g id="edge48" class="edge"><title>20&#45;&gt;24</title>
<path style="fill:none;stroke:black;" d="M738,814C800,834 890,862 939,878"/>
<polygon style="fill:black;stroke:black;" points="940,875 949,881 938,881 940,875"/>
</g>
<g id="node44" class="node"><title>22</title>
<polygon style="fill:#e58139;stroke:black;" points="1224,744 1158,744 1158,816 1224,816 1224,744"/>
<text text-anchor="middle" x="1191" y="761">0.1593</text>
<text text-anchor="middle" x="1191" y="777">648</text>
<text text-anchor="middle" x="1191" y="793">[931, 89]</text>
<text text-anchor="middle" x="1191" y="809">NS</text>
</g>
<g id="edge44" class="edge"><title>21&#45;&gt;22</title>
<path style="fill:none;stroke:black;" d="M1093,785C1113,784 1132,783 1148,783"/>
<polygon style="fill:black;stroke:black;" points="1148,780 1158,782 1148,786 1148,780"/>
</g>
<g id="node46" class="node"><title>23</title>
<polygon style="fill:#e58139;stroke:black;" points="1218,834 1164,834 1164,906 1218,906 1218,834"/>
<text text-anchor="middle" x="1191" y="851">0.2408</text>
<text text-anchor="middle" x="1191" y="867">29</text>
<text text-anchor="middle" x="1191" y="883">[43, 7]</text>
<text text-anchor="middle" x="1191" y="899">NS</text>
</g>
<g id="edge46" class="edge"><title>21&#45;&gt;23</title>
<path style="fill:none;stroke:black;" d="M1093,834C1115,842 1136,850 1154,856"/>
<polygon style="fill:black;stroke:black;" points="1155,853 1163,860 1152,859 1155,853"/>
</g>
</g>
</svg>
