<?xml version="1.0" encoding="UTF-8" standalone="no"?>
<!DOCTYPE svg PUBLIC "-//W3C//DTD SVG 1.0//EN"
 "http://www.w3.org/TR/2001/REC-SVG-20010904/DTD/svg10.dtd">
<!-- Generated by dot version 2.2 (Tue Jan 25 21:58:56 UTC 2005)
     For user: (amfrye) Alex Frye   Title: Tree    Pages: 1 -->
<svg width="1052pt" height="1434pt"
 viewBox = "-1 -1 1051 1433"
 xmlns="http://www.w3.org/2000/svg">
<g id="graph0" class="graph" style="font-family:Times-Roman;font-size:14.00;">
<title>Tree</title>
<g id="node1" class="node"><title>0</title>
<polygon style="fill:#e58139;stroke:black;" points="190,671 6,671 6,759 190,759 190,671"/>
<text text-anchor="middle" x="98" y="688">YearsToRetirement &lt;= 0.3984</text>
<text text-anchor="middle" x="98" y="704">0.5</text>
<text text-anchor="middle" x="98" y="720">7577</text>
<text text-anchor="middle" x="98" y="736">[6024, 5913]</text>
<text text-anchor="middle" x="98" y="752">NS</text>
</g>
<g id="node2" class="node"><title>1</title>
<polygon style="fill:#399de5;stroke:black;" points="412,491 228,491 228,579 412,579 412,491"/>
<text text-anchor="middle" x="320" y="508">YearsToRetirement &lt;= 0.2438</text>
<text text-anchor="middle" x="320" y="524">0.4338</text>
<text text-anchor="middle" x="320" y="540">4886</text>
<text text-anchor="middle" x="320" y="556">[2454, 5263]</text>
<text text-anchor="middle" x="320" y="572">SD</text>
</g>
<g id="edge2" class="edge"><title>0&#45;&gt;1</title>
<path style="fill:none;stroke:black;" d="M152,671C184,645 225,612 258,585"/>
<polygon style="fill:black;stroke:black;" points="256,582 266,579 260,588 256,582"/>
<text text-anchor="middle" x="241" y="580">True</text>
</g>
<g id="node32" class="node"><title>16</title>
<polygon style="fill:#e58139;stroke:black;" points="412,851 228,851 228,939 412,939 412,851"/>
<text text-anchor="middle" x="320" y="868">YearsToRetirement &lt;= 0.5591</text>
<text text-anchor="middle" x="320" y="884">0.2606</text>
<text text-anchor="middle" x="320" y="900">2691</text>
<text text-anchor="middle" x="320" y="916">[3570, 650]</text>
<text text-anchor="middle" x="320" y="932">NS</text>
</g>
<g id="edge32" class="edge"><title>0&#45;&gt;16</title>
<path style="fill:none;stroke:black;" d="M152,759C184,785 225,818 258,845"/>
<polygon style="fill:black;stroke:black;" points="260,842 266,851 256,848 260,842"/>
<text text-anchor="middle" x="241" y="860">False</text>
</g>
<g id="node4" class="node"><title>2</title>
<polygon style="fill:#399de5;stroke:black;" points="606,229 478,229 478,317 606,317 606,229"/>
<text text-anchor="middle" x="542" y="246">AGELVL_D &lt;= 0.5</text>
<text text-anchor="middle" x="542" y="262">0.3266</text>
<text text-anchor="middle" x="542" y="278">2274</text>
<text text-anchor="middle" x="542" y="294">[737, 2849]</text>
<text text-anchor="middle" x="542" y="310">SD</text>
</g>
<g id="edge4" class="edge"><title>1&#45;&gt;2</title>
<path style="fill:none;stroke:black;" d="M357,491C396,446 457,374 497,325"/>
<polygon style="fill:black;stroke:black;" points="495,322 504,317 500,327 495,322"/>
</g>
<g id="node18" class="node"><title>9</title>
<polygon style="fill:#399de5;stroke:black;" points="609,491 475,491 475,579 609,579 609,491"/>
<text text-anchor="middle" x="542" y="508">GSEGRD &lt;= 0.5625</text>
<text text-anchor="middle" x="542" y="524">0.4858</text>
<text text-anchor="middle" x="542" y="540">2612</text>
<text text-anchor="middle" x="542" y="556">[1717, 2414]</text>
<text text-anchor="middle" x="542" y="572">SD</text>
</g>
<g id="edge18" class="edge"><title>1&#45;&gt;9</title>
<path style="fill:none;stroke:black;" d="M413,535C430,535 448,535 465,535"/>
<polygon style="fill:black;stroke:black;" points="465,531 475,535 465,538 465,531"/>
</g>
<g id="node6" class="node"><title>3</title>
<polygon style="fill:#399de5;stroke:black;" points="879,86 715,86 715,174 879,174 879,86"/>
<text text-anchor="middle" x="797" y="103">LowerLimitAge &lt;= 0.8194</text>
<text text-anchor="middle" x="797" y="119">0.3335</text>
<text text-anchor="middle" x="797" y="135">2015</text>
<text text-anchor="middle" x="797" y="151">[669, 2495]</text>
<text text-anchor="middle" x="797" y="167">SD</text>
</g>
<g id="edge6" class="edge"><title>2&#45;&gt;3</title>
<path style="fill:none;stroke:black;" d="M607,237C638,220 675,198 709,179"/>
<polygon style="fill:black;stroke:black;" points="708,176 718,174 711,182 708,176"/>
</g>
<g id="node12" class="node"><title>6</title>
<polygon style="fill:#399de5;stroke:black;" points="880,229 714,229 714,317 880,317 880,229"/>
<text text-anchor="middle" x="797" y="246">LowerLimitAge &lt;= 0.7361</text>
<text text-anchor="middle" x="797" y="262">0.2703</text>
<text text-anchor="middle" x="797" y="278">259</text>
<text text-anchor="middle" x="797" y="294">[68, 354]</text>
<text text-anchor="middle" x="797" y="310">SD</text>
</g>
<g id="edge12" class="edge"><title>2&#45;&gt;6</title>
<path style="fill:none;stroke:black;" d="M607,273C636,273 671,273 704,273"/>
<polygon style="fill:black;stroke:black;" points="704,269 714,273 704,276 704,269"/>
</g>
<g id="node8" class="node"><title>4</title>
<polygon style="fill:#399de5;stroke:black;" points="1042,4 962,4 962,76 1042,76 1042,4"/>
<text text-anchor="middle" x="1002" y="21">0.3057</text>
<text text-anchor="middle" x="1002" y="37">1635</text>
<text text-anchor="middle" x="1002" y="53">[479, 2065]</text>
<text text-anchor="middle" x="1002" y="69">SD</text>
</g>
<g id="edge8" class="edge"><title>3&#45;&gt;4</title>
<path style="fill:none;stroke:black;" d="M880,94C904,84 930,72 952,62"/>
<polygon style="fill:black;stroke:black;" points="950,59 961,58 953,65 950,59"/>
</g>
<g id="node10" class="node"><title>5</title>
<polygon style="fill:#399de5;stroke:black;" points="1039,94 965,94 965,166 1039,166 1039,94"/>
<text text-anchor="middle" x="1002" y="111">0.4251</text>
<text text-anchor="middle" x="1002" y="127">380</text>
<text text-anchor="middle" x="1002" y="143">[190, 430]</text>
<text text-anchor="middle" x="1002" y="159">SD</text>
</g>
<g id="edge10" class="edge"><title>3&#45;&gt;5</title>
<path style="fill:none;stroke:black;" d="M880,130C906,130 933,130 955,130"/>
<polygon style="fill:black;stroke:black;" points="955,126 965,130 955,133 955,126"/>
</g>
<g id="node14" class="node"><title>7</title>
<polygon style="fill:#399de5;stroke:black;" points="1036,184 968,184 968,256 1036,256 1036,184"/>
<text text-anchor="middle" x="1002" y="201">0.2175</text>
<text text-anchor="middle" x="1002" y="217">174</text>
<text text-anchor="middle" x="1002" y="233">[36, 254]</text>
<text text-anchor="middle" x="1002" y="249">SD</text>
</g>
<g id="edge14" class="edge"><title>6&#45;&gt;7</title>
<path style="fill:none;stroke:black;" d="M880,252C907,245 936,237 958,231"/>
<polygon style="fill:black;stroke:black;" points="958,228 968,229 959,234 958,228"/>
</g>
<g id="node16" class="node"><title>8</title>
<polygon style="fill:#399de5;stroke:black;" points="1035,274 969,274 969,346 1035,346 1035,274"/>
<text text-anchor="middle" x="1002" y="291">0.3673</text>
<text text-anchor="middle" x="1002" y="307">85</text>
<text text-anchor="middle" x="1002" y="323">[32, 100]</text>
<text text-anchor="middle" x="1002" y="339">SD</text>
</g>
<g id="edge16" class="edge"><title>6&#45;&gt;8</title>
<path style="fill:none;stroke:black;" d="M880,288C907,292 935,297 958,302"/>
<polygon style="fill:black;stroke:black;" points="959,299 968,304 958,305 959,299"/>
</g>
<g id="node20" class="node"><title>10</title>
<polygon style="fill:#399de5;stroke:black;" points="923,438 671,438 671,526 923,526 923,438"/>
<text text-anchor="middle" x="797" y="455">BLS_FEDERAL_OtherSep_Level &lt;= 0.5</text>
<text text-anchor="middle" x="797" y="471">0.4563</text>
<text text-anchor="middle" x="797" y="487">836</text>
<text text-anchor="middle" x="797" y="503">[460, 846]</text>
<text text-anchor="middle" x="797" y="519">SD</text>
</g>
<g id="edge20" class="edge"><title>9&#45;&gt;10</title>
<path style="fill:none;stroke:black;" d="M609,521C625,518 643,514 661,510"/>
<polygon style="fill:black;stroke:black;" points="661,507 671,508 662,513 661,507"/>
</g>
<g id="node26" class="node"><title>13</title>
<polygon style="fill:#399de5;stroke:black;" points="861,544 733,544 733,632 861,632 861,544"/>
<text text-anchor="middle" x="797" y="561">AGELVL_D &lt;= 0.5</text>
<text text-anchor="middle" x="797" y="577">0.4939</text>
<text text-anchor="middle" x="797" y="593">1776</text>
<text text-anchor="middle" x="797" y="609">[1257, 1568]</text>
<text text-anchor="middle" x="797" y="625">SD</text>
</g>
<g id="edge26" class="edge"><title>9&#45;&gt;13</title>
<path style="fill:none;stroke:black;" d="M609,549C644,556 686,565 722,573"/>
<polygon style="fill:black;stroke:black;" points="723,570 732,575 722,576 723,570"/>
</g>
<g id="node22" class="node"><title>11</title>
<polygon style="fill:#399de5;stroke:black;" points="1039,364 965,364 965,436 1039,436 1039,364"/>
<text text-anchor="middle" x="1002" y="381">0.4599</text>
<text text-anchor="middle" x="1002" y="397">762</text>
<text text-anchor="middle" x="1002" y="413">[428, 766]</text>
<text text-anchor="middle" x="1002" y="429">SD</text>
</g>
<g id="edge22" class="edge"><title>10&#45;&gt;11</title>
<path style="fill:none;stroke:black;" d="M907,438C924,431 941,425 956,419"/>
<polygon style="fill:black;stroke:black;" points="954,416 965,415 957,422 954,416"/>
</g>
<g id="node24" class="node"><title>12</title>
<polygon style="fill:#399de5;stroke:black;" points="1032,454 972,454 972,526 1032,526 1032,454"/>
<text text-anchor="middle" x="1002" y="471">0.4082</text>
<text text-anchor="middle" x="1002" y="487">74</text>
<text text-anchor="middle" x="1002" y="503">[32, 80]</text>
<text text-anchor="middle" x="1002" y="519">SD</text>
</g>
<g id="edge24" class="edge"><title>10&#45;&gt;12</title>
<path style="fill:none;stroke:black;" d="M923,487C937,488 950,489 961,489"/>
<polygon style="fill:black;stroke:black;" points="961,485 971,489 961,492 961,485"/>
</g>
<g id="node28" class="node"><title>14</title>
<polygon style="fill:#399de5;stroke:black;" points="1044,544 960,544 960,616 1044,616 1044,544"/>
<text text-anchor="middle" x="1002" y="561">0.4921</text>
<text text-anchor="middle" x="1002" y="577">1575</text>
<text text-anchor="middle" x="1002" y="593">[1095, 1410]</text>
<text text-anchor="middle" x="1002" y="609">SD</text>
</g>
<g id="edge28" class="edge"><title>13&#45;&gt;14</title>
<path style="fill:none;stroke:black;" d="M862,585C890,584 922,583 949,582"/>
<polygon style="fill:black;stroke:black;" points="949,578 959,582 949,585 949,578"/>
</g>
<g id="node30" class="node"><title>15</title>
<polygon style="fill:#e58139;stroke:black;" points="1038,634 966,634 966,706 1038,706 1038,634"/>
<text text-anchor="middle" x="1002" y="651">0.4999</text>
<text text-anchor="middle" x="1002" y="667">201</text>
<text text-anchor="middle" x="1002" y="683">[162, 158]</text>
<text text-anchor="middle" x="1002" y="699">NS</text>
</g>
<g id="edge30" class="edge"><title>13&#45;&gt;15</title>
<path style="fill:none;stroke:black;" d="M862,614C892,626 928,641 955,651"/>
<polygon style="fill:black;stroke:black;" points="957,648 965,655 954,655 957,648"/>
</g>
<g id="node34" class="node"><title>17</title>
<polygon style="fill:#e58139;stroke:black;" points="619,851 465,851 465,939 619,939 619,851"/>
<text text-anchor="middle" x="542" y="868">IndAvgSalary &lt;= 0.8333</text>
<text text-anchor="middle" x="542" y="884">0.4301</text>
<text text-anchor="middle" x="542" y="900">1066</text>
<text text-anchor="middle" x="542" y="916">[1150, 524]</text>
<text text-anchor="middle" x="542" y="932">NS</text>
</g>
<g id="edge34" class="edge"><title>16&#45;&gt;17</title>
<path style="fill:none;stroke:black;" d="M412,895C426,895 440,895 454,895"/>
<polygon style="fill:black;stroke:black;" points="454,891 464,895 454,898 454,891"/>
</g>
<g id="node48" class="node"><title>24</title>
<polygon style="fill:#e58139;stroke:black;" points="634,1113 450,1113 450,1201 634,1201 634,1113"/>
<text text-anchor="middle" x="542" y="1130">YearsToRetirement &lt;= 0.6363</text>
<text text-anchor="middle" x="542" y="1146">0.0941</text>
<text text-anchor="middle" x="542" y="1162">1625</text>
<text text-anchor="middle" x="542" y="1178">[2420, 126]</text>
<text text-anchor="middle" x="542" y="1194">NS</text>
</g>
<g id="edge48" class="edge"><title>16&#45;&gt;24</title>
<path style="fill:none;stroke:black;" d="M357,939C396,984 457,1056 497,1105"/>
<polygon style="fill:black;stroke:black;" points="500,1103 504,1113 495,1108 500,1103"/>
</g>
<g id="node36" class="node"><title>18</title>
<polygon style="fill:#e58139;stroke:black;" points="911,798 683,798 683,886 911,886 911,798"/>
<text text-anchor="middle" x="797" y="815">BLS_FEDERAL_Quits_Level &lt;= 0.5</text>
<text text-anchor="middle" x="797" y="831">0.4712</text>
<text text-anchor="middle" x="797" y="847">814</text>
<text text-anchor="middle" x="797" y="863">[811, 497]</text>
<text text-anchor="middle" x="797" y="879">NS</text>
</g>
<g id="edge36" class="edge"><title>17&#45;&gt;18</title>
<path style="fill:none;stroke:black;" d="M620,879C637,876 654,872 672,868"/>
<polygon style="fill:black;stroke:black;" points="672,865 682,866 673,871 672,865"/>
</g>
<g id="node42" class="node"><title>21</title>
<polygon style="fill:#e58139;stroke:black;" points="849,904 745,904 745,992 849,992 849,904"/>
<text text-anchor="middle" x="797" y="921">LOC_01 &lt;= 0.5</text>
<text text-anchor="middle" x="797" y="937">0.1367</text>
<text text-anchor="middle" x="797" y="953">252</text>
<text text-anchor="middle" x="797" y="969">[339, 27]</text>
<text text-anchor="middle" x="797" y="985">NS</text>
</g>
<g id="edge42" class="edge"><title>17&#45;&gt;21</title>
<path style="fill:none;stroke:black;" d="M620,911C656,919 699,928 734,935"/>
<polygon style="fill:black;stroke:black;" points="735,932 744,937 734,938 735,932"/>
</g>
<g id="node38" class="node"><title>19</title>
<polygon style="fill:#e58139;stroke:black;" points="1038,724 966,724 966,796 1038,796 1038,724"/>
<text text-anchor="middle" x="1002" y="741">0.4769</text>
<text text-anchor="middle" x="1002" y="757">656</text>
<text text-anchor="middle" x="1002" y="773">[636, 411]</text>
<text text-anchor="middle" x="1002" y="789">NS</text>
</g>
<g id="edge38" class="edge"><title>18&#45;&gt;19</title>
<path style="fill:none;stroke:black;" d="M907,798C924,791 941,785 956,779"/>
<polygon style="fill:black;stroke:black;" points="954,776 965,775 957,782 954,776"/>
</g>
<g id="node40" class="node"><title>20</title>
<polygon style="fill:#e58139;stroke:black;" points="1035,814 969,814 969,886 1035,886 1035,814"/>
<text text-anchor="middle" x="1002" y="831">0.4419</text>
<text text-anchor="middle" x="1002" y="847">158</text>
<text text-anchor="middle" x="1002" y="863">[175, 86]</text>
<text text-anchor="middle" x="1002" y="879">NS</text>
</g>
<g id="edge40" class="edge"><title>18&#45;&gt;20</title>
<path style="fill:none;stroke:black;" d="M912,846C929,847 945,848 959,848"/>
<polygon style="fill:black;stroke:black;" points="959,844 969,848 959,851 959,844"/>
</g>
<g id="node44" class="node"><title>22</title>
<polygon style="fill:#e58139;stroke:black;" points="1029,904 975,904 975,976 1029,976 1029,904"/>
<text text-anchor="middle" x="1002" y="921">0.42</text>
<text text-anchor="middle" x="1002" y="937">9</text>
<text text-anchor="middle" x="1002" y="953">[7, 3]</text>
<text text-anchor="middle" x="1002" y="969">NS</text>
</g>
<g id="edge44" class="edge"><title>21&#45;&gt;22</title>
<path style="fill:none;stroke:black;" d="M850,946C886,945 932,943 965,941"/>
<polygon style="fill:black;stroke:black;" points="965,937 975,941 965,944 965,937"/>
</g>
<g id="node46" class="node"><title>23</title>
<polygon style="fill:#e58139;stroke:black;" points="1036,994 968,994 968,1066 1036,1066 1036,994"/>
<text text-anchor="middle" x="1002" y="1011">0.1257</text>
<text text-anchor="middle" x="1002" y="1027">243</text>
<text text-anchor="middle" x="1002" y="1043">[332, 24]</text>
<text text-anchor="middle" x="1002" y="1059">NS</text>
</g>
<g id="edge46" class="edge"><title>21&#45;&gt;23</title>
<path style="fill:none;stroke:black;" d="M850,969C884,983 927,999 959,1012"/>
<polygon style="fill:black;stroke:black;" points="960,1009 968,1016 957,1015 960,1009"/>
</g>
<g id="node50" class="node"><title>25</title>
<polygon style="fill:#e58139;stroke:black;" points="863,1113 731,1113 731,1201 863,1201 863,1113"/>
<text text-anchor="middle" x="797" y="1130">GSEGRD &lt;= 0.9375</text>
<text text-anchor="middle" x="797" y="1146">0.1721</text>
<text text-anchor="middle" x="797" y="1162">597</text>
<text text-anchor="middle" x="797" y="1178">[847, 89]</text>
<text text-anchor="middle" x="797" y="1194">NS</text>
</g>
<g id="edge50" class="edge"><title>24&#45;&gt;25</title>
<path style="fill:none;stroke:black;" d="M635,1157C663,1157 693,1157 720,1157"/>
<polygon style="fill:black;stroke:black;" points="720,1153 730,1157 720,1160 720,1153"/>
</g>
<g id="node56" class="node"><title>28</title>
<polygon style="fill:#e58139;stroke:black;" points="864,1256 730,1256 730,1344 864,1344 864,1256"/>
<text text-anchor="middle" x="797" y="1273">GSEGRD &lt;= 0.5625</text>
<text text-anchor="middle" x="797" y="1289">0.0449</text>
<text text-anchor="middle" x="797" y="1305">1028</text>
<text text-anchor="middle" x="797" y="1321">[1573, 37]</text>
<text text-anchor="middle" x="797" y="1337">NS</text>
</g>
<g id="edge56" class="edge"><title>24&#45;&gt;28</title>
<path style="fill:none;stroke:black;" d="M621,1201C653,1219 689,1239 721,1257"/>
<polygon style="fill:black;stroke:black;" points="723,1254 730,1262 720,1260 723,1254"/>
</g>
<g id="node52" class="node"><title>26</title>
<polygon style="fill:#e58139;stroke:black;" points="1035,1084 969,1084 969,1156 1035,1156 1035,1084"/>
<text text-anchor="middle" x="1002" y="1101">0.1564</text>
<text text-anchor="middle" x="1002" y="1117">520</text>
<text text-anchor="middle" x="1002" y="1133">[727, 68]</text>
<text text-anchor="middle" x="1002" y="1149">NS</text>
</g>
<g id="edge52" class="edge"><title>25&#45;&gt;26</title>
<path style="fill:none;stroke:black;" d="M864,1145C895,1140 932,1133 959,1128"/>
<polygon style="fill:black;stroke:black;" points="959,1125 969,1126 960,1131 959,1125"/>
</g>
<g id="node54" class="node"><title>27</title>
<polygon style="fill:#e58139;stroke:black;" points="1035,1174 969,1174 969,1246 1035,1246 1035,1174"/>
<text text-anchor="middle" x="1002" y="1191">0.2535</text>
<text text-anchor="middle" x="1002" y="1207">77</text>
<text text-anchor="middle" x="1002" y="1223">[120, 21]</text>
<text text-anchor="middle" x="1002" y="1239">NS</text>
</g>
<g id="edge54" class="edge"><title>25&#45;&gt;27</title>
<path style="fill:none;stroke:black;" d="M864,1174C895,1182 931,1192 958,1198"/>
<polygon style="fill:black;stroke:black;" points="959,1195 968,1201 957,1201 959,1195"/>
</g>
<g id="node58" class="node"><title>29</title>
<polygon style="fill:#e58139;stroke:black;" points="1032,1264 972,1264 972,1336 1032,1336 1032,1264"/>
<text text-anchor="middle" x="1002" y="1281">0.0</text>
<text text-anchor="middle" x="1002" y="1297">122</text>
<text text-anchor="middle" x="1002" y="1313">[207, 0]</text>
<text text-anchor="middle" x="1002" y="1329">NS</text>
</g>
<g id="edge58" class="edge"><title>28&#45;&gt;29</title>
<path style="fill:none;stroke:black;" d="M864,1300C896,1300 934,1300 962,1300"/>
<polygon style="fill:black;stroke:black;" points="962,1296 972,1300 962,1303 962,1296"/>
</g>
<g id="node60" class="node"><title>30</title>
<polygon style="fill:#e58139;stroke:black;" points="1039,1354 965,1354 965,1426 1039,1426 1039,1354"/>
<text text-anchor="middle" x="1002" y="1371">0.0514</text>
<text text-anchor="middle" x="1002" y="1387">906</text>
<text text-anchor="middle" x="1002" y="1403">[1366, 37]</text>
<text text-anchor="middle" x="1002" y="1419">NS</text>
</g>
<g id="edge60" class="edge"><title>28&#45;&gt;30</title>
<path style="fill:none;stroke:black;" d="M864,1329C894,1342 929,1357 956,1370"/>
<polygon style="fill:black;stroke:black;" points="957,1367 965,1374 954,1373 957,1367"/>
</g>
</g>
</svg>
