<?xml version="1.0" encoding="UTF-8" standalone="no"?>
<!DOCTYPE svg PUBLIC "-//W3C//DTD SVG 1.0//EN"
 "http://www.w3.org/TR/2001/REC-SVG-20010904/DTD/svg10.dtd">
<!-- Generated by dot version 2.2 (Tue Jan 25 21:58:56 UTC 2005)
     For user: (amfrye) Alex Frye   Title: Tree    Pages: 1 -->
<svg width="1016pt" height="730pt"
 viewBox = "-1 -1 1015 729"
 xmlns="http://www.w3.org/2000/svg">
<g id="graph0" class="graph" style="font-family:Times-Roman;font-size:14.00;">
<title>Tree</title>
<g id="node1" class="node"><title>0</title>
<polygon style="fill:#e58139;stroke:black;" points="189,438 5,438 5,526 189,526 189,438"/>
<text text-anchor="middle" x="97" y="455">YearsToRetirement &lt;= 0.4139</text>
<text text-anchor="middle" x="97" y="471">0.5</text>
<text text-anchor="middle" x="97" y="487">7540</text>
<text text-anchor="middle" x="97" y="503">[5998, 5939]</text>
<text text-anchor="middle" x="97" y="519">NS</text>
</g>
<g id="node2" class="node"><title>1</title>
<polygon style="fill:#399de5;stroke:black;" points="426,331 272,331 272,419 426,419 426,331"/>
<text text-anchor="middle" x="349" y="348">IndAvgSalary &lt;= 0.8333</text>
<text text-anchor="middle" x="349" y="364">0.4389</text>
<text text-anchor="middle" x="349" y="380">5033</text>
<text text-anchor="middle" x="349" y="396">[2597, 5389]</text>
<text text-anchor="middle" x="349" y="412">SD</text>
</g>
<g id="edge2" class="edge"><title>0&#45;&gt;1</title>
<path style="fill:none;stroke:black;" d="M189,443C213,432 238,422 262,412"/>
<polygon style="fill:black;stroke:black;" points="260,409 271,408 263,415 260,409"/>
<text text-anchor="middle" x="248" y="404">True</text>
</g>
<g id="node28" class="node"><title>14</title>
<polygon style="fill:#e58139;stroke:black;" points="473,544 225,544 225,632 473,632 473,544"/>
<text text-anchor="middle" x="349" y="561">BLS_FEDERAL_TotalSep_Level &lt;= 0.5</text>
<text text-anchor="middle" x="349" y="577">0.2397</text>
<text text-anchor="middle" x="349" y="593">2507</text>
<text text-anchor="middle" x="349" y="609">[3401, 550]</text>
<text text-anchor="middle" x="349" y="625">NS</text>
</g>
<g id="edge28" class="edge"><title>0&#45;&gt;14</title>
<path style="fill:none;stroke:black;" d="M189,521C204,527 219,533 235,540"/>
<polygon style="fill:black;stroke:black;" points="236,537 244,544 233,543 236,537"/>
<text text-anchor="middle" x="221" y="558">False</text>
</g>
<g id="node4" class="node"><title>2</title>
<polygon style="fill:#399de5;stroke:black;" points="664,176 540,176 540,264 664,264 664,176"/>
<text text-anchor="middle" x="602" y="193">AGELVL_J &lt;= 0.5</text>
<text text-anchor="middle" x="602" y="209">0.425</text>
<text text-anchor="middle" x="602" y="225">4668</text>
<text text-anchor="middle" x="602" y="241">[2265, 5127]</text>
<text text-anchor="middle" x="602" y="257">SD</text>
</g>
<g id="edge4" class="edge"><title>1&#45;&gt;2</title>
<path style="fill:none;stroke:black;" d="M421,331C455,310 497,284 531,263"/>
<polygon style="fill:black;stroke:black;" points="530,260 540,258 533,266 530,260"/>
</g>
<g id="node14" class="node"><title>7</title>
<polygon style="fill:#e58139;stroke:black;" points="694,331 510,331 510,419 694,419 694,331"/>
<text text-anchor="middle" x="602" y="348">YearsToRetirement &lt;= 0.2409</text>
<text text-anchor="middle" x="602" y="364">0.4931</text>
<text text-anchor="middle" x="602" y="380">365</text>
<text text-anchor="middle" x="602" y="396">[332, 262]</text>
<text text-anchor="middle" x="602" y="412">NS</text>
</g>
<g id="edge14" class="edge"><title>1&#45;&gt;7</title>
<path style="fill:none;stroke:black;" d="M427,375C450,375 475,375 499,375"/>
<polygon style="fill:black;stroke:black;" points="499,371 509,375 499,378 499,371"/>
</g>
<g id="node6" class="node"><title>3</title>
<polygon style="fill:#399de5;stroke:black;" points="869,78 747,78 747,166 869,166 869,78"/>
<text text-anchor="middle" x="808" y="95">AGELVL_I &lt;= 0.5</text>
<text text-anchor="middle" x="808" y="111">0.4269</text>
<text text-anchor="middle" x="808" y="127">4633</text>
<text text-anchor="middle" x="808" y="143">[2262, 5064]</text>
<text text-anchor="middle" x="808" y="159">SD</text>
</g>
<g id="edge6" class="edge"><title>2&#45;&gt;3</title>
<path style="fill:none;stroke:black;" d="M664,190C687,179 713,167 737,155"/>
<polygon style="fill:black;stroke:black;" points="735,152 746,151 738,158 735,152"/>
</g>
<g id="node12" class="node"><title>6</title>
<polygon style="fill:#399de5;stroke:black;" points="835,184 781,184 781,256 835,256 835,184"/>
<text text-anchor="middle" x="808" y="201">0.0868</text>
<text text-anchor="middle" x="808" y="217">35</text>
<text text-anchor="middle" x="808" y="233">[3, 63]</text>
<text text-anchor="middle" x="808" y="249">SD</text>
</g>
<g id="edge12" class="edge"><title>2&#45;&gt;6</title>
<path style="fill:none;stroke:black;" d="M664,220C699,220 741,220 770,220"/>
<polygon style="fill:black;stroke:black;" points="770,216 780,220 770,223 770,216"/>
</g>
<g id="node8" class="node"><title>4</title>
<polygon style="fill:#399de5;stroke:black;" points="1008,4 922,4 922,76 1008,76 1008,4"/>
<text text-anchor="middle" x="965" y="21">0.436</text>
<text text-anchor="middle" x="965" y="37">3980</text>
<text text-anchor="middle" x="965" y="53">[2013, 4256]</text>
<text text-anchor="middle" x="965" y="69">SD</text>
</g>
<g id="edge8" class="edge"><title>3&#45;&gt;4</title>
<path style="fill:none;stroke:black;" d="M870,90C884,83 898,75 912,68"/>
<polygon style="fill:black;stroke:black;" points="911,65 921,63 914,71 911,65"/>
</g>
<g id="node10" class="node"><title>5</title>
<polygon style="fill:#399de5;stroke:black;" points="1002,94 928,94 928,166 1002,166 1002,94"/>
<text text-anchor="middle" x="965" y="111">0.3602</text>
<text text-anchor="middle" x="965" y="127">653</text>
<text text-anchor="middle" x="965" y="143">[249, 808]</text>
<text text-anchor="middle" x="965" y="159">SD</text>
</g>
<g id="edge10" class="edge"><title>3&#45;&gt;5</title>
<path style="fill:none;stroke:black;" d="M870,125C885,126 902,127 917,127"/>
<polygon style="fill:black;stroke:black;" points="917,124 927,128 917,130 917,124"/>
</g>
<g id="node16" class="node"><title>8</title>
<polygon style="fill:#399de5;stroke:black;" points="869,274 747,274 747,362 869,362 869,274"/>
<text text-anchor="middle" x="808" y="291">AGELVL_I &lt;= 0.5</text>
<text text-anchor="middle" x="808" y="307">0.2036</text>
<text text-anchor="middle" x="808" y="323">115</text>
<text text-anchor="middle" x="808" y="339">[23, 177]</text>
<text text-anchor="middle" x="808" y="355">SD</text>
</g>
<g id="edge16" class="edge"><title>7&#45;&gt;8</title>
<path style="fill:none;stroke:black;" d="M695,349C709,345 723,341 736,338"/>
<polygon style="fill:black;stroke:black;" points="735,335 746,335 737,341 735,335"/>
</g>
<g id="node22" class="node"><title>11</title>
<polygon style="fill:#e58139;stroke:black;" points="872,380 744,380 744,468 872,468 872,380"/>
<text text-anchor="middle" x="808" y="397">AGELVL_D &lt;= 0.5</text>
<text text-anchor="middle" x="808" y="413">0.3384</text>
<text text-anchor="middle" x="808" y="429">250</text>
<text text-anchor="middle" x="808" y="445">[309, 85]</text>
<text text-anchor="middle" x="808" y="461">NS</text>
</g>
<g id="edge22" class="edge"><title>7&#45;&gt;11</title>
<path style="fill:none;stroke:black;" d="M695,397C708,400 721,403 733,406"/>
<polygon style="fill:black;stroke:black;" points="734,403 743,409 732,409 734,403"/>
</g>
<g id="node18" class="node"><title>9</title>
<polygon style="fill:#399de5;stroke:black;" points="998,192 932,192 932,264 998,264 998,192"/>
<text text-anchor="middle" x="965" y="209">0.1341</text>
<text text-anchor="middle" x="965" y="225">96</text>
<text text-anchor="middle" x="965" y="241">[12, 154]</text>
<text text-anchor="middle" x="965" y="257">SD</text>
</g>
<g id="edge18" class="edge"><title>8&#45;&gt;9</title>
<path style="fill:none;stroke:black;" d="M870,283C888,273 907,262 922,253"/>
<polygon style="fill:black;stroke:black;" points="921,250 931,247 925,255 921,250"/>
</g>
<g id="node20" class="node"><title>10</title>
<polygon style="fill:#399de5;stroke:black;" points="994,282 936,282 936,354 994,354 994,282"/>
<text text-anchor="middle" x="965" y="299">0.4377</text>
<text text-anchor="middle" x="965" y="315">19</text>
<text text-anchor="middle" x="965" y="331">[11, 23]</text>
<text text-anchor="middle" x="965" y="347">SD</text>
</g>
<g id="edge20" class="edge"><title>8&#45;&gt;10</title>
<path style="fill:none;stroke:black;" d="M870,318C889,318 908,318 925,318"/>
<polygon style="fill:black;stroke:black;" points="925,314 935,318 925,321 925,314"/>
</g>
<g id="node24" class="node"><title>12</title>
<polygon style="fill:#e58139;stroke:black;" points="998,372 932,372 932,444 998,444 998,372"/>
<text text-anchor="middle" x="965" y="389">0.3278</text>
<text text-anchor="middle" x="965" y="405">233</text>
<text text-anchor="middle" x="965" y="421">[288, 75]</text>
<text text-anchor="middle" x="965" y="437">NS</text>
</g>
<g id="edge24" class="edge"><title>11&#45;&gt;12</title>
<path style="fill:none;stroke:black;" d="M873,417C889,415 906,414 921,412"/>
<polygon style="fill:black;stroke:black;" points="921,409 931,411 921,415 921,409"/>
</g>
<g id="node26" class="node"><title>13</title>
<polygon style="fill:#e58139;stroke:black;" points="994,462 936,462 936,534 994,534 994,462"/>
<text text-anchor="middle" x="965" y="479">0.437</text>
<text text-anchor="middle" x="965" y="495">17</text>
<text text-anchor="middle" x="965" y="511">[21, 10]</text>
<text text-anchor="middle" x="965" y="527">NS</text>
</g>
<g id="edge26" class="edge"><title>11&#45;&gt;13</title>
<path style="fill:none;stroke:black;" d="M873,455C891,463 910,472 926,480"/>
<polygon style="fill:black;stroke:black;" points="927,477 935,484 924,483 927,477"/>
</g>
<g id="node30" class="node"><title>15</title>
<polygon style="fill:#e58139;stroke:black;" points="665,544 539,544 539,632 665,632 665,544"/>
<text text-anchor="middle" x="602" y="561">AGELVL_F &lt;= 0.5</text>
<text text-anchor="middle" x="602" y="577">0.2226</text>
<text text-anchor="middle" x="602" y="593">2416</text>
<text text-anchor="middle" x="602" y="609">[3324, 486]</text>
<text text-anchor="middle" x="602" y="625">NS</text>
</g>
<g id="edge30" class="edge"><title>14&#45;&gt;15</title>
<path style="fill:none;stroke:black;" d="M473,588C492,588 511,588 528,588"/>
<polygon style="fill:black;stroke:black;" points="528,584 538,588 528,591 528,584"/>
</g>
<g id="node40" class="node"><title>20</title>
<polygon style="fill:#e58139;stroke:black;" points="632,650 572,650 572,722 632,722 632,650"/>
<text text-anchor="middle" x="602" y="667">0.4957</text>
<text text-anchor="middle" x="602" y="683">91</text>
<text text-anchor="middle" x="602" y="699">[77, 64]</text>
<text text-anchor="middle" x="602" y="715">NS</text>
</g>
<g id="edge40" class="edge"><title>14&#45;&gt;20</title>
<path style="fill:none;stroke:black;" d="M463,632C499,645 536,660 563,670"/>
<polygon style="fill:black;stroke:black;" points="564,667 572,674 561,673 564,667"/>
</g>
<g id="node32" class="node"><title>16</title>
<polygon style="fill:#e58139;stroke:black;" points="885,544 731,544 731,632 885,632 885,544"/>
<text text-anchor="middle" x="808" y="561">IndAvgSalary &lt;= 0.7222</text>
<text text-anchor="middle" x="808" y="577">0.2187</text>
<text text-anchor="middle" x="808" y="593">2406</text>
<text text-anchor="middle" x="808" y="609">[3320, 474]</text>
<text text-anchor="middle" x="808" y="625">NS</text>
</g>
<g id="edge32" class="edge"><title>15&#45;&gt;16</title>
<path style="fill:none;stroke:black;" d="M666,588C683,588 702,588 721,588"/>
<polygon style="fill:black;stroke:black;" points="721,584 731,588 721,591 721,584"/>
</g>
<g id="node38" class="node"><title>19</title>
<polygon style="fill:#399de5;stroke:black;" points="835,650 781,650 781,722 835,722 835,650"/>
<text text-anchor="middle" x="808" y="667">0.375</text>
<text text-anchor="middle" x="808" y="683">10</text>
<text text-anchor="middle" x="808" y="699">[4, 12]</text>
<text text-anchor="middle" x="808" y="715">SD</text>
</g>
<g id="edge38" class="edge"><title>15&#45;&gt;19</title>
<path style="fill:none;stroke:black;" d="M666,618C700,635 742,655 772,668"/>
<polygon style="fill:black;stroke:black;" points="774,665 781,673 771,671 774,665"/>
</g>
<g id="node34" class="node"><title>17</title>
<polygon style="fill:#e58139;stroke:black;" points="1002,552 928,552 928,624 1002,624 1002,552"/>
<text text-anchor="middle" x="965" y="569">0.428</text>
<text text-anchor="middle" x="965" y="585">727</text>
<text text-anchor="middle" x="965" y="601">[778, 350]</text>
<text text-anchor="middle" x="965" y="617">NS</text>
</g>
<g id="edge34" class="edge"><title>16&#45;&gt;17</title>
<path style="fill:none;stroke:black;" d="M885,588C896,588 907,588 918,588"/>
<polygon style="fill:black;stroke:black;" points="918,584 928,588 918,591 918,584"/>
</g>
<g id="node36" class="node"><title>18</title>
<polygon style="fill:#e58139;stroke:black;" points="1005,642 925,642 925,714 1005,714 1005,642"/>
<text text-anchor="middle" x="965" y="659">0.0887</text>
<text text-anchor="middle" x="965" y="675">1679</text>
<text text-anchor="middle" x="965" y="691">[2542, 124]</text>
<text text-anchor="middle" x="965" y="707">NS</text>
</g>
<g id="edge36" class="edge"><title>16&#45;&gt;18</title>
<path style="fill:none;stroke:black;" d="M885,632C896,638 906,644 915,650"/>
<polygon style="fill:black;stroke:black;" points="917,647 924,655 914,653 917,647"/>
</g>
</g>
</svg>
