<?xml version="1.0" encoding="UTF-8" standalone="no"?>
<!DOCTYPE svg PUBLIC "-//W3C//DTD SVG 1.0//EN"
 "http://www.w3.org/TR/2001/REC-SVG-20010904/DTD/svg10.dtd">
<!-- Generated by dot version 2.2 (Tue Jan 25 21:58:56 UTC 2005)
     For user: (amfrye) Alex Frye   Title: Tree    Pages: 1 -->
<svg width="1004pt" height="1082pt"
 viewBox = "-1 -1 1003 1081"
 xmlns="http://www.w3.org/2000/svg">
<g id="graph0" class="graph" style="font-family:Times-Roman;font-size:14.00;">
<title>Tree</title>
<g id="node1" class="node"><title>0</title>
<polygon style="fill:#399de5;stroke:black;" points="188,554 6,554 6,642 188,642 188,554"/>
<text text-anchor="middle" x="97" y="571">YearsToRetirement &lt;= 0.4105</text>
<text text-anchor="middle" x="97" y="587">0.5</text>
<text text-anchor="middle" x="97" y="603">7564</text>
<text text-anchor="middle" x="97" y="619">[5942, 5995]</text>
<text text-anchor="middle" x="97" y="635">SD</text>
</g>
<g id="node2" class="node"><title>1</title>
<polygon style="fill:#399de5;stroke:black;" points="380,485 226,485 226,573 380,573 380,485"/>
<text text-anchor="middle" x="303" y="502">IndAvgSalary &lt;= 0.8333</text>
<text text-anchor="middle" x="303" y="518">0.4312</text>
<text text-anchor="middle" x="303" y="534">5022</text>
<text text-anchor="middle" x="303" y="550">[2485, 5416]</text>
<text text-anchor="middle" x="303" y="566">SD</text>
</g>
<g id="edge2" class="edge"><title>0&#45;&gt;1</title>
<path style="fill:none;stroke:black;" d="M189,567C198,564 207,561 215,558"/>
<polygon style="fill:black;stroke:black;" points="214,555 225,555 216,561 214,555"/>
<text text-anchor="middle" x="203" y="548">True</text>
</g>
<g id="node28" class="node"><title>14</title>
<polygon style="fill:#e58139;stroke:black;" points="380,622 226,622 226,710 380,710 380,622"/>
<text text-anchor="middle" x="303" y="639">IndAvgSalary &lt;= 0.7222</text>
<text text-anchor="middle" x="303" y="655">0.2458</text>
<text text-anchor="middle" x="303" y="671">2542</text>
<text text-anchor="middle" x="303" y="687">[3457, 579]</text>
<text text-anchor="middle" x="303" y="703">NS</text>
</g>
<g id="edge28" class="edge"><title>0&#45;&gt;14</title>
<path style="fill:none;stroke:black;" d="M189,628C198,631 207,634 216,637"/>
<polygon style="fill:black;stroke:black;" points="217,634 226,640 215,640 217,634"/>
<text text-anchor="middle" x="204" y="657">False</text>
</g>
<g id="node4" class="node"><title>2</title>
<polygon style="fill:#399de5;stroke:black;" points="602,229 468,229 468,317 602,317 602,229"/>
<text text-anchor="middle" x="535" y="246">GSEGRD &lt;= 0.5625</text>
<text text-anchor="middle" x="535" y="262">0.4121</text>
<text text-anchor="middle" x="535" y="278">4668</text>
<text text-anchor="middle" x="535" y="294">[2134, 5216]</text>
<text text-anchor="middle" x="535" y="310">SD</text>
</g>
<g id="edge4" class="edge"><title>1&#45;&gt;2</title>
<path style="fill:none;stroke:black;" d="M343,485C383,440 445,372 488,325"/>
<polygon style="fill:black;stroke:black;" points="486,322 495,317 491,327 486,322"/>
</g>
<g id="node18" class="node"><title>9</title>
<polygon style="fill:#e58139;stroke:black;" points="653,485 417,485 417,573 653,573 653,485"/>
<text text-anchor="middle" x="535" y="502">BLS_FEDERAL_Layoffs_Rate &lt;= 0.5</text>
<text text-anchor="middle" x="535" y="518">0.4624</text>
<text text-anchor="middle" x="535" y="534">354</text>
<text text-anchor="middle" x="535" y="550">[351, 200]</text>
<text text-anchor="middle" x="535" y="566">NS</text>
</g>
<g id="edge18" class="edge"><title>1&#45;&gt;9</title>
<path style="fill:none;stroke:black;" d="M381,529C390,529 398,529 407,529"/>
<polygon style="fill:black;stroke:black;" points="407,525 417,529 407,532 407,525"/>
</g>
<g id="node6" class="node"><title>3</title>
<polygon style="fill:#399de5;stroke:black;" points="872,86 690,86 690,174 872,174 872,86"/>
<text text-anchor="middle" x="781" y="103">YearsToRetirement &lt;= 0.1813</text>
<text text-anchor="middle" x="781" y="119">0.3392</text>
<text text-anchor="middle" x="781" y="135">2088</text>
<text text-anchor="middle" x="781" y="151">[710, 2570]</text>
<text text-anchor="middle" x="781" y="167">SD</text>
</g>
<g id="edge6" class="edge"><title>2&#45;&gt;3</title>
<path style="fill:none;stroke:black;" d="M602,234C631,218 666,197 697,179"/>
<polygon style="fill:black;stroke:black;" points="696,176 706,174 699,182 696,176"/>
</g>
<g id="node12" class="node"><title>6</title>
<polygon style="fill:#399de5;stroke:black;" points="863,229 699,229 699,317 863,317 863,229"/>
<text text-anchor="middle" x="781" y="246">LowerLimitAge &lt;= 0.8194</text>
<text text-anchor="middle" x="781" y="262">0.4549</text>
<text text-anchor="middle" x="781" y="278">2580</text>
<text text-anchor="middle" x="781" y="294">[1424, 2646]</text>
<text text-anchor="middle" x="781" y="310">SD</text>
</g>
<g id="edge12" class="edge"><title>2&#45;&gt;6</title>
<path style="fill:none;stroke:black;" d="M602,273C629,273 659,273 688,273"/>
<polygon style="fill:black;stroke:black;" points="688,269 698,273 688,276 688,269"/>
</g>
<g id="node8" class="node"><title>4</title>
<polygon style="fill:#399de5;stroke:black;" points="993,4 913,4 913,76 993,76 993,4"/>
<text text-anchor="middle" x="953" y="21">0.2058</text>
<text text-anchor="middle" x="953" y="37">909</text>
<text text-anchor="middle" x="953" y="53">[165, 1252]</text>
<text text-anchor="middle" x="953" y="69">SD</text>
</g>
<g id="edge8" class="edge"><title>3&#45;&gt;4</title>
<path style="fill:none;stroke:black;" d="M865,86C879,79 892,72 904,66"/>
<polygon style="fill:black;stroke:black;" points="903,63 913,61 906,69 903,63"/>
</g>
<g id="node10" class="node"><title>5</title>
<polygon style="fill:#399de5;stroke:black;" points="992,94 914,94 914,166 992,166 992,94"/>
<text text-anchor="middle" x="953" y="111">0.4139</text>
<text text-anchor="middle" x="953" y="127">1179</text>
<text text-anchor="middle" x="953" y="143">[545, 1318]</text>
<text text-anchor="middle" x="953" y="159">SD</text>
</g>
<g id="edge10" class="edge"><title>3&#45;&gt;5</title>
<path style="fill:none;stroke:black;" d="M872,130C882,130 893,130 903,130"/>
<polygon style="fill:black;stroke:black;" points="903,126 913,130 903,133 903,126"/>
</g>
<g id="node14" class="node"><title>7</title>
<polygon style="fill:#399de5;stroke:black;" points="996,184 910,184 910,256 996,256 996,184"/>
<text text-anchor="middle" x="953" y="201">0.4316</text>
<text text-anchor="middle" x="953" y="217">2056</text>
<text text-anchor="middle" x="953" y="233">[1027, 2232]</text>
<text text-anchor="middle" x="953" y="249">SD</text>
</g>
<g id="edge14" class="edge"><title>6&#45;&gt;7</title>
<path style="fill:none;stroke:black;" d="M864,248C876,244 888,240 899,237"/>
<polygon style="fill:black;stroke:black;" points="898,234 909,234 900,240 898,234"/>
</g>
<g id="node16" class="node"><title>8</title>
<polygon style="fill:#399de5;stroke:black;" points="989,274 917,274 917,346 989,346 989,274"/>
<text text-anchor="middle" x="953" y="291">0.4998</text>
<text text-anchor="middle" x="953" y="307">524</text>
<text text-anchor="middle" x="953" y="323">[397, 414]</text>
<text text-anchor="middle" x="953" y="339">SD</text>
</g>
<g id="edge16" class="edge"><title>6&#45;&gt;8</title>
<path style="fill:none;stroke:black;" d="M864,291C879,294 894,297 907,300"/>
<polygon style="fill:black;stroke:black;" points="908,297 917,302 907,303 908,297"/>
</g>
<g id="node20" class="node"><title>10</title>
<polygon style="fill:#e58139;stroke:black;" points="844,404 718,404 718,492 844,492 844,404"/>
<text text-anchor="middle" x="781" y="421">AGELVL_F &lt;= 0.5</text>
<text text-anchor="middle" x="781" y="437">0.4507</text>
<text text-anchor="middle" x="781" y="453">336</text>
<text text-anchor="middle" x="781" y="469">[341, 178]</text>
<text text-anchor="middle" x="781" y="485">NS</text>
</g>
<g id="edge20" class="edge"><title>9&#45;&gt;10</title>
<path style="fill:none;stroke:black;" d="M653,490C671,484 690,478 707,472"/>
<polygon style="fill:black;stroke:black;" points="706,469 717,469 708,475 706,469"/>
</g>
<g id="node26" class="node"><title>13</title>
<polygon style="fill:#399de5;stroke:black;" points="811,510 751,510 751,582 811,582 811,510"/>
<text text-anchor="middle" x="781" y="527">0.4297</text>
<text text-anchor="middle" x="781" y="543">18</text>
<text text-anchor="middle" x="781" y="559">[10, 22]</text>
<text text-anchor="middle" x="781" y="575">SD</text>
</g>
<g id="edge26" class="edge"><title>9&#45;&gt;13</title>
<path style="fill:none;stroke:black;" d="M653,537C684,540 716,541 741,543"/>
<polygon style="fill:black;stroke:black;" points="741,540 751,544 741,546 741,540"/>
</g>
<g id="node22" class="node"><title>11</title>
<polygon style="fill:#e58139;stroke:black;" points="989,364 917,364 917,436 989,436 989,364"/>
<text text-anchor="middle" x="953" y="381">0.4413</text>
<text text-anchor="middle" x="953" y="397">324</text>
<text text-anchor="middle" x="953" y="413">[337, 165]</text>
<text text-anchor="middle" x="953" y="429">NS</text>
</g>
<g id="edge22" class="edge"><title>10&#45;&gt;11</title>
<path style="fill:none;stroke:black;" d="M845,430C865,425 888,418 907,413"/>
<polygon style="fill:black;stroke:black;" points="906,410 917,410 908,416 906,410"/>
</g>
<g id="node24" class="node"><title>12</title>
<polygon style="fill:#399de5;stroke:black;" points="980,454 926,454 926,526 980,526 980,454"/>
<text text-anchor="middle" x="953" y="471">0.3599</text>
<text text-anchor="middle" x="953" y="487">12</text>
<text text-anchor="middle" x="953" y="503">[4, 13]</text>
<text text-anchor="middle" x="953" y="519">SD</text>
</g>
<g id="edge24" class="edge"><title>10&#45;&gt;12</title>
<path style="fill:none;stroke:black;" d="M845,464C869,469 895,476 915,481"/>
<polygon style="fill:black;stroke:black;" points="916,478 925,483 915,484 916,478"/>
</g>
<g id="node30" class="node"><title>15</title>
<polygon style="fill:#e58139;stroke:black;" points="599,622 471,622 471,710 599,710 599,622"/>
<text text-anchor="middle" x="535" y="639">AGELVL_D &lt;= 0.5</text>
<text text-anchor="middle" x="535" y="655">0.4365</text>
<text text-anchor="middle" x="535" y="671">874</text>
<text text-anchor="middle" x="535" y="687">[942, 447]</text>
<text text-anchor="middle" x="535" y="703">NS</text>
</g>
<g id="edge30" class="edge"><title>14&#45;&gt;15</title>
<path style="fill:none;stroke:black;" d="M380,666C406,666 434,666 460,666"/>
<polygon style="fill:black;stroke:black;" points="460,662 470,666 460,669 460,662"/>
</g>
<g id="node44" class="node"><title>22</title>
<polygon style="fill:#e58139;stroke:black;" points="599,896 471,896 471,984 599,984 599,896"/>
<text text-anchor="middle" x="535" y="913">AGELVL_B &lt;= 0.5</text>
<text text-anchor="middle" x="535" y="929">0.0948</text>
<text text-anchor="middle" x="535" y="945">1668</text>
<text text-anchor="middle" x="535" y="961">[2515, 132]</text>
<text text-anchor="middle" x="535" y="977">NS</text>
</g>
<g id="edge44" class="edge"><title>14&#45;&gt;22</title>
<path style="fill:none;stroke:black;" d="M340,710C382,759 448,837 492,888"/>
<polygon style="fill:black;stroke:black;" points="495,886 498,896 489,890 495,886"/>
</g>
<g id="node32" class="node"><title>16</title>
<polygon style="fill:#e58139;stroke:black;" points="872,618 690,618 690,706 872,706 872,618"/>
<text text-anchor="middle" x="781" y="635">YearsToRetirement &lt;= 0.5919</text>
<text text-anchor="middle" x="781" y="651">0.4403</text>
<text text-anchor="middle" x="781" y="667">785</text>
<text text-anchor="middle" x="781" y="683">[841, 409]</text>
<text text-anchor="middle" x="781" y="699">NS</text>
</g>
<g id="edge32" class="edge"><title>15&#45;&gt;16</title>
<path style="fill:none;stroke:black;" d="M600,665C624,665 652,664 679,664"/>
<polygon style="fill:black;stroke:black;" points="679,660 689,664 679,667 679,660"/>
</g>
<g id="node38" class="node"><title>19</title>
<polygon style="fill:#e58139;stroke:black;" points="847,724 715,724 715,812 847,812 847,724"/>
<text text-anchor="middle" x="781" y="741">GSEGRD &lt;= 0.6875</text>
<text text-anchor="middle" x="781" y="757">0.3973</text>
<text text-anchor="middle" x="781" y="773">89</text>
<text text-anchor="middle" x="781" y="789">[101, 38]</text>
<text text-anchor="middle" x="781" y="805">NS</text>
</g>
<g id="edge38" class="edge"><title>15&#45;&gt;19</title>
<path style="fill:none;stroke:black;" d="M600,693C632,707 671,723 704,736"/>
<polygon style="fill:black;stroke:black;" points="706,733 714,740 703,740 706,733"/>
</g>
<g id="node34" class="node"><title>17</title>
<polygon style="fill:#e58139;stroke:black;" points="990,544 916,544 916,616 990,616 990,544"/>
<text text-anchor="middle" x="953" y="561">0.4755</text>
<text text-anchor="middle" x="953" y="577">617</text>
<text text-anchor="middle" x="953" y="593">[596, 380]</text>
<text text-anchor="middle" x="953" y="609">NS</text>
</g>
<g id="edge34" class="edge"><title>16&#45;&gt;17</title>
<path style="fill:none;stroke:black;" d="M873,618C884,613 896,607 906,603"/>
<polygon style="fill:black;stroke:black;" points="905,600 915,598 908,606 905,600"/>
</g>
<g id="node36" class="node"><title>18</title>
<polygon style="fill:#e58139;stroke:black;" points="987,634 919,634 919,706 987,706 987,634"/>
<text text-anchor="middle" x="953" y="651">0.1893</text>
<text text-anchor="middle" x="953" y="667">168</text>
<text text-anchor="middle" x="953" y="683">[245, 29]</text>
<text text-anchor="middle" x="953" y="699">NS</text>
</g>
<g id="edge36" class="edge"><title>16&#45;&gt;18</title>
<path style="fill:none;stroke:black;" d="M873,666C885,667 897,668 909,668"/>
<polygon style="fill:black;stroke:black;" points="909,664 919,668 909,671 909,664"/>
</g>
<g id="node40" class="node"><title>20</title>
<polygon style="fill:#399de5;stroke:black;" points="982,724 924,724 924,796 982,796 982,724"/>
<text text-anchor="middle" x="953" y="741">0.4988</text>
<text text-anchor="middle" x="953" y="757">24</text>
<text text-anchor="middle" x="953" y="773">[19, 21]</text>
<text text-anchor="middle" x="953" y="789">SD</text>
</g>
<g id="edge40" class="edge"><title>19&#45;&gt;20</title>
<path style="fill:none;stroke:black;" d="M848,765C870,764 894,763 913,762"/>
<polygon style="fill:black;stroke:black;" points="913,758 923,762 913,765 913,758"/>
</g>
<g id="node42" class="node"><title>21</title>
<polygon style="fill:#e58139;stroke:black;" points="983,814 923,814 923,886 983,886 983,814"/>
<text text-anchor="middle" x="953" y="831">0.2845</text>
<text text-anchor="middle" x="953" y="847">65</text>
<text text-anchor="middle" x="953" y="863">[82, 17]</text>
<text text-anchor="middle" x="953" y="879">NS</text>
</g>
<g id="edge42" class="edge"><title>19&#45;&gt;21</title>
<path style="fill:none;stroke:black;" d="M848,800C870,810 894,822 914,832"/>
<polygon style="fill:black;stroke:black;" points="915,829 923,836 912,835 915,829"/>
</g>
<g id="node46" class="node"><title>23</title>
<polygon style="fill:#e58139;stroke:black;" points="845,896 717,896 717,984 845,984 845,896"/>
<text text-anchor="middle" x="781" y="913">AGELVL_D &lt;= 0.5</text>
<text text-anchor="middle" x="781" y="929">0.0944</text>
<text text-anchor="middle" x="781" y="945">1659</text>
<text text-anchor="middle" x="781" y="961">[2506, 131]</text>
<text text-anchor="middle" x="781" y="977">NS</text>
</g>
<g id="edge46" class="edge"><title>22&#45;&gt;23</title>
<path style="fill:none;stroke:black;" d="M599,940C632,940 672,940 706,940"/>
<polygon style="fill:black;stroke:black;" points="706,936 716,940 706,943 706,936"/>
</g>
<g id="node52" class="node"><title>26</title>
<polygon style="fill:#e58139;stroke:black;" points="808,1002 754,1002 754,1074 808,1074 808,1002"/>
<text text-anchor="middle" x="781" y="1019">0.18</text>
<text text-anchor="middle" x="781" y="1035">9</text>
<text text-anchor="middle" x="781" y="1051">[9, 1]</text>
<text text-anchor="middle" x="781" y="1067">NS</text>
</g>
<g id="edge52" class="edge"><title>22&#45;&gt;26</title>
<path style="fill:none;stroke:black;" d="M599,966C645,984 706,1009 744,1023"/>
<polygon style="fill:black;stroke:black;" points="746,1020 754,1027 743,1027 746,1020"/>
</g>
<g id="node48" class="node"><title>24</title>
<polygon style="fill:#e58139;stroke:black;" points="993,904 913,904 913,976 993,976 993,904"/>
<text text-anchor="middle" x="953" y="921">0.0981</text>
<text text-anchor="middle" x="953" y="937">1549</text>
<text text-anchor="middle" x="953" y="953">[2347, 128]</text>
<text text-anchor="middle" x="953" y="969">NS</text>
</g>
<g id="edge48" class="edge"><title>23&#45;&gt;24</title>
<path style="fill:none;stroke:black;" d="M846,940C864,940 885,940 903,940"/>
<polygon style="fill:black;stroke:black;" points="903,936 913,940 903,943 903,936"/>
</g>
<g id="node50" class="node"><title>25</title>
<polygon style="fill:#e58139;stroke:black;" points="983,994 923,994 923,1066 983,1066 983,994"/>
<text text-anchor="middle" x="953" y="1011">0.0364</text>
<text text-anchor="middle" x="953" y="1027">110</text>
<text text-anchor="middle" x="953" y="1043">[159, 3]</text>
<text text-anchor="middle" x="953" y="1059">NS</text>
</g>
<g id="edge50" class="edge"><title>23&#45;&gt;25</title>
<path style="fill:none;stroke:black;" d="M846,974C869,986 893,999 914,1009"/>
<polygon style="fill:black;stroke:black;" points="916,1006 923,1014 913,1012 916,1006"/>
</g>
</g>
</svg>
