<?xml version="1.0" encoding="UTF-8" standalone="no"?>
<!DOCTYPE svg PUBLIC "-//W3C//DTD SVG 1.0//EN"
 "http://www.w3.org/TR/2001/REC-SVG-20010904/DTD/svg10.dtd">
<!-- Generated by dot version 2.2 (Tue Jan 25 21:58:56 UTC 2005)
     For user: (amfrye) Alex Frye   Title: Tree    Pages: 1 -->
<svg width="926pt" height="1262pt"
 viewBox = "-1 -1 925 1261"
 xmlns="http://www.w3.org/2000/svg">
<g id="graph0" class="graph" style="font-family:Times-Roman;font-size:14.00;">
<title>Tree</title>
<g id="node1" class="node"><title>0</title>
<polygon style="fill:#e58139;stroke:black;" points="159,671 5,671 5,759 159,759 159,671"/>
<text text-anchor="middle" x="82" y="688">IndAvgSalary &lt;= 0.7222</text>
<text text-anchor="middle" x="82" y="704">0.5</text>
<text text-anchor="middle" x="82" y="720">7510</text>
<text text-anchor="middle" x="82" y="736">[5984, 5953]</text>
<text text-anchor="middle" x="82" y="752">NS</text>
</g>
<g id="node2" class="node"><title>1</title>
<polygon style="fill:#399de5;stroke:black;" points="360,491 196,491 196,579 360,579 360,491"/>
<text text-anchor="middle" x="278" y="508">LowerLimitAge &lt;= 0.8194</text>
<text text-anchor="middle" x="278" y="524">0.4611</text>
<text text-anchor="middle" x="278" y="540">5204</text>
<text text-anchor="middle" x="278" y="556">[2966, 5262]</text>
<text text-anchor="middle" x="278" y="572">SD</text>
</g>
<g id="edge2" class="edge"><title>0&#45;&gt;1</title>
<path style="fill:none;stroke:black;" d="M130,671C158,645 194,613 222,586"/>
<polygon style="fill:black;stroke:black;" points="220,583 230,579 225,588 220,583"/>
<text text-anchor="middle" x="205" y="582">True</text>
</g>
<g id="node32" class="node"><title>16</title>
<polygon style="fill:#e58139;stroke:black;" points="355,851 201,851 201,939 355,939 355,851"/>
<text text-anchor="middle" x="278" y="868">IndAvgSalary &lt;= 0.8333</text>
<text text-anchor="middle" x="278" y="884">0.3032</text>
<text text-anchor="middle" x="278" y="900">2306</text>
<text text-anchor="middle" x="278" y="916">[3018, 691]</text>
<text text-anchor="middle" x="278" y="932">NS</text>
</g>
<g id="edge32" class="edge"><title>0&#45;&gt;16</title>
<path style="fill:none;stroke:black;" d="M130,759C158,785 194,817 222,844"/>
<polygon style="fill:black;stroke:black;" points="225,842 230,851 220,847 225,842"/>
<text text-anchor="middle" x="205" y="858">False</text>
</g>
<g id="node4" class="node"><title>2</title>
<polygon style="fill:#399de5;stroke:black;" points="527,229 401,229 401,317 527,317 527,229"/>
<text text-anchor="middle" x="464" y="246">AGELVL_F &lt;= 0.5</text>
<text text-anchor="middle" x="464" y="262">0.4408</text>
<text text-anchor="middle" x="464" y="278">4218</text>
<text text-anchor="middle" x="464" y="294">[2175, 4456]</text>
<text text-anchor="middle" x="464" y="310">SD</text>
</g>
<g id="edge4" class="edge"><title>1&#45;&gt;2</title>
<path style="fill:none;stroke:black;" d="M309,491C341,446 392,374 426,325"/>
<polygon style="fill:black;stroke:black;" points="423,323 432,317 429,327 423,323"/>
</g>
<g id="node18" class="node"><title>9</title>
<polygon style="fill:#399de5;stroke:black;" points="531,491 397,491 397,579 531,579 531,491"/>
<text text-anchor="middle" x="464" y="508">GSEGRD &lt;= 0.5625</text>
<text text-anchor="middle" x="464" y="524">0.5</text>
<text text-anchor="middle" x="464" y="540">986</text>
<text text-anchor="middle" x="464" y="556">[791, 806]</text>
<text text-anchor="middle" x="464" y="572">SD</text>
</g>
<g id="edge18" class="edge"><title>1&#45;&gt;9</title>
<path style="fill:none;stroke:black;" d="M361,535C370,535 378,535 387,535"/>
<polygon style="fill:black;stroke:black;" points="387,531 397,535 387,538 387,531"/>
</g>
<g id="node6" class="node"><title>3</title>
<polygon style="fill:#399de5;stroke:black;" points="774,86 590,86 590,174 774,174 774,86"/>
<text text-anchor="middle" x="682" y="103">YearsToRetirement &lt;= 0.4139</text>
<text text-anchor="middle" x="682" y="119">0.4431</text>
<text text-anchor="middle" x="682" y="135">4120</text>
<text text-anchor="middle" x="682" y="151">[2143, 4326]</text>
<text text-anchor="middle" x="682" y="167">SD</text>
</g>
<g id="edge6" class="edge"><title>2&#45;&gt;3</title>
<path style="fill:none;stroke:black;" d="M528,231C552,215 581,196 606,180"/>
<polygon style="fill:black;stroke:black;" points="605,177 615,174 609,182 605,177"/>
</g>
<g id="node12" class="node"><title>6</title>
<polygon style="fill:#399de5;stroke:black;" points="796,229 568,229 568,317 796,317 796,229"/>
<text text-anchor="middle" x="682" y="246">BLS_FEDERAL_Quits_Level &lt;= 0.5</text>
<text text-anchor="middle" x="682" y="262">0.317</text>
<text text-anchor="middle" x="682" y="278">98</text>
<text text-anchor="middle" x="682" y="294">[32, 130]</text>
<text text-anchor="middle" x="682" y="310">SD</text>
</g>
<g id="edge12" class="edge"><title>2&#45;&gt;6</title>
<path style="fill:none;stroke:black;" d="M528,273C537,273 547,273 557,273"/>
<polygon style="fill:black;stroke:black;" points="557,269 567,273 557,276 557,269"/>
</g>
<g id="node8" class="node"><title>4</title>
<polygon style="fill:#399de5;stroke:black;" points="919,4 833,4 833,76 919,76 919,4"/>
<text text-anchor="middle" x="876" y="21">0.3942</text>
<text text-anchor="middle" x="876" y="37">3457</text>
<text text-anchor="middle" x="876" y="53">[1470, 3975]</text>
<text text-anchor="middle" x="876" y="69">SD</text>
</g>
<g id="edge8" class="edge"><title>3&#45;&gt;4</title>
<path style="fill:none;stroke:black;" d="M774,87C791,80 808,71 824,64"/>
<polygon style="fill:black;stroke:black;" points="822,61 833,60 825,67 822,61"/>
</g>
<g id="node10" class="node"><title>5</title>
<polygon style="fill:#e58139;stroke:black;" points="912,94 840,94 840,166 912,166 912,94"/>
<text text-anchor="middle" x="876" y="111">0.4506</text>
<text text-anchor="middle" x="876" y="127">663</text>
<text text-anchor="middle" x="876" y="143">[673, 351]</text>
<text text-anchor="middle" x="876" y="159">NS</text>
</g>
<g id="edge10" class="edge"><title>3&#45;&gt;5</title>
<path style="fill:none;stroke:black;" d="M774,130C793,130 812,130 829,130"/>
<polygon style="fill:black;stroke:black;" points="829,126 839,130 829,133 829,126"/>
</g>
<g id="node14" class="node"><title>7</title>
<polygon style="fill:#399de5;stroke:black;" points="909,184 843,184 843,256 909,256 909,184"/>
<text text-anchor="middle" x="876" y="201">0.3355</text>
<text text-anchor="middle" x="876" y="217">84</text>
<text text-anchor="middle" x="876" y="233">[29, 107]</text>
<text text-anchor="middle" x="876" y="249">SD</text>
</g>
<g id="edge14" class="edge"><title>6&#45;&gt;7</title>
<path style="fill:none;stroke:black;" d="M797,242C810,238 822,235 832,232"/>
<polygon style="fill:black;stroke:black;" points="831,229 842,229 833,235 831,229"/>
</g>
<g id="node16" class="node"><title>8</title>
<polygon style="fill:#399de5;stroke:black;" points="903,274 849,274 849,346 903,346 903,274"/>
<text text-anchor="middle" x="876" y="291">0.2041</text>
<text text-anchor="middle" x="876" y="307">14</text>
<text text-anchor="middle" x="876" y="323">[3, 23]</text>
<text text-anchor="middle" x="876" y="339">SD</text>
</g>
<g id="edge16" class="edge"><title>6&#45;&gt;8</title>
<path style="fill:none;stroke:black;" d="M797,295C812,298 827,301 839,303"/>
<polygon style="fill:black;stroke:black;" points="840,300 849,305 839,306 840,300"/>
</g>
<g id="node20" class="node"><title>10</title>
<polygon style="fill:#399de5;stroke:black;" points="774,438 590,438 590,526 774,526 774,438"/>
<text text-anchor="middle" x="682" y="455">YearsToRetirement &lt;= 0.4122</text>
<text text-anchor="middle" x="682" y="471">0.4729</text>
<text text-anchor="middle" x="682" y="487">389</text>
<text text-anchor="middle" x="682" y="503">[244, 392]</text>
<text text-anchor="middle" x="682" y="519">SD</text>
</g>
<g id="edge20" class="edge"><title>9&#45;&gt;10</title>
<path style="fill:none;stroke:black;" d="M531,519C546,515 563,511 580,506"/>
<polygon style="fill:black;stroke:black;" points="580,503 590,504 581,509 580,503"/>
</g>
<g id="node26" class="node"><title>13</title>
<polygon style="fill:#e58139;stroke:black;" points="748,544 616,544 616,632 748,632 748,544"/>
<text text-anchor="middle" x="682" y="561">GSEGRD &lt;= 0.9375</text>
<text text-anchor="middle" x="682" y="577">0.4904</text>
<text text-anchor="middle" x="682" y="593">597</text>
<text text-anchor="middle" x="682" y="609">[547, 414]</text>
<text text-anchor="middle" x="682" y="625">NS</text>
</g>
<g id="edge26" class="edge"><title>9&#45;&gt;13</title>
<path style="fill:none;stroke:black;" d="M531,551C555,557 581,563 605,569"/>
<polygon style="fill:black;stroke:black;" points="606,566 615,572 604,572 606,566"/>
</g>
<g id="node22" class="node"><title>11</title>
<polygon style="fill:#399de5;stroke:black;" points="912,364 840,364 840,436 912,436 912,364"/>
<text text-anchor="middle" x="876" y="381">0.4383</text>
<text text-anchor="middle" x="876" y="397">348</text>
<text text-anchor="middle" x="876" y="413">[182, 379]</text>
<text text-anchor="middle" x="876" y="429">SD</text>
</g>
<g id="edge22" class="edge"><title>10&#45;&gt;11</title>
<path style="fill:none;stroke:black;" d="M774,443C793,435 813,426 830,420"/>
<polygon style="fill:black;stroke:black;" points="828,417 839,416 831,423 828,417"/>
</g>
<g id="node24" class="node"><title>12</title>
<polygon style="fill:#e58139;stroke:black;" points="906,454 846,454 846,526 906,526 906,454"/>
<text text-anchor="middle" x="876" y="471">0.2866</text>
<text text-anchor="middle" x="876" y="487">41</text>
<text text-anchor="middle" x="876" y="503">[62, 13]</text>
<text text-anchor="middle" x="876" y="519">NS</text>
</g>
<g id="edge24" class="edge"><title>10&#45;&gt;12</title>
<path style="fill:none;stroke:black;" d="M774,486C796,487 818,488 836,489"/>
<polygon style="fill:black;stroke:black;" points="836,485 846,489 836,492 836,485"/>
</g>
<g id="node28" class="node"><title>14</title>
<polygon style="fill:#e58139;stroke:black;" points="913,544 839,544 839,616 913,616 913,544"/>
<text text-anchor="middle" x="876" y="561">0.4839</text>
<text text-anchor="middle" x="876" y="577">524</text>
<text text-anchor="middle" x="876" y="593">[499, 347]</text>
<text text-anchor="middle" x="876" y="609">NS</text>
</g>
<g id="edge28" class="edge"><title>13&#45;&gt;14</title>
<path style="fill:none;stroke:black;" d="M749,585C775,584 805,583 829,582"/>
<polygon style="fill:black;stroke:black;" points="829,578 839,582 829,585 829,578"/>
</g>
<g id="node30" class="node"><title>15</title>
<polygon style="fill:#399de5;stroke:black;" points="906,634 846,634 846,706 906,706 906,634"/>
<text text-anchor="middle" x="876" y="651">0.4864</text>
<text text-anchor="middle" x="876" y="667">73</text>
<text text-anchor="middle" x="876" y="683">[48, 67]</text>
<text text-anchor="middle" x="876" y="699">SD</text>
</g>
<g id="edge30" class="edge"><title>13&#45;&gt;15</title>
<path style="fill:none;stroke:black;" d="M749,616C778,628 811,642 837,653"/>
<polygon style="fill:black;stroke:black;" points="838,650 846,657 835,656 838,650"/>
</g>
<g id="node34" class="node"><title>17</title>
<polygon style="fill:#e58139;stroke:black;" points="528,851 400,851 400,939 528,939 528,851"/>
<text text-anchor="middle" x="464" y="868">AGELVL_C &lt;= 0.5</text>
<text text-anchor="middle" x="464" y="884">0.4177</text>
<text text-anchor="middle" x="464" y="900">924</text>
<text text-anchor="middle" x="464" y="916">[1029, 435]</text>
<text text-anchor="middle" x="464" y="932">NS</text>
</g>
<g id="edge34" class="edge"><title>16&#45;&gt;17</title>
<path style="fill:none;stroke:black;" d="M356,895C367,895 379,895 390,895"/>
<polygon style="fill:black;stroke:black;" points="390,891 400,895 390,898 390,891"/>
</g>
<g id="node48" class="node"><title>24</title>
<polygon style="fill:#e58139;stroke:black;" points="517,1076 411,1076 411,1164 517,1164 517,1076"/>
<text text-anchor="middle" x="464" y="1093">LOSSqrt &lt;= 0.5</text>
<text text-anchor="middle" x="464" y="1109">0.2021</text>
<text text-anchor="middle" x="464" y="1125">1382</text>
<text text-anchor="middle" x="464" y="1141">[1989, 256]</text>
<text text-anchor="middle" x="464" y="1157">NS</text>
</g>
<g id="edge48" class="edge"><title>16&#45;&gt;24</title>
<path style="fill:none;stroke:black;" d="M315,939C346,976 389,1029 421,1068"/>
<polygon style="fill:black;stroke:black;" points="424,1066 428,1076 419,1071 424,1066"/>
</g>
<g id="node36" class="node"><title>18</title>
<polygon style="fill:#e58139;stroke:black;" points="760,798 604,798 604,886 760,886 760,798"/>
<text text-anchor="middle" x="682" y="815">IndAvgSalaryLog &lt;= 0.5</text>
<text text-anchor="middle" x="682" y="831">0.4124</text>
<text text-anchor="middle" x="682" y="847">868</text>
<text text-anchor="middle" x="682" y="863">[981, 402]</text>
<text text-anchor="middle" x="682" y="879">NS</text>
</g>
<g id="edge36" class="edge"><title>17&#45;&gt;18</title>
<path style="fill:none;stroke:black;" d="M528,879C549,874 572,869 594,863"/>
<polygon style="fill:black;stroke:black;" points="594,860 604,861 595,866 594,860"/>
</g>
<g id="node42" class="node"><title>21</title>
<polygon style="fill:#e58139;stroke:black;" points="789,904 575,904 575,992 789,992 789,904"/>
<text text-anchor="middle" x="682" y="921">SalaryOverUnderIndAvg &lt;= 0.1667</text>
<text text-anchor="middle" x="682" y="937">0.4829</text>
<text text-anchor="middle" x="682" y="953">56</text>
<text text-anchor="middle" x="682" y="969">[48, 33]</text>
<text text-anchor="middle" x="682" y="985">NS</text>
</g>
<g id="edge42" class="edge"><title>17&#45;&gt;21</title>
<path style="fill:none;stroke:black;" d="M528,911C540,913 553,916 565,920"/>
<polygon style="fill:black;stroke:black;" points="566,917 575,922 565,923 566,917"/>
</g>
<g id="node38" class="node"><title>19</title>
<polygon style="fill:#e58139;stroke:black;" points="913,724 839,724 839,796 913,796 913,724"/>
<text text-anchor="middle" x="876" y="741">0.4155</text>
<text text-anchor="middle" x="876" y="757">850</text>
<text text-anchor="middle" x="876" y="773">[956, 399]</text>
<text text-anchor="middle" x="876" y="789">NS</text>
</g>
<g id="edge38" class="edge"><title>18&#45;&gt;19</title>
<path style="fill:none;stroke:black;" d="M760,809C783,799 808,788 829,780"/>
<polygon style="fill:black;stroke:black;" points="827,777 838,776 830,783 827,777"/>
</g>
<g id="node40" class="node"><title>20</title>
<polygon style="fill:#e58139;stroke:black;" points="903,814 849,814 849,886 903,886 903,814"/>
<text text-anchor="middle" x="876" y="831">0.1913</text>
<text text-anchor="middle" x="876" y="847">18</text>
<text text-anchor="middle" x="876" y="863">[25, 3]</text>
<text text-anchor="middle" x="876" y="879">NS</text>
</g>
<g id="edge40" class="edge"><title>18&#45;&gt;20</title>
<path style="fill:none;stroke:black;" d="M760,845C787,846 817,847 839,849"/>
<polygon style="fill:black;stroke:black;" points="839,845 849,849 839,852 839,845"/>
</g>
<g id="node44" class="node"><title>22</title>
<polygon style="fill:#e58139;stroke:black;" points="903,904 849,904 849,976 903,976 903,904"/>
<text text-anchor="middle" x="876" y="921">0.32</text>
<text text-anchor="middle" x="876" y="937">10</text>
<text text-anchor="middle" x="876" y="953">[12, 3]</text>
<text text-anchor="middle" x="876" y="969">NS</text>
</g>
<g id="edge44" class="edge"><title>21&#45;&gt;22</title>
<path style="fill:none;stroke:black;" d="M789,944C807,943 824,942 839,942"/>
<polygon style="fill:black;stroke:black;" points="839,939 849,941 839,945 839,939"/>
</g>
<g id="node46" class="node"><title>23</title>
<polygon style="fill:#e58139;stroke:black;" points="906,994 846,994 846,1066 906,1066 906,994"/>
<text text-anchor="middle" x="876" y="1011">0.4959</text>
<text text-anchor="middle" x="876" y="1027">46</text>
<text text-anchor="middle" x="876" y="1043">[36, 30]</text>
<text text-anchor="middle" x="876" y="1059">NS</text>
</g>
<g id="edge46" class="edge"><title>21&#45;&gt;23</title>
<path style="fill:none;stroke:black;" d="M786,992C804,999 821,1007 835,1013"/>
<polygon style="fill:black;stroke:black;" points="837,1010 845,1017 834,1017 837,1010"/>
</g>
<g id="node50" class="node"><title>25</title>
<polygon style="fill:#e58139;stroke:black;" points="734,1076 630,1076 630,1164 734,1164 734,1076"/>
<text text-anchor="middle" x="682" y="1093">LOC_01 &lt;= 0.5</text>
<text text-anchor="middle" x="682" y="1109">0.1994</text>
<text text-anchor="middle" x="682" y="1125">1368</text>
<text text-anchor="middle" x="682" y="1141">[1976, 250]</text>
<text text-anchor="middle" x="682" y="1157">NS</text>
</g>
<g id="edge50" class="edge"><title>24&#45;&gt;25</title>
<path style="fill:none;stroke:black;" d="M518,1120C549,1120 587,1120 619,1120"/>
<polygon style="fill:black;stroke:black;" points="619,1116 629,1120 619,1123 619,1116"/>
</g>
<g id="node56" class="node"><title>28</title>
<polygon style="fill:#e58139;stroke:black;" points="709,1182 655,1182 655,1254 709,1254 709,1182"/>
<text text-anchor="middle" x="682" y="1199">0.4321</text>
<text text-anchor="middle" x="682" y="1215">14</text>
<text text-anchor="middle" x="682" y="1231">[13, 6]</text>
<text text-anchor="middle" x="682" y="1247">NS</text>
</g>
<g id="edge56" class="edge"><title>24&#45;&gt;28</title>
<path style="fill:none;stroke:black;" d="M518,1149C533,1157 551,1166 567,1173 593,1184 622,1196 645,1205"/>
<polygon style="fill:black;stroke:black;" points="646,1202 655,1208 644,1208 646,1202"/>
</g>
<g id="node52" class="node"><title>26</title>
<polygon style="fill:#e58139;stroke:black;" points="906,1084 846,1084 846,1156 906,1156 906,1084"/>
<text text-anchor="middle" x="876" y="1101">0.4135</text>
<text text-anchor="middle" x="876" y="1117">69</text>
<text text-anchor="middle" x="876" y="1133">[80, 33]</text>
<text text-anchor="middle" x="876" y="1149">NS</text>
</g>
<g id="edge52" class="edge"><title>25&#45;&gt;26</title>
<path style="fill:none;stroke:black;" d="M735,1120C766,1120 806,1120 835,1120"/>
<polygon style="fill:black;stroke:black;" points="835,1116 845,1120 835,1123 835,1116"/>
</g>
<g id="node54" class="node"><title>27</title>
<polygon style="fill:#e58139;stroke:black;" points="915,1174 837,1174 837,1246 915,1246 915,1174"/>
<text text-anchor="middle" x="876" y="1191">0.1843</text>
<text text-anchor="middle" x="876" y="1207">1299</text>
<text text-anchor="middle" x="876" y="1223">[1896, 217]</text>
<text text-anchor="middle" x="876" y="1239">NS</text>
</g>
<g id="edge54" class="edge"><title>25&#45;&gt;27</title>
<path style="fill:none;stroke:black;" d="M735,1145C754,1154 777,1164 797,1173 807,1177 817,1183 827,1187"/>
<polygon style="fill:black;stroke:black;" points="828,1184 836,1191 825,1190 828,1184"/>
</g>
</g>
</svg>
