<?xml version="1.0" encoding="UTF-8" standalone="no"?>
<!DOCTYPE svg PUBLIC "-//W3C//DTD SVG 1.0//EN"
 "http://www.w3.org/TR/2001/REC-SVG-20010904/DTD/svg10.dtd">
<!-- Generated by dot version 2.2 (Tue Jan 25 21:58:56 UTC 2005)
     For user: (amfrye) Alex Frye   Title: Tree    Pages: 1 -->
<svg width="1068pt" height="1098pt"
 viewBox = "-1 -1 1067 1097"
 xmlns="http://www.w3.org/2000/svg">
<g id="graph0" class="graph" style="font-family:Times-Roman;font-size:14.00;">
<title>Tree</title>
<g id="node1" class="node"><title>0</title>
<polygon style="fill:#399de5;stroke:black;" points="229,626 5,626 5,714 229,714 229,626"/>
<text text-anchor="middle" x="117" y="643">BLS_FEDERAL_Quits_Rate &lt;= 0.5</text>
<text text-anchor="middle" x="117" y="659">0.5</text>
<text text-anchor="middle" x="117" y="675">7595</text>
<text text-anchor="middle" x="117" y="691">[5963, 5974]</text>
<text text-anchor="middle" x="117" y="707">SD</text>
</g>
<g id="node2" class="node"><title>1</title>
<polygon style="fill:#e58139;stroke:black;" points="450,491 266,491 266,579 450,579 450,491"/>
<text text-anchor="middle" x="358" y="508">YearsToRetirement &lt;= 0.3693</text>
<text text-anchor="middle" x="358" y="524">0.4985</text>
<text text-anchor="middle" x="358" y="540">6803</text>
<text text-anchor="middle" x="358" y="556">[5636, 5048]</text>
<text text-anchor="middle" x="358" y="572">NS</text>
</g>
<g id="edge2" class="edge"><title>0&#45;&gt;1</title>
<path style="fill:none;stroke:black;" d="M196,626C220,613 246,598 271,584"/>
<polygon style="fill:black;stroke:black;" points="270,581 280,579 273,587 270,581"/>
<text text-anchor="middle" x="256" y="577">True</text>
</g>
<g id="node32" class="node"><title>16</title>
<polygon style="fill:#399de5;stroke:black;" points="441,761 275,761 275,849 441,849 441,761"/>
<text text-anchor="middle" x="358" y="778">LowerLimitAge &lt;= 0.4028</text>
<text text-anchor="middle" x="358" y="794">0.3857</text>
<text text-anchor="middle" x="358" y="810">792</text>
<text text-anchor="middle" x="358" y="826">[327, 926]</text>
<text text-anchor="middle" x="358" y="842">SD</text>
</g>
<g id="edge32" class="edge"><title>0&#45;&gt;16</title>
<path style="fill:none;stroke:black;" d="M196,714C220,727 246,742 271,756"/>
<polygon style="fill:black;stroke:black;" points="273,753 280,761 270,759 273,753"/>
<text text-anchor="middle" x="256" y="773">False</text>
</g>
<g id="node4" class="node"><title>2</title>
<polygon style="fill:#399de5;stroke:black;" points="654,229 488,229 488,317 654,317 654,229"/>
<text text-anchor="middle" x="571" y="246">LowerLimitAge &lt;= 0.4028</text>
<text text-anchor="middle" x="571" y="262">0.4163</text>
<text text-anchor="middle" x="571" y="278">3767</text>
<text text-anchor="middle" x="571" y="294">[1758, 4193]</text>
<text text-anchor="middle" x="571" y="310">SD</text>
</g>
<g id="edge4" class="edge"><title>1&#45;&gt;2</title>
<path style="fill:none;stroke:black;" d="M394,491C431,446 489,374 529,325"/>
<polygon style="fill:black;stroke:black;" points="526,323 535,317 532,327 526,323"/>
</g>
<g id="node18" class="node"><title>9</title>
<polygon style="fill:#e58139;stroke:black;" points="637,491 505,491 505,579 637,579 637,491"/>
<text text-anchor="middle" x="571" y="508">GSEGRD &lt;= 0.6875</text>
<text text-anchor="middle" x="571" y="524">0.296</text>
<text text-anchor="middle" x="571" y="540">3036</text>
<text text-anchor="middle" x="571" y="556">[3878, 855]</text>
<text text-anchor="middle" x="571" y="572">NS</text>
</g>
<g id="edge18" class="edge"><title>1&#45;&gt;9</title>
<path style="fill:none;stroke:black;" d="M451,535C465,535 480,535 494,535"/>
<polygon style="fill:black;stroke:black;" points="494,531 504,535 494,538 494,531"/>
</g>
<g id="node6" class="node"><title>3</title>
<polygon style="fill:#399de5;stroke:black;" points="909,86 725,86 725,174 909,174 909,86"/>
<text text-anchor="middle" x="817" y="103">YearsToRetirement &lt;= 0.2438</text>
<text text-anchor="middle" x="817" y="119">0.4551</text>
<text text-anchor="middle" x="817" y="135">1662</text>
<text text-anchor="middle" x="817" y="151">[923, 1713]</text>
<text text-anchor="middle" x="817" y="167">SD</text>
</g>
<g id="edge6" class="edge"><title>2&#45;&gt;3</title>
<path style="fill:none;stroke:black;" d="M647,229C674,214 704,196 732,179"/>
<polygon style="fill:black;stroke:black;" points="731,176 741,174 734,182 731,176"/>
</g>
<g id="node12" class="node"><title>6</title>
<polygon style="fill:#399de5;stroke:black;" points="894,229 740,229 740,317 894,317 894,229"/>
<text text-anchor="middle" x="817" y="246">IndAvgSalary &lt;= 0.8333</text>
<text text-anchor="middle" x="817" y="262">0.3769</text>
<text text-anchor="middle" x="817" y="278">2105</text>
<text text-anchor="middle" x="817" y="294">[835, 2480]</text>
<text text-anchor="middle" x="817" y="310">SD</text>
</g>
<g id="edge12" class="edge"><title>2&#45;&gt;6</title>
<path style="fill:none;stroke:black;" d="M655,273C679,273 705,273 729,273"/>
<polygon style="fill:black;stroke:black;" points="729,269 739,273 729,276 729,269"/>
</g>
<g id="node8" class="node"><title>4</title>
<polygon style="fill:#399de5;stroke:black;" points="1057,4 983,4 983,76 1057,76 1057,4"/>
<text text-anchor="middle" x="1020" y="21">0.3441</text>
<text text-anchor="middle" x="1020" y="37">776</text>
<text text-anchor="middle" x="1020" y="53">[272, 960]</text>
<text text-anchor="middle" x="1020" y="69">SD</text>
</g>
<g id="edge8" class="edge"><title>3&#45;&gt;4</title>
<path style="fill:none;stroke:black;" d="M910,89C932,79 955,69 974,60"/>
<polygon style="fill:black;stroke:black;" points="972,57 983,56 975,63 972,57"/>
</g>
<g id="node10" class="node"><title>5</title>
<polygon style="fill:#399de5;stroke:black;" points="1056,94 984,94 984,166 1056,166 1056,94"/>
<text text-anchor="middle" x="1020" y="111">0.4974</text>
<text text-anchor="middle" x="1020" y="127">886</text>
<text text-anchor="middle" x="1020" y="143">[651, 753]</text>
<text text-anchor="middle" x="1020" y="159">SD</text>
</g>
<g id="edge10" class="edge"><title>3&#45;&gt;5</title>
<path style="fill:none;stroke:black;" d="M910,130C932,130 955,130 974,130"/>
<polygon style="fill:black;stroke:black;" points="974,126 984,130 974,133 974,126"/>
</g>
<g id="node14" class="node"><title>7</title>
<polygon style="fill:#399de5;stroke:black;" points="1060,184 980,184 980,256 1060,256 1060,184"/>
<text text-anchor="middle" x="1020" y="201">0.3656</text>
<text text-anchor="middle" x="1020" y="217">1955</text>
<text text-anchor="middle" x="1020" y="233">[745, 2349]</text>
<text text-anchor="middle" x="1020" y="249">SD</text>
</g>
<g id="edge14" class="edge"><title>6&#45;&gt;7</title>
<path style="fill:none;stroke:black;" d="M895,253C920,246 947,239 969,233"/>
<polygon style="fill:black;stroke:black;" points="969,230 979,231 970,236 969,230"/>
</g>
<g id="node16" class="node"><title>8</title>
<polygon style="fill:#399de5;stroke:black;" points="1053,274 987,274 987,346 1053,346 1053,274"/>
<text text-anchor="middle" x="1020" y="291">0.4828</text>
<text text-anchor="middle" x="1020" y="307">150</text>
<text text-anchor="middle" x="1020" y="323">[90, 131]</text>
<text text-anchor="middle" x="1020" y="339">SD</text>
</g>
<g id="edge16" class="edge"><title>6&#45;&gt;8</title>
<path style="fill:none;stroke:black;" d="M895,287C923,292 953,298 977,302"/>
<polygon style="fill:black;stroke:black;" points="978,299 987,304 977,305 978,299"/>
</g>
<g id="node20" class="node"><title>10</title>
<polygon style="fill:#e58139;stroke:black;" points="943,438 691,438 691,526 943,526 943,438"/>
<text text-anchor="middle" x="817" y="455">BLS_FEDERAL_OtherSep_Level &lt;= 0.5</text>
<text text-anchor="middle" x="817" y="471">0.3322</text>
<text text-anchor="middle" x="817" y="487">1369</text>
<text text-anchor="middle" x="817" y="503">[1704, 454]</text>
<text text-anchor="middle" x="817" y="519">NS</text>
</g>
<g id="edge20" class="edge"><title>9&#45;&gt;10</title>
<path style="fill:none;stroke:black;" d="M638,521C651,518 666,514 681,511"/>
<polygon style="fill:black;stroke:black;" points="681,508 691,509 682,514 681,508"/>
</g>
<g id="node26" class="node"><title>13</title>
<polygon style="fill:#e58139;stroke:black;" points="931,544 703,544 703,632 931,632 931,544"/>
<text text-anchor="middle" x="817" y="561">BLS_FEDERAL_Quits_Level &lt;= 0.5</text>
<text text-anchor="middle" x="817" y="577">0.263</text>
<text text-anchor="middle" x="817" y="593">1667</text>
<text text-anchor="middle" x="817" y="609">[2174, 401]</text>
<text text-anchor="middle" x="817" y="625">NS</text>
</g>
<g id="edge26" class="edge"><title>9&#45;&gt;13</title>
<path style="fill:none;stroke:black;" d="M638,549C655,552 674,557 692,561"/>
<polygon style="fill:black;stroke:black;" points="693,558 702,563 692,564 693,558"/>
</g>
<g id="node22" class="node"><title>11</title>
<polygon style="fill:#e58139;stroke:black;" points="1060,364 980,364 980,436 1060,436 1060,364"/>
<text text-anchor="middle" x="1020" y="381">0.3078</text>
<text text-anchor="middle" x="1020" y="397">1225</text>
<text text-anchor="middle" x="1020" y="413">[1569, 368]</text>
<text text-anchor="middle" x="1020" y="429">NS</text>
</g>
<g id="edge22" class="edge"><title>10&#45;&gt;11</title>
<path style="fill:none;stroke:black;" d="M926,438C941,432 956,426 969,421"/>
<polygon style="fill:black;stroke:black;" points="968,417 979,417 971,424 968,417"/>
</g>
<g id="node24" class="node"><title>12</title>
<polygon style="fill:#e58139;stroke:black;" points="1053,454 987,454 987,526 1053,526 1053,454"/>
<text text-anchor="middle" x="1020" y="471">0.4754</text>
<text text-anchor="middle" x="1020" y="487">144</text>
<text text-anchor="middle" x="1020" y="503">[135, 86]</text>
<text text-anchor="middle" x="1020" y="519">NS</text>
</g>
<g id="edge24" class="edge"><title>10&#45;&gt;12</title>
<path style="fill:none;stroke:black;" d="M943,487C955,488 966,488 976,488"/>
<polygon style="fill:black;stroke:black;" points="976,485 986,489 976,491 976,485"/>
</g>
<g id="node28" class="node"><title>14</title>
<polygon style="fill:#e58139;stroke:black;" points="1060,544 980,544 980,616 1060,616 1060,544"/>
<text text-anchor="middle" x="1020" y="561">0.2502</text>
<text text-anchor="middle" x="1020" y="577">1452</text>
<text text-anchor="middle" x="1020" y="593">[1898, 326]</text>
<text text-anchor="middle" x="1020" y="609">NS</text>
</g>
<g id="edge28" class="edge"><title>13&#45;&gt;14</title>
<path style="fill:none;stroke:black;" d="M932,583C945,583 957,582 969,582"/>
<polygon style="fill:black;stroke:black;" points="969,578 979,582 969,585 969,578"/>
</g>
<g id="node30" class="node"><title>15</title>
<polygon style="fill:#e58139;stroke:black;" points="1053,634 987,634 987,706 1053,706 1053,634"/>
<text text-anchor="middle" x="1020" y="651">0.336</text>
<text text-anchor="middle" x="1020" y="667">215</text>
<text text-anchor="middle" x="1020" y="683">[276, 75]</text>
<text text-anchor="middle" x="1020" y="699">NS</text>
</g>
<g id="edge30" class="edge"><title>13&#45;&gt;15</title>
<path style="fill:none;stroke:black;" d="M926,632C944,639 962,647 977,652"/>
<polygon style="fill:black;stroke:black;" points="979,649 987,656 976,656 979,649"/>
</g>
<g id="node34" class="node"><title>17</title>
<polygon style="fill:#399de5;stroke:black;" points="635,761 507,761 507,849 635,849 635,761"/>
<text text-anchor="middle" x="571" y="778">AGELVL_G &lt;= 0.5</text>
<text text-anchor="middle" x="571" y="794">0.4402</text>
<text text-anchor="middle" x="571" y="810">329</text>
<text text-anchor="middle" x="571" y="826">[175, 360]</text>
<text text-anchor="middle" x="571" y="842">SD</text>
</g>
<g id="edge34" class="edge"><title>16&#45;&gt;17</title>
<path style="fill:none;stroke:black;" d="M442,805C460,805 479,805 496,805"/>
<polygon style="fill:black;stroke:black;" points="496,801 506,805 496,808 496,801"/>
</g>
<g id="node44" class="node"><title>22</title>
<polygon style="fill:#399de5;stroke:black;" points="635,912 507,912 507,1000 635,1000 635,912"/>
<text text-anchor="middle" x="571" y="929">AGELVL_E &lt;= 0.5</text>
<text text-anchor="middle" x="571" y="945">0.3338</text>
<text text-anchor="middle" x="571" y="961">463</text>
<text text-anchor="middle" x="571" y="977">[152, 566]</text>
<text text-anchor="middle" x="571" y="993">SD</text>
</g>
<g id="edge44" class="edge"><title>16&#45;&gt;22</title>
<path style="fill:none;stroke:black;" d="M420,849C445,867 475,888 501,906"/>
<polygon style="fill:black;stroke:black;" points="503,903 509,912 499,909 503,903"/>
</g>
<g id="node36" class="node"><title>18</title>
<polygon style="fill:#399de5;stroke:black;" points="914,716 720,716 720,804 914,804 914,716"/>
<text text-anchor="middle" x="817" y="733">SalaryOverUnderIndAvg &lt;= 0.5</text>
<text text-anchor="middle" x="817" y="749">0.4423</text>
<text text-anchor="middle" x="817" y="765">316</text>
<text text-anchor="middle" x="817" y="781">[171, 347]</text>
<text text-anchor="middle" x="817" y="797">SD</text>
</g>
<g id="edge36" class="edge"><title>17&#45;&gt;18</title>
<path style="fill:none;stroke:black;" d="M636,793C659,789 684,784 709,780"/>
<polygon style="fill:black;stroke:black;" points="709,777 719,778 710,783 709,777"/>
</g>
<g id="node42" class="node"><title>21</title>
<polygon style="fill:#399de5;stroke:black;" points="844,822 790,822 790,894 844,894 844,822"/>
<text text-anchor="middle" x="817" y="839">0.3599</text>
<text text-anchor="middle" x="817" y="855">13</text>
<text text-anchor="middle" x="817" y="871">[4, 13]</text>
<text text-anchor="middle" x="817" y="887">SD</text>
</g>
<g id="edge42" class="edge"><title>17&#45;&gt;21</title>
<path style="fill:none;stroke:black;" d="M636,819C682,829 742,842 779,850"/>
<polygon style="fill:black;stroke:black;" points="780,847 789,852 779,853 780,847"/>
</g>
<g id="node38" class="node"><title>19</title>
<polygon style="fill:#399de5;stroke:black;" points="1057,724 983,724 983,796 1057,796 1057,724"/>
<text text-anchor="middle" x="1020" y="741">0.4192</text>
<text text-anchor="middle" x="1020" y="757">246</text>
<text text-anchor="middle" x="1020" y="773">[122, 286]</text>
<text text-anchor="middle" x="1020" y="789">SD</text>
</g>
<g id="edge38" class="edge"><title>18&#45;&gt;19</title>
<path style="fill:none;stroke:black;" d="M915,760C935,760 955,760 973,760"/>
<polygon style="fill:black;stroke:black;" points="973,756 983,760 973,763 973,756"/>
</g>
<g id="node40" class="node"><title>20</title>
<polygon style="fill:#399de5;stroke:black;" points="1050,814 990,814 990,886 1050,886 1050,814"/>
<text text-anchor="middle" x="1020" y="831">0.494</text>
<text text-anchor="middle" x="1020" y="847">70</text>
<text text-anchor="middle" x="1020" y="863">[49, 61]</text>
<text text-anchor="middle" x="1020" y="879">SD</text>
</g>
<g id="edge40" class="edge"><title>18&#45;&gt;20</title>
<path style="fill:none;stroke:black;" d="M915,801C924,805 934,809 943,813 956,819 969,825 981,830"/>
<polygon style="fill:black;stroke:black;" points="983,827 990,835 980,833 983,827"/>
</g>
<g id="node46" class="node"><title>23</title>
<polygon style="fill:#399de5;stroke:black;" points="908,912 726,912 726,1000 908,1000 908,912"/>
<text text-anchor="middle" x="817" y="929">YearsToRetirement &lt;= 0.1813</text>
<text text-anchor="middle" x="817" y="945">0.3426</text>
<text text-anchor="middle" x="817" y="961">446</text>
<text text-anchor="middle" x="817" y="977">[151, 537]</text>
<text text-anchor="middle" x="817" y="993">SD</text>
</g>
<g id="edge46" class="edge"><title>22&#45;&gt;23</title>
<path style="fill:none;stroke:black;" d="M635,956C660,956 688,956 716,956"/>
<polygon style="fill:black;stroke:black;" points="716,952 726,956 716,959 716,952"/>
</g>
<g id="node52" class="node"><title>26</title>
<polygon style="fill:#399de5;stroke:black;" points="845,1018 789,1018 789,1090 845,1090 845,1018"/>
<text text-anchor="middle" x="817" y="1035">0.0644</text>
<text text-anchor="middle" x="817" y="1051">17</text>
<text text-anchor="middle" x="817" y="1067">[1, 29]</text>
<text text-anchor="middle" x="817" y="1083">SD</text>
</g>
<g id="edge52" class="edge"><title>22&#45;&gt;26</title>
<path style="fill:none;stroke:black;" d="M635,986C653,994 673,1002 691,1009 721,1021 754,1033 779,1042"/>
<polygon style="fill:black;stroke:black;" points="780,1039 789,1045 778,1045 780,1039"/>
</g>
<g id="node48" class="node"><title>24</title>
<polygon style="fill:#399de5;stroke:black;" points="1053,912 987,912 987,984 1053,984 1053,912"/>
<text text-anchor="middle" x="1020" y="929">0.1367</text>
<text text-anchor="middle" x="1020" y="945">177</text>
<text text-anchor="middle" x="1020" y="961">[20, 251]</text>
<text text-anchor="middle" x="1020" y="977">SD</text>
</g>
<g id="edge48" class="edge"><title>23&#45;&gt;24</title>
<path style="fill:none;stroke:black;" d="M908,952C932,951 956,950 976,949"/>
<polygon style="fill:black;stroke:black;" points="976,945 986,949 976,952 976,945"/>
</g>
<g id="node50" class="node"><title>25</title>
<polygon style="fill:#399de5;stroke:black;" points="1056,1002 984,1002 984,1074 1056,1074 1056,1002"/>
<text text-anchor="middle" x="1020" y="1019">0.4309</text>
<text text-anchor="middle" x="1020" y="1035">269</text>
<text text-anchor="middle" x="1020" y="1051">[131, 286]</text>
<text text-anchor="middle" x="1020" y="1067">SD</text>
</g>
<g id="edge50" class="edge"><title>23&#45;&gt;25</title>
<path style="fill:none;stroke:black;" d="M908,993C931,1002 954,1012 974,1019"/>
<polygon style="fill:black;stroke:black;" points="975,1016 983,1023 972,1022 975,1016"/>
</g>
</g>
</svg>
