<?xml version="1.0" encoding="UTF-8" standalone="no"?>
<!DOCTYPE svg PUBLIC "-//W3C//DTD SVG 1.0//EN"
 "http://www.w3.org/TR/2001/REC-SVG-20010904/DTD/svg10.dtd">
<!-- Generated by dot version 2.2 (Tue Jan 25 21:58:56 UTC 2005)
     For user: (amfrye) Alex Frye   Title: Tree    Pages: 1 -->
<svg width="1118pt" height="1262pt"
 viewBox = "-1 -1 1117 1261"
 xmlns="http://www.w3.org/2000/svg">
<g id="graph0" class="graph" style="font-family:Times-Roman;font-size:14.00;">
<title>Tree</title>
<g id="node1" class="node"><title>0</title>
<polygon style="fill:#399de5;stroke:black;" points="190,671 6,671 6,759 190,759 190,671"/>
<text text-anchor="middle" x="98" y="688">YearsToRetirement &lt;= 0.4002</text>
<text text-anchor="middle" x="98" y="704">0.5</text>
<text text-anchor="middle" x="98" y="720">7535</text>
<text text-anchor="middle" x="98" y="736">[5931, 6006]</text>
<text text-anchor="middle" x="98" y="752">SD</text>
</g>
<g id="node2" class="node"><title>1</title>
<polygon style="fill:#399de5;stroke:black;" points="428,491 294,491 294,579 428,579 428,491"/>
<text text-anchor="middle" x="361" y="508">GSEGRD &lt;= 0.5625</text>
<text text-anchor="middle" x="361" y="524">0.4298</text>
<text text-anchor="middle" x="361" y="540">4891</text>
<text text-anchor="middle" x="361" y="556">[2431, 5346]</text>
<text text-anchor="middle" x="361" y="572">SD</text>
</g>
<g id="edge2" class="edge"><title>0&#45;&gt;1</title>
<path style="fill:none;stroke:black;" d="M162,671C200,645 249,612 289,585"/>
<polygon style="fill:black;stroke:black;" points="287,582 297,579 291,588 287,582"/>
<text text-anchor="middle" x="272" y="580">True</text>
</g>
<g id="node32" class="node"><title>16</title>
<polygon style="fill:#e58139;stroke:black;" points="494,851 228,851 228,939 494,939 494,851"/>
<text text-anchor="middle" x="361" y="868">BLS_FEDERAL_JobOpenings_Rate &lt;= 0.5</text>
<text text-anchor="middle" x="361" y="884">0.267</text>
<text text-anchor="middle" x="361" y="900">2644</text>
<text text-anchor="middle" x="361" y="916">[3500, 660]</text>
<text text-anchor="middle" x="361" y="932">NS</text>
</g>
<g id="edge32" class="edge"><title>0&#45;&gt;16</title>
<path style="fill:none;stroke:black;" d="M162,759C200,785 249,818 289,845"/>
<polygon style="fill:black;stroke:black;" points="291,842 297,851 287,848 291,842"/>
<text text-anchor="middle" x="272" y="860">False</text>
</g>
<g id="node4" class="node"><title>2</title>
<polygon style="fill:#399de5;stroke:black;" points="729,229 575,229 575,317 729,317 729,229"/>
<text text-anchor="middle" x="652" y="246">IndAvgSalary &lt;= 0.8333</text>
<text text-anchor="middle" x="652" y="262">0.3582</text>
<text text-anchor="middle" x="652" y="278">2117</text>
<text text-anchor="middle" x="652" y="294">[788, 2583]</text>
<text text-anchor="middle" x="652" y="310">SD</text>
</g>
<g id="edge4" class="edge"><title>1&#45;&gt;2</title>
<path style="fill:none;stroke:black;" d="M410,491C462,445 541,373 596,324"/>
<polygon style="fill:black;stroke:black;" points="593,322 603,317 598,327 593,322"/>
</g>
<g id="node18" class="node"><title>9</title>
<polygon style="fill:#399de5;stroke:black;" points="735,491 569,491 569,579 735,579 735,491"/>
<text text-anchor="middle" x="652" y="508">LowerLimitAge &lt;= 0.4028</text>
<text text-anchor="middle" x="652" y="524">0.4677</text>
<text text-anchor="middle" x="652" y="540">2774</text>
<text text-anchor="middle" x="652" y="556">[1643, 2763]</text>
<text text-anchor="middle" x="652" y="572">SD</text>
</g>
<g id="edge18" class="edge"><title>1&#45;&gt;9</title>
<path style="fill:none;stroke:black;" d="M428,535C467,535 516,535 558,535"/>
<polygon style="fill:black;stroke:black;" points="558,531 568,535 558,538 558,531"/>
</g>
<g id="node6" class="node"><title>3</title>
<polygon style="fill:#399de5;stroke:black;" points="955,86 849,86 849,174 955,174 955,86"/>
<text text-anchor="middle" x="902" y="103">LOSSqrt &lt;= 0.5</text>
<text text-anchor="middle" x="902" y="119">0.3405</text>
<text text-anchor="middle" x="902" y="135">2005</text>
<text text-anchor="middle" x="902" y="151">[696, 2503]</text>
<text text-anchor="middle" x="902" y="167">SD</text>
</g>
<g id="edge6" class="edge"><title>2&#45;&gt;3</title>
<path style="fill:none;stroke:black;" d="M729,229C765,209 806,185 839,166"/>
<polygon style="fill:black;stroke:black;" points="838,163 848,161 841,169 838,163"/>
</g>
<g id="node12" class="node"><title>6</title>
<polygon style="fill:#e58139;stroke:black;" points="994,229 810,229 810,317 994,317 994,229"/>
<text text-anchor="middle" x="902" y="246">YearsToRetirement &lt;= 0.2467</text>
<text text-anchor="middle" x="902" y="262">0.4976</text>
<text text-anchor="middle" x="902" y="278">112</text>
<text text-anchor="middle" x="902" y="294">[92, 80]</text>
<text text-anchor="middle" x="902" y="310">NS</text>
</g>
<g id="edge12" class="edge"><title>2&#45;&gt;6</title>
<path style="fill:none;stroke:black;" d="M730,273C752,273 776,273 799,273"/>
<polygon style="fill:black;stroke:black;" points="799,269 809,273 799,276 799,269"/>
</g>
<g id="node8" class="node"><title>4</title>
<polygon style="fill:#399de5;stroke:black;" points="1111,4 1031,4 1031,76 1111,76 1111,4"/>
<text text-anchor="middle" x="1071" y="21">0.3418</text>
<text text-anchor="middle" x="1071" y="37">1983</text>
<text text-anchor="middle" x="1071" y="53">[692, 2471]</text>
<text text-anchor="middle" x="1071" y="69">SD</text>
</g>
<g id="edge8" class="edge"><title>3&#45;&gt;4</title>
<path style="fill:none;stroke:black;" d="M956,101C977,90 1001,77 1022,66"/>
<polygon style="fill:black;stroke:black;" points="1021,63 1031,61 1024,69 1021,63"/>
</g>
<g id="node10" class="node"><title>5</title>
<polygon style="fill:#399de5;stroke:black;" points="1098,94 1044,94 1044,166 1098,166 1098,94"/>
<text text-anchor="middle" x="1071" y="111">0.1975</text>
<text text-anchor="middle" x="1071" y="127">22</text>
<text text-anchor="middle" x="1071" y="143">[4, 32]</text>
<text text-anchor="middle" x="1071" y="159">SD</text>
</g>
<g id="edge10" class="edge"><title>3&#45;&gt;5</title>
<path style="fill:none;stroke:black;" d="M956,130C981,130 1011,130 1034,130"/>
<polygon style="fill:black;stroke:black;" points="1034,126 1044,130 1034,133 1034,126"/>
</g>
<g id="node14" class="node"><title>7</title>
<polygon style="fill:#399de5;stroke:black;" points="1098,184 1044,184 1044,256 1098,256 1098,184"/>
<text text-anchor="middle" x="1071" y="201">0.2482</text>
<text text-anchor="middle" x="1071" y="217">36</text>
<text text-anchor="middle" x="1071" y="233">[9, 53]</text>
<text text-anchor="middle" x="1071" y="249">SD</text>
</g>
<g id="edge14" class="edge"><title>6&#45;&gt;7</title>
<path style="fill:none;stroke:black;" d="M995,244C1009,240 1022,236 1033,232"/>
<polygon style="fill:black;stroke:black;" points="1032,229 1043,229 1034,235 1032,229"/>
</g>
<g id="node16" class="node"><title>8</title>
<polygon style="fill:#e58139;stroke:black;" points="1101,274 1041,274 1041,346 1101,346 1101,274"/>
<text text-anchor="middle" x="1071" y="291">0.3704</text>
<text text-anchor="middle" x="1071" y="307">76</text>
<text text-anchor="middle" x="1071" y="323">[83, 27]</text>
<text text-anchor="middle" x="1071" y="339">NS</text>
</g>
<g id="edge16" class="edge"><title>6&#45;&gt;8</title>
<path style="fill:none;stroke:black;" d="M995,293C1007,296 1019,298 1030,301"/>
<polygon style="fill:black;stroke:black;" points="1031,298 1040,303 1030,304 1031,298"/>
</g>
<g id="node20" class="node"><title>10</title>
<polygon style="fill:#399de5;stroke:black;" points="985,438 819,438 819,526 985,526 985,438"/>
<text text-anchor="middle" x="902" y="455">LowerLimitAge &lt;= 0.1389</text>
<text text-anchor="middle" x="902" y="471">0.4958</text>
<text text-anchor="middle" x="902" y="487">1194</text>
<text text-anchor="middle" x="902" y="503">[853, 1025]</text>
<text text-anchor="middle" x="902" y="519">SD</text>
</g>
<g id="edge20" class="edge"><title>9&#45;&gt;10</title>
<path style="fill:none;stroke:black;" d="M736,517C760,512 785,506 809,502"/>
<polygon style="fill:black;stroke:black;" points="809,499 819,500 810,505 809,499"/>
</g>
<g id="node26" class="node"><title>13</title>
<polygon style="fill:#399de5;stroke:black;" points="979,544 825,544 825,632 979,632 979,544"/>
<text text-anchor="middle" x="902" y="561">IndAvgSalary &lt;= 0.8333</text>
<text text-anchor="middle" x="902" y="577">0.4297</text>
<text text-anchor="middle" x="902" y="593">1580</text>
<text text-anchor="middle" x="902" y="609">[790, 1738]</text>
<text text-anchor="middle" x="902" y="625">SD</text>
</g>
<g id="edge26" class="edge"><title>9&#45;&gt;13</title>
<path style="fill:none;stroke:black;" d="M736,553C761,558 789,564 814,570"/>
<polygon style="fill:black;stroke:black;" points="815,567 824,572 814,573 815,567"/>
</g>
<g id="node22" class="node"><title>11</title>
<polygon style="fill:#399de5;stroke:black;" points="1107,364 1035,364 1035,436 1107,436 1107,364"/>
<text text-anchor="middle" x="1071" y="381">0.4285</text>
<text text-anchor="middle" x="1071" y="397">479</text>
<text text-anchor="middle" x="1071" y="413">[241, 534]</text>
<text text-anchor="middle" x="1071" y="429">SD</text>
</g>
<g id="edge22" class="edge"><title>10&#45;&gt;11</title>
<path style="fill:none;stroke:black;" d="M985,442C999,436 1013,429 1025,422"/>
<polygon style="fill:black;stroke:black;" points="1023,419 1034,418 1026,425 1023,419"/>
</g>
<g id="node24" class="node"><title>12</title>
<polygon style="fill:#e58139;stroke:black;" points="1107,454 1035,454 1035,526 1107,526 1107,454"/>
<text text-anchor="middle" x="1071" y="471">0.494</text>
<text text-anchor="middle" x="1071" y="487">715</text>
<text text-anchor="middle" x="1071" y="503">[612, 491]</text>
<text text-anchor="middle" x="1071" y="519">NS</text>
</g>
<g id="edge24" class="edge"><title>10&#45;&gt;12</title>
<path style="fill:none;stroke:black;" d="M985,486C999,487 1013,488 1025,488"/>
<polygon style="fill:black;stroke:black;" points="1025,484 1035,488 1025,491 1025,484"/>
</g>
<g id="node28" class="node"><title>14</title>
<polygon style="fill:#399de5;stroke:black;" points="1111,544 1031,544 1031,616 1111,616 1111,544"/>
<text text-anchor="middle" x="1071" y="561">0.4113</text>
<text text-anchor="middle" x="1071" y="577">1459</text>
<text text-anchor="middle" x="1071" y="593">[672, 1650]</text>
<text text-anchor="middle" x="1071" y="609">SD</text>
</g>
<g id="edge28" class="edge"><title>13&#45;&gt;14</title>
<path style="fill:none;stroke:black;" d="M980,584C994,583 1008,582 1021,582"/>
<polygon style="fill:black;stroke:black;" points="1021,578 1031,582 1021,585 1021,578"/>
</g>
<g id="node30" class="node"><title>15</title>
<polygon style="fill:#e58139;stroke:black;" points="1104,634 1038,634 1038,706 1104,706 1104,634"/>
<text text-anchor="middle" x="1071" y="651">0.4894</text>
<text text-anchor="middle" x="1071" y="667">121</text>
<text text-anchor="middle" x="1071" y="683">[118, 88]</text>
<text text-anchor="middle" x="1071" y="699">NS</text>
</g>
<g id="edge30" class="edge"><title>13&#45;&gt;15</title>
<path style="fill:none;stroke:black;" d="M980,626C997,634 1014,643 1029,650"/>
<polygon style="fill:black;stroke:black;" points="1030,647 1038,654 1027,653 1030,647"/>
</g>
<g id="node34" class="node"><title>17</title>
<polygon style="fill:#e58139;stroke:black;" points="744,851 560,851 560,939 744,939 744,851"/>
<text text-anchor="middle" x="652" y="868">YearsToRetirement &lt;= 0.5309</text>
<text text-anchor="middle" x="652" y="884">0.2401</text>
<text text-anchor="middle" x="652" y="900">2460</text>
<text text-anchor="middle" x="652" y="916">[3324, 539]</text>
<text text-anchor="middle" x="652" y="932">NS</text>
</g>
<g id="edge34" class="edge"><title>16&#45;&gt;17</title>
<path style="fill:none;stroke:black;" d="M495,895C513,895 531,895 549,895"/>
<polygon style="fill:black;stroke:black;" points="549,891 559,895 549,898 549,891"/>
</g>
<g id="node48" class="node"><title>24</title>
<polygon style="fill:#e58139;stroke:black;" points="772,1076 532,1076 532,1164 772,1164 772,1076"/>
<text text-anchor="middle" x="652" y="1093">BLS_FEDERAL_Layoffs_Level &lt;= 0.5</text>
<text text-anchor="middle" x="652" y="1109">0.4829</text>
<text text-anchor="middle" x="652" y="1125">184</text>
<text text-anchor="middle" x="652" y="1141">[176, 121]</text>
<text text-anchor="middle" x="652" y="1157">NS</text>
</g>
<g id="edge48" class="edge"><title>16&#45;&gt;24</title>
<path style="fill:none;stroke:black;" d="M418,939C466,977 536,1031 587,1070"/>
<polygon style="fill:black;stroke:black;" points="589,1067 595,1076 585,1073 589,1067"/>
</g>
<g id="node36" class="node"><title>18</title>
<polygon style="fill:#e58139;stroke:black;" points="985,798 819,798 819,886 985,886 985,798"/>
<text text-anchor="middle" x="902" y="815">LowerLimitAge &lt;= 0.4028</text>
<text text-anchor="middle" x="902" y="831">0.43</text>
<text text-anchor="middle" x="902" y="847">752</text>
<text text-anchor="middle" x="902" y="863">[839, 382]</text>
<text text-anchor="middle" x="902" y="879">NS</text>
</g>
<g id="edge36" class="edge"><title>17&#45;&gt;18</title>
<path style="fill:none;stroke:black;" d="M745,875C766,871 788,866 808,862"/>
<polygon style="fill:black;stroke:black;" points="808,859 818,860 809,865 808,859"/>
</g>
<g id="node42" class="node"><title>21</title>
<polygon style="fill:#e58139;stroke:black;" points="979,904 825,904 825,992 979,992 979,904"/>
<text text-anchor="middle" x="902" y="921">IndAvgSalary &lt;= 0.7222</text>
<text text-anchor="middle" x="902" y="937">0.1118</text>
<text text-anchor="middle" x="902" y="953">1708</text>
<text text-anchor="middle" x="902" y="969">[2485, 157]</text>
<text text-anchor="middle" x="902" y="985">NS</text>
</g>
<g id="edge42" class="edge"><title>17&#45;&gt;21</title>
<path style="fill:none;stroke:black;" d="M745,915C768,920 792,925 815,930"/>
<polygon style="fill:black;stroke:black;" points="816,927 825,932 815,933 816,927"/>
</g>
<g id="node38" class="node"><title>19</title>
<polygon style="fill:#e58139;stroke:black;" points="1107,724 1035,724 1035,796 1107,796 1107,724"/>
<text text-anchor="middle" x="1071" y="741">0.3746</text>
<text text-anchor="middle" x="1071" y="757">347</text>
<text text-anchor="middle" x="1071" y="773">[421, 140]</text>
<text text-anchor="middle" x="1071" y="789">NS</text>
</g>
<g id="edge38" class="edge"><title>18&#45;&gt;19</title>
<path style="fill:none;stroke:black;" d="M986,801C1000,795 1013,788 1026,782"/>
<polygon style="fill:black;stroke:black;" points="1024,779 1035,778 1027,785 1024,779"/>
</g>
<g id="node40" class="node"><title>20</title>
<polygon style="fill:#e58139;stroke:black;" points="1107,814 1035,814 1035,886 1107,886 1107,814"/>
<text text-anchor="middle" x="1071" y="831">0.4644</text>
<text text-anchor="middle" x="1071" y="847">405</text>
<text text-anchor="middle" x="1071" y="863">[418, 242]</text>
<text text-anchor="middle" x="1071" y="879">NS</text>
</g>
<g id="edge40" class="edge"><title>18&#45;&gt;20</title>
<path style="fill:none;stroke:black;" d="M986,846C999,847 1012,848 1024,848"/>
<polygon style="fill:black;stroke:black;" points="1024,844 1034,848 1024,851 1024,844"/>
</g>
<g id="node44" class="node"><title>22</title>
<polygon style="fill:#e58139;stroke:black;" points="1105,904 1037,904 1037,976 1105,976 1105,904"/>
<text text-anchor="middle" x="1071" y="921">0.2872</text>
<text text-anchor="middle" x="1071" y="937">328</text>
<text text-anchor="middle" x="1071" y="953">[404, 85]</text>
<text text-anchor="middle" x="1071" y="969">NS</text>
</g>
<g id="edge44" class="edge"><title>21&#45;&gt;22</title>
<path style="fill:none;stroke:black;" d="M979,944C995,943 1012,942 1027,942"/>
<polygon style="fill:black;stroke:black;" points="1027,939 1037,941 1027,945 1027,939"/>
</g>
<g id="node46" class="node"><title>23</title>
<polygon style="fill:#e58139;stroke:black;" points="1107,994 1035,994 1035,1066 1107,1066 1107,994"/>
<text text-anchor="middle" x="1071" y="1011">0.0646</text>
<text text-anchor="middle" x="1071" y="1027">1380</text>
<text text-anchor="middle" x="1071" y="1043">[2081, 72]</text>
<text text-anchor="middle" x="1071" y="1059">NS</text>
</g>
<g id="edge46" class="edge"><title>21&#45;&gt;23</title>
<path style="fill:none;stroke:black;" d="M979,985C995,992 1011,1000 1025,1008"/>
<polygon style="fill:black;stroke:black;" points="1026,1005 1034,1012 1023,1011 1026,1005"/>
</g>
<g id="node50" class="node"><title>25</title>
<polygon style="fill:#e58139;stroke:black;" points="985,1076 819,1076 819,1164 985,1164 985,1076"/>
<text text-anchor="middle" x="902" y="1093">LowerLimitAge &lt;= 0.4028</text>
<text text-anchor="middle" x="902" y="1109">0.4712</text>
<text text-anchor="middle" x="902" y="1125">168</text>
<text text-anchor="middle" x="902" y="1141">[168, 103]</text>
<text text-anchor="middle" x="902" y="1157">NS</text>
</g>
<g id="edge50" class="edge"><title>24&#45;&gt;25</title>
<path style="fill:none;stroke:black;" d="M773,1120C784,1120 797,1120 808,1120"/>
<polygon style="fill:black;stroke:black;" points="808,1116 818,1120 808,1123 808,1116"/>
</g>
<g id="node56" class="node"><title>28</title>
<polygon style="fill:#399de5;stroke:black;" points="929,1182 875,1182 875,1254 929,1254 929,1182"/>
<text text-anchor="middle" x="902" y="1199">0.426</text>
<text text-anchor="middle" x="902" y="1215">16</text>
<text text-anchor="middle" x="902" y="1231">[8, 18]</text>
<text text-anchor="middle" x="902" y="1247">SD</text>
</g>
<g id="edge56" class="edge"><title>24&#45;&gt;28</title>
<path style="fill:none;stroke:black;" d="M765,1164C802,1178 839,1193 866,1203"/>
<polygon style="fill:black;stroke:black;" points="867,1200 875,1207 864,1206 867,1200"/>
</g>
<g id="node52" class="node"><title>26</title>
<polygon style="fill:#e58139;stroke:black;" points="1101,1084 1041,1084 1041,1156 1101,1156 1101,1084"/>
<text text-anchor="middle" x="1071" y="1101">0.3415</text>
<text text-anchor="middle" x="1071" y="1117">82</text>
<text text-anchor="middle" x="1071" y="1133">[93, 26]</text>
<text text-anchor="middle" x="1071" y="1149">NS</text>
</g>
<g id="edge52" class="edge"><title>25&#45;&gt;26</title>
<path style="fill:none;stroke:black;" d="M986,1120C1001,1120 1017,1120 1030,1120"/>
<polygon style="fill:black;stroke:black;" points="1030,1116 1040,1120 1030,1123 1030,1116"/>
</g>
<g id="node54" class="node"><title>27</title>
<polygon style="fill:#399de5;stroke:black;" points="1101,1174 1041,1174 1041,1246 1101,1246 1101,1174"/>
<text text-anchor="middle" x="1071" y="1191">0.4999</text>
<text text-anchor="middle" x="1071" y="1207">86</text>
<text text-anchor="middle" x="1071" y="1223">[75, 77]</text>
<text text-anchor="middle" x="1071" y="1239">SD</text>
</g>
<g id="edge54" class="edge"><title>25&#45;&gt;27</title>
<path style="fill:none;stroke:black;" d="M985,1164C1001,1173 1018,1181 1032,1189"/>
<polygon style="fill:black;stroke:black;" points="1034,1186 1041,1194 1031,1192 1034,1186"/>
</g>
</g>
</svg>
