<?xml version="1.0" encoding="UTF-8" standalone="no"?>
<!DOCTYPE svg PUBLIC "-//W3C//DTD SVG 1.0//EN"
 "http://www.w3.org/TR/2001/REC-SVG-20010904/DTD/svg10.dtd">
<!-- Generated by dot version 2.2 (Tue Jan 25 21:58:56 UTC 2005)
     For user: (amfrye) Alex Frye   Title: Tree    Pages: 1 -->
<svg width="1066pt" height="1434pt"
 viewBox = "-1 -1 1065 1433"
 xmlns="http://www.w3.org/2000/svg">
<g id="graph0" class="graph" style="font-family:Times-Roman;font-size:14.00;">
<title>Tree</title>
<g id="node1" class="node"><title>0</title>
<polygon style="fill:#e58139;stroke:black;" points="139,671 5,671 5,759 139,759 139,671"/>
<text text-anchor="middle" x="72" y="688">GSEGRD &lt;= 0.5625</text>
<text text-anchor="middle" x="72" y="704">0.5</text>
<text text-anchor="middle" x="72" y="720">7581</text>
<text text-anchor="middle" x="72" y="736">[5990, 5947]</text>
<text text-anchor="middle" x="72" y="752">NS</text>
</g>
<g id="node2" class="node"><title>1</title>
<polygon style="fill:#399de5;stroke:black;" points="360,491 176,491 176,579 360,579 360,491"/>
<text text-anchor="middle" x="268" y="508">YearsToRetirement &lt;= 0.3693</text>
<text text-anchor="middle" x="268" y="524">0.4462</text>
<text text-anchor="middle" x="268" y="540">2674</text>
<text text-anchor="middle" x="268" y="556">[1435, 2836]</text>
<text text-anchor="middle" x="268" y="572">SD</text>
</g>
<g id="edge2" class="edge"><title>0&#45;&gt;1</title>
<path style="fill:none;stroke:black;" d="M120,671C148,645 184,613 212,586"/>
<polygon style="fill:black;stroke:black;" points="210,583 220,579 215,588 210,583"/>
<text text-anchor="middle" x="195" y="582">True</text>
</g>
<g id="node32" class="node"><title>16</title>
<polygon style="fill:#e58139;stroke:black;" points="345,851 191,851 191,939 345,939 345,851"/>
<text text-anchor="middle" x="268" y="868">IndAvgSalary &lt;= 0.7222</text>
<text text-anchor="middle" x="268" y="884">0.4823</text>
<text text-anchor="middle" x="268" y="900">4907</text>
<text text-anchor="middle" x="268" y="916">[4555, 3111]</text>
<text text-anchor="middle" x="268" y="932">NS</text>
</g>
<g id="edge32" class="edge"><title>0&#45;&gt;16</title>
<path style="fill:none;stroke:black;" d="M120,759C148,785 184,817 212,844"/>
<polygon style="fill:black;stroke:black;" points="215,842 220,851 210,847 215,842"/>
<text text-anchor="middle" x="195" y="858">False</text>
</g>
<g id="node4" class="node"><title>2</title>
<polygon style="fill:#399de5;stroke:black;" points="606,229 424,229 424,317 606,317 606,229"/>
<text text-anchor="middle" x="515" y="246">YearsToRetirement &lt;= 0.1693</text>
<text text-anchor="middle" x="515" y="262">0.3408</text>
<text text-anchor="middle" x="515" y="278">2084</text>
<text text-anchor="middle" x="515" y="294">[726, 2607]</text>
<text text-anchor="middle" x="515" y="310">SD</text>
</g>
<g id="edge4" class="edge"><title>1&#45;&gt;2</title>
<path style="fill:none;stroke:black;" d="M310,491C353,445 421,373 466,324"/>
<polygon style="fill:black;stroke:black;" points="463,322 473,317 468,327 463,322"/>
</g>
<g id="node18" class="node"><title>9</title>
<polygon style="fill:#e58139;stroke:black;" points="598,491 432,491 432,579 598,579 598,491"/>
<text text-anchor="middle" x="515" y="508">LowerLimitAge &lt;= 0.1389</text>
<text text-anchor="middle" x="515" y="524">0.3691</text>
<text text-anchor="middle" x="515" y="540">590</text>
<text text-anchor="middle" x="515" y="556">[709, 229]</text>
<text text-anchor="middle" x="515" y="572">NS</text>
</g>
<g id="edge18" class="edge"><title>1&#45;&gt;9</title>
<path style="fill:none;stroke:black;" d="M361,535C381,535 402,535 422,535"/>
<polygon style="fill:black;stroke:black;" points="422,531 432,535 422,538 422,531"/>
</g>
<g id="node6" class="node"><title>3</title>
<polygon style="fill:#399de5;stroke:black;" points="894,86 712,86 712,174 894,174 894,86"/>
<text text-anchor="middle" x="803" y="103">YearsToRetirement &lt;= 0.1211</text>
<text text-anchor="middle" x="803" y="119">0.2126</text>
<text text-anchor="middle" x="803" y="135">818</text>
<text text-anchor="middle" x="803" y="151">[159, 1156]</text>
<text text-anchor="middle" x="803" y="167">SD</text>
</g>
<g id="edge6" class="edge"><title>2&#45;&gt;3</title>
<path style="fill:none;stroke:black;" d="M604,229C636,213 672,195 705,179"/>
<polygon style="fill:black;stroke:black;" points="704,176 714,174 707,182 704,176"/>
</g>
<g id="node12" class="node"><title>6</title>
<polygon style="fill:#399de5;stroke:black;" points="880,229 726,229 726,317 880,317 880,229"/>
<text text-anchor="middle" x="803" y="246">IndAvgSalary &lt;= 0.8333</text>
<text text-anchor="middle" x="803" y="262">0.4041</text>
<text text-anchor="middle" x="803" y="278">1266</text>
<text text-anchor="middle" x="803" y="294">[567, 1451]</text>
<text text-anchor="middle" x="803" y="310">SD</text>
</g>
<g id="edge12" class="edge"><title>2&#45;&gt;6</title>
<path style="fill:none;stroke:black;" d="M607,273C641,273 681,273 715,273"/>
<polygon style="fill:black;stroke:black;" points="715,269 725,273 715,276 715,269"/>
</g>
<g id="node8" class="node"><title>4</title>
<polygon style="fill:#399de5;stroke:black;" points="1050,4 982,4 982,76 1050,76 1050,4"/>
<text text-anchor="middle" x="1016" y="21">0.1778</text>
<text text-anchor="middle" x="1016" y="37">552</text>
<text text-anchor="middle" x="1016" y="53">[88, 804]</text>
<text text-anchor="middle" x="1016" y="69">SD</text>
</g>
<g id="edge8" class="edge"><title>3&#45;&gt;4</title>
<path style="fill:none;stroke:black;" d="M894,91C921,80 950,67 973,58"/>
<polygon style="fill:black;stroke:black;" points="971,55 982,54 974,61 971,55"/>
</g>
<g id="node10" class="node"><title>5</title>
<polygon style="fill:#399de5;stroke:black;" points="1049,94 983,94 983,166 1049,166 1049,94"/>
<text text-anchor="middle" x="1016" y="111">0.2794</text>
<text text-anchor="middle" x="1016" y="127">266</text>
<text text-anchor="middle" x="1016" y="143">[71, 352]</text>
<text text-anchor="middle" x="1016" y="159">SD</text>
</g>
<g id="edge10" class="edge"><title>3&#45;&gt;5</title>
<path style="fill:none;stroke:black;" d="M894,130C922,130 950,130 973,130"/>
<polygon style="fill:black;stroke:black;" points="973,126 983,130 973,133 973,126"/>
</g>
<g id="node14" class="node"><title>7</title>
<polygon style="fill:#399de5;stroke:black;" points="1055,184 977,184 977,256 1055,256 1055,184"/>
<text text-anchor="middle" x="1016" y="201">0.3935</text>
<text text-anchor="middle" x="1016" y="217">1203</text>
<text text-anchor="middle" x="1016" y="233">[514, 1395]</text>
<text text-anchor="middle" x="1016" y="249">SD</text>
</g>
<g id="edge14" class="edge"><title>6&#45;&gt;7</title>
<path style="fill:none;stroke:black;" d="M881,254C909,247 941,239 966,233"/>
<polygon style="fill:black;stroke:black;" points="965,230 976,230 967,236 965,230"/>
</g>
<g id="node16" class="node"><title>8</title>
<polygon style="fill:#399de5;stroke:black;" points="1046,274 986,274 986,346 1046,346 1046,274"/>
<text text-anchor="middle" x="1016" y="291">0.4996</text>
<text text-anchor="middle" x="1016" y="307">63</text>
<text text-anchor="middle" x="1016" y="323">[53, 56]</text>
<text text-anchor="middle" x="1016" y="339">SD</text>
</g>
<g id="edge16" class="edge"><title>6&#45;&gt;8</title>
<path style="fill:none;stroke:black;" d="M881,286C913,292 948,298 975,303"/>
<polygon style="fill:black;stroke:black;" points="976,300 985,305 975,306 976,300"/>
</g>
<g id="node20" class="node"><title>10</title>
<polygon style="fill:#399de5;stroke:black;" points="936,438 670,438 670,526 936,526 936,438"/>
<text text-anchor="middle" x="803" y="455">BLS_FEDERAL_JobOpenings_Rate &lt;= 0.5</text>
<text text-anchor="middle" x="803" y="471">0.4993</text>
<text text-anchor="middle" x="803" y="487">68</text>
<text text-anchor="middle" x="803" y="503">[51, 55]</text>
<text text-anchor="middle" x="803" y="519">SD</text>
</g>
<g id="edge20" class="edge"><title>9&#45;&gt;10</title>
<path style="fill:none;stroke:black;" d="M598,520C617,517 638,512 659,509"/>
<polygon style="fill:black;stroke:black;" points="659,506 669,507 660,512 659,506"/>
</g>
<g id="node26" class="node"><title>13</title>
<polygon style="fill:#e58139;stroke:black;" points="886,544 720,544 720,632 886,632 886,544"/>
<text text-anchor="middle" x="803" y="561">LowerLimitAge &lt;= 0.2361</text>
<text text-anchor="middle" x="803" y="577">0.3308</text>
<text text-anchor="middle" x="803" y="593">522</text>
<text text-anchor="middle" x="803" y="609">[658, 174]</text>
<text text-anchor="middle" x="803" y="625">NS</text>
</g>
<g id="edge26" class="edge"><title>9&#45;&gt;13</title>
<path style="fill:none;stroke:black;" d="M598,550C633,556 673,564 710,571"/>
<polygon style="fill:black;stroke:black;" points="711,568 720,573 710,574 711,568"/>
</g>
<g id="node22" class="node"><title>11</title>
<polygon style="fill:#e58139;stroke:black;" points="1046,364 986,364 986,436 1046,436 1046,364"/>
<text text-anchor="middle" x="1016" y="381">0.5</text>
<text text-anchor="middle" x="1016" y="397">57</text>
<text text-anchor="middle" x="1016" y="413">[45, 45]</text>
<text text-anchor="middle" x="1016" y="429">NS</text>
</g>
<g id="edge22" class="edge"><title>10&#45;&gt;11</title>
<path style="fill:none;stroke:black;" d="M917,438C938,430 959,422 976,416"/>
<polygon style="fill:black;stroke:black;" points="974,413 985,412 977,419 974,413"/>
</g>
<g id="node24" class="node"><title>12</title>
<polygon style="fill:#399de5;stroke:black;" points="1043,454 989,454 989,526 1043,526 1043,454"/>
<text text-anchor="middle" x="1016" y="471">0.4688</text>
<text text-anchor="middle" x="1016" y="487">11</text>
<text text-anchor="middle" x="1016" y="503">[6, 10]</text>
<text text-anchor="middle" x="1016" y="519">SD</text>
</g>
<g id="edge24" class="edge"><title>10&#45;&gt;12</title>
<path style="fill:none;stroke:black;" d="M937,487C952,488 966,489 978,489"/>
<polygon style="fill:black;stroke:black;" points="978,485 988,489 978,492 978,485"/>
</g>
<g id="node28" class="node"><title>14</title>
<polygon style="fill:#e58139;stroke:black;" points="1046,544 986,544 986,616 1046,616 1046,544"/>
<text text-anchor="middle" x="1016" y="561">0.1019</text>
<text text-anchor="middle" x="1016" y="577">82</text>
<text text-anchor="middle" x="1016" y="593">[123, 7]</text>
<text text-anchor="middle" x="1016" y="609">NS</text>
</g>
<g id="edge28" class="edge"><title>13&#45;&gt;14</title>
<path style="fill:none;stroke:black;" d="M886,585C917,584 950,582 976,581"/>
<polygon style="fill:black;stroke:black;" points="976,577 986,581 976,584 976,577"/>
</g>
<g id="node30" class="node"><title>15</title>
<polygon style="fill:#e58139;stroke:black;" points="1052,634 980,634 980,706 1052,706 1052,634"/>
<text text-anchor="middle" x="1016" y="651">0.3626</text>
<text text-anchor="middle" x="1016" y="667">440</text>
<text text-anchor="middle" x="1016" y="683">[535, 167]</text>
<text text-anchor="middle" x="1016" y="699">NS</text>
</g>
<g id="edge30" class="edge"><title>13&#45;&gt;15</title>
<path style="fill:none;stroke:black;" d="M886,620C914,631 945,643 969,652"/>
<polygon style="fill:black;stroke:black;" points="971,649 979,656 968,656 971,649"/>
</g>
<g id="node34" class="node"><title>17</title>
<polygon style="fill:#399de5;stroke:black;" points="579,851 451,851 451,939 579,939 579,851"/>
<text text-anchor="middle" x="515" y="868">AGELVL_G &lt;= 0.5</text>
<text text-anchor="middle" x="515" y="884">0.4909</text>
<text text-anchor="middle" x="515" y="900">3091</text>
<text text-anchor="middle" x="515" y="916">[2074, 2722]</text>
<text text-anchor="middle" x="515" y="932">SD</text>
</g>
<g id="edge34" class="edge"><title>16&#45;&gt;17</title>
<path style="fill:none;stroke:black;" d="M345,895C375,895 410,895 440,895"/>
<polygon style="fill:black;stroke:black;" points="440,891 450,895 440,898 440,891"/>
</g>
<g id="node48" class="node"><title>24</title>
<polygon style="fill:#e58139;stroke:black;" points="633,1113 397,1113 397,1201 633,1201 633,1113"/>
<text text-anchor="middle" x="515" y="1130">BLS_FEDERAL_Layoffs_Rate &lt;= 0.5</text>
<text text-anchor="middle" x="515" y="1146">0.2343</text>
<text text-anchor="middle" x="515" y="1162">1816</text>
<text text-anchor="middle" x="515" y="1178">[2481, 389]</text>
<text text-anchor="middle" x="515" y="1194">NS</text>
</g>
<g id="edge48" class="edge"><title>16&#45;&gt;24</title>
<path style="fill:none;stroke:black;" d="M310,939C353,985 421,1057 466,1106"/>
<polygon style="fill:black;stroke:black;" points="468,1103 473,1113 463,1108 468,1103"/>
</g>
<g id="node36" class="node"><title>18</title>
<polygon style="fill:#399de5;stroke:black;" points="917,798 689,798 689,886 917,886 917,798"/>
<text text-anchor="middle" x="803" y="815">BLS_FEDERAL_Quits_Level &lt;= 0.5</text>
<text text-anchor="middle" x="803" y="831">0.4936</text>
<text text-anchor="middle" x="803" y="847">2758</text>
<text text-anchor="middle" x="803" y="863">[1894, 2378]</text>
<text text-anchor="middle" x="803" y="879">SD</text>
</g>
<g id="edge36" class="edge"><title>17&#45;&gt;18</title>
<path style="fill:none;stroke:black;" d="M580,883C609,878 645,871 678,865"/>
<polygon style="fill:black;stroke:black;" points="678,862 688,863 679,868 678,862"/>
</g>
<g id="node42" class="node"><title>21</title>
<polygon style="fill:#399de5;stroke:black;" points="917,904 689,904 689,992 917,992 917,904"/>
<text text-anchor="middle" x="803" y="921">BLS_FEDERAL_Quits_Level &lt;= 0.5</text>
<text text-anchor="middle" x="803" y="937">0.451</text>
<text text-anchor="middle" x="803" y="953">333</text>
<text text-anchor="middle" x="803" y="969">[180, 344]</text>
<text text-anchor="middle" x="803" y="985">SD</text>
</g>
<g id="edge42" class="edge"><title>17&#45;&gt;21</title>
<path style="fill:none;stroke:black;" d="M580,907C609,912 645,919 678,925"/>
<polygon style="fill:black;stroke:black;" points="679,922 688,927 678,928 679,922"/>
</g>
<g id="node38" class="node"><title>19</title>
<polygon style="fill:#399de5;stroke:black;" points="1059,724 973,724 973,796 1059,796 1059,724"/>
<text text-anchor="middle" x="1016" y="741">0.4828</text>
<text text-anchor="middle" x="1016" y="757">2260</text>
<text text-anchor="middle" x="1016" y="773">[1412, 2056]</text>
<text text-anchor="middle" x="1016" y="789">SD</text>
</g>
<g id="edge38" class="edge"><title>18&#45;&gt;19</title>
<path style="fill:none;stroke:black;" d="M917,798C933,792 949,786 963,781"/>
<polygon style="fill:black;stroke:black;" points="962,777 973,777 965,784 962,777"/>
</g>
<g id="node40" class="node"><title>20</title>
<polygon style="fill:#e58139;stroke:black;" points="1053,814 979,814 979,886 1053,886 1053,814"/>
<text text-anchor="middle" x="1016" y="831">0.4802</text>
<text text-anchor="middle" x="1016" y="847">498</text>
<text text-anchor="middle" x="1016" y="863">[482, 322]</text>
<text text-anchor="middle" x="1016" y="879">NS</text>
</g>
<g id="edge40" class="edge"><title>18&#45;&gt;20</title>
<path style="fill:none;stroke:black;" d="M918,846C936,847 953,848 968,848"/>
<polygon style="fill:black;stroke:black;" points="968,844 978,848 968,851 968,844"/>
</g>
<g id="node44" class="node"><title>22</title>
<polygon style="fill:#399de5;stroke:black;" points="1052,904 980,904 980,976 1052,976 1052,904"/>
<text text-anchor="middle" x="1016" y="921">0.4236</text>
<text text-anchor="middle" x="1016" y="937">293</text>
<text text-anchor="middle" x="1016" y="953">[141, 322]</text>
<text text-anchor="middle" x="1016" y="969">SD</text>
</g>
<g id="edge44" class="edge"><title>21&#45;&gt;22</title>
<path style="fill:none;stroke:black;" d="M918,944C936,943 954,942 970,942"/>
<polygon style="fill:black;stroke:black;" points="970,938 980,942 970,945 970,938"/>
</g>
<g id="node46" class="node"><title>23</title>
<polygon style="fill:#e58139;stroke:black;" points="1046,994 986,994 986,1066 1046,1066 1046,994"/>
<text text-anchor="middle" x="1016" y="1011">0.4612</text>
<text text-anchor="middle" x="1016" y="1027">40</text>
<text text-anchor="middle" x="1016" y="1043">[39, 22]</text>
<text text-anchor="middle" x="1016" y="1059">NS</text>
</g>
<g id="edge46" class="edge"><title>21&#45;&gt;23</title>
<path style="fill:none;stroke:black;" d="M917,992C938,1000 959,1008 976,1014"/>
<polygon style="fill:black;stroke:black;" points="977,1011 985,1018 974,1017 977,1011"/>
</g>
<g id="node50" class="node"><title>25</title>
<polygon style="fill:#e58139;stroke:black;" points="870,1113 736,1113 736,1201 870,1201 870,1113"/>
<text text-anchor="middle" x="803" y="1130">SALARYLog &lt;= 0.5</text>
<text text-anchor="middle" x="803" y="1146">0.2284</text>
<text text-anchor="middle" x="803" y="1162">1780</text>
<text text-anchor="middle" x="803" y="1178">[2444, 370]</text>
<text text-anchor="middle" x="803" y="1194">NS</text>
</g>
<g id="edge50" class="edge"><title>24&#45;&gt;25</title>
<path style="fill:none;stroke:black;" d="M633,1157C664,1157 697,1157 726,1157"/>
<polygon style="fill:black;stroke:black;" points="726,1153 736,1157 726,1160 726,1153"/>
</g>
<g id="node56" class="node"><title>28</title>
<polygon style="fill:#e58139;stroke:black;" points="886,1256 720,1256 720,1344 886,1344 886,1256"/>
<text text-anchor="middle" x="803" y="1273">LowerLimitAge &lt;= 0.1389</text>
<text text-anchor="middle" x="803" y="1289">0.4483</text>
<text text-anchor="middle" x="803" y="1305">36</text>
<text text-anchor="middle" x="803" y="1321">[37, 19]</text>
<text text-anchor="middle" x="803" y="1337">NS</text>
</g>
<g id="edge56" class="edge"><title>24&#45;&gt;28</title>
<path style="fill:none;stroke:black;" d="M604,1201C638,1218 676,1237 711,1254"/>
<polygon style="fill:black;stroke:black;" points="713,1251 720,1259 710,1257 713,1251"/>
</g>
<g id="node52" class="node"><title>26</title>
<polygon style="fill:#e58139;stroke:black;" points="1056,1084 976,1084 976,1156 1056,1156 1056,1084"/>
<text text-anchor="middle" x="1016" y="1101">0.2274</text>
<text text-anchor="middle" x="1016" y="1117">1743</text>
<text text-anchor="middle" x="1016" y="1133">[2398, 361]</text>
<text text-anchor="middle" x="1016" y="1149">NS</text>
</g>
<g id="edge52" class="edge"><title>25&#45;&gt;26</title>
<path style="fill:none;stroke:black;" d="M870,1145C901,1140 937,1134 965,1129"/>
<polygon style="fill:black;stroke:black;" points="965,1126 975,1127 966,1132 965,1126"/>
</g>
<g id="node54" class="node"><title>27</title>
<polygon style="fill:#e58139;stroke:black;" points="1043,1174 989,1174 989,1246 1043,1246 1043,1174"/>
<text text-anchor="middle" x="1016" y="1191">0.2737</text>
<text text-anchor="middle" x="1016" y="1207">37</text>
<text text-anchor="middle" x="1016" y="1223">[46, 9]</text>
<text text-anchor="middle" x="1016" y="1239">NS</text>
</g>
<g id="edge54" class="edge"><title>25&#45;&gt;27</title>
<path style="fill:none;stroke:black;" d="M870,1174C906,1183 949,1193 979,1201"/>
<polygon style="fill:black;stroke:black;" points="980,1198 989,1203 979,1204 980,1198"/>
</g>
<g id="node58" class="node"><title>29</title>
<polygon style="fill:#e58139;stroke:black;" points="1043,1264 989,1264 989,1336 1043,1336 1043,1264"/>
<text text-anchor="middle" x="1016" y="1281">0.2604</text>
<text text-anchor="middle" x="1016" y="1297">10</text>
<text text-anchor="middle" x="1016" y="1313">[11, 2]</text>
<text text-anchor="middle" x="1016" y="1329">NS</text>
</g>
<g id="edge58" class="edge"><title>28&#45;&gt;29</title>
<path style="fill:none;stroke:black;" d="M886,1300C917,1300 953,1300 978,1300"/>
<polygon style="fill:black;stroke:black;" points="978,1296 988,1300 978,1303 978,1296"/>
</g>
<g id="node60" class="node"><title>30</title>
<polygon style="fill:#e58139;stroke:black;" points="1046,1354 986,1354 986,1426 1046,1426 1046,1354"/>
<text text-anchor="middle" x="1016" y="1371">0.4781</text>
<text text-anchor="middle" x="1016" y="1387">26</text>
<text text-anchor="middle" x="1016" y="1403">[26, 17]</text>
<text text-anchor="middle" x="1016" y="1419">NS</text>
</g>
<g id="edge60" class="edge"><title>28&#45;&gt;30</title>
<path style="fill:none;stroke:black;" d="M886,1335C917,1348 951,1362 977,1373"/>
<polygon style="fill:black;stroke:black;" points="978,1370 986,1377 975,1376 978,1370"/>
</g>
</g>
</svg>
