<?xml version="1.0" encoding="UTF-8" standalone="no"?>
<!DOCTYPE svg PUBLIC "-//W3C//DTD SVG 1.0//EN"
 "http://www.w3.org/TR/2001/REC-SVG-20010904/DTD/svg10.dtd">
<!-- Generated by dot version 2.2 (Tue Jan 25 21:58:56 UTC 2005)
     For user: (amfrye) Alex Frye   Title: Tree    Pages: 1 -->
<svg width="948pt" height="1434pt"
 viewBox = "-1 -1 947 1433"
 xmlns="http://www.w3.org/2000/svg">
<g id="graph0" class="graph" style="font-family:Times-Roman;font-size:14.00;">
<title>Tree</title>
<g id="node1" class="node"><title>0</title>
<polygon style="fill:#e58139;stroke:black;" points="139,671 5,671 5,759 139,759 139,671"/>
<text text-anchor="middle" x="72" y="688">GSEGRD &lt;= 0.5625</text>
<text text-anchor="middle" x="72" y="704">0.5</text>
<text text-anchor="middle" x="72" y="720">7612</text>
<text text-anchor="middle" x="72" y="736">[6020, 5917]</text>
<text text-anchor="middle" x="72" y="752">NS</text>
</g>
<g id="node2" class="node"><title>1</title>
<polygon style="fill:#399de5;stroke:black;" points="329,491 175,491 175,579 329,579 329,491"/>
<text text-anchor="middle" x="252" y="508">IndAvgSalary &lt;= 0.7222</text>
<text text-anchor="middle" x="252" y="524">0.446</text>
<text text-anchor="middle" x="252" y="540">2654</text>
<text text-anchor="middle" x="252" y="556">[1394, 2758]</text>
<text text-anchor="middle" x="252" y="572">SD</text>
</g>
<g id="edge2" class="edge"><title>0&#45;&gt;1</title>
<path style="fill:none;stroke:black;" d="M116,671C142,645 174,613 201,586"/>
<polygon style="fill:black;stroke:black;" points="198,584 208,579 203,589 198,584"/>
<text text-anchor="middle" x="183" y="584">True</text>
</g>
<g id="node32" class="node"><title>16</title>
<polygon style="fill:#e58139;stroke:black;" points="329,851 175,851 175,939 329,939 329,851"/>
<text text-anchor="middle" x="252" y="868">IndAvgSalary &lt;= 0.7222</text>
<text text-anchor="middle" x="252" y="884">0.4822</text>
<text text-anchor="middle" x="252" y="900">4958</text>
<text text-anchor="middle" x="252" y="916">[4626, 3159]</text>
<text text-anchor="middle" x="252" y="932">NS</text>
</g>
<g id="edge32" class="edge"><title>0&#45;&gt;16</title>
<path style="fill:none;stroke:black;" d="M116,759C142,785 174,817 201,844"/>
<polygon style="fill:black;stroke:black;" points="203,841 208,851 198,846 203,841"/>
<text text-anchor="middle" x="183" y="856">False</text>
</g>
<g id="node4" class="node"><title>2</title>
<polygon style="fill:#399de5;stroke:black;" points="550,229 366,229 366,317 550,317 550,229"/>
<text text-anchor="middle" x="458" y="246">YearsToRetirement &lt;= 0.3949</text>
<text text-anchor="middle" x="458" y="262">0.3814</text>
<text text-anchor="middle" x="458" y="278">2115</text>
<text text-anchor="middle" x="458" y="294">[850, 2464]</text>
<text text-anchor="middle" x="458" y="310">SD</text>
</g>
<g id="edge4" class="edge"><title>1&#45;&gt;2</title>
<path style="fill:none;stroke:black;" d="M287,491C322,446 379,374 417,325"/>
<polygon style="fill:black;stroke:black;" points="414,323 423,317 420,327 414,323"/>
</g>
<g id="node18" class="node"><title>9</title>
<polygon style="fill:#e58139;stroke:black;" points="541,491 375,491 375,579 541,579 541,491"/>
<text text-anchor="middle" x="458" y="508">LowerLimitAge &lt;= 0.1389</text>
<text text-anchor="middle" x="458" y="524">0.4555</text>
<text text-anchor="middle" x="458" y="540">539</text>
<text text-anchor="middle" x="458" y="556">[544, 294]</text>
<text text-anchor="middle" x="458" y="572">NS</text>
</g>
<g id="edge18" class="edge"><title>1&#45;&gt;9</title>
<path style="fill:none;stroke:black;" d="M329,535C341,535 353,535 365,535"/>
<polygon style="fill:black;stroke:black;" points="365,531 375,535 365,538 365,531"/>
</g>
<g id="node6" class="node"><title>3</title>
<polygon style="fill:#399de5;stroke:black;" points="814,86 590,86 590,174 814,174 814,86"/>
<text text-anchor="middle" x="702" y="103">BLS_FEDERAL_Quits_Rate &lt;= 0.5</text>
<text text-anchor="middle" x="702" y="119">0.3429</text>
<text text-anchor="middle" x="702" y="135">1907</text>
<text text-anchor="middle" x="702" y="151">[660, 2344]</text>
<text text-anchor="middle" x="702" y="167">SD</text>
</g>
<g id="edge6" class="edge"><title>2&#45;&gt;3</title>
<path style="fill:none;stroke:black;" d="M533,229C560,214 590,196 618,179"/>
<polygon style="fill:black;stroke:black;" points="617,176 627,174 620,182 617,176"/>
</g>
<g id="node12" class="node"><title>6</title>
<polygon style="fill:#e58139;stroke:black;" points="784,229 620,229 620,317 784,317 784,229"/>
<text text-anchor="middle" x="702" y="246">LowerLimitAge &lt;= 0.8194</text>
<text text-anchor="middle" x="702" y="262">0.4745</text>
<text text-anchor="middle" x="702" y="278">208</text>
<text text-anchor="middle" x="702" y="294">[190, 120]</text>
<text text-anchor="middle" x="702" y="310">NS</text>
</g>
<g id="edge12" class="edge"><title>2&#45;&gt;6</title>
<path style="fill:none;stroke:black;" d="M551,273C570,273 590,273 609,273"/>
<polygon style="fill:black;stroke:black;" points="609,269 619,273 609,276 609,269"/>
</g>
<g id="node8" class="node"><title>4</title>
<polygon style="fill:#399de5;stroke:black;" points="936,4 858,4 858,76 936,76 936,4"/>
<text text-anchor="middle" x="897" y="21">0.3554</text>
<text text-anchor="middle" x="897" y="37">1489</text>
<text text-anchor="middle" x="897" y="53">[537, 1787]</text>
<text text-anchor="middle" x="897" y="69">SD</text>
</g>
<g id="edge8" class="edge"><title>3&#45;&gt;4</title>
<path style="fill:none;stroke:black;" d="M798,86C815,78 833,69 848,62"/>
<polygon style="fill:black;stroke:black;" points="847,58 858,58 850,65 847,58"/>
</g>
<g id="node10" class="node"><title>5</title>
<polygon style="fill:#399de5;stroke:black;" points="934,94 860,94 860,166 934,166 934,94"/>
<text text-anchor="middle" x="897" y="111">0.2963</text>
<text text-anchor="middle" x="897" y="127">418</text>
<text text-anchor="middle" x="897" y="143">[123, 557]</text>
<text text-anchor="middle" x="897" y="159">SD</text>
</g>
<g id="edge10" class="edge"><title>3&#45;&gt;5</title>
<path style="fill:none;stroke:black;" d="M814,130C826,130 838,130 850,130"/>
<polygon style="fill:black;stroke:black;" points="850,126 860,130 850,133 850,126"/>
</g>
<g id="node14" class="node"><title>7</title>
<polygon style="fill:#e58139;stroke:black;" points="932,184 862,184 862,256 932,256 932,184"/>
<text text-anchor="middle" x="897" y="201">0.494</text>
<text text-anchor="middle" x="897" y="217">168</text>
<text text-anchor="middle" x="897" y="233">[137, 110]</text>
<text text-anchor="middle" x="897" y="249">NS</text>
</g>
<g id="edge14" class="edge"><title>6&#45;&gt;7</title>
<path style="fill:none;stroke:black;" d="M785,251C808,244 832,238 851,233"/>
<polygon style="fill:black;stroke:black;" points="850,230 861,230 852,236 850,230"/>
</g>
<g id="node16" class="node"><title>8</title>
<polygon style="fill:#e58139;stroke:black;" points="927,274 867,274 867,346 927,346 927,274"/>
<text text-anchor="middle" x="897" y="291">0.2671</text>
<text text-anchor="middle" x="897" y="307">40</text>
<text text-anchor="middle" x="897" y="323">[53, 10]</text>
<text text-anchor="middle" x="897" y="339">NS</text>
</g>
<g id="edge16" class="edge"><title>6&#45;&gt;8</title>
<path style="fill:none;stroke:black;" d="M785,289C810,293 836,298 857,302"/>
<polygon style="fill:black;stroke:black;" points="858,299 867,304 857,305 858,299"/>
</g>
<g id="node20" class="node"><title>10</title>
<polygon style="fill:#399de5;stroke:black;" points="779,438 625,438 625,526 779,526 779,438"/>
<text text-anchor="middle" x="702" y="455">IndAvgSalary &lt;= 0.9444</text>
<text text-anchor="middle" x="702" y="471">0.5</text>
<text text-anchor="middle" x="702" y="487">74</text>
<text text-anchor="middle" x="702" y="503">[55, 56]</text>
<text text-anchor="middle" x="702" y="519">SD</text>
</g>
<g id="edge20" class="edge"><title>9&#45;&gt;10</title>
<path style="fill:none;stroke:black;" d="M541,517C565,512 591,506 614,501"/>
<polygon style="fill:black;stroke:black;" points="614,498 624,499 615,504 614,498"/>
</g>
<g id="node26" class="node"><title>13</title>
<polygon style="fill:#e58139;stroke:black;" points="779,544 625,544 625,632 779,632 779,544"/>
<text text-anchor="middle" x="702" y="561">IndAvgSalary &lt;= 0.8333</text>
<text text-anchor="middle" x="702" y="577">0.4404</text>
<text text-anchor="middle" x="702" y="593">465</text>
<text text-anchor="middle" x="702" y="609">[489, 238]</text>
<text text-anchor="middle" x="702" y="625">NS</text>
</g>
<g id="edge26" class="edge"><title>9&#45;&gt;13</title>
<path style="fill:none;stroke:black;" d="M541,553C565,558 591,563 614,569"/>
<polygon style="fill:black;stroke:black;" points="615,566 624,571 614,572 615,566"/>
</g>
<g id="node22" class="node"><title>11</title>
<polygon style="fill:#399de5;stroke:black;" points="927,364 867,364 867,436 927,436 927,364"/>
<text text-anchor="middle" x="897" y="381">0.4651</text>
<text text-anchor="middle" x="897" y="397">60</text>
<text text-anchor="middle" x="897" y="413">[32, 55]</text>
<text text-anchor="middle" x="897" y="429">SD</text>
</g>
<g id="edge22" class="edge"><title>10&#45;&gt;11</title>
<path style="fill:none;stroke:black;" d="M780,449C806,438 835,426 857,417"/>
<polygon style="fill:black;stroke:black;" points="855,414 866,413 858,420 855,414"/>
</g>
<g id="node24" class="node"><title>12</title>
<polygon style="fill:#e58139;stroke:black;" points="924,454 870,454 870,526 924,526 924,454"/>
<text text-anchor="middle" x="897" y="471">0.0799</text>
<text text-anchor="middle" x="897" y="487">14</text>
<text text-anchor="middle" x="897" y="503">[23, 1]</text>
<text text-anchor="middle" x="897" y="519">NS</text>
</g>
<g id="edge24" class="edge"><title>10&#45;&gt;12</title>
<path style="fill:none;stroke:black;" d="M780,485C807,486 837,487 859,489"/>
<polygon style="fill:black;stroke:black;" points="859,485 869,489 859,492 859,485"/>
</g>
<g id="node28" class="node"><title>14</title>
<polygon style="fill:#e58139;stroke:black;" points="932,544 862,544 862,616 932,616 932,544"/>
<text text-anchor="middle" x="897" y="561">0.497</text>
<text text-anchor="middle" x="897" y="577">196</text>
<text text-anchor="middle" x="897" y="593">[167, 143]</text>
<text text-anchor="middle" x="897" y="609">NS</text>
</g>
<g id="edge28" class="edge"><title>13&#45;&gt;14</title>
<path style="fill:none;stroke:black;" d="M780,585C804,584 830,583 851,582"/>
<polygon style="fill:black;stroke:black;" points="851,578 861,582 851,585 851,578"/>
</g>
<g id="node30" class="node"><title>15</title>
<polygon style="fill:#e58139;stroke:black;" points="931,634 863,634 863,706 931,706 931,634"/>
<text text-anchor="middle" x="897" y="651">0.3518</text>
<text text-anchor="middle" x="897" y="667">269</text>
<text text-anchor="middle" x="897" y="683">[322, 95]</text>
<text text-anchor="middle" x="897" y="699">NS</text>
</g>
<g id="edge30" class="edge"><title>13&#45;&gt;15</title>
<path style="fill:none;stroke:black;" d="M780,621C805,631 832,643 854,652"/>
<polygon style="fill:black;stroke:black;" points="855,649 863,656 852,655 855,649"/>
</g>
<g id="node34" class="node"><title>17</title>
<polygon style="fill:#399de5;stroke:black;" points="519,851 397,851 397,939 519,939 519,851"/>
<text text-anchor="middle" x="458" y="868">AGELVL_I &lt;= 0.5</text>
<text text-anchor="middle" x="458" y="884">0.4932</text>
<text text-anchor="middle" x="458" y="900">3110</text>
<text text-anchor="middle" x="458" y="916">[2173, 2748]</text>
<text text-anchor="middle" x="458" y="932">SD</text>
</g>
<g id="edge34" class="edge"><title>16&#45;&gt;17</title>
<path style="fill:none;stroke:black;" d="M329,895C348,895 368,895 386,895"/>
<polygon style="fill:black;stroke:black;" points="386,891 396,895 386,898 386,891"/>
</g>
<g id="node48" class="node"><title>24</title>
<polygon style="fill:#e58139;stroke:black;" points="549,1113 367,1113 367,1201 549,1201 549,1113"/>
<text text-anchor="middle" x="458" y="1130">YearsToRetirement &lt;= 0.2618</text>
<text text-anchor="middle" x="458" y="1146">0.2458</text>
<text text-anchor="middle" x="458" y="1162">1848</text>
<text text-anchor="middle" x="458" y="1178">[2453, 411]</text>
<text text-anchor="middle" x="458" y="1194">NS</text>
</g>
<g id="edge48" class="edge"><title>16&#45;&gt;24</title>
<path style="fill:none;stroke:black;" d="M287,939C322,984 379,1056 417,1105"/>
<polygon style="fill:black;stroke:black;" points="420,1103 423,1113 414,1107 420,1103"/>
</g>
<g id="node36" class="node"><title>18</title>
<polygon style="fill:#399de5;stroke:black;" points="816,798 588,798 588,886 816,886 816,798"/>
<text text-anchor="middle" x="702" y="815">BLS_FEDERAL_Quits_Level &lt;= 0.5</text>
<text text-anchor="middle" x="702" y="831">0.4971</text>
<text text-anchor="middle" x="702" y="847">2749</text>
<text text-anchor="middle" x="702" y="863">[2021, 2352]</text>
<text text-anchor="middle" x="702" y="879">SD</text>
</g>
<g id="edge36" class="edge"><title>17&#45;&gt;18</title>
<path style="fill:none;stroke:black;" d="M520,882C538,878 557,873 577,869"/>
<polygon style="fill:black;stroke:black;" points="577,866 587,867 578,872 577,866"/>
</g>
<g id="node42" class="node"><title>21</title>
<polygon style="fill:#399de5;stroke:black;" points="769,904 635,904 635,992 769,992 769,904"/>
<text text-anchor="middle" x="702" y="921">IndAvgSalary &lt;= 0.5</text>
<text text-anchor="middle" x="702" y="937">0.4009</text>
<text text-anchor="middle" x="702" y="953">361</text>
<text text-anchor="middle" x="702" y="969">[152, 396]</text>
<text text-anchor="middle" x="702" y="985">SD</text>
</g>
<g id="edge42" class="edge"><title>17&#45;&gt;21</title>
<path style="fill:none;stroke:black;" d="M520,908C552,915 591,923 625,931"/>
<polygon style="fill:black;stroke:black;" points="626,928 635,933 625,934 626,928"/>
</g>
<g id="node38" class="node"><title>19</title>
<polygon style="fill:#399de5;stroke:black;" points="941,724 853,724 853,796 941,796 941,724"/>
<text text-anchor="middle" x="897" y="741">0.4894</text>
<text text-anchor="middle" x="897" y="757">2267</text>
<text text-anchor="middle" x="897" y="773">[1536, 2060]</text>
<text text-anchor="middle" x="897" y="789">SD</text>
</g>
<g id="edge38" class="edge"><title>18&#45;&gt;19</title>
<path style="fill:none;stroke:black;" d="M807,798C819,793 832,788 844,783"/>
<polygon style="fill:black;stroke:black;" points="842,780 853,779 845,786 842,780"/>
</g>
<g id="node40" class="node"><title>20</title>
<polygon style="fill:#e58139;stroke:black;" points="934,814 860,814 860,886 934,886 934,814"/>
<text text-anchor="middle" x="897" y="831">0.4692</text>
<text text-anchor="middle" x="897" y="847">482</text>
<text text-anchor="middle" x="897" y="863">[485, 292]</text>
<text text-anchor="middle" x="897" y="879">NS</text>
</g>
<g id="edge40" class="edge"><title>18&#45;&gt;20</title>
<path style="fill:none;stroke:black;" d="M817,847C828,847 839,848 849,848"/>
<polygon style="fill:black;stroke:black;" points="849,844 859,848 849,851 849,844"/>
</g>
<g id="node44" class="node"><title>22</title>
<polygon style="fill:#399de5;stroke:black;" points="931,904 863,904 863,976 931,976 931,904"/>
<text text-anchor="middle" x="897" y="921">0.338</text>
<text text-anchor="middle" x="897" y="937">261</text>
<text text-anchor="middle" x="897" y="953">[84, 306]</text>
<text text-anchor="middle" x="897" y="969">SD</text>
</g>
<g id="edge44" class="edge"><title>21&#45;&gt;22</title>
<path style="fill:none;stroke:black;" d="M769,945C797,944 828,942 853,941"/>
<polygon style="fill:black;stroke:black;" points="853,937 863,941 853,944 853,937"/>
</g>
<g id="node46" class="node"><title>23</title>
<polygon style="fill:#399de5;stroke:black;" points="927,994 867,994 867,1066 927,1066 927,994"/>
<text text-anchor="middle" x="897" y="1011">0.4903</text>
<text text-anchor="middle" x="897" y="1027">100</text>
<text text-anchor="middle" x="897" y="1043">[68, 90]</text>
<text text-anchor="middle" x="897" y="1059">SD</text>
</g>
<g id="edge46" class="edge"><title>21&#45;&gt;23</title>
<path style="fill:none;stroke:black;" d="M769,976C798,988 831,1002 857,1013"/>
<polygon style="fill:black;stroke:black;" points="858,1010 866,1017 855,1016 858,1010"/>
</g>
<g id="node50" class="node"><title>25</title>
<polygon style="fill:#399de5;stroke:black;" points="809,1113 595,1113 595,1201 809,1201 809,1113"/>
<text text-anchor="middle" x="702" y="1130">SalaryOverUnderIndAvg &lt;= 0.1667</text>
<text text-anchor="middle" x="702" y="1146">0.3401</text>
<text text-anchor="middle" x="702" y="1162">166</text>
<text text-anchor="middle" x="702" y="1178">[58, 209]</text>
<text text-anchor="middle" x="702" y="1194">SD</text>
</g>
<g id="edge50" class="edge"><title>24&#45;&gt;25</title>
<path style="fill:none;stroke:black;" d="M550,1157C562,1157 573,1157 585,1157"/>
<polygon style="fill:black;stroke:black;" points="585,1153 595,1157 585,1160 585,1153"/>
</g>
<g id="node56" class="node"><title>28</title>
<polygon style="fill:#e58139;stroke:black;" points="765,1256 639,1256 639,1344 765,1344 765,1256"/>
<text text-anchor="middle" x="702" y="1273">AGELVL_F &lt;= 0.5</text>
<text text-anchor="middle" x="702" y="1289">0.1435</text>
<text text-anchor="middle" x="702" y="1305">1682</text>
<text text-anchor="middle" x="702" y="1321">[2395, 202]</text>
<text text-anchor="middle" x="702" y="1337">NS</text>
</g>
<g id="edge56" class="edge"><title>24&#45;&gt;28</title>
<path style="fill:none;stroke:black;" d="M533,1201C564,1219 599,1240 629,1258"/>
<polygon style="fill:black;stroke:black;" points="631,1255 638,1263 628,1261 631,1255"/>
</g>
<g id="node52" class="node"><title>26</title>
<polygon style="fill:#399de5;stroke:black;" points="927,1084 867,1084 867,1156 927,1156 927,1084"/>
<text text-anchor="middle" x="897" y="1101">0.4537</text>
<text text-anchor="middle" x="897" y="1117">30</text>
<text text-anchor="middle" x="897" y="1133">[16, 30]</text>
<text text-anchor="middle" x="897" y="1149">SD</text>
</g>
<g id="edge52" class="edge"><title>25&#45;&gt;26</title>
<path style="fill:none;stroke:black;" d="M809,1137C826,1134 843,1131 857,1128"/>
<polygon style="fill:black;stroke:black;" points="857,1125 867,1126 858,1131 857,1125"/>
</g>
<g id="node54" class="node"><title>27</title>
<polygon style="fill:#399de5;stroke:black;" points="930,1174 864,1174 864,1246 930,1246 930,1174"/>
<text text-anchor="middle" x="897" y="1191">0.3079</text>
<text text-anchor="middle" x="897" y="1207">136</text>
<text text-anchor="middle" x="897" y="1223">[42, 179]</text>
<text text-anchor="middle" x="897" y="1239">SD</text>
</g>
<g id="edge54" class="edge"><title>25&#45;&gt;27</title>
<path style="fill:none;stroke:black;" d="M809,1186C825,1190 840,1194 853,1198"/>
<polygon style="fill:black;stroke:black;" points="854,1195 863,1201 852,1201 854,1195"/>
</g>
<g id="node58" class="node"><title>29</title>
<polygon style="fill:#e58139;stroke:black;" points="937,1264 857,1264 857,1336 937,1336 937,1264"/>
<text text-anchor="middle" x="897" y="1281">0.1357</text>
<text text-anchor="middle" x="897" y="1297">1672</text>
<text text-anchor="middle" x="897" y="1313">[2392, 189]</text>
<text text-anchor="middle" x="897" y="1329">NS</text>
</g>
<g id="edge58" class="edge"><title>28&#45;&gt;29</title>
<path style="fill:none;stroke:black;" d="M766,1300C791,1300 821,1300 846,1300"/>
<polygon style="fill:black;stroke:black;" points="846,1296 856,1300 846,1303 846,1296"/>
</g>
<g id="node60" class="node"><title>30</title>
<polygon style="fill:#399de5;stroke:black;" points="924,1354 870,1354 870,1426 924,1426 924,1354"/>
<text text-anchor="middle" x="897" y="1371">0.3047</text>
<text text-anchor="middle" x="897" y="1387">10</text>
<text text-anchor="middle" x="897" y="1403">[3, 13]</text>
<text text-anchor="middle" x="897" y="1419">SD</text>
</g>
<g id="edge60" class="edge"><title>28&#45;&gt;30</title>
<path style="fill:none;stroke:black;" d="M766,1329C797,1344 833,1361 860,1373"/>
<polygon style="fill:black;stroke:black;" points="861,1370 869,1377 858,1376 861,1370"/>
</g>
</g>
</svg>
