<?xml version="1.0" encoding="UTF-8" standalone="no"?>
<!DOCTYPE svg PUBLIC "-//W3C//DTD SVG 1.0//EN"
 "http://www.w3.org/TR/2001/REC-SVG-20010904/DTD/svg10.dtd">
<!-- Generated by dot version 2.2 (Tue Jan 25 21:58:56 UTC 2005)
     For user: (amfrye) Alex Frye   Title: Tree    Pages: 1 -->
<svg width="1082pt" height="1262pt"
 viewBox = "-1 -1 1081 1261"
 xmlns="http://www.w3.org/2000/svg">
<g id="graph0" class="graph" style="font-family:Times-Roman;font-size:14.00;">
<title>Tree</title>
<g id="node1" class="node"><title>0</title>
<polygon style="fill:#e58139;stroke:black;" points="171,505 5,505 5,593 171,593 171,505"/>
<text text-anchor="middle" x="88" y="522">LowerLimitAge &lt;= 0.1389</text>
<text text-anchor="middle" x="88" y="538">0.5</text>
<text text-anchor="middle" x="88" y="554">7506</text>
<text text-anchor="middle" x="88" y="570">[6003, 5934]</text>
<text text-anchor="middle" x="88" y="586">NS</text>
</g>
<g id="node2" class="node"><title>1</title>
<polygon style="fill:#399de5;stroke:black;" points="341,331 207,331 207,419 341,419 341,331"/>
<text text-anchor="middle" x="274" y="348">GSEGRD &lt;= 0.5625</text>
<text text-anchor="middle" x="274" y="364">0.4696</text>
<text text-anchor="middle" x="274" y="380">1164</text>
<text text-anchor="middle" x="274" y="396">[698, 1155]</text>
<text text-anchor="middle" x="274" y="412">SD</text>
</g>
<g id="edge2" class="edge"><title>0&#45;&gt;1</title>
<path style="fill:none;stroke:black;" d="M135,505C161,481 193,451 220,426"/>
<polygon style="fill:black;stroke:black;" points="217,424 227,419 222,429 217,424"/>
<text text-anchor="middle" x="202" y="424">True</text>
</g>
<g id="node28" class="node"><title>14</title>
<polygon style="fill:#e58139;stroke:black;" points="341,679 207,679 207,767 341,767 341,679"/>
<text text-anchor="middle" x="274" y="696">GSEGRD &lt;= 0.5625</text>
<text text-anchor="middle" x="274" y="712">0.4986</text>
<text text-anchor="middle" x="274" y="728">6342</text>
<text text-anchor="middle" x="274" y="744">[5305, 4779]</text>
<text text-anchor="middle" x="274" y="760">NS</text>
</g>
<g id="edge28" class="edge"><title>0&#45;&gt;14</title>
<path style="fill:none;stroke:black;" d="M135,593C161,617 193,647 220,672"/>
<polygon style="fill:black;stroke:black;" points="222,669 227,679 217,674 222,669"/>
<text text-anchor="middle" x="202" y="684">False</text>
</g>
<g id="node4" class="node"><title>2</title>
<polygon style="fill:#399de5;stroke:black;" points="649,176 377,176 377,264 649,264 649,176"/>
<text text-anchor="middle" x="513" y="193">BLS_FEDERAL_JobOpenings_Level &lt;= 0.5</text>
<text text-anchor="middle" x="513" y="209">0.346</text>
<text text-anchor="middle" x="513" y="225">442</text>
<text text-anchor="middle" x="513" y="241">[158, 552]</text>
<text text-anchor="middle" x="513" y="257">SD</text>
</g>
<g id="edge4" class="edge"><title>1&#45;&gt;2</title>
<path style="fill:none;stroke:black;" d="M341,331C371,312 406,289 436,269"/>
<polygon style="fill:black;stroke:black;" points="435,266 445,264 438,272 435,266"/>
</g>
<g id="node14" class="node"><title>7</title>
<polygon style="fill:#399de5;stroke:black;" points="649,331 377,331 377,419 649,419 649,331"/>
<text text-anchor="middle" x="513" y="348">BLS_FEDERAL_JobOpenings_Level &lt;= 0.5</text>
<text text-anchor="middle" x="513" y="364">0.4985</text>
<text text-anchor="middle" x="513" y="380">722</text>
<text text-anchor="middle" x="513" y="396">[540, 603]</text>
<text text-anchor="middle" x="513" y="412">SD</text>
</g>
<g id="edge14" class="edge"><title>1&#45;&gt;7</title>
<path style="fill:none;stroke:black;" d="M341,375C349,375 358,375 367,375"/>
<polygon style="fill:black;stroke:black;" points="367,371 377,375 367,378 367,371"/>
</g>
<g id="node6" class="node"><title>3</title>
<polygon style="fill:#399de5;stroke:black;" points="880,78 758,78 758,166 880,166 880,78"/>
<text text-anchor="middle" x="819" y="95">AGELVL_I &lt;= 0.5</text>
<text text-anchor="middle" x="819" y="111">0.3498</text>
<text text-anchor="middle" x="819" y="127">405</text>
<text text-anchor="middle" x="819" y="143">[148, 507]</text>
<text text-anchor="middle" x="819" y="159">SD</text>
</g>
<g id="edge6" class="edge"><title>2&#45;&gt;3</title>
<path style="fill:none;stroke:black;" d="M649,176C683,165 718,154 747,145"/>
<polygon style="fill:black;stroke:black;" points="746,142 757,142 748,148 746,142"/>
</g>
<g id="node12" class="node"><title>6</title>
<polygon style="fill:#399de5;stroke:black;" points="849,184 789,184 789,256 849,256 849,184"/>
<text text-anchor="middle" x="819" y="201">0.2975</text>
<text text-anchor="middle" x="819" y="217">37</text>
<text text-anchor="middle" x="819" y="233">[10, 45]</text>
<text text-anchor="middle" x="819" y="249">SD</text>
</g>
<g id="edge12" class="edge"><title>2&#45;&gt;6</title>
<path style="fill:none;stroke:black;" d="M649,220C696,220 745,220 779,220"/>
<polygon style="fill:black;stroke:black;" points="779,216 789,220 779,223 779,216"/>
</g>
<g id="node8" class="node"><title>4</title>
<polygon style="fill:#399de5;stroke:black;" points="1068,4 996,4 996,76 1068,76 1068,4"/>
<text text-anchor="middle" x="1032" y="21">0.3513</text>
<text text-anchor="middle" x="1032" y="37">333</text>
<text text-anchor="middle" x="1032" y="53">[123, 418]</text>
<text text-anchor="middle" x="1032" y="69">SD</text>
</g>
<g id="edge8" class="edge"><title>3&#45;&gt;4</title>
<path style="fill:none;stroke:black;" d="M881,98C914,85 955,69 986,58"/>
<polygon style="fill:black;stroke:black;" points="985,54 996,54 988,61 985,54"/>
</g>
<g id="node10" class="node"><title>5</title>
<polygon style="fill:#399de5;stroke:black;" points="1062,94 1002,94 1002,166 1062,166 1062,94"/>
<text text-anchor="middle" x="1032" y="111">0.3424</text>
<text text-anchor="middle" x="1032" y="127">72</text>
<text text-anchor="middle" x="1032" y="143">[25, 89]</text>
<text text-anchor="middle" x="1032" y="159">SD</text>
</g>
<g id="edge10" class="edge"><title>3&#45;&gt;5</title>
<path style="fill:none;stroke:black;" d="M881,124C917,126 960,128 991,129"/>
<polygon style="fill:black;stroke:black;" points="991,125 1001,129 991,132 991,125"/>
</g>
<g id="node16" class="node"><title>8</title>
<polygon style="fill:#399de5;stroke:black;" points="952,274 686,274 686,362 952,362 952,274"/>
<text text-anchor="middle" x="819" y="291">BLS_FEDERAL_JobOpenings_Rate &lt;= 0.5</text>
<text text-anchor="middle" x="819" y="307">0.4941</text>
<text text-anchor="middle" x="819" y="323">631</text>
<text text-anchor="middle" x="819" y="339">[448, 557]</text>
<text text-anchor="middle" x="819" y="355">SD</text>
</g>
<g id="edge16" class="edge"><title>7&#45;&gt;8</title>
<path style="fill:none;stroke:black;" d="M649,350C658,349 666,347 675,345"/>
<polygon style="fill:black;stroke:black;" points="675,342 685,343 676,348 675,342"/>
</g>
<g id="node22" class="node"><title>11</title>
<polygon style="fill:#e58139;stroke:black;" points="911,380 727,380 727,468 911,468 911,380"/>
<text text-anchor="middle" x="819" y="397">YearsToRetirement &lt;= 0.4036</text>
<text text-anchor="middle" x="819" y="413">0.4444</text>
<text text-anchor="middle" x="819" y="429">91</text>
<text text-anchor="middle" x="819" y="445">[92, 46]</text>
<text text-anchor="middle" x="819" y="461">NS</text>
</g>
<g id="edge22" class="edge"><title>7&#45;&gt;11</title>
<path style="fill:none;stroke:black;" d="M649,397C671,400 695,404 716,407"/>
<polygon style="fill:black;stroke:black;" points="717,404 726,409 716,410 717,404"/>
</g>
<g id="node18" class="node"><title>9</title>
<polygon style="fill:#399de5;stroke:black;" points="1069,192 995,192 995,264 1069,264 1069,192"/>
<text text-anchor="middle" x="1032" y="209">0.4984</text>
<text text-anchor="middle" x="1032" y="225">567</text>
<text text-anchor="middle" x="1032" y="241">[428, 480]</text>
<text text-anchor="middle" x="1032" y="257">SD</text>
</g>
<g id="edge18" class="edge"><title>8&#45;&gt;9</title>
<path style="fill:none;stroke:black;" d="M932,274C939,271 946,268 953,265 964,260 974,256 985,251"/>
<polygon style="fill:black;stroke:black;" points="983,248 994,247 986,254 983,248"/>
</g>
<g id="node20" class="node"><title>10</title>
<polygon style="fill:#399de5;stroke:black;" points="1062,282 1002,282 1002,354 1062,354 1062,282"/>
<text text-anchor="middle" x="1032" y="299">0.3273</text>
<text text-anchor="middle" x="1032" y="315">64</text>
<text text-anchor="middle" x="1032" y="331">[20, 77]</text>
<text text-anchor="middle" x="1032" y="347">SD</text>
</g>
<g id="edge20" class="edge"><title>8&#45;&gt;10</title>
<path style="fill:none;stroke:black;" d="M953,318C967,318 980,318 991,318"/>
<polygon style="fill:black;stroke:black;" points="991,314 1001,318 991,321 991,314"/>
</g>
<g id="node24" class="node"><title>12</title>
<polygon style="fill:#399de5;stroke:black;" points="1062,372 1002,372 1002,444 1062,444 1062,372"/>
<text text-anchor="middle" x="1032" y="389">0.3403</text>
<text text-anchor="middle" x="1032" y="405">29</text>
<text text-anchor="middle" x="1032" y="421">[10, 36]</text>
<text text-anchor="middle" x="1032" y="437">SD</text>
</g>
<g id="edge24" class="edge"><title>11&#45;&gt;12</title>
<path style="fill:none;stroke:black;" d="M912,417C940,415 969,413 992,411"/>
<polygon style="fill:black;stroke:black;" points="992,408 1002,410 992,414 992,408"/>
</g>
<g id="node26" class="node"><title>13</title>
<polygon style="fill:#e58139;stroke:black;" points="1062,462 1002,462 1002,534 1062,534 1062,462"/>
<text text-anchor="middle" x="1032" y="479">0.1938</text>
<text text-anchor="middle" x="1032" y="495">62</text>
<text text-anchor="middle" x="1032" y="511">[82, 10]</text>
<text text-anchor="middle" x="1032" y="527">NS</text>
</g>
<g id="edge26" class="edge"><title>11&#45;&gt;13</title>
<path style="fill:none;stroke:black;" d="M912,456C940,466 969,476 992,484"/>
<polygon style="fill:black;stroke:black;" points="993,481 1002,487 991,487 993,481"/>
</g>
<g id="node30" class="node"><title>15</title>
<polygon style="fill:#399de5;stroke:black;" points="637,679 389,679 389,767 637,767 637,679"/>
<text text-anchor="middle" x="513" y="696">BLS_FEDERAL_TotalSep_Level &lt;= 0.5</text>
<text text-anchor="middle" x="513" y="712">0.4685</text>
<text text-anchor="middle" x="513" y="728">2207</text>
<text text-anchor="middle" x="513" y="744">[1333, 2226]</text>
<text text-anchor="middle" x="513" y="760">SD</text>
</g>
<g id="edge30" class="edge"><title>14&#45;&gt;15</title>
<path style="fill:none;stroke:black;" d="M341,723C353,723 366,723 379,723"/>
<polygon style="fill:black;stroke:black;" points="379,719 389,723 379,726 379,719"/>
</g>
<g id="node44" class="node"><title>22</title>
<polygon style="fill:#e58139;stroke:black;" points="605,941 421,941 421,1029 605,1029 605,941"/>
<text text-anchor="middle" x="513" y="958">YearsToRetirement &lt;= 0.3984</text>
<text text-anchor="middle" x="513" y="974">0.4764</text>
<text text-anchor="middle" x="513" y="990">4135</text>
<text text-anchor="middle" x="513" y="1006">[3972, 2553]</text>
<text text-anchor="middle" x="513" y="1022">NS</text>
</g>
<g id="edge44" class="edge"><title>14&#45;&gt;22</title>
<path style="fill:none;stroke:black;" d="M314,767C356,813 421,884 465,933"/>
<polygon style="fill:black;stroke:black;" points="468,931 472,941 463,936 468,931"/>
</g>
<g id="node32" class="node"><title>16</title>
<polygon style="fill:#399de5;stroke:black;" points="911,626 727,626 727,714 911,714 911,626"/>
<text text-anchor="middle" x="819" y="643">YearsToRetirement &lt;= 0.3674</text>
<text text-anchor="middle" x="819" y="659">0.476</text>
<text text-anchor="middle" x="819" y="675">1917</text>
<text text-anchor="middle" x="819" y="691">[1205, 1882]</text>
<text text-anchor="middle" x="819" y="707">SD</text>
</g>
<g id="edge32" class="edge"><title>15&#45;&gt;16</title>
<path style="fill:none;stroke:black;" d="M637,702C663,698 692,692 717,688"/>
<polygon style="fill:black;stroke:black;" points="717,685 727,686 718,691 717,685"/>
</g>
<g id="node38" class="node"><title>19</title>
<polygon style="fill:#399de5;stroke:black;" points="885,732 753,732 753,820 885,820 885,732"/>
<text text-anchor="middle" x="819" y="749">GSEGRD &lt;= 0.4375</text>
<text text-anchor="middle" x="819" y="765">0.3953</text>
<text text-anchor="middle" x="819" y="781">290</text>
<text text-anchor="middle" x="819" y="797">[128, 344]</text>
<text text-anchor="middle" x="819" y="813">SD</text>
</g>
<g id="edge38" class="edge"><title>15&#45;&gt;19</title>
<path style="fill:none;stroke:black;" d="M637,744C673,750 711,757 742,762"/>
<polygon style="fill:black;stroke:black;" points="743,759 752,764 742,765 743,759"/>
</g>
<g id="node34" class="node"><title>17</title>
<polygon style="fill:#399de5;stroke:black;" points="1072,552 992,552 992,624 1072,624 1072,552"/>
<text text-anchor="middle" x="1032" y="569">0.3668</text>
<text text-anchor="middle" x="1032" y="585">1428</text>
<text text-anchor="middle" x="1032" y="601">[555, 1739]</text>
<text text-anchor="middle" x="1032" y="617">SD</text>
</g>
<g id="edge34" class="edge"><title>16&#45;&gt;17</title>
<path style="fill:none;stroke:black;" d="M911,635C935,625 961,615 982,607"/>
<polygon style="fill:black;stroke:black;" points="981,603 992,603 984,610 981,603"/>
</g>
<g id="node36" class="node"><title>18</title>
<polygon style="fill:#e58139;stroke:black;" points="1069,642 995,642 995,714 1069,714 1069,642"/>
<text text-anchor="middle" x="1032" y="659">0.2956</text>
<text text-anchor="middle" x="1032" y="675">489</text>
<text text-anchor="middle" x="1032" y="691">[650, 143]</text>
<text text-anchor="middle" x="1032" y="707">NS</text>
</g>
<g id="edge36" class="edge"><title>16&#45;&gt;18</title>
<path style="fill:none;stroke:black;" d="M911,673C937,675 963,676 985,677"/>
<polygon style="fill:black;stroke:black;" points="985,673 995,677 985,680 985,673"/>
</g>
<g id="node40" class="node"><title>20</title>
<polygon style="fill:#399de5;stroke:black;" points="1065,732 999,732 999,804 1065,804 1065,732"/>
<text text-anchor="middle" x="1032" y="749">0.2964</text>
<text text-anchor="middle" x="1032" y="765">116</text>
<text text-anchor="middle" x="1032" y="781">[36, 163]</text>
<text text-anchor="middle" x="1032" y="797">SD</text>
</g>
<g id="edge40" class="edge"><title>19&#45;&gt;20</title>
<path style="fill:none;stroke:black;" d="M886,774C919,772 958,770 988,769"/>
<polygon style="fill:black;stroke:black;" points="988,765 998,769 988,772 988,765"/>
</g>
<g id="node42" class="node"><title>21</title>
<polygon style="fill:#399de5;stroke:black;" points="1065,822 999,822 999,894 1065,894 1065,822"/>
<text text-anchor="middle" x="1032" y="839">0.4469</text>
<text text-anchor="middle" x="1032" y="855">174</text>
<text text-anchor="middle" x="1032" y="871">[92, 181]</text>
<text text-anchor="middle" x="1032" y="887">SD</text>
</g>
<g id="edge42" class="edge"><title>19&#45;&gt;21</title>
<path style="fill:none;stroke:black;" d="M886,802C919,815 960,830 989,841"/>
<polygon style="fill:black;stroke:black;" points="991,838 999,845 988,845 991,838"/>
</g>
<g id="node46" class="node"><title>23</title>
<polygon style="fill:#399de5;stroke:black;" points="908,941 730,941 730,1029 908,1029 908,941"/>
<text text-anchor="middle" x="819" y="958">YearsToRetirement &lt;= 0.235</text>
<text text-anchor="middle" x="819" y="974">0.4708</text>
<text text-anchor="middle" x="819" y="990">2212</text>
<text text-anchor="middle" x="819" y="1006">[1306, 2138]</text>
<text text-anchor="middle" x="819" y="1022">SD</text>
</g>
<g id="edge46" class="edge"><title>22&#45;&gt;23</title>
<path style="fill:none;stroke:black;" d="M606,985C642,985 683,985 720,985"/>
<polygon style="fill:black;stroke:black;" points="720,981 730,985 720,988 720,981"/>
</g>
<g id="node52" class="node"><title>26</title>
<polygon style="fill:#e58139;stroke:black;" points="943,1084 695,1084 695,1172 943,1172 943,1084"/>
<text text-anchor="middle" x="819" y="1101">BLS_FEDERAL_TotalSep_Level &lt;= 0.5</text>
<text text-anchor="middle" x="819" y="1117">0.2331</text>
<text text-anchor="middle" x="819" y="1133">1923</text>
<text text-anchor="middle" x="819" y="1149">[2666, 415]</text>
<text text-anchor="middle" x="819" y="1165">NS</text>
</g>
<g id="edge52" class="edge"><title>22&#45;&gt;26</title>
<path style="fill:none;stroke:black;" d="M606,1028C641,1045 680,1063 716,1080"/>
<polygon style="fill:black;stroke:black;" points="717,1077 725,1084 714,1083 717,1077"/>
</g>
<g id="node48" class="node"><title>24</title>
<polygon style="fill:#399de5;stroke:black;" points="1069,912 995,912 995,984 1069,984 1069,912"/>
<text text-anchor="middle" x="1032" y="929">0.3959</text>
<text text-anchor="middle" x="1032" y="945">702</text>
<text text-anchor="middle" x="1032" y="961">[299, 801]</text>
<text text-anchor="middle" x="1032" y="977">SD</text>
</g>
<g id="edge48" class="edge"><title>23&#45;&gt;24</title>
<path style="fill:none;stroke:black;" d="M908,970C934,965 962,960 985,956"/>
<polygon style="fill:black;stroke:black;" points="985,953 995,954 986,959 985,953"/>
</g>
<g id="node50" class="node"><title>25</title>
<polygon style="fill:#399de5;stroke:black;" points="1075,1002 989,1002 989,1074 1075,1074 1075,1002"/>
<text text-anchor="middle" x="1032" y="1019">0.4901</text>
<text text-anchor="middle" x="1032" y="1035">1510</text>
<text text-anchor="middle" x="1032" y="1051">[1007, 1337]</text>
<text text-anchor="middle" x="1032" y="1067">SD</text>
</g>
<g id="edge50" class="edge"><title>23&#45;&gt;25</title>
<path style="fill:none;stroke:black;" d="M908,1007C932,1013 958,1020 979,1025"/>
<polygon style="fill:black;stroke:black;" points="980,1022 989,1027 979,1028 980,1022"/>
</g>
<g id="node54" class="node"><title>27</title>
<polygon style="fill:#e58139;stroke:black;" points="1073,1092 991,1092 991,1164 1073,1164 1073,1092"/>
<text text-anchor="middle" x="1032" y="1109">0.2151</text>
<text text-anchor="middle" x="1032" y="1125">1821</text>
<text text-anchor="middle" x="1032" y="1141">[2549, 356]</text>
<text text-anchor="middle" x="1032" y="1157">NS</text>
</g>
<g id="edge54" class="edge"><title>26&#45;&gt;27</title>
<path style="fill:none;stroke:black;" d="M943,1128C956,1128 969,1128 981,1128"/>
<polygon style="fill:black;stroke:black;" points="981,1124 991,1128 981,1131 981,1124"/>
</g>
<g id="node56" class="node"><title>28</title>
<polygon style="fill:#e58139;stroke:black;" points="1064,1182 1000,1182 1000,1254 1064,1254 1064,1182"/>
<text text-anchor="middle" x="1032" y="1199">0.4457</text>
<text text-anchor="middle" x="1032" y="1215">102</text>
<text text-anchor="middle" x="1032" y="1231">[117, 59]</text>
<text text-anchor="middle" x="1032" y="1247">NS</text>
</g>
<g id="edge56" class="edge"><title>26&#45;&gt;28</title>
<path style="fill:none;stroke:black;" d="M923,1172C947,1182 971,1193 990,1200"/>
<polygon style="fill:black;stroke:black;" points="992,1197 1000,1204 989,1204 992,1197"/>
</g>
</g>
</svg>
