<?xml version="1.0" encoding="UTF-8" standalone="no"?>
<!DOCTYPE svg PUBLIC "-//W3C//DTD SVG 1.0//EN"
 "http://www.w3.org/TR/2001/REC-SVG-20010904/DTD/svg10.dtd">
<!-- Generated by dot version 2.2 (Tue Jan 25 21:58:56 UTC 2005)
     For user: (amfrye) Alex Frye   Title: Tree    Pages: 1 -->
<svg width="1108pt" height="1434pt"
 viewBox = "-1 -1 1107 1433"
 xmlns="http://www.w3.org/2000/svg">
<g id="graph0" class="graph" style="font-family:Times-Roman;font-size:14.00;">
<title>Tree</title>
<g id="node1" class="node"><title>0</title>
<polygon style="fill:#e58139;stroke:black;" points="139,671 5,671 5,759 139,759 139,671"/>
<text text-anchor="middle" x="72" y="688">GSEGRD &lt;= 0.5625</text>
<text text-anchor="middle" x="72" y="704">0.5</text>
<text text-anchor="middle" x="72" y="720">7544</text>
<text text-anchor="middle" x="72" y="736">[5999, 5938]</text>
<text text-anchor="middle" x="72" y="752">NS</text>
</g>
<g id="node2" class="node"><title>1</title>
<polygon style="fill:#399de5;stroke:black;" points="360,491 176,491 176,579 360,579 360,491"/>
<text text-anchor="middle" x="268" y="508">YearsToRetirement &lt;= 0.3558</text>
<text text-anchor="middle" x="268" y="524">0.4469</text>
<text text-anchor="middle" x="268" y="540">2642</text>
<text text-anchor="middle" x="268" y="556">[1383, 2721]</text>
<text text-anchor="middle" x="268" y="572">SD</text>
</g>
<g id="edge2" class="edge"><title>0&#45;&gt;1</title>
<path style="fill:none;stroke:black;" d="M120,671C148,645 184,613 212,586"/>
<polygon style="fill:black;stroke:black;" points="210,583 220,579 215,588 210,583"/>
<text text-anchor="middle" x="195" y="582">True</text>
</g>
<g id="node32" class="node"><title>16</title>
<polygon style="fill:#e58139;stroke:black;" points="345,851 191,851 191,939 345,939 345,851"/>
<text text-anchor="middle" x="268" y="868">IndAvgSalary &lt;= 0.7222</text>
<text text-anchor="middle" x="268" y="884">0.4841</text>
<text text-anchor="middle" x="268" y="900">4902</text>
<text text-anchor="middle" x="268" y="916">[4616, 3217]</text>
<text text-anchor="middle" x="268" y="932">NS</text>
</g>
<g id="edge32" class="edge"><title>0&#45;&gt;16</title>
<path style="fill:none;stroke:black;" d="M120,759C148,785 184,817 212,844"/>
<polygon style="fill:black;stroke:black;" points="215,842 220,851 210,847 215,842"/>
<text text-anchor="middle" x="195" y="858">False</text>
</g>
<g id="node4" class="node"><title>2</title>
<polygon style="fill:#399de5;stroke:black;" points="615,229 451,229 451,317 615,317 615,229"/>
<text text-anchor="middle" x="533" y="246">LowerLimitAge &lt;= 0.8194</text>
<text text-anchor="middle" x="533" y="262">0.3417</text>
<text text-anchor="middle" x="533" y="278">2024</text>
<text text-anchor="middle" x="533" y="294">[686, 2451]</text>
<text text-anchor="middle" x="533" y="310">SD</text>
</g>
<g id="edge4" class="edge"><title>1&#45;&gt;2</title>
<path style="fill:none;stroke:black;" d="M313,491C359,445 432,373 481,324"/>
<polygon style="fill:black;stroke:black;" points="478,322 488,317 483,327 478,322"/>
</g>
<g id="node18" class="node"><title>9</title>
<polygon style="fill:#e58139;stroke:black;" points="669,491 397,491 397,579 669,579 669,491"/>
<text text-anchor="middle" x="533" y="508">BLS_FEDERAL_JobOpenings_Level &lt;= 0.5</text>
<text text-anchor="middle" x="533" y="524">0.4025</text>
<text text-anchor="middle" x="533" y="540">618</text>
<text text-anchor="middle" x="533" y="556">[697, 270]</text>
<text text-anchor="middle" x="533" y="572">NS</text>
</g>
<g id="edge18" class="edge"><title>1&#45;&gt;9</title>
<path style="fill:none;stroke:black;" d="M361,535C370,535 378,535 387,535"/>
<polygon style="fill:black;stroke:black;" points="387,531 397,535 387,538 387,531"/>
</g>
<g id="node6" class="node"><title>3</title>
<polygon style="fill:#399de5;stroke:black;" points="938,86 744,86 744,174 938,174 938,86"/>
<text text-anchor="middle" x="841" y="103">SalaryOverUnderIndAvg &lt;= 0.5</text>
<text text-anchor="middle" x="841" y="119">0.3145</text>
<text text-anchor="middle" x="841" y="135">1637</text>
<text text-anchor="middle" x="841" y="151">[496, 2042]</text>
<text text-anchor="middle" x="841" y="167">SD</text>
</g>
<g id="edge6" class="edge"><title>2&#45;&gt;3</title>
<path style="fill:none;stroke:black;" d="M616,235C653,217 697,196 737,178"/>
<polygon style="fill:black;stroke:black;" points="735,175 746,174 738,181 735,175"/>
</g>
<g id="node12" class="node"><title>6</title>
<polygon style="fill:#399de5;stroke:black;" points="905,229 777,229 777,317 905,317 905,229"/>
<text text-anchor="middle" x="841" y="246">AGELVL_C &lt;= 0.5</text>
<text text-anchor="middle" x="841" y="262">0.4332</text>
<text text-anchor="middle" x="841" y="278">387</text>
<text text-anchor="middle" x="841" y="294">[190, 409]</text>
<text text-anchor="middle" x="841" y="310">SD</text>
</g>
<g id="edge12" class="edge"><title>2&#45;&gt;6</title>
<path style="fill:none;stroke:black;" d="M616,273C662,273 721,273 767,273"/>
<polygon style="fill:black;stroke:black;" points="767,269 777,273 767,276 767,269"/>
</g>
<g id="node8" class="node"><title>4</title>
<polygon style="fill:#399de5;stroke:black;" points="1097,4 1017,4 1017,76 1097,76 1097,4"/>
<text text-anchor="middle" x="1057" y="21">0.2711</text>
<text text-anchor="middle" x="1057" y="37">987</text>
<text text-anchor="middle" x="1057" y="53">[248, 1286]</text>
<text text-anchor="middle" x="1057" y="69">SD</text>
</g>
<g id="edge8" class="edge"><title>3&#45;&gt;4</title>
<path style="fill:none;stroke:black;" d="M939,89C962,80 986,69 1007,61"/>
<polygon style="fill:black;stroke:black;" points="1005,58 1016,57 1008,64 1005,58"/>
</g>
<g id="node10" class="node"><title>5</title>
<polygon style="fill:#399de5;stroke:black;" points="1094,94 1020,94 1020,166 1094,166 1094,94"/>
<text text-anchor="middle" x="1057" y="111">0.372</text>
<text text-anchor="middle" x="1057" y="127">650</text>
<text text-anchor="middle" x="1057" y="143">[248, 756]</text>
<text text-anchor="middle" x="1057" y="159">SD</text>
</g>
<g id="edge10" class="edge"><title>3&#45;&gt;5</title>
<path style="fill:none;stroke:black;" d="M939,130C964,130 989,130 1010,130"/>
<polygon style="fill:black;stroke:black;" points="1010,126 1020,130 1010,133 1010,126"/>
</g>
<g id="node14" class="node"><title>7</title>
<polygon style="fill:#399de5;stroke:black;" points="1094,184 1020,184 1020,256 1094,256 1094,184"/>
<text text-anchor="middle" x="1057" y="201">0.4407</text>
<text text-anchor="middle" x="1057" y="217">351</text>
<text text-anchor="middle" x="1057" y="233">[180, 369]</text>
<text text-anchor="middle" x="1057" y="249">SD</text>
</g>
<g id="edge14" class="edge"><title>6&#45;&gt;7</title>
<path style="fill:none;stroke:black;" d="M905,257C938,249 979,239 1010,231"/>
<polygon style="fill:black;stroke:black;" points="1010,228 1020,229 1011,234 1010,228"/>
</g>
<g id="node16" class="node"><title>8</title>
<polygon style="fill:#399de5;stroke:black;" points="1087,274 1027,274 1027,346 1087,346 1087,274"/>
<text text-anchor="middle" x="1057" y="291">0.32</text>
<text text-anchor="middle" x="1057" y="307">36</text>
<text text-anchor="middle" x="1057" y="323">[10, 40]</text>
<text text-anchor="middle" x="1057" y="339">SD</text>
</g>
<g id="edge16" class="edge"><title>6&#45;&gt;8</title>
<path style="fill:none;stroke:black;" d="M905,284C941,290 986,298 1017,303"/>
<polygon style="fill:black;stroke:black;" points="1018,300 1027,305 1017,306 1018,300"/>
</g>
<g id="node20" class="node"><title>10</title>
<polygon style="fill:#e58139;stroke:black;" points="907,438 775,438 775,526 907,526 907,438"/>
<text text-anchor="middle" x="841" y="455">GSEGRD &lt;= 0.4375</text>
<text text-anchor="middle" x="841" y="471">0.4307</text>
<text text-anchor="middle" x="841" y="487">508</text>
<text text-anchor="middle" x="841" y="503">[551, 252]</text>
<text text-anchor="middle" x="841" y="519">NS</text>
</g>
<g id="edge20" class="edge"><title>9&#45;&gt;10</title>
<path style="fill:none;stroke:black;" d="M669,512C702,506 735,500 764,495"/>
<polygon style="fill:black;stroke:black;" points="764,492 774,493 765,498 764,492"/>
</g>
<g id="node26" class="node"><title>13</title>
<polygon style="fill:#e58139;stroke:black;" points="902,544 780,544 780,632 902,632 902,544"/>
<text text-anchor="middle" x="841" y="561">AGELVL_I &lt;= 0.5</text>
<text text-anchor="middle" x="841" y="577">0.1954</text>
<text text-anchor="middle" x="841" y="593">110</text>
<text text-anchor="middle" x="841" y="609">[146, 18]</text>
<text text-anchor="middle" x="841" y="625">NS</text>
</g>
<g id="edge26" class="edge"><title>9&#45;&gt;13</title>
<path style="fill:none;stroke:black;" d="M669,558C704,564 740,571 769,575"/>
<polygon style="fill:black;stroke:black;" points="770,572 779,577 769,578 770,572"/>
</g>
<g id="node22" class="node"><title>11</title>
<polygon style="fill:#e58139;stroke:black;" points="1092,364 1022,364 1022,436 1092,436 1092,364"/>
<text text-anchor="middle" x="1057" y="381">0.4764</text>
<text text-anchor="middle" x="1057" y="397">151</text>
<text text-anchor="middle" x="1057" y="413">[157, 101]</text>
<text text-anchor="middle" x="1057" y="429">NS</text>
</g>
<g id="edge22" class="edge"><title>10&#45;&gt;11</title>
<path style="fill:none;stroke:black;" d="M908,457C941,444 982,429 1011,418"/>
<polygon style="fill:black;stroke:black;" points="1010,414 1021,414 1013,421 1010,414"/>
</g>
<g id="node24" class="node"><title>12</title>
<polygon style="fill:#e58139;stroke:black;" points="1093,454 1021,454 1021,526 1093,526 1093,454"/>
<text text-anchor="middle" x="1057" y="471">0.4006</text>
<text text-anchor="middle" x="1057" y="487">357</text>
<text text-anchor="middle" x="1057" y="503">[394, 151]</text>
<text text-anchor="middle" x="1057" y="519">NS</text>
</g>
<g id="edge24" class="edge"><title>10&#45;&gt;12</title>
<path style="fill:none;stroke:black;" d="M908,484C941,486 980,488 1010,489"/>
<polygon style="fill:black;stroke:black;" points="1010,485 1020,489 1010,492 1010,485"/>
</g>
<g id="node28" class="node"><title>14</title>
<polygon style="fill:#e58139;stroke:black;" points="1090,544 1024,544 1024,616 1090,616 1090,544"/>
<text text-anchor="middle" x="1057" y="561">0.1833</text>
<text text-anchor="middle" x="1057" y="577">96</text>
<text text-anchor="middle" x="1057" y="593">[132, 15]</text>
<text text-anchor="middle" x="1057" y="609">NS</text>
</g>
<g id="edge28" class="edge"><title>13&#45;&gt;14</title>
<path style="fill:none;stroke:black;" d="M903,586C938,584 981,582 1013,581"/>
<polygon style="fill:black;stroke:black;" points="1013,577 1023,581 1013,584 1013,577"/>
</g>
<g id="node30" class="node"><title>15</title>
<polygon style="fill:#e58139;stroke:black;" points="1084,634 1030,634 1030,706 1084,706 1084,634"/>
<text text-anchor="middle" x="1057" y="651">0.2907</text>
<text text-anchor="middle" x="1057" y="667">14</text>
<text text-anchor="middle" x="1057" y="683">[14, 3]</text>
<text text-anchor="middle" x="1057" y="699">NS</text>
</g>
<g id="edge30" class="edge"><title>13&#45;&gt;15</title>
<path style="fill:none;stroke:black;" d="M903,611C940,625 987,644 1019,656"/>
<polygon style="fill:black;stroke:black;" points="1021,653 1029,660 1018,660 1021,653"/>
</g>
<g id="node34" class="node"><title>17</title>
<polygon style="fill:#399de5;stroke:black;" points="585,851 481,851 481,939 585,939 585,851"/>
<text text-anchor="middle" x="533" y="868">LOC_01 &lt;= 0.5</text>
<text text-anchor="middle" x="533" y="884">0.4905</text>
<text text-anchor="middle" x="533" y="900">3094</text>
<text text-anchor="middle" x="533" y="916">[2114, 2791]</text>
<text text-anchor="middle" x="533" y="932">SD</text>
</g>
<g id="edge34" class="edge"><title>16&#45;&gt;17</title>
<path style="fill:none;stroke:black;" d="M345,895C384,895 432,895 470,895"/>
<polygon style="fill:black;stroke:black;" points="470,891 480,895 470,898 470,891"/>
</g>
<g id="node48" class="node"><title>24</title>
<polygon style="fill:#e58139;stroke:black;" points="625,1113 441,1113 441,1201 625,1201 625,1113"/>
<text text-anchor="middle" x="533" y="1130">YearsToRetirement &lt;= 0.3271</text>
<text text-anchor="middle" x="533" y="1146">0.2486</text>
<text text-anchor="middle" x="533" y="1162">1808</text>
<text text-anchor="middle" x="533" y="1178">[2502, 426]</text>
<text text-anchor="middle" x="533" y="1194">NS</text>
</g>
<g id="edge48" class="edge"><title>16&#45;&gt;24</title>
<path style="fill:none;stroke:black;" d="M313,939C359,985 432,1057 481,1106"/>
<polygon style="fill:black;stroke:black;" points="483,1103 488,1113 478,1108 483,1103"/>
</g>
<g id="node36" class="node"><title>18</title>
<polygon style="fill:#399de5;stroke:black;" points="948,798 734,798 734,886 948,886 948,798"/>
<text text-anchor="middle" x="841" y="815">SalaryOverUnderIndAvg &lt;= 0.1667</text>
<text text-anchor="middle" x="841" y="831">0.3688</text>
<text text-anchor="middle" x="841" y="847">151</text>
<text text-anchor="middle" x="841" y="863">[60, 186]</text>
<text text-anchor="middle" x="841" y="879">SD</text>
</g>
<g id="edge36" class="edge"><title>17&#45;&gt;18</title>
<path style="fill:none;stroke:black;" d="M586,886C624,879 677,870 724,863"/>
<polygon style="fill:black;stroke:black;" points="724,860 734,861 725,866 724,860"/>
</g>
<g id="node42" class="node"><title>21</title>
<polygon style="fill:#399de5;stroke:black;" points="955,904 727,904 727,992 955,992 955,904"/>
<text text-anchor="middle" x="841" y="921">BLS_FEDERAL_Quits_Level &lt;= 0.5</text>
<text text-anchor="middle" x="841" y="937">0.493</text>
<text text-anchor="middle" x="841" y="953">2943</text>
<text text-anchor="middle" x="841" y="969">[2054, 2605]</text>
<text text-anchor="middle" x="841" y="985">SD</text>
</g>
<g id="edge42" class="edge"><title>17&#45;&gt;21</title>
<path style="fill:none;stroke:black;" d="M586,904C621,911 671,919 716,926"/>
<polygon style="fill:black;stroke:black;" points="717,923 726,928 716,929 717,923"/>
</g>
<g id="node38" class="node"><title>19</title>
<polygon style="fill:#399de5;stroke:black;" points="1086,724 1028,724 1028,796 1086,796 1086,724"/>
<text text-anchor="middle" x="1057" y="741">0.477</text>
<text text-anchor="middle" x="1057" y="757">19</text>
<text text-anchor="middle" x="1057" y="773">[11, 17]</text>
<text text-anchor="middle" x="1057" y="789">SD</text>
</g>
<g id="edge38" class="edge"><title>18&#45;&gt;19</title>
<path style="fill:none;stroke:black;" d="M948,801C973,792 999,782 1019,775"/>
<polygon style="fill:black;stroke:black;" points="1017,772 1028,771 1020,778 1017,772"/>
</g>
<g id="node40" class="node"><title>20</title>
<polygon style="fill:#399de5;stroke:black;" points="1090,814 1024,814 1024,886 1090,886 1090,814"/>
<text text-anchor="middle" x="1057" y="831">0.3485</text>
<text text-anchor="middle" x="1057" y="847">132</text>
<text text-anchor="middle" x="1057" y="863">[49, 169]</text>
<text text-anchor="middle" x="1057" y="879">SD</text>
</g>
<g id="edge40" class="edge"><title>18&#45;&gt;20</title>
<path style="fill:none;stroke:black;" d="M948,846C971,847 994,848 1013,849"/>
<polygon style="fill:black;stroke:black;" points="1013,845 1023,849 1013,852 1013,845"/>
</g>
<g id="node44" class="node"><title>22</title>
<polygon style="fill:#399de5;stroke:black;" points="1100,904 1014,904 1014,976 1100,976 1100,904"/>
<text text-anchor="middle" x="1057" y="921">0.4818</text>
<text text-anchor="middle" x="1057" y="937">2435</text>
<text text-anchor="middle" x="1057" y="953">[1563, 2301]</text>
<text text-anchor="middle" x="1057" y="969">SD</text>
</g>
<g id="edge44" class="edge"><title>21&#45;&gt;22</title>
<path style="fill:none;stroke:black;" d="M956,944C972,943 988,942 1003,942"/>
<polygon style="fill:black;stroke:black;" points="1003,938 1013,942 1003,945 1003,938"/>
</g>
<g id="node46" class="node"><title>23</title>
<polygon style="fill:#e58139;stroke:black;" points="1093,994 1021,994 1021,1066 1093,1066 1093,994"/>
<text text-anchor="middle" x="1057" y="1011">0.4723</text>
<text text-anchor="middle" x="1057" y="1027">508</text>
<text text-anchor="middle" x="1057" y="1043">[491, 304]</text>
<text text-anchor="middle" x="1057" y="1059">NS</text>
</g>
<g id="edge46" class="edge"><title>21&#45;&gt;23</title>
<path style="fill:none;stroke:black;" d="M956,992C975,999 994,1006 1010,1012"/>
<polygon style="fill:black;stroke:black;" points="1012,1009 1020,1016 1009,1016 1012,1009"/>
</g>
<g id="node50" class="node"><title>25</title>
<polygon style="fill:#399de5;stroke:black;" points="977,1113 705,1113 705,1201 977,1201 977,1113"/>
<text text-anchor="middle" x="841" y="1130">BLS_FEDERAL_JobOpenings_Level &lt;= 0.5</text>
<text text-anchor="middle" x="841" y="1146">0.4775</text>
<text text-anchor="middle" x="841" y="1162">257</text>
<text text-anchor="middle" x="841" y="1178">[167, 257]</text>
<text text-anchor="middle" x="841" y="1194">SD</text>
</g>
<g id="edge50" class="edge"><title>24&#45;&gt;25</title>
<path style="fill:none;stroke:black;" d="M625,1157C647,1157 671,1157 695,1157"/>
<polygon style="fill:black;stroke:black;" points="695,1153 705,1157 695,1160 695,1153"/>
</g>
<g id="node56" class="node"><title>28</title>
<polygon style="fill:#e58139;stroke:black;" points="902,1256 780,1256 780,1344 902,1344 902,1256"/>
<text text-anchor="middle" x="841" y="1273">AGELVL_I &lt;= 0.5</text>
<text text-anchor="middle" x="841" y="1289">0.1259</text>
<text text-anchor="middle" x="841" y="1305">1551</text>
<text text-anchor="middle" x="841" y="1321">[2335, 169]</text>
<text text-anchor="middle" x="841" y="1337">NS</text>
</g>
<g id="edge56" class="edge"><title>24&#45;&gt;28</title>
<path style="fill:none;stroke:black;" d="M625,1200C672,1221 727,1247 770,1267"/>
<polygon style="fill:black;stroke:black;" points="771,1264 779,1271 768,1270 771,1264"/>
</g>
<g id="node52" class="node"><title>26</title>
<polygon style="fill:#e58139;stroke:black;" points="1094,1084 1020,1084 1020,1156 1094,1156 1094,1084"/>
<text text-anchor="middle" x="1057" y="1101">0.4998</text>
<text text-anchor="middle" x="1057" y="1117">133</text>
<text text-anchor="middle" x="1057" y="1133">[104, 100]</text>
<text text-anchor="middle" x="1057" y="1149">NS</text>
</g>
<g id="edge52" class="edge"><title>25&#45;&gt;26</title>
<path style="fill:none;stroke:black;" d="M977,1134C988,1132 999,1130 1010,1128"/>
<polygon style="fill:black;stroke:black;" points="1010,1125 1020,1126 1011,1131 1010,1125"/>
</g>
<g id="node54" class="node"><title>27</title>
<polygon style="fill:#399de5;stroke:black;" points="1090,1174 1024,1174 1024,1246 1090,1246 1090,1174"/>
<text text-anchor="middle" x="1057" y="1191">0.4087</text>
<text text-anchor="middle" x="1057" y="1207">124</text>
<text text-anchor="middle" x="1057" y="1223">[63, 157]</text>
<text text-anchor="middle" x="1057" y="1239">SD</text>
</g>
<g id="edge54" class="edge"><title>25&#45;&gt;27</title>
<path style="fill:none;stroke:black;" d="M977,1190C990,1193 1002,1196 1013,1199"/>
<polygon style="fill:black;stroke:black;" points="1014,1196 1023,1202 1012,1202 1014,1196"/>
</g>
<g id="node58" class="node"><title>29</title>
<polygon style="fill:#e58139;stroke:black;" points="1097,1264 1017,1264 1017,1336 1097,1336 1097,1264"/>
<text text-anchor="middle" x="1057" y="1281">0.1191</text>
<text text-anchor="middle" x="1057" y="1297">1459</text>
<text text-anchor="middle" x="1057" y="1313">[2209, 150]</text>
<text text-anchor="middle" x="1057" y="1329">NS</text>
</g>
<g id="edge58" class="edge"><title>28&#45;&gt;29</title>
<path style="fill:none;stroke:black;" d="M903,1300C935,1300 975,1300 1006,1300"/>
<polygon style="fill:black;stroke:black;" points="1006,1296 1016,1300 1006,1303 1006,1296"/>
</g>
<g id="node60" class="node"><title>30</title>
<polygon style="fill:#e58139;stroke:black;" points="1090,1354 1024,1354 1024,1426 1090,1426 1090,1354"/>
<text text-anchor="middle" x="1057" y="1371">0.2277</text>
<text text-anchor="middle" x="1057" y="1387">92</text>
<text text-anchor="middle" x="1057" y="1403">[126, 19]</text>
<text text-anchor="middle" x="1057" y="1419">NS</text>
</g>
<g id="edge60" class="edge"><title>28&#45;&gt;30</title>
<path style="fill:none;stroke:black;" d="M903,1326C938,1340 983,1359 1015,1372"/>
<polygon style="fill:black;stroke:black;" points="1016,1369 1024,1376 1013,1375 1016,1369"/>
</g>
</g>
</svg>
