<?xml version="1.0" encoding="UTF-8" standalone="no"?>
<!DOCTYPE svg PUBLIC "-//W3C//DTD SVG 1.0//EN"
 "http://www.w3.org/TR/2001/REC-SVG-20010904/DTD/svg10.dtd">
<!-- Generated by dot version 2.2 (Tue Jan 25 21:58:56 UTC 2005)
     For user: (amfrye) Alex Frye   Title: Tree    Pages: 1 -->
<svg width="1048pt" height="1000pt"
 viewBox = "-1 -1 1047 999"
 xmlns="http://www.w3.org/2000/svg">
<g id="graph0" class="graph" style="font-family:Times-Roman;font-size:14.00;">
<title>Tree</title>
<g id="node1" class="node"><title>0</title>
<polygon style="fill:#e58139;stroke:black;" points="159,497 5,497 5,585 159,585 159,497"/>
<text text-anchor="middle" x="82" y="514">IndAvgSalary &lt;= 0.7222</text>
<text text-anchor="middle" x="82" y="530">0.5</text>
<text text-anchor="middle" x="82" y="546">7548</text>
<text text-anchor="middle" x="82" y="562">[5991, 5946]</text>
<text text-anchor="middle" x="82" y="578">NS</text>
</g>
<g id="node2" class="node"><title>1</title>
<polygon style="fill:#399de5;stroke:black;" points="409,319 195,319 195,407 409,407 409,319"/>
<text text-anchor="middle" x="302" y="336">SalaryOverUnderIndAvg &lt;= 0.1667</text>
<text text-anchor="middle" x="302" y="352">0.4626</text>
<text text-anchor="middle" x="302" y="368">5196</text>
<text text-anchor="middle" x="302" y="384">[2977, 5217]</text>
<text text-anchor="middle" x="302" y="400">SD</text>
</g>
<g id="edge2" class="edge"><title>0&#45;&gt;1</title>
<path style="fill:none;stroke:black;" d="M136,497C167,471 207,439 240,413"/>
<polygon style="fill:black;stroke:black;" points="238,410 248,407 242,416 238,410"/>
<text text-anchor="middle" x="223" y="408">True</text>
</g>
<g id="node28" class="node"><title>14</title>
<polygon style="fill:#e58139;stroke:black;" points="380,667 224,667 224,755 380,755 380,667"/>
<text text-anchor="middle" x="302" y="684">IndAvgSalaryLog &lt;= 0.5</text>
<text text-anchor="middle" x="302" y="700">0.3137</text>
<text text-anchor="middle" x="302" y="716">2352</text>
<text text-anchor="middle" x="302" y="732">[3014, 729]</text>
<text text-anchor="middle" x="302" y="748">NS</text>
</g>
<g id="edge28" class="edge"><title>0&#45;&gt;14</title>
<path style="fill:none;stroke:black;" d="M139,585C168,608 206,636 237,661"/>
<polygon style="fill:black;stroke:black;" points="239,658 245,667 235,664 239,658"/>
<text text-anchor="middle" x="220" y="676">False</text>
</g>
<g id="node4" class="node"><title>2</title>
<polygon style="fill:#399de5;stroke:black;" points="589,94 485,94 485,182 589,182 589,94"/>
<text text-anchor="middle" x="537" y="111">LOC_01 &lt;= 0.5</text>
<text text-anchor="middle" x="537" y="127">0.5</text>
<text text-anchor="middle" x="537" y="143">1000</text>
<text text-anchor="middle" x="537" y="159">[775, 786]</text>
<text text-anchor="middle" x="537" y="175">SD</text>
</g>
<g id="edge4" class="edge"><title>1&#45;&gt;2</title>
<path style="fill:none;stroke:black;" d="M348,319C388,281 443,228 484,189"/>
<polygon style="fill:black;stroke:black;" points="481,187 491,182 486,192 481,187"/>
</g>
<g id="node14" class="node"><title>7</title>
<polygon style="fill:#399de5;stroke:black;" points="598,319 476,319 476,407 598,407 598,319"/>
<text text-anchor="middle" x="537" y="336">AGELVL_I &lt;= 0.5</text>
<text text-anchor="middle" x="537" y="352">0.4435</text>
<text text-anchor="middle" x="537" y="368">4196</text>
<text text-anchor="middle" x="537" y="384">[2202, 4431]</text>
<text text-anchor="middle" x="537" y="400">SD</text>
</g>
<g id="edge14" class="edge"><title>1&#45;&gt;7</title>
<path style="fill:none;stroke:black;" d="M409,363C428,363 447,363 465,363"/>
<polygon style="fill:black;stroke:black;" points="465,359 475,363 465,366 465,359"/>
</g>
<g id="node6" class="node"><title>3</title>
<polygon style="fill:#399de5;stroke:black;" points="821,4 761,4 761,76 821,76 821,4"/>
<text text-anchor="middle" x="791" y="21">0.4444</text>
<text text-anchor="middle" x="791" y="37">20</text>
<text text-anchor="middle" x="791" y="53">[10, 20]</text>
<text text-anchor="middle" x="791" y="69">SD</text>
</g>
<g id="edge6" class="edge"><title>2&#45;&gt;3</title>
<path style="fill:none;stroke:black;" d="M590,116C613,106 640,95 665,85 694,74 726,62 751,53"/>
<polygon style="fill:black;stroke:black;" points="750,50 761,50 752,56 750,50"/>
</g>
<g id="node8" class="node"><title>4</title>
<polygon style="fill:#399de5;stroke:black;" points="868,94 714,94 714,182 868,182 868,94"/>
<text text-anchor="middle" x="791" y="111">IndAvgSalary &lt;= 0.3889</text>
<text text-anchor="middle" x="791" y="127">0.5</text>
<text text-anchor="middle" x="791" y="143">980</text>
<text text-anchor="middle" x="791" y="159">[765, 766]</text>
<text text-anchor="middle" x="791" y="175">SD</text>
</g>
<g id="edge8" class="edge"><title>2&#45;&gt;4</title>
<path style="fill:none;stroke:black;" d="M590,138C623,138 665,138 703,138"/>
<polygon style="fill:black;stroke:black;" points="703,134 713,138 703,141 703,134"/>
</g>
<g id="node10" class="node"><title>5</title>
<polygon style="fill:#399de5;stroke:black;" points="1033,12 961,12 961,84 1033,84 1033,12"/>
<text text-anchor="middle" x="997" y="29">0.485</text>
<text text-anchor="middle" x="997" y="45">524</text>
<text text-anchor="middle" x="997" y="61">[334, 474]</text>
<text text-anchor="middle" x="997" y="77">SD</text>
</g>
<g id="edge10" class="edge"><title>4&#45;&gt;5</title>
<path style="fill:none;stroke:black;" d="M869,106C885,99 902,92 917,85 928,80 940,75 951,70"/>
<polygon style="fill:black;stroke:black;" points="949,67 960,66 952,73 949,67"/>
</g>
<g id="node12" class="node"><title>6</title>
<polygon style="fill:#e58139;stroke:black;" points="1033,102 961,102 961,174 1033,174 1033,102"/>
<text text-anchor="middle" x="997" y="119">0.4815</text>
<text text-anchor="middle" x="997" y="135">456</text>
<text text-anchor="middle" x="997" y="151">[431, 292]</text>
<text text-anchor="middle" x="997" y="167">NS</text>
</g>
<g id="edge12" class="edge"><title>4&#45;&gt;6</title>
<path style="fill:none;stroke:black;" d="M869,138C896,138 926,138 950,138"/>
<polygon style="fill:black;stroke:black;" points="950,134 960,138 950,141 950,134"/>
</g>
<g id="node16" class="node"><title>8</title>
<polygon style="fill:#399de5;stroke:black;" points="874,266 708,266 708,354 874,354 874,266"/>
<text text-anchor="middle" x="791" y="283">LowerLimitAge &lt;= 0.4028</text>
<text text-anchor="middle" x="791" y="299">0.4567</text>
<text text-anchor="middle" x="791" y="315">3646</text>
<text text-anchor="middle" x="791" y="331">[2034, 3730]</text>
<text text-anchor="middle" x="791" y="347">SD</text>
</g>
<g id="edge16" class="edge"><title>7&#45;&gt;8</title>
<path style="fill:none;stroke:black;" d="M599,350C629,344 665,336 697,329"/>
<polygon style="fill:black;stroke:black;" points="697,326 707,327 698,332 697,326"/>
</g>
<g id="node22" class="node"><title>11</title>
<polygon style="fill:#399de5;stroke:black;" points="917,372 665,372 665,460 917,460 917,372"/>
<text text-anchor="middle" x="791" y="389">BLS_FEDERAL_OtherSep_Level &lt;= 0.5</text>
<text text-anchor="middle" x="791" y="405">0.3119</text>
<text text-anchor="middle" x="791" y="421">550</text>
<text text-anchor="middle" x="791" y="437">[168, 701]</text>
<text text-anchor="middle" x="791" y="453">SD</text>
</g>
<g id="edge22" class="edge"><title>7&#45;&gt;11</title>
<path style="fill:none;stroke:black;" d="M599,376C616,379 635,384 655,388"/>
<polygon style="fill:black;stroke:black;" points="656,385 665,390 655,391 656,385"/>
</g>
<g id="node18" class="node"><title>9</title>
<polygon style="fill:#399de5;stroke:black;" points="1040,192 954,192 954,264 1040,264 1040,192"/>
<text text-anchor="middle" x="997" y="209">0.4955</text>
<text text-anchor="middle" x="997" y="225">1949</text>
<text text-anchor="middle" x="997" y="241">[1404, 1697]</text>
<text text-anchor="middle" x="997" y="257">SD</text>
</g>
<g id="edge18" class="edge"><title>8&#45;&gt;9</title>
<path style="fill:none;stroke:black;" d="M875,277C898,268 923,258 944,249"/>
<polygon style="fill:black;stroke:black;" points="942,246 953,245 945,252 942,246"/>
</g>
<g id="node20" class="node"><title>10</title>
<polygon style="fill:#399de5;stroke:black;" points="1038,282 956,282 956,354 1038,354 1038,282"/>
<text text-anchor="middle" x="997" y="299">0.3612</text>
<text text-anchor="middle" x="997" y="315">1697</text>
<text text-anchor="middle" x="997" y="331">[630, 2033]</text>
<text text-anchor="middle" x="997" y="347">SD</text>
</g>
<g id="edge20" class="edge"><title>8&#45;&gt;10</title>
<path style="fill:none;stroke:black;" d="M875,313C899,314 925,315 946,316"/>
<polygon style="fill:black;stroke:black;" points="946,312 956,316 946,319 946,312"/>
</g>
<g id="node24" class="node"><title>12</title>
<polygon style="fill:#399de5;stroke:black;" points="1034,372 960,372 960,444 1034,444 1034,372"/>
<text text-anchor="middle" x="997" y="389">0.2939</text>
<text text-anchor="middle" x="997" y="405">487</text>
<text text-anchor="middle" x="997" y="421">[138, 633]</text>
<text text-anchor="middle" x="997" y="437">SD</text>
</g>
<g id="edge24" class="edge"><title>11&#45;&gt;12</title>
<path style="fill:none;stroke:black;" d="M917,411C928,410 939,410 950,410"/>
<polygon style="fill:black;stroke:black;" points="950,407 960,409 950,413 950,407"/>
</g>
<g id="node26" class="node"><title>13</title>
<polygon style="fill:#399de5;stroke:black;" points="1027,462 967,462 967,534 1027,534 1027,462"/>
<text text-anchor="middle" x="997" y="479">0.4248</text>
<text text-anchor="middle" x="997" y="495">63</text>
<text text-anchor="middle" x="997" y="511">[30, 68]</text>
<text text-anchor="middle" x="997" y="527">SD</text>
</g>
<g id="edge26" class="edge"><title>11&#45;&gt;13</title>
<path style="fill:none;stroke:black;" d="M902,460C921,467 941,476 957,482"/>
<polygon style="fill:black;stroke:black;" points="958,479 966,486 955,485 958,479"/>
</g>
<g id="node30" class="node"><title>15</title>
<polygon style="fill:#e58139;stroke:black;" points="604,667 470,667 470,755 604,755 604,667"/>
<text text-anchor="middle" x="537" y="684">GSEGRD &lt;= 0.5625</text>
<text text-anchor="middle" x="537" y="700">0.3174</text>
<text text-anchor="middle" x="537" y="716">2304</text>
<text text-anchor="middle" x="537" y="732">[2940, 725]</text>
<text text-anchor="middle" x="537" y="748">NS</text>
</g>
<g id="edge30" class="edge"><title>14&#45;&gt;15</title>
<path style="fill:none;stroke:black;" d="M380,711C406,711 434,711 460,711"/>
<polygon style="fill:black;stroke:black;" points="460,707 470,711 460,714 460,707"/>
</g>
<g id="node44" class="node"><title>22</title>
<polygon style="fill:#e58139;stroke:black;" points="629,822 445,822 445,910 629,910 629,822"/>
<text text-anchor="middle" x="537" y="839">YearsToRetirement &lt;= 0.5431</text>
<text text-anchor="middle" x="537" y="855">0.0973</text>
<text text-anchor="middle" x="537" y="871">48</text>
<text text-anchor="middle" x="537" y="887">[74, 4]</text>
<text text-anchor="middle" x="537" y="903">NS</text>
</g>
<g id="edge44" class="edge"><title>14&#45;&gt;22</title>
<path style="fill:none;stroke:black;" d="M369,755C398,774 432,797 462,817"/>
<polygon style="fill:black;stroke:black;" points="463,814 470,822 460,820 463,814"/>
</g>
<g id="node32" class="node"><title>16</title>
<polygon style="fill:#e58139;stroke:black;" points="855,618 727,618 727,706 855,706 855,618"/>
<text text-anchor="middle" x="791" y="635">AGELVL_D &lt;= 0.5</text>
<text text-anchor="middle" x="791" y="651">0.4566</text>
<text text-anchor="middle" x="791" y="667">522</text>
<text text-anchor="middle" x="791" y="683">[525, 286]</text>
<text text-anchor="middle" x="791" y="699">NS</text>
</g>
<g id="edge32" class="edge"><title>15&#45;&gt;16</title>
<path style="fill:none;stroke:black;" d="M604,698C639,692 681,684 716,677"/>
<polygon style="fill:black;stroke:black;" points="716,674 726,675 717,680 716,674"/>
</g>
<g id="node38" class="node"><title>19</title>
<polygon style="fill:#e58139;stroke:black;" points="854,724 728,724 728,812 854,812 854,724"/>
<text text-anchor="middle" x="791" y="741">AGELVL_F &lt;= 0.5</text>
<text text-anchor="middle" x="791" y="757">0.2603</text>
<text text-anchor="middle" x="791" y="773">1782</text>
<text text-anchor="middle" x="791" y="789">[2415, 439]</text>
<text text-anchor="middle" x="791" y="805">NS</text>
</g>
<g id="edge38" class="edge"><title>15&#45;&gt;19</title>
<path style="fill:none;stroke:black;" d="M604,726C639,734 682,743 717,752"/>
<polygon style="fill:black;stroke:black;" points="718,749 727,754 717,755 718,749"/>
</g>
<g id="node34" class="node"><title>17</title>
<polygon style="fill:#e58139;stroke:black;" points="1033,552 961,552 961,624 1033,624 1033,552"/>
<text text-anchor="middle" x="997" y="569">0.4444</text>
<text text-anchor="middle" x="997" y="585">485</text>
<text text-anchor="middle" x="997" y="601">[510, 255]</text>
<text text-anchor="middle" x="997" y="617">NS</text>
</g>
<g id="edge34" class="edge"><title>16&#45;&gt;17</title>
<path style="fill:none;stroke:black;" d="M856,639C886,627 922,615 950,605"/>
<polygon style="fill:black;stroke:black;" points="949,601 960,601 952,608 949,601"/>
</g>
<g id="node36" class="node"><title>18</title>
<polygon style="fill:#399de5;stroke:black;" points="1026,642 968,642 968,714 1026,714 1026,642"/>
<text text-anchor="middle" x="997" y="659">0.4395</text>
<text text-anchor="middle" x="997" y="675">37</text>
<text text-anchor="middle" x="997" y="691">[15, 31]</text>
<text text-anchor="middle" x="997" y="707">SD</text>
</g>
<g id="edge36" class="edge"><title>16&#45;&gt;18</title>
<path style="fill:none;stroke:black;" d="M856,667C889,670 928,673 957,675"/>
<polygon style="fill:black;stroke:black;" points="957,672 967,676 957,678 957,672"/>
</g>
<g id="node40" class="node"><title>20</title>
<polygon style="fill:#e58139;stroke:black;" points="1037,732 957,732 957,804 1037,804 1037,732"/>
<text text-anchor="middle" x="997" y="749">0.2486</text>
<text text-anchor="middle" x="997" y="765">1760</text>
<text text-anchor="middle" x="997" y="781">[2409, 410]</text>
<text text-anchor="middle" x="997" y="797">NS</text>
</g>
<g id="edge40" class="edge"><title>19&#45;&gt;20</title>
<path style="fill:none;stroke:black;" d="M855,768C884,768 919,768 947,768"/>
<polygon style="fill:black;stroke:black;" points="947,764 957,768 947,771 947,764"/>
</g>
<g id="node42" class="node"><title>21</title>
<polygon style="fill:#399de5;stroke:black;" points="1024,822 970,822 970,894 1024,894 1024,822"/>
<text text-anchor="middle" x="997" y="839">0.2841</text>
<text text-anchor="middle" x="997" y="855">22</text>
<text text-anchor="middle" x="997" y="871">[6, 29]</text>
<text text-anchor="middle" x="997" y="887">SD</text>
</g>
<g id="edge42" class="edge"><title>19&#45;&gt;21</title>
<path style="fill:none;stroke:black;" d="M855,794C875,803 897,812 917,821 932,827 947,835 961,841"/>
<polygon style="fill:black;stroke:black;" points="962,838 970,845 959,844 962,838"/>
</g>
<g id="node46" class="node"><title>23</title>
<polygon style="fill:#e58139;stroke:black;" points="818,830 764,830 764,902 818,902 818,830"/>
<text text-anchor="middle" x="791" y="847">0.3911</text>
<text text-anchor="middle" x="791" y="863">9</text>
<text text-anchor="middle" x="791" y="879">[11, 4]</text>
<text text-anchor="middle" x="791" y="895">NS</text>
</g>
<g id="edge46" class="edge"><title>22&#45;&gt;23</title>
<path style="fill:none;stroke:black;" d="M629,866C672,866 721,866 754,866"/>
<polygon style="fill:black;stroke:black;" points="754,862 764,866 754,869 754,862"/>
</g>
<g id="node48" class="node"><title>24</title>
<polygon style="fill:#e58139;stroke:black;" points="818,920 764,920 764,992 818,992 818,920"/>
<text text-anchor="middle" x="791" y="937">0.0</text>
<text text-anchor="middle" x="791" y="953">39</text>
<text text-anchor="middle" x="791" y="969">[63, 0]</text>
<text text-anchor="middle" x="791" y="985">NS</text>
</g>
<g id="edge48" class="edge"><title>22&#45;&gt;24</title>
<path style="fill:none;stroke:black;" d="M629,899C672,913 722,931 754,943"/>
<polygon style="fill:black;stroke:black;" points="755,940 764,946 753,946 755,940"/>
</g>
</g>
</svg>
