<?xml version="1.0" encoding="UTF-8" standalone="no"?>
<!DOCTYPE svg PUBLIC "-//W3C//DTD SVG 1.0//EN"
 "http://www.w3.org/TR/2001/REC-SVG-20010904/DTD/svg10.dtd">
<!-- Generated by dot version 2.2 (Tue Jan 25 21:58:56 UTC 2005)
     For user: (amfrye) Alex Frye   Title: Tree    Pages: 1 -->
<svg width="1052pt" height="902pt"
 viewBox = "-1 -1 1051 901"
 xmlns="http://www.w3.org/2000/svg">
<g id="graph0" class="graph" style="font-family:Times-Roman;font-size:14.00;">
<title>Tree</title>
<g id="node1" class="node"><title>0</title>
<polygon style="fill:#399de5;stroke:black;" points="128,604 6,604 6,692 128,692 128,604"/>
<text text-anchor="middle" x="67" y="621">AGELVL_I &lt;= 0.5</text>
<text text-anchor="middle" x="67" y="637">0.5</text>
<text text-anchor="middle" x="67" y="653">7590</text>
<text text-anchor="middle" x="67" y="669">[5925, 6012]</text>
<text text-anchor="middle" x="67" y="685">SD</text>
</g>
<g id="node2" class="node"><title>1</title>
<polygon style="fill:#e58139;stroke:black;" points="413,491 165,491 165,579 413,579 413,491"/>
<text text-anchor="middle" x="289" y="508">BLS_FEDERAL_TotalSep_Level &lt;= 0.5</text>
<text text-anchor="middle" x="289" y="524">0.4993</text>
<text text-anchor="middle" x="289" y="540">6650</text>
<text text-anchor="middle" x="289" y="556">[5427, 5041]</text>
<text text-anchor="middle" x="289" y="572">NS</text>
</g>
<g id="edge2" class="edge"><title>0&#45;&gt;1</title>
<path style="fill:none;stroke:black;" d="M129,617C149,606 172,595 193,584"/>
<polygon style="fill:black;stroke:black;" points="192,581 202,579 195,587 192,581"/>
<text text-anchor="middle" x="178" y="577">True</text>
</g>
<g id="node32" class="node"><title>16</title>
<polygon style="fill:#399de5;stroke:black;" points="366,716 212,716 212,804 366,804 366,716"/>
<text text-anchor="middle" x="289" y="733">IndAvgSalary &lt;= 0.8333</text>
<text text-anchor="middle" x="289" y="749">0.4482</text>
<text text-anchor="middle" x="289" y="765">940</text>
<text text-anchor="middle" x="289" y="781">[498, 971]</text>
<text text-anchor="middle" x="289" y="797">SD</text>
</g>
<g id="edge32" class="edge"><title>0&#45;&gt;16</title>
<path style="fill:none;stroke:black;" d="M129,679C151,691 177,704 202,716"/>
<polygon style="fill:black;stroke:black;" points="204,713 211,721 201,719 204,713"/>
<text text-anchor="middle" x="187" y="733">False</text>
</g>
<g id="node4" class="node"><title>2</title>
<polygon style="fill:#e58139;stroke:black;" points="644,229 478,229 478,317 644,317 644,229"/>
<text text-anchor="middle" x="561" y="246">LowerLimitAge &lt;= 0.1389</text>
<text text-anchor="middle" x="561" y="262">0.4962</text>
<text text-anchor="middle" x="561" y="278">5840</text>
<text text-anchor="middle" x="561" y="294">[4996, 4191]</text>
<text text-anchor="middle" x="561" y="310">NS</text>
</g>
<g id="edge4" class="edge"><title>1&#45;&gt;2</title>
<path style="fill:none;stroke:black;" d="M335,491C383,445 458,373 508,324"/>
<polygon style="fill:black;stroke:black;" points="505,322 515,317 510,327 505,322"/>
</g>
<g id="node18" class="node"><title>9</title>
<polygon style="fill:#399de5;stroke:black;" points="628,491 494,491 494,579 628,579 628,491"/>
<text text-anchor="middle" x="561" y="508">GSEGRD &lt;= 0.5625</text>
<text text-anchor="middle" x="561" y="524">0.4465</text>
<text text-anchor="middle" x="561" y="540">810</text>
<text text-anchor="middle" x="561" y="556">[431, 850]</text>
<text text-anchor="middle" x="561" y="572">SD</text>
</g>
<g id="edge18" class="edge"><title>1&#45;&gt;9</title>
<path style="fill:none;stroke:black;" d="M413,535C437,535 462,535 484,535"/>
<polygon style="fill:black;stroke:black;" points="484,531 494,535 484,538 484,531"/>
</g>
<g id="node6" class="node"><title>3</title>
<polygon style="fill:#399de5;stroke:black;" points="879,86 753,86 753,174 879,174 879,86"/>
<text text-anchor="middle" x="816" y="103">AGELVL_F &lt;= 0.5</text>
<text text-anchor="middle" x="816" y="119">0.4866</text>
<text text-anchor="middle" x="816" y="135">880</text>
<text text-anchor="middle" x="816" y="151">[576, 802]</text>
<text text-anchor="middle" x="816" y="167">SD</text>
</g>
<g id="edge6" class="edge"><title>2&#45;&gt;3</title>
<path style="fill:none;stroke:black;" d="M640,229C673,211 711,189 743,171"/>
<polygon style="fill:black;stroke:black;" points="742,168 752,166 745,174 742,168"/>
</g>
<g id="node12" class="node"><title>6</title>
<polygon style="fill:#e58139;stroke:black;" points="883,229 749,229 749,317 883,317 883,229"/>
<text text-anchor="middle" x="816" y="246">GSEGRD &lt;= 0.5625</text>
<text text-anchor="middle" x="816" y="262">0.4913</text>
<text text-anchor="middle" x="816" y="278">4960</text>
<text text-anchor="middle" x="816" y="294">[4420, 3389]</text>
<text text-anchor="middle" x="816" y="310">NS</text>
</g>
<g id="edge12" class="edge"><title>2&#45;&gt;6</title>
<path style="fill:none;stroke:black;" d="M644,273C674,273 709,273 739,273"/>
<polygon style="fill:black;stroke:black;" points="739,269 749,273 739,276 739,269"/>
</g>
<g id="node8" class="node"><title>4</title>
<polygon style="fill:#399de5;stroke:black;" points="1038,4 966,4 966,76 1038,76 1038,4"/>
<text text-anchor="middle" x="1002" y="21">0.4899</text>
<text text-anchor="middle" x="1002" y="37">858</text>
<text text-anchor="middle" x="1002" y="53">[575, 766]</text>
<text text-anchor="middle" x="1002" y="69">SD</text>
</g>
<g id="edge8" class="edge"><title>3&#45;&gt;4</title>
<path style="fill:none;stroke:black;" d="M880,99C905,87 933,74 956,62"/>
<polygon style="fill:black;stroke:black;" points="954,59 965,58 957,65 954,59"/>
</g>
<g id="node10" class="node"><title>5</title>
<polygon style="fill:#399de5;stroke:black;" points="1029,94 975,94 975,166 1029,166 1029,94"/>
<text text-anchor="middle" x="1002" y="111">0.0526</text>
<text text-anchor="middle" x="1002" y="127">22</text>
<text text-anchor="middle" x="1002" y="143">[1, 36]</text>
<text text-anchor="middle" x="1002" y="159">SD</text>
</g>
<g id="edge10" class="edge"><title>3&#45;&gt;5</title>
<path style="fill:none;stroke:black;" d="M880,130C908,130 940,130 964,130"/>
<polygon style="fill:black;stroke:black;" points="964,126 974,130 964,133 964,126"/>
</g>
<g id="node14" class="node"><title>7</title>
<polygon style="fill:#399de5;stroke:black;" points="1042,184 962,184 962,256 1042,256 1042,184"/>
<text text-anchor="middle" x="1002" y="201">0.4714</text>
<text text-anchor="middle" x="1002" y="217">1623</text>
<text text-anchor="middle" x="1002" y="233">[964, 1570]</text>
<text text-anchor="middle" x="1002" y="249">SD</text>
</g>
<g id="edge14" class="edge"><title>6&#45;&gt;7</title>
<path style="fill:none;stroke:black;" d="M883,254C905,248 930,240 951,235"/>
<polygon style="fill:black;stroke:black;" points="950,232 961,232 952,238 950,232"/>
</g>
<g id="node16" class="node"><title>8</title>
<polygon style="fill:#e58139;stroke:black;" points="1045,274 959,274 959,346 1045,346 1045,274"/>
<text text-anchor="middle" x="1002" y="291">0.4518</text>
<text text-anchor="middle" x="1002" y="307">3337</text>
<text text-anchor="middle" x="1002" y="323">[3456, 1819]</text>
<text text-anchor="middle" x="1002" y="339">NS</text>
</g>
<g id="edge16" class="edge"><title>6&#45;&gt;8</title>
<path style="fill:none;stroke:black;" d="M883,286C904,290 928,295 949,299"/>
<polygon style="fill:black;stroke:black;" points="950,296 959,301 949,302 950,296"/>
</g>
<g id="node20" class="node"><title>10</title>
<polygon style="fill:#399de5;stroke:black;" points="913,438 719,438 719,526 913,526 913,438"/>
<text text-anchor="middle" x="816" y="455">SalaryOverUnderIndAvg &lt;= 0.5</text>
<text text-anchor="middle" x="816" y="471">0.366</text>
<text text-anchor="middle" x="816" y="487">318</text>
<text text-anchor="middle" x="816" y="503">[123, 387]</text>
<text text-anchor="middle" x="816" y="519">SD</text>
</g>
<g id="edge20" class="edge"><title>9&#45;&gt;10</title>
<path style="fill:none;stroke:black;" d="M628,521C653,516 681,510 708,504"/>
<polygon style="fill:black;stroke:black;" points="708,501 718,502 709,507 708,501"/>
</g>
<g id="node26" class="node"><title>13</title>
<polygon style="fill:#399de5;stroke:black;" points="923,544 709,544 709,632 923,632 923,544"/>
<text text-anchor="middle" x="816" y="561">SalaryOverUnderIndAvg &lt;= 0.1667</text>
<text text-anchor="middle" x="816" y="577">0.4798</text>
<text text-anchor="middle" x="816" y="593">492</text>
<text text-anchor="middle" x="816" y="609">[308, 463]</text>
<text text-anchor="middle" x="816" y="625">SD</text>
</g>
<g id="edge26" class="edge"><title>9&#45;&gt;13</title>
<path style="fill:none;stroke:black;" d="M628,549C650,553 674,559 699,564"/>
<polygon style="fill:black;stroke:black;" points="700,561 709,566 699,567 700,561"/>
</g>
<g id="node22" class="node"><title>11</title>
<polygon style="fill:#399de5;stroke:black;" points="1035,364 969,364 969,436 1035,436 1035,364"/>
<text text-anchor="middle" x="1002" y="381">0.3388</text>
<text text-anchor="middle" x="1002" y="397">225</text>
<text text-anchor="middle" x="1002" y="413">[78, 283]</text>
<text text-anchor="middle" x="1002" y="429">SD</text>
</g>
<g id="edge22" class="edge"><title>10&#45;&gt;11</title>
<path style="fill:none;stroke:black;" d="M914,439C930,432 946,425 959,419"/>
<polygon style="fill:black;stroke:black;" points="957,416 968,415 960,422 957,416"/>
</g>
<g id="node24" class="node"><title>12</title>
<polygon style="fill:#399de5;stroke:black;" points="1035,454 969,454 969,526 1035,526 1035,454"/>
<text text-anchor="middle" x="1002" y="471">0.4216</text>
<text text-anchor="middle" x="1002" y="487">93</text>
<text text-anchor="middle" x="1002" y="503">[45, 104]</text>
<text text-anchor="middle" x="1002" y="519">SD</text>
</g>
<g id="edge24" class="edge"><title>10&#45;&gt;12</title>
<path style="fill:none;stroke:black;" d="M914,486C930,487 945,488 958,488"/>
<polygon style="fill:black;stroke:black;" points="958,484 968,488 958,491 958,484"/>
</g>
<g id="node28" class="node"><title>14</title>
<polygon style="fill:#399de5;stroke:black;" points="1031,544 973,544 973,616 1031,616 1031,544"/>
<text text-anchor="middle" x="1002" y="561">0.5</text>
<text text-anchor="middle" x="1002" y="577">104</text>
<text text-anchor="middle" x="1002" y="593">[81, 82]</text>
<text text-anchor="middle" x="1002" y="609">SD</text>
</g>
<g id="edge28" class="edge"><title>13&#45;&gt;14</title>
<path style="fill:none;stroke:black;" d="M923,583C937,583 950,582 962,582"/>
<polygon style="fill:black;stroke:black;" points="962,579 972,581 962,585 962,579"/>
</g>
<g id="node30" class="node"><title>15</title>
<polygon style="fill:#399de5;stroke:black;" points="1038,634 966,634 966,706 1038,706 1038,634"/>
<text text-anchor="middle" x="1002" y="651">0.4679</text>
<text text-anchor="middle" x="1002" y="667">388</text>
<text text-anchor="middle" x="1002" y="683">[227, 381]</text>
<text text-anchor="middle" x="1002" y="699">SD</text>
</g>
<g id="edge30" class="edge"><title>13&#45;&gt;15</title>
<path style="fill:none;stroke:black;" d="M916,632C930,638 944,644 956,650"/>
<polygon style="fill:black;stroke:black;" points="957,647 965,654 954,653 957,647"/>
</g>
<g id="node34" class="node"><title>17</title>
<polygon style="fill:#399de5;stroke:black;" points="673,716 449,716 449,804 673,804 673,716"/>
<text text-anchor="middle" x="561" y="733">BLS_FEDERAL_Quits_Rate &lt;= 0.5</text>
<text text-anchor="middle" x="561" y="749">0.3742</text>
<text text-anchor="middle" x="561" y="765">789</text>
<text text-anchor="middle" x="561" y="781">[306, 922]</text>
<text text-anchor="middle" x="561" y="797">SD</text>
</g>
<g id="edge34" class="edge"><title>16&#45;&gt;17</title>
<path style="fill:none;stroke:black;" d="M367,760C389,760 414,760 439,760"/>
<polygon style="fill:black;stroke:black;" points="439,756 449,760 439,763 439,756"/>
</g>
<g id="node44" class="node"><title>22</title>
<polygon style="fill:#e58139;stroke:black;" points="594,822 528,822 528,894 594,894 594,822"/>
<text text-anchor="middle" x="561" y="839">0.324</text>
<text text-anchor="middle" x="561" y="855">151</text>
<text text-anchor="middle" x="561" y="871">[192, 49]</text>
<text text-anchor="middle" x="561" y="887">NS</text>
</g>
<g id="edge44" class="edge"><title>16&#45;&gt;22</title>
<path style="fill:none;stroke:black;" d="M367,788C416,806 477,828 517,843"/>
<polygon style="fill:black;stroke:black;" points="518,840 527,846 516,846 518,840"/>
</g>
<g id="node36" class="node"><title>18</title>
<polygon style="fill:#399de5;stroke:black;" points="923,716 709,716 709,804 923,804 923,716"/>
<text text-anchor="middle" x="816" y="733">SalaryOverUnderIndAvg &lt;= 0.1667</text>
<text text-anchor="middle" x="816" y="749">0.3838</text>
<text text-anchor="middle" x="816" y="765">698</text>
<text text-anchor="middle" x="816" y="781">[282, 807]</text>
<text text-anchor="middle" x="816" y="797">SD</text>
</g>
<g id="edge36" class="edge"><title>17&#45;&gt;18</title>
<path style="fill:none;stroke:black;" d="M673,760C682,760 690,760 699,760"/>
<polygon style="fill:black;stroke:black;" points="699,756 709,760 699,763 699,756"/>
</g>
<g id="node42" class="node"><title>21</title>
<polygon style="fill:#399de5;stroke:black;" points="849,822 783,822 783,894 849,894 849,822"/>
<text text-anchor="middle" x="816" y="839">0.2857</text>
<text text-anchor="middle" x="816" y="855">91</text>
<text text-anchor="middle" x="816" y="871">[24, 115]</text>
<text text-anchor="middle" x="816" y="887">SD</text>
</g>
<g id="edge42" class="edge"><title>17&#45;&gt;21</title>
<path style="fill:none;stroke:black;" d="M673,803C709,816 746,831 773,841"/>
<polygon style="fill:black;stroke:black;" points="775,838 783,845 772,845 775,838"/>
</g>
<g id="node38" class="node"><title>19</title>
<polygon style="fill:#399de5;stroke:black;" points="1035,724 969,724 969,796 1035,796 1035,724"/>
<text text-anchor="middle" x="1002" y="741">0.4874</text>
<text text-anchor="middle" x="1002" y="757">145</text>
<text text-anchor="middle" x="1002" y="773">[98, 135]</text>
<text text-anchor="middle" x="1002" y="789">SD</text>
</g>
<g id="edge38" class="edge"><title>18&#45;&gt;19</title>
<path style="fill:none;stroke:black;" d="M923,760C935,760 947,760 958,760"/>
<polygon style="fill:black;stroke:black;" points="958,756 968,760 958,763 958,756"/>
</g>
<g id="node40" class="node"><title>20</title>
<polygon style="fill:#399de5;stroke:black;" points="1038,814 966,814 966,886 1038,886 1038,814"/>
<text text-anchor="middle" x="1002" y="831">0.3375</text>
<text text-anchor="middle" x="1002" y="847">553</text>
<text text-anchor="middle" x="1002" y="863">[184, 672]</text>
<text text-anchor="middle" x="1002" y="879">SD</text>
</g>
<g id="edge40" class="edge"><title>18&#45;&gt;20</title>
<path style="fill:none;stroke:black;" d="M907,804C924,812 941,820 956,828"/>
<polygon style="fill:black;stroke:black;" points="957,825 965,832 954,831 957,825"/>
</g>
</g>
</svg>
