<?xml version="1.0" encoding="UTF-8" standalone="no"?>
<!DOCTYPE svg PUBLIC "-//W3C//DTD SVG 1.0//EN"
 "http://www.w3.org/TR/2001/REC-SVG-20010904/DTD/svg10.dtd">
<!-- Generated by dot version 2.2 (Tue Jan 25 21:58:56 UTC 2005)
     For user: (amfrye) Alex Frye   Title: Tree    Pages: 1 -->
<svg width="1168pt" height="1262pt"
 viewBox = "-1 -1 1167 1261"
 xmlns="http://www.w3.org/2000/svg">
<g id="graph0" class="graph" style="font-family:Times-Roman;font-size:14.00;">
<title>Tree</title>
<g id="node1" class="node"><title>0</title>
<polygon style="fill:#399de5;stroke:black;" points="190,671 6,671 6,759 190,759 190,671"/>
<text text-anchor="middle" x="98" y="688">YearsToRetirement &lt;= 0.3984</text>
<text text-anchor="middle" x="98" y="704">0.5</text>
<text text-anchor="middle" x="98" y="720">7531</text>
<text text-anchor="middle" x="98" y="736">[5941, 5996]</text>
<text text-anchor="middle" x="98" y="752">SD</text>
</g>
<g id="node2" class="node"><title>1</title>
<polygon style="fill:#399de5;stroke:black;" points="463,491 227,491 227,579 463,579 463,491"/>
<text text-anchor="middle" x="345" y="508">BLS_FEDERAL_Layoffs_Rate &lt;= 0.5</text>
<text text-anchor="middle" x="345" y="524">0.4237</text>
<text text-anchor="middle" x="345" y="540">4853</text>
<text text-anchor="middle" x="345" y="556">[2327, 5311]</text>
<text text-anchor="middle" x="345" y="572">SD</text>
</g>
<g id="edge2" class="edge"><title>0&#45;&gt;1</title>
<path style="fill:none;stroke:black;" d="M158,671C194,645 240,612 277,585"/>
<polygon style="fill:black;stroke:black;" points="275,582 285,579 279,588 275,582"/>
<text text-anchor="middle" x="260" y="580">True</text>
</g>
<g id="node32" class="node"><title>16</title>
<polygon style="fill:#e58139;stroke:black;" points="422,851 268,851 268,939 422,939 422,851"/>
<text text-anchor="middle" x="345" y="868">IndAvgSalary &lt;= 0.7222</text>
<text text-anchor="middle" x="345" y="884">0.2679</text>
<text text-anchor="middle" x="345" y="900">2678</text>
<text text-anchor="middle" x="345" y="916">[3614, 685]</text>
<text text-anchor="middle" x="345" y="932">NS</text>
</g>
<g id="edge32" class="edge"><title>0&#45;&gt;16</title>
<path style="fill:none;stroke:black;" d="M158,759C194,785 240,818 277,845"/>
<polygon style="fill:black;stroke:black;" points="279,842 285,851 275,848 279,842"/>
<text text-anchor="middle" x="260" y="860">False</text>
</g>
<g id="node4" class="node"><title>2</title>
<polygon style="fill:#399de5;stroke:black;" points="675,229 553,229 553,317 675,317 675,229"/>
<text text-anchor="middle" x="614" y="246">AGELVL_I &lt;= 0.5</text>
<text text-anchor="middle" x="614" y="262">0.4271</text>
<text text-anchor="middle" x="614" y="278">4706</text>
<text text-anchor="middle" x="614" y="294">[2286, 5111]</text>
<text text-anchor="middle" x="614" y="310">SD</text>
</g>
<g id="edge4" class="edge"><title>1&#45;&gt;2</title>
<path style="fill:none;stroke:black;" d="M390,491C438,445 512,373 561,324"/>
<polygon style="fill:black;stroke:black;" points="558,322 568,317 563,327 558,322"/>
</g>
<g id="node18" class="node"><title>9</title>
<polygon style="fill:#399de5;stroke:black;" points="691,491 537,491 537,579 691,579 691,491"/>
<text text-anchor="middle" x="614" y="508">IndAvgSalary &lt;= 0.3889</text>
<text text-anchor="middle" x="614" y="524">0.2824</text>
<text text-anchor="middle" x="614" y="540">147</text>
<text text-anchor="middle" x="614" y="556">[41, 200]</text>
<text text-anchor="middle" x="614" y="572">SD</text>
</g>
<g id="edge18" class="edge"><title>1&#45;&gt;9</title>
<path style="fill:none;stroke:black;" d="M463,535C484,535 506,535 526,535"/>
<polygon style="fill:black;stroke:black;" points="526,531 536,535 526,538 526,531"/>
</g>
<g id="node6" class="node"><title>3</title>
<polygon style="fill:#399de5;stroke:black;" points="1024,86 778,86 778,174 1024,174 1024,86"/>
<text text-anchor="middle" x="901" y="103">BLS_FEDERAL_OtherSep_Rate &lt;= 0.5</text>
<text text-anchor="middle" x="901" y="119">0.4367</text>
<text text-anchor="middle" x="901" y="135">4041</text>
<text text-anchor="middle" x="901" y="151">[2052, 4318]</text>
<text text-anchor="middle" x="901" y="167">SD</text>
</g>
<g id="edge6" class="edge"><title>2&#45;&gt;3</title>
<path style="fill:none;stroke:black;" d="M676,242C713,223 761,200 803,179"/>
<polygon style="fill:black;stroke:black;" points="802,176 812,174 805,182 802,176"/>
</g>
<g id="node12" class="node"><title>6</title>
<polygon style="fill:#399de5;stroke:black;" points="965,229 837,229 837,317 965,317 965,229"/>
<text text-anchor="middle" x="901" y="246">AGELVL_D &lt;= 0.5</text>
<text text-anchor="middle" x="901" y="262">0.3519</text>
<text text-anchor="middle" x="901" y="278">665</text>
<text text-anchor="middle" x="901" y="294">[234, 793]</text>
<text text-anchor="middle" x="901" y="310">SD</text>
</g>
<g id="edge12" class="edge"><title>2&#45;&gt;6</title>
<path style="fill:none;stroke:black;" d="M676,273C720,273 779,273 826,273"/>
<polygon style="fill:black;stroke:black;" points="826,269 836,273 826,276 826,269"/>
</g>
<g id="node8" class="node"><title>4</title>
<polygon style="fill:#399de5;stroke:black;" points="1161,4 1073,4 1073,76 1161,76 1161,4"/>
<text text-anchor="middle" x="1117" y="21">0.4381</text>
<text text-anchor="middle" x="1117" y="37">3971</text>
<text text-anchor="middle" x="1117" y="53">[2029, 4231]</text>
<text text-anchor="middle" x="1117" y="69">SD</text>
</g>
<g id="edge8" class="edge"><title>3&#45;&gt;4</title>
<path style="fill:none;stroke:black;" d="M1007,86C1026,78 1047,70 1064,63"/>
<polygon style="fill:black;stroke:black;" points="1062,60 1073,59 1065,66 1062,60"/>
</g>
<g id="node10" class="node"><title>5</title>
<polygon style="fill:#399de5;stroke:black;" points="1147,94 1087,94 1087,166 1147,166 1147,94"/>
<text text-anchor="middle" x="1117" y="111">0.3307</text>
<text text-anchor="middle" x="1117" y="127">70</text>
<text text-anchor="middle" x="1117" y="143">[23, 87]</text>
<text text-anchor="middle" x="1117" y="159">SD</text>
</g>
<g id="edge10" class="edge"><title>3&#45;&gt;5</title>
<path style="fill:none;stroke:black;" d="M1024,130C1043,130 1061,130 1076,130"/>
<polygon style="fill:black;stroke:black;" points="1076,126 1086,130 1076,133 1076,126"/>
</g>
<g id="node14" class="node"><title>7</title>
<polygon style="fill:#399de5;stroke:black;" points="1154,184 1080,184 1080,256 1154,256 1154,184"/>
<text text-anchor="middle" x="1117" y="201">0.3502</text>
<text text-anchor="middle" x="1117" y="217">646</text>
<text text-anchor="middle" x="1117" y="233">[225, 769]</text>
<text text-anchor="middle" x="1117" y="249">SD</text>
</g>
<g id="edge14" class="edge"><title>6&#45;&gt;7</title>
<path style="fill:none;stroke:black;" d="M966,257C999,249 1039,239 1070,231"/>
<polygon style="fill:black;stroke:black;" points="1070,228 1080,229 1071,234 1070,228"/>
</g>
<g id="node16" class="node"><title>8</title>
<polygon style="fill:#399de5;stroke:black;" points="1144,274 1090,274 1090,346 1144,346 1144,274"/>
<text text-anchor="middle" x="1117" y="291">0.3967</text>
<text text-anchor="middle" x="1117" y="307">19</text>
<text text-anchor="middle" x="1117" y="323">[9, 24]</text>
<text text-anchor="middle" x="1117" y="339">SD</text>
</g>
<g id="edge16" class="edge"><title>6&#45;&gt;8</title>
<path style="fill:none;stroke:black;" d="M966,284C1003,290 1048,298 1079,303"/>
<polygon style="fill:black;stroke:black;" points="1080,300 1089,305 1079,306 1080,300"/>
</g>
<g id="node20" class="node"><title>10</title>
<polygon style="fill:#399de5;stroke:black;" points="967,438 835,438 835,526 967,526 967,438"/>
<text text-anchor="middle" x="901" y="455">GSEGRD &lt;= 0.6875</text>
<text text-anchor="middle" x="901" y="471">0.1816</text>
<text text-anchor="middle" x="901" y="487">66</text>
<text text-anchor="middle" x="901" y="503">[10, 89]</text>
<text text-anchor="middle" x="901" y="519">SD</text>
</g>
<g id="edge20" class="edge"><title>9&#45;&gt;10</title>
<path style="fill:none;stroke:black;" d="M692,521C733,514 784,504 824,496"/>
<polygon style="fill:black;stroke:black;" points="824,493 834,494 825,499 824,493"/>
</g>
<g id="node26" class="node"><title>13</title>
<polygon style="fill:#399de5;stroke:black;" points="1037,544 765,544 765,632 1037,632 1037,544"/>
<text text-anchor="middle" x="901" y="561">BLS_FEDERAL_JobOpenings_Level &lt;= 0.5</text>
<text text-anchor="middle" x="901" y="577">0.3413</text>
<text text-anchor="middle" x="901" y="593">81</text>
<text text-anchor="middle" x="901" y="609">[31, 111]</text>
<text text-anchor="middle" x="901" y="625">SD</text>
</g>
<g id="edge26" class="edge"><title>9&#45;&gt;13</title>
<path style="fill:none;stroke:black;" d="M692,549C712,552 733,557 755,561"/>
<polygon style="fill:black;stroke:black;" points="756,558 765,563 755,564 756,558"/>
</g>
<g id="node22" class="node"><title>11</title>
<polygon style="fill:#399de5;stroke:black;" points="1144,364 1090,364 1090,436 1144,436 1144,364"/>
<text text-anchor="middle" x="1117" y="381">0.1495</text>
<text text-anchor="middle" x="1117" y="397">57</text>
<text text-anchor="middle" x="1117" y="413">[7, 79]</text>
<text text-anchor="middle" x="1117" y="429">SD</text>
</g>
<g id="edge22" class="edge"><title>10&#45;&gt;11</title>
<path style="fill:none;stroke:black;" d="M968,457C1005,443 1049,426 1080,414"/>
<polygon style="fill:black;stroke:black;" points="1079,410 1090,410 1082,417 1079,410"/>
</g>
<g id="node24" class="node"><title>12</title>
<polygon style="fill:#399de5;stroke:black;" points="1144,454 1090,454 1090,526 1144,526 1144,454"/>
<text text-anchor="middle" x="1117" y="471">0.355</text>
<text text-anchor="middle" x="1117" y="487">9</text>
<text text-anchor="middle" x="1117" y="503">[3, 10]</text>
<text text-anchor="middle" x="1117" y="519">SD</text>
</g>
<g id="edge24" class="edge"><title>10&#45;&gt;12</title>
<path style="fill:none;stroke:black;" d="M968,484C1005,486 1049,488 1080,489"/>
<polygon style="fill:black;stroke:black;" points="1080,485 1090,489 1080,492 1080,485"/>
</g>
<g id="node28" class="node"><title>14</title>
<polygon style="fill:#399de5;stroke:black;" points="1147,544 1087,544 1087,616 1147,616 1147,544"/>
<text text-anchor="middle" x="1117" y="561">0.3264</text>
<text text-anchor="middle" x="1117" y="577">64</text>
<text text-anchor="middle" x="1117" y="593">[23, 89]</text>
<text text-anchor="middle" x="1117" y="609">SD</text>
</g>
<g id="edge28" class="edge"><title>13&#45;&gt;14</title>
<path style="fill:none;stroke:black;" d="M1037,583C1051,582 1064,581 1076,581"/>
<polygon style="fill:black;stroke:black;" points="1076,577 1086,581 1076,584 1076,577"/>
</g>
<g id="node30" class="node"><title>15</title>
<polygon style="fill:#399de5;stroke:black;" points="1144,634 1090,634 1090,706 1144,706 1144,634"/>
<text text-anchor="middle" x="1117" y="651">0.3911</text>
<text text-anchor="middle" x="1117" y="667">17</text>
<text text-anchor="middle" x="1117" y="683">[8, 22]</text>
<text text-anchor="middle" x="1117" y="699">SD</text>
</g>
<g id="edge30" class="edge"><title>13&#45;&gt;15</title>
<path style="fill:none;stroke:black;" d="M1017,632C1040,640 1063,649 1081,656"/>
<polygon style="fill:black;stroke:black;" points="1082,653 1090,660 1079,659 1082,653"/>
</g>
<g id="node34" class="node"><title>17</title>
<polygon style="fill:#e58139;stroke:black;" points="728,851 500,851 500,939 728,939 728,851"/>
<text text-anchor="middle" x="614" y="868">BLS_FEDERAL_Quits_Level &lt;= 0.5</text>
<text text-anchor="middle" x="614" y="884">0.4552</text>
<text text-anchor="middle" x="614" y="900">953</text>
<text text-anchor="middle" x="614" y="916">[970, 523]</text>
<text text-anchor="middle" x="614" y="932">NS</text>
</g>
<g id="edge34" class="edge"><title>16&#45;&gt;17</title>
<path style="fill:none;stroke:black;" d="M422,895C443,895 466,895 489,895"/>
<polygon style="fill:black;stroke:black;" points="489,891 499,895 489,898 489,891"/>
</g>
<g id="node48" class="node"><title>24</title>
<polygon style="fill:#e58139;stroke:black;" points="678,1076 550,1076 550,1164 678,1164 678,1076"/>
<text text-anchor="middle" x="614" y="1093">AGELVL_B &lt;= 0.5</text>
<text text-anchor="middle" x="614" y="1109">0.1088</text>
<text text-anchor="middle" x="614" y="1125">1725</text>
<text text-anchor="middle" x="614" y="1141">[2644, 162]</text>
<text text-anchor="middle" x="614" y="1157">NS</text>
</g>
<g id="edge48" class="edge"><title>16&#45;&gt;24</title>
<path style="fill:none;stroke:black;" d="M398,939C442,977 507,1031 553,1069"/>
<polygon style="fill:black;stroke:black;" points="556,1067 561,1076 551,1072 556,1067"/>
</g>
<g id="node36" class="node"><title>18</title>
<polygon style="fill:#e58139;stroke:black;" points="962,798 840,798 840,886 962,886 962,798"/>
<text text-anchor="middle" x="901" y="815">AGELVL_I &lt;= 0.5</text>
<text text-anchor="middle" x="901" y="831">0.4776</text>
<text text-anchor="middle" x="901" y="847">632</text>
<text text-anchor="middle" x="901" y="863">[587, 382]</text>
<text text-anchor="middle" x="901" y="879">NS</text>
</g>
<g id="edge36" class="edge"><title>17&#45;&gt;18</title>
<path style="fill:none;stroke:black;" d="M729,874C763,868 799,861 829,855"/>
<polygon style="fill:black;stroke:black;" points="829,852 839,853 830,858 829,852"/>
</g>
<g id="node42" class="node"><title>21</title>
<polygon style="fill:#e58139;stroke:black;" points="968,904 834,904 834,992 968,992 968,904"/>
<text text-anchor="middle" x="901" y="921">SALARYLog &lt;= 0.5</text>
<text text-anchor="middle" x="901" y="937">0.3934</text>
<text text-anchor="middle" x="901" y="953">321</text>
<text text-anchor="middle" x="901" y="969">[383, 141]</text>
<text text-anchor="middle" x="901" y="985">NS</text>
</g>
<g id="edge42" class="edge"><title>17&#45;&gt;21</title>
<path style="fill:none;stroke:black;" d="M729,916C761,922 795,929 824,934"/>
<polygon style="fill:black;stroke:black;" points="825,931 834,936 824,937 825,931"/>
</g>
<g id="node38" class="node"><title>19</title>
<polygon style="fill:#e58139;stroke:black;" points="1154,724 1080,724 1080,796 1154,796 1154,724"/>
<text text-anchor="middle" x="1117" y="741">0.4708</text>
<text text-anchor="middle" x="1117" y="757">585</text>
<text text-anchor="middle" x="1117" y="773">[550, 336]</text>
<text text-anchor="middle" x="1117" y="789">NS</text>
</g>
<g id="edge38" class="edge"><title>18&#45;&gt;19</title>
<path style="fill:none;stroke:black;" d="M963,819C997,805 1038,789 1070,778"/>
<polygon style="fill:black;stroke:black;" points="1068,775 1079,774 1071,781 1068,775"/>
</g>
<g id="node40" class="node"><title>20</title>
<polygon style="fill:#399de5;stroke:black;" points="1146,814 1088,814 1088,886 1146,886 1146,814"/>
<text text-anchor="middle" x="1117" y="831">0.4941</text>
<text text-anchor="middle" x="1117" y="847">47</text>
<text text-anchor="middle" x="1117" y="863">[37, 46]</text>
<text text-anchor="middle" x="1117" y="879">SD</text>
</g>
<g id="edge40" class="edge"><title>18&#45;&gt;20</title>
<path style="fill:none;stroke:black;" d="M963,844C999,846 1045,848 1077,849"/>
<polygon style="fill:black;stroke:black;" points="1077,845 1087,849 1077,852 1077,845"/>
</g>
<g id="node44" class="node"><title>22</title>
<polygon style="fill:#e58139;stroke:black;" points="1153,904 1081,904 1081,976 1153,976 1153,904"/>
<text text-anchor="middle" x="1117" y="921">0.3879</text>
<text text-anchor="middle" x="1117" y="937">312</text>
<text text-anchor="middle" x="1117" y="953">[375, 134]</text>
<text text-anchor="middle" x="1117" y="969">NS</text>
</g>
<g id="edge44" class="edge"><title>21&#45;&gt;22</title>
<path style="fill:none;stroke:black;" d="M968,946C1001,944 1040,942 1070,941"/>
<polygon style="fill:black;stroke:black;" points="1070,937 1080,941 1070,944 1070,937"/>
</g>
<g id="node46" class="node"><title>23</title>
<polygon style="fill:#e58139;stroke:black;" points="1144,994 1090,994 1090,1066 1144,1066 1144,994"/>
<text text-anchor="middle" x="1117" y="1011">0.4978</text>
<text text-anchor="middle" x="1117" y="1027">9</text>
<text text-anchor="middle" x="1117" y="1043">[8, 7]</text>
<text text-anchor="middle" x="1117" y="1059">NS</text>
</g>
<g id="edge46" class="edge"><title>21&#45;&gt;23</title>
<path style="fill:none;stroke:black;" d="M968,973C1005,987 1049,1004 1080,1016"/>
<polygon style="fill:black;stroke:black;" points="1081,1013 1089,1020 1078,1019 1081,1013"/>
</g>
<g id="node50" class="node"><title>25</title>
<polygon style="fill:#e58139;stroke:black;" points="998,1076 804,1076 804,1164 998,1164 998,1076"/>
<text text-anchor="middle" x="901" y="1093">SalaryOverUnderIndAvg &lt;= 0.5</text>
<text text-anchor="middle" x="901" y="1109">0.1077</text>
<text text-anchor="middle" x="901" y="1125">1713</text>
<text text-anchor="middle" x="901" y="1141">[2625, 159]</text>
<text text-anchor="middle" x="901" y="1157">NS</text>
</g>
<g id="edge50" class="edge"><title>24&#45;&gt;25</title>
<path style="fill:none;stroke:black;" d="M678,1120C712,1120 754,1120 793,1120"/>
<polygon style="fill:black;stroke:black;" points="793,1116 803,1120 793,1123 793,1116"/>
</g>
<g id="node56" class="node"><title>28</title>
<polygon style="fill:#e58139;stroke:black;" points="928,1182 874,1182 874,1254 928,1254 928,1182"/>
<text text-anchor="middle" x="901" y="1199">0.2355</text>
<text text-anchor="middle" x="901" y="1215">12</text>
<text text-anchor="middle" x="901" y="1231">[19, 3]</text>
<text text-anchor="middle" x="901" y="1247">NS</text>
</g>
<g id="edge56" class="edge"><title>24&#45;&gt;28</title>
<path style="fill:none;stroke:black;" d="M678,1143C705,1153 737,1164 765,1173 799,1185 836,1197 863,1206"/>
<polygon style="fill:black;stroke:black;" points="864,1203 873,1209 862,1209 864,1203"/>
</g>
<g id="node52" class="node"><title>26</title>
<polygon style="fill:#e58139;stroke:black;" points="1154,1084 1080,1084 1080,1156 1154,1156 1154,1084"/>
<text text-anchor="middle" x="1117" y="1101">0.1267</text>
<text text-anchor="middle" x="1117" y="1117">868</text>
<text text-anchor="middle" x="1117" y="1133">[1330, 97]</text>
<text text-anchor="middle" x="1117" y="1149">NS</text>
</g>
<g id="edge52" class="edge"><title>25&#45;&gt;26</title>
<path style="fill:none;stroke:black;" d="M999,1120C1024,1120 1049,1120 1070,1120"/>
<polygon style="fill:black;stroke:black;" points="1070,1116 1080,1120 1070,1123 1070,1116"/>
</g>
<g id="node54" class="node"><title>27</title>
<polygon style="fill:#e58139;stroke:black;" points="1154,1174 1080,1174 1080,1246 1154,1246 1154,1174"/>
<text text-anchor="middle" x="1117" y="1191">0.0872</text>
<text text-anchor="middle" x="1117" y="1207">845</text>
<text text-anchor="middle" x="1117" y="1223">[1295, 62]</text>
<text text-anchor="middle" x="1117" y="1239">NS</text>
</g>
<g id="edge54" class="edge"><title>25&#45;&gt;27</title>
<path style="fill:none;stroke:black;" d="M999,1157C1012,1162 1025,1168 1037,1173 1048,1178 1060,1183 1071,1188"/>
<polygon style="fill:black;stroke:black;" points="1072,1185 1080,1192 1069,1191 1072,1185"/>
</g>
</g>
</svg>
