<?xml version="1.0" encoding="UTF-8" standalone="no"?>
<!DOCTYPE svg PUBLIC "-//W3C//DTD SVG 1.0//EN"
 "http://www.w3.org/TR/2001/REC-SVG-20010904/DTD/svg10.dtd">
<!-- Generated by dot version 2.2 (Tue Jan 25 21:58:56 UTC 2005)
     For user: (amfrye) Alex Frye   Title: Tree    Pages: 1 -->
<svg width="1098pt" height="1172pt"
 viewBox = "-1 -1 1097 1171"
 xmlns="http://www.w3.org/2000/svg">
<g id="graph0" class="graph" style="font-family:Times-Roman;font-size:14.00;">
<title>Tree</title>
<g id="node1" class="node"><title>0</title>
<polygon style="fill:#e58139;stroke:black;" points="159,694 5,694 5,782 159,782 159,694"/>
<text text-anchor="middle" x="82" y="711">IndAvgSalary &lt;= 0.7222</text>
<text text-anchor="middle" x="82" y="727">0.4999</text>
<text text-anchor="middle" x="82" y="743">7544</text>
<text text-anchor="middle" x="82" y="759">[6042, 5895]</text>
<text text-anchor="middle" x="82" y="775">NS</text>
</g>
<g id="node2" class="node"><title>1</title>
<polygon style="fill:#399de5;stroke:black;" points="436,491 196,491 196,579 436,579 436,491"/>
<text text-anchor="middle" x="316" y="508">BLS_FEDERAL_Layoffs_Level &lt;= 0.5</text>
<text text-anchor="middle" x="316" y="524">0.4661</text>
<text text-anchor="middle" x="316" y="540">5213</text>
<text text-anchor="middle" x="316" y="556">[3063, 5219]</text>
<text text-anchor="middle" x="316" y="572">SD</text>
</g>
<g id="edge2" class="edge"><title>0&#45;&gt;1</title>
<path style="fill:none;stroke:black;" d="M133,694C169,662 219,619 257,586"/>
<polygon style="fill:black;stroke:black;" points="255,583 265,579 260,588 255,583"/>
<text text-anchor="middle" x="240" y="582">True</text>
</g>
<g id="node32" class="node"><title>16</title>
<polygon style="fill:#e58139;stroke:black;" points="379,839 253,839 253,927 379,927 379,839"/>
<text text-anchor="middle" x="316" y="856">AGELVL_F &lt;= 0.5</text>
<text text-anchor="middle" x="316" y="872">0.3015</text>
<text text-anchor="middle" x="316" y="888">2331</text>
<text text-anchor="middle" x="316" y="904">[2979, 676]</text>
<text text-anchor="middle" x="316" y="920">NS</text>
</g>
<g id="edge32" class="edge"><title>0&#45;&gt;16</title>
<path style="fill:none;stroke:black;" d="M153,782C182,800 215,821 243,839"/>
<polygon style="fill:black;stroke:black;" points="245,836 252,844 242,842 245,836"/>
<text text-anchor="middle" x="228" y="856">False</text>
</g>
<g id="node4" class="node"><title>2</title>
<polygon style="fill:#399de5;stroke:black;" points="657,229 523,229 523,317 657,317 657,229"/>
<text text-anchor="middle" x="590" y="246">IndAvgSalary &lt;= 0.5</text>
<text text-anchor="middle" x="590" y="262">0.4721</text>
<text text-anchor="middle" x="590" y="278">4811</text>
<text text-anchor="middle" x="590" y="294">[2915, 4720]</text>
<text text-anchor="middle" x="590" y="310">SD</text>
</g>
<g id="edge4" class="edge"><title>1&#45;&gt;2</title>
<path style="fill:none;stroke:black;" d="M362,491C410,445 485,373 537,324"/>
<polygon style="fill:black;stroke:black;" points="534,322 544,317 539,327 534,322"/>
</g>
<g id="node18" class="node"><title>9</title>
<polygon style="fill:#399de5;stroke:black;" points="697,491 483,491 483,579 697,579 697,491"/>
<text text-anchor="middle" x="590" y="508">SalaryOverUnderIndAvg &lt;= 0.1667</text>
<text text-anchor="middle" x="590" y="524">0.3528</text>
<text text-anchor="middle" x="590" y="540">402</text>
<text text-anchor="middle" x="590" y="556">[148, 499]</text>
<text text-anchor="middle" x="590" y="572">SD</text>
</g>
<g id="edge18" class="edge"><title>1&#45;&gt;9</title>
<path style="fill:none;stroke:black;" d="M437,535C449,535 461,535 473,535"/>
<polygon style="fill:black;stroke:black;" points="473,531 483,535 473,538 473,531"/>
</g>
<g id="node6" class="node"><title>3</title>
<polygon style="fill:#399de5;stroke:black;" points="916,86 794,86 794,174 916,174 916,86"/>
<text text-anchor="middle" x="855" y="103">AGELVL_I &lt;= 0.5</text>
<text text-anchor="middle" x="855" y="119">0.4453</text>
<text text-anchor="middle" x="855" y="135">3473</text>
<text text-anchor="middle" x="855" y="151">[1836, 3652]</text>
<text text-anchor="middle" x="855" y="167">SD</text>
</g>
<g id="edge6" class="edge"><title>2&#45;&gt;3</title>
<path style="fill:none;stroke:black;" d="M657,237C696,216 745,189 784,168"/>
<polygon style="fill:black;stroke:black;" points="783,165 793,163 786,171 783,165"/>
</g>
<g id="node12" class="node"><title>6</title>
<polygon style="fill:#e58139;stroke:black;" points="907,229 803,229 803,317 907,317 907,229"/>
<text text-anchor="middle" x="855" y="246">LOC_01 &lt;= 0.5</text>
<text text-anchor="middle" x="855" y="262">0.5</text>
<text text-anchor="middle" x="855" y="278">1338</text>
<text text-anchor="middle" x="855" y="294">[1079, 1068]</text>
<text text-anchor="middle" x="855" y="310">NS</text>
</g>
<g id="edge12" class="edge"><title>2&#45;&gt;6</title>
<path style="fill:none;stroke:black;" d="M657,273C698,273 752,273 792,273"/>
<polygon style="fill:black;stroke:black;" points="792,269 802,273 792,276 792,269"/>
</g>
<g id="node8" class="node"><title>4</title>
<polygon style="fill:#399de5;stroke:black;" points="1089,4 1005,4 1005,76 1089,76 1089,4"/>
<text text-anchor="middle" x="1047" y="21">0.4538</text>
<text text-anchor="middle" x="1047" y="37">3033</text>
<text text-anchor="middle" x="1047" y="53">[1674, 3136]</text>
<text text-anchor="middle" x="1047" y="69">SD</text>
</g>
<g id="edge8" class="edge"><title>3&#45;&gt;4</title>
<path style="fill:none;stroke:black;" d="M917,101C943,90 971,76 995,64"/>
<polygon style="fill:black;stroke:black;" points="993,61 1004,60 996,67 993,61"/>
</g>
<g id="node10" class="node"><title>5</title>
<polygon style="fill:#399de5;stroke:black;" points="1083,94 1011,94 1011,166 1083,166 1083,94"/>
<text text-anchor="middle" x="1047" y="111">0.3637</text>
<text text-anchor="middle" x="1047" y="127">440</text>
<text text-anchor="middle" x="1047" y="143">[162, 516]</text>
<text text-anchor="middle" x="1047" y="159">SD</text>
</g>
<g id="edge10" class="edge"><title>3&#45;&gt;5</title>
<path style="fill:none;stroke:black;" d="M917,130C944,130 975,130 1001,130"/>
<polygon style="fill:black;stroke:black;" points="1001,126 1011,130 1001,133 1001,126"/>
</g>
<g id="node14" class="node"><title>7</title>
<polygon style="fill:#399de5;stroke:black;" points="1077,184 1017,184 1017,256 1077,256 1077,184"/>
<text text-anchor="middle" x="1047" y="201">0.3977</text>
<text text-anchor="middle" x="1047" y="217">50</text>
<text text-anchor="middle" x="1047" y="233">[23, 61]</text>
<text text-anchor="middle" x="1047" y="249">SD</text>
</g>
<g id="edge14" class="edge"><title>6&#45;&gt;7</title>
<path style="fill:none;stroke:black;" d="M908,258C939,250 979,239 1007,231"/>
<polygon style="fill:black;stroke:black;" points="1006,228 1017,228 1008,234 1006,228"/>
</g>
<g id="node16" class="node"><title>8</title>
<polygon style="fill:#e58139;stroke:black;" points="1090,274 1004,274 1004,346 1090,346 1090,274"/>
<text text-anchor="middle" x="1047" y="291">0.4997</text>
<text text-anchor="middle" x="1047" y="307">1288</text>
<text text-anchor="middle" x="1047" y="323">[1056, 1007]</text>
<text text-anchor="middle" x="1047" y="339">NS</text>
</g>
<g id="edge16" class="edge"><title>6&#45;&gt;8</title>
<path style="fill:none;stroke:black;" d="M908,283C934,288 966,294 993,299"/>
<polygon style="fill:black;stroke:black;" points="994,296 1003,301 993,302 994,296"/>
</g>
<g id="node20" class="node"><title>10</title>
<polygon style="fill:#399de5;stroke:black;" points="921,438 789,438 789,526 921,526 921,438"/>
<text text-anchor="middle" x="855" y="455">GSEGRD &lt;= 0.8125</text>
<text text-anchor="middle" x="855" y="471">0.4427</text>
<text text-anchor="middle" x="855" y="487">78</text>
<text text-anchor="middle" x="855" y="503">[42, 85]</text>
<text text-anchor="middle" x="855" y="519">SD</text>
</g>
<g id="edge20" class="edge"><title>9&#45;&gt;10</title>
<path style="fill:none;stroke:black;" d="M697,514C724,509 753,503 778,498"/>
<polygon style="fill:black;stroke:black;" points="778,495 788,496 779,501 778,495"/>
</g>
<g id="node26" class="node"><title>13</title>
<polygon style="fill:#399de5;stroke:black;" points="967,544 743,544 743,632 967,632 967,544"/>
<text text-anchor="middle" x="855" y="561">BLS_FEDERAL_Quits_Rate &lt;= 0.5</text>
<text text-anchor="middle" x="855" y="577">0.3246</text>
<text text-anchor="middle" x="855" y="593">324</text>
<text text-anchor="middle" x="855" y="609">[106, 414]</text>
<text text-anchor="middle" x="855" y="625">SD</text>
</g>
<g id="edge26" class="edge"><title>9&#45;&gt;13</title>
<path style="fill:none;stroke:black;" d="M697,556C709,558 721,561 733,563"/>
<polygon style="fill:black;stroke:black;" points="734,560 743,565 733,566 734,560"/>
</g>
<g id="node22" class="node"><title>11</title>
<polygon style="fill:#399de5;stroke:black;" points="1077,364 1017,364 1017,436 1077,436 1077,364"/>
<text text-anchor="middle" x="1047" y="381">0.4126</text>
<text text-anchor="middle" x="1047" y="397">68</text>
<text text-anchor="middle" x="1047" y="413">[32, 78]</text>
<text text-anchor="middle" x="1047" y="429">SD</text>
</g>
<g id="edge22" class="edge"><title>10&#45;&gt;11</title>
<path style="fill:none;stroke:black;" d="M922,454C950,442 983,428 1008,417"/>
<polygon style="fill:black;stroke:black;" points="1006,414 1017,413 1009,420 1006,414"/>
</g>
<g id="node24" class="node"><title>12</title>
<polygon style="fill:#e58139;stroke:black;" points="1074,454 1020,454 1020,526 1074,526 1074,454"/>
<text text-anchor="middle" x="1047" y="471">0.4844</text>
<text text-anchor="middle" x="1047" y="487">10</text>
<text text-anchor="middle" x="1047" y="503">[10, 7]</text>
<text text-anchor="middle" x="1047" y="519">NS</text>
</g>
<g id="edge24" class="edge"><title>10&#45;&gt;12</title>
<path style="fill:none;stroke:black;" d="M922,485C951,486 984,488 1009,489"/>
<polygon style="fill:black;stroke:black;" points="1009,485 1019,489 1009,492 1009,485"/>
</g>
<g id="node28" class="node"><title>14</title>
<polygon style="fill:#399de5;stroke:black;" points="1081,544 1013,544 1013,616 1081,616 1081,544"/>
<text text-anchor="middle" x="1047" y="561">0.3537</text>
<text text-anchor="middle" x="1047" y="577">269</text>
<text text-anchor="middle" x="1047" y="593">[98, 329]</text>
<text text-anchor="middle" x="1047" y="609">SD</text>
</g>
<g id="edge28" class="edge"><title>13&#45;&gt;14</title>
<path style="fill:none;stroke:black;" d="M967,583C980,583 992,582 1003,582"/>
<polygon style="fill:black;stroke:black;" points="1003,578 1013,582 1003,585 1003,578"/>
</g>
<g id="node30" class="node"><title>15</title>
<polygon style="fill:#399de5;stroke:black;" points="1074,634 1020,634 1020,706 1074,706 1074,634"/>
<text text-anchor="middle" x="1047" y="651">0.1572</text>
<text text-anchor="middle" x="1047" y="667">55</text>
<text text-anchor="middle" x="1047" y="683">[8, 85]</text>
<text text-anchor="middle" x="1047" y="699">SD</text>
</g>
<g id="edge30" class="edge"><title>13&#45;&gt;15</title>
<path style="fill:none;stroke:black;" d="M958,632C977,639 995,647 1010,654"/>
<polygon style="fill:black;stroke:black;" points="1012,651 1020,658 1009,658 1012,651"/>
</g>
<g id="node34" class="node"><title>17</title>
<polygon style="fill:#e58139;stroke:black;" points="706,839 474,839 474,927 706,927 706,839"/>
<text text-anchor="middle" x="590" y="856">SEPCount_EFDATE_OCCLog &lt;= 0.5</text>
<text text-anchor="middle" x="590" y="872">0.2934</text>
<text text-anchor="middle" x="590" y="888">2310</text>
<text text-anchor="middle" x="590" y="904">[2975, 647]</text>
<text text-anchor="middle" x="590" y="920">NS</text>
</g>
<g id="edge34" class="edge"><title>16&#45;&gt;17</title>
<path style="fill:none;stroke:black;" d="M380,883C405,883 434,883 463,883"/>
<polygon style="fill:black;stroke:black;" points="463,879 473,883 463,886 463,879"/>
</g>
<g id="node48" class="node"><title>24</title>
<polygon style="fill:#399de5;stroke:black;" points="673,994 507,994 507,1082 673,1082 673,994"/>
<text text-anchor="middle" x="590" y="1011">LowerLimitAge &lt;= 0.4028</text>
<text text-anchor="middle" x="590" y="1027">0.213</text>
<text text-anchor="middle" x="590" y="1043">21</text>
<text text-anchor="middle" x="590" y="1059">[4, 29]</text>
<text text-anchor="middle" x="590" y="1075">SD</text>
</g>
<g id="edge48" class="edge"><title>16&#45;&gt;24</title>
<path style="fill:none;stroke:black;" d="M380,919C416,939 463,966 503,989"/>
<polygon style="fill:black;stroke:black;" points="505,986 512,994 502,992 505,986"/>
</g>
<g id="node36" class="node"><title>18</title>
<polygon style="fill:#e58139;stroke:black;" points="952,790 758,790 758,878 952,878 952,790"/>
<text text-anchor="middle" x="855" y="807">SalaryOverUnderIndAvg &lt;= 0.5</text>
<text text-anchor="middle" x="855" y="823">0.2911</text>
<text text-anchor="middle" x="855" y="839">2257</text>
<text text-anchor="middle" x="855" y="855">[2919, 627]</text>
<text text-anchor="middle" x="855" y="871">NS</text>
</g>
<g id="edge36" class="edge"><title>17&#45;&gt;18</title>
<path style="fill:none;stroke:black;" d="M707,861C721,859 734,856 747,854"/>
<polygon style="fill:black;stroke:black;" points="747,851 757,852 748,857 747,851"/>
</g>
<g id="node42" class="node"><title>21</title>
<polygon style="fill:#e58139;stroke:black;" points="947,896 763,896 763,984 947,984 947,896"/>
<text text-anchor="middle" x="855" y="913">YearsToRetirement &lt;= 0.2773</text>
<text text-anchor="middle" x="855" y="929">0.3878</text>
<text text-anchor="middle" x="855" y="945">53</text>
<text text-anchor="middle" x="855" y="961">[56, 20]</text>
<text text-anchor="middle" x="855" y="977">NS</text>
</g>
<g id="edge42" class="edge"><title>17&#45;&gt;21</title>
<path style="fill:none;stroke:black;" d="M707,908C723,911 738,915 753,918"/>
<polygon style="fill:black;stroke:black;" points="754,915 763,920 753,921 754,915"/>
</g>
<g id="node38" class="node"><title>19</title>
<polygon style="fill:#e58139;stroke:black;" points="1087,724 1007,724 1007,796 1087,796 1087,724"/>
<text text-anchor="middle" x="1047" y="741">0.3273</text>
<text text-anchor="middle" x="1047" y="757">1241</text>
<text text-anchor="middle" x="1047" y="773">[1552, 403]</text>
<text text-anchor="middle" x="1047" y="789">NS</text>
</g>
<g id="edge38" class="edge"><title>18&#45;&gt;19</title>
<path style="fill:none;stroke:black;" d="M953,796C968,790 983,785 996,780"/>
<polygon style="fill:black;stroke:black;" points="995,776 1006,776 998,783 995,776"/>
</g>
<g id="node40" class="node"><title>20</title>
<polygon style="fill:#e58139;stroke:black;" points="1087,814 1007,814 1007,886 1087,886 1087,814"/>
<text text-anchor="middle" x="1047" y="831">0.2419</text>
<text text-anchor="middle" x="1047" y="847">1016</text>
<text text-anchor="middle" x="1047" y="863">[1367, 224]</text>
<text text-anchor="middle" x="1047" y="879">NS</text>
</g>
<g id="edge40" class="edge"><title>18&#45;&gt;20</title>
<path style="fill:none;stroke:black;" d="M953,842C968,844 983,845 997,846"/>
<polygon style="fill:black;stroke:black;" points="997,843 1007,847 997,849 997,843"/>
</g>
<g id="node44" class="node"><title>22</title>
<polygon style="fill:#399de5;stroke:black;" points="1074,904 1020,904 1020,976 1074,976 1074,904"/>
<text text-anchor="middle" x="1047" y="921">0.1244</text>
<text text-anchor="middle" x="1047" y="937">11</text>
<text text-anchor="middle" x="1047" y="953">[1, 14]</text>
<text text-anchor="middle" x="1047" y="969">SD</text>
</g>
<g id="edge44" class="edge"><title>21&#45;&gt;22</title>
<path style="fill:none;stroke:black;" d="M947,940C969,940 991,940 1010,940"/>
<polygon style="fill:black;stroke:black;" points="1010,936 1020,940 1010,943 1010,936"/>
</g>
<g id="node46" class="node"><title>23</title>
<polygon style="fill:#e58139;stroke:black;" points="1074,994 1020,994 1020,1066 1074,1066 1074,994"/>
<text text-anchor="middle" x="1047" y="1011">0.1774</text>
<text text-anchor="middle" x="1047" y="1027">42</text>
<text text-anchor="middle" x="1047" y="1043">[55, 6]</text>
<text text-anchor="middle" x="1047" y="1059">NS</text>
</g>
<g id="edge46" class="edge"><title>21&#45;&gt;23</title>
<path style="fill:none;stroke:black;" d="M947,983C969,993 992,1004 1011,1013"/>
<polygon style="fill:black;stroke:black;" points="1012,1010 1020,1017 1009,1016 1012,1010"/>
</g>
<g id="node50" class="node"><title>25</title>
<polygon style="fill:#399de5;stroke:black;" points="882,1002 828,1002 828,1074 882,1074 882,1002"/>
<text text-anchor="middle" x="855" y="1019">0.1327</text>
<text text-anchor="middle" x="855" y="1035">11</text>
<text text-anchor="middle" x="855" y="1051">[1, 13]</text>
<text text-anchor="middle" x="855" y="1067">SD</text>
</g>
<g id="edge50" class="edge"><title>24&#45;&gt;25</title>
<path style="fill:none;stroke:black;" d="M674,1038C722,1038 780,1038 818,1038"/>
<polygon style="fill:black;stroke:black;" points="818,1034 828,1038 818,1041 818,1034"/>
</g>
<g id="node52" class="node"><title>26</title>
<polygon style="fill:#399de5;stroke:black;" points="882,1092 828,1092 828,1164 882,1164 882,1092"/>
<text text-anchor="middle" x="855" y="1109">0.2659</text>
<text text-anchor="middle" x="855" y="1125">10</text>
<text text-anchor="middle" x="855" y="1141">[3, 16]</text>
<text text-anchor="middle" x="855" y="1157">SD</text>
</g>
<g id="edge52" class="edge"><title>24&#45;&gt;26</title>
<path style="fill:none;stroke:black;" d="M674,1066C722,1083 780,1102 818,1116"/>
<polygon style="fill:black;stroke:black;" points="819,1113 827,1119 816,1119 819,1113"/>
</g>
</g>
</svg>
