<?xml version="1.0" encoding="UTF-8" standalone="no"?>
<!DOCTYPE svg PUBLIC "-//W3C//DTD SVG 1.0//EN"
 "http://www.w3.org/TR/2001/REC-SVG-20010904/DTD/svg10.dtd">
<!-- Generated by dot version 2.2 (Tue Jan 25 21:58:56 UTC 2005)
     For user: (amfrye) Alex Frye   Title: Tree    Pages: 1 -->
<svg width="1078pt" height="918pt"
 viewBox = "-1 -1 1077 917"
 xmlns="http://www.w3.org/2000/svg">
<g id="graph0" class="graph" style="font-family:Times-Roman;font-size:14.00;">
<title>Tree</title>
<g id="node1" class="node"><title>0</title>
<polygon style="fill:#e58139;stroke:black;" points="159,484 5,484 5,572 159,572 159,484"/>
<text text-anchor="middle" x="82" y="501">IndAvgSalary &lt;= 0.7222</text>
<text text-anchor="middle" x="82" y="517">0.4999</text>
<text text-anchor="middle" x="82" y="533">7581</text>
<text text-anchor="middle" x="82" y="549">[6032, 5905]</text>
<text text-anchor="middle" x="82" y="565">NS</text>
</g>
<g id="node2" class="node"><title>1</title>
<polygon style="fill:#399de5;stroke:black;" points="447,408 195,408 195,496 447,496 447,408"/>
<text text-anchor="middle" x="321" y="425">BLS_FEDERAL_OtherSep_Level &lt;= 0.5</text>
<text text-anchor="middle" x="321" y="441">0.46</text>
<text text-anchor="middle" x="321" y="457">5187</text>
<text text-anchor="middle" x="321" y="473">[2934, 5249]</text>
<text text-anchor="middle" x="321" y="489">SD</text>
</g>
<g id="edge2" class="edge"><title>0&#45;&gt;1</title>
<path style="fill:none;stroke:black;" d="M159,503C167,500 176,498 185,495"/>
<polygon style="fill:black;stroke:black;" points="184,492 195,492 186,498 184,492"/>
<text text-anchor="middle" x="173" y="485">True</text>
</g>
<g id="node28" class="node"><title>14</title>
<polygon style="fill:#e58139;stroke:black;" points="418,559 224,559 224,647 418,647 418,559"/>
<text text-anchor="middle" x="321" y="576">SalaryOverUnderIndAvg &lt;= 0.5</text>
<text text-anchor="middle" x="321" y="592">0.2884</text>
<text text-anchor="middle" x="321" y="608">2394</text>
<text text-anchor="middle" x="321" y="624">[3098, 656]</text>
<text text-anchor="middle" x="321" y="640">NS</text>
</g>
<g id="edge28" class="edge"><title>0&#45;&gt;14</title>
<path style="fill:none;stroke:black;" d="M159,552C177,557 195,563 213,569"/>
<polygon style="fill:black;stroke:black;" points="214,566 223,572 212,572 214,566"/>
<text text-anchor="middle" x="201" y="589">False</text>
</g>
<g id="node4" class="node"><title>2</title>
<polygon style="fill:#399de5;stroke:black;" points="717,213 493,213 493,301 717,301 717,213"/>
<text text-anchor="middle" x="605" y="230">BLS_FEDERAL_Quits_Rate &lt;= 0.5</text>
<text text-anchor="middle" x="605" y="246">0.4533</text>
<text text-anchor="middle" x="605" y="262">4482</text>
<text text-anchor="middle" x="605" y="278">[2459, 4625]</text>
<text text-anchor="middle" x="605" y="294">SD</text>
</g>
<g id="edge4" class="edge"><title>1&#45;&gt;2</title>
<path style="fill:none;stroke:black;" d="M385,408C429,378 487,338 533,307"/>
<polygon style="fill:black;stroke:black;" points="531,304 541,301 535,310 531,304"/>
</g>
<g id="node18" class="node"><title>9</title>
<polygon style="fill:#399de5;stroke:black;" points="657,408 553,408 553,496 657,496 657,408"/>
<text text-anchor="middle" x="605" y="425">LOC_01 &lt;= 0.5</text>
<text text-anchor="middle" x="605" y="441">0.4908</text>
<text text-anchor="middle" x="605" y="457">705</text>
<text text-anchor="middle" x="605" y="473">[475, 624]</text>
<text text-anchor="middle" x="605" y="489">SD</text>
</g>
<g id="edge18" class="edge"><title>1&#45;&gt;9</title>
<path style="fill:none;stroke:black;" d="M447,452C480,452 514,452 542,452"/>
<polygon style="fill:black;stroke:black;" points="542,448 552,452 542,455 542,448"/>
</g>
<g id="node6" class="node"><title>3</title>
<polygon style="fill:#399de5;stroke:black;" points="948,86 764,86 764,174 948,174 948,86"/>
<text text-anchor="middle" x="856" y="103">YearsToRetirement &lt;= 0.3693</text>
<text text-anchor="middle" x="856" y="119">0.4649</text>
<text text-anchor="middle" x="856" y="135">3702</text>
<text text-anchor="middle" x="856" y="151">[2156, 3711]</text>
<text text-anchor="middle" x="856" y="167">SD</text>
</g>
<g id="edge6" class="edge"><title>2&#45;&gt;3</title>
<path style="fill:none;stroke:black;" d="M692,213C714,202 737,190 760,179"/>
<polygon style="fill:black;stroke:black;" points="759,176 769,174 762,182 759,176"/>
</g>
<g id="node12" class="node"><title>6</title>
<polygon style="fill:#399de5;stroke:black;" points="947,213 765,213 765,301 947,301 947,213"/>
<text text-anchor="middle" x="856" y="230">YearsToRetirement &lt;= 0.1734</text>
<text text-anchor="middle" x="856" y="246">0.374</text>
<text text-anchor="middle" x="856" y="262">780</text>
<text text-anchor="middle" x="856" y="278">[303, 914]</text>
<text text-anchor="middle" x="856" y="294">SD</text>
</g>
<g id="edge12" class="edge"><title>2&#45;&gt;6</title>
<path style="fill:none;stroke:black;" d="M717,257C730,257 742,257 755,257"/>
<polygon style="fill:black;stroke:black;" points="755,253 765,257 755,260 755,253"/>
</g>
<g id="node8" class="node"><title>4</title>
<polygon style="fill:#399de5;stroke:black;" points="1071,4 985,4 985,76 1071,76 1071,4"/>
<text text-anchor="middle" x="1028" y="21">0.4124</text>
<text text-anchor="middle" x="1028" y="37">2795</text>
<text text-anchor="middle" x="1028" y="53">[1286, 3137]</text>
<text text-anchor="middle" x="1028" y="69">SD</text>
</g>
<g id="edge8" class="edge"><title>3&#45;&gt;4</title>
<path style="fill:none;stroke:black;" d="M940,86C953,80 965,73 976,68"/>
<polygon style="fill:black;stroke:black;" points="975,65 985,63 978,71 975,65"/>
</g>
<g id="node10" class="node"><title>5</title>
<polygon style="fill:#e58139;stroke:black;" points="1064,94 992,94 992,166 1064,166 1064,94"/>
<text text-anchor="middle" x="1028" y="111">0.479</text>
<text text-anchor="middle" x="1028" y="127">907</text>
<text text-anchor="middle" x="1028" y="143">[870, 574]</text>
<text text-anchor="middle" x="1028" y="159">NS</text>
</g>
<g id="edge10" class="edge"><title>3&#45;&gt;5</title>
<path style="fill:none;stroke:black;" d="M949,130C960,130 971,130 981,130"/>
<polygon style="fill:black;stroke:black;" points="981,126 991,130 981,133 981,126"/>
</g>
<g id="node14" class="node"><title>7</title>
<polygon style="fill:#399de5;stroke:black;" points="1062,184 994,184 994,256 1062,256 1062,184"/>
<text text-anchor="middle" x="1028" y="201">0.2306</text>
<text text-anchor="middle" x="1028" y="217">261</text>
<text text-anchor="middle" x="1028" y="233">[54, 352]</text>
<text text-anchor="middle" x="1028" y="249">SD</text>
</g>
<g id="edge14" class="edge"><title>6&#45;&gt;7</title>
<path style="fill:none;stroke:black;" d="M947,237C960,235 973,232 984,229"/>
<polygon style="fill:black;stroke:black;" points="984,226 994,227 985,232 984,226"/>
</g>
<g id="node16" class="node"><title>8</title>
<polygon style="fill:#399de5;stroke:black;" points="1065,274 991,274 991,346 1065,346 1065,274"/>
<text text-anchor="middle" x="1028" y="291">0.4255</text>
<text text-anchor="middle" x="1028" y="307">519</text>
<text text-anchor="middle" x="1028" y="323">[249, 562]</text>
<text text-anchor="middle" x="1028" y="339">SD</text>
</g>
<g id="edge16" class="edge"><title>6&#45;&gt;8</title>
<path style="fill:none;stroke:black;" d="M947,285C958,289 970,293 980,295"/>
<polygon style="fill:black;stroke:black;" points="981,292 990,298 979,298 981,292"/>
</g>
<g id="node20" class="node"><title>10</title>
<polygon style="fill:#399de5;stroke:black;" points="883,340 829,340 829,412 883,412 883,340"/>
<text text-anchor="middle" x="856" y="357">0.331</text>
<text text-anchor="middle" x="856" y="373">32</text>
<text text-anchor="middle" x="856" y="389">[9, 34]</text>
<text text-anchor="middle" x="856" y="405">SD</text>
</g>
<g id="edge20" class="edge"><title>9&#45;&gt;10</title>
<path style="fill:none;stroke:black;" d="M658,436C706,421 777,400 819,387"/>
<polygon style="fill:black;stroke:black;" points="818,384 829,384 820,390 818,384"/>
</g>
<g id="node22" class="node"><title>11</title>
<polygon style="fill:#399de5;stroke:black;" points="922,430 790,430 790,518 922,518 922,430"/>
<text text-anchor="middle" x="856" y="447">GSEGRD &lt;= 0.4375</text>
<text text-anchor="middle" x="856" y="463">0.4931</text>
<text text-anchor="middle" x="856" y="479">673</text>
<text text-anchor="middle" x="856" y="495">[466, 590]</text>
<text text-anchor="middle" x="856" y="511">SD</text>
</g>
<g id="edge22" class="edge"><title>9&#45;&gt;11</title>
<path style="fill:none;stroke:black;" d="M658,457C693,460 740,464 779,467"/>
<polygon style="fill:black;stroke:black;" points="779,464 789,468 779,470 779,464"/>
</g>
<g id="node24" class="node"><title>12</title>
<polygon style="fill:#399de5;stroke:black;" points="1061,364 995,364 995,436 1061,436 1061,364"/>
<text text-anchor="middle" x="1028" y="381">0.2945</text>
<text text-anchor="middle" x="1028" y="397">102</text>
<text text-anchor="middle" x="1028" y="413">[28, 128]</text>
<text text-anchor="middle" x="1028" y="429">SD</text>
</g>
<g id="edge24" class="edge"><title>11&#45;&gt;12</title>
<path style="fill:none;stroke:black;" d="M923,445C943,436 966,426 985,418"/>
<polygon style="fill:black;stroke:black;" points="983,415 994,414 986,421 983,415"/>
</g>
<g id="node26" class="node"><title>13</title>
<polygon style="fill:#399de5;stroke:black;" points="1065,454 991,454 991,526 1065,526 1065,454"/>
<text text-anchor="middle" x="1028" y="471">0.4996</text>
<text text-anchor="middle" x="1028" y="487">571</text>
<text text-anchor="middle" x="1028" y="503">[438, 462]</text>
<text text-anchor="middle" x="1028" y="519">SD</text>
</g>
<g id="edge26" class="edge"><title>11&#45;&gt;13</title>
<path style="fill:none;stroke:black;" d="M923,480C942,482 962,484 980,486"/>
<polygon style="fill:black;stroke:black;" points="980,483 990,487 980,489 980,483"/>
</g>
<g id="node30" class="node"><title>15</title>
<polygon style="fill:#e58139;stroke:black;" points="683,559 527,559 527,647 683,647 683,559"/>
<text text-anchor="middle" x="605" y="576">IndAvgSalaryLog &lt;= 0.5</text>
<text text-anchor="middle" x="605" y="592">0.3277</text>
<text text-anchor="middle" x="605" y="608">1322</text>
<text text-anchor="middle" x="605" y="624">[1633, 425]</text>
<text text-anchor="middle" x="605" y="640">NS</text>
</g>
<g id="edge30" class="edge"><title>14&#45;&gt;15</title>
<path style="fill:none;stroke:black;" d="M419,603C450,603 486,603 517,603"/>
<polygon style="fill:black;stroke:black;" points="517,599 527,603 517,606 517,599"/>
</g>
<g id="node40" class="node"><title>20</title>
<polygon style="fill:#e58139;stroke:black;" points="726,732 484,732 484,820 726,820 726,732"/>
<text text-anchor="middle" x="605" y="749">BLS_FEDERAL_TotalSep_Rate &lt;= 0.5</text>
<text text-anchor="middle" x="605" y="765">0.2353</text>
<text text-anchor="middle" x="605" y="781">1072</text>
<text text-anchor="middle" x="605" y="797">[1465, 231]</text>
<text text-anchor="middle" x="605" y="813">NS</text>
</g>
<g id="edge40" class="edge"><title>14&#45;&gt;20</title>
<path style="fill:none;stroke:black;" d="M393,647C433,671 483,702 524,727"/>
<polygon style="fill:black;stroke:black;" points="526,724 533,732 523,730 526,724"/>
</g>
<g id="node32" class="node"><title>16</title>
<polygon style="fill:#e58139;stroke:black;" points="947,536 765,536 765,624 947,624 947,536"/>
<text text-anchor="middle" x="856" y="553">YearsToRetirement &lt;= 0.3518</text>
<text text-anchor="middle" x="856" y="569">0.3319</text>
<text text-anchor="middle" x="856" y="585">1288</text>
<text text-anchor="middle" x="856" y="601">[1587, 422]</text>
<text text-anchor="middle" x="856" y="617">NS</text>
</g>
<g id="edge32" class="edge"><title>15&#45;&gt;16</title>
<path style="fill:none;stroke:black;" d="M683,596C706,594 731,592 754,589"/>
<polygon style="fill:black;stroke:black;" points="754,586 764,588 754,592 754,586"/>
</g>
<g id="node38" class="node"><title>19</title>
<polygon style="fill:#e58139;stroke:black;" points="883,642 829,642 829,714 883,714 883,642"/>
<text text-anchor="middle" x="856" y="659">0.115</text>
<text text-anchor="middle" x="856" y="675">34</text>
<text text-anchor="middle" x="856" y="691">[46, 3]</text>
<text text-anchor="middle" x="856" y="707">NS</text>
</g>
<g id="edge38" class="edge"><title>15&#45;&gt;19</title>
<path style="fill:none;stroke:black;" d="M683,626C729,640 784,656 819,667"/>
<polygon style="fill:black;stroke:black;" points="820,664 829,670 818,670 820,664"/>
</g>
<g id="node34" class="node"><title>17</title>
<polygon style="fill:#399de5;stroke:black;" points="1064,544 992,544 992,616 1064,616 1064,544"/>
<text text-anchor="middle" x="1028" y="561">0.4735</text>
<text text-anchor="middle" x="1028" y="577">335</text>
<text text-anchor="middle" x="1028" y="593">[194, 310]</text>
<text text-anchor="middle" x="1028" y="609">SD</text>
</g>
<g id="edge34" class="edge"><title>16&#45;&gt;17</title>
<path style="fill:none;stroke:black;" d="M948,580C960,580 971,580 982,580"/>
<polygon style="fill:black;stroke:black;" points="982,576 992,580 982,583 982,576"/>
</g>
<g id="node36" class="node"><title>18</title>
<polygon style="fill:#e58139;stroke:black;" points="1068,634 988,634 988,706 1068,706 1068,634"/>
<text text-anchor="middle" x="1028" y="651">0.1378</text>
<text text-anchor="middle" x="1028" y="667">953</text>
<text text-anchor="middle" x="1028" y="683">[1393, 112]</text>
<text text-anchor="middle" x="1028" y="699">NS</text>
</g>
<g id="edge36" class="edge"><title>16&#45;&gt;18</title>
<path style="fill:none;stroke:black;" d="M940,624C954,631 967,638 979,644"/>
<polygon style="fill:black;stroke:black;" points="981,641 988,649 978,647 981,641"/>
</g>
<g id="node42" class="node"><title>21</title>
<polygon style="fill:#e58139;stroke:black;" points="922,732 790,732 790,820 922,820 922,732"/>
<text text-anchor="middle" x="856" y="749">GSEGRD &lt;= 0.4375</text>
<text text-anchor="middle" x="856" y="765">0.2341</text>
<text text-anchor="middle" x="856" y="781">1063</text>
<text text-anchor="middle" x="856" y="797">[1456, 228]</text>
<text text-anchor="middle" x="856" y="813">NS</text>
</g>
<g id="edge42" class="edge"><title>20&#45;&gt;21</title>
<path style="fill:none;stroke:black;" d="M727,776C744,776 762,776 779,776"/>
<polygon style="fill:black;stroke:black;" points="779,772 789,776 779,779 779,772"/>
</g>
<g id="node48" class="node"><title>24</title>
<polygon style="fill:#e58139;stroke:black;" points="883,838 829,838 829,910 883,910 883,838"/>
<text text-anchor="middle" x="856" y="855">0.375</text>
<text text-anchor="middle" x="856" y="871">9</text>
<text text-anchor="middle" x="856" y="887">[9, 3]</text>
<text text-anchor="middle" x="856" y="903">NS</text>
</g>
<g id="edge48" class="edge"><title>20&#45;&gt;24</title>
<path style="fill:none;stroke:black;" d="M718,820C755,834 793,849 820,859"/>
<polygon style="fill:black;stroke:black;" points="821,856 829,863 818,862 821,856"/>
</g>
<g id="node44" class="node"><title>22</title>
<polygon style="fill:#e58139;stroke:black;" points="1058,732 998,732 998,804 1058,804 1058,732"/>
<text text-anchor="middle" x="1028" y="749">0.4814</text>
<text text-anchor="middle" x="1028" y="765">76</text>
<text text-anchor="middle" x="1028" y="781">[68, 46]</text>
<text text-anchor="middle" x="1028" y="797">NS</text>
</g>
<g id="edge44" class="edge"><title>21&#45;&gt;22</title>
<path style="fill:none;stroke:black;" d="M923,773C944,772 968,771 987,770"/>
<polygon style="fill:black;stroke:black;" points="987,766 997,770 987,773 987,766"/>
</g>
<g id="node46" class="node"><title>23</title>
<polygon style="fill:#e58139;stroke:black;" points="1068,822 988,822 988,894 1068,894 1068,822"/>
<text text-anchor="middle" x="1028" y="839">0.205</text>
<text text-anchor="middle" x="1028" y="855">987</text>
<text text-anchor="middle" x="1028" y="871">[1388, 182]</text>
<text text-anchor="middle" x="1028" y="887">NS</text>
</g>
<g id="edge46" class="edge"><title>21&#45;&gt;23</title>
<path style="fill:none;stroke:black;" d="M923,808C942,817 961,826 979,835"/>
<polygon style="fill:black;stroke:black;" points="980,832 988,839 977,838 980,832"/>
</g>
</g>
</svg>
