<?xml version="1.0" encoding="UTF-8" standalone="no"?>
<!DOCTYPE svg PUBLIC "-//W3C//DTD SVG 1.0//EN"
 "http://www.w3.org/TR/2001/REC-SVG-20010904/DTD/svg10.dtd">
<!-- Generated by dot version 2.2 (Tue Jan 25 21:58:56 UTC 2005)
     For user: (amfrye) Alex Frye   Title: Tree    Pages: 1 -->
<svg width="1032pt" height="1082pt"
 viewBox = "-1 -1 1031 1081"
 xmlns="http://www.w3.org/2000/svg">
<g id="graph0" class="graph" style="font-family:Times-Roman;font-size:14.00;">
<title>Tree</title>
<g id="node1" class="node"><title>0</title>
<polygon style="fill:#e58139;stroke:black;" points="229,641 5,641 5,729 229,729 229,641"/>
<text text-anchor="middle" x="117" y="658">BLS_FEDERAL_Quits_Rate &lt;= 0.5</text>
<text text-anchor="middle" x="117" y="674">0.5</text>
<text text-anchor="middle" x="117" y="690">7563</text>
<text text-anchor="middle" x="117" y="706">[6020, 5917]</text>
<text text-anchor="middle" x="117" y="722">NS</text>
</g>
<g id="node2" class="node"><title>1</title>
<polygon style="fill:#e58139;stroke:black;" points="399,491 265,491 265,579 399,579 399,491"/>
<text text-anchor="middle" x="332" y="508">GSEGRD &lt;= 0.5625</text>
<text text-anchor="middle" x="332" y="524">0.4977</text>
<text text-anchor="middle" x="332" y="540">6781</text>
<text text-anchor="middle" x="332" y="556">[5706, 4984]</text>
<text text-anchor="middle" x="332" y="572">NS</text>
</g>
<g id="edge2" class="edge"><title>0&#45;&gt;1</title>
<path style="fill:none;stroke:black;" d="M180,641C205,624 235,603 261,585"/>
<polygon style="fill:black;stroke:black;" points="259,582 269,579 263,588 259,582"/>
<text text-anchor="middle" x="244" y="580">True</text>
</g>
<g id="node32" class="node"><title>16</title>
<polygon style="fill:#399de5;stroke:black;" points="396,757 268,757 268,845 396,845 396,757"/>
<text text-anchor="middle" x="332" y="774">AGELVL_D &lt;= 0.5</text>
<text text-anchor="middle" x="332" y="790">0.3768</text>
<text text-anchor="middle" x="332" y="806">782</text>
<text text-anchor="middle" x="332" y="822">[314, 933]</text>
<text text-anchor="middle" x="332" y="838">SD</text>
</g>
<g id="edge32" class="edge"><title>0&#45;&gt;16</title>
<path style="fill:none;stroke:black;" d="M199,729C218,739 239,751 258,761"/>
<polygon style="fill:black;stroke:black;" points="260,758 267,766 257,764 260,758"/>
<text text-anchor="middle" x="243" y="778">False</text>
</g>
<g id="node4" class="node"><title>2</title>
<polygon style="fill:#399de5;stroke:black;" points="605,229 479,229 479,317 605,317 605,229"/>
<text text-anchor="middle" x="542" y="246">AGELVL_F &lt;= 0.5</text>
<text text-anchor="middle" x="542" y="262">0.4659</text>
<text text-anchor="middle" x="542" y="278">2180</text>
<text text-anchor="middle" x="542" y="294">[1273, 2173]</text>
<text text-anchor="middle" x="542" y="310">SD</text>
</g>
<g id="edge4" class="edge"><title>1&#45;&gt;2</title>
<path style="fill:none;stroke:black;" d="M367,491C404,446 462,374 500,325"/>
<polygon style="fill:black;stroke:black;" points="497,323 506,317 503,327 497,323"/>
</g>
<g id="node18" class="node"><title>9</title>
<polygon style="fill:#e58139;stroke:black;" points="603,491 481,491 481,579 603,579 603,491"/>
<text text-anchor="middle" x="542" y="508">AGELVL_I &lt;= 0.5</text>
<text text-anchor="middle" x="542" y="524">0.4749</text>
<text text-anchor="middle" x="542" y="540">4601</text>
<text text-anchor="middle" x="542" y="556">[4433, 2811]</text>
<text text-anchor="middle" x="542" y="572">NS</text>
</g>
<g id="edge18" class="edge"><title>1&#45;&gt;9</title>
<path style="fill:none;stroke:black;" d="M399,535C422,535 447,535 470,535"/>
<polygon style="fill:black;stroke:black;" points="470,531 480,535 470,538 470,531"/>
</g>
<g id="node6" class="node"><title>3</title>
<polygon style="fill:#399de5;stroke:black;" points="857,86 729,86 729,174 857,174 857,86"/>
<text text-anchor="middle" x="793" y="103">AGELVL_G &lt;= 0.5</text>
<text text-anchor="middle" x="793" y="119">0.4695</text>
<text text-anchor="middle" x="793" y="135">2116</text>
<text text-anchor="middle" x="793" y="151">[1254, 2076]</text>
<text text-anchor="middle" x="793" y="167">SD</text>
</g>
<g id="edge6" class="edge"><title>2&#45;&gt;3</title>
<path style="fill:none;stroke:black;" d="M606,237C640,217 683,192 719,172"/>
<polygon style="fill:black;stroke:black;" points="718,169 728,167 721,175 718,169"/>
</g>
<g id="node12" class="node"><title>6</title>
<polygon style="fill:#399de5;stroke:black;" points="859,229 727,229 727,317 859,317 859,229"/>
<text text-anchor="middle" x="793" y="246">GSEGRD &lt;= 0.4375</text>
<text text-anchor="middle" x="793" y="262">0.2739</text>
<text text-anchor="middle" x="793" y="278">64</text>
<text text-anchor="middle" x="793" y="294">[19, 97]</text>
<text text-anchor="middle" x="793" y="310">SD</text>
</g>
<g id="edge12" class="edge"><title>2&#45;&gt;6</title>
<path style="fill:none;stroke:black;" d="M606,273C640,273 681,273 716,273"/>
<polygon style="fill:black;stroke:black;" points="716,269 726,273 716,276 716,269"/>
</g>
<g id="node8" class="node"><title>4</title>
<polygon style="fill:#399de5;stroke:black;" points="1024,4 938,4 938,76 1024,76 1024,4"/>
<text text-anchor="middle" x="981" y="21">0.4715</text>
<text text-anchor="middle" x="981" y="37">2084</text>
<text text-anchor="middle" x="981" y="53">[1251, 2035]</text>
<text text-anchor="middle" x="981" y="69">SD</text>
</g>
<g id="edge8" class="edge"><title>3&#45;&gt;4</title>
<path style="fill:none;stroke:black;" d="M858,99C881,88 907,75 929,65"/>
<polygon style="fill:black;stroke:black;" points="927,62 938,61 930,68 927,62"/>
</g>
<g id="node10" class="node"><title>5</title>
<polygon style="fill:#399de5;stroke:black;" points="1008,94 954,94 954,166 1008,166 1008,94"/>
<text text-anchor="middle" x="981" y="111">0.1271</text>
<text text-anchor="middle" x="981" y="127">32</text>
<text text-anchor="middle" x="981" y="143">[3, 41]</text>
<text text-anchor="middle" x="981" y="159">SD</text>
</g>
<g id="edge10" class="edge"><title>3&#45;&gt;5</title>
<path style="fill:none;stroke:black;" d="M858,130C887,130 919,130 944,130"/>
<polygon style="fill:black;stroke:black;" points="944,126 954,130 944,133 944,126"/>
</g>
<g id="node14" class="node"><title>7</title>
<polygon style="fill:#399de5;stroke:black;" points="1008,184 954,184 954,256 1008,256 1008,184"/>
<text text-anchor="middle" x="981" y="201">0.1975</text>
<text text-anchor="middle" x="981" y="217">32</text>
<text text-anchor="middle" x="981" y="233">[6, 48]</text>
<text text-anchor="middle" x="981" y="249">SD</text>
</g>
<g id="edge14" class="edge"><title>6&#45;&gt;7</title>
<path style="fill:none;stroke:black;" d="M860,254C888,246 920,237 944,231"/>
<polygon style="fill:black;stroke:black;" points="943,228 954,228 945,234 943,228"/>
</g>
<g id="node16" class="node"><title>8</title>
<polygon style="fill:#399de5;stroke:black;" points="1011,274 951,274 951,346 1011,346 1011,274"/>
<text text-anchor="middle" x="981" y="291">0.3314</text>
<text text-anchor="middle" x="981" y="307">32</text>
<text text-anchor="middle" x="981" y="323">[13, 49]</text>
<text text-anchor="middle" x="981" y="339">SD</text>
</g>
<g id="edge16" class="edge"><title>6&#45;&gt;8</title>
<path style="fill:none;stroke:black;" d="M860,286C887,291 918,297 941,302"/>
<polygon style="fill:black;stroke:black;" points="942,299 951,304 941,305 942,299"/>
</g>
<g id="node20" class="node"><title>10</title>
<polygon style="fill:#e58139;stroke:black;" points="885,438 701,438 701,526 885,526 885,438"/>
<text text-anchor="middle" x="793" y="455">YearsToRetirement &lt;= 0.4337</text>
<text text-anchor="middle" x="793" y="471">0.463</text>
<text text-anchor="middle" x="793" y="487">4132</text>
<text text-anchor="middle" x="793" y="503">[4129, 2363]</text>
<text text-anchor="middle" x="793" y="519">NS</text>
</g>
<g id="edge20" class="edge"><title>9&#45;&gt;10</title>
<path style="fill:none;stroke:black;" d="M604,522C630,517 661,510 690,503"/>
<polygon style="fill:black;stroke:black;" points="690,500 700,501 691,506 690,500"/>
</g>
<g id="node26" class="node"><title>13</title>
<polygon style="fill:#399de5;stroke:black;" points="876,544 710,544 710,632 876,632 876,544"/>
<text text-anchor="middle" x="793" y="561">LowerLimitAge &lt;= 0.1389</text>
<text text-anchor="middle" x="793" y="577">0.4817</text>
<text text-anchor="middle" x="793" y="593">469</text>
<text text-anchor="middle" x="793" y="609">[304, 448]</text>
<text text-anchor="middle" x="793" y="625">SD</text>
</g>
<g id="edge26" class="edge"><title>9&#45;&gt;13</title>
<path style="fill:none;stroke:black;" d="M604,548C633,554 668,562 700,569"/>
<polygon style="fill:black;stroke:black;" points="701,566 710,571 700,572 701,566"/>
</g>
<g id="node22" class="node"><title>11</title>
<polygon style="fill:#399de5;stroke:black;" points="1025,364 937,364 937,436 1025,436 1025,364"/>
<text text-anchor="middle" x="981" y="381">0.4904</text>
<text text-anchor="middle" x="981" y="397">2287</text>
<text text-anchor="middle" x="981" y="413">[1554, 2053]</text>
<text text-anchor="middle" x="981" y="429">SD</text>
</g>
<g id="edge22" class="edge"><title>10&#45;&gt;11</title>
<path style="fill:none;stroke:black;" d="M886,442C900,436 914,429 928,423"/>
<polygon style="fill:black;stroke:black;" points="926,420 937,419 929,426 926,420"/>
</g>
<g id="node24" class="node"><title>12</title>
<polygon style="fill:#e58139;stroke:black;" points="1020,454 942,454 942,526 1020,526 1020,454"/>
<text text-anchor="middle" x="981" y="471">0.1918</text>
<text text-anchor="middle" x="981" y="487">1845</text>
<text text-anchor="middle" x="981" y="503">[2575, 310]</text>
<text text-anchor="middle" x="981" y="519">NS</text>
</g>
<g id="edge24" class="edge"><title>10&#45;&gt;12</title>
<path style="fill:none;stroke:black;" d="M886,486C901,487 917,488 931,488"/>
<polygon style="fill:black;stroke:black;" points="931,484 941,488 931,491 931,484"/>
</g>
<g id="node28" class="node"><title>14</title>
<polygon style="fill:#399de5;stroke:black;" points="1011,544 951,544 951,616 1011,616 1011,544"/>
<text text-anchor="middle" x="981" y="561">0.3159</text>
<text text-anchor="middle" x="981" y="577">77</text>
<text text-anchor="middle" x="981" y="593">[23, 94]</text>
<text text-anchor="middle" x="981" y="609">SD</text>
</g>
<g id="edge28" class="edge"><title>13&#45;&gt;14</title>
<path style="fill:none;stroke:black;" d="M876,584C898,583 921,582 940,581"/>
<polygon style="fill:black;stroke:black;" points="940,577 950,581 940,584 940,577"/>
</g>
<g id="node30" class="node"><title>15</title>
<polygon style="fill:#399de5;stroke:black;" points="1017,634 945,634 945,706 1017,706 1017,634"/>
<text text-anchor="middle" x="981" y="651">0.4934</text>
<text text-anchor="middle" x="981" y="667">392</text>
<text text-anchor="middle" x="981" y="683">[281, 354]</text>
<text text-anchor="middle" x="981" y="699">SD</text>
</g>
<g id="edge30" class="edge"><title>13&#45;&gt;15</title>
<path style="fill:none;stroke:black;" d="M876,624C896,632 917,642 935,650"/>
<polygon style="fill:black;stroke:black;" points="936,647 944,654 933,653 936,647"/>
</g>
<g id="node34" class="node"><title>17</title>
<polygon style="fill:#399de5;stroke:black;" points="603,757 481,757 481,845 603,845 603,757"/>
<text text-anchor="middle" x="542" y="774">AGELVL_I &lt;= 0.5</text>
<text text-anchor="middle" x="542" y="790">0.3839</text>
<text text-anchor="middle" x="542" y="806">676</text>
<text text-anchor="middle" x="542" y="822">[280, 801]</text>
<text text-anchor="middle" x="542" y="838">SD</text>
</g>
<g id="edge34" class="edge"><title>16&#45;&gt;17</title>
<path style="fill:none;stroke:black;" d="M397,801C420,801 446,801 470,801"/>
<polygon style="fill:black;stroke:black;" points="470,797 480,801 470,804 470,797"/>
</g>
<g id="node44" class="node"><title>22</title>
<polygon style="fill:#399de5;stroke:black;" points="649,904 435,904 435,992 649,992 649,904"/>
<text text-anchor="middle" x="542" y="921">SalaryOverUnderIndAvg &lt;= 0.1667</text>
<text text-anchor="middle" x="542" y="937">0.3257</text>
<text text-anchor="middle" x="542" y="953">106</text>
<text text-anchor="middle" x="542" y="969">[34, 132]</text>
<text text-anchor="middle" x="542" y="985">SD</text>
</g>
<g id="edge44" class="edge"><title>16&#45;&gt;22</title>
<path style="fill:none;stroke:black;" d="M395,845C419,862 447,881 471,898"/>
<polygon style="fill:black;stroke:black;" points="473,895 479,904 469,901 473,895"/>
</g>
<g id="node36" class="node"><title>18</title>
<polygon style="fill:#399de5;stroke:black;" points="901,716 685,716 685,804 901,804 901,716"/>
<text text-anchor="middle" x="793" y="733">SalaryOverUnderIndAvg &lt;= 0.8333</text>
<text text-anchor="middle" x="793" y="749">0.397</text>
<text text-anchor="middle" x="793" y="765">581</text>
<text text-anchor="middle" x="793" y="781">[254, 676]</text>
<text text-anchor="middle" x="793" y="797">SD</text>
</g>
<g id="edge36" class="edge"><title>17&#45;&gt;18</title>
<path style="fill:none;stroke:black;" d="M604,791C625,787 650,783 675,779"/>
<polygon style="fill:black;stroke:black;" points="675,776 685,778 675,782 675,776"/>
</g>
<g id="node42" class="node"><title>21</title>
<polygon style="fill:#399de5;stroke:black;" points="826,822 760,822 760,894 826,894 826,822"/>
<text text-anchor="middle" x="793" y="839">0.2851</text>
<text text-anchor="middle" x="793" y="855">95</text>
<text text-anchor="middle" x="793" y="871">[26, 125]</text>
<text text-anchor="middle" x="793" y="887">SD</text>
</g>
<g id="edge42" class="edge"><title>17&#45;&gt;21</title>
<path style="fill:none;stroke:black;" d="M604,815C649,825 709,839 749,848"/>
<polygon style="fill:black;stroke:black;" points="750,845 759,850 749,851 750,845"/>
</g>
<g id="node38" class="node"><title>19</title>
<polygon style="fill:#399de5;stroke:black;" points="1017,724 945,724 945,796 1017,796 1017,724"/>
<text text-anchor="middle" x="981" y="741">0.4089</text>
<text text-anchor="middle" x="981" y="757">534</text>
<text text-anchor="middle" x="981" y="773">[245, 610]</text>
<text text-anchor="middle" x="981" y="789">SD</text>
</g>
<g id="edge38" class="edge"><title>18&#45;&gt;19</title>
<path style="fill:none;stroke:black;" d="M901,760C913,760 924,760 934,760"/>
<polygon style="fill:black;stroke:black;" points="934,756 944,760 934,763 934,756"/>
</g>
<g id="node40" class="node"><title>20</title>
<polygon style="fill:#399de5;stroke:black;" points="1008,814 954,814 954,886 1008,886 1008,814"/>
<text text-anchor="middle" x="981" y="831">0.2112</text>
<text text-anchor="middle" x="981" y="847">47</text>
<text text-anchor="middle" x="981" y="863">[9, 66]</text>
<text text-anchor="middle" x="981" y="879">SD</text>
</g>
<g id="edge40" class="edge"><title>18&#45;&gt;20</title>
<path style="fill:none;stroke:black;" d="M885,804C906,814 928,824 945,833"/>
<polygon style="fill:black;stroke:black;" points="946,830 954,837 943,836 946,830"/>
</g>
<g id="node46" class="node"><title>23</title>
<polygon style="fill:#399de5;stroke:black;" points="822,912 764,912 764,984 822,984 822,912"/>
<text text-anchor="middle" x="793" y="929">0.4885</text>
<text text-anchor="middle" x="793" y="945">25</text>
<text text-anchor="middle" x="793" y="961">[14, 19]</text>
<text text-anchor="middle" x="793" y="977">SD</text>
</g>
<g id="edge46" class="edge"><title>22&#45;&gt;23</title>
<path style="fill:none;stroke:black;" d="M649,948C686,948 725,948 753,948"/>
<polygon style="fill:black;stroke:black;" points="753,944 763,948 753,951 753,944"/>
</g>
<g id="node48" class="node"><title>24</title>
<polygon style="fill:#399de5;stroke:black;" points="826,1002 760,1002 760,1074 826,1074 826,1002"/>
<text text-anchor="middle" x="793" y="1019">0.2555</text>
<text text-anchor="middle" x="793" y="1035">81</text>
<text text-anchor="middle" x="793" y="1051">[20, 113]</text>
<text text-anchor="middle" x="793" y="1067">SD</text>
</g>
<g id="edge48" class="edge"><title>22&#45;&gt;24</title>
<path style="fill:none;stroke:black;" d="M649,986C685,999 722,1013 750,1023"/>
<polygon style="fill:black;stroke:black;" points="751,1020 760,1026 749,1026 751,1020"/>
</g>
</g>
</svg>
