<?xml version="1.0" encoding="UTF-8" standalone="no"?>
<!DOCTYPE svg PUBLIC "-//W3C//DTD SVG 1.0//EN"
 "http://www.w3.org/TR/2001/REC-SVG-20010904/DTD/svg10.dtd">
<!-- Generated by dot version 2.2 (Tue Jan 25 21:58:56 UTC 2005)
     For user: (amfrye) Alex Frye   Title: Tree    Pages: 1 -->
<svg width="990pt" height="714pt"
 viewBox = "-1 -1 989 713"
 xmlns="http://www.w3.org/2000/svg">
<g id="graph0" class="graph" style="font-family:Times-Roman;font-size:14.00;">
<title>Tree</title>
<g id="node1" class="node"><title>0</title>
<polygon style="fill:#e58139;stroke:black;" points="129,428 5,428 5,516 129,516 129,428"/>
<text text-anchor="middle" x="67" y="445">AGELVL_J &lt;= 0.5</text>
<text text-anchor="middle" x="67" y="461">0.5</text>
<text text-anchor="middle" x="67" y="477">7543</text>
<text text-anchor="middle" x="67" y="493">[6011, 5926]</text>
<text text-anchor="middle" x="67" y="509">NS</text>
</g>
<g id="node2" class="node"><title>1</title>
<polygon style="fill:#e58139;stroke:black;" points="389,375 165,375 165,463 389,463 389,375"/>
<text text-anchor="middle" x="277" y="392">BLS_FEDERAL_Quits_Rate &lt;= 0.5</text>
<text text-anchor="middle" x="277" y="408">0.4999</text>
<text text-anchor="middle" x="277" y="424">7517</text>
<text text-anchor="middle" x="277" y="440">[6009, 5886]</text>
<text text-anchor="middle" x="277" y="456">NS</text>
</g>
<g id="edge2" class="edge"><title>0&#45;&gt;1</title>
<path style="fill:none;stroke:black;" d="M129,456C137,454 146,452 155,449"/>
<polygon style="fill:black;stroke:black;" points="155,446 165,447 156,452 155,446"/>
<text text-anchor="middle" x="144" y="438">True</text>
</g>
<g id="node32" class="node"><title>16</title>
<polygon style="fill:#399de5;stroke:black;" points="359,481 195,481 195,569 359,569 359,481"/>
<text text-anchor="middle" x="277" y="498">LowerLimitAge &lt;= 0.6111</text>
<text text-anchor="middle" x="277" y="514">0.0907</text>
<text text-anchor="middle" x="277" y="530">26</text>
<text text-anchor="middle" x="277" y="546">[2, 40]</text>
<text text-anchor="middle" x="277" y="562">SD</text>
</g>
<g id="edge32" class="edge"><title>0&#45;&gt;16</title>
<path style="fill:none;stroke:black;" d="M129,488C147,492 166,497 185,502"/>
<polygon style="fill:black;stroke:black;" points="186,499 195,504 185,505 186,499"/>
<text text-anchor="middle" x="174" y="523">False</text>
</g>
<g id="node4" class="node"><title>2</title>
<polygon style="fill:#e58139;stroke:black;" points="610,244 426,244 426,332 610,332 610,244"/>
<text text-anchor="middle" x="518" y="261">YearsToRetirement &lt;= 0.3984</text>
<text text-anchor="middle" x="518" y="277">0.4976</text>
<text text-anchor="middle" x="518" y="293">6729</text>
<text text-anchor="middle" x="518" y="309">[5696, 4951]</text>
<text text-anchor="middle" x="518" y="325">NS</text>
</g>
<g id="edge4" class="edge"><title>1&#45;&gt;2</title>
<path style="fill:none;stroke:black;" d="M358,375C380,363 405,349 428,337"/>
<polygon style="fill:black;stroke:black;" points="427,334 437,332 430,340 427,334"/>
</g>
<g id="node18" class="node"><title>9</title>
<polygon style="fill:#399de5;stroke:black;" points="596,379 440,379 440,467 596,467 596,379"/>
<text text-anchor="middle" x="518" y="396">IndAvgSalaryLog &lt;= 0.5</text>
<text text-anchor="middle" x="518" y="412">0.3758</text>
<text text-anchor="middle" x="518" y="428">788</text>
<text text-anchor="middle" x="518" y="444">[313, 935]</text>
<text text-anchor="middle" x="518" y="460">SD</text>
</g>
<g id="edge18" class="edge"><title>1&#45;&gt;9</title>
<path style="fill:none;stroke:black;" d="M389,421C402,421 416,422 430,422"/>
<polygon style="fill:black;stroke:black;" points="430,418 440,422 430,425 430,418"/>
</g>
<g id="node6" class="node"><title>3</title>
<polygon style="fill:#399de5;stroke:black;" points="815,86 693,86 693,174 815,174 815,86"/>
<text text-anchor="middle" x="754" y="103">AGELVL_I &lt;= 0.5</text>
<text text-anchor="middle" x="754" y="119">0.4396</text>
<text text-anchor="middle" x="754" y="135">3993</text>
<text text-anchor="middle" x="754" y="151">[2055, 4245]</text>
<text text-anchor="middle" x="754" y="167">SD</text>
</g>
<g id="edge6" class="edge"><title>2&#45;&gt;3</title>
<path style="fill:none;stroke:black;" d="M584,244C615,223 652,198 684,177"/>
<polygon style="fill:black;stroke:black;" points="682,174 692,171 686,180 682,174"/>
</g>
<g id="node12" class="node"><title>6</title>
<polygon style="fill:#e58139;stroke:black;" points="831,244 677,244 677,332 831,332 831,244"/>
<text text-anchor="middle" x="754" y="261">IndAvgSalary &lt;= 0.7222</text>
<text text-anchor="middle" x="754" y="277">0.2721</text>
<text text-anchor="middle" x="754" y="293">2736</text>
<text text-anchor="middle" x="754" y="309">[3641, 706]</text>
<text text-anchor="middle" x="754" y="325">NS</text>
</g>
<g id="edge12" class="edge"><title>2&#45;&gt;6</title>
<path style="fill:none;stroke:black;" d="M611,288C629,288 649,288 667,288"/>
<polygon style="fill:black;stroke:black;" points="667,284 677,288 667,291 667,284"/>
</g>
<g id="node8" class="node"><title>4</title>
<polygon style="fill:#399de5;stroke:black;" points="983,4 897,4 897,76 983,76 983,4"/>
<text text-anchor="middle" x="940" y="21">0.4488</text>
<text text-anchor="middle" x="940" y="37">3379</text>
<text text-anchor="middle" x="940" y="53">[1816, 3525]</text>
<text text-anchor="middle" x="940" y="69">SD</text>
</g>
<g id="edge8" class="edge"><title>3&#45;&gt;4</title>
<path style="fill:none;stroke:black;" d="M816,100C839,89 866,76 888,65"/>
<polygon style="fill:black;stroke:black;" points="886,62 897,61 889,68 886,62"/>
</g>
<g id="node10" class="node"><title>5</title>
<polygon style="fill:#399de5;stroke:black;" points="977,94 903,94 903,166 977,166 977,94"/>
<text text-anchor="middle" x="940" y="111">0.3742</text>
<text text-anchor="middle" x="940" y="127">614</text>
<text text-anchor="middle" x="940" y="143">[239, 720]</text>
<text text-anchor="middle" x="940" y="159">SD</text>
</g>
<g id="edge10" class="edge"><title>3&#45;&gt;5</title>
<path style="fill:none;stroke:black;" d="M816,130C841,130 870,130 893,130"/>
<polygon style="fill:black;stroke:black;" points="893,126 903,130 893,133 893,126"/>
</g>
<g id="node14" class="node"><title>7</title>
<polygon style="fill:#e58139;stroke:black;" points="976,184 904,184 904,256 976,256 976,184"/>
<text text-anchor="middle" x="940" y="201">0.4591</text>
<text text-anchor="middle" x="940" y="217">955</text>
<text text-anchor="middle" x="940" y="233">[991, 550]</text>
<text text-anchor="middle" x="940" y="249">NS</text>
</g>
<g id="edge14" class="edge"><title>6&#45;&gt;7</title>
<path style="fill:none;stroke:black;" d="M831,260C852,252 875,244 894,237"/>
<polygon style="fill:black;stroke:black;" points="892,234 903,233 895,240 892,234"/>
</g>
<g id="node16" class="node"><title>8</title>
<polygon style="fill:#e58139;stroke:black;" points="980,274 900,274 900,346 980,346 980,274"/>
<text text-anchor="middle" x="940" y="291">0.105</text>
<text text-anchor="middle" x="940" y="307">1781</text>
<text text-anchor="middle" x="940" y="323">[2650, 156]</text>
<text text-anchor="middle" x="940" y="339">NS</text>
</g>
<g id="edge16" class="edge"><title>6&#45;&gt;8</title>
<path style="fill:none;stroke:black;" d="M831,297C850,300 871,302 889,304"/>
<polygon style="fill:black;stroke:black;" points="889,301 899,305 889,307 889,301"/>
</g>
<g id="node20" class="node"><title>10</title>
<polygon style="fill:#399de5;stroke:black;" points="861,379 647,379 647,467 861,467 861,379"/>
<text text-anchor="middle" x="754" y="396">SalaryOverUnderIndAvg &lt;= 0.1667</text>
<text text-anchor="middle" x="754" y="412">0.3733</text>
<text text-anchor="middle" x="754" y="428">766</text>
<text text-anchor="middle" x="754" y="444">[301, 911]</text>
<text text-anchor="middle" x="754" y="460">SD</text>
</g>
<g id="edge20" class="edge"><title>9&#45;&gt;10</title>
<path style="fill:none;stroke:black;" d="M596,423C609,423 623,423 637,423"/>
<polygon style="fill:black;stroke:black;" points="637,419 647,423 637,426 637,419"/>
</g>
<g id="node26" class="node"><title>13</title>
<polygon style="fill:#399de5;stroke:black;" points="851,536 657,536 657,624 851,624 851,536"/>
<text text-anchor="middle" x="754" y="553">SalaryOverUnderIndAvg &lt;= 0.5</text>
<text text-anchor="middle" x="754" y="569">0.4444</text>
<text text-anchor="middle" x="754" y="585">22</text>
<text text-anchor="middle" x="754" y="601">[12, 24]</text>
<text text-anchor="middle" x="754" y="617">SD</text>
</g>
<g id="edge26" class="edge"><title>9&#45;&gt;13</title>
<path style="fill:none;stroke:black;" d="M594,467C600,471 606,474 611,478 636,494 662,513 686,530"/>
<polygon style="fill:black;stroke:black;" points="688,527 694,536 684,533 688,527"/>
</g>
<g id="node22" class="node"><title>11</title>
<polygon style="fill:#399de5;stroke:black;" points="973,364 907,364 907,436 973,436 973,364"/>
<text text-anchor="middle" x="940" y="381">0.478</text>
<text text-anchor="middle" x="940" y="397">109</text>
<text text-anchor="middle" x="940" y="413">[66, 101]</text>
<text text-anchor="middle" x="940" y="429">SD</text>
</g>
<g id="edge22" class="edge"><title>10&#45;&gt;11</title>
<path style="fill:none;stroke:black;" d="M861,410C873,408 886,407 897,405"/>
<polygon style="fill:black;stroke:black;" points="897,402 907,404 897,408 897,402"/>
</g>
<g id="node24" class="node"><title>12</title>
<polygon style="fill:#399de5;stroke:black;" points="976,454 904,454 904,526 976,526 976,454"/>
<text text-anchor="middle" x="940" y="471">0.3486</text>
<text text-anchor="middle" x="940" y="487">657</text>
<text text-anchor="middle" x="940" y="503">[235, 810]</text>
<text text-anchor="middle" x="940" y="519">SD</text>
</g>
<g id="edge24" class="edge"><title>10&#45;&gt;12</title>
<path style="fill:none;stroke:black;" d="M861,462C872,466 883,469 893,473"/>
<polygon style="fill:black;stroke:black;" points="895,470 903,477 892,477 895,470"/>
</g>
<g id="node28" class="node"><title>14</title>
<polygon style="fill:#399de5;stroke:black;" points="967,544 913,544 913,616 967,616 967,544"/>
<text text-anchor="middle" x="940" y="561">0.4339</text>
<text text-anchor="middle" x="940" y="577">13</text>
<text text-anchor="middle" x="940" y="593">[7, 15]</text>
<text text-anchor="middle" x="940" y="609">SD</text>
</g>
<g id="edge28" class="edge"><title>13&#45;&gt;14</title>
<path style="fill:none;stroke:black;" d="M852,580C870,580 887,580 902,580"/>
<polygon style="fill:black;stroke:black;" points="902,576 912,580 902,583 902,576"/>
</g>
<g id="node30" class="node"><title>15</title>
<polygon style="fill:#399de5;stroke:black;" points="967,634 913,634 913,706 967,706 967,634"/>
<text text-anchor="middle" x="940" y="651">0.4592</text>
<text text-anchor="middle" x="940" y="667">9</text>
<text text-anchor="middle" x="940" y="683">[5, 9]</text>
<text text-anchor="middle" x="940" y="699">SD</text>
</g>
<g id="edge30" class="edge"><title>13&#45;&gt;15</title>
<path style="fill:none;stroke:black;" d="M845,624C865,634 886,644 903,652"/>
<polygon style="fill:black;stroke:black;" points="905,649 912,657 902,655 905,649"/>
</g>
<g id="node34" class="node"><title>17</title>
<polygon style="fill:#399de5;stroke:black;" points="545,487 491,487 491,559 545,559 545,487"/>
<text text-anchor="middle" x="518" y="504">0.18</text>
<text text-anchor="middle" x="518" y="520">14</text>
<text text-anchor="middle" x="518" y="536">[2, 18]</text>
<text text-anchor="middle" x="518" y="552">SD</text>
</g>
<g id="edge34" class="edge"><title>16&#45;&gt;17</title>
<path style="fill:none;stroke:black;" d="M359,524C400,524 448,524 481,523"/>
<polygon style="fill:black;stroke:black;" points="481,519 491,523 481,526 481,519"/>
</g>
<g id="node36" class="node"><title>18</title>
<polygon style="fill:#399de5;stroke:black;" points="545,577 491,577 491,649 545,649 545,577"/>
<text text-anchor="middle" x="518" y="594">0.0</text>
<text text-anchor="middle" x="518" y="610">12</text>
<text text-anchor="middle" x="518" y="626">[0, 22]</text>
<text text-anchor="middle" x="518" y="642">SD</text>
</g>
<g id="edge36" class="edge"><title>16&#45;&gt;18</title>
<path style="fill:none;stroke:black;" d="M359,555C401,570 449,588 481,600"/>
<polygon style="fill:black;stroke:black;" points="482,597 491,603 480,603 482,597"/>
</g>
</g>
</svg>
