<?xml version="1.0" encoding="UTF-8" standalone="no"?>
<!DOCTYPE svg PUBLIC "-//W3C//DTD SVG 1.0//EN"
 "http://www.w3.org/TR/2001/REC-SVG-20010904/DTD/svg10.dtd">
<!-- Generated by dot version 2.2 (Tue Jan 25 21:58:56 UTC 2005)
     For user: (amfrye) Alex Frye   Title: Tree    Pages: 1 -->
<svg width="1110pt" height="1254pt"
 viewBox = "-1 -1 1109 1253"
 xmlns="http://www.w3.org/2000/svg">
<g id="graph0" class="graph" style="font-family:Times-Roman;font-size:14.00;">
<title>Tree</title>
<g id="node1" class="node"><title>0</title>
<polygon style="fill:#e58139;stroke:black;" points="187,641 5,641 5,729 187,729 187,641"/>
<text text-anchor="middle" x="96" y="658">YearsToRetirement &lt;= 0.4173</text>
<text text-anchor="middle" x="96" y="674">0.4999</text>
<text text-anchor="middle" x="96" y="690">7576</text>
<text text-anchor="middle" x="96" y="706">[6056, 5881]</text>
<text text-anchor="middle" x="96" y="722">NS</text>
</g>
<g id="node2" class="node"><title>1</title>
<polygon style="fill:#399de5;stroke:black;" points="437,491 223,491 223,579 437,579 437,491"/>
<text text-anchor="middle" x="330" y="508">SalaryOverUnderIndAvg &lt;= 0.1667</text>
<text text-anchor="middle" x="330" y="524">0.4375</text>
<text text-anchor="middle" x="330" y="540">5049</text>
<text text-anchor="middle" x="330" y="556">[2564, 5367]</text>
<text text-anchor="middle" x="330" y="572">SD</text>
</g>
<g id="edge2" class="edge"><title>0&#45;&gt;1</title>
<path style="fill:none;stroke:black;" d="M165,641C192,624 225,603 254,584"/>
<polygon style="fill:black;stroke:black;" points="252,581 262,579 255,587 252,581"/>
<text text-anchor="middle" x="238" y="578">True</text>
</g>
<g id="node32" class="node"><title>16</title>
<polygon style="fill:#e58139;stroke:black;" points="407,790 253,790 253,878 407,878 407,790"/>
<text text-anchor="middle" x="330" y="807">IndAvgSalary &lt;= 0.7222</text>
<text text-anchor="middle" x="330" y="823">0.2237</text>
<text text-anchor="middle" x="330" y="839">2527</text>
<text text-anchor="middle" x="330" y="855">[3492, 514]</text>
<text text-anchor="middle" x="330" y="871">NS</text>
</g>
<g id="edge32" class="edge"><title>0&#45;&gt;16</title>
<path style="fill:none;stroke:black;" d="M165,729C192,746 224,767 252,785"/>
<polygon style="fill:black;stroke:black;" points="254,782 261,790 251,788 254,782"/>
<text text-anchor="middle" x="237" y="802">False</text>
</g>
<g id="node4" class="node"><title>2</title>
<polygon style="fill:#399de5;stroke:black;" points="678,229 500,229 500,317 678,317 678,229"/>
<text text-anchor="middle" x="589" y="246">YearsToRetirement &lt;= 0.235</text>
<text text-anchor="middle" x="589" y="262">0.4928</text>
<text text-anchor="middle" x="589" y="278">977</text>
<text text-anchor="middle" x="589" y="294">[677, 862]</text>
<text text-anchor="middle" x="589" y="310">SD</text>
</g>
<g id="edge4" class="edge"><title>1&#45;&gt;2</title>
<path style="fill:none;stroke:black;" d="M374,491C419,445 490,373 538,324"/>
<polygon style="fill:black;stroke:black;" points="535,322 545,317 540,327 535,322"/>
</g>
<g id="node18" class="node"><title>9</title>
<polygon style="fill:#399de5;stroke:black;" points="672,491 506,491 506,579 672,579 672,491"/>
<text text-anchor="middle" x="589" y="508">LowerLimitAge &lt;= 0.4028</text>
<text text-anchor="middle" x="589" y="524">0.4161</text>
<text text-anchor="middle" x="589" y="540">4072</text>
<text text-anchor="middle" x="589" y="556">[1887, 4505]</text>
<text text-anchor="middle" x="589" y="572">SD</text>
</g>
<g id="edge18" class="edge"><title>1&#45;&gt;9</title>
<path style="fill:none;stroke:black;" d="M437,535C456,535 477,535 495,535"/>
<polygon style="fill:black;stroke:black;" points="495,531 505,535 495,538 495,531"/>
</g>
<g id="node6" class="node"><title>3</title>
<polygon style="fill:#399de5;stroke:black;" points="987,86 741,86 741,174 987,174 987,86"/>
<text text-anchor="middle" x="864" y="103">BLS_FEDERAL_OtherSep_Rate &lt;= 0.5</text>
<text text-anchor="middle" x="864" y="119">0.3915</text>
<text text-anchor="middle" x="864" y="135">383</text>
<text text-anchor="middle" x="864" y="151">[156, 428]</text>
<text text-anchor="middle" x="864" y="167">SD</text>
</g>
<g id="edge6" class="edge"><title>2&#45;&gt;3</title>
<path style="fill:none;stroke:black;" d="M674,229C705,214 739,196 770,179"/>
<polygon style="fill:black;stroke:black;" points="769,176 779,174 772,182 769,176"/>
</g>
<g id="node12" class="node"><title>6</title>
<polygon style="fill:#e58139;stroke:black;" points="931,229 797,229 797,317 931,317 931,229"/>
<text text-anchor="middle" x="864" y="246">SALARYLog &lt;= 0.5</text>
<text text-anchor="middle" x="864" y="262">0.4959</text>
<text text-anchor="middle" x="864" y="278">594</text>
<text text-anchor="middle" x="864" y="294">[521, 434]</text>
<text text-anchor="middle" x="864" y="310">NS</text>
</g>
<g id="edge12" class="edge"><title>2&#45;&gt;6</title>
<path style="fill:none;stroke:black;" d="M678,273C713,273 753,273 787,273"/>
<polygon style="fill:black;stroke:black;" points="787,269 797,273 787,276 787,269"/>
</g>
<g id="node8" class="node"><title>4</title>
<polygon style="fill:#399de5;stroke:black;" points="1098,4 1028,4 1028,76 1098,76 1098,4"/>
<text text-anchor="middle" x="1063" y="21">0.3903</text>
<text text-anchor="middle" x="1063" y="37">371</text>
<text text-anchor="middle" x="1063" y="53">[151, 417]</text>
<text text-anchor="middle" x="1063" y="69">SD</text>
</g>
<g id="edge8" class="edge"><title>3&#45;&gt;4</title>
<path style="fill:none;stroke:black;" d="M961,86C981,77 1001,67 1019,60"/>
<polygon style="fill:black;stroke:black;" points="1017,57 1028,56 1020,63 1017,57"/>
</g>
<g id="node10" class="node"><title>5</title>
<polygon style="fill:#399de5;stroke:black;" points="1090,94 1036,94 1036,166 1090,166 1090,94"/>
<text text-anchor="middle" x="1063" y="111">0.4297</text>
<text text-anchor="middle" x="1063" y="127">12</text>
<text text-anchor="middle" x="1063" y="143">[5, 11]</text>
<text text-anchor="middle" x="1063" y="159">SD</text>
</g>
<g id="edge10" class="edge"><title>3&#45;&gt;5</title>
<path style="fill:none;stroke:black;" d="M987,130C1001,130 1014,130 1025,130"/>
<polygon style="fill:black;stroke:black;" points="1025,126 1035,130 1025,133 1025,126"/>
</g>
<g id="node14" class="node"><title>7</title>
<polygon style="fill:#e58139;stroke:black;" points="1100,184 1026,184 1026,256 1100,256 1100,184"/>
<text text-anchor="middle" x="1063" y="201">0.497</text>
<text text-anchor="middle" x="1063" y="217">580</text>
<text text-anchor="middle" x="1063" y="233">[504, 431]</text>
<text text-anchor="middle" x="1063" y="249">NS</text>
</g>
<g id="edge14" class="edge"><title>6&#45;&gt;7</title>
<path style="fill:none;stroke:black;" d="M931,255C959,248 991,239 1016,233"/>
<polygon style="fill:black;stroke:black;" points="1015,230 1026,230 1017,236 1015,230"/>
</g>
<g id="node16" class="node"><title>8</title>
<polygon style="fill:#e58139;stroke:black;" points="1090,274 1036,274 1036,346 1090,346 1090,274"/>
<text text-anchor="middle" x="1063" y="291">0.255</text>
<text text-anchor="middle" x="1063" y="307">14</text>
<text text-anchor="middle" x="1063" y="323">[17, 3]</text>
<text text-anchor="middle" x="1063" y="339">NS</text>
</g>
<g id="edge16" class="edge"><title>6&#45;&gt;8</title>
<path style="fill:none;stroke:black;" d="M931,285C963,291 999,298 1026,303"/>
<polygon style="fill:black;stroke:black;" points="1027,300 1036,305 1026,306 1027,300"/>
</g>
<g id="node20" class="node"><title>10</title>
<polygon style="fill:#399de5;stroke:black;" points="953,438 775,438 775,526 953,526 953,438"/>
<text text-anchor="middle" x="864" y="455">YearsToRetirement &lt;= 0.235</text>
<text text-anchor="middle" x="864" y="471">0.4672</text>
<text text-anchor="middle" x="864" y="487">2185</text>
<text text-anchor="middle" x="864" y="503">[1281, 2163]</text>
<text text-anchor="middle" x="864" y="519">SD</text>
</g>
<g id="edge20" class="edge"><title>9&#45;&gt;10</title>
<path style="fill:none;stroke:black;" d="M673,519C702,514 735,507 765,501"/>
<polygon style="fill:black;stroke:black;" points="765,498 775,499 766,504 765,498"/>
</g>
<g id="node26" class="node"><title>13</title>
<polygon style="fill:#399de5;stroke:black;" points="955,544 773,544 773,632 955,632 955,544"/>
<text text-anchor="middle" x="864" y="561">YearsToRetirement &lt;= 0.1693</text>
<text text-anchor="middle" x="864" y="577">0.3266</text>
<text text-anchor="middle" x="864" y="593">1887</text>
<text text-anchor="middle" x="864" y="609">[606, 2342]</text>
<text text-anchor="middle" x="864" y="625">SD</text>
</g>
<g id="edge26" class="edge"><title>9&#45;&gt;13</title>
<path style="fill:none;stroke:black;" d="M673,551C701,556 733,563 762,568"/>
<polygon style="fill:black;stroke:black;" points="763,565 772,570 762,571 763,565"/>
</g>
<g id="node22" class="node"><title>11</title>
<polygon style="fill:#399de5;stroke:black;" points="1102,364 1024,364 1024,436 1102,436 1102,364"/>
<text text-anchor="middle" x="1063" y="381">0.3399</text>
<text text-anchor="middle" x="1063" y="397">885</text>
<text text-anchor="middle" x="1063" y="413">[308, 1111]</text>
<text text-anchor="middle" x="1063" y="429">SD</text>
</g>
<g id="edge22" class="edge"><title>10&#45;&gt;11</title>
<path style="fill:none;stroke:black;" d="M953,445C974,436 996,427 1015,420"/>
<polygon style="fill:black;stroke:black;" points="1013,417 1024,416 1016,423 1013,417"/>
</g>
<g id="node24" class="node"><title>12</title>
<polygon style="fill:#399de5;stroke:black;" points="1103,454 1023,454 1023,526 1103,526 1103,454"/>
<text text-anchor="middle" x="1063" y="471">0.4992</text>
<text text-anchor="middle" x="1063" y="487">1300</text>
<text text-anchor="middle" x="1063" y="503">[973, 1052]</text>
<text text-anchor="middle" x="1063" y="519">SD</text>
</g>
<g id="edge24" class="edge"><title>10&#45;&gt;12</title>
<path style="fill:none;stroke:black;" d="M953,486C973,487 995,488 1013,489"/>
<polygon style="fill:black;stroke:black;" points="1013,485 1023,489 1013,492 1013,485"/>
</g>
<g id="node28" class="node"><title>14</title>
<polygon style="fill:#399de5;stroke:black;" points="1096,544 1030,544 1030,616 1096,616 1096,544"/>
<text text-anchor="middle" x="1063" y="561">0.1281</text>
<text text-anchor="middle" x="1063" y="577">500</text>
<text text-anchor="middle" x="1063" y="593">[54, 731]</text>
<text text-anchor="middle" x="1063" y="609">SD</text>
</g>
<g id="edge28" class="edge"><title>13&#45;&gt;14</title>
<path style="fill:none;stroke:black;" d="M956,584C978,583 1001,582 1020,581"/>
<polygon style="fill:black;stroke:black;" points="1020,577 1030,581 1020,584 1020,577"/>
</g>
<g id="node30" class="node"><title>15</title>
<polygon style="fill:#399de5;stroke:black;" points="1102,634 1024,634 1024,706 1102,706 1102,634"/>
<text text-anchor="middle" x="1063" y="651">0.3801</text>
<text text-anchor="middle" x="1063" y="667">1387</text>
<text text-anchor="middle" x="1063" y="683">[552, 1611]</text>
<text text-anchor="middle" x="1063" y="699">SD</text>
</g>
<g id="edge30" class="edge"><title>13&#45;&gt;15</title>
<path style="fill:none;stroke:black;" d="M956,626C976,634 996,642 1014,649"/>
<polygon style="fill:black;stroke:black;" points="1015,646 1023,653 1012,652 1015,646"/>
</g>
<g id="node34" class="node"><title>17</title>
<polygon style="fill:#e58139;stroke:black;" points="705,790 473,790 473,878 705,878 705,790"/>
<text text-anchor="middle" x="589" y="807">SEPCount_EFDATE_LOCLog &lt;= 0.5</text>
<text text-anchor="middle" x="589" y="823">0.4166</text>
<text text-anchor="middle" x="589" y="839">804</text>
<text text-anchor="middle" x="589" y="855">[876, 368]</text>
<text text-anchor="middle" x="589" y="871">NS</text>
</g>
<g id="edge34" class="edge"><title>16&#45;&gt;17</title>
<path style="fill:none;stroke:black;" d="M407,834C425,834 443,834 463,834"/>
<polygon style="fill:black;stroke:black;" points="463,830 473,834 463,837 463,830"/>
</g>
<g id="node44" class="node"><title>22</title>
<polygon style="fill:#e58139;stroke:black;" points="666,955 512,955 512,1043 666,1043 666,955"/>
<text text-anchor="middle" x="589" y="972">IndAvgSalary &lt;= 0.8333</text>
<text text-anchor="middle" x="589" y="988">0.1001</text>
<text text-anchor="middle" x="589" y="1004">1723</text>
<text text-anchor="middle" x="589" y="1020">[2616, 146]</text>
<text text-anchor="middle" x="589" y="1036">NS</text>
</g>
<g id="edge44" class="edge"><title>16&#45;&gt;22</title>
<path style="fill:none;stroke:black;" d="M399,878C433,900 475,927 511,950"/>
<polygon style="fill:black;stroke:black;" points="513,947 520,955 510,953 513,947"/>
</g>
<g id="node36" class="node"><title>18</title>
<polygon style="fill:#e58139;stroke:black;" points="947,745 781,745 781,833 947,833 947,745"/>
<text text-anchor="middle" x="864" y="762">LowerLimitAge &lt;= 0.4028</text>
<text text-anchor="middle" x="864" y="778">0.4198</text>
<text text-anchor="middle" x="864" y="794">786</text>
<text text-anchor="middle" x="864" y="810">[855, 366]</text>
<text text-anchor="middle" x="864" y="826">NS</text>
</g>
<g id="edge36" class="edge"><title>17&#45;&gt;18</title>
<path style="fill:none;stroke:black;" d="M705,815C727,812 749,808 770,805"/>
<polygon style="fill:black;stroke:black;" points="770,802 780,803 771,808 770,802"/>
</g>
<g id="node42" class="node"><title>21</title>
<polygon style="fill:#e58139;stroke:black;" points="891,851 837,851 837,923 891,923 891,851"/>
<text text-anchor="middle" x="864" y="868">0.1588</text>
<text text-anchor="middle" x="864" y="884">18</text>
<text text-anchor="middle" x="864" y="900">[21, 2]</text>
<text text-anchor="middle" x="864" y="916">NS</text>
</g>
<g id="edge42" class="edge"><title>17&#45;&gt;21</title>
<path style="fill:none;stroke:black;" d="M705,856C749,865 795,874 827,880"/>
<polygon style="fill:black;stroke:black;" points="828,877 837,882 827,883 828,877"/>
</g>
<g id="node38" class="node"><title>19</title>
<polygon style="fill:#e58139;stroke:black;" points="1100,724 1026,724 1026,796 1100,796 1100,724"/>
<text text-anchor="middle" x="1063" y="741">0.3533</text>
<text text-anchor="middle" x="1063" y="757">384</text>
<text text-anchor="middle" x="1063" y="773">[454, 135]</text>
<text text-anchor="middle" x="1063" y="789">NS</text>
</g>
<g id="edge38" class="edge"><title>18&#45;&gt;19</title>
<path style="fill:none;stroke:black;" d="M948,777C971,774 996,770 1016,767"/>
<polygon style="fill:black;stroke:black;" points="1016,764 1026,765 1017,770 1016,764"/>
</g>
<g id="node40" class="node"><title>20</title>
<polygon style="fill:#e58139;stroke:black;" points="1099,814 1027,814 1027,886 1099,886 1099,814"/>
<text text-anchor="middle" x="1063" y="831">0.4638</text>
<text text-anchor="middle" x="1063" y="847">402</text>
<text text-anchor="middle" x="1063" y="863">[401, 231]</text>
<text text-anchor="middle" x="1063" y="879">NS</text>
</g>
<g id="edge40" class="edge"><title>18&#45;&gt;20</title>
<path style="fill:none;stroke:black;" d="M948,815C971,822 997,829 1017,836"/>
<polygon style="fill:black;stroke:black;" points="1018,833 1027,839 1016,839 1018,833"/>
</g>
<g id="node46" class="node"><title>23</title>
<polygon style="fill:#e58139;stroke:black;" points="972,955 756,955 756,1043 972,1043 972,955"/>
<text text-anchor="middle" x="864" y="972">SalaryOverUnderIndAvg &lt;= 0.8333</text>
<text text-anchor="middle" x="864" y="988">0.1706</text>
<text text-anchor="middle" x="864" y="1004">638</text>
<text text-anchor="middle" x="864" y="1020">[933, 97]</text>
<text text-anchor="middle" x="864" y="1036">NS</text>
</g>
<g id="edge46" class="edge"><title>22&#45;&gt;23</title>
<path style="fill:none;stroke:black;" d="M667,999C692,999 719,999 746,999"/>
<polygon style="fill:black;stroke:black;" points="746,995 756,999 746,1002 746,995"/>
</g>
<g id="node52" class="node"><title>26</title>
<polygon style="fill:#e58139;stroke:black;" points="956,1076 772,1076 772,1164 956,1164 956,1076"/>
<text text-anchor="middle" x="864" y="1093">YearsToRetirement &lt;= 0.4256</text>
<text text-anchor="middle" x="864" y="1109">0.055</text>
<text text-anchor="middle" x="864" y="1125">1085</text>
<text text-anchor="middle" x="864" y="1141">[1683, 49]</text>
<text text-anchor="middle" x="864" y="1157">NS</text>
</g>
<g id="edge52" class="edge"><title>22&#45;&gt;26</title>
<path style="fill:none;stroke:black;" d="M667,1033C696,1046 730,1061 762,1075"/>
<polygon style="fill:black;stroke:black;" points="763,1072 771,1079 760,1078 763,1072"/>
</g>
<g id="node48" class="node"><title>24</title>
<polygon style="fill:#e58139;stroke:black;" points="1095,904 1031,904 1031,976 1095,976 1095,904"/>
<text text-anchor="middle" x="1063" y="921">0.1953</text>
<text text-anchor="middle" x="1063" y="937">520</text>
<text text-anchor="middle" x="1063" y="953">[747, 92]</text>
<text text-anchor="middle" x="1063" y="969">NS</text>
</g>
<g id="edge48" class="edge"><title>23&#45;&gt;24</title>
<path style="fill:none;stroke:black;" d="M972,967C989,962 1006,957 1020,953"/>
<polygon style="fill:black;stroke:black;" points="1019,950 1030,950 1021,956 1019,950"/>
</g>
<g id="node50" class="node"><title>25</title>
<polygon style="fill:#e58139;stroke:black;" points="1093,994 1033,994 1033,1066 1093,1066 1093,994"/>
<text text-anchor="middle" x="1063" y="1011">0.051</text>
<text text-anchor="middle" x="1063" y="1027">118</text>
<text text-anchor="middle" x="1063" y="1043">[186, 5]</text>
<text text-anchor="middle" x="1063" y="1059">NS</text>
</g>
<g id="edge50" class="edge"><title>23&#45;&gt;25</title>
<path style="fill:none;stroke:black;" d="M972,1016C990,1018 1008,1022 1023,1024"/>
<polygon style="fill:black;stroke:black;" points="1023,1021 1033,1025 1023,1027 1023,1021"/>
</g>
<g id="node54" class="node"><title>27</title>
<polygon style="fill:#e58139;stroke:black;" points="1090,1084 1036,1084 1036,1156 1090,1156 1090,1084"/>
<text text-anchor="middle" x="1063" y="1101">0.4537</text>
<text text-anchor="middle" x="1063" y="1117">13</text>
<text text-anchor="middle" x="1063" y="1133">[15, 8]</text>
<text text-anchor="middle" x="1063" y="1149">NS</text>
</g>
<g id="edge54" class="edge"><title>26&#45;&gt;27</title>
<path style="fill:none;stroke:black;" d="M957,1120C981,1120 1006,1120 1025,1120"/>
<polygon style="fill:black;stroke:black;" points="1025,1116 1035,1120 1025,1123 1025,1116"/>
</g>
<g id="node56" class="node"><title>28</title>
<polygon style="fill:#e58139;stroke:black;" points="1099,1174 1027,1174 1027,1246 1099,1246 1099,1174"/>
<text text-anchor="middle" x="1063" y="1191">0.0468</text>
<text text-anchor="middle" x="1063" y="1207">1072</text>
<text text-anchor="middle" x="1063" y="1223">[1668, 41]</text>
<text text-anchor="middle" x="1063" y="1239">NS</text>
</g>
<g id="edge56" class="edge"><title>26&#45;&gt;28</title>
<path style="fill:none;stroke:black;" d="M957,1162C977,1171 999,1181 1017,1189"/>
<polygon style="fill:black;stroke:black;" points="1018,1186 1026,1193 1015,1192 1018,1186"/>
</g>
</g>
</svg>
