<?xml version="1.0" encoding="UTF-8" standalone="no"?>
<!DOCTYPE svg PUBLIC "-//W3C//DTD SVG 1.0//EN"
 "http://www.w3.org/TR/2001/REC-SVG-20010904/DTD/svg10.dtd">
<!-- Generated by dot version 2.2 (Tue Jan 25 21:58:56 UTC 2005)
     For user: (amfrye) Alex Frye   Title: Tree    Pages: 1 -->
<svg width="1038pt" height="762pt"
 viewBox = "-1 -1 1037 761"
 xmlns="http://www.w3.org/2000/svg">
<g id="graph0" class="graph" style="font-family:Times-Roman;font-size:14.00;">
<title>Tree</title>
<g id="node1" class="node"><title>0</title>
<polygon style="fill:#e58139;stroke:black;" points="159,327 5,327 5,415 159,415 159,327"/>
<text text-anchor="middle" x="82" y="344">IndAvgSalary &lt;= 0.7222</text>
<text text-anchor="middle" x="82" y="360">0.5</text>
<text text-anchor="middle" x="82" y="376">7533</text>
<text text-anchor="middle" x="82" y="392">[5994, 5943]</text>
<text text-anchor="middle" x="82" y="408">NS</text>
</g>
<g id="node2" class="node"><title>1</title>
<polygon style="fill:#399de5;stroke:black;" points="419,274 195,274 195,362 419,362 419,274"/>
<text text-anchor="middle" x="307" y="291">BLS_FEDERAL_Quits_Rate &lt;= 0.5</text>
<text text-anchor="middle" x="307" y="307">0.4598</text>
<text text-anchor="middle" x="307" y="323">5202</text>
<text text-anchor="middle" x="307" y="339">[2956, 5295]</text>
<text text-anchor="middle" x="307" y="355">SD</text>
</g>
<g id="edge2" class="edge"><title>0&#45;&gt;1</title>
<path style="fill:none;stroke:black;" d="M159,353C168,351 176,349 185,346"/>
<polygon style="fill:black;stroke:black;" points="185,343 195,344 186,349 185,343"/>
<text text-anchor="middle" x="174" y="335">True</text>
</g>
<g id="node20" class="node"><title>10</title>
<polygon style="fill:#e58139;stroke:black;" points="359,380 255,380 255,468 359,468 359,380"/>
<text text-anchor="middle" x="307" y="397">LOC_01 &lt;= 0.5</text>
<text text-anchor="middle" x="307" y="413">0.2898</text>
<text text-anchor="middle" x="307" y="429">2331</text>
<text text-anchor="middle" x="307" y="445">[3038, 648]</text>
<text text-anchor="middle" x="307" y="461">NS</text>
</g>
<g id="edge20" class="edge"><title>0&#45;&gt;10</title>
<path style="fill:none;stroke:black;" d="M159,389C186,396 218,403 244,410"/>
<polygon style="fill:black;stroke:black;" points="245,407 254,412 244,413 245,407"/>
<text text-anchor="middle" x="233" y="431">False</text>
</g>
<g id="node4" class="node"><title>2</title>
<polygon style="fill:#399de5;stroke:black;" points="605,178 471,178 471,266 605,266 605,178"/>
<text text-anchor="middle" x="538" y="195">GSEGRD &lt;= 0.5625</text>
<text text-anchor="middle" x="538" y="211">0.4698</text>
<text text-anchor="middle" x="538" y="227">4402</text>
<text text-anchor="middle" x="538" y="243">[2650, 4377]</text>
<text text-anchor="middle" x="538" y="259">SD</text>
</g>
<g id="edge4" class="edge"><title>1&#45;&gt;2</title>
<path style="fill:none;stroke:black;" d="M413,274C430,267 446,261 462,254"/>
<polygon style="fill:black;stroke:black;" points="460,251 471,250 463,257 460,251"/>
</g>
<g id="node18" class="node"><title>9</title>
<polygon style="fill:#399de5;stroke:black;" points="574,284 502,284 502,356 574,356 574,284"/>
<text text-anchor="middle" x="538" y="301">0.375</text>
<text text-anchor="middle" x="538" y="317">800</text>
<text text-anchor="middle" x="538" y="333">[306, 918]</text>
<text text-anchor="middle" x="538" y="349">SD</text>
</g>
<g id="edge18" class="edge"><title>1&#45;&gt;9</title>
<path style="fill:none;stroke:black;" d="M419,319C445,319 470,319 491,320"/>
<polygon style="fill:black;stroke:black;" points="491,316 501,320 491,323 491,316"/>
</g>
<g id="node6" class="node"><title>3</title>
<polygon style="fill:#399de5;stroke:black;" points="909,82 657,82 657,170 909,170 909,82"/>
<text text-anchor="middle" x="783" y="99">BLS_FEDERAL_OtherSep_Level &lt;= 0.5</text>
<text text-anchor="middle" x="783" y="115">0.3961</text>
<text text-anchor="middle" x="783" y="131">1689</text>
<text text-anchor="middle" x="783" y="147">[735, 1966]</text>
<text text-anchor="middle" x="783" y="163">SD</text>
</g>
<g id="edge6" class="edge"><title>2&#45;&gt;3</title>
<path style="fill:none;stroke:black;" d="M605,196C622,189 642,181 662,174"/>
<polygon style="fill:black;stroke:black;" points="660,171 671,170 663,177 660,171"/>
</g>
<g id="node12" class="node"><title>6</title>
<polygon style="fill:#399de5;stroke:black;" points="874,188 692,188 692,276 874,276 874,188"/>
<text text-anchor="middle" x="783" y="205">YearsToRetirement &lt;= 0.4417</text>
<text text-anchor="middle" x="783" y="221">0.4934</text>
<text text-anchor="middle" x="783" y="237">2713</text>
<text text-anchor="middle" x="783" y="253">[1915, 2411]</text>
<text text-anchor="middle" x="783" y="269">SD</text>
</g>
<g id="edge12" class="edge"><title>2&#45;&gt;6</title>
<path style="fill:none;stroke:black;" d="M605,225C629,226 656,227 681,228"/>
<polygon style="fill:black;stroke:black;" points="681,224 691,228 681,231 681,224"/>
</g>
<g id="node8" class="node"><title>4</title>
<polygon style="fill:#399de5;stroke:black;" points="1028,4 948,4 948,76 1028,76 1028,4"/>
<text text-anchor="middle" x="988" y="21">0.3824</text>
<text text-anchor="middle" x="988" y="37">1417</text>
<text text-anchor="middle" x="988" y="53">[583, 1681]</text>
<text text-anchor="middle" x="988" y="69">SD</text>
</g>
<g id="edge8" class="edge"><title>3&#45;&gt;4</title>
<path style="fill:none;stroke:black;" d="M888,82C905,75 923,67 938,61"/>
<polygon style="fill:black;stroke:black;" points="937,57 948,57 940,64 937,57"/>
</g>
<g id="node10" class="node"><title>5</title>
<polygon style="fill:#399de5;stroke:black;" points="1025,94 951,94 951,166 1025,166 1025,94"/>
<text text-anchor="middle" x="988" y="111">0.4537</text>
<text text-anchor="middle" x="988" y="127">272</text>
<text text-anchor="middle" x="988" y="143">[152, 285]</text>
<text text-anchor="middle" x="988" y="159">SD</text>
</g>
<g id="edge10" class="edge"><title>3&#45;&gt;5</title>
<path style="fill:none;stroke:black;" d="M909,128C920,128 931,129 941,129"/>
<polygon style="fill:black;stroke:black;" points="941,125 951,129 941,132 941,125"/>
</g>
<g id="node14" class="node"><title>7</title>
<polygon style="fill:#399de5;stroke:black;" points="1031,188 945,188 945,260 1031,260 1031,188"/>
<text text-anchor="middle" x="988" y="205">0.4712</text>
<text text-anchor="middle" x="988" y="221">2192</text>
<text text-anchor="middle" x="988" y="237">[1329, 2169]</text>
<text text-anchor="middle" x="988" y="253">SD</text>
</g>
<g id="edge14" class="edge"><title>6&#45;&gt;7</title>
<path style="fill:none;stroke:black;" d="M875,228C895,227 917,226 935,225"/>
<polygon style="fill:black;stroke:black;" points="935,221 945,225 935,228 935,221"/>
</g>
<g id="node16" class="node"><title>8</title>
<polygon style="fill:#e58139;stroke:black;" points="1025,278 951,278 951,350 1025,350 1025,278"/>
<text text-anchor="middle" x="988" y="295">0.4137</text>
<text text-anchor="middle" x="988" y="311">521</text>
<text text-anchor="middle" x="988" y="327">[586, 242]</text>
<text text-anchor="middle" x="988" y="343">NS</text>
</g>
<g id="edge16" class="edge"><title>6&#45;&gt;8</title>
<path style="fill:none;stroke:black;" d="M875,269C897,278 921,288 940,295"/>
<polygon style="fill:black;stroke:black;" points="942,292 950,299 939,299 942,292"/>
</g>
<g id="node22" class="node"><title>11</title>
<polygon style="fill:#e58139;stroke:black;" points="620,378 456,378 456,466 620,466 620,378"/>
<text text-anchor="middle" x="538" y="395">LowerLimitAge &lt;= 0.8194</text>
<text text-anchor="middle" x="538" y="411">0.4893</text>
<text text-anchor="middle" x="538" y="427">109</text>
<text text-anchor="middle" x="538" y="443">[102, 76]</text>
<text text-anchor="middle" x="538" y="459">NS</text>
</g>
<g id="edge22" class="edge"><title>10&#45;&gt;11</title>
<path style="fill:none;stroke:black;" d="M360,424C385,424 416,423 445,423"/>
<polygon style="fill:black;stroke:black;" points="445,419 455,423 445,426 445,419"/>
</g>
<g id="node28" class="node"><title>14</title>
<polygon style="fill:#e58139;stroke:black;" points="605,484 471,484 471,572 605,572 605,484"/>
<text text-anchor="middle" x="538" y="501">GSEGRD &lt;= 0.5625</text>
<text text-anchor="middle" x="538" y="517">0.2729</text>
<text text-anchor="middle" x="538" y="533">2222</text>
<text text-anchor="middle" x="538" y="549">[2936, 572]</text>
<text text-anchor="middle" x="538" y="565">NS</text>
</g>
<g id="edge28" class="edge"><title>10&#45;&gt;14</title>
<path style="fill:none;stroke:black;" d="M360,448C390,461 428,479 462,494"/>
<polygon style="fill:black;stroke:black;" points="463,491 471,498 460,497 463,491"/>
</g>
<g id="node24" class="node"><title>12</title>
<polygon style="fill:#e58139;stroke:black;" points="813,298 753,298 753,370 813,370 813,298"/>
<text text-anchor="middle" x="783" y="315">0.4946</text>
<text text-anchor="middle" x="783" y="331">94</text>
<text text-anchor="middle" x="783" y="347">[85, 69]</text>
<text text-anchor="middle" x="783" y="363">NS</text>
</g>
<g id="edge24" class="edge"><title>11&#45;&gt;12</title>
<path style="fill:none;stroke:black;" d="M621,393C633,388 645,383 657,379 686,368 718,357 742,348"/>
<polygon style="fill:black;stroke:black;" points="741,345 752,345 743,351 741,345"/>
</g>
<g id="node26" class="node"><title>13</title>
<polygon style="fill:#e58139;stroke:black;" points="810,388 756,388 756,460 810,460 810,388"/>
<text text-anchor="middle" x="783" y="405">0.4132</text>
<text text-anchor="middle" x="783" y="421">15</text>
<text text-anchor="middle" x="783" y="437">[17, 7]</text>
<text text-anchor="middle" x="783" y="453">NS</text>
</g>
<g id="edge26" class="edge"><title>11&#45;&gt;13</title>
<path style="fill:none;stroke:black;" d="M621,423C663,423 712,423 746,424"/>
<polygon style="fill:black;stroke:black;" points="746,420 756,424 746,427 746,420"/>
</g>
<g id="node30" class="node"><title>15</title>
<polygon style="fill:#e58139;stroke:black;" points="850,482 716,482 716,570 850,570 850,482"/>
<text text-anchor="middle" x="783" y="499">SALARYLog &lt;= 0.5</text>
<text text-anchor="middle" x="783" y="515">0.4415</text>
<text text-anchor="middle" x="783" y="531">514</text>
<text text-anchor="middle" x="783" y="547">[559, 274]</text>
<text text-anchor="middle" x="783" y="563">NS</text>
</g>
<g id="edge30" class="edge"><title>14&#45;&gt;15</title>
<path style="fill:none;stroke:black;" d="M605,527C637,527 674,527 706,527"/>
<polygon style="fill:black;stroke:black;" points="706,523 716,527 706,530 706,523"/>
</g>
<g id="node36" class="node"><title>18</title>
<polygon style="fill:#e58139;stroke:black;" points="875,588 691,588 691,676 875,676 875,588"/>
<text text-anchor="middle" x="783" y="605">YearsToRetirement &lt;= 0.2438</text>
<text text-anchor="middle" x="783" y="621">0.198</text>
<text text-anchor="middle" x="783" y="637">1708</text>
<text text-anchor="middle" x="783" y="653">[2377, 298]</text>
<text text-anchor="middle" x="783" y="669">NS</text>
</g>
<g id="edge36" class="edge"><title>14&#45;&gt;18</title>
<path style="fill:none;stroke:black;" d="M605,557C622,564 640,572 657,579 665,583 673,586 681,589"/>
<polygon style="fill:black;stroke:black;" points="682,586 690,593 679,592 682,586"/>
</g>
<g id="node32" class="node"><title>16</title>
<polygon style="fill:#e58139;stroke:black;" points="1024,408 952,408 952,480 1024,480 1024,408"/>
<text text-anchor="middle" x="988" y="425">0.442</text>
<text text-anchor="middle" x="988" y="441">501</text>
<text text-anchor="middle" x="988" y="457">[547, 269]</text>
<text text-anchor="middle" x="988" y="473">NS</text>
</g>
<g id="edge32" class="edge"><title>15&#45;&gt;16</title>
<path style="fill:none;stroke:black;" d="M850,499C880,487 915,473 941,463"/>
<polygon style="fill:black;stroke:black;" points="940,459 951,459 943,466 940,459"/>
</g>
<g id="node34" class="node"><title>17</title>
<polygon style="fill:#e58139;stroke:black;" points="1015,498 961,498 961,570 1015,570 1015,498"/>
<text text-anchor="middle" x="988" y="515">0.4152</text>
<text text-anchor="middle" x="988" y="531">13</text>
<text text-anchor="middle" x="988" y="547">[12, 5]</text>
<text text-anchor="middle" x="988" y="563">NS</text>
</g>
<g id="edge34" class="edge"><title>15&#45;&gt;17</title>
<path style="fill:none;stroke:black;" d="M850,529C884,530 923,532 951,533"/>
<polygon style="fill:black;stroke:black;" points="951,529 961,533 951,536 951,529"/>
</g>
<g id="node38" class="node"><title>19</title>
<polygon style="fill:#399de5;stroke:black;" points="1021,592 955,592 955,664 1021,664 1021,592"/>
<text text-anchor="middle" x="988" y="609">0.2449</text>
<text text-anchor="middle" x="988" y="625">95</text>
<text text-anchor="middle" x="988" y="641">[20, 120]</text>
<text text-anchor="middle" x="988" y="657">SD</text>
</g>
<g id="edge38" class="edge"><title>18&#45;&gt;19</title>
<path style="fill:none;stroke:black;" d="M876,630C900,629 924,629 944,629"/>
<polygon style="fill:black;stroke:black;" points="944,625 954,629 944,632 944,625"/>
</g>
<g id="node40" class="node"><title>20</title>
<polygon style="fill:#e58139;stroke:black;" points="1027,682 949,682 949,754 1027,754 1027,682"/>
<text text-anchor="middle" x="988" y="699">0.1306</text>
<text text-anchor="middle" x="988" y="715">1613</text>
<text text-anchor="middle" x="988" y="731">[2357, 178]</text>
<text text-anchor="middle" x="988" y="747">NS</text>
</g>
<g id="edge40" class="edge"><title>18&#45;&gt;20</title>
<path style="fill:none;stroke:black;" d="M876,671C897,680 920,690 939,698"/>
<polygon style="fill:black;stroke:black;" points="940,695 948,702 937,701 940,695"/>
</g>
</g>
</svg>
