<?xml version="1.0" encoding="UTF-8" standalone="no"?>
<!DOCTYPE svg PUBLIC "-//W3C//DTD SVG 1.0//EN"
 "http://www.w3.org/TR/2001/REC-SVG-20010904/DTD/svg10.dtd">
<!-- Generated by dot version 2.2 (Tue Jan 25 21:58:56 UTC 2005)
     For user: (amfrye) Alex Frye   Title: Tree    Pages: 1 -->
<svg width="1004pt" height="1434pt"
 viewBox = "-1 -1 1003 1433"
 xmlns="http://www.w3.org/2000/svg">
<g id="graph0" class="graph" style="font-family:Times-Roman;font-size:14.00;">
<title>Tree</title>
<g id="node1" class="node"><title>0</title>
<polygon style="fill:#e58139;stroke:black;" points="229,671 5,671 5,759 229,759 229,671"/>
<text text-anchor="middle" x="117" y="688">BLS_FEDERAL_Quits_Rate &lt;= 0.5</text>
<text text-anchor="middle" x="117" y="704">0.4995</text>
<text text-anchor="middle" x="117" y="720">7460</text>
<text text-anchor="middle" x="117" y="736">[6154, 5783]</text>
<text text-anchor="middle" x="117" y="752">NS</text>
</g>
<g id="node2" class="node"><title>1</title>
<polygon style="fill:#e58139;stroke:black;" points="449,491 265,491 265,579 449,579 449,491"/>
<text text-anchor="middle" x="357" y="508">YearsToRetirement &lt;= 0.4122</text>
<text text-anchor="middle" x="357" y="524">0.4956</text>
<text text-anchor="middle" x="357" y="540">6686</text>
<text text-anchor="middle" x="357" y="556">[5853, 4850]</text>
<text text-anchor="middle" x="357" y="572">NS</text>
</g>
<g id="edge2" class="edge"><title>0&#45;&gt;1</title>
<path style="fill:none;stroke:black;" d="M176,671C210,645 254,612 291,585"/>
<polygon style="fill:black;stroke:black;" points="289,582 299,579 293,588 289,582"/>
<text text-anchor="middle" x="274" y="580">True</text>
</g>
<g id="node32" class="node"><title>16</title>
<polygon style="fill:#399de5;stroke:black;" points="439,851 275,851 275,939 439,939 439,851"/>
<text text-anchor="middle" x="357" y="868">LowerLimitAge &lt;= 0.8194</text>
<text text-anchor="middle" x="357" y="884">0.3688</text>
<text text-anchor="middle" x="357" y="900">774</text>
<text text-anchor="middle" x="357" y="916">[301, 933]</text>
<text text-anchor="middle" x="357" y="932">SD</text>
</g>
<g id="edge32" class="edge"><title>0&#45;&gt;16</title>
<path style="fill:none;stroke:black;" d="M176,759C210,785 254,818 291,845"/>
<polygon style="fill:black;stroke:black;" points="293,842 299,851 289,848 293,842"/>
<text text-anchor="middle" x="274" y="860">False</text>
</g>
<g id="node4" class="node"><title>2</title>
<polygon style="fill:#399de5;stroke:black;" points="646,229 492,229 492,317 646,317 646,229"/>
<text text-anchor="middle" x="569" y="246">IndAvgSalary &lt;= 0.8333</text>
<text text-anchor="middle" x="569" y="262">0.4541</text>
<text text-anchor="middle" x="569" y="278">4143</text>
<text text-anchor="middle" x="569" y="294">[2301, 4300]</text>
<text text-anchor="middle" x="569" y="310">SD</text>
</g>
<g id="edge4" class="edge"><title>1&#45;&gt;2</title>
<path style="fill:none;stroke:black;" d="M393,491C430,446 488,374 527,325"/>
<polygon style="fill:black;stroke:black;" points="524,323 533,317 530,327 524,323"/>
</g>
<g id="node18" class="node"><title>9</title>
<polygon style="fill:#e58139;stroke:black;" points="652,491 486,491 486,579 652,579 652,491"/>
<text text-anchor="middle" x="569" y="508">LowerLimitAge &lt;= 0.1389</text>
<text text-anchor="middle" x="569" y="524">0.2322</text>
<text text-anchor="middle" x="569" y="540">2543</text>
<text text-anchor="middle" x="569" y="556">[3552, 550]</text>
<text text-anchor="middle" x="569" y="572">NS</text>
</g>
<g id="edge18" class="edge"><title>1&#45;&gt;9</title>
<path style="fill:none;stroke:black;" d="M449,535C458,535 467,535 476,535"/>
<polygon style="fill:black;stroke:black;" points="476,531 486,535 476,538 476,531"/>
</g>
<g id="node6" class="node"><title>3</title>
<polygon style="fill:#399de5;stroke:black;" points="847,86 715,86 715,174 847,174 847,86"/>
<text text-anchor="middle" x="781" y="103">GSEGRD &lt;= 0.4375</text>
<text text-anchor="middle" x="781" y="119">0.4399</text>
<text text-anchor="middle" x="781" y="135">3809</text>
<text text-anchor="middle" x="781" y="151">[1980, 4081]</text>
<text text-anchor="middle" x="781" y="167">SD</text>
</g>
<g id="edge6" class="edge"><title>2&#45;&gt;3</title>
<path style="fill:none;stroke:black;" d="M634,229C657,214 684,196 708,180"/>
<polygon style="fill:black;stroke:black;" points="706,177 716,174 710,183 706,177"/>
</g>
<g id="node12" class="node"><title>6</title>
<polygon style="fill:#e58139;stroke:black;" points="872,229 690,229 690,317 872,317 872,229"/>
<text text-anchor="middle" x="781" y="246">YearsToRetirement &lt;= 0.2618</text>
<text text-anchor="middle" x="781" y="262">0.4822</text>
<text text-anchor="middle" x="781" y="278">334</text>
<text text-anchor="middle" x="781" y="294">[321, 219]</text>
<text text-anchor="middle" x="781" y="310">NS</text>
</g>
<g id="edge12" class="edge"><title>2&#45;&gt;6</title>
<path style="fill:none;stroke:black;" d="M647,273C658,273 668,273 679,273"/>
<polygon style="fill:black;stroke:black;" points="679,269 689,273 679,276 679,269"/>
</g>
<g id="node8" class="node"><title>4</title>
<polygon style="fill:#399de5;stroke:black;" points="993,4 913,4 913,76 993,76 993,4"/>
<text text-anchor="middle" x="953" y="21">0.3146</text>
<text text-anchor="middle" x="953" y="37">790</text>
<text text-anchor="middle" x="953" y="53">[244, 1004]</text>
<text text-anchor="middle" x="953" y="69">SD</text>
</g>
<g id="edge8" class="edge"><title>3&#45;&gt;4</title>
<path style="fill:none;stroke:black;" d="M848,95C867,86 886,75 903,66"/>
<polygon style="fill:black;stroke:black;" points="902,63 912,61 905,69 902,63"/>
</g>
<g id="node10" class="node"><title>5</title>
<polygon style="fill:#399de5;stroke:black;" points="996,94 910,94 910,166 996,166 996,94"/>
<text text-anchor="middle" x="953" y="111">0.4612</text>
<text text-anchor="middle" x="953" y="127">3019</text>
<text text-anchor="middle" x="953" y="143">[1736, 3077]</text>
<text text-anchor="middle" x="953" y="159">SD</text>
</g>
<g id="edge10" class="edge"><title>3&#45;&gt;5</title>
<path style="fill:none;stroke:black;" d="M848,130C865,130 883,130 899,130"/>
<polygon style="fill:black;stroke:black;" points="899,126 909,130 899,133 899,126"/>
</g>
<g id="node14" class="node"><title>7</title>
<polygon style="fill:#399de5;stroke:black;" points="986,184 920,184 920,256 986,256 986,184"/>
<text text-anchor="middle" x="953" y="201">0.2861</text>
<text text-anchor="middle" x="953" y="217">113</text>
<text text-anchor="middle" x="953" y="233">[32, 153]</text>
<text text-anchor="middle" x="953" y="249">SD</text>
</g>
<g id="edge14" class="edge"><title>6&#45;&gt;7</title>
<path style="fill:none;stroke:black;" d="M873,245C886,241 898,237 909,234"/>
<polygon style="fill:black;stroke:black;" points="908,230 919,230 911,237 908,230"/>
</g>
<g id="node16" class="node"><title>8</title>
<polygon style="fill:#e58139;stroke:black;" points="987,274 919,274 919,346 987,346 987,274"/>
<text text-anchor="middle" x="953" y="291">0.3027</text>
<text text-anchor="middle" x="953" y="307">221</text>
<text text-anchor="middle" x="953" y="323">[289, 66]</text>
<text text-anchor="middle" x="953" y="339">NS</text>
</g>
<g id="edge16" class="edge"><title>6&#45;&gt;8</title>
<path style="fill:none;stroke:black;" d="M873,293C885,296 898,299 909,301"/>
<polygon style="fill:black;stroke:black;" points="910,298 919,303 909,304 910,298"/>
</g>
<g id="node20" class="node"><title>10</title>
<polygon style="fill:#e58139;stroke:black;" points="858,438 704,438 704,526 858,526 858,438"/>
<text text-anchor="middle" x="781" y="455">IndAvgSalary &lt;= 0.7222</text>
<text text-anchor="middle" x="781" y="471">0.3283</text>
<text text-anchor="middle" x="781" y="487">302</text>
<text text-anchor="middle" x="781" y="503">[383, 100]</text>
<text text-anchor="middle" x="781" y="519">NS</text>
</g>
<g id="edge20" class="edge"><title>9&#45;&gt;10</title>
<path style="fill:none;stroke:black;" d="M652,514C666,511 680,507 694,503"/>
<polygon style="fill:black;stroke:black;" points="694,500 704,501 695,506 694,500"/>
</g>
<g id="node26" class="node"><title>13</title>
<polygon style="fill:#e58139;stroke:black;" points="845,544 717,544 717,632 845,632 845,544"/>
<text text-anchor="middle" x="781" y="561">AGELVL_G &lt;= 0.5</text>
<text text-anchor="middle" x="781" y="577">0.2178</text>
<text text-anchor="middle" x="781" y="593">2241</text>
<text text-anchor="middle" x="781" y="609">[3169, 450]</text>
<text text-anchor="middle" x="781" y="625">NS</text>
</g>
<g id="edge26" class="edge"><title>9&#45;&gt;13</title>
<path style="fill:none;stroke:black;" d="M652,556C670,560 689,565 706,569"/>
<polygon style="fill:black;stroke:black;" points="707,566 716,572 705,572 707,566"/>
</g>
<g id="node22" class="node"><title>11</title>
<polygon style="fill:#399de5;stroke:black;" points="983,364 923,364 923,436 983,436 983,364"/>
<text text-anchor="middle" x="953" y="381">0.4992</text>
<text text-anchor="middle" x="953" y="397">93</text>
<text text-anchor="middle" x="953" y="413">[74, 80]</text>
<text text-anchor="middle" x="953" y="429">SD</text>
</g>
<g id="edge22" class="edge"><title>10&#45;&gt;11</title>
<path style="fill:none;stroke:black;" d="M858,445C877,436 897,427 914,419"/>
<polygon style="fill:black;stroke:black;" points="913,416 923,414 916,422 913,416"/>
</g>
<g id="node24" class="node"><title>12</title>
<polygon style="fill:#e58139;stroke:black;" points="987,454 919,454 919,526 987,526 987,454"/>
<text text-anchor="middle" x="953" y="471">0.1142</text>
<text text-anchor="middle" x="953" y="487">209</text>
<text text-anchor="middle" x="953" y="503">[309, 20]</text>
<text text-anchor="middle" x="953" y="519">NS</text>
</g>
<g id="edge24" class="edge"><title>10&#45;&gt;12</title>
<path style="fill:none;stroke:black;" d="M858,486C875,487 893,488 909,488"/>
<polygon style="fill:black;stroke:black;" points="909,485 919,489 909,491 909,485"/>
</g>
<g id="node28" class="node"><title>14</title>
<polygon style="fill:#e58139;stroke:black;" points="991,544 915,544 915,616 991,616 991,544"/>
<text text-anchor="middle" x="953" y="561">0.2133</text>
<text text-anchor="middle" x="953" y="577">2109</text>
<text text-anchor="middle" x="953" y="593">[3011, 416]</text>
<text text-anchor="middle" x="953" y="609">NS</text>
</g>
<g id="edge28" class="edge"><title>13&#45;&gt;14</title>
<path style="fill:none;stroke:black;" d="M846,585C865,584 886,583 904,582"/>
<polygon style="fill:black;stroke:black;" points="904,578 914,582 904,585 904,578"/>
</g>
<g id="node30" class="node"><title>15</title>
<polygon style="fill:#e58139;stroke:black;" points="986,634 920,634 920,706 986,706 986,634"/>
<text text-anchor="middle" x="953" y="651">0.2914</text>
<text text-anchor="middle" x="953" y="667">132</text>
<text text-anchor="middle" x="953" y="683">[158, 34]</text>
<text text-anchor="middle" x="953" y="699">NS</text>
</g>
<g id="edge30" class="edge"><title>13&#45;&gt;15</title>
<path style="fill:none;stroke:black;" d="M846,619C867,629 890,640 910,650"/>
<polygon style="fill:black;stroke:black;" points="911,647 919,654 908,653 911,647"/>
</g>
<g id="node34" class="node"><title>17</title>
<polygon style="fill:#399de5;stroke:black;" points="652,851 486,851 486,939 652,939 652,851"/>
<text text-anchor="middle" x="569" y="868">LowerLimitAge &lt;= 0.4028</text>
<text text-anchor="middle" x="569" y="884">0.3397</text>
<text text-anchor="middle" x="569" y="900">651</text>
<text text-anchor="middle" x="569" y="916">[226, 816]</text>
<text text-anchor="middle" x="569" y="932">SD</text>
</g>
<g id="edge34" class="edge"><title>16&#45;&gt;17</title>
<path style="fill:none;stroke:black;" d="M440,895C452,895 463,895 475,895"/>
<polygon style="fill:black;stroke:black;" points="475,891 485,895 475,898 475,891"/>
</g>
<g id="node48" class="node"><title>24</title>
<polygon style="fill:#399de5;stroke:black;" points="633,1113 505,1113 505,1201 633,1201 633,1113"/>
<text text-anchor="middle" x="569" y="1130">AGELVL_D &lt;= 0.5</text>
<text text-anchor="middle" x="569" y="1146">0.4761</text>
<text text-anchor="middle" x="569" y="1162">123</text>
<text text-anchor="middle" x="569" y="1178">[75, 117]</text>
<text text-anchor="middle" x="569" y="1194">SD</text>
</g>
<g id="edge48" class="edge"><title>16&#45;&gt;24</title>
<path style="fill:none;stroke:black;" d="M393,939C430,984 488,1056 527,1105"/>
<polygon style="fill:black;stroke:black;" points="530,1103 533,1113 524,1107 530,1103"/>
</g>
<g id="node36" class="node"><title>18</title>
<polygon style="fill:#399de5;stroke:black;" points="864,798 698,798 698,886 864,886 864,798"/>
<text text-anchor="middle" x="781" y="815">LowerLimitAge &lt;= 0.1389</text>
<text text-anchor="middle" x="781" y="831">0.4295</text>
<text text-anchor="middle" x="781" y="847">313</text>
<text text-anchor="middle" x="781" y="863">[158, 348]</text>
<text text-anchor="middle" x="781" y="879">SD</text>
</g>
<g id="edge36" class="edge"><title>17&#45;&gt;18</title>
<path style="fill:none;stroke:black;" d="M653,874C665,871 676,868 688,865"/>
<polygon style="fill:black;stroke:black;" points="688,862 698,863 689,868 688,862"/>
</g>
<g id="node42" class="node"><title>21</title>
<polygon style="fill:#399de5;stroke:black;" points="845,904 717,904 717,992 845,992 845,904"/>
<text text-anchor="middle" x="781" y="921">AGELVL_G &lt;= 0.5</text>
<text text-anchor="middle" x="781" y="937">0.2215</text>
<text text-anchor="middle" x="781" y="953">338</text>
<text text-anchor="middle" x="781" y="969">[68, 468]</text>
<text text-anchor="middle" x="781" y="985">SD</text>
</g>
<g id="edge42" class="edge"><title>17&#45;&gt;21</title>
<path style="fill:none;stroke:black;" d="M653,916C671,920 689,925 706,929"/>
<polygon style="fill:black;stroke:black;" points="707,926 716,932 705,932 707,926"/>
</g>
<g id="node38" class="node"><title>19</title>
<polygon style="fill:#399de5;stroke:black;" points="985,724 921,724 921,796 985,796 985,724"/>
<text text-anchor="middle" x="953" y="741">0.3273</text>
<text text-anchor="middle" x="953" y="757">139</text>
<text text-anchor="middle" x="953" y="773">[47, 181]</text>
<text text-anchor="middle" x="953" y="789">SD</text>
</g>
<g id="edge38" class="edge"><title>18&#45;&gt;19</title>
<path style="fill:none;stroke:black;" d="M864,802C880,794 897,786 912,779"/>
<polygon style="fill:black;stroke:black;" points="910,776 921,775 913,782 910,776"/>
</g>
<g id="node40" class="node"><title>20</title>
<polygon style="fill:#399de5;stroke:black;" points="988,814 918,814 918,886 988,886 988,814"/>
<text text-anchor="middle" x="953" y="831">0.4797</text>
<text text-anchor="middle" x="953" y="847">174</text>
<text text-anchor="middle" x="953" y="863">[111, 167]</text>
<text text-anchor="middle" x="953" y="879">SD</text>
</g>
<g id="edge40" class="edge"><title>18&#45;&gt;20</title>
<path style="fill:none;stroke:black;" d="M864,846C879,847 894,848 908,848"/>
<polygon style="fill:black;stroke:black;" points="908,844 918,848 908,851 908,844"/>
</g>
<g id="node44" class="node"><title>22</title>
<polygon style="fill:#399de5;stroke:black;" points="987,904 919,904 919,976 987,976 987,904"/>
<text text-anchor="middle" x="953" y="921">0.2281</text>
<text text-anchor="middle" x="953" y="937">325</text>
<text text-anchor="middle" x="953" y="953">[68, 450]</text>
<text text-anchor="middle" x="953" y="969">SD</text>
</g>
<g id="edge44" class="edge"><title>21&#45;&gt;22</title>
<path style="fill:none;stroke:black;" d="M846,945C867,944 890,943 909,942"/>
<polygon style="fill:black;stroke:black;" points="909,938 919,942 909,945 909,938"/>
</g>
<g id="node46" class="node"><title>23</title>
<polygon style="fill:#399de5;stroke:black;" points="980,994 926,994 926,1066 980,1066 980,994"/>
<text text-anchor="middle" x="953" y="1011">0.0</text>
<text text-anchor="middle" x="953" y="1027">13</text>
<text text-anchor="middle" x="953" y="1043">[0, 18]</text>
<text text-anchor="middle" x="953" y="1059">SD</text>
</g>
<g id="edge46" class="edge"><title>21&#45;&gt;23</title>
<path style="fill:none;stroke:black;" d="M846,979C869,990 896,1003 917,1013"/>
<polygon style="fill:black;stroke:black;" points="918,1010 926,1017 915,1016 918,1010"/>
</g>
<g id="node50" class="node"><title>25</title>
<polygon style="fill:#399de5;stroke:black;" points="844,1113 718,1113 718,1201 844,1201 844,1113"/>
<text text-anchor="middle" x="781" y="1130">GSEGRD &lt;= 0.125</text>
<text text-anchor="middle" x="781" y="1146">0.4707</text>
<text text-anchor="middle" x="781" y="1162">103</text>
<text text-anchor="middle" x="781" y="1178">[61, 100]</text>
<text text-anchor="middle" x="781" y="1194">SD</text>
</g>
<g id="edge50" class="edge"><title>24&#45;&gt;25</title>
<path style="fill:none;stroke:black;" d="M634,1157C658,1157 684,1157 708,1157"/>
<polygon style="fill:black;stroke:black;" points="708,1153 718,1157 708,1160 708,1153"/>
</g>
<g id="node56" class="node"><title>28</title>
<polygon style="fill:#399de5;stroke:black;" points="848,1256 714,1256 714,1344 848,1344 848,1256"/>
<text text-anchor="middle" x="781" y="1273">GSEGRD &lt;= 0.5625</text>
<text text-anchor="middle" x="781" y="1289">0.4953</text>
<text text-anchor="middle" x="781" y="1305">20</text>
<text text-anchor="middle" x="781" y="1321">[14, 17]</text>
<text text-anchor="middle" x="781" y="1337">SD</text>
</g>
<g id="edge56" class="edge"><title>24&#45;&gt;28</title>
<path style="fill:none;stroke:black;" d="M634,1201C657,1216 683,1234 707,1250"/>
<polygon style="fill:black;stroke:black;" points="709,1247 715,1256 705,1253 709,1247"/>
</g>
<g id="node52" class="node"><title>26</title>
<polygon style="fill:#399de5;stroke:black;" points="980,1084 926,1084 926,1156 980,1156 980,1084"/>
<text text-anchor="middle" x="953" y="1101">0.0</text>
<text text-anchor="middle" x="953" y="1117">9</text>
<text text-anchor="middle" x="953" y="1133">[0, 20]</text>
<text text-anchor="middle" x="953" y="1149">SD</text>
</g>
<g id="edge52" class="edge"><title>25&#45;&gt;26</title>
<path style="fill:none;stroke:black;" d="M844,1143C868,1138 895,1133 916,1128"/>
<polygon style="fill:black;stroke:black;" points="916,1125 926,1126 917,1131 916,1125"/>
</g>
<g id="node54" class="node"><title>27</title>
<polygon style="fill:#399de5;stroke:black;" points="982,1174 924,1174 924,1246 982,1246 982,1174"/>
<text text-anchor="middle" x="953" y="1191">0.4909</text>
<text text-anchor="middle" x="953" y="1207">94</text>
<text text-anchor="middle" x="953" y="1223">[61, 80]</text>
<text text-anchor="middle" x="953" y="1239">SD</text>
</g>
<g id="edge54" class="edge"><title>25&#45;&gt;27</title>
<path style="fill:none;stroke:black;" d="M844,1176C867,1184 893,1191 913,1198"/>
<polygon style="fill:black;stroke:black;" points="914,1195 923,1201 912,1201 914,1195"/>
</g>
<g id="node58" class="node"><title>29</title>
<polygon style="fill:#399de5;stroke:black;" points="980,1264 926,1264 926,1336 980,1336 980,1264"/>
<text text-anchor="middle" x="953" y="1281">0.2778</text>
<text text-anchor="middle" x="953" y="1297">11</text>
<text text-anchor="middle" x="953" y="1313">[3, 15]</text>
<text text-anchor="middle" x="953" y="1329">SD</text>
</g>
<g id="edge58" class="edge"><title>28&#45;&gt;29</title>
<path style="fill:none;stroke:black;" d="M848,1300C871,1300 896,1300 916,1300"/>
<polygon style="fill:black;stroke:black;" points="916,1296 926,1300 916,1303 916,1296"/>
</g>
<g id="node60" class="node"><title>30</title>
<polygon style="fill:#e58139;stroke:black;" points="980,1354 926,1354 926,1426 980,1426 980,1354"/>
<text text-anchor="middle" x="953" y="1371">0.2604</text>
<text text-anchor="middle" x="953" y="1387">9</text>
<text text-anchor="middle" x="953" y="1403">[11, 2]</text>
<text text-anchor="middle" x="953" y="1419">NS</text>
</g>
<g id="edge60" class="edge"><title>28&#45;&gt;30</title>
<path style="fill:none;stroke:black;" d="M848,1335C871,1347 897,1361 916,1371"/>
<polygon style="fill:black;stroke:black;" points="918,1368 925,1376 915,1374 918,1368"/>
</g>
</g>
</svg>
