<?xml version="1.0" encoding="UTF-8" standalone="no"?>
<!DOCTYPE svg PUBLIC "-//W3C//DTD SVG 1.0//EN"
 "http://www.w3.org/TR/2001/REC-SVG-20010904/DTD/svg10.dtd">
<!-- Generated by dot version 2.2 (Tue Jan 25 21:58:56 UTC 2005)
     For user: (amfrye) Alex Frye   Title: Tree    Pages: 1 -->
<svg width="1138pt" height="1262pt"
 viewBox = "-1 -1 1137 1261"
 xmlns="http://www.w3.org/2000/svg">
<g id="graph0" class="graph" style="font-family:Times-Roman;font-size:14.00;">
<title>Tree</title>
<g id="node1" class="node"><title>0</title>
<polygon style="fill:#e58139;stroke:black;" points="253,671 5,671 5,759 253,759 253,671"/>
<text text-anchor="middle" x="129" y="688">BLS_FEDERAL_TotalSep_Level &lt;= 0.5</text>
<text text-anchor="middle" x="129" y="704">0.4998</text>
<text text-anchor="middle" x="129" y="720">7570</text>
<text text-anchor="middle" x="129" y="736">[6097, 5840]</text>
<text text-anchor="middle" x="129" y="752">NS</text>
</g>
<g id="node2" class="node"><title>1</title>
<polygon style="fill:#e58139;stroke:black;" points="458,491 336,491 336,579 458,579 458,491"/>
<text text-anchor="middle" x="397" y="508">AGELVL_I &lt;= 0.5</text>
<text text-anchor="middle" x="397" y="524">0.4978</text>
<text text-anchor="middle" x="397" y="540">6612</text>
<text text-anchor="middle" x="397" y="556">[5556, 4869]</text>
<text text-anchor="middle" x="397" y="572">NS</text>
</g>
<g id="edge2" class="edge"><title>0&#45;&gt;1</title>
<path style="fill:none;stroke:black;" d="M195,671C235,644 286,610 326,583"/>
<polygon style="fill:black;stroke:black;" points="325,580 335,577 329,585 325,580"/>
<text text-anchor="middle" x="310" y="577">True</text>
</g>
<g id="node32" class="node"><title>16</title>
<polygon style="fill:#399de5;stroke:black;" points="505,851 289,851 289,939 505,939 505,851"/>
<text text-anchor="middle" x="397" y="868">SalaryOverUnderIndAvg &lt;= 0.8333</text>
<text text-anchor="middle" x="397" y="884">0.4596</text>
<text text-anchor="middle" x="397" y="900">958</text>
<text text-anchor="middle" x="397" y="916">[541, 971]</text>
<text text-anchor="middle" x="397" y="932">SD</text>
</g>
<g id="edge32" class="edge"><title>0&#45;&gt;16</title>
<path style="fill:none;stroke:black;" d="M195,759C234,785 283,818 323,845"/>
<polygon style="fill:black;stroke:black;" points="326,843 332,851 322,848 326,843"/>
<text text-anchor="middle" x="307" y="861">False</text>
</g>
<g id="node4" class="node"><title>2</title>
<polygon style="fill:#e58139;stroke:black;" points="726,229 592,229 592,317 726,317 726,229"/>
<text text-anchor="middle" x="659" y="246">GSEGRD &lt;= 0.5625</text>
<text text-anchor="middle" x="659" y="262">0.4952</text>
<text text-anchor="middle" x="659" y="278">5854</text>
<text text-anchor="middle" x="659" y="294">[5062, 4158]</text>
<text text-anchor="middle" x="659" y="310">NS</text>
</g>
<g id="edge4" class="edge"><title>1&#45;&gt;2</title>
<path style="fill:none;stroke:black;" d="M441,491C487,445 559,373 608,324"/>
<polygon style="fill:black;stroke:black;" points="605,322 615,317 610,327 605,322"/>
</g>
<g id="node18" class="node"><title>9</title>
<polygon style="fill:#399de5;stroke:black;" points="771,491 547,491 547,579 771,579 771,491"/>
<text text-anchor="middle" x="659" y="508">BLS_FEDERAL_Quits_Rate &lt;= 0.5</text>
<text text-anchor="middle" x="659" y="524">0.4838</text>
<text text-anchor="middle" x="659" y="540">758</text>
<text text-anchor="middle" x="659" y="556">[494, 711]</text>
<text text-anchor="middle" x="659" y="572">SD</text>
</g>
<g id="edge18" class="edge"><title>1&#45;&gt;9</title>
<path style="fill:none;stroke:black;" d="M459,535C482,535 510,535 537,535"/>
<polygon style="fill:black;stroke:black;" points="537,531 547,535 537,538 537,531"/>
</g>
<g id="node6" class="node"><title>3</title>
<polygon style="fill:#399de5;stroke:black;" points="1008,86 814,86 814,174 1008,174 1008,86"/>
<text text-anchor="middle" x="911" y="103">SalaryOverUnderIndAvg &lt;= 0.5</text>
<text text-anchor="middle" x="911" y="119">0.464</text>
<text text-anchor="middle" x="911" y="135">1925</text>
<text text-anchor="middle" x="911" y="151">[1111, 1926]</text>
<text text-anchor="middle" x="911" y="167">SD</text>
</g>
<g id="edge6" class="edge"><title>2&#45;&gt;3</title>
<path style="fill:none;stroke:black;" d="M726,235C756,218 792,198 825,179"/>
<polygon style="fill:black;stroke:black;" points="824,176 834,174 827,182 824,176"/>
</g>
<g id="node12" class="node"><title>6</title>
<polygon style="fill:#e58139;stroke:black;" points="1002,229 820,229 820,317 1002,317 1002,229"/>
<text text-anchor="middle" x="911" y="246">YearsToRetirement &lt;= 0.4173</text>
<text text-anchor="middle" x="911" y="262">0.4614</text>
<text text-anchor="middle" x="911" y="278">3929</text>
<text text-anchor="middle" x="911" y="294">[3951, 2232]</text>
<text text-anchor="middle" x="911" y="310">NS</text>
</g>
<g id="edge12" class="edge"><title>2&#45;&gt;6</title>
<path style="fill:none;stroke:black;" d="M726,273C752,273 782,273 810,273"/>
<polygon style="fill:black;stroke:black;" points="810,269 820,273 810,276 810,269"/>
</g>
<g id="node8" class="node"><title>4</title>
<polygon style="fill:#399de5;stroke:black;" points="1128,4 1048,4 1048,76 1128,76 1128,4"/>
<text text-anchor="middle" x="1088" y="21">0.4461</text>
<text text-anchor="middle" x="1088" y="37">1249</text>
<text text-anchor="middle" x="1088" y="53">[655, 1295]</text>
<text text-anchor="middle" x="1088" y="69">SD</text>
</g>
<g id="edge8" class="edge"><title>3&#45;&gt;4</title>
<path style="fill:none;stroke:black;" d="M998,86C1012,79 1025,72 1038,65"/>
<polygon style="fill:black;stroke:black;" points="1036,62 1047,61 1039,68 1036,62"/>
</g>
<g id="node10" class="node"><title>5</title>
<polygon style="fill:#399de5;stroke:black;" points="1125,94 1051,94 1051,166 1125,166 1125,94"/>
<text text-anchor="middle" x="1088" y="111">0.487</text>
<text text-anchor="middle" x="1088" y="127">676</text>
<text text-anchor="middle" x="1088" y="143">[456, 631]</text>
<text text-anchor="middle" x="1088" y="159">SD</text>
</g>
<g id="edge10" class="edge"><title>3&#45;&gt;5</title>
<path style="fill:none;stroke:black;" d="M1009,130C1020,130 1031,130 1041,130"/>
<polygon style="fill:black;stroke:black;" points="1041,126 1051,130 1041,133 1041,126"/>
</g>
<g id="node14" class="node"><title>7</title>
<polygon style="fill:#399de5;stroke:black;" points="1130,184 1046,184 1046,256 1130,256 1130,184"/>
<text text-anchor="middle" x="1088" y="201">0.4799</text>
<text text-anchor="middle" x="1088" y="217">2045</text>
<text text-anchor="middle" x="1088" y="233">[1276, 1915]</text>
<text text-anchor="middle" x="1088" y="249">SD</text>
</g>
<g id="edge14" class="edge"><title>6&#45;&gt;7</title>
<path style="fill:none;stroke:black;" d="M1002,246C1013,242 1025,239 1035,236"/>
<polygon style="fill:black;stroke:black;" points="1034,233 1045,233 1036,239 1034,233"/>
</g>
<g id="node16" class="node"><title>8</title>
<polygon style="fill:#e58139;stroke:black;" points="1127,274 1049,274 1049,346 1127,346 1127,274"/>
<text text-anchor="middle" x="1088" y="291">0.1894</text>
<text text-anchor="middle" x="1088" y="307">1884</text>
<text text-anchor="middle" x="1088" y="323">[2675, 317]</text>
<text text-anchor="middle" x="1088" y="339">NS</text>
</g>
<g id="edge16" class="edge"><title>6&#45;&gt;8</title>
<path style="fill:none;stroke:black;" d="M1002,292C1014,294 1027,297 1039,300"/>
<polygon style="fill:black;stroke:black;" points="1040,297 1049,302 1039,303 1040,297"/>
</g>
<g id="node20" class="node"><title>10</title>
<polygon style="fill:#399de5;stroke:black;" points="963,438 859,438 859,526 963,526 963,438"/>
<text text-anchor="middle" x="911" y="455">LOC_01 &lt;= 0.5</text>
<text text-anchor="middle" x="911" y="471">0.4921</text>
<text text-anchor="middle" x="911" y="487">674</text>
<text text-anchor="middle" x="911" y="503">[466, 600]</text>
<text text-anchor="middle" x="911" y="519">SD</text>
</g>
<g id="edge20" class="edge"><title>9&#45;&gt;10</title>
<path style="fill:none;stroke:black;" d="M771,511C798,506 825,500 848,495"/>
<polygon style="fill:black;stroke:black;" points="848,492 858,493 849,498 848,492"/>
</g>
<g id="node26" class="node"><title>13</title>
<polygon style="fill:#399de5;stroke:black;" points="993,544 829,544 829,632 993,632 993,544"/>
<text text-anchor="middle" x="911" y="561">LowerLimitAge &lt;= 0.8194</text>
<text text-anchor="middle" x="911" y="577">0.3217</text>
<text text-anchor="middle" x="911" y="593">84</text>
<text text-anchor="middle" x="911" y="609">[28, 111]</text>
<text text-anchor="middle" x="911" y="625">SD</text>
</g>
<g id="edge26" class="edge"><title>9&#45;&gt;13</title>
<path style="fill:none;stroke:black;" d="M771,559C787,562 803,566 818,569"/>
<polygon style="fill:black;stroke:black;" points="819,566 828,571 818,572 819,566"/>
</g>
<g id="node22" class="node"><title>11</title>
<polygon style="fill:#e58139;stroke:black;" points="1118,364 1058,364 1058,436 1118,436 1118,364"/>
<text text-anchor="middle" x="1088" y="381">0.4742</text>
<text text-anchor="middle" x="1088" y="397">54</text>
<text text-anchor="middle" x="1088" y="413">[54, 34]</text>
<text text-anchor="middle" x="1088" y="429">NS</text>
</g>
<g id="edge22" class="edge"><title>10&#45;&gt;11</title>
<path style="fill:none;stroke:black;" d="M964,458C990,445 1023,430 1048,418"/>
<polygon style="fill:black;stroke:black;" points="1046,415 1057,414 1049,421 1046,415"/>
</g>
<g id="node24" class="node"><title>12</title>
<polygon style="fill:#399de5;stroke:black;" points="1124,454 1052,454 1052,526 1124,526 1124,454"/>
<text text-anchor="middle" x="1088" y="471">0.4876</text>
<text text-anchor="middle" x="1088" y="487">620</text>
<text text-anchor="middle" x="1088" y="503">[412, 566]</text>
<text text-anchor="middle" x="1088" y="519">SD</text>
</g>
<g id="edge24" class="edge"><title>10&#45;&gt;12</title>
<path style="fill:none;stroke:black;" d="M964,484C988,486 1017,487 1041,488"/>
<polygon style="fill:black;stroke:black;" points="1041,484 1051,488 1041,491 1041,484"/>
</g>
<g id="node28" class="node"><title>14</title>
<polygon style="fill:#399de5;stroke:black;" points="1118,544 1058,544 1058,616 1118,616 1118,544"/>
<text text-anchor="middle" x="1088" y="561">0.2702</text>
<text text-anchor="middle" x="1088" y="577">73</text>
<text text-anchor="middle" x="1088" y="593">[19, 99]</text>
<text text-anchor="middle" x="1088" y="609">SD</text>
</g>
<g id="edge28" class="edge"><title>13&#45;&gt;14</title>
<path style="fill:none;stroke:black;" d="M994,584C1013,583 1032,582 1048,582"/>
<polygon style="fill:black;stroke:black;" points="1048,579 1058,581 1048,585 1048,579"/>
</g>
<g id="node30" class="node"><title>15</title>
<polygon style="fill:#399de5;stroke:black;" points="1115,634 1061,634 1061,706 1115,706 1115,634"/>
<text text-anchor="middle" x="1088" y="651">0.4898</text>
<text text-anchor="middle" x="1088" y="667">11</text>
<text text-anchor="middle" x="1088" y="683">[9, 12]</text>
<text text-anchor="middle" x="1088" y="699">SD</text>
</g>
<g id="edge30" class="edge"><title>13&#45;&gt;15</title>
<path style="fill:none;stroke:black;" d="M994,626C1014,635 1034,645 1051,653"/>
<polygon style="fill:black;stroke:black;" points="1052,650 1060,657 1049,656 1052,650"/>
</g>
<g id="node34" class="node"><title>17</title>
<polygon style="fill:#399de5;stroke:black;" points="777,851 541,851 541,939 777,939 777,851"/>
<text text-anchor="middle" x="659" y="868">BLS_FEDERAL_Layoffs_Rate &lt;= 0.5</text>
<text text-anchor="middle" x="659" y="884">0.4688</text>
<text text-anchor="middle" x="659" y="900">866</text>
<text text-anchor="middle" x="659" y="916">[511, 851]</text>
<text text-anchor="middle" x="659" y="932">SD</text>
</g>
<g id="edge34" class="edge"><title>16&#45;&gt;17</title>
<path style="fill:none;stroke:black;" d="M505,895C514,895 522,895 531,895"/>
<polygon style="fill:black;stroke:black;" points="531,891 541,895 531,898 531,891"/>
</g>
<g id="node48" class="node"><title>24</title>
<polygon style="fill:#399de5;stroke:black;" points="720,1076 598,1076 598,1164 720,1164 720,1076"/>
<text text-anchor="middle" x="659" y="1093">AGELVL_I &lt;= 0.5</text>
<text text-anchor="middle" x="659" y="1109">0.32</text>
<text text-anchor="middle" x="659" y="1125">92</text>
<text text-anchor="middle" x="659" y="1141">[30, 120]</text>
<text text-anchor="middle" x="659" y="1157">SD</text>
</g>
<g id="edge48" class="edge"><title>16&#45;&gt;24</title>
<path style="fill:none;stroke:black;" d="M448,939C491,977 555,1031 600,1069"/>
<polygon style="fill:black;stroke:black;" points="603,1067 608,1076 598,1072 603,1067"/>
</g>
<g id="node36" class="node"><title>18</title>
<polygon style="fill:#399de5;stroke:black;" points="1002,798 820,798 820,886 1002,886 1002,798"/>
<text text-anchor="middle" x="911" y="815">YearsToRetirement &lt;= 0.1996</text>
<text text-anchor="middle" x="911" y="831">0.4718</text>
<text text-anchor="middle" x="911" y="847">842</text>
<text text-anchor="middle" x="911" y="863">[506, 821]</text>
<text text-anchor="middle" x="911" y="879">SD</text>
</g>
<g id="edge36" class="edge"><title>17&#45;&gt;18</title>
<path style="fill:none;stroke:black;" d="M777,870C787,868 799,865 809,863"/>
<polygon style="fill:black;stroke:black;" points="809,860 819,861 810,866 809,860"/>
</g>
<g id="node42" class="node"><title>21</title>
<polygon style="fill:#399de5;stroke:black;" points="1003,904 819,904 819,992 1003,992 1003,904"/>
<text text-anchor="middle" x="911" y="921">YearsToRetirement &lt;= 0.3291</text>
<text text-anchor="middle" x="911" y="937">0.2449</text>
<text text-anchor="middle" x="911" y="953">24</text>
<text text-anchor="middle" x="911" y="969">[5, 30]</text>
<text text-anchor="middle" x="911" y="985">SD</text>
</g>
<g id="edge42" class="edge"><title>17&#45;&gt;21</title>
<path style="fill:none;stroke:black;" d="M777,920C788,922 798,925 809,927"/>
<polygon style="fill:black;stroke:black;" points="810,924 819,929 809,930 810,924"/>
</g>
<g id="node38" class="node"><title>19</title>
<polygon style="fill:#399de5;stroke:black;" points="1122,724 1054,724 1054,796 1122,796 1122,724"/>
<text text-anchor="middle" x="1088" y="741">0.3292</text>
<text text-anchor="middle" x="1088" y="757">206</text>
<text text-anchor="middle" x="1088" y="773">[64, 244]</text>
<text text-anchor="middle" x="1088" y="789">SD</text>
</g>
<g id="edge38" class="edge"><title>18&#45;&gt;19</title>
<path style="fill:none;stroke:black;" d="M1003,800C1017,794 1032,786 1045,780"/>
<polygon style="fill:black;stroke:black;" points="1043,777 1054,776 1046,783 1043,777"/>
</g>
<g id="node40" class="node"><title>20</title>
<polygon style="fill:#399de5;stroke:black;" points="1125,814 1051,814 1051,886 1125,886 1125,814"/>
<text text-anchor="middle" x="1088" y="831">0.4912</text>
<text text-anchor="middle" x="1088" y="847">636</text>
<text text-anchor="middle" x="1088" y="863">[442, 577]</text>
<text text-anchor="middle" x="1088" y="879">SD</text>
</g>
<g id="edge40" class="edge"><title>18&#45;&gt;20</title>
<path style="fill:none;stroke:black;" d="M1003,846C1016,847 1029,848 1041,848"/>
<polygon style="fill:black;stroke:black;" points="1041,844 1051,848 1041,851 1041,844"/>
</g>
<g id="node44" class="node"><title>22</title>
<polygon style="fill:#399de5;stroke:black;" points="1115,904 1061,904 1061,976 1115,976 1115,904"/>
<text text-anchor="middle" x="1088" y="921">0.0997</text>
<text text-anchor="middle" x="1088" y="937">15</text>
<text text-anchor="middle" x="1088" y="953">[1, 18]</text>
<text text-anchor="middle" x="1088" y="969">SD</text>
</g>
<g id="edge44" class="edge"><title>21&#45;&gt;22</title>
<path style="fill:none;stroke:black;" d="M1003,944C1020,943 1036,942 1050,942"/>
<polygon style="fill:black;stroke:black;" points="1050,939 1060,941 1050,945 1050,939"/>
</g>
<g id="node46" class="node"><title>23</title>
<polygon style="fill:#399de5;stroke:black;" points="1115,994 1061,994 1061,1066 1115,1066 1115,994"/>
<text text-anchor="middle" x="1088" y="1011">0.375</text>
<text text-anchor="middle" x="1088" y="1027">9</text>
<text text-anchor="middle" x="1088" y="1043">[4, 12]</text>
<text text-anchor="middle" x="1088" y="1059">SD</text>
</g>
<g id="edge46" class="edge"><title>21&#45;&gt;23</title>
<path style="fill:none;stroke:black;" d="M1003,991C1020,999 1037,1007 1052,1014"/>
<polygon style="fill:black;stroke:black;" points="1053,1011 1061,1018 1050,1017 1053,1011"/>
</g>
<g id="node50" class="node"><title>25</title>
<polygon style="fill:#399de5;stroke:black;" points="1003,1076 819,1076 819,1164 1003,1164 1003,1076"/>
<text text-anchor="middle" x="911" y="1093">YearsToRetirement &lt;= 0.3324</text>
<text text-anchor="middle" x="911" y="1109">0.3476</text>
<text text-anchor="middle" x="911" y="1125">76</text>
<text text-anchor="middle" x="911" y="1141">[28, 97]</text>
<text text-anchor="middle" x="911" y="1157">SD</text>
</g>
<g id="edge50" class="edge"><title>24&#45;&gt;25</title>
<path style="fill:none;stroke:black;" d="M721,1120C747,1120 778,1120 808,1120"/>
<polygon style="fill:black;stroke:black;" points="808,1116 818,1120 808,1123 808,1116"/>
</g>
<g id="node56" class="node"><title>28</title>
<polygon style="fill:#399de5;stroke:black;" points="938,1182 884,1182 884,1254 938,1254 938,1182"/>
<text text-anchor="middle" x="911" y="1199">0.1472</text>
<text text-anchor="middle" x="911" y="1215">16</text>
<text text-anchor="middle" x="911" y="1231">[2, 23]</text>
<text text-anchor="middle" x="911" y="1247">SD</text>
</g>
<g id="edge56" class="edge"><title>24&#45;&gt;28</title>
<path style="fill:none;stroke:black;" d="M721,1144C769,1162 834,1188 875,1203"/>
<polygon style="fill:black;stroke:black;" points="876,1200 884,1207 873,1206 876,1200"/>
</g>
<g id="node52" class="node"><title>26</title>
<polygon style="fill:#399de5;stroke:black;" points="1118,1084 1058,1084 1058,1156 1118,1156 1118,1084"/>
<text text-anchor="middle" x="1088" y="1101">0.3006</text>
<text text-anchor="middle" x="1088" y="1117">47</text>
<text text-anchor="middle" x="1088" y="1133">[14, 62]</text>
<text text-anchor="middle" x="1088" y="1149">SD</text>
</g>
<g id="edge52" class="edge"><title>25&#45;&gt;26</title>
<path style="fill:none;stroke:black;" d="M1004,1120C1019,1120 1035,1120 1048,1120"/>
<polygon style="fill:black;stroke:black;" points="1048,1116 1058,1120 1048,1123 1048,1116"/>
</g>
<g id="node54" class="node"><title>27</title>
<polygon style="fill:#399de5;stroke:black;" points="1118,1174 1058,1174 1058,1246 1118,1246 1118,1174"/>
<text text-anchor="middle" x="1088" y="1191">0.4082</text>
<text text-anchor="middle" x="1088" y="1207">29</text>
<text text-anchor="middle" x="1088" y="1223">[14, 35]</text>
<text text-anchor="middle" x="1088" y="1239">SD</text>
</g>
<g id="edge54" class="edge"><title>25&#45;&gt;27</title>
<path style="fill:none;stroke:black;" d="M998,1164C1016,1173 1034,1182 1049,1190"/>
<polygon style="fill:black;stroke:black;" points="1051,1187 1058,1195 1048,1193 1051,1187"/>
</g>
</g>
</svg>
