<?xml version="1.0" encoding="UTF-8" standalone="no"?>
<!DOCTYPE svg PUBLIC "-//W3C//DTD SVG 1.0//EN"
 "http://www.w3.org/TR/2001/REC-SVG-20010904/DTD/svg10.dtd">
<!-- Generated by dot version 2.2 (Tue Jan 25 21:58:56 UTC 2005)
     For user: (amfrye) Alex Frye   Title: Tree    Pages: 1 -->
<svg width="1148pt" height="902pt"
 viewBox = "-1 -1 1147 901"
 xmlns="http://www.w3.org/2000/svg">
<g id="graph0" class="graph" style="font-family:Times-Roman;font-size:14.00;">
<title>Tree</title>
<g id="node1" class="node"><title>0</title>
<polygon style="fill:#399de5;stroke:black;" points="229,604 5,604 5,692 229,692 229,604"/>
<text text-anchor="middle" x="117" y="621">BLS_FEDERAL_Quits_Rate &lt;= 0.5</text>
<text text-anchor="middle" x="117" y="637">0.5</text>
<text text-anchor="middle" x="117" y="653">7501</text>
<text text-anchor="middle" x="117" y="669">[5956, 5981]</text>
<text text-anchor="middle" x="117" y="685">SD</text>
</g>
<g id="node2" class="node"><title>1</title>
<polygon style="fill:#e58139;stroke:black;" points="513,491 265,491 265,579 513,579 513,491"/>
<text text-anchor="middle" x="389" y="508">BLS_FEDERAL_TotalSep_Level &lt;= 0.5</text>
<text text-anchor="middle" x="389" y="524">0.4983</text>
<text text-anchor="middle" x="389" y="540">6706</text>
<text text-anchor="middle" x="389" y="556">[5644, 5027]</text>
<text text-anchor="middle" x="389" y="572">NS</text>
</g>
<g id="edge2" class="edge"><title>0&#45;&gt;1</title>
<path style="fill:none;stroke:black;" d="M223,604C239,597 256,590 273,583"/>
<polygon style="fill:black;stroke:black;" points="271,580 282,579 274,586 271,580"/>
<text text-anchor="middle" x="259" y="575">True</text>
</g>
<g id="node32" class="node"><title>16</title>
<polygon style="fill:#399de5;stroke:black;" points="456,716 322,716 322,804 456,804 456,716"/>
<text text-anchor="middle" x="389" y="733">SALARYLog &lt;= 0.5</text>
<text text-anchor="middle" x="389" y="749">0.3714</text>
<text text-anchor="middle" x="389" y="765">795</text>
<text text-anchor="middle" x="389" y="781">[312, 954]</text>
<text text-anchor="middle" x="389" y="797">SD</text>
</g>
<g id="edge32" class="edge"><title>0&#45;&gt;16</title>
<path style="fill:none;stroke:black;" d="M224,692C254,704 285,717 313,728"/>
<polygon style="fill:black;stroke:black;" points="314,725 322,732 311,731 314,725"/>
<text text-anchor="middle" x="299" y="746">False</text>
</g>
<g id="node4" class="node"><title>2</title>
<polygon style="fill:#e58139;stroke:black;" points="699,229 565,229 565,317 699,317 699,229"/>
<text text-anchor="middle" x="632" y="246">GSEGRD &lt;= 0.5625</text>
<text text-anchor="middle" x="632" y="262">0.4917</text>
<text text-anchor="middle" x="632" y="278">5760</text>
<text text-anchor="middle" x="632" y="294">[5156, 3979]</text>
<text text-anchor="middle" x="632" y="310">NS</text>
</g>
<g id="edge4" class="edge"><title>1&#45;&gt;2</title>
<path style="fill:none;stroke:black;" d="M430,491C473,445 539,373 584,324"/>
<polygon style="fill:black;stroke:black;" points="581,322 591,317 586,327 581,322"/>
</g>
<g id="node18" class="node"><title>9</title>
<polygon style="fill:#399de5;stroke:black;" points="696,491 568,491 568,579 696,579 696,491"/>
<text text-anchor="middle" x="632" y="508">AGELVL_C &lt;= 0.5</text>
<text text-anchor="middle" x="632" y="524">0.4335</text>
<text text-anchor="middle" x="632" y="540">946</text>
<text text-anchor="middle" x="632" y="556">[488, 1048]</text>
<text text-anchor="middle" x="632" y="572">SD</text>
</g>
<g id="edge18" class="edge"><title>1&#45;&gt;9</title>
<path style="fill:none;stroke:black;" d="M513,535C528,535 544,535 558,535"/>
<polygon style="fill:black;stroke:black;" points="558,531 568,535 558,538 558,531"/>
</g>
<g id="node6" class="node"><title>3</title>
<polygon style="fill:#399de5;stroke:black;" points="1018,86 752,86 752,174 1018,174 1018,86"/>
<text text-anchor="middle" x="885" y="103">BLS_FEDERAL_JobOpenings_Rate &lt;= 0.5</text>
<text text-anchor="middle" x="885" y="119">0.4686</text>
<text text-anchor="middle" x="885" y="135">1876</text>
<text text-anchor="middle" x="885" y="151">[1108, 1849]</text>
<text text-anchor="middle" x="885" y="167">SD</text>
</g>
<g id="edge6" class="edge"><title>2&#45;&gt;3</title>
<path style="fill:none;stroke:black;" d="M699,235C729,218 766,198 798,179"/>
<polygon style="fill:black;stroke:black;" points="797,176 807,174 800,182 797,176"/>
</g>
<g id="node12" class="node"><title>6</title>
<polygon style="fill:#e58139;stroke:black;" points="977,229 793,229 793,317 977,317 977,229"/>
<text text-anchor="middle" x="885" y="246">YearsToRetirement &lt;= 0.4002</text>
<text text-anchor="middle" x="885" y="262">0.4518</text>
<text text-anchor="middle" x="885" y="278">3884</text>
<text text-anchor="middle" x="885" y="294">[4048, 2130]</text>
<text text-anchor="middle" x="885" y="310">NS</text>
</g>
<g id="edge12" class="edge"><title>2&#45;&gt;6</title>
<path style="fill:none;stroke:black;" d="M699,273C725,273 754,273 782,273"/>
<polygon style="fill:black;stroke:black;" points="782,269 792,273 782,276 782,269"/>
</g>
<g id="node8" class="node"><title>4</title>
<polygon style="fill:#399de5;stroke:black;" points="1138,4 1058,4 1058,76 1138,76 1138,4"/>
<text text-anchor="middle" x="1098" y="21">0.4772</text>
<text text-anchor="middle" x="1098" y="37">1576</text>
<text text-anchor="middle" x="1098" y="53">[976, 1506]</text>
<text text-anchor="middle" x="1098" y="69">SD</text>
</g>
<g id="edge8" class="edge"><title>3&#45;&gt;4</title>
<path style="fill:none;stroke:black;" d="M989,86C1009,78 1030,68 1048,61"/>
<polygon style="fill:black;stroke:black;" points="1047,57 1058,57 1050,64 1047,57"/>
</g>
<g id="node10" class="node"><title>5</title>
<polygon style="fill:#399de5;stroke:black;" points="1135,94 1061,94 1061,166 1135,166 1135,94"/>
<text text-anchor="middle" x="1098" y="111">0.4013</text>
<text text-anchor="middle" x="1098" y="127">300</text>
<text text-anchor="middle" x="1098" y="143">[132, 343]</text>
<text text-anchor="middle" x="1098" y="159">SD</text>
</g>
<g id="edge10" class="edge"><title>3&#45;&gt;5</title>
<path style="fill:none;stroke:black;" d="M1019,130C1030,130 1041,130 1051,130"/>
<polygon style="fill:black;stroke:black;" points="1051,126 1061,130 1051,133 1051,126"/>
</g>
<g id="node14" class="node"><title>7</title>
<polygon style="fill:#399de5;stroke:black;" points="1140,184 1056,184 1056,256 1140,256 1140,184"/>
<text text-anchor="middle" x="1098" y="201">0.4836</text>
<text text-anchor="middle" x="1098" y="217">1826</text>
<text text-anchor="middle" x="1098" y="233">[1178, 1700]</text>
<text text-anchor="middle" x="1098" y="249">SD</text>
</g>
<g id="edge14" class="edge"><title>6&#45;&gt;7</title>
<path style="fill:none;stroke:black;" d="M978,250C1001,244 1025,238 1045,233"/>
<polygon style="fill:black;stroke:black;" points="1045,230 1055,231 1046,236 1045,230"/>
</g>
<g id="node16" class="node"><title>8</title>
<polygon style="fill:#e58139;stroke:black;" points="1138,274 1058,274 1058,346 1138,346 1138,274"/>
<text text-anchor="middle" x="1098" y="291">0.2266</text>
<text text-anchor="middle" x="1098" y="307">2058</text>
<text text-anchor="middle" x="1098" y="323">[2870, 430]</text>
<text text-anchor="middle" x="1098" y="339">NS</text>
</g>
<g id="edge16" class="edge"><title>6&#45;&gt;8</title>
<path style="fill:none;stroke:black;" d="M978,289C1002,293 1027,298 1047,301"/>
<polygon style="fill:black;stroke:black;" points="1048,298 1057,303 1047,304 1048,298"/>
</g>
<g id="node20" class="node"><title>10</title>
<polygon style="fill:#399de5;stroke:black;" points="937,438 833,438 833,526 937,526 937,438"/>
<text text-anchor="middle" x="885" y="455">LOC_01 &lt;= 0.5</text>
<text text-anchor="middle" x="885" y="471">0.4349</text>
<text text-anchor="middle" x="885" y="487">895</text>
<text text-anchor="middle" x="885" y="503">[463, 986]</text>
<text text-anchor="middle" x="885" y="519">SD</text>
</g>
<g id="edge20" class="edge"><title>9&#45;&gt;10</title>
<path style="fill:none;stroke:black;" d="M696,522C735,514 784,503 822,495"/>
<polygon style="fill:black;stroke:black;" points="822,492 832,493 823,498 822,492"/>
</g>
<g id="node26" class="node"><title>13</title>
<polygon style="fill:#399de5;stroke:black;" points="977,544 793,544 793,632 977,632 977,544"/>
<text text-anchor="middle" x="885" y="561">YearsToRetirement &lt;= 0.3567</text>
<text text-anchor="middle" x="885" y="577">0.4096</text>
<text text-anchor="middle" x="885" y="593">51</text>
<text text-anchor="middle" x="885" y="609">[25, 62]</text>
<text text-anchor="middle" x="885" y="625">SD</text>
</g>
<g id="edge26" class="edge"><title>9&#45;&gt;13</title>
<path style="fill:none;stroke:black;" d="M696,548C722,553 753,560 782,566"/>
<polygon style="fill:black;stroke:black;" points="783,563 792,568 782,569 783,563"/>
</g>
<g id="node22" class="node"><title>11</title>
<polygon style="fill:#399de5;stroke:black;" points="1125,364 1071,364 1071,436 1125,436 1125,364"/>
<text text-anchor="middle" x="1098" y="381">0.3682</text>
<text text-anchor="middle" x="1098" y="397">27</text>
<text text-anchor="middle" x="1098" y="413">[9, 28]</text>
<text text-anchor="middle" x="1098" y="429">SD</text>
</g>
<g id="edge22" class="edge"><title>10&#45;&gt;11</title>
<path style="fill:none;stroke:black;" d="M938,462C976,447 1027,427 1061,414"/>
<polygon style="fill:black;stroke:black;" points="1059,411 1070,411 1062,417 1059,411"/>
</g>
<g id="node24" class="node"><title>12</title>
<polygon style="fill:#399de5;stroke:black;" points="1135,454 1061,454 1061,526 1135,526 1135,454"/>
<text text-anchor="middle" x="1098" y="471">0.4363</text>
<text text-anchor="middle" x="1098" y="487">868</text>
<text text-anchor="middle" x="1098" y="503">[454, 958]</text>
<text text-anchor="middle" x="1098" y="519">SD</text>
</g>
<g id="edge24" class="edge"><title>10&#45;&gt;12</title>
<path style="fill:none;stroke:black;" d="M938,484C972,485 1016,487 1050,488"/>
<polygon style="fill:black;stroke:black;" points="1050,484 1060,488 1050,491 1050,484"/>
</g>
<g id="node28" class="node"><title>14</title>
<polygon style="fill:#399de5;stroke:black;" points="1125,544 1071,544 1071,616 1125,616 1125,544"/>
<text text-anchor="middle" x="1098" y="561">0.2482</text>
<text text-anchor="middle" x="1098" y="577">39</text>
<text text-anchor="middle" x="1098" y="593">[9, 53]</text>
<text text-anchor="middle" x="1098" y="609">SD</text>
</g>
<g id="edge28" class="edge"><title>13&#45;&gt;14</title>
<path style="fill:none;stroke:black;" d="M978,585C1006,583 1037,582 1060,581"/>
<polygon style="fill:black;stroke:black;" points="1060,577 1070,581 1060,584 1060,577"/>
</g>
<g id="node30" class="node"><title>15</title>
<polygon style="fill:#e58139;stroke:black;" points="1125,634 1071,634 1071,706 1125,706 1125,634"/>
<text text-anchor="middle" x="1098" y="651">0.4608</text>
<text text-anchor="middle" x="1098" y="667">12</text>
<text text-anchor="middle" x="1098" y="683">[16, 9]</text>
<text text-anchor="middle" x="1098" y="699">NS</text>
</g>
<g id="edge30" class="edge"><title>13&#45;&gt;15</title>
<path style="fill:none;stroke:black;" d="M978,624C1007,635 1038,647 1060,656"/>
<polygon style="fill:black;stroke:black;" points="1062,653 1070,660 1059,660 1062,653"/>
</g>
<g id="node34" class="node"><title>17</title>
<polygon style="fill:#399de5;stroke:black;" points="714,716 550,716 550,804 714,804 714,716"/>
<text text-anchor="middle" x="632" y="733">LowerLimitAge &lt;= 0.8194</text>
<text text-anchor="middle" x="632" y="749">0.3658</text>
<text text-anchor="middle" x="632" y="765">784</text>
<text text-anchor="middle" x="632" y="781">[301, 948]</text>
<text text-anchor="middle" x="632" y="797">SD</text>
</g>
<g id="edge34" class="edge"><title>16&#45;&gt;17</title>
<path style="fill:none;stroke:black;" d="M456,760C482,760 511,760 539,760"/>
<polygon style="fill:black;stroke:black;" points="539,756 549,760 539,763 539,756"/>
</g>
<g id="node44" class="node"><title>22</title>
<polygon style="fill:#e58139;stroke:black;" points="659,822 605,822 605,894 659,894 659,822"/>
<text text-anchor="middle" x="632" y="839">0.4567</text>
<text text-anchor="middle" x="632" y="855">11</text>
<text text-anchor="middle" x="632" y="871">[11, 6]</text>
<text text-anchor="middle" x="632" y="887">NS</text>
</g>
<g id="edge44" class="edge"><title>16&#45;&gt;22</title>
<path style="fill:none;stroke:black;" d="M456,787C501,805 558,828 594,843"/>
<polygon style="fill:black;stroke:black;" points="596,840 604,847 593,847 596,840"/>
</g>
<g id="node36" class="node"><title>18</title>
<polygon style="fill:#399de5;stroke:black;" points="949,716 821,716 821,804 949,804 949,716"/>
<text text-anchor="middle" x="885" y="733">AGELVL_G &lt;= 0.5</text>
<text text-anchor="middle" x="885" y="749">0.3354</text>
<text text-anchor="middle" x="885" y="765">669</text>
<text text-anchor="middle" x="885" y="781">[227, 838]</text>
<text text-anchor="middle" x="885" y="797">SD</text>
</g>
<g id="edge36" class="edge"><title>17&#45;&gt;18</title>
<path style="fill:none;stroke:black;" d="M715,760C745,760 780,760 810,760"/>
<polygon style="fill:black;stroke:black;" points="810,756 820,760 810,763 810,756"/>
</g>
<g id="node42" class="node"><title>21</title>
<polygon style="fill:#399de5;stroke:black;" points="917,822 853,822 853,894 917,894 917,822"/>
<text text-anchor="middle" x="885" y="839">0.4809</text>
<text text-anchor="middle" x="885" y="855">115</text>
<text text-anchor="middle" x="885" y="871">[74, 110]</text>
<text text-anchor="middle" x="885" y="887">SD</text>
</g>
<g id="edge42" class="edge"><title>17&#45;&gt;21</title>
<path style="fill:none;stroke:black;" d="M715,798C727,803 739,808 751,813 781,825 816,836 842,845"/>
<polygon style="fill:black;stroke:black;" points="843,842 852,848 841,848 843,842"/>
</g>
<g id="node38" class="node"><title>19</title>
<polygon style="fill:#399de5;stroke:black;" points="1135,724 1061,724 1061,796 1135,796 1135,724"/>
<text text-anchor="middle" x="1098" y="741">0.3458</text>
<text text-anchor="middle" x="1098" y="757">642</text>
<text text-anchor="middle" x="1098" y="773">[225, 787]</text>
<text text-anchor="middle" x="1098" y="789">SD</text>
</g>
<g id="edge38" class="edge"><title>18&#45;&gt;19</title>
<path style="fill:none;stroke:black;" d="M950,760C982,760 1021,760 1051,760"/>
<polygon style="fill:black;stroke:black;" points="1051,756 1061,760 1051,763 1051,756"/>
</g>
<g id="node40" class="node"><title>20</title>
<polygon style="fill:#399de5;stroke:black;" points="1125,814 1071,814 1071,886 1125,886 1125,814"/>
<text text-anchor="middle" x="1098" y="831">0.0726</text>
<text text-anchor="middle" x="1098" y="847">27</text>
<text text-anchor="middle" x="1098" y="863">[2, 51]</text>
<text text-anchor="middle" x="1098" y="879">SD</text>
</g>
<g id="edge40" class="edge"><title>18&#45;&gt;20</title>
<path style="fill:none;stroke:black;" d="M950,785C972,793 997,803 1019,813 1033,819 1048,827 1061,833"/>
<polygon style="fill:black;stroke:black;" points="1062,830 1070,837 1059,836 1062,830"/>
</g>
</g>
</svg>
