<?xml version="1.0" encoding="UTF-8" standalone="no"?>
<!DOCTYPE svg PUBLIC "-//W3C//DTD SVG 1.0//EN"
 "http://www.w3.org/TR/2001/REC-SVG-20010904/DTD/svg10.dtd">
<!-- Generated by dot version 2.2 (Tue Jan 25 21:58:56 UTC 2005)
     For user: (amfrye) Alex Frye   Title: Tree    Pages: 1 -->
<svg width="1120pt" height="1262pt"
 viewBox = "-1 -1 1119 1261"
 xmlns="http://www.w3.org/2000/svg">
<g id="graph0" class="graph" style="font-family:Times-Roman;font-size:14.00;">
<title>Tree</title>
<g id="node1" class="node"><title>0</title>
<polygon style="fill:#e58139;stroke:black;" points="189,671 5,671 5,759 189,759 189,671"/>
<text text-anchor="middle" x="97" y="688">YearsToRetirement &lt;= 0.4139</text>
<text text-anchor="middle" x="97" y="704">0.5</text>
<text text-anchor="middle" x="97" y="720">7499</text>
<text text-anchor="middle" x="97" y="736">[5971, 5966]</text>
<text text-anchor="middle" x="97" y="752">NS</text>
</g>
<g id="node2" class="node"><title>1</title>
<polygon style="fill:#399de5;stroke:black;" points="392,491 226,491 226,579 392,579 392,491"/>
<text text-anchor="middle" x="309" y="508">LowerLimitAge &lt;= 0.4028</text>
<text text-anchor="middle" x="309" y="524">0.436</text>
<text text-anchor="middle" x="309" y="540">4981</text>
<text text-anchor="middle" x="309" y="556">[2554, 5401]</text>
<text text-anchor="middle" x="309" y="572">SD</text>
</g>
<g id="edge2" class="edge"><title>0&#45;&gt;1</title>
<path style="fill:none;stroke:black;" d="M149,671C179,645 218,613 249,586"/>
<polygon style="fill:black;stroke:black;" points="247,583 257,579 252,588 247,583"/>
<text text-anchor="middle" x="232" y="582">True</text>
</g>
<g id="node32" class="node"><title>16</title>
<polygon style="fill:#e58139;stroke:black;" points="386,851 232,851 232,939 386,939 386,851"/>
<text text-anchor="middle" x="309" y="868">IndAvgSalary &lt;= 0.7222</text>
<text text-anchor="middle" x="309" y="884">0.2435</text>
<text text-anchor="middle" x="309" y="900">2518</text>
<text text-anchor="middle" x="309" y="916">[3417, 565]</text>
<text text-anchor="middle" x="309" y="932">NS</text>
</g>
<g id="edge32" class="edge"><title>0&#45;&gt;16</title>
<path style="fill:none;stroke:black;" d="M149,759C179,785 218,817 249,844"/>
<polygon style="fill:black;stroke:black;" points="252,842 257,851 247,847 252,842"/>
<text text-anchor="middle" x="232" y="858">False</text>
</g>
<g id="node4" class="node"><title>2</title>
<polygon style="fill:#399de5;stroke:black;" points="689,229 441,229 441,317 689,317 689,229"/>
<text text-anchor="middle" x="565" y="246">BLS_FEDERAL_TotalSep_Level &lt;= 0.5</text>
<text text-anchor="middle" x="565" y="262">0.4716</text>
<text text-anchor="middle" x="565" y="278">2085</text>
<text text-anchor="middle" x="565" y="294">[1281, 2083]</text>
<text text-anchor="middle" x="565" y="310">SD</text>
</g>
<g id="edge4" class="edge"><title>1&#45;&gt;2</title>
<path style="fill:none;stroke:black;" d="M352,491C397,445 467,373 515,324"/>
<polygon style="fill:black;stroke:black;" points="512,322 522,317 517,327 512,322"/>
</g>
<g id="node18" class="node"><title>9</title>
<polygon style="fill:#399de5;stroke:black;" points="677,491 453,491 453,579 677,579 677,491"/>
<text text-anchor="middle" x="565" y="508">BLS_FEDERAL_Quits_Rate &lt;= 0.5</text>
<text text-anchor="middle" x="565" y="524">0.4008</text>
<text text-anchor="middle" x="565" y="540">2896</text>
<text text-anchor="middle" x="565" y="556">[1273, 3318]</text>
<text text-anchor="middle" x="565" y="572">SD</text>
</g>
<g id="edge18" class="edge"><title>1&#45;&gt;9</title>
<path style="fill:none;stroke:black;" d="M393,535C409,535 426,535 443,535"/>
<polygon style="fill:black;stroke:black;" points="443,531 453,535 443,538 443,531"/>
</g>
<g id="node6" class="node"><title>3</title>
<polygon style="fill:#399de5;stroke:black;" points="946,86 780,86 780,174 946,174 946,86"/>
<text text-anchor="middle" x="863" y="103">LowerLimitAge &lt;= 0.1389</text>
<text text-anchor="middle" x="863" y="119">0.4767</text>
<text text-anchor="middle" x="863" y="135">1714</text>
<text text-anchor="middle" x="863" y="151">[1087, 1686]</text>
<text text-anchor="middle" x="863" y="167">SD</text>
</g>
<g id="edge6" class="edge"><title>2&#45;&gt;3</title>
<path style="fill:none;stroke:black;" d="M657,229C693,211 735,191 771,174"/>
<polygon style="fill:black;stroke:black;" points="769,171 780,170 772,177 769,171"/>
</g>
<g id="node12" class="node"><title>6</title>
<polygon style="fill:#399de5;stroke:black;" points="926,229 800,229 800,317 926,317 926,229"/>
<text text-anchor="middle" x="863" y="246">AGELVL_F &lt;= 0.5</text>
<text text-anchor="middle" x="863" y="262">0.441</text>
<text text-anchor="middle" x="863" y="278">371</text>
<text text-anchor="middle" x="863" y="294">[194, 397]</text>
<text text-anchor="middle" x="863" y="310">SD</text>
</g>
<g id="edge12" class="edge"><title>2&#45;&gt;6</title>
<path style="fill:none;stroke:black;" d="M689,273C723,273 759,273 789,273"/>
<polygon style="fill:black;stroke:black;" points="789,269 799,273 789,276 789,269"/>
</g>
<g id="node8" class="node"><title>4</title>
<polygon style="fill:#399de5;stroke:black;" points="1106,4 1032,4 1032,76 1106,76 1106,4"/>
<text text-anchor="middle" x="1069" y="21">0.3728</text>
<text text-anchor="middle" x="1069" y="37">702</text>
<text text-anchor="middle" x="1069" y="53">[285, 865]</text>
<text text-anchor="middle" x="1069" y="69">SD</text>
</g>
<g id="edge8" class="edge"><title>3&#45;&gt;4</title>
<path style="fill:none;stroke:black;" d="M946,94C972,83 999,70 1022,61"/>
<polygon style="fill:black;stroke:black;" points="1020,58 1031,57 1023,64 1020,58"/>
</g>
<g id="node10" class="node"><title>5</title>
<polygon style="fill:#399de5;stroke:black;" points="1106,94 1032,94 1032,166 1106,166 1106,94"/>
<text text-anchor="middle" x="1069" y="111">0.4999</text>
<text text-anchor="middle" x="1069" y="127">1012</text>
<text text-anchor="middle" x="1069" y="143">[802, 821]</text>
<text text-anchor="middle" x="1069" y="159">SD</text>
</g>
<g id="edge10" class="edge"><title>3&#45;&gt;5</title>
<path style="fill:none;stroke:black;" d="M946,130C972,130 999,130 1022,130"/>
<polygon style="fill:black;stroke:black;" points="1022,126 1032,130 1022,133 1022,126"/>
</g>
<g id="node14" class="node"><title>7</title>
<polygon style="fill:#399de5;stroke:black;" points="1106,184 1032,184 1032,256 1106,256 1106,184"/>
<text text-anchor="middle" x="1069" y="201">0.4517</text>
<text text-anchor="middle" x="1069" y="217">357</text>
<text text-anchor="middle" x="1069" y="233">[194, 369]</text>
<text text-anchor="middle" x="1069" y="249">SD</text>
</g>
<g id="edge14" class="edge"><title>6&#45;&gt;7</title>
<path style="fill:none;stroke:black;" d="M927,257C957,249 994,239 1022,232"/>
<polygon style="fill:black;stroke:black;" points="1022,229 1032,230 1023,235 1022,229"/>
</g>
<g id="node16" class="node"><title>8</title>
<polygon style="fill:#399de5;stroke:black;" points="1096,274 1042,274 1042,346 1096,346 1096,274"/>
<text text-anchor="middle" x="1069" y="291">0.0</text>
<text text-anchor="middle" x="1069" y="307">14</text>
<text text-anchor="middle" x="1069" y="323">[0, 28]</text>
<text text-anchor="middle" x="1069" y="339">SD</text>
</g>
<g id="edge16" class="edge"><title>6&#45;&gt;8</title>
<path style="fill:none;stroke:black;" d="M927,284C961,290 1003,298 1032,303"/>
<polygon style="fill:black;stroke:black;" points="1033,300 1042,305 1032,306 1033,300"/>
</g>
<g id="node20" class="node"><title>10</title>
<polygon style="fill:#399de5;stroke:black;" points="927,438 799,438 799,526 927,526 927,438"/>
<text text-anchor="middle" x="863" y="455">AGELVL_E &lt;= 0.5</text>
<text text-anchor="middle" x="863" y="471">0.417</text>
<text text-anchor="middle" x="863" y="487">2423</text>
<text text-anchor="middle" x="863" y="503">[1136, 2698]</text>
<text text-anchor="middle" x="863" y="519">SD</text>
</g>
<g id="edge20" class="edge"><title>9&#45;&gt;10</title>
<path style="fill:none;stroke:black;" d="M677,515C714,509 755,501 789,495"/>
<polygon style="fill:black;stroke:black;" points="789,492 799,493 790,498 789,492"/>
</g>
<g id="node26" class="node"><title>13</title>
<polygon style="fill:#399de5;stroke:black;" points="930,544 796,544 796,632 930,632 930,544"/>
<text text-anchor="middle" x="863" y="561">SALARYLog &lt;= 0.5</text>
<text text-anchor="middle" x="863" y="577">0.2964</text>
<text text-anchor="middle" x="863" y="593">473</text>
<text text-anchor="middle" x="863" y="609">[137, 620]</text>
<text text-anchor="middle" x="863" y="625">SD</text>
</g>
<g id="edge26" class="edge"><title>9&#45;&gt;13</title>
<path style="fill:none;stroke:black;" d="M677,555C713,561 753,569 786,574"/>
<polygon style="fill:black;stroke:black;" points="787,571 796,576 786,577 787,571"/>
</g>
<g id="node22" class="node"><title>11</title>
<polygon style="fill:#399de5;stroke:black;" points="1112,364 1026,364 1026,436 1112,436 1112,364"/>
<text text-anchor="middle" x="1069" y="381">0.419</text>
<text text-anchor="middle" x="1069" y="397">2331</text>
<text text-anchor="middle" x="1069" y="413">[1105, 2593]</text>
<text text-anchor="middle" x="1069" y="429">SD</text>
</g>
<g id="edge22" class="edge"><title>10&#45;&gt;11</title>
<path style="fill:none;stroke:black;" d="M927,457C955,445 989,432 1015,421"/>
<polygon style="fill:black;stroke:black;" points="1014,417 1025,417 1017,424 1014,417"/>
</g>
<g id="node24" class="node"><title>12</title>
<polygon style="fill:#399de5;stroke:black;" points="1101,454 1037,454 1037,526 1101,526 1101,454"/>
<text text-anchor="middle" x="1069" y="471">0.352</text>
<text text-anchor="middle" x="1069" y="487">92</text>
<text text-anchor="middle" x="1069" y="503">[31, 105]</text>
<text text-anchor="middle" x="1069" y="519">SD</text>
</g>
<g id="edge24" class="edge"><title>10&#45;&gt;12</title>
<path style="fill:none;stroke:black;" d="M927,484C959,486 997,488 1026,489"/>
<polygon style="fill:black;stroke:black;" points="1026,485 1036,489 1026,492 1026,485"/>
</g>
<g id="node28" class="node"><title>14</title>
<polygon style="fill:#399de5;stroke:black;" points="1106,544 1032,544 1032,616 1106,616 1106,544"/>
<text text-anchor="middle" x="1069" y="561">0.2876</text>
<text text-anchor="middle" x="1069" y="577">463</text>
<text text-anchor="middle" x="1069" y="593">[128, 607]</text>
<text text-anchor="middle" x="1069" y="609">SD</text>
</g>
<g id="edge28" class="edge"><title>13&#45;&gt;14</title>
<path style="fill:none;stroke:black;" d="M930,585C960,584 995,582 1022,581"/>
<polygon style="fill:black;stroke:black;" points="1022,577 1032,581 1022,584 1022,577"/>
</g>
<g id="node30" class="node"><title>15</title>
<polygon style="fill:#399de5;stroke:black;" points="1096,634 1042,634 1042,706 1096,706 1096,634"/>
<text text-anchor="middle" x="1069" y="651">0.4835</text>
<text text-anchor="middle" x="1069" y="667">10</text>
<text text-anchor="middle" x="1069" y="683">[9, 13]</text>
<text text-anchor="middle" x="1069" y="699">SD</text>
</g>
<g id="edge30" class="edge"><title>13&#45;&gt;15</title>
<path style="fill:none;stroke:black;" d="M930,615C964,628 1004,644 1032,655"/>
<polygon style="fill:black;stroke:black;" points="1033,652 1041,659 1030,658 1033,652"/>
</g>
<g id="node34" class="node"><title>17</title>
<polygon style="fill:#e58139;stroke:black;" points="673,851 457,851 457,939 673,939 673,851"/>
<text text-anchor="middle" x="565" y="868">SalaryOverUnderIndAvg &lt;= 0.8333</text>
<text text-anchor="middle" x="565" y="884">0.4301</text>
<text text-anchor="middle" x="565" y="900">853</text>
<text text-anchor="middle" x="565" y="916">[917, 418]</text>
<text text-anchor="middle" x="565" y="932">NS</text>
</g>
<g id="edge34" class="edge"><title>16&#45;&gt;17</title>
<path style="fill:none;stroke:black;" d="M386,895C405,895 426,895 447,895"/>
<polygon style="fill:black;stroke:black;" points="447,891 457,895 447,898 447,891"/>
</g>
<g id="node48" class="node"><title>24</title>
<polygon style="fill:#e58139;stroke:black;" points="701,1076 429,1076 429,1164 701,1164 701,1076"/>
<text text-anchor="middle" x="565" y="1093">BLS_FEDERAL_JobOpenings_Level &lt;= 0.5</text>
<text text-anchor="middle" x="565" y="1109">0.1049</text>
<text text-anchor="middle" x="565" y="1125">1665</text>
<text text-anchor="middle" x="565" y="1141">[2500, 147]</text>
<text text-anchor="middle" x="565" y="1157">NS</text>
</g>
<g id="edge48" class="edge"><title>16&#45;&gt;24</title>
<path style="fill:none;stroke:black;" d="M359,939C402,977 463,1031 507,1069"/>
<polygon style="fill:black;stroke:black;" points="510,1067 515,1076 505,1072 510,1067"/>
</g>
<g id="node36" class="node"><title>18</title>
<polygon style="fill:#e58139;stroke:black;" points="955,798 771,798 771,886 955,886 955,798"/>
<text text-anchor="middle" x="863" y="815">YearsToRetirement &lt;= 0.5653</text>
<text text-anchor="middle" x="863" y="831">0.4128</text>
<text text-anchor="middle" x="863" y="847">765</text>
<text text-anchor="middle" x="863" y="863">[847, 348]</text>
<text text-anchor="middle" x="863" y="879">NS</text>
</g>
<g id="edge36" class="edge"><title>17&#45;&gt;18</title>
<path style="fill:none;stroke:black;" d="M673,876C701,871 732,865 760,861"/>
<polygon style="fill:black;stroke:black;" points="760,858 770,859 761,864 760,858"/>
</g>
<g id="node42" class="node"><title>21</title>
<polygon style="fill:#e58139;stroke:black;" points="989,904 737,904 737,992 989,992 989,904"/>
<text text-anchor="middle" x="863" y="921">BLS_FEDERAL_OtherSep_Level &lt;= 0.5</text>
<text text-anchor="middle" x="863" y="937">0.5</text>
<text text-anchor="middle" x="863" y="953">88</text>
<text text-anchor="middle" x="863" y="969">[70, 70]</text>
<text text-anchor="middle" x="863" y="985">NS</text>
</g>
<g id="edge42" class="edge"><title>17&#45;&gt;21</title>
<path style="fill:none;stroke:black;" d="M673,914C691,917 709,921 727,924"/>
<polygon style="fill:black;stroke:black;" points="727,921 737,925 727,927 727,921"/>
</g>
<g id="node38" class="node"><title>19</title>
<polygon style="fill:#e58139;stroke:black;" points="1105,724 1033,724 1033,796 1105,796 1105,724"/>
<text text-anchor="middle" x="1069" y="741">0.4644</text>
<text text-anchor="middle" x="1069" y="757">527</text>
<text text-anchor="middle" x="1069" y="773">[513, 297]</text>
<text text-anchor="middle" x="1069" y="789">NS</text>
</g>
<g id="edge38" class="edge"><title>18&#45;&gt;19</title>
<path style="fill:none;stroke:black;" d="M956,805C979,796 1003,786 1023,778"/>
<polygon style="fill:black;stroke:black;" points="1021,775 1032,774 1024,781 1021,775"/>
</g>
<g id="node40" class="node"><title>20</title>
<polygon style="fill:#e58139;stroke:black;" points="1102,814 1036,814 1036,886 1102,886 1102,814"/>
<text text-anchor="middle" x="1069" y="831">0.2298</text>
<text text-anchor="middle" x="1069" y="847">238</text>
<text text-anchor="middle" x="1069" y="863">[334, 51]</text>
<text text-anchor="middle" x="1069" y="879">NS</text>
</g>
<g id="edge40" class="edge"><title>18&#45;&gt;20</title>
<path style="fill:none;stroke:black;" d="M956,846C980,847 1004,848 1025,849"/>
<polygon style="fill:black;stroke:black;" points="1025,845 1035,849 1025,852 1025,845"/>
</g>
<g id="node44" class="node"><title>22</title>
<polygon style="fill:#e58139;stroke:black;" points="1099,904 1039,904 1039,976 1099,976 1099,904"/>
<text text-anchor="middle" x="1069" y="921">0.4998</text>
<text text-anchor="middle" x="1069" y="937">66</text>
<text text-anchor="middle" x="1069" y="953">[56, 54]</text>
<text text-anchor="middle" x="1069" y="969">NS</text>
</g>
<g id="edge44" class="edge"><title>21&#45;&gt;22</title>
<path style="fill:none;stroke:black;" d="M989,943C1003,942 1016,941 1028,941"/>
<polygon style="fill:black;stroke:black;" points="1028,937 1038,941 1028,944 1028,937"/>
</g>
<g id="node46" class="node"><title>23</title>
<polygon style="fill:#399de5;stroke:black;" points="1098,994 1040,994 1040,1066 1098,1066 1098,994"/>
<text text-anchor="middle" x="1069" y="1011">0.4978</text>
<text text-anchor="middle" x="1069" y="1027">22</text>
<text text-anchor="middle" x="1069" y="1043">[14, 16]</text>
<text text-anchor="middle" x="1069" y="1059">SD</text>
</g>
<g id="edge46" class="edge"><title>21&#45;&gt;23</title>
<path style="fill:none;stroke:black;" d="M974,992C994,999 1014,1008 1030,1014"/>
<polygon style="fill:black;stroke:black;" points="1031,1011 1039,1018 1028,1017 1031,1011"/>
</g>
<g id="node50" class="node"><title>25</title>
<polygon style="fill:#e58139;stroke:black;" points="981,1076 745,1076 745,1164 981,1164 981,1076"/>
<text text-anchor="middle" x="863" y="1093">BLS_FEDERAL_Layoffs_Rate &lt;= 0.5</text>
<text text-anchor="middle" x="863" y="1109">0.0575</text>
<text text-anchor="middle" x="863" y="1125">1040</text>
<text text-anchor="middle" x="863" y="1141">[1606, 49]</text>
<text text-anchor="middle" x="863" y="1157">NS</text>
</g>
<g id="edge50" class="edge"><title>24&#45;&gt;25</title>
<path style="fill:none;stroke:black;" d="M701,1120C713,1120 724,1120 735,1120"/>
<polygon style="fill:black;stroke:black;" points="735,1116 745,1120 735,1123 735,1116"/>
</g>
<g id="node56" class="node"><title>28</title>
<polygon style="fill:#e58139;stroke:black;" points="897,1182 829,1182 829,1254 897,1254 897,1182"/>
<text text-anchor="middle" x="863" y="1199">0.1781</text>
<text text-anchor="middle" x="863" y="1215">625</text>
<text text-anchor="middle" x="863" y="1231">[894, 98]</text>
<text text-anchor="middle" x="863" y="1247">NS</text>
</g>
<g id="edge56" class="edge"><title>24&#45;&gt;28</title>
<path style="fill:none;stroke:black;" d="M699,1164C742,1178 787,1193 819,1204"/>
<polygon style="fill:black;stroke:black;" points="820,1201 829,1207 818,1207 820,1201"/>
</g>
<g id="node52" class="node"><title>26</title>
<polygon style="fill:#e58139;stroke:black;" points="1106,1084 1032,1084 1032,1156 1106,1156 1106,1084"/>
<text text-anchor="middle" x="1069" y="1101">0.0537</text>
<text text-anchor="middle" x="1069" y="1117">1021</text>
<text text-anchor="middle" x="1069" y="1133">[1585, 45]</text>
<text text-anchor="middle" x="1069" y="1149">NS</text>
</g>
<g id="edge52" class="edge"><title>25&#45;&gt;26</title>
<path style="fill:none;stroke:black;" d="M981,1120C995,1120 1009,1120 1022,1120"/>
<polygon style="fill:black;stroke:black;" points="1022,1116 1032,1120 1022,1123 1022,1116"/>
</g>
<g id="node54" class="node"><title>27</title>
<polygon style="fill:#e58139;stroke:black;" points="1096,1174 1042,1174 1042,1246 1096,1246 1096,1174"/>
<text text-anchor="middle" x="1069" y="1191">0.2688</text>
<text text-anchor="middle" x="1069" y="1207">19</text>
<text text-anchor="middle" x="1069" y="1223">[21, 4]</text>
<text text-anchor="middle" x="1069" y="1239">NS</text>
</g>
<g id="edge54" class="edge"><title>25&#45;&gt;27</title>
<path style="fill:none;stroke:black;" d="M968,1164C975,1167 982,1170 989,1173 1003,1179 1019,1187 1032,1193"/>
<polygon style="fill:black;stroke:black;" points="1033,1190 1041,1197 1030,1196 1033,1190"/>
</g>
</g>
</svg>
