<?xml version="1.0" encoding="UTF-8" standalone="no"?>
<!DOCTYPE svg PUBLIC "-//W3C//DTD SVG 1.0//EN"
 "http://www.w3.org/TR/2001/REC-SVG-20010904/DTD/svg10.dtd">
<!-- Generated by dot version 2.2 (Tue Jan 25 21:58:56 UTC 2005)
     For user: (amfrye) Alex Frye   Title: Tree    Pages: 1 -->
<svg width="1100pt" height="1082pt"
 viewBox = "-1 -1 1099 1081"
 xmlns="http://www.w3.org/2000/svg">
<g id="graph0" class="graph" style="font-family:Times-Roman;font-size:14.00;">
<title>Tree</title>
<g id="node1" class="node"><title>0</title>
<polygon style="fill:#e58139;stroke:black;" points="277,527 5,527 5,615 277,615 277,527"/>
<text text-anchor="middle" x="141" y="544">BLS_FEDERAL_JobOpenings_Level &lt;= 0.5</text>
<text text-anchor="middle" x="141" y="560">0.4999</text>
<text text-anchor="middle" x="141" y="576">7557</text>
<text text-anchor="middle" x="141" y="592">[6062, 5875]</text>
<text text-anchor="middle" x="141" y="608">NS</text>
</g>
<g id="node2" class="node"><title>1</title>
<polygon style="fill:#399de5;stroke:black;" points="467,383 313,383 313,471 467,471 467,383"/>
<text text-anchor="middle" x="390" y="400">IndAvgSalary &lt;= 0.7778</text>
<text text-anchor="middle" x="390" y="416">0.4991</text>
<text text-anchor="middle" x="390" y="432">6600</text>
<text text-anchor="middle" x="390" y="448">[4999, 5451]</text>
<text text-anchor="middle" x="390" y="464">SD</text>
</g>
<g id="edge2" class="edge"><title>0&#45;&gt;1</title>
<path style="fill:none;stroke:black;" d="M217,527C245,511 276,493 304,476"/>
<polygon style="fill:black;stroke:black;" points="303,473 313,471 306,479 303,473"/>
<text text-anchor="middle" x="289" y="469">True</text>
</g>
<g id="node28" class="node"><title>14</title>
<polygon style="fill:#e58139;stroke:black;" points="454,671 326,671 326,759 454,759 454,671"/>
<text text-anchor="middle" x="390" y="688">AGELVL_D &lt;= 0.5</text>
<text text-anchor="middle" x="390" y="704">0.4077</text>
<text text-anchor="middle" x="390" y="720">957</text>
<text text-anchor="middle" x="390" y="736">[1063, 424]</text>
<text text-anchor="middle" x="390" y="752">NS</text>
</g>
<g id="edge28" class="edge"><title>0&#45;&gt;14</title>
<path style="fill:none;stroke:black;" d="M217,615C249,633 285,655 316,673"/>
<polygon style="fill:black;stroke:black;" points="318,670 325,678 315,676 318,670"/>
<text text-anchor="middle" x="301" y="690">False</text>
</g>
<g id="node4" class="node"><title>2</title>
<polygon style="fill:#399de5;stroke:black;" points="678,207 544,207 544,295 678,295 678,207"/>
<text text-anchor="middle" x="611" y="224">GSEGRD &lt;= 0.5625</text>
<text text-anchor="middle" x="611" y="240">0.4664</text>
<text text-anchor="middle" x="611" y="256">5215</text>
<text text-anchor="middle" x="611" y="272">[3049, 5184]</text>
<text text-anchor="middle" x="611" y="288">SD</text>
</g>
<g id="edge4" class="edge"><title>1&#45;&gt;2</title>
<path style="fill:none;stroke:black;" d="M445,383C476,358 515,327 548,301"/>
<polygon style="fill:black;stroke:black;" points="546,298 556,295 550,304 546,298"/>
</g>
<g id="node18" class="node"><title>9</title>
<polygon style="fill:#e58139;stroke:black;" points="700,383 522,383 522,471 700,471 700,383"/>
<text text-anchor="middle" x="611" y="400">YearsToRetirement &lt;= 0.255</text>
<text text-anchor="middle" x="611" y="416">0.2119</text>
<text text-anchor="middle" x="611" y="432">1385</text>
<text text-anchor="middle" x="611" y="448">[1950, 267]</text>
<text text-anchor="middle" x="611" y="464">NS</text>
</g>
<g id="edge18" class="edge"><title>1&#45;&gt;9</title>
<path style="fill:none;stroke:black;" d="M467,427C482,427 497,427 512,427"/>
<polygon style="fill:black;stroke:black;" points="512,423 522,427 512,430 512,423"/>
</g>
<g id="node6" class="node"><title>3</title>
<polygon style="fill:#399de5;stroke:black;" points="924,86 800,86 800,174 924,174 924,86"/>
<text text-anchor="middle" x="862" y="103">AGELVL_J &lt;= 0.5</text>
<text text-anchor="middle" x="862" y="119">0.3887</text>
<text text-anchor="middle" x="862" y="135">2104</text>
<text text-anchor="middle" x="862" y="151">[872, 2430]</text>
<text text-anchor="middle" x="862" y="167">SD</text>
</g>
<g id="edge6" class="edge"><title>2&#45;&gt;3</title>
<path style="fill:none;stroke:black;" d="M678,219C713,202 755,182 791,165"/>
<polygon style="fill:black;stroke:black;" points="790,162 800,160 793,168 790,162"/>
</g>
<g id="node12" class="node"><title>6</title>
<polygon style="fill:#399de5;stroke:black;" points="929,207 795,207 795,295 929,295 929,207"/>
<text text-anchor="middle" x="862" y="224">IndAvgSalary &lt;= 0.5</text>
<text text-anchor="middle" x="862" y="240">0.4932</text>
<text text-anchor="middle" x="862" y="256">3111</text>
<text text-anchor="middle" x="862" y="272">[2177, 2754]</text>
<text text-anchor="middle" x="862" y="288">SD</text>
</g>
<g id="edge12" class="edge"><title>2&#45;&gt;6</title>
<path style="fill:none;stroke:black;" d="M678,251C711,251 751,251 785,251"/>
<polygon style="fill:black;stroke:black;" points="785,247 795,251 785,254 785,247"/>
</g>
<g id="node8" class="node"><title>4</title>
<polygon style="fill:#399de5;stroke:black;" points="1089,4 1009,4 1009,76 1089,76 1089,4"/>
<text text-anchor="middle" x="1049" y="21">0.3909</text>
<text text-anchor="middle" x="1049" y="37">2085</text>
<text text-anchor="middle" x="1049" y="53">[871, 2398]</text>
<text text-anchor="middle" x="1049" y="69">SD</text>
</g>
<g id="edge8" class="edge"><title>3&#45;&gt;4</title>
<path style="fill:none;stroke:black;" d="M924,100C949,89 977,75 1000,63"/>
<polygon style="fill:black;stroke:black;" points="998,60 1009,59 1001,66 998,60"/>
</g>
<g id="node10" class="node"><title>5</title>
<polygon style="fill:#399de5;stroke:black;" points="1076,94 1022,94 1022,166 1076,166 1076,94"/>
<text text-anchor="middle" x="1049" y="111">0.0588</text>
<text text-anchor="middle" x="1049" y="127">19</text>
<text text-anchor="middle" x="1049" y="143">[1, 32]</text>
<text text-anchor="middle" x="1049" y="159">SD</text>
</g>
<g id="edge10" class="edge"><title>3&#45;&gt;5</title>
<path style="fill:none;stroke:black;" d="M924,130C953,130 986,130 1011,130"/>
<polygon style="fill:black;stroke:black;" points="1011,126 1021,130 1011,133 1011,126"/>
</g>
<g id="node14" class="node"><title>7</title>
<polygon style="fill:#399de5;stroke:black;" points="1092,184 1006,184 1006,256 1092,256 1092,184"/>
<text text-anchor="middle" x="1049" y="201">0.4704</text>
<text text-anchor="middle" x="1049" y="217">2125</text>
<text text-anchor="middle" x="1049" y="233">[1275, 2095]</text>
<text text-anchor="middle" x="1049" y="249">SD</text>
</g>
<g id="edge14" class="edge"><title>6&#45;&gt;7</title>
<path style="fill:none;stroke:black;" d="M929,240C951,237 975,232 995,229"/>
<polygon style="fill:black;stroke:black;" points="995,226 1005,227 996,232 995,226"/>
</g>
<g id="node16" class="node"><title>8</title>
<polygon style="fill:#e58139;stroke:black;" points="1086,274 1012,274 1012,346 1086,346 1086,274"/>
<text text-anchor="middle" x="1049" y="291">0.4879</text>
<text text-anchor="middle" x="1049" y="307">986</text>
<text text-anchor="middle" x="1049" y="323">[902, 659]</text>
<text text-anchor="middle" x="1049" y="339">NS</text>
</g>
<g id="edge16" class="edge"><title>6&#45;&gt;8</title>
<path style="fill:none;stroke:black;" d="M929,272C953,280 980,288 1001,295"/>
<polygon style="fill:black;stroke:black;" points="1002,292 1011,298 1000,298 1002,292"/>
</g>
<g id="node20" class="node"><title>10</title>
<polygon style="fill:#399de5;stroke:black;" points="895,342 829,342 829,414 895,414 895,342"/>
<text text-anchor="middle" x="862" y="359">0.2741</text>
<text text-anchor="middle" x="862" y="375">118</text>
<text text-anchor="middle" x="862" y="391">[30, 153]</text>
<text text-anchor="middle" x="862" y="407">SD</text>
</g>
<g id="edge20" class="edge"><title>9&#45;&gt;10</title>
<path style="fill:none;stroke:black;" d="M700,410C740,402 786,393 818,387"/>
<polygon style="fill:black;stroke:black;" points="818,384 828,385 819,390 818,384"/>
</g>
<g id="node22" class="node"><title>11</title>
<polygon style="fill:#e58139;stroke:black;" points="914,432 810,432 810,520 914,520 914,432"/>
<text text-anchor="middle" x="862" y="449">LOC_01 &lt;= 0.5</text>
<text text-anchor="middle" x="862" y="465">0.1058</text>
<text text-anchor="middle" x="862" y="481">1267</text>
<text text-anchor="middle" x="862" y="497">[1920, 114]</text>
<text text-anchor="middle" x="862" y="513">NS</text>
</g>
<g id="edge22" class="edge"><title>9&#45;&gt;11</title>
<path style="fill:none;stroke:black;" d="M700,444C733,450 769,457 799,464"/>
<polygon style="fill:black;stroke:black;" points="800,461 809,466 799,467 800,461"/>
</g>
<g id="node24" class="node"><title>12</title>
<polygon style="fill:#e58139;stroke:black;" points="1079,364 1019,364 1019,436 1079,436 1079,364"/>
<text text-anchor="middle" x="1049" y="381">0.1995</text>
<text text-anchor="middle" x="1049" y="397">50</text>
<text text-anchor="middle" x="1049" y="413">[79, 10]</text>
<text text-anchor="middle" x="1049" y="429">NS</text>
</g>
<g id="edge24" class="edge"><title>11&#45;&gt;12</title>
<path style="fill:none;stroke:black;" d="M915,455C945,442 982,428 1010,416"/>
<polygon style="fill:black;stroke:black;" points="1008,413 1019,412 1011,419 1008,413"/>
</g>
<g id="node26" class="node"><title>13</title>
<polygon style="fill:#e58139;stroke:black;" points="1088,454 1010,454 1010,526 1088,526 1088,454"/>
<text text-anchor="middle" x="1049" y="471">0.1012</text>
<text text-anchor="middle" x="1049" y="487">1217</text>
<text text-anchor="middle" x="1049" y="503">[1841, 104]</text>
<text text-anchor="middle" x="1049" y="519">NS</text>
</g>
<g id="edge26" class="edge"><title>11&#45;&gt;13</title>
<path style="fill:none;stroke:black;" d="M915,480C941,482 973,484 999,486"/>
<polygon style="fill:black;stroke:black;" points="999,483 1009,487 999,489 999,483"/>
</g>
<g id="node30" class="node"><title>15</title>
<polygon style="fill:#e58139;stroke:black;" points="672,671 550,671 550,759 672,759 672,671"/>
<text text-anchor="middle" x="611" y="688">AGELVL_I &lt;= 0.5</text>
<text text-anchor="middle" x="611" y="704">0.414</text>
<text text-anchor="middle" x="611" y="720">875</text>
<text text-anchor="middle" x="611" y="736">[972, 402]</text>
<text text-anchor="middle" x="611" y="752">NS</text>
</g>
<g id="edge30" class="edge"><title>14&#45;&gt;15</title>
<path style="fill:none;stroke:black;" d="M455,715C482,715 512,715 539,715"/>
<polygon style="fill:black;stroke:black;" points="539,711 549,715 539,718 539,711"/>
</g>
<g id="node44" class="node"><title>22</title>
<polygon style="fill:#e58139;stroke:black;" points="719,896 503,896 503,984 719,984 719,896"/>
<text text-anchor="middle" x="611" y="913">SalaryOverUnderIndAvg &lt;= 0.8333</text>
<text text-anchor="middle" x="611" y="929">0.3136</text>
<text text-anchor="middle" x="611" y="945">82</text>
<text text-anchor="middle" x="611" y="961">[91, 22]</text>
<text text-anchor="middle" x="611" y="977">NS</text>
</g>
<g id="edge44" class="edge"><title>14&#45;&gt;22</title>
<path style="fill:none;stroke:black;" d="M433,759C470,796 522,850 560,888"/>
<polygon style="fill:black;stroke:black;" points="563,886 568,896 558,891 563,886"/>
</g>
<g id="node32" class="node"><title>16</title>
<polygon style="fill:#e58139;stroke:black;" points="928,618 796,618 796,706 928,706 928,618"/>
<text text-anchor="middle" x="862" y="635">GSEGRD &lt;= 0.4375</text>
<text text-anchor="middle" x="862" y="651">0.3794</text>
<text text-anchor="middle" x="862" y="667">786</text>
<text text-anchor="middle" x="862" y="683">[917, 313]</text>
<text text-anchor="middle" x="862" y="699">NS</text>
</g>
<g id="edge32" class="edge"><title>15&#45;&gt;16</title>
<path style="fill:none;stroke:black;" d="M673,702C707,695 749,686 785,678"/>
<polygon style="fill:black;stroke:black;" points="785,675 795,676 786,681 785,675"/>
</g>
<g id="node38" class="node"><title>19</title>
<polygon style="fill:#399de5;stroke:black;" points="969,724 755,724 755,812 969,812 969,724"/>
<text text-anchor="middle" x="862" y="741">SalaryOverUnderIndAvg &lt;= 0.1667</text>
<text text-anchor="middle" x="862" y="757">0.4721</text>
<text text-anchor="middle" x="862" y="773">89</text>
<text text-anchor="middle" x="862" y="789">[55, 89]</text>
<text text-anchor="middle" x="862" y="805">SD</text>
</g>
<g id="edge38" class="edge"><title>15&#45;&gt;19</title>
<path style="fill:none;stroke:black;" d="M673,728C695,732 720,738 745,743"/>
<polygon style="fill:black;stroke:black;" points="746,740 755,745 745,746 746,740"/>
</g>
<g id="node34" class="node"><title>17</title>
<polygon style="fill:#399de5;stroke:black;" points="1079,544 1019,544 1019,616 1079,616 1079,544"/>
<text text-anchor="middle" x="1049" y="561">0.4817</text>
<text text-anchor="middle" x="1049" y="577">64</text>
<text text-anchor="middle" x="1049" y="593">[38, 56]</text>
<text text-anchor="middle" x="1049" y="609">SD</text>
</g>
<g id="edge34" class="edge"><title>16&#45;&gt;17</title>
<path style="fill:none;stroke:black;" d="M929,633C955,621 986,608 1009,597"/>
<polygon style="fill:black;stroke:black;" points="1007,594 1018,593 1010,600 1007,594"/>
</g>
<g id="node36" class="node"><title>18</title>
<polygon style="fill:#e58139;stroke:black;" points="1086,634 1012,634 1012,706 1086,706 1086,634"/>
<text text-anchor="middle" x="1049" y="651">0.3501</text>
<text text-anchor="middle" x="1049" y="667">722</text>
<text text-anchor="middle" x="1049" y="683">[879, 257]</text>
<text text-anchor="middle" x="1049" y="699">NS</text>
</g>
<g id="edge36" class="edge"><title>16&#45;&gt;18</title>
<path style="fill:none;stroke:black;" d="M929,665C953,666 980,667 1002,668"/>
<polygon style="fill:black;stroke:black;" points="1002,664 1012,668 1002,671 1002,664"/>
</g>
<g id="node40" class="node"><title>20</title>
<polygon style="fill:#399de5;stroke:black;" points="1079,724 1019,724 1019,796 1079,796 1079,724"/>
<text text-anchor="middle" x="1049" y="741">0.4501</text>
<text text-anchor="middle" x="1049" y="757">25</text>
<text text-anchor="middle" x="1049" y="773">[13, 25]</text>
<text text-anchor="middle" x="1049" y="789">SD</text>
</g>
<g id="edge40" class="edge"><title>19&#45;&gt;20</title>
<path style="fill:none;stroke:black;" d="M969,763C983,763 997,762 1009,762"/>
<polygon style="fill:black;stroke:black;" points="1009,759 1019,761 1009,765 1009,759"/>
</g>
<g id="node42" class="node"><title>21</title>
<polygon style="fill:#399de5;stroke:black;" points="1079,814 1019,814 1019,886 1079,886 1079,814"/>
<text text-anchor="middle" x="1049" y="831">0.4785</text>
<text text-anchor="middle" x="1049" y="847">64</text>
<text text-anchor="middle" x="1049" y="863">[42, 64]</text>
<text text-anchor="middle" x="1049" y="879">SD</text>
</g>
<g id="edge42" class="edge"><title>19&#45;&gt;21</title>
<path style="fill:none;stroke:black;" d="M962,812C979,819 995,826 1009,832"/>
<polygon style="fill:black;stroke:black;" points="1010,829 1018,836 1007,835 1010,829"/>
</g>
<g id="node46" class="node"><title>23</title>
<polygon style="fill:#e58139;stroke:black;" points="959,896 765,896 765,984 959,984 959,896"/>
<text text-anchor="middle" x="862" y="913">SalaryOverUnderIndAvg &lt;= 0.5</text>
<text text-anchor="middle" x="862" y="929">0.3376</text>
<text text-anchor="middle" x="862" y="945">66</text>
<text text-anchor="middle" x="862" y="961">[73, 20]</text>
<text text-anchor="middle" x="862" y="977">NS</text>
</g>
<g id="edge46" class="edge"><title>22&#45;&gt;23</title>
<path style="fill:none;stroke:black;" d="M719,940C731,940 742,940 754,940"/>
<polygon style="fill:black;stroke:black;" points="754,936 764,940 754,943 754,936"/>
</g>
<g id="node52" class="node"><title>26</title>
<polygon style="fill:#e58139;stroke:black;" points="889,1002 835,1002 835,1074 889,1074 889,1002"/>
<text text-anchor="middle" x="862" y="1019">0.18</text>
<text text-anchor="middle" x="862" y="1035">16</text>
<text text-anchor="middle" x="862" y="1051">[18, 2]</text>
<text text-anchor="middle" x="862" y="1067">NS</text>
</g>
<g id="edge52" class="edge"><title>22&#45;&gt;26</title>
<path style="fill:none;stroke:black;" d="M719,982C757,997 798,1013 826,1024"/>
<polygon style="fill:black;stroke:black;" points="827,1021 835,1028 824,1027 827,1021"/>
</g>
<g id="node48" class="node"><title>24</title>
<polygon style="fill:#e58139;stroke:black;" points="1079,904 1019,904 1019,976 1079,976 1079,904"/>
<text text-anchor="middle" x="1049" y="921">0.3282</text>
<text text-anchor="middle" x="1049" y="937">44</text>
<text text-anchor="middle" x="1049" y="953">[46, 12]</text>
<text text-anchor="middle" x="1049" y="969">NS</text>
</g>
<g id="edge48" class="edge"><title>23&#45;&gt;24</title>
<path style="fill:none;stroke:black;" d="M960,940C977,940 994,940 1009,940"/>
<polygon style="fill:black;stroke:black;" points="1009,936 1019,940 1009,943 1009,936"/>
</g>
<g id="node50" class="node"><title>25</title>
<polygon style="fill:#e58139;stroke:black;" points="1076,994 1022,994 1022,1066 1076,1066 1076,994"/>
<text text-anchor="middle" x="1049" y="1011">0.3527</text>
<text text-anchor="middle" x="1049" y="1027">22</text>
<text text-anchor="middle" x="1049" y="1043">[27, 8]</text>
<text text-anchor="middle" x="1049" y="1059">NS</text>
</g>
<g id="edge50" class="edge"><title>23&#45;&gt;25</title>
<path style="fill:none;stroke:black;" d="M954,984C974,994 995,1004 1012,1012"/>
<polygon style="fill:black;stroke:black;" points="1014,1009 1021,1017 1011,1015 1014,1009"/>
</g>
</g>
</svg>
