<?xml version="1.0" encoding="UTF-8" standalone="no"?>
<!DOCTYPE svg PUBLIC "-//W3C//DTD SVG 1.0//EN"
 "http://www.w3.org/TR/2001/REC-SVG-20010904/DTD/svg10.dtd">
<!-- Generated by dot version 2.2 (Tue Jan 25 21:58:56 UTC 2005)
     For user: (amfrye) Alex Frye   Title: Tree    Pages: 1 -->
<svg width="996pt" height="992pt"
 viewBox = "-1 -1 995 991"
 xmlns="http://www.w3.org/2000/svg">
<g id="graph0" class="graph" style="font-family:Times-Roman;font-size:14.00;">
<title>Tree</title>
<g id="node1" class="node"><title>0</title>
<polygon style="fill:#399de5;stroke:black;" points="128,557 6,557 6,645 128,645 128,557"/>
<text text-anchor="middle" x="67" y="574">AGELVL_I &lt;= 0.5</text>
<text text-anchor="middle" x="67" y="590">0.5</text>
<text text-anchor="middle" x="67" y="606">7580</text>
<text text-anchor="middle" x="67" y="622">[5951, 5986]</text>
<text text-anchor="middle" x="67" y="638">SD</text>
</g>
<g id="node2" class="node"><title>1</title>
<polygon style="fill:#e58139;stroke:black;" points="349,427 165,427 165,515 349,515 349,427"/>
<text text-anchor="middle" x="257" y="444">YearsToRetirement &lt;= 0.4139</text>
<text text-anchor="middle" x="257" y="460">0.4993</text>
<text text-anchor="middle" x="257" y="476">6688</text>
<text text-anchor="middle" x="257" y="492">[5462, 5061]</text>
<text text-anchor="middle" x="257" y="508">NS</text>
</g>
<g id="edge2" class="edge"><title>0&#45;&gt;1</title>
<path style="fill:none;stroke:black;" d="M129,559C146,547 166,533 185,521"/>
<polygon style="fill:black;stroke:black;" points="183,518 193,515 187,524 183,518"/>
<text text-anchor="middle" x="168" y="516">True</text>
</g>
<g id="node28" class="node"><title>14</title>
<polygon style="fill:#399de5;stroke:black;" points="323,659 191,659 191,747 323,747 323,659"/>
<text text-anchor="middle" x="257" y="676">GSEGRD &lt;= 0.8125</text>
<text text-anchor="middle" x="257" y="692">0.4525</text>
<text text-anchor="middle" x="257" y="708">892</text>
<text text-anchor="middle" x="257" y="724">[489, 925]</text>
<text text-anchor="middle" x="257" y="740">SD</text>
</g>
<g id="edge28" class="edge"><title>0&#45;&gt;14</title>
<path style="fill:none;stroke:black;" d="M129,634C146,643 164,653 181,662"/>
<polygon style="fill:black;stroke:black;" points="183,659 190,667 180,665 183,659"/>
<text text-anchor="middle" x="166" y="679">False</text>
</g>
<g id="node4" class="node"><title>2</title>
<polygon style="fill:#399de5;stroke:black;" points="598,243 420,243 420,331 598,331 598,243"/>
<text text-anchor="middle" x="509" y="260">YearsToRetirement &lt;= 0.235</text>
<text text-anchor="middle" x="509" y="276">0.4423</text>
<text text-anchor="middle" x="509" y="292">4309</text>
<text text-anchor="middle" x="509" y="308">[2253, 4570]</text>
<text text-anchor="middle" x="509" y="324">SD</text>
</g>
<g id="edge4" class="edge"><title>1&#45;&gt;2</title>
<path style="fill:none;stroke:black;" d="M317,427C354,400 402,365 440,337"/>
<polygon style="fill:black;stroke:black;" points="438,334 448,331 442,340 438,334"/>
</g>
<g id="node18" class="node"><title>9</title>
<polygon style="fill:#e58139;stroke:black;" points="633,427 385,427 385,515 633,515 633,427"/>
<text text-anchor="middle" x="509" y="444">BLS_FEDERAL_TotalSep_Level &lt;= 0.5</text>
<text text-anchor="middle" x="509" y="460">0.2302</text>
<text text-anchor="middle" x="509" y="476">2379</text>
<text text-anchor="middle" x="509" y="492">[3209, 491]</text>
<text text-anchor="middle" x="509" y="508">NS</text>
</g>
<g id="edge18" class="edge"><title>1&#45;&gt;9</title>
<path style="fill:none;stroke:black;" d="M349,471C358,471 366,471 375,471"/>
<polygon style="fill:black;stroke:black;" points="375,467 385,471 375,474 375,467"/>
</g>
<g id="node6" class="node"><title>3</title>
<polygon style="fill:#399de5;stroke:black;" points="831,86 703,86 703,174 831,174 831,86"/>
<text text-anchor="middle" x="767" y="103">AGELVL_G &lt;= 0.5</text>
<text text-anchor="middle" x="767" y="119">0.3143</text>
<text text-anchor="middle" x="767" y="135">1744</text>
<text text-anchor="middle" x="767" y="151">[545, 2246]</text>
<text text-anchor="middle" x="767" y="167">SD</text>
</g>
<g id="edge6" class="edge"><title>2&#45;&gt;3</title>
<path style="fill:none;stroke:black;" d="M582,243C617,222 659,196 693,174"/>
<polygon style="fill:black;stroke:black;" points="692,171 702,169 695,177 692,171"/>
</g>
<g id="node12" class="node"><title>6</title>
<polygon style="fill:#399de5;stroke:black;" points="859,243 675,243 675,331 859,331 859,243"/>
<text text-anchor="middle" x="767" y="260">YearsToRetirement &lt;= 0.3635</text>
<text text-anchor="middle" x="767" y="276">0.4883</text>
<text text-anchor="middle" x="767" y="292">2565</text>
<text text-anchor="middle" x="767" y="308">[1708, 2324]</text>
<text text-anchor="middle" x="767" y="324">SD</text>
</g>
<g id="edge12" class="edge"><title>2&#45;&gt;6</title>
<path style="fill:none;stroke:black;" d="M598,287C619,287 642,287 664,287"/>
<polygon style="fill:black;stroke:black;" points="664,283 674,287 664,290 664,283"/>
</g>
<g id="node8" class="node"><title>4</title>
<polygon style="fill:#399de5;stroke:black;" points="986,4 904,4 904,76 986,76 986,4"/>
<text text-anchor="middle" x="945" y="21">0.307</text>
<text text-anchor="middle" x="945" y="37">1618</text>
<text text-anchor="middle" x="945" y="53">[489, 2093]</text>
<text text-anchor="middle" x="945" y="69">SD</text>
</g>
<g id="edge8" class="edge"><title>3&#45;&gt;4</title>
<path style="fill:none;stroke:black;" d="M832,97C853,87 875,75 895,65"/>
<polygon style="fill:black;stroke:black;" points="893,62 904,61 896,68 893,62"/>
</g>
<g id="node10" class="node"><title>5</title>
<polygon style="fill:#399de5;stroke:black;" points="978,94 912,94 912,166 978,166 978,94"/>
<text text-anchor="middle" x="945" y="111">0.3923</text>
<text text-anchor="middle" x="945" y="127">126</text>
<text text-anchor="middle" x="945" y="143">[56, 153]</text>
<text text-anchor="middle" x="945" y="159">SD</text>
</g>
<g id="edge10" class="edge"><title>3&#45;&gt;5</title>
<path style="fill:none;stroke:black;" d="M832,130C855,130 880,130 901,130"/>
<polygon style="fill:black;stroke:black;" points="901,126 911,130 901,133 901,126"/>
</g>
<g id="node14" class="node"><title>7</title>
<polygon style="fill:#399de5;stroke:black;" points="988,184 902,184 902,256 988,256 988,184"/>
<text text-anchor="middle" x="945" y="201">0.476</text>
<text text-anchor="middle" x="945" y="217">2063</text>
<text text-anchor="middle" x="945" y="233">[1259, 1966]</text>
<text text-anchor="middle" x="945" y="249">SD</text>
</g>
<g id="edge14" class="edge"><title>6&#45;&gt;7</title>
<path style="fill:none;stroke:black;" d="M860,252C870,248 882,244 891,240"/>
<polygon style="fill:black;stroke:black;" points="890,236 901,236 893,243 890,236"/>
</g>
<g id="node16" class="node"><title>8</title>
<polygon style="fill:#e58139;stroke:black;" points="982,274 908,274 908,346 982,346 982,274"/>
<text text-anchor="middle" x="945" y="291">0.4936</text>
<text text-anchor="middle" x="945" y="307">502</text>
<text text-anchor="middle" x="945" y="323">[449, 358]</text>
<text text-anchor="middle" x="945" y="339">NS</text>
</g>
<g id="edge16" class="edge"><title>6&#45;&gt;8</title>
<path style="fill:none;stroke:black;" d="M860,299C873,301 885,303 897,304"/>
<polygon style="fill:black;stroke:black;" points="897,301 907,305 897,307 897,301"/>
</g>
<g id="node20" class="node"><title>10</title>
<polygon style="fill:#e58139;stroke:black;" points="844,378 690,378 690,466 844,466 844,378"/>
<text text-anchor="middle" x="767" y="395">IndAvgSalary &lt;= 0.7222</text>
<text text-anchor="middle" x="767" y="411">0.2153</text>
<text text-anchor="middle" x="767" y="427">2285</text>
<text text-anchor="middle" x="767" y="443">[3124, 437]</text>
<text text-anchor="middle" x="767" y="459">NS</text>
</g>
<g id="edge20" class="edge"><title>9&#45;&gt;10</title>
<path style="fill:none;stroke:black;" d="M633,447C649,444 665,441 680,439"/>
<polygon style="fill:black;stroke:black;" points="680,436 690,437 681,442 680,436"/>
</g>
<g id="node26" class="node"><title>13</title>
<polygon style="fill:#e58139;stroke:black;" points="797,484 737,484 737,556 797,556 797,484"/>
<text text-anchor="middle" x="767" y="501">0.4751</text>
<text text-anchor="middle" x="767" y="517">94</text>
<text text-anchor="middle" x="767" y="533">[85, 54]</text>
<text text-anchor="middle" x="767" y="549">NS</text>
</g>
<g id="edge26" class="edge"><title>9&#45;&gt;13</title>
<path style="fill:none;stroke:black;" d="M633,495C666,501 701,507 726,512"/>
<polygon style="fill:black;stroke:black;" points="727,509 736,514 726,515 727,509"/>
</g>
<g id="node22" class="node"><title>11</title>
<polygon style="fill:#e58139;stroke:black;" points="981,364 909,364 909,436 981,436 981,364"/>
<text text-anchor="middle" x="945" y="381">0.4144</text>
<text text-anchor="middle" x="945" y="397">699</text>
<text text-anchor="middle" x="945" y="413">[774, 321]</text>
<text text-anchor="middle" x="945" y="429">NS</text>
</g>
<g id="edge22" class="edge"><title>10&#45;&gt;11</title>
<path style="fill:none;stroke:black;" d="M844,412C862,410 881,408 898,406"/>
<polygon style="fill:black;stroke:black;" points="898,403 908,405 898,409 898,403"/>
</g>
<g id="node24" class="node"><title>12</title>
<polygon style="fill:#e58139;stroke:black;" points="985,454 905,454 905,526 985,526 985,454"/>
<text text-anchor="middle" x="945" y="471">0.0897</text>
<text text-anchor="middle" x="945" y="487">1586</text>
<text text-anchor="middle" x="945" y="503">[2350, 116]</text>
<text text-anchor="middle" x="945" y="519">NS</text>
</g>
<g id="edge24" class="edge"><title>10&#45;&gt;12</title>
<path style="fill:none;stroke:black;" d="M844,451C861,458 879,465 895,471"/>
<polygon style="fill:black;stroke:black;" points="897,468 905,475 894,475 897,468"/>
</g>
<g id="node30" class="node"><title>15</title>
<polygon style="fill:#399de5;stroke:black;" points="561,659 457,659 457,747 561,747 561,659"/>
<text text-anchor="middle" x="509" y="676">LOC_01 &lt;= 0.5</text>
<text text-anchor="middle" x="509" y="692">0.4321</text>
<text text-anchor="middle" x="509" y="708">810</text>
<text text-anchor="middle" x="509" y="724">[407, 882]</text>
<text text-anchor="middle" x="509" y="740">SD</text>
</g>
<g id="edge30" class="edge"><title>14&#45;&gt;15</title>
<path style="fill:none;stroke:black;" d="M324,703C361,703 409,703 446,703"/>
<polygon style="fill:black;stroke:black;" points="446,699 456,703 446,706 446,699"/>
</g>
<g id="node44" class="node"><title>22</title>
<polygon style="fill:#e58139;stroke:black;" points="633,814 385,814 385,902 633,902 633,814"/>
<text text-anchor="middle" x="509" y="831">BLS_FEDERAL_TotalSep_Level &lt;= 0.5</text>
<text text-anchor="middle" x="509" y="847">0.4513</text>
<text text-anchor="middle" x="509" y="863">82</text>
<text text-anchor="middle" x="509" y="879">[82, 43]</text>
<text text-anchor="middle" x="509" y="895">NS</text>
</g>
<g id="edge44" class="edge"><title>14&#45;&gt;22</title>
<path style="fill:none;stroke:black;" d="M324,744C356,764 395,788 428,809"/>
<polygon style="fill:black;stroke:black;" points="430,806 437,814 427,812 430,806"/>
</g>
<g id="node32" class="node"><title>16</title>
<polygon style="fill:#399de5;stroke:black;" points="864,610 670,610 670,698 864,698 864,610"/>
<text text-anchor="middle" x="767" y="627">SalaryOverUnderIndAvg &lt;= 0.5</text>
<text text-anchor="middle" x="767" y="643">0.4875</text>
<text text-anchor="middle" x="767" y="659">35</text>
<text text-anchor="middle" x="767" y="675">[24, 33]</text>
<text text-anchor="middle" x="767" y="691">SD</text>
</g>
<g id="edge32" class="edge"><title>15&#45;&gt;16</title>
<path style="fill:none;stroke:black;" d="M562,693C590,688 626,681 659,675"/>
<polygon style="fill:black;stroke:black;" points="659,672 669,673 660,678 659,672"/>
</g>
<g id="node38" class="node"><title>19</title>
<polygon style="fill:#399de5;stroke:black;" points="859,716 675,716 675,804 859,804 859,716"/>
<text text-anchor="middle" x="767" y="733">YearsToRetirement &lt;= 0.3786</text>
<text text-anchor="middle" x="767" y="749">0.4285</text>
<text text-anchor="middle" x="767" y="765">775</text>
<text text-anchor="middle" x="767" y="781">[383, 849]</text>
<text text-anchor="middle" x="767" y="797">SD</text>
</g>
<g id="edge38" class="edge"><title>15&#45;&gt;19</title>
<path style="fill:none;stroke:black;" d="M562,715C591,721 630,729 665,738"/>
<polygon style="fill:black;stroke:black;" points="666,735 675,740 665,741 666,735"/>
</g>
<g id="node34" class="node"><title>17</title>
<polygon style="fill:#399de5;stroke:black;" points="974,544 916,544 916,616 974,616 974,544"/>
<text text-anchor="middle" x="945" y="561">0.4579</text>
<text text-anchor="middle" x="945" y="577">22</text>
<text text-anchor="middle" x="945" y="593">[11, 20]</text>
<text text-anchor="middle" x="945" y="609">SD</text>
</g>
<g id="edge34" class="edge"><title>16&#45;&gt;17</title>
<path style="fill:none;stroke:black;" d="M865,613C879,607 893,601 906,596"/>
<polygon style="fill:black;stroke:black;" points="904,593 915,592 907,599 904,593"/>
</g>
<g id="node36" class="node"><title>18</title>
<polygon style="fill:#e58139;stroke:black;" points="975,634 915,634 915,706 975,706 975,634"/>
<text text-anchor="middle" x="945" y="651">0.5</text>
<text text-anchor="middle" x="945" y="667">13</text>
<text text-anchor="middle" x="945" y="683">[13, 13]</text>
<text text-anchor="middle" x="945" y="699">NS</text>
</g>
<g id="edge36" class="edge"><title>16&#45;&gt;18</title>
<path style="fill:none;stroke:black;" d="M865,663C879,664 893,665 905,666"/>
<polygon style="fill:black;stroke:black;" points="905,663 915,667 905,669 905,663"/>
</g>
<g id="node40" class="node"><title>20</title>
<polygon style="fill:#399de5;stroke:black;" points="981,724 909,724 909,796 981,796 981,724"/>
<text text-anchor="middle" x="945" y="741">0.3397</text>
<text text-anchor="middle" x="945" y="757">628</text>
<text text-anchor="middle" x="945" y="773">[218, 787]</text>
<text text-anchor="middle" x="945" y="789">SD</text>
</g>
<g id="edge40" class="edge"><title>19&#45;&gt;20</title>
<path style="fill:none;stroke:black;" d="M859,760C873,760 887,760 899,760"/>
<polygon style="fill:black;stroke:black;" points="899,756 909,760 899,763 899,756"/>
</g>
<g id="node42" class="node"><title>21</title>
<polygon style="fill:#e58139;stroke:black;" points="978,814 912,814 912,886 978,886 978,814"/>
<text text-anchor="middle" x="945" y="831">0.3971</text>
<text text-anchor="middle" x="945" y="847">147</text>
<text text-anchor="middle" x="945" y="863">[165, 62]</text>
<text text-anchor="middle" x="945" y="879">NS</text>
</g>
<g id="edge42" class="edge"><title>19&#45;&gt;21</title>
<path style="fill:none;stroke:black;" d="M854,804C870,812 887,821 902,828"/>
<polygon style="fill:black;stroke:black;" points="904,825 911,833 901,831 904,825"/>
</g>
<g id="node46" class="node"><title>23</title>
<polygon style="fill:#e58139;stroke:black;" points="797,822 737,822 737,894 797,894 797,822"/>
<text text-anchor="middle" x="767" y="839">0.4104</text>
<text text-anchor="middle" x="767" y="855">73</text>
<text text-anchor="middle" x="767" y="871">[79, 32]</text>
<text text-anchor="middle" x="767" y="887">NS</text>
</g>
<g id="edge46" class="edge"><title>22&#45;&gt;23</title>
<path style="fill:none;stroke:black;" d="M633,858C666,858 701,858 726,858"/>
<polygon style="fill:black;stroke:black;" points="726,854 736,858 726,861 726,854"/>
</g>
<g id="node48" class="node"><title>24</title>
<polygon style="fill:#399de5;stroke:black;" points="794,912 740,912 740,984 794,984 794,912"/>
<text text-anchor="middle" x="767" y="929">0.3367</text>
<text text-anchor="middle" x="767" y="945">9</text>
<text text-anchor="middle" x="767" y="961">[3, 11]</text>
<text text-anchor="middle" x="767" y="977">SD</text>
</g>
<g id="edge48" class="edge"><title>22&#45;&gt;24</title>
<path style="fill:none;stroke:black;" d="M633,901C668,913 704,926 729,935"/>
<polygon style="fill:black;stroke:black;" points="730,932 739,938 728,938 730,932"/>
</g>
</g>
</svg>
