<?xml version="1.0" encoding="UTF-8" standalone="no"?>
<!DOCTYPE svg PUBLIC "-//W3C//DTD SVG 1.0//EN"
 "http://www.w3.org/TR/2001/REC-SVG-20010904/DTD/svg10.dtd">
<!-- Generated by dot version 2.2 (Tue Jan 25 21:58:56 UTC 2005)
     For user: (amfrye) Alex Frye   Title: Tree    Pages: 1 -->
<svg width="1172pt" height="992pt"
 viewBox = "-1 -1 1171 991"
 xmlns="http://www.w3.org/2000/svg">
<g id="graph0" class="graph" style="font-family:Times-Roman;font-size:14.00;">
<title>Tree</title>
<g id="node1" class="node"><title>0</title>
<polygon style="fill:#e58139;stroke:black;" points="190,557 6,557 6,645 190,645 190,557"/>
<text text-anchor="middle" x="98" y="574">YearsToRetirement &lt;= 0.3967</text>
<text text-anchor="middle" x="98" y="590">0.5</text>
<text text-anchor="middle" x="98" y="606">7549</text>
<text text-anchor="middle" x="98" y="622">[5993, 5944]</text>
<text text-anchor="middle" x="98" y="638">NS</text>
</g>
<g id="node2" class="node"><title>1</title>
<polygon style="fill:#399de5;stroke:black;" points="424,427 298,427 298,515 424,515 424,427"/>
<text text-anchor="middle" x="361" y="444">AGELVL_F &lt;= 0.5</text>
<text text-anchor="middle" x="361" y="460">0.4271</text>
<text text-anchor="middle" x="361" y="476">4807</text>
<text text-anchor="middle" x="361" y="492">[2340, 5231]</text>
<text text-anchor="middle" x="361" y="508">SD</text>
</g>
<g id="edge2" class="edge"><title>0&#45;&gt;1</title>
<path style="fill:none;stroke:black;" d="M187,557C220,541 257,523 288,507"/>
<polygon style="fill:black;stroke:black;" points="287,504 297,502 290,510 287,504"/>
<text text-anchor="middle" x="273" y="500">True</text>
</g>
<g id="node28" class="node"><title>14</title>
<polygon style="fill:#e58139;stroke:black;" points="494,659 228,659 228,747 494,747 494,659"/>
<text text-anchor="middle" x="361" y="676">BLS_FEDERAL_JobOpenings_Rate &lt;= 0.5</text>
<text text-anchor="middle" x="361" y="692">0.2733</text>
<text text-anchor="middle" x="361" y="708">2742</text>
<text text-anchor="middle" x="361" y="724">[3653, 713]</text>
<text text-anchor="middle" x="361" y="740">NS</text>
</g>
<g id="edge28" class="edge"><title>0&#45;&gt;14</title>
<path style="fill:none;stroke:black;" d="M191,637C206,643 222,649 238,655"/>
<polygon style="fill:black;stroke:black;" points="239,652 247,659 236,658 239,652"/>
<text text-anchor="middle" x="224" y="673">False</text>
</g>
<g id="node4" class="node"><title>2</title>
<polygon style="fill:#399de5;stroke:black;" points="764,243 550,243 550,331 764,331 764,243"/>
<text text-anchor="middle" x="657" y="260">SalaryOverUnderIndAvg &lt;= 0.1667</text>
<text text-anchor="middle" x="657" y="276">0.4303</text>
<text text-anchor="middle" x="657" y="292">4663</text>
<text text-anchor="middle" x="657" y="308">[2304, 5050]</text>
<text text-anchor="middle" x="657" y="324">SD</text>
</g>
<g id="edge4" class="edge"><title>1&#45;&gt;2</title>
<path style="fill:none;stroke:black;" d="M425,431C469,404 529,366 577,336"/>
<polygon style="fill:black;stroke:black;" points="576,333 586,331 579,339 576,333"/>
</g>
<g id="node18" class="node"><title>9</title>
<polygon style="fill:#399de5;stroke:black;" points="783,427 531,427 531,515 783,515 783,427"/>
<text text-anchor="middle" x="657" y="444">BLS_FEDERAL_OtherSep_Level &lt;= 0.5</text>
<text text-anchor="middle" x="657" y="460">0.2768</text>
<text text-anchor="middle" x="657" y="476">144</text>
<text text-anchor="middle" x="657" y="492">[36, 181]</text>
<text text-anchor="middle" x="657" y="508">SD</text>
</g>
<g id="edge18" class="edge"><title>1&#45;&gt;9</title>
<path style="fill:none;stroke:black;" d="M425,471C453,471 487,471 521,471"/>
<polygon style="fill:black;stroke:black;" points="521,467 531,471 521,474 521,467"/>
</g>
<g id="node6" class="node"><title>3</title>
<polygon style="fill:#399de5;stroke:black;" points="998,86 864,86 864,174 998,174 998,86"/>
<text text-anchor="middle" x="931" y="103">SALARYLog &lt;= 0.5</text>
<text text-anchor="middle" x="931" y="119">0.4915</text>
<text text-anchor="middle" x="931" y="135">892</text>
<text text-anchor="middle" x="931" y="151">[602, 783]</text>
<text text-anchor="middle" x="931" y="167">SD</text>
</g>
<g id="edge6" class="edge"><title>2&#45;&gt;3</title>
<path style="fill:none;stroke:black;" d="M734,243C772,221 818,195 855,173"/>
<polygon style="fill:black;stroke:black;" points="854,170 864,168 857,176 854,170"/>
</g>
<g id="node12" class="node"><title>6</title>
<polygon style="fill:#399de5;stroke:black;" points="1014,243 848,243 848,331 1014,331 1014,243"/>
<text text-anchor="middle" x="931" y="260">LowerLimitAge &lt;= 0.4028</text>
<text text-anchor="middle" x="931" y="276">0.4077</text>
<text text-anchor="middle" x="931" y="292">3771</text>
<text text-anchor="middle" x="931" y="308">[1702, 4267]</text>
<text text-anchor="middle" x="931" y="324">SD</text>
</g>
<g id="edge12" class="edge"><title>2&#45;&gt;6</title>
<path style="fill:none;stroke:black;" d="M764,287C788,287 814,287 837,287"/>
<polygon style="fill:black;stroke:black;" points="837,283 847,287 837,290 837,283"/>
</g>
<g id="node8" class="node"><title>4</title>
<polygon style="fill:#399de5;stroke:black;" points="1158,4 1086,4 1086,76 1158,76 1158,4"/>
<text text-anchor="middle" x="1122" y="21">0.4895</text>
<text text-anchor="middle" x="1122" y="37">871</text>
<text text-anchor="middle" x="1122" y="53">[578, 774]</text>
<text text-anchor="middle" x="1122" y="69">SD</text>
</g>
<g id="edge8" class="edge"><title>3&#45;&gt;4</title>
<path style="fill:none;stroke:black;" d="M998,98C1023,86 1053,73 1076,61"/>
<polygon style="fill:black;stroke:black;" points="1074,58 1085,57 1077,64 1074,58"/>
</g>
<g id="node10" class="node"><title>5</title>
<polygon style="fill:#e58139;stroke:black;" points="1149,94 1095,94 1095,166 1149,166 1149,94"/>
<text text-anchor="middle" x="1122" y="111">0.3967</text>
<text text-anchor="middle" x="1122" y="127">21</text>
<text text-anchor="middle" x="1122" y="143">[24, 9]</text>
<text text-anchor="middle" x="1122" y="159">NS</text>
</g>
<g id="edge10" class="edge"><title>3&#45;&gt;5</title>
<path style="fill:none;stroke:black;" d="M998,130C1027,130 1059,130 1084,130"/>
<polygon style="fill:black;stroke:black;" points="1084,126 1094,130 1084,133 1084,126"/>
</g>
<g id="node14" class="node"><title>7</title>
<polygon style="fill:#399de5;stroke:black;" points="1165,184 1079,184 1079,256 1165,256 1165,184"/>
<text text-anchor="middle" x="1122" y="201">0.4619</text>
<text text-anchor="middle" x="1122" y="217">2046</text>
<text text-anchor="middle" x="1122" y="233">[1169, 2060]</text>
<text text-anchor="middle" x="1122" y="249">SD</text>
</g>
<g id="edge14" class="edge"><title>6&#45;&gt;7</title>
<path style="fill:none;stroke:black;" d="M1015,258C1033,251 1052,245 1069,239"/>
<polygon style="fill:black;stroke:black;" points="1068,235 1079,235 1071,242 1068,235"/>
</g>
<g id="node16" class="node"><title>8</title>
<polygon style="fill:#399de5;stroke:black;" points="1163,274 1081,274 1081,346 1163,346 1163,274"/>
<text text-anchor="middle" x="1122" y="291">0.3134</text>
<text text-anchor="middle" x="1122" y="307">1725</text>
<text text-anchor="middle" x="1122" y="323">[533, 2207]</text>
<text text-anchor="middle" x="1122" y="339">SD</text>
</g>
<g id="edge16" class="edge"><title>6&#45;&gt;8</title>
<path style="fill:none;stroke:black;" d="M1015,297C1034,299 1054,302 1071,304"/>
<polygon style="fill:black;stroke:black;" points="1071,301 1081,305 1071,307 1071,301"/>
</g>
<g id="node20" class="node"><title>10</title>
<polygon style="fill:#399de5;stroke:black;" points="1043,378 819,378 819,466 1043,466 1043,378"/>
<text text-anchor="middle" x="931" y="395">BLS_FEDERAL_Quits_Rate &lt;= 0.5</text>
<text text-anchor="middle" x="931" y="411">0.2449</text>
<text text-anchor="middle" x="931" y="427">130</text>
<text text-anchor="middle" x="931" y="443">[28, 168]</text>
<text text-anchor="middle" x="931" y="459">SD</text>
</g>
<g id="edge20" class="edge"><title>9&#45;&gt;10</title>
<path style="fill:none;stroke:black;" d="M783,448C792,447 800,445 809,444"/>
<polygon style="fill:black;stroke:black;" points="809,441 819,442 810,447 809,441"/>
</g>
<g id="node26" class="node"><title>13</title>
<polygon style="fill:#399de5;stroke:black;" points="958,484 904,484 904,556 958,556 958,484"/>
<text text-anchor="middle" x="931" y="501">0.4717</text>
<text text-anchor="middle" x="931" y="517">14</text>
<text text-anchor="middle" x="931" y="533">[8, 13]</text>
<text text-anchor="middle" x="931" y="549">SD</text>
</g>
<g id="edge26" class="edge"><title>9&#45;&gt;13</title>
<path style="fill:none;stroke:black;" d="M783,494C823,501 865,508 894,513"/>
<polygon style="fill:black;stroke:black;" points="895,510 904,515 894,516 895,510"/>
</g>
<g id="node22" class="node"><title>11</title>
<polygon style="fill:#399de5;stroke:black;" points="1155,364 1089,364 1089,436 1155,436 1155,364"/>
<text text-anchor="middle" x="1122" y="381">0.2449</text>
<text text-anchor="middle" x="1122" y="397">108</text>
<text text-anchor="middle" x="1122" y="413">[24, 144]</text>
<text text-anchor="middle" x="1122" y="429">SD</text>
</g>
<g id="edge22" class="edge"><title>10&#45;&gt;11</title>
<path style="fill:none;stroke:black;" d="M1043,409C1056,407 1067,406 1078,405"/>
<polygon style="fill:black;stroke:black;" points="1078,402 1088,404 1078,408 1078,402"/>
</g>
<g id="node24" class="node"><title>12</title>
<polygon style="fill:#399de5;stroke:black;" points="1149,454 1095,454 1095,526 1149,526 1149,454"/>
<text text-anchor="middle" x="1122" y="471">0.2449</text>
<text text-anchor="middle" x="1122" y="487">22</text>
<text text-anchor="middle" x="1122" y="503">[4, 24]</text>
<text text-anchor="middle" x="1122" y="519">SD</text>
</g>
<g id="edge24" class="edge"><title>10&#45;&gt;12</title>
<path style="fill:none;stroke:black;" d="M1043,462C1058,467 1072,472 1084,477"/>
<polygon style="fill:black;stroke:black;" points="1085,474 1094,480 1083,480 1085,474"/>
</g>
<g id="node30" class="node"><title>15</title>
<polygon style="fill:#e58139;stroke:black;" points="783,659 531,659 531,747 783,747 783,659"/>
<text text-anchor="middle" x="657" y="676">BLS_FEDERAL_OtherSep_Level &lt;= 0.5</text>
<text text-anchor="middle" x="657" y="692">0.2468</text>
<text text-anchor="middle" x="657" y="708">2548</text>
<text text-anchor="middle" x="657" y="724">[3460, 583]</text>
<text text-anchor="middle" x="657" y="740">NS</text>
</g>
<g id="edge30" class="edge"><title>14&#45;&gt;15</title>
<path style="fill:none;stroke:black;" d="M495,703C504,703 512,703 521,703"/>
<polygon style="fill:black;stroke:black;" points="521,699 531,703 521,706 521,699"/>
</g>
<g id="node44" class="node"><title>22</title>
<polygon style="fill:#e58139;stroke:black;" points="739,814 575,814 575,902 739,902 739,814"/>
<text text-anchor="middle" x="657" y="831">LowerLimitAge &lt;= 0.8194</text>
<text text-anchor="middle" x="657" y="847">0.481</text>
<text text-anchor="middle" x="657" y="863">194</text>
<text text-anchor="middle" x="657" y="879">[193, 130]</text>
<text text-anchor="middle" x="657" y="895">NS</text>
</g>
<g id="edge44" class="edge"><title>14&#45;&gt;22</title>
<path style="fill:none;stroke:black;" d="M445,747C483,766 527,790 565,810"/>
<polygon style="fill:black;stroke:black;" points="567,807 574,815 564,813 567,807"/>
</g>
<g id="node32" class="node"><title>16</title>
<polygon style="fill:#e58139;stroke:black;" points="1008,610 854,610 854,698 1008,698 1008,610"/>
<text text-anchor="middle" x="931" y="627">IndAvgSalary &lt;= 0.7222</text>
<text text-anchor="middle" x="931" y="643">0.2129</text>
<text text-anchor="middle" x="931" y="659">2278</text>
<text text-anchor="middle" x="931" y="675">[3171, 437]</text>
<text text-anchor="middle" x="931" y="691">NS</text>
</g>
<g id="edge32" class="edge"><title>15&#45;&gt;16</title>
<path style="fill:none;stroke:black;" d="M783,680C803,677 825,673 844,670"/>
<polygon style="fill:black;stroke:black;" points="844,667 854,668 845,673 844,667"/>
</g>
<g id="node38" class="node"><title>19</title>
<polygon style="fill:#e58139;stroke:black;" points="1038,716 824,716 824,804 1038,804 1038,716"/>
<text text-anchor="middle" x="931" y="733">SalaryOverUnderIndAvg &lt;= 0.1667</text>
<text text-anchor="middle" x="931" y="749">0.446</text>
<text text-anchor="middle" x="931" y="765">270</text>
<text text-anchor="middle" x="931" y="781">[289, 146]</text>
<text text-anchor="middle" x="931" y="797">NS</text>
</g>
<g id="edge38" class="edge"><title>15&#45;&gt;19</title>
<path style="fill:none;stroke:black;" d="M783,729C794,731 804,734 814,736"/>
<polygon style="fill:black;stroke:black;" points="815,733 824,738 814,739 815,733"/>
</g>
<g id="node34" class="node"><title>17</title>
<polygon style="fill:#e58139;stroke:black;" points="1159,544 1085,544 1085,616 1159,616 1159,544"/>
<text text-anchor="middle" x="1122" y="561">0.4483</text>
<text text-anchor="middle" x="1122" y="577">541</text>
<text text-anchor="middle" x="1122" y="593">[559, 287]</text>
<text text-anchor="middle" x="1122" y="609">NS</text>
</g>
<g id="edge34" class="edge"><title>16&#45;&gt;17</title>
<path style="fill:none;stroke:black;" d="M1008,624C1030,615 1055,606 1076,598"/>
<polygon style="fill:black;stroke:black;" points="1074,595 1085,594 1077,601 1074,595"/>
</g>
<g id="node36" class="node"><title>18</title>
<polygon style="fill:#e58139;stroke:black;" points="1162,634 1082,634 1082,706 1162,706 1162,634"/>
<text text-anchor="middle" x="1122" y="651">0.1027</text>
<text text-anchor="middle" x="1122" y="667">1737</text>
<text text-anchor="middle" x="1122" y="683">[2612, 150]</text>
<text text-anchor="middle" x="1122" y="699">NS</text>
</g>
<g id="edge36" class="edge"><title>16&#45;&gt;18</title>
<path style="fill:none;stroke:black;" d="M1008,660C1029,662 1052,664 1072,666"/>
<polygon style="fill:black;stroke:black;" points="1072,663 1082,667 1072,669 1072,663"/>
</g>
<g id="node40" class="node"><title>20</title>
<polygon style="fill:#e58139;stroke:black;" points="1152,724 1092,724 1092,796 1152,796 1152,724"/>
<text text-anchor="middle" x="1122" y="741">0.2428</text>
<text text-anchor="middle" x="1122" y="757">61</text>
<text text-anchor="middle" x="1122" y="773">[85, 14]</text>
<text text-anchor="middle" x="1122" y="789">NS</text>
</g>
<g id="edge40" class="edge"><title>19&#45;&gt;20</title>
<path style="fill:none;stroke:black;" d="M1038,760C1054,760 1069,760 1082,760"/>
<polygon style="fill:black;stroke:black;" points="1082,756 1092,760 1082,763 1082,756"/>
</g>
<g id="node42" class="node"><title>21</title>
<polygon style="fill:#e58139;stroke:black;" points="1159,814 1085,814 1085,886 1159,886 1159,814"/>
<text text-anchor="middle" x="1122" y="831">0.477</text>
<text text-anchor="middle" x="1122" y="847">209</text>
<text text-anchor="middle" x="1122" y="863">[204, 132]</text>
<text text-anchor="middle" x="1122" y="879">NS</text>
</g>
<g id="edge42" class="edge"><title>19&#45;&gt;21</title>
<path style="fill:none;stroke:black;" d="M1025,804C1042,812 1060,821 1076,828"/>
<polygon style="fill:black;stroke:black;" points="1077,825 1085,832 1074,831 1077,825"/>
</g>
<g id="node46" class="node"><title>23</title>
<polygon style="fill:#e58139;stroke:black;" points="966,822 896,822 896,894 966,894 966,822"/>
<text text-anchor="middle" x="931" y="839">0.4972</text>
<text text-anchor="middle" x="931" y="855">159</text>
<text text-anchor="middle" x="931" y="871">[137, 118]</text>
<text text-anchor="middle" x="931" y="887">NS</text>
</g>
<g id="edge46" class="edge"><title>22&#45;&gt;23</title>
<path style="fill:none;stroke:black;" d="M740,858C788,858 846,858 885,858"/>
<polygon style="fill:black;stroke:black;" points="885,854 895,858 885,861 885,854"/>
</g>
<g id="node48" class="node"><title>24</title>
<polygon style="fill:#e58139;stroke:black;" points="961,912 901,912 901,984 961,984 961,912"/>
<text text-anchor="middle" x="931" y="929">0.2907</text>
<text text-anchor="middle" x="931" y="945">35</text>
<text text-anchor="middle" x="931" y="961">[56, 12]</text>
<text text-anchor="middle" x="931" y="977">NS</text>
</g>
<g id="edge48" class="edge"><title>22&#45;&gt;24</title>
<path style="fill:none;stroke:black;" d="M740,885C790,902 851,922 891,935"/>
<polygon style="fill:black;stroke:black;" points="892,932 901,938 890,938 892,932"/>
</g>
</g>
</svg>
