<?xml version="1.0" encoding="UTF-8" standalone="no"?>
<!DOCTYPE svg PUBLIC "-//W3C//DTD SVG 1.0//EN"
 "http://www.w3.org/TR/2001/REC-SVG-20010904/DTD/svg10.dtd">
<!-- Generated by dot version 2.2 (Tue Jan 25 21:58:56 UTC 2005)
     For user: (amfrye) Alex Frye   Title: Tree    Pages: 1 -->
<svg width="1040pt" height="1082pt"
 viewBox = "-1 -1 1039 1081"
 xmlns="http://www.w3.org/2000/svg">
<g id="graph0" class="graph" style="font-family:Times-Roman;font-size:14.00;">
<title>Tree</title>
<g id="node1" class="node"><title>0</title>
<polygon style="fill:#e58139;stroke:black;" points="128,554 6,554 6,642 128,642 128,554"/>
<text text-anchor="middle" x="67" y="571">AGELVL_I &lt;= 0.5</text>
<text text-anchor="middle" x="67" y="587">0.4999</text>
<text text-anchor="middle" x="67" y="603">7624</text>
<text text-anchor="middle" x="67" y="619">[6054, 5883]</text>
<text text-anchor="middle" x="67" y="635">NS</text>
</g>
<g id="node2" class="node"><title>1</title>
<polygon style="fill:#e58139;stroke:black;" points="321,485 195,485 195,573 321,573 321,485"/>
<text text-anchor="middle" x="258" y="502">AGELVL_F &lt;= 0.5</text>
<text text-anchor="middle" x="258" y="518">0.4983</text>
<text text-anchor="middle" x="258" y="534">6728</text>
<text text-anchor="middle" x="258" y="550">[5558, 4949]</text>
<text text-anchor="middle" x="258" y="566">NS</text>
</g>
<g id="edge2" class="edge"><title>0&#45;&gt;1</title>
<path style="fill:none;stroke:black;" d="M129,576C147,569 166,562 185,556"/>
<polygon style="fill:black;stroke:black;" points="183,553 194,552 186,559 183,553"/>
<text text-anchor="middle" x="171" y="548">True</text>
</g>
<g id="node28" class="node"><title>14</title>
<polygon style="fill:#399de5;stroke:black;" points="350,622 166,622 166,710 350,710 350,622"/>
<text text-anchor="middle" x="258" y="639">YearsToRetirement &lt;= 0.3397</text>
<text text-anchor="middle" x="258" y="655">0.4531</text>
<text text-anchor="middle" x="258" y="671">896</text>
<text text-anchor="middle" x="258" y="687">[496, 934]</text>
<text text-anchor="middle" x="258" y="703">SD</text>
</g>
<g id="edge28" class="edge"><title>0&#45;&gt;14</title>
<path style="fill:none;stroke:black;" d="M129,620C138,623 147,626 155,630"/>
<polygon style="fill:black;stroke:black;" points="156,627 165,633 154,633 156,627"/>
<text text-anchor="middle" x="143" y="650">False</text>
</g>
<g id="node4" class="node"><title>2</title>
<polygon style="fill:#e58139;stroke:black;" points="635,229 387,229 387,317 635,317 635,229"/>
<text text-anchor="middle" x="511" y="246">BLS_FEDERAL_TotalSep_Level &lt;= 0.5</text>
<text text-anchor="middle" x="511" y="262">0.4974</text>
<text text-anchor="middle" x="511" y="278">6585</text>
<text text-anchor="middle" x="511" y="294">[5517, 4770]</text>
<text text-anchor="middle" x="511" y="310">NS</text>
</g>
<g id="edge4" class="edge"><title>1&#45;&gt;2</title>
<path style="fill:none;stroke:black;" d="M301,485C346,440 414,371 460,324"/>
<polygon style="fill:black;stroke:black;" points="457,322 467,317 462,327 457,322"/>
</g>
<g id="node18" class="node"><title>9</title>
<polygon style="fill:#399de5;stroke:black;" points="631,485 391,485 391,573 631,573 631,485"/>
<text text-anchor="middle" x="511" y="502">BLS_FEDERAL_Layoffs_Level &lt;= 0.5</text>
<text text-anchor="middle" x="511" y="518">0.3033</text>
<text text-anchor="middle" x="511" y="534">143</text>
<text text-anchor="middle" x="511" y="550">[41, 179]</text>
<text text-anchor="middle" x="511" y="566">SD</text>
</g>
<g id="edge18" class="edge"><title>1&#45;&gt;9</title>
<path style="fill:none;stroke:black;" d="M322,529C340,529 360,529 380,529"/>
<polygon style="fill:black;stroke:black;" points="380,525 390,529 380,532 380,525"/>
</g>
<g id="node6" class="node"><title>3</title>
<polygon style="fill:#e58139;stroke:black;" points="872,86 706,86 706,174 872,174 872,86"/>
<text text-anchor="middle" x="789" y="103">LowerLimitAge &lt;= 0.1389</text>
<text text-anchor="middle" x="789" y="119">0.4927</text>
<text text-anchor="middle" x="789" y="135">5776</text>
<text text-anchor="middle" x="789" y="151">[5067, 3972]</text>
<text text-anchor="middle" x="789" y="167">NS</text>
</g>
<g id="edge6" class="edge"><title>2&#45;&gt;3</title>
<path style="fill:none;stroke:black;" d="M597,229C628,213 664,194 697,178"/>
<polygon style="fill:black;stroke:black;" points="696,175 706,173 699,181 696,175"/>
</g>
<g id="node12" class="node"><title>6</title>
<polygon style="fill:#399de5;stroke:black;" points="871,229 707,229 707,317 871,317 871,229"/>
<text text-anchor="middle" x="789" y="246">LowerLimitAge &lt;= 0.8194</text>
<text text-anchor="middle" x="789" y="262">0.4611</text>
<text text-anchor="middle" x="789" y="278">809</text>
<text text-anchor="middle" x="789" y="294">[450, 798]</text>
<text text-anchor="middle" x="789" y="310">SD</text>
</g>
<g id="edge12" class="edge"><title>2&#45;&gt;6</title>
<path style="fill:none;stroke:black;" d="M635,273C655,273 676,273 696,273"/>
<polygon style="fill:black;stroke:black;" points="696,269 706,273 696,276 696,269"/>
</g>
<g id="node8" class="node"><title>4</title>
<polygon style="fill:#399de5;stroke:black;" points="1025,4 951,4 951,76 1025,76 1025,4"/>
<text text-anchor="middle" x="988" y="21">0.4949</text>
<text text-anchor="middle" x="988" y="37">871</text>
<text text-anchor="middle" x="988" y="53">[599, 733]</text>
<text text-anchor="middle" x="988" y="69">SD</text>
</g>
<g id="edge8" class="edge"><title>3&#45;&gt;4</title>
<path style="fill:none;stroke:black;" d="M872,92C896,82 921,70 942,61"/>
<polygon style="fill:black;stroke:black;" points="940,58 951,57 943,64 940,58"/>
</g>
<g id="node10" class="node"><title>5</title>
<polygon style="fill:#e58139;stroke:black;" points="1032,94 944,94 944,166 1032,166 1032,94"/>
<text text-anchor="middle" x="988" y="111">0.4873</text>
<text text-anchor="middle" x="988" y="127">4905</text>
<text text-anchor="middle" x="988" y="143">[4468, 3239]</text>
<text text-anchor="middle" x="988" y="159">NS</text>
</g>
<g id="edge10" class="edge"><title>3&#45;&gt;5</title>
<path style="fill:none;stroke:black;" d="M872,130C893,130 914,130 933,130"/>
<polygon style="fill:black;stroke:black;" points="933,126 943,130 933,133 933,126"/>
</g>
<g id="node14" class="node"><title>7</title>
<polygon style="fill:#399de5;stroke:black;" points="1024,184 952,184 952,256 1024,256 1024,184"/>
<text text-anchor="middle" x="988" y="201">0.4417</text>
<text text-anchor="middle" x="988" y="217">641</text>
<text text-anchor="middle" x="988" y="233">[319, 650]</text>
<text text-anchor="middle" x="988" y="249">SD</text>
</g>
<g id="edge14" class="edge"><title>6&#45;&gt;7</title>
<path style="fill:none;stroke:black;" d="M872,251C895,244 921,238 941,233"/>
<polygon style="fill:black;stroke:black;" points="940,230 951,230 942,236 940,230"/>
</g>
<g id="node16" class="node"><title>8</title>
<polygon style="fill:#399de5;stroke:black;" points="1024,274 952,274 952,346 1024,346 1024,274"/>
<text text-anchor="middle" x="988" y="291">0.4981</text>
<text text-anchor="middle" x="988" y="307">168</text>
<text text-anchor="middle" x="988" y="323">[131, 148]</text>
<text text-anchor="middle" x="988" y="339">SD</text>
</g>
<g id="edge16" class="edge"><title>6&#45;&gt;8</title>
<path style="fill:none;stroke:black;" d="M872,288C896,293 921,298 942,301"/>
<polygon style="fill:black;stroke:black;" points="943,298 952,303 942,304 943,298"/>
</g>
<g id="node20" class="node"><title>10</title>
<polygon style="fill:#399de5;stroke:black;" points="880,404 698,404 698,492 880,492 880,404"/>
<text text-anchor="middle" x="789" y="421">YearsToRetirement &lt;= 0.1541</text>
<text text-anchor="middle" x="789" y="437">0.3237</text>
<text text-anchor="middle" x="789" y="453">122</text>
<text text-anchor="middle" x="789" y="469">[39, 153]</text>
<text text-anchor="middle" x="789" y="485">SD</text>
</g>
<g id="edge20" class="edge"><title>9&#45;&gt;10</title>
<path style="fill:none;stroke:black;" d="M632,494C651,489 670,483 687,478"/>
<polygon style="fill:black;stroke:black;" points="686,475 697,475 688,481 686,475"/>
</g>
<g id="node26" class="node"><title>13</title>
<polygon style="fill:#399de5;stroke:black;" points="816,510 762,510 762,582 816,582 816,510"/>
<text text-anchor="middle" x="789" y="527">0.1327</text>
<text text-anchor="middle" x="789" y="543">21</text>
<text text-anchor="middle" x="789" y="559">[2, 26]</text>
<text text-anchor="middle" x="789" y="575">SD</text>
</g>
<g id="edge26" class="edge"><title>9&#45;&gt;13</title>
<path style="fill:none;stroke:black;" d="M632,536C675,539 721,541 752,543"/>
<polygon style="fill:black;stroke:black;" points="752,540 762,544 752,546 752,540"/>
</g>
<g id="node22" class="node"><title>11</title>
<polygon style="fill:#399de5;stroke:black;" points="1015,364 961,364 961,436 1015,436 1015,364"/>
<text text-anchor="middle" x="988" y="381">0.2311</text>
<text text-anchor="middle" x="988" y="397">40</text>
<text text-anchor="middle" x="988" y="413">[8, 52]</text>
<text text-anchor="middle" x="988" y="429">SD</text>
</g>
<g id="edge22" class="edge"><title>10&#45;&gt;11</title>
<path style="fill:none;stroke:black;" d="M881,426C906,420 931,413 951,408"/>
<polygon style="fill:black;stroke:black;" points="951,405 961,406 952,411 951,405"/>
</g>
<g id="node24" class="node"><title>12</title>
<polygon style="fill:#399de5;stroke:black;" points="1020,454 956,454 956,526 1020,526 1020,454"/>
<text text-anchor="middle" x="988" y="471">0.3594</text>
<text text-anchor="middle" x="988" y="487">82</text>
<text text-anchor="middle" x="988" y="503">[31, 101]</text>
<text text-anchor="middle" x="988" y="519">SD</text>
</g>
<g id="edge24" class="edge"><title>10&#45;&gt;12</title>
<path style="fill:none;stroke:black;" d="M881,467C904,472 927,477 945,481"/>
<polygon style="fill:black;stroke:black;" points="946,478 955,483 945,484 946,478"/>
</g>
<g id="node30" class="node"><title>15</title>
<polygon style="fill:#399de5;stroke:black;" points="593,622 429,622 429,710 593,710 593,622"/>
<text text-anchor="middle" x="511" y="639">LowerLimitAge &lt;= 0.8194</text>
<text text-anchor="middle" x="511" y="655">0.3396</text>
<text text-anchor="middle" x="511" y="671">652</text>
<text text-anchor="middle" x="511" y="687">[224, 809]</text>
<text text-anchor="middle" x="511" y="703">SD</text>
</g>
<g id="edge30" class="edge"><title>14&#45;&gt;15</title>
<path style="fill:none;stroke:black;" d="M351,666C373,666 396,666 418,666"/>
<polygon style="fill:black;stroke:black;" points="418,662 428,666 418,669 418,662"/>
</g>
<g id="node44" class="node"><title>22</title>
<polygon style="fill:#e58139;stroke:black;" points="625,896 397,896 397,984 625,984 625,896"/>
<text text-anchor="middle" x="511" y="913">BLS_FEDERAL_Quits_Level &lt;= 0.5</text>
<text text-anchor="middle" x="511" y="929">0.4314</text>
<text text-anchor="middle" x="511" y="945">244</text>
<text text-anchor="middle" x="511" y="961">[272, 125]</text>
<text text-anchor="middle" x="511" y="977">NS</text>
</g>
<g id="edge44" class="edge"><title>14&#45;&gt;22</title>
<path style="fill:none;stroke:black;" d="M299,710C344,759 416,837 463,889"/>
<polygon style="fill:black;stroke:black;" points="465,886 470,896 460,891 465,886"/>
</g>
<g id="node32" class="node"><title>16</title>
<polygon style="fill:#399de5;stroke:black;" points="886,618 692,618 692,706 886,706 886,618"/>
<text text-anchor="middle" x="789" y="635">SalaryOverUnderIndAvg &lt;= 0.5</text>
<text text-anchor="middle" x="789" y="651">0.287</text>
<text text-anchor="middle" x="789" y="667">516</text>
<text text-anchor="middle" x="789" y="683">[141, 671]</text>
<text text-anchor="middle" x="789" y="699">SD</text>
</g>
<g id="edge32" class="edge"><title>15&#45;&gt;16</title>
<path style="fill:none;stroke:black;" d="M594,665C622,665 652,664 681,664"/>
<polygon style="fill:black;stroke:black;" points="681,660 691,664 681,667 681,660"/>
</g>
<g id="node38" class="node"><title>19</title>
<polygon style="fill:#399de5;stroke:black;" points="872,724 706,724 706,812 872,812 872,724"/>
<text text-anchor="middle" x="789" y="741">LowerLimitAge &lt;= 0.9306</text>
<text text-anchor="middle" x="789" y="757">0.469</text>
<text text-anchor="middle" x="789" y="773">136</text>
<text text-anchor="middle" x="789" y="789">[83, 138]</text>
<text text-anchor="middle" x="789" y="805">SD</text>
</g>
<g id="edge38" class="edge"><title>15&#45;&gt;19</title>
<path style="fill:none;stroke:black;" d="M594,696C626,708 663,721 695,733"/>
<polygon style="fill:black;stroke:black;" points="697,730 705,737 694,737 697,730"/>
</g>
<g id="node34" class="node"><title>17</title>
<polygon style="fill:#399de5;stroke:black;" points="1022,544 954,544 954,616 1022,616 1022,544"/>
<text text-anchor="middle" x="988" y="561">0.2362</text>
<text text-anchor="middle" x="988" y="577">316</text>
<text text-anchor="middle" x="988" y="593">[68, 429]</text>
<text text-anchor="middle" x="988" y="609">SD</text>
</g>
<g id="edge34" class="edge"><title>16&#45;&gt;17</title>
<path style="fill:none;stroke:black;" d="M887,622C907,614 927,605 945,598"/>
<polygon style="fill:black;stroke:black;" points="943,595 954,594 946,601 943,595"/>
</g>
<g id="node36" class="node"><title>18</title>
<polygon style="fill:#399de5;stroke:black;" points="1021,634 955,634 955,706 1021,706 1021,634"/>
<text text-anchor="middle" x="988" y="651">0.3561</text>
<text text-anchor="middle" x="988" y="667">200</text>
<text text-anchor="middle" x="988" y="683">[73, 242]</text>
<text text-anchor="middle" x="988" y="699">SD</text>
</g>
<g id="edge36" class="edge"><title>16&#45;&gt;18</title>
<path style="fill:none;stroke:black;" d="M887,666C907,667 927,668 944,668"/>
<polygon style="fill:black;stroke:black;" points="944,665 954,669 944,671 944,665"/>
</g>
<g id="node40" class="node"><title>20</title>
<polygon style="fill:#e58139;stroke:black;" points="1018,724 958,724 958,796 1018,796 1018,724"/>
<text text-anchor="middle" x="988" y="741">0.4942</text>
<text text-anchor="middle" x="988" y="757">82</text>
<text text-anchor="middle" x="988" y="773">[77, 62]</text>
<text text-anchor="middle" x="988" y="789">NS</text>
</g>
<g id="edge40" class="edge"><title>19&#45;&gt;20</title>
<path style="fill:none;stroke:black;" d="M873,765C899,763 926,762 948,761"/>
<polygon style="fill:black;stroke:black;" points="948,757 958,761 948,764 948,757"/>
</g>
<g id="node42" class="node"><title>21</title>
<polygon style="fill:#399de5;stroke:black;" points="1015,814 961,814 961,886 1015,886 1015,814"/>
<text text-anchor="middle" x="988" y="831">0.1356</text>
<text text-anchor="middle" x="988" y="847">54</text>
<text text-anchor="middle" x="988" y="863">[6, 76]</text>
<text text-anchor="middle" x="988" y="879">SD</text>
</g>
<g id="edge42" class="edge"><title>19&#45;&gt;21</title>
<path style="fill:none;stroke:black;" d="M873,802C900,813 929,825 952,835"/>
<polygon style="fill:black;stroke:black;" points="953,832 961,839 950,838 953,832"/>
</g>
<g id="node46" class="node"><title>23</title>
<polygon style="fill:#e58139;stroke:black;" points="907,896 671,896 671,984 907,984 907,896"/>
<text text-anchor="middle" x="789" y="913">BLS_FEDERAL_Layoffs_Rate &lt;= 0.5</text>
<text text-anchor="middle" x="789" y="929">0.4074</text>
<text text-anchor="middle" x="789" y="945">208</text>
<text text-anchor="middle" x="789" y="961">[246, 98]</text>
<text text-anchor="middle" x="789" y="977">NS</text>
</g>
<g id="edge46" class="edge"><title>22&#45;&gt;23</title>
<path style="fill:none;stroke:black;" d="M626,940C638,940 649,940 661,940"/>
<polygon style="fill:black;stroke:black;" points="661,936 671,940 661,943 661,936"/>
</g>
<g id="node52" class="node"><title>26</title>
<polygon style="fill:#399de5;stroke:black;" points="819,1002 759,1002 759,1074 819,1074 819,1002"/>
<text text-anchor="middle" x="789" y="1019">0.4998</text>
<text text-anchor="middle" x="789" y="1035">36</text>
<text text-anchor="middle" x="789" y="1051">[26, 27]</text>
<text text-anchor="middle" x="789" y="1067">SD</text>
</g>
<g id="edge52" class="edge"><title>22&#45;&gt;26</title>
<path style="fill:none;stroke:black;" d="M626,980C669,995 716,1012 748,1024"/>
<polygon style="fill:black;stroke:black;" points="749,1021 758,1027 747,1027 749,1021"/>
</g>
<g id="node48" class="node"><title>24</title>
<polygon style="fill:#e58139;stroke:black;" points="1022,904 954,904 954,976 1022,976 1022,904"/>
<text text-anchor="middle" x="988" y="921">0.4012</text>
<text text-anchor="middle" x="988" y="937">199</text>
<text text-anchor="middle" x="988" y="953">[234, 90]</text>
<text text-anchor="middle" x="988" y="969">NS</text>
</g>
<g id="edge48" class="edge"><title>23&#45;&gt;24</title>
<path style="fill:none;stroke:black;" d="M907,940C920,940 932,940 944,940"/>
<polygon style="fill:black;stroke:black;" points="944,936 954,940 944,943 944,936"/>
</g>
<g id="node50" class="node"><title>25</title>
<polygon style="fill:#e58139;stroke:black;" points="1015,994 961,994 961,1066 1015,1066 1015,994"/>
<text text-anchor="middle" x="988" y="1011">0.48</text>
<text text-anchor="middle" x="988" y="1027">9</text>
<text text-anchor="middle" x="988" y="1043">[12, 8]</text>
<text text-anchor="middle" x="988" y="1059">NS</text>
</g>
<g id="edge50" class="edge"><title>23&#45;&gt;25</title>
<path style="fill:none;stroke:black;" d="M887,984C894,987 900,990 907,993 922,999 938,1007 952,1013"/>
<polygon style="fill:black;stroke:black;" points="954,1010 961,1018 951,1016 954,1010"/>
</g>
</g>
</svg>
