<?xml version="1.0" encoding="UTF-8" standalone="no"?>
<!DOCTYPE svg PUBLIC "-//W3C//DTD SVG 1.0//EN"
 "http://www.w3.org/TR/2001/REC-SVG-20010904/DTD/svg10.dtd">
<!-- Generated by dot version 2.2 (Tue Jan 25 21:58:56 UTC 2005)
     For user: (amfrye) Alex Frye   Title: Tree    Pages: 1 -->
<svg width="1030pt" height="1254pt"
 viewBox = "-1 -1 1029 1253"
 xmlns="http://www.w3.org/2000/svg">
<g id="graph0" class="graph" style="font-family:Times-Roman;font-size:14.00;">
<title>Tree</title>
<g id="node1" class="node"><title>0</title>
<polygon style="fill:#e58139;stroke:black;" points="171,593 5,593 5,681 171,681 171,593"/>
<text text-anchor="middle" x="88" y="610">LowerLimitAge &lt;= 0.1389</text>
<text text-anchor="middle" x="88" y="626">0.5</text>
<text text-anchor="middle" x="88" y="642">7586</text>
<text text-anchor="middle" x="88" y="658">[5992, 5945]</text>
<text text-anchor="middle" x="88" y="674">NS</text>
</g>
<g id="node2" class="node"><title>1</title>
<polygon style="fill:#399de5;stroke:black;" points="368,514 214,514 214,602 368,602 368,514"/>
<text text-anchor="middle" x="291" y="531">IndAvgSalary &lt;= 0.7222</text>
<text text-anchor="middle" x="291" y="547">0.473</text>
<text text-anchor="middle" x="291" y="563">1195</text>
<text text-anchor="middle" x="291" y="579">[717, 1151]</text>
<text text-anchor="middle" x="291" y="595">SD</text>
</g>
<g id="edge2" class="edge"><title>0&#45;&gt;1</title>
<path style="fill:none;stroke:black;" d="M171,605C182,600 193,596 205,592"/>
<polygon style="fill:black;stroke:black;" points="203,589 214,588 206,595 203,589"/>
<text text-anchor="middle" x="191" y="584">True</text>
</g>
<g id="node28" class="node"><title>14</title>
<polygon style="fill:#e58139;stroke:black;" points="374,672 208,672 208,760 374,760 374,672"/>
<text text-anchor="middle" x="291" y="689">LowerLimitAge &lt;= 0.4028</text>
<text text-anchor="middle" x="291" y="705">0.4989</text>
<text text-anchor="middle" x="291" y="721">6391</text>
<text text-anchor="middle" x="291" y="737">[5275, 4794]</text>
<text text-anchor="middle" x="291" y="753">NS</text>
</g>
<g id="edge28" class="edge"><title>0&#45;&gt;14</title>
<path style="fill:none;stroke:black;" d="M171,669C180,673 189,676 197,680"/>
<polygon style="fill:black;stroke:black;" points="198,677 207,683 196,683 198,677"/>
<text text-anchor="middle" x="185" y="700">False</text>
</g>
<g id="node4" class="node"><title>2</title>
<polygon style="fill:#399de5;stroke:black;" points="565,229 443,229 443,317 565,317 565,229"/>
<text text-anchor="middle" x="504" y="246">AGELVL_I &lt;= 0.5</text>
<text text-anchor="middle" x="504" y="262">0.3833</text>
<text text-anchor="middle" x="504" y="278">876</text>
<text text-anchor="middle" x="504" y="294">[354, 1016]</text>
<text text-anchor="middle" x="504" y="310">SD</text>
</g>
<g id="edge4" class="edge"><title>1&#45;&gt;2</title>
<path style="fill:none;stroke:black;" d="M324,514C362,464 425,380 465,325"/>
<polygon style="fill:black;stroke:black;" points="462,323 471,317 468,327 462,323"/>
</g>
<g id="node18" class="node"><title>9</title>
<polygon style="fill:#e58139;stroke:black;" points="568,514 440,514 440,602 568,602 568,514"/>
<text text-anchor="middle" x="504" y="531">AGELVL_C &lt;= 0.5</text>
<text text-anchor="middle" x="504" y="547">0.3952</text>
<text text-anchor="middle" x="504" y="563">319</text>
<text text-anchor="middle" x="504" y="579">[363, 135]</text>
<text text-anchor="middle" x="504" y="595">NS</text>
</g>
<g id="edge18" class="edge"><title>1&#45;&gt;9</title>
<path style="fill:none;stroke:black;" d="M368,558C389,558 410,558 430,558"/>
<polygon style="fill:black;stroke:black;" points="430,554 440,558 430,561 430,554"/>
</g>
<g id="node6" class="node"><title>3</title>
<polygon style="fill:#399de5;stroke:black;" points="851,86 687,86 687,174 851,174 851,86"/>
<text text-anchor="middle" x="769" y="103">LowerLimitAge &lt;= 0.0417</text>
<text text-anchor="middle" x="769" y="119">0.4074</text>
<text text-anchor="middle" x="769" y="135">758</text>
<text text-anchor="middle" x="769" y="151">[337, 846]</text>
<text text-anchor="middle" x="769" y="167">SD</text>
</g>
<g id="edge6" class="edge"><title>2&#45;&gt;3</title>
<path style="fill:none;stroke:black;" d="M566,240C599,222 641,199 678,179"/>
<polygon style="fill:black;stroke:black;" points="677,176 687,174 680,182 677,176"/>
</g>
<g id="node12" class="node"><title>6</title>
<polygon style="fill:#399de5;stroke:black;" points="836,229 702,229 702,317 836,317 836,229"/>
<text text-anchor="middle" x="769" y="246">GSEGRD &lt;= 0.5625</text>
<text text-anchor="middle" x="769" y="262">0.1653</text>
<text text-anchor="middle" x="769" y="278">118</text>
<text text-anchor="middle" x="769" y="294">[17, 170]</text>
<text text-anchor="middle" x="769" y="310">SD</text>
</g>
<g id="edge12" class="edge"><title>2&#45;&gt;6</title>
<path style="fill:none;stroke:black;" d="M566,273C604,273 652,273 692,273"/>
<polygon style="fill:black;stroke:black;" points="692,269 702,273 692,276 692,269"/>
</g>
<g id="node8" class="node"><title>4</title>
<polygon style="fill:#399de5;stroke:black;" points="1018,4 946,4 946,76 1018,76 1018,4"/>
<text text-anchor="middle" x="982" y="21">0.4474</text>
<text text-anchor="middle" x="982" y="37">376</text>
<text text-anchor="middle" x="982" y="53">[201, 394]</text>
<text text-anchor="middle" x="982" y="69">SD</text>
</g>
<g id="edge8" class="edge"><title>3&#45;&gt;4</title>
<path style="fill:none;stroke:black;" d="M852,95C880,83 911,70 935,60"/>
<polygon style="fill:black;stroke:black;" points="934,56 945,56 937,63 934,56"/>
</g>
<g id="node10" class="node"><title>5</title>
<polygon style="fill:#399de5;stroke:black;" points="1019,94 945,94 945,166 1019,166 1019,94"/>
<text text-anchor="middle" x="982" y="111">0.3556</text>
<text text-anchor="middle" x="982" y="127">382</text>
<text text-anchor="middle" x="982" y="143">[136, 452]</text>
<text text-anchor="middle" x="982" y="159">SD</text>
</g>
<g id="edge10" class="edge"><title>3&#45;&gt;5</title>
<path style="fill:none;stroke:black;" d="M852,130C880,130 910,130 935,130"/>
<polygon style="fill:black;stroke:black;" points="935,126 945,130 935,133 935,126"/>
</g>
<g id="node14" class="node"><title>7</title>
<polygon style="fill:#399de5;stroke:black;" points="1012,184 952,184 952,256 1012,256 1012,184"/>
<text text-anchor="middle" x="982" y="201">0.2566</text>
<text text-anchor="middle" x="982" y="217">56</text>
<text text-anchor="middle" x="982" y="233">[13, 73]</text>
<text text-anchor="middle" x="982" y="249">SD</text>
</g>
<g id="edge14" class="edge"><title>6&#45;&gt;7</title>
<path style="fill:none;stroke:black;" d="M836,256C871,248 912,237 942,230"/>
<polygon style="fill:black;stroke:black;" points="942,227 952,228 943,233 942,227"/>
</g>
<g id="node16" class="node"><title>8</title>
<polygon style="fill:#399de5;stroke:black;" points="1009,274 955,274 955,346 1009,346 1009,274"/>
<text text-anchor="middle" x="982" y="291">0.0761</text>
<text text-anchor="middle" x="982" y="307">62</text>
<text text-anchor="middle" x="982" y="323">[4, 97]</text>
<text text-anchor="middle" x="982" y="339">SD</text>
</g>
<g id="edge16" class="edge"><title>6&#45;&gt;8</title>
<path style="fill:none;stroke:black;" d="M836,285C872,291 915,298 945,303"/>
<polygon style="fill:black;stroke:black;" points="946,300 955,305 945,306 946,300"/>
</g>
<g id="node20" class="node"><title>10</title>
<polygon style="fill:#e58139;stroke:black;" points="846,418 692,418 692,506 846,506 846,418"/>
<text text-anchor="middle" x="769" y="435">IndAvgSalary &lt;= 0.8333</text>
<text text-anchor="middle" x="769" y="451">0.3867</text>
<text text-anchor="middle" x="769" y="467">307</text>
<text text-anchor="middle" x="769" y="483">[355, 126]</text>
<text text-anchor="middle" x="769" y="499">NS</text>
</g>
<g id="edge20" class="edge"><title>9&#45;&gt;10</title>
<path style="fill:none;stroke:black;" d="M568,535C602,522 644,507 681,494"/>
<polygon style="fill:black;stroke:black;" points="680,490 691,490 683,497 680,490"/>
</g>
<g id="node26" class="node"><title>13</title>
<polygon style="fill:#399de5;stroke:black;" points="796,524 742,524 742,596 796,596 796,524"/>
<text text-anchor="middle" x="769" y="541">0.4983</text>
<text text-anchor="middle" x="769" y="557">12</text>
<text text-anchor="middle" x="769" y="573">[8, 9]</text>
<text text-anchor="middle" x="769" y="589">SD</text>
</g>
<g id="edge26" class="edge"><title>9&#45;&gt;13</title>
<path style="fill:none;stroke:black;" d="M568,558C620,559 689,559 731,560"/>
<polygon style="fill:black;stroke:black;" points="731,556 741,560 731,563 731,556"/>
</g>
<g id="node22" class="node"><title>11</title>
<polygon style="fill:#e58139;stroke:black;" points="1015,364 949,364 949,436 1015,436 1015,364"/>
<text text-anchor="middle" x="982" y="381">0.4644</text>
<text text-anchor="middle" x="982" y="397">113</text>
<text text-anchor="middle" x="982" y="413">[114, 66]</text>
<text text-anchor="middle" x="982" y="429">NS</text>
</g>
<g id="edge22" class="edge"><title>10&#45;&gt;11</title>
<path style="fill:none;stroke:black;" d="M847,439C878,430 913,420 939,413"/>
<polygon style="fill:black;stroke:black;" points="938,410 949,410 940,416 938,410"/>
</g>
<g id="node24" class="node"><title>12</title>
<polygon style="fill:#e58139;stroke:black;" points="1015,454 949,454 949,526 1015,526 1015,454"/>
<text text-anchor="middle" x="982" y="471">0.3192</text>
<text text-anchor="middle" x="982" y="487">194</text>
<text text-anchor="middle" x="982" y="503">[241, 60]</text>
<text text-anchor="middle" x="982" y="519">NS</text>
</g>
<g id="edge24" class="edge"><title>10&#45;&gt;12</title>
<path style="fill:none;stroke:black;" d="M847,472C878,476 913,481 939,485"/>
<polygon style="fill:black;stroke:black;" points="939,482 949,486 939,488 939,482"/>
</g>
<g id="node30" class="node"><title>15</title>
<polygon style="fill:#e58139;stroke:black;" points="596,672 412,672 412,760 596,760 596,672"/>
<text text-anchor="middle" x="504" y="689">YearsToRetirement &lt;= 0.4071</text>
<text text-anchor="middle" x="504" y="705">0.4548</text>
<text text-anchor="middle" x="504" y="721">2110</text>
<text text-anchor="middle" x="504" y="737">[2111, 1135]</text>
<text text-anchor="middle" x="504" y="753">NS</text>
</g>
<g id="edge30" class="edge"><title>14&#45;&gt;15</title>
<path style="fill:none;stroke:black;" d="M375,716C384,716 393,716 402,716"/>
<polygon style="fill:black;stroke:black;" points="402,712 412,716 402,719 402,712"/>
</g>
<g id="node44" class="node"><title>22</title>
<polygon style="fill:#399de5;stroke:black;" points="596,933 412,933 412,1021 596,1021 596,933"/>
<text text-anchor="middle" x="504" y="950">YearsToRetirement &lt;= 0.3984</text>
<text text-anchor="middle" x="504" y="966">0.4974</text>
<text text-anchor="middle" x="504" y="982">4281</text>
<text text-anchor="middle" x="504" y="998">[3164, 3659]</text>
<text text-anchor="middle" x="504" y="1014">SD</text>
</g>
<g id="edge44" class="edge"><title>14&#45;&gt;22</title>
<path style="fill:none;stroke:black;" d="M327,760C364,805 422,877 462,925"/>
<polygon style="fill:black;stroke:black;" points="465,923 468,933 459,927 465,923"/>
</g>
<g id="node32" class="node"><title>16</title>
<polygon style="fill:#399de5;stroke:black;" points="866,618 672,618 672,706 866,706 866,618"/>
<text text-anchor="middle" x="769" y="635">SalaryOverUnderIndAvg &lt;= 0.5</text>
<text text-anchor="middle" x="769" y="651">0.4979</text>
<text text-anchor="middle" x="769" y="667">1248</text>
<text text-anchor="middle" x="769" y="683">[905, 1030]</text>
<text text-anchor="middle" x="769" y="699">SD</text>
</g>
<g id="edge32" class="edge"><title>15&#45;&gt;16</title>
<path style="fill:none;stroke:black;" d="M596,697C617,693 640,688 661,684"/>
<polygon style="fill:black;stroke:black;" points="661,681 671,682 662,687 661,681"/>
</g>
<g id="node38" class="node"><title>19</title>
<polygon style="fill:#e58139;stroke:black;" points="866,724 672,724 672,812 866,812 866,724"/>
<text text-anchor="middle" x="769" y="741">SalaryOverUnderIndAvg &lt;= 0.5</text>
<text text-anchor="middle" x="769" y="757">0.1474</text>
<text text-anchor="middle" x="769" y="773">862</text>
<text text-anchor="middle" x="769" y="789">[1206, 105]</text>
<text text-anchor="middle" x="769" y="805">NS</text>
</g>
<g id="edge38" class="edge"><title>15&#45;&gt;19</title>
<path style="fill:none;stroke:black;" d="M596,734C617,738 640,743 661,747"/>
<polygon style="fill:black;stroke:black;" points="662,744 671,749 661,750 662,744"/>
</g>
<g id="node34" class="node"><title>17</title>
<polygon style="fill:#399de5;stroke:black;" points="1019,544 945,544 945,616 1019,616 1019,544"/>
<text text-anchor="middle" x="982" y="561">0.4859</text>
<text text-anchor="middle" x="982" y="577">689</text>
<text text-anchor="middle" x="982" y="593">[448, 629]</text>
<text text-anchor="middle" x="982" y="609">SD</text>
</g>
<g id="edge34" class="edge"><title>16&#45;&gt;17</title>
<path style="fill:none;stroke:black;" d="M867,624C891,615 915,606 934,599"/>
<polygon style="fill:black;stroke:black;" points="933,595 944,595 936,602 933,595"/>
</g>
<g id="node36" class="node"><title>18</title>
<polygon style="fill:#e58139;stroke:black;" points="1018,634 946,634 946,706 1018,706 1018,634"/>
<text text-anchor="middle" x="982" y="651">0.4979</text>
<text text-anchor="middle" x="982" y="667">559</text>
<text text-anchor="middle" x="982" y="683">[457, 401]</text>
<text text-anchor="middle" x="982" y="699">NS</text>
</g>
<g id="edge36" class="edge"><title>16&#45;&gt;18</title>
<path style="fill:none;stroke:black;" d="M867,666C891,667 915,668 935,669"/>
<polygon style="fill:black;stroke:black;" points="935,665 945,669 935,672 935,665"/>
</g>
<g id="node40" class="node"><title>20</title>
<polygon style="fill:#e58139;stroke:black;" points="1015,724 949,724 949,796 1015,796 1015,724"/>
<text text-anchor="middle" x="982" y="741">0.1917</text>
<text text-anchor="middle" x="982" y="757">386</text>
<text text-anchor="middle" x="982" y="773">[507, 61]</text>
<text text-anchor="middle" x="982" y="789">NS</text>
</g>
<g id="edge40" class="edge"><title>19&#45;&gt;20</title>
<path style="fill:none;stroke:black;" d="M867,764C892,763 918,762 939,761"/>
<polygon style="fill:black;stroke:black;" points="939,757 949,761 939,764 939,757"/>
</g>
<g id="node42" class="node"><title>21</title>
<polygon style="fill:#e58139;stroke:black;" points="1016,814 948,814 948,886 1016,886 1016,814"/>
<text text-anchor="middle" x="982" y="831">0.1114</text>
<text text-anchor="middle" x="982" y="847">476</text>
<text text-anchor="middle" x="982" y="863">[699, 44]</text>
<text text-anchor="middle" x="982" y="879">NS</text>
</g>
<g id="edge42" class="edge"><title>19&#45;&gt;21</title>
<path style="fill:none;stroke:black;" d="M867,806C892,815 918,825 939,833"/>
<polygon style="fill:black;stroke:black;" points="940,830 948,837 937,836 940,830"/>
</g>
<g id="node46" class="node"><title>23</title>
<polygon style="fill:#399de5;stroke:black;" points="851,933 687,933 687,1021 851,1021 851,933"/>
<text text-anchor="middle" x="769" y="950">LowerLimitAge &lt;= 0.8194</text>
<text text-anchor="middle" x="769" y="966">0.3988</text>
<text text-anchor="middle" x="769" y="982">2804</text>
<text text-anchor="middle" x="769" y="998">[1244, 3278]</text>
<text text-anchor="middle" x="769" y="1014">SD</text>
</g>
<g id="edge46" class="edge"><title>22&#45;&gt;23</title>
<path style="fill:none;stroke:black;" d="M597,977C622,977 650,977 676,977"/>
<polygon style="fill:black;stroke:black;" points="676,973 686,977 676,980 676,973"/>
</g>
<g id="node52" class="node"><title>26</title>
<polygon style="fill:#e58139;stroke:black;" points="905,1076 633,1076 633,1164 905,1164 905,1076"/>
<text text-anchor="middle" x="769" y="1093">BLS_FEDERAL_JobOpenings_Level &lt;= 0.5</text>
<text text-anchor="middle" x="769" y="1109">0.2763</text>
<text text-anchor="middle" x="769" y="1125">1477</text>
<text text-anchor="middle" x="769" y="1141">[1920, 381]</text>
<text text-anchor="middle" x="769" y="1157">NS</text>
</g>
<g id="edge52" class="edge"><title>22&#45;&gt;26</title>
<path style="fill:none;stroke:black;" d="M586,1021C615,1036 648,1054 678,1071"/>
<polygon style="fill:black;stroke:black;" points="680,1068 687,1076 677,1074 680,1068"/>
</g>
<g id="node48" class="node"><title>24</title>
<polygon style="fill:#399de5;stroke:black;" points="1022,904 942,904 942,976 1022,976 1022,904"/>
<text text-anchor="middle" x="982" y="921">0.3185</text>
<text text-anchor="middle" x="982" y="937">1858</text>
<text text-anchor="middle" x="982" y="953">[592, 2387]</text>
<text text-anchor="middle" x="982" y="969">SD</text>
</g>
<g id="edge48" class="edge"><title>23&#45;&gt;24</title>
<path style="fill:none;stroke:black;" d="M852,963C879,958 908,953 931,949"/>
<polygon style="fill:black;stroke:black;" points="931,946 941,947 932,952 931,946"/>
</g>
<g id="node50" class="node"><title>25</title>
<polygon style="fill:#399de5;stroke:black;" points="1019,994 945,994 945,1066 1019,1066 1019,994"/>
<text text-anchor="middle" x="982" y="1011">0.488</text>
<text text-anchor="middle" x="982" y="1027">946</text>
<text text-anchor="middle" x="982" y="1043">[652, 891]</text>
<text text-anchor="middle" x="982" y="1059">SD</text>
</g>
<g id="edge50" class="edge"><title>23&#45;&gt;25</title>
<path style="fill:none;stroke:black;" d="M852,998C880,1005 911,1012 935,1018"/>
<polygon style="fill:black;stroke:black;" points="936,1015 945,1021 934,1021 936,1015"/>
</g>
<g id="node54" class="node"><title>27</title>
<polygon style="fill:#e58139;stroke:black;" points="1021,1084 943,1084 943,1156 1021,1156 1021,1084"/>
<text text-anchor="middle" x="982" y="1101">0.309</text>
<text text-anchor="middle" x="982" y="1117">1117</text>
<text text-anchor="middle" x="982" y="1133">[1411, 333]</text>
<text text-anchor="middle" x="982" y="1149">NS</text>
</g>
<g id="edge54" class="edge"><title>26&#45;&gt;27</title>
<path style="fill:none;stroke:black;" d="M905,1120C915,1120 924,1120 933,1120"/>
<polygon style="fill:black;stroke:black;" points="933,1116 943,1120 933,1123 933,1116"/>
</g>
<g id="node56" class="node"><title>28</title>
<polygon style="fill:#e58139;stroke:black;" points="1016,1174 948,1174 948,1246 1016,1246 1016,1174"/>
<text text-anchor="middle" x="982" y="1191">0.1575</text>
<text text-anchor="middle" x="982" y="1207">360</text>
<text text-anchor="middle" x="982" y="1223">[509, 48]</text>
<text text-anchor="middle" x="982" y="1239">NS</text>
</g>
<g id="edge56" class="edge"><title>26&#45;&gt;28</title>
<path style="fill:none;stroke:black;" d="M873,1164C896,1173 919,1184 939,1192"/>
<polygon style="fill:black;stroke:black;" points="940,1189 948,1196 937,1195 940,1189"/>
</g>
</g>
</svg>
