<?xml version="1.0" encoding="UTF-8" standalone="no"?>
<!DOCTYPE svg PUBLIC "-//W3C//DTD SVG 1.0//EN"
 "http://www.w3.org/TR/2001/REC-SVG-20010904/DTD/svg10.dtd">
<!-- Generated by dot version 2.2 (Tue Jan 25 21:58:56 UTC 2005)
     For user: (amfrye) Alex Frye   Title: Tree    Pages: 1 -->
<svg width="1132pt" height="1434pt"
 viewBox = "-1 -1 1131 1433"
 xmlns="http://www.w3.org/2000/svg">
<g id="graph0" class="graph" style="font-family:Times-Roman;font-size:14.00;">
<title>Tree</title>
<g id="node1" class="node"><title>0</title>
<polygon style="fill:#e58139;stroke:black;" points="229,671 5,671 5,759 229,759 229,671"/>
<text text-anchor="middle" x="117" y="688">BLS_FEDERAL_Quits_Rate &lt;= 0.5</text>
<text text-anchor="middle" x="117" y="704">0.4998</text>
<text text-anchor="middle" x="117" y="720">7522</text>
<text text-anchor="middle" x="117" y="736">[6085, 5852]</text>
<text text-anchor="middle" x="117" y="752">NS</text>
</g>
<g id="node2" class="node"><title>1</title>
<polygon style="fill:#e58139;stroke:black;" points="513,491 265,491 265,579 513,579 513,491"/>
<text text-anchor="middle" x="389" y="508">BLS_FEDERAL_TotalSep_Level &lt;= 0.5</text>
<text text-anchor="middle" x="389" y="524">0.4965</text>
<text text-anchor="middle" x="389" y="540">6740</text>
<text text-anchor="middle" x="389" y="556">[5790, 4896]</text>
<text text-anchor="middle" x="389" y="572">NS</text>
</g>
<g id="edge2" class="edge"><title>0&#45;&gt;1</title>
<path style="fill:none;stroke:black;" d="M184,671C223,645 273,612 315,585"/>
<polygon style="fill:black;stroke:black;" points="313,582 323,579 317,588 313,582"/>
<text text-anchor="middle" x="298" y="580">True</text>
</g>
<g id="node32" class="node"><title>16</title>
<polygon style="fill:#399de5;stroke:black;" points="472,851 306,851 306,939 472,939 472,851"/>
<text text-anchor="middle" x="389" y="868">LowerLimitAge &lt;= 0.4028</text>
<text text-anchor="middle" x="389" y="884">0.3604</text>
<text text-anchor="middle" x="389" y="900">782</text>
<text text-anchor="middle" x="389" y="916">[295, 956]</text>
<text text-anchor="middle" x="389" y="932">SD</text>
</g>
<g id="edge32" class="edge"><title>0&#45;&gt;16</title>
<path style="fill:none;stroke:black;" d="M184,759C223,785 273,818 315,845"/>
<polygon style="fill:black;stroke:black;" points="317,842 323,851 313,848 317,842"/>
<text text-anchor="middle" x="298" y="860">False</text>
</g>
<g id="node4" class="node"><title>2</title>
<polygon style="fill:#e58139;stroke:black;" points="717,229 563,229 563,317 717,317 717,229"/>
<text text-anchor="middle" x="640" y="246">IndAvgSalary &lt;= 0.7222</text>
<text text-anchor="middle" x="640" y="262">0.4889</text>
<text text-anchor="middle" x="640" y="278">5812</text>
<text text-anchor="middle" x="640" y="294">[5297, 3923]</text>
<text text-anchor="middle" x="640" y="310">NS</text>
</g>
<g id="edge4" class="edge"><title>1&#45;&gt;2</title>
<path style="fill:none;stroke:black;" d="M431,491C476,445 544,373 591,324"/>
<polygon style="fill:black;stroke:black;" points="588,322 598,317 593,327 588,322"/>
</g>
<g id="node18" class="node"><title>9</title>
<polygon style="fill:#399de5;stroke:black;" points="704,491 576,491 576,579 704,579 704,491"/>
<text text-anchor="middle" x="640" y="508">AGELVL_D &lt;= 0.5</text>
<text text-anchor="middle" x="640" y="524">0.4464</text>
<text text-anchor="middle" x="640" y="540">928</text>
<text text-anchor="middle" x="640" y="556">[493, 973]</text>
<text text-anchor="middle" x="640" y="572">SD</text>
</g>
<g id="edge18" class="edge"><title>1&#45;&gt;9</title>
<path style="fill:none;stroke:black;" d="M513,535C531,535 548,535 565,535"/>
<polygon style="fill:black;stroke:black;" points="565,531 575,535 565,538 565,531"/>
</g>
<g id="node6" class="node"><title>3</title>
<polygon style="fill:#399de5;stroke:black;" points="977,86 793,86 793,174 977,174 977,86"/>
<text text-anchor="middle" x="885" y="103">YearsToRetirement &lt;= 0.3805</text>
<text text-anchor="middle" x="885" y="119">0.4815</text>
<text text-anchor="middle" x="885" y="135">3408</text>
<text text-anchor="middle" x="885" y="151">[2179, 3216]</text>
<text text-anchor="middle" x="885" y="167">SD</text>
</g>
<g id="edge6" class="edge"><title>2&#45;&gt;3</title>
<path style="fill:none;stroke:black;" d="M716,229C742,214 772,196 800,179"/>
<polygon style="fill:black;stroke:black;" points="799,176 809,174 802,182 799,176"/>
</g>
<g id="node12" class="node"><title>6</title>
<polygon style="fill:#e58139;stroke:black;" points="1003,229 767,229 767,317 1003,317 1003,229"/>
<text text-anchor="middle" x="885" y="246">BLS_FEDERAL_Layoffs_Rate &lt;= 0.5</text>
<text text-anchor="middle" x="885" y="262">0.3013</text>
<text text-anchor="middle" x="885" y="278">2404</text>
<text text-anchor="middle" x="885" y="294">[3118, 707]</text>
<text text-anchor="middle" x="885" y="310">NS</text>
</g>
<g id="edge12" class="edge"><title>2&#45;&gt;6</title>
<path style="fill:none;stroke:black;" d="M717,273C730,273 743,273 757,273"/>
<polygon style="fill:black;stroke:black;" points="757,269 767,273 757,276 757,269"/>
</g>
<g id="node8" class="node"><title>4</title>
<polygon style="fill:#399de5;stroke:black;" points="1124,4 1040,4 1040,76 1124,76 1124,4"/>
<text text-anchor="middle" x="1082" y="21">0.4227</text>
<text text-anchor="middle" x="1082" y="37">2490</text>
<text text-anchor="middle" x="1082" y="53">[1195, 2743]</text>
<text text-anchor="middle" x="1082" y="69">SD</text>
</g>
<g id="edge8" class="edge"><title>3&#45;&gt;4</title>
<path style="fill:none;stroke:black;" d="M978,88C996,80 1014,71 1030,64"/>
<polygon style="fill:black;stroke:black;" points="1029,61 1039,59 1032,67 1029,61"/>
</g>
<g id="node10" class="node"><title>5</title>
<polygon style="fill:#e58139;stroke:black;" points="1119,94 1045,94 1045,166 1119,166 1119,94"/>
<text text-anchor="middle" x="1082" y="111">0.4385</text>
<text text-anchor="middle" x="1082" y="127">918</text>
<text text-anchor="middle" x="1082" y="143">[984, 473]</text>
<text text-anchor="middle" x="1082" y="159">NS</text>
</g>
<g id="edge10" class="edge"><title>3&#45;&gt;5</title>
<path style="fill:none;stroke:black;" d="M978,130C998,130 1018,130 1035,130"/>
<polygon style="fill:black;stroke:black;" points="1035,126 1045,130 1035,133 1035,126"/>
</g>
<g id="node14" class="node"><title>7</title>
<polygon style="fill:#e58139;stroke:black;" points="1123,184 1041,184 1041,256 1123,256 1123,184"/>
<text text-anchor="middle" x="1082" y="201">0.2912</text>
<text text-anchor="middle" x="1082" y="217">2327</text>
<text text-anchor="middle" x="1082" y="233">[3043, 654]</text>
<text text-anchor="middle" x="1082" y="249">NS</text>
</g>
<g id="edge14" class="edge"><title>6&#45;&gt;7</title>
<path style="fill:none;stroke:black;" d="M1003,241C1013,238 1022,236 1031,233"/>
<polygon style="fill:black;stroke:black;" points="1031,230 1041,231 1032,236 1031,230"/>
</g>
<g id="node16" class="node"><title>8</title>
<polygon style="fill:#e58139;stroke:black;" points="1112,274 1052,274 1052,346 1112,346 1112,274"/>
<text text-anchor="middle" x="1082" y="291">0.4852</text>
<text text-anchor="middle" x="1082" y="307">77</text>
<text text-anchor="middle" x="1082" y="323">[75, 53]</text>
<text text-anchor="middle" x="1082" y="339">NS</text>
</g>
<g id="edge16" class="edge"><title>6&#45;&gt;8</title>
<path style="fill:none;stroke:black;" d="M1003,295C1017,297 1030,300 1042,302"/>
<polygon style="fill:black;stroke:black;" points="1043,299 1052,304 1042,305 1043,299"/>
</g>
<g id="node20" class="node"><title>10</title>
<polygon style="fill:#399de5;stroke:black;" points="977,438 793,438 793,526 977,526 977,438"/>
<text text-anchor="middle" x="885" y="455">YearsToRetirement &lt;= 0.3597</text>
<text text-anchor="middle" x="885" y="471">0.4361</text>
<text text-anchor="middle" x="885" y="487">841</text>
<text text-anchor="middle" x="885" y="503">[426, 900]</text>
<text text-anchor="middle" x="885" y="519">SD</text>
</g>
<g id="edge20" class="edge"><title>9&#45;&gt;10</title>
<path style="fill:none;stroke:black;" d="M705,521C729,516 756,510 782,504"/>
<polygon style="fill:black;stroke:black;" points="782,501 792,502 783,507 782,501"/>
</g>
<g id="node26" class="node"><title>13</title>
<polygon style="fill:#399de5;stroke:black;" points="952,544 818,544 818,632 952,632 952,544"/>
<text text-anchor="middle" x="885" y="561">GSEGRD &lt;= 0.5625</text>
<text text-anchor="middle" x="885" y="577">0.4991</text>
<text text-anchor="middle" x="885" y="593">87</text>
<text text-anchor="middle" x="885" y="609">[67, 73]</text>
<text text-anchor="middle" x="885" y="625">SD</text>
</g>
<g id="edge26" class="edge"><title>9&#45;&gt;13</title>
<path style="fill:none;stroke:black;" d="M705,549C737,556 775,564 808,572"/>
<polygon style="fill:black;stroke:black;" points="809,569 818,574 808,575 809,569"/>
</g>
<g id="node22" class="node"><title>11</title>
<polygon style="fill:#399de5;stroke:black;" points="1118,364 1046,364 1046,436 1118,436 1118,364"/>
<text text-anchor="middle" x="1082" y="381">0.3914</text>
<text text-anchor="middle" x="1082" y="397">647</text>
<text text-anchor="middle" x="1082" y="413">[275, 755]</text>
<text text-anchor="middle" x="1082" y="429">SD</text>
</g>
<g id="edge22" class="edge"><title>10&#45;&gt;11</title>
<path style="fill:none;stroke:black;" d="M978,443C998,435 1018,426 1036,419"/>
<polygon style="fill:black;stroke:black;" points="1034,416 1045,415 1037,422 1034,416"/>
</g>
<g id="node24" class="node"><title>12</title>
<polygon style="fill:#e58139;stroke:black;" points="1118,454 1046,454 1046,526 1118,526 1118,454"/>
<text text-anchor="middle" x="1082" y="471">0.4998</text>
<text text-anchor="middle" x="1082" y="487">194</text>
<text text-anchor="middle" x="1082" y="503">[151, 145]</text>
<text text-anchor="middle" x="1082" y="519">NS</text>
</g>
<g id="edge24" class="edge"><title>10&#45;&gt;12</title>
<path style="fill:none;stroke:black;" d="M978,486C998,487 1018,488 1036,488"/>
<polygon style="fill:black;stroke:black;" points="1036,485 1046,489 1036,491 1036,485"/>
</g>
<g id="node28" class="node"><title>14</title>
<polygon style="fill:#399de5;stroke:black;" points="1111,544 1053,544 1053,616 1111,616 1111,544"/>
<text text-anchor="middle" x="1082" y="561">0.4872</text>
<text text-anchor="middle" x="1082" y="577">30</text>
<text text-anchor="middle" x="1082" y="593">[21, 29]</text>
<text text-anchor="middle" x="1082" y="609">SD</text>
</g>
<g id="edge28" class="edge"><title>13&#45;&gt;14</title>
<path style="fill:none;stroke:black;" d="M952,585C982,584 1016,582 1042,581"/>
<polygon style="fill:black;stroke:black;" points="1042,577 1052,581 1042,584 1042,577"/>
</g>
<g id="node30" class="node"><title>15</title>
<polygon style="fill:#e58139;stroke:black;" points="1112,634 1052,634 1052,706 1112,706 1112,634"/>
<text text-anchor="middle" x="1082" y="651">0.4998</text>
<text text-anchor="middle" x="1082" y="667">57</text>
<text text-anchor="middle" x="1082" y="683">[46, 44]</text>
<text text-anchor="middle" x="1082" y="699">NS</text>
</g>
<g id="edge30" class="edge"><title>13&#45;&gt;15</title>
<path style="fill:none;stroke:black;" d="M952,616C982,628 1016,642 1042,653"/>
<polygon style="fill:black;stroke:black;" points="1043,650 1051,657 1040,656 1043,650"/>
</g>
<g id="node34" class="node"><title>17</title>
<polygon style="fill:#399de5;stroke:black;" points="706,851 574,851 574,939 706,939 706,851"/>
<text text-anchor="middle" x="640" y="868">GSEGRD &lt;= 0.4375</text>
<text text-anchor="middle" x="640" y="884">0.4431</text>
<text text-anchor="middle" x="640" y="900">325</text>
<text text-anchor="middle" x="640" y="916">[169, 341]</text>
<text text-anchor="middle" x="640" y="932">SD</text>
</g>
<g id="edge34" class="edge"><title>16&#45;&gt;17</title>
<path style="fill:none;stroke:black;" d="M473,895C502,895 535,895 563,895"/>
<polygon style="fill:black;stroke:black;" points="563,891 573,895 563,898 563,891"/>
</g>
<g id="node48" class="node"><title>24</title>
<polygon style="fill:#399de5;stroke:black;" points="731,1113 549,1113 549,1201 731,1201 731,1113"/>
<text text-anchor="middle" x="640" y="1130">YearsToRetirement &lt;= 0.1774</text>
<text text-anchor="middle" x="640" y="1146">0.2823</text>
<text text-anchor="middle" x="640" y="1162">457</text>
<text text-anchor="middle" x="640" y="1178">[126, 615]</text>
<text text-anchor="middle" x="640" y="1194">SD</text>
</g>
<g id="edge48" class="edge"><title>16&#45;&gt;24</title>
<path style="fill:none;stroke:black;" d="M431,939C476,985 544,1057 591,1106"/>
<polygon style="fill:black;stroke:black;" points="593,1103 598,1113 588,1108 593,1103"/>
</g>
<g id="node36" class="node"><title>18</title>
<polygon style="fill:#399de5;stroke:black;" points="977,798 793,798 793,886 977,886 977,798"/>
<text text-anchor="middle" x="885" y="815">YearsToRetirement &lt;= 0.0792</text>
<text text-anchor="middle" x="885" y="831">0.2912</text>
<text text-anchor="middle" x="885" y="847">82</text>
<text text-anchor="middle" x="885" y="863">[23, 107]</text>
<text text-anchor="middle" x="885" y="879">SD</text>
</g>
<g id="edge36" class="edge"><title>17&#45;&gt;18</title>
<path style="fill:none;stroke:black;" d="M707,881C730,876 757,870 782,864"/>
<polygon style="fill:black;stroke:black;" points="782,861 792,862 783,867 782,861"/>
</g>
<g id="node42" class="node"><title>21</title>
<polygon style="fill:#399de5;stroke:black;" points="976,904 794,904 794,992 976,992 976,904"/>
<text text-anchor="middle" x="885" y="921">YearsToRetirement &lt;= 0.1734</text>
<text text-anchor="middle" x="885" y="937">0.4732</text>
<text text-anchor="middle" x="885" y="953">243</text>
<text text-anchor="middle" x="885" y="969">[146, 234]</text>
<text text-anchor="middle" x="885" y="985">SD</text>
</g>
<g id="edge42" class="edge"><title>17&#45;&gt;21</title>
<path style="fill:none;stroke:black;" d="M707,909C731,914 758,920 784,926"/>
<polygon style="fill:black;stroke:black;" points="785,923 794,928 784,929 785,923"/>
</g>
<g id="node38" class="node"><title>19</title>
<polygon style="fill:#399de5;stroke:black;" points="1109,724 1055,724 1055,796 1109,796 1109,724"/>
<text text-anchor="middle" x="1082" y="741">0.0997</text>
<text text-anchor="middle" x="1082" y="757">25</text>
<text text-anchor="middle" x="1082" y="773">[2, 36]</text>
<text text-anchor="middle" x="1082" y="789">SD</text>
</g>
<g id="edge38" class="edge"><title>18&#45;&gt;19</title>
<path style="fill:none;stroke:black;" d="M978,803C1002,794 1026,783 1045,775"/>
<polygon style="fill:black;stroke:black;" points="1043,772 1054,771 1046,778 1043,772"/>
</g>
<g id="node40" class="node"><title>20</title>
<polygon style="fill:#399de5;stroke:black;" points="1111,814 1053,814 1053,886 1111,886 1111,814"/>
<text text-anchor="middle" x="1082" y="831">0.3523</text>
<text text-anchor="middle" x="1082" y="847">57</text>
<text text-anchor="middle" x="1082" y="863">[21, 71]</text>
<text text-anchor="middle" x="1082" y="879">SD</text>
</g>
<g id="edge40" class="edge"><title>18&#45;&gt;20</title>
<path style="fill:none;stroke:black;" d="M978,846C1001,847 1023,848 1042,849"/>
<polygon style="fill:black;stroke:black;" points="1042,845 1052,849 1042,852 1042,845"/>
</g>
<g id="node44" class="node"><title>22</title>
<polygon style="fill:#399de5;stroke:black;" points="1111,904 1053,904 1053,976 1111,976 1111,904"/>
<text text-anchor="middle" x="1082" y="921">0.3648</text>
<text text-anchor="middle" x="1082" y="937">45</text>
<text text-anchor="middle" x="1082" y="953">[18, 57]</text>
<text text-anchor="middle" x="1082" y="969">SD</text>
</g>
<g id="edge44" class="edge"><title>21&#45;&gt;22</title>
<path style="fill:none;stroke:black;" d="M976,944C1000,943 1023,942 1042,941"/>
<polygon style="fill:black;stroke:black;" points="1042,937 1052,941 1042,944 1042,937"/>
</g>
<g id="node46" class="node"><title>23</title>
<polygon style="fill:#399de5;stroke:black;" points="1118,994 1046,994 1046,1066 1118,1066 1118,994"/>
<text text-anchor="middle" x="1082" y="1011">0.4871</text>
<text text-anchor="middle" x="1082" y="1027">198</text>
<text text-anchor="middle" x="1082" y="1043">[128, 177]</text>
<text text-anchor="middle" x="1082" y="1059">SD</text>
</g>
<g id="edge46" class="edge"><title>21&#45;&gt;23</title>
<path style="fill:none;stroke:black;" d="M976,986C997,994 1018,1003 1036,1010"/>
<polygon style="fill:black;stroke:black;" points="1037,1007 1045,1014 1034,1013 1037,1007"/>
</g>
<g id="node50" class="node"><title>25</title>
<polygon style="fill:#399de5;stroke:black;" points="951,1113 819,1113 819,1201 951,1201 951,1113"/>
<text text-anchor="middle" x="885" y="1130">GSEGRD &lt;= 0.4375</text>
<text text-anchor="middle" x="885" y="1146">0.1726</text>
<text text-anchor="middle" x="885" y="1162">168</text>
<text text-anchor="middle" x="885" y="1178">[27, 256]</text>
<text text-anchor="middle" x="885" y="1194">SD</text>
</g>
<g id="edge50" class="edge"><title>24&#45;&gt;25</title>
<path style="fill:none;stroke:black;" d="M731,1157C756,1157 783,1157 808,1157"/>
<polygon style="fill:black;stroke:black;" points="808,1153 818,1157 808,1160 808,1153"/>
</g>
<g id="node56" class="node"><title>28</title>
<polygon style="fill:#399de5;stroke:black;" points="967,1256 803,1256 803,1344 967,1344 967,1256"/>
<text text-anchor="middle" x="885" y="1273">LowerLimitAge &lt;= 0.8194</text>
<text text-anchor="middle" x="885" y="1289">0.3389</text>
<text text-anchor="middle" x="885" y="1305">289</text>
<text text-anchor="middle" x="885" y="1321">[99, 359]</text>
<text text-anchor="middle" x="885" y="1337">SD</text>
</g>
<g id="edge56" class="edge"><title>24&#45;&gt;28</title>
<path style="fill:none;stroke:black;" d="M716,1201C742,1216 772,1234 800,1251"/>
<polygon style="fill:black;stroke:black;" points="802,1248 809,1256 799,1254 802,1248"/>
</g>
<g id="node52" class="node"><title>26</title>
<polygon style="fill:#399de5;stroke:black;" points="1114,1084 1050,1084 1050,1156 1114,1156 1114,1084"/>
<text text-anchor="middle" x="1082" y="1101">0.1448</text>
<text text-anchor="middle" x="1082" y="1117">90</text>
<text text-anchor="middle" x="1082" y="1133">[11, 129]</text>
<text text-anchor="middle" x="1082" y="1149">SD</text>
</g>
<g id="edge52" class="edge"><title>25&#45;&gt;26</title>
<path style="fill:none;stroke:black;" d="M952,1144C981,1139 1014,1133 1039,1128"/>
<polygon style="fill:black;stroke:black;" points="1039,1125 1049,1126 1040,1131 1039,1125"/>
</g>
<g id="node54" class="node"><title>27</title>
<polygon style="fill:#399de5;stroke:black;" points="1115,1174 1049,1174 1049,1246 1115,1246 1115,1174"/>
<text text-anchor="middle" x="1082" y="1191">0.1987</text>
<text text-anchor="middle" x="1082" y="1207">78</text>
<text text-anchor="middle" x="1082" y="1223">[16, 127]</text>
<text text-anchor="middle" x="1082" y="1239">SD</text>
</g>
<g id="edge54" class="edge"><title>25&#45;&gt;27</title>
<path style="fill:none;stroke:black;" d="M952,1175C981,1183 1013,1192 1039,1198"/>
<polygon style="fill:black;stroke:black;" points="1040,1195 1049,1201 1038,1201 1040,1195"/>
</g>
<g id="node58" class="node"><title>29</title>
<polygon style="fill:#399de5;stroke:black;" points="1116,1264 1048,1264 1048,1336 1116,1336 1116,1264"/>
<text text-anchor="middle" x="1082" y="1281">0.2473</text>
<text text-anchor="middle" x="1082" y="1297">211</text>
<text text-anchor="middle" x="1082" y="1313">[49, 290]</text>
<text text-anchor="middle" x="1082" y="1329">SD</text>
</g>
<g id="edge58" class="edge"><title>28&#45;&gt;29</title>
<path style="fill:none;stroke:black;" d="M968,1300C992,1300 1017,1300 1038,1300"/>
<polygon style="fill:black;stroke:black;" points="1038,1296 1048,1300 1038,1303 1038,1296"/>
</g>
<g id="node60" class="node"><title>30</title>
<polygon style="fill:#399de5;stroke:black;" points="1112,1354 1052,1354 1052,1426 1112,1426 1112,1354"/>
<text text-anchor="middle" x="1082" y="1371">0.4873</text>
<text text-anchor="middle" x="1082" y="1387">78</text>
<text text-anchor="middle" x="1082" y="1403">[50, 69]</text>
<text text-anchor="middle" x="1082" y="1419">SD</text>
</g>
<g id="edge60" class="edge"><title>28&#45;&gt;30</title>
<path style="fill:none;stroke:black;" d="M968,1338C994,1349 1021,1361 1042,1371"/>
<polygon style="fill:black;stroke:black;" points="1044,1368 1051,1376 1041,1374 1044,1368"/>
</g>
</g>
</svg>
