<?xml version="1.0" encoding="UTF-8" standalone="no"?>
<!DOCTYPE svg PUBLIC "-//W3C//DTD SVG 1.0//EN"
 "http://www.w3.org/TR/2001/REC-SVG-20010904/DTD/svg10.dtd">
<!-- Generated by dot version 2.2 (Tue Jan 25 21:58:56 UTC 2005)
     For user: (amfrye) Alex Frye   Title: Tree    Pages: 1 -->
<svg width="1116pt" height="1045pt"
 viewBox = "-1 -1 1115 1044"
 xmlns="http://www.w3.org/2000/svg">
<g id="graph0" class="graph" style="font-family:Times-Roman;font-size:14.00;">
<title>Tree</title>
<g id="node1" class="node"><title>0</title>
<polygon style="fill:#e58139;stroke:black;" points="171,369 5,369 5,457 171,457 171,369"/>
<text text-anchor="middle" x="88" y="386">LowerLimitAge &lt;= 0.1389</text>
<text text-anchor="middle" x="88" y="402">0.4999</text>
<text text-anchor="middle" x="88" y="418">7502</text>
<text text-anchor="middle" x="88" y="434">[6047, 5890]</text>
<text text-anchor="middle" x="88" y="450">NS</text>
</g>
<g id="node2" class="node"><title>1</title>
<polygon style="fill:#399de5;stroke:black;" points="436,291 208,291 208,379 436,379 436,291"/>
<text text-anchor="middle" x="322" y="308">BLS_FEDERAL_Quits_Level &lt;= 0.5</text>
<text text-anchor="middle" x="322" y="324">0.4707</text>
<text text-anchor="middle" x="322" y="340">1189</text>
<text text-anchor="middle" x="322" y="356">[698, 1144]</text>
<text text-anchor="middle" x="322" y="372">SD</text>
</g>
<g id="edge2" class="edge"><title>0&#45;&gt;1</title>
<path style="fill:none;stroke:black;" d="M171,385C180,382 189,379 197,376"/>
<polygon style="fill:black;stroke:black;" points="196,373 207,373 198,379 196,373"/>
<text text-anchor="middle" x="185" y="366">True</text>
</g>
<g id="node20" class="node"><title>10</title>
<polygon style="fill:#e58139;stroke:black;" points="405,446 239,446 239,534 405,534 405,446"/>
<text text-anchor="middle" x="322" y="463">LowerLimitAge &lt;= 0.4028</text>
<text text-anchor="middle" x="322" y="479">0.4982</text>
<text text-anchor="middle" x="322" y="495">6313</text>
<text text-anchor="middle" x="322" y="511">[5349, 4746]</text>
<text text-anchor="middle" x="322" y="527">NS</text>
</g>
<g id="edge20" class="edge"><title>0&#45;&gt;10</title>
<path style="fill:none;stroke:black;" d="M171,440C190,446 210,453 228,459"/>
<polygon style="fill:black;stroke:black;" points="229,456 238,462 227,462 229,456"/>
<text text-anchor="middle" x="216" y="479">False</text>
</g>
<g id="node4" class="node"><title>2</title>
<polygon style="fill:#399de5;stroke:black;" points="661,139 533,139 533,227 661,227 661,139"/>
<text text-anchor="middle" x="597" y="156">AGELVL_C &lt;= 0.5</text>
<text text-anchor="middle" x="597" y="172">0.4759</text>
<text text-anchor="middle" x="597" y="188">1072</text>
<text text-anchor="middle" x="597" y="204">[647, 1011]</text>
<text text-anchor="middle" x="597" y="220">SD</text>
</g>
<g id="edge4" class="edge"><title>1&#45;&gt;2</title>
<path style="fill:none;stroke:black;" d="M402,291C440,270 486,244 524,224"/>
<polygon style="fill:black;stroke:black;" points="523,221 533,219 526,227 523,221"/>
</g>
<g id="node14" class="node"><title>7</title>
<polygon style="fill:#399de5;stroke:black;" points="658,291 536,291 536,379 658,379 658,291"/>
<text text-anchor="middle" x="597" y="308">AGELVL_I &lt;= 0.5</text>
<text text-anchor="middle" x="597" y="324">0.4007</text>
<text text-anchor="middle" x="597" y="340">117</text>
<text text-anchor="middle" x="597" y="356">[51, 133]</text>
<text text-anchor="middle" x="597" y="372">SD</text>
</g>
<g id="edge14" class="edge"><title>1&#45;&gt;7</title>
<path style="fill:none;stroke:black;" d="M437,335C467,335 498,335 525,335"/>
<polygon style="fill:black;stroke:black;" points="525,331 535,335 525,338 525,331"/>
</g>
<g id="node6" class="node"><title>3</title>
<polygon style="fill:#399de5;stroke:black;" points="955,41 791,41 791,129 955,129 955,41"/>
<text text-anchor="middle" x="873" y="58">LowerLimitAge &lt;= 0.0417</text>
<text text-anchor="middle" x="873" y="74">0.478</text>
<text text-anchor="middle" x="873" y="90">1021</text>
<text text-anchor="middle" x="873" y="106">[627, 960]</text>
<text text-anchor="middle" x="873" y="122">SD</text>
</g>
<g id="edge6" class="edge"><title>2&#45;&gt;3</title>
<path style="fill:none;stroke:black;" d="M661,160C697,147 741,132 780,118"/>
<polygon style="fill:black;stroke:black;" points="779,114 790,114 782,121 779,114"/>
</g>
<g id="node12" class="node"><title>6</title>
<polygon style="fill:#399de5;stroke:black;" points="903,147 843,147 843,219 903,219 903,147"/>
<text text-anchor="middle" x="873" y="164">0.4047</text>
<text text-anchor="middle" x="873" y="180">51</text>
<text text-anchor="middle" x="873" y="196">[20, 51]</text>
<text text-anchor="middle" x="873" y="212">SD</text>
</g>
<g id="edge12" class="edge"><title>2&#45;&gt;6</title>
<path style="fill:none;stroke:black;" d="M661,183C714,183 788,183 833,183"/>
<polygon style="fill:black;stroke:black;" points="833,179 843,183 833,186 833,179"/>
</g>
<g id="node8" class="node"><title>4</title>
<polygon style="fill:#399de5;stroke:black;" points="1104,4 1030,4 1030,76 1104,76 1104,4"/>
<text text-anchor="middle" x="1067" y="21">0.4868</text>
<text text-anchor="middle" x="1067" y="37">449</text>
<text text-anchor="middle" x="1067" y="53">[309, 429]</text>
<text text-anchor="middle" x="1067" y="69">SD</text>
</g>
<g id="edge8" class="edge"><title>3&#45;&gt;4</title>
<path style="fill:none;stroke:black;" d="M956,66C977,61 1000,56 1019,51"/>
<polygon style="fill:black;stroke:black;" points="1019,48 1029,49 1020,54 1019,48"/>
</g>
<g id="node10" class="node"><title>5</title>
<polygon style="fill:#399de5;stroke:black;" points="1103,94 1031,94 1031,166 1103,166 1103,94"/>
<text text-anchor="middle" x="1067" y="111">0.4685</text>
<text text-anchor="middle" x="1067" y="127">572</text>
<text text-anchor="middle" x="1067" y="143">[318, 531]</text>
<text text-anchor="middle" x="1067" y="159">SD</text>
</g>
<g id="edge10" class="edge"><title>3&#45;&gt;5</title>
<path style="fill:none;stroke:black;" d="M956,104C978,109 1002,114 1021,119"/>
<polygon style="fill:black;stroke:black;" points="1022,116 1031,121 1021,122 1022,116"/>
</g>
<g id="node16" class="node"><title>8</title>
<polygon style="fill:#399de5;stroke:black;" points="906,237 840,237 840,309 906,309 906,237"/>
<text text-anchor="middle" x="873" y="254">0.4385</text>
<text text-anchor="middle" x="873" y="270">99</text>
<text text-anchor="middle" x="873" y="286">[50, 104]</text>
<text text-anchor="middle" x="873" y="302">SD</text>
</g>
<g id="edge16" class="edge"><title>7&#45;&gt;8</title>
<path style="fill:none;stroke:black;" d="M659,321C711,310 783,294 829,283"/>
<polygon style="fill:black;stroke:black;" points="829,280 839,281 830,286 829,280"/>
</g>
<g id="node18" class="node"><title>9</title>
<polygon style="fill:#399de5;stroke:black;" points="901,327 845,327 845,399 901,399 901,327"/>
<text text-anchor="middle" x="873" y="344">0.0644</text>
<text text-anchor="middle" x="873" y="360">18</text>
<text text-anchor="middle" x="873" y="376">[1, 29]</text>
<text text-anchor="middle" x="873" y="392">SD</text>
</g>
<g id="edge18" class="edge"><title>7&#45;&gt;9</title>
<path style="fill:none;stroke:black;" d="M659,341C713,347 789,355 835,359"/>
<polygon style="fill:black;stroke:black;" points="835,356 845,360 835,362 835,356"/>
</g>
<g id="node22" class="node"><title>11</title>
<polygon style="fill:#e58139;stroke:black;" points="721,446 473,446 473,534 721,534 721,446"/>
<text text-anchor="middle" x="597" y="463">BLS_FEDERAL_TotalSep_Level &lt;= 0.5</text>
<text text-anchor="middle" x="597" y="479">0.4547</text>
<text text-anchor="middle" x="597" y="495">2107</text>
<text text-anchor="middle" x="597" y="511">[2200, 1182]</text>
<text text-anchor="middle" x="597" y="527">NS</text>
</g>
<g id="edge22" class="edge"><title>10&#45;&gt;11</title>
<path style="fill:none;stroke:black;" d="M406,490C424,490 443,490 463,490"/>
<polygon style="fill:black;stroke:black;" points="463,486 473,490 463,493 463,486"/>
</g>
<g id="node36" class="node"><title>18</title>
<polygon style="fill:#399de5;stroke:black;" points="689,724 505,724 505,812 689,812 689,724"/>
<text text-anchor="middle" x="597" y="741">YearsToRetirement &lt;= 0.3967</text>
<text text-anchor="middle" x="597" y="757">0.4981</text>
<text text-anchor="middle" x="597" y="773">4206</text>
<text text-anchor="middle" x="597" y="789">[3149, 3564]</text>
<text text-anchor="middle" x="597" y="805">SD</text>
</g>
<g id="edge36" class="edge"><title>10&#45;&gt;18</title>
<path style="fill:none;stroke:black;" d="M366,534C415,584 494,663 546,717"/>
<polygon style="fill:black;stroke:black;" points="548,714 553,724 543,719 548,714"/>
</g>
<g id="node24" class="node"><title>12</title>
<polygon style="fill:#e58139;stroke:black;" points="989,417 757,417 757,505 989,505 989,417"/>
<text text-anchor="middle" x="873" y="434">SEPCount_EFDATE_LOCLog &lt;= 0.5</text>
<text text-anchor="middle" x="873" y="450">0.4412</text>
<text text-anchor="middle" x="873" y="466">1854</text>
<text text-anchor="middle" x="873" y="482">[2013, 985]</text>
<text text-anchor="middle" x="873" y="498">NS</text>
</g>
<g id="edge24" class="edge"><title>11&#45;&gt;12</title>
<path style="fill:none;stroke:black;" d="M721,477C730,476 738,475 747,474"/>
<polygon style="fill:black;stroke:black;" points="747,471 757,473 747,477 747,471"/>
</g>
<g id="node30" class="node"><title>15</title>
<polygon style="fill:#399de5;stroke:black;" points="970,523 776,523 776,611 970,611 970,523"/>
<text text-anchor="middle" x="873" y="540">SalaryOverUnderIndAvg &lt;= 0.5</text>
<text text-anchor="middle" x="873" y="556">0.4997</text>
<text text-anchor="middle" x="873" y="572">253</text>
<text text-anchor="middle" x="873" y="588">[187, 197]</text>
<text text-anchor="middle" x="873" y="604">SD</text>
</g>
<g id="edge30" class="edge"><title>11&#45;&gt;15</title>
<path style="fill:none;stroke:black;" d="M721,525C736,529 751,533 765,537"/>
<polygon style="fill:black;stroke:black;" points="766,534 775,540 764,540 766,534"/>
</g>
<g id="node26" class="node"><title>13</title>
<polygon style="fill:#e58139;stroke:black;" points="1107,335 1027,335 1027,407 1107,407 1107,335"/>
<text text-anchor="middle" x="1067" y="352">0.4425</text>
<text text-anchor="middle" x="1067" y="368">1816</text>
<text text-anchor="middle" x="1067" y="384">[1972, 973]</text>
<text text-anchor="middle" x="1067" y="400">NS</text>
</g>
<g id="edge26" class="edge"><title>12&#45;&gt;13</title>
<path style="fill:none;stroke:black;" d="M970,417C976,414 983,411 989,408 998,403 1008,399 1018,394"/>
<polygon style="fill:black;stroke:black;" points="1016,391 1027,390 1019,397 1016,391"/>
</g>
<g id="node28" class="node"><title>14</title>
<polygon style="fill:#e58139;stroke:black;" points="1096,425 1038,425 1038,497 1096,497 1096,425"/>
<text text-anchor="middle" x="1067" y="442">0.3503</text>
<text text-anchor="middle" x="1067" y="458">38</text>
<text text-anchor="middle" x="1067" y="474">[41, 12]</text>
<text text-anchor="middle" x="1067" y="490">NS</text>
</g>
<g id="edge28" class="edge"><title>12&#45;&gt;14</title>
<path style="fill:none;stroke:black;" d="M989,461C1003,461 1016,461 1027,461"/>
<polygon style="fill:black;stroke:black;" points="1027,457 1037,461 1027,464 1027,457"/>
</g>
<g id="node32" class="node"><title>16</title>
<polygon style="fill:#399de5;stroke:black;" points="1104,515 1030,515 1030,587 1104,587 1104,515"/>
<text text-anchor="middle" x="1067" y="532">0.4938</text>
<text text-anchor="middle" x="1067" y="548">147</text>
<text text-anchor="middle" x="1067" y="564">[100, 125]</text>
<text text-anchor="middle" x="1067" y="580">SD</text>
</g>
<g id="edge32" class="edge"><title>15&#45;&gt;16</title>
<path style="fill:none;stroke:black;" d="M971,559C988,557 1005,556 1020,555"/>
<polygon style="fill:black;stroke:black;" points="1020,552 1030,554 1020,558 1020,552"/>
</g>
<g id="node34" class="node"><title>17</title>
<polygon style="fill:#e58139;stroke:black;" points="1096,605 1038,605 1038,677 1096,677 1096,605"/>
<text text-anchor="middle" x="1067" y="622">0.4956</text>
<text text-anchor="middle" x="1067" y="638">106</text>
<text text-anchor="middle" x="1067" y="654">[87, 72]</text>
<text text-anchor="middle" x="1067" y="670">NS</text>
</g>
<g id="edge34" class="edge"><title>15&#45;&gt;17</title>
<path style="fill:none;stroke:black;" d="M971,604C991,612 1011,620 1027,626"/>
<polygon style="fill:black;stroke:black;" points="1029,623 1037,630 1026,630 1029,623"/>
</g>
<g id="node38" class="node"><title>19</title>
<polygon style="fill:#399de5;stroke:black;" points="935,724 811,724 811,812 935,812 935,724"/>
<text text-anchor="middle" x="873" y="741">AGELVL_J &lt;= 0.5</text>
<text text-anchor="middle" x="873" y="757">0.3942</text>
<text text-anchor="middle" x="873" y="773">2731</text>
<text text-anchor="middle" x="873" y="789">[1174, 3174]</text>
<text text-anchor="middle" x="873" y="805">SD</text>
</g>
<g id="edge38" class="edge"><title>18&#45;&gt;19</title>
<path style="fill:none;stroke:black;" d="M690,768C726,768 767,768 801,768"/>
<polygon style="fill:black;stroke:black;" points="801,764 811,768 801,771 801,764"/>
</g>
<g id="node44" class="node"><title>22</title>
<polygon style="fill:#e58139;stroke:black;" points="980,867 766,867 766,955 980,955 980,867"/>
<text text-anchor="middle" x="873" y="884">SalaryOverUnderIndAvg &lt;= 0.1667</text>
<text text-anchor="middle" x="873" y="900">0.2754</text>
<text text-anchor="middle" x="873" y="916">1475</text>
<text text-anchor="middle" x="873" y="932">[1975, 390]</text>
<text text-anchor="middle" x="873" y="948">NS</text>
</g>
<g id="edge44" class="edge"><title>18&#45;&gt;22</title>
<path style="fill:none;stroke:black;" d="M682,812C713,828 747,846 779,862"/>
<polygon style="fill:black;stroke:black;" points="781,859 788,867 778,865 781,859"/>
</g>
<g id="node40" class="node"><title>20</title>
<polygon style="fill:#399de5;stroke:black;" points="1108,695 1026,695 1026,767 1108,767 1108,695"/>
<text text-anchor="middle" x="1067" y="712">0.3958</text>
<text text-anchor="middle" x="1067" y="728">2715</text>
<text text-anchor="middle" x="1067" y="744">[1174, 3147]</text>
<text text-anchor="middle" x="1067" y="760">SD</text>
</g>
<g id="edge40" class="edge"><title>19&#45;&gt;20</title>
<path style="fill:none;stroke:black;" d="M935,756C961,751 991,745 1015,741"/>
<polygon style="fill:black;stroke:black;" points="1015,738 1025,739 1016,744 1015,738"/>
</g>
<g id="node42" class="node"><title>21</title>
<polygon style="fill:#399de5;stroke:black;" points="1094,785 1040,785 1040,857 1094,857 1094,785"/>
<text text-anchor="middle" x="1067" y="802">0.0</text>
<text text-anchor="middle" x="1067" y="818">16</text>
<text text-anchor="middle" x="1067" y="834">[0, 27]</text>
<text text-anchor="middle" x="1067" y="850">SD</text>
</g>
<g id="edge42" class="edge"><title>19&#45;&gt;21</title>
<path style="fill:none;stroke:black;" d="M935,785C966,793 1003,803 1030,810"/>
<polygon style="fill:black;stroke:black;" points="1031,807 1040,813 1029,813 1031,807"/>
</g>
<g id="node46" class="node"><title>23</title>
<polygon style="fill:#e58139;stroke:black;" points="1099,875 1035,875 1035,947 1099,947 1099,875"/>
<text text-anchor="middle" x="1067" y="892">0.2047</text>
<text text-anchor="middle" x="1067" y="908">510</text>
<text text-anchor="middle" x="1067" y="924">[741, 97]</text>
<text text-anchor="middle" x="1067" y="940">NS</text>
</g>
<g id="edge46" class="edge"><title>22&#45;&gt;23</title>
<path style="fill:none;stroke:black;" d="M980,911C996,911 1011,911 1024,911"/>
<polygon style="fill:black;stroke:black;" points="1024,907 1034,911 1024,914 1024,907"/>
</g>
<g id="node48" class="node"><title>24</title>
<polygon style="fill:#e58139;stroke:black;" points="1107,965 1027,965 1027,1037 1107,1037 1107,965"/>
<text text-anchor="middle" x="1067" y="982">0.3101</text>
<text text-anchor="middle" x="1067" y="998">965</text>
<text text-anchor="middle" x="1067" y="1014">[1234, 293]</text>
<text text-anchor="middle" x="1067" y="1030">NS</text>
</g>
<g id="edge48" class="edge"><title>22&#45;&gt;24</title>
<path style="fill:none;stroke:black;" d="M968,955C985,963 1002,971 1017,978"/>
<polygon style="fill:black;stroke:black;" points="1018,975 1026,982 1015,981 1018,975"/>
</g>
</g>
</svg>
