<?xml version="1.0" encoding="UTF-8" standalone="no"?>
<!DOCTYPE svg PUBLIC "-//W3C//DTD SVG 1.0//EN"
 "http://www.w3.org/TR/2001/REC-SVG-20010904/DTD/svg10.dtd">
<!-- Generated by dot version 2.2 (Tue Jan 25 21:58:56 UTC 2005)
     For user: (amfrye) Alex Frye   Title: Tree    Pages: 1 -->
<svg width="1076pt" height="775pt"
 viewBox = "-1 -1 1075 774"
 xmlns="http://www.w3.org/2000/svg">
<g id="graph0" class="graph" style="font-family:Times-Roman;font-size:14.00;">
<title>Tree</title>
<g id="node1" class="node"><title>0</title>
<polygon style="fill:#e58139;stroke:black;" points="229,471 5,471 5,559 229,559 229,471"/>
<text text-anchor="middle" x="117" y="488">BLS_FEDERAL_Quits_Rate &lt;= 0.5</text>
<text text-anchor="middle" x="117" y="504">0.5</text>
<text text-anchor="middle" x="117" y="520">7489</text>
<text text-anchor="middle" x="117" y="536">[6008, 5929]</text>
<text text-anchor="middle" x="117" y="552">NS</text>
</g>
<g id="node2" class="node"><title>1</title>
<polygon style="fill:#e58139;stroke:black;" points="465,397 281,397 281,485 465,485 465,397"/>
<text text-anchor="middle" x="373" y="414">YearsToRetirement &lt;= 0.3984</text>
<text text-anchor="middle" x="373" y="430">0.4979</text>
<text text-anchor="middle" x="373" y="446">6708</text>
<text text-anchor="middle" x="373" y="462">[5713, 5015]</text>
<text text-anchor="middle" x="373" y="478">NS</text>
</g>
<g id="edge2" class="edge"><title>0&#45;&gt;1</title>
<path style="fill:none;stroke:black;" d="M229,483C243,479 257,475 270,471"/>
<polygon style="fill:black;stroke:black;" points="269,468 280,468 271,474 269,468"/>
<text text-anchor="middle" x="258" y="461">True</text>
</g>
<g id="node28" class="node"><title>14</title>
<polygon style="fill:#399de5;stroke:black;" points="481,544 265,544 265,632 481,632 481,544"/>
<text text-anchor="middle" x="373" y="561">SalaryOverUnderIndAvg &lt;= 0.8333</text>
<text text-anchor="middle" x="373" y="577">0.3689</text>
<text text-anchor="middle" x="373" y="593">781</text>
<text text-anchor="middle" x="373" y="609">[295, 914]</text>
<text text-anchor="middle" x="373" y="625">SD</text>
</g>
<g id="edge28" class="edge"><title>0&#45;&gt;14</title>
<path style="fill:none;stroke:black;" d="M229,547C238,549 246,552 255,554"/>
<polygon style="fill:black;stroke:black;" points="256,551 265,557 254,557 256,551"/>
<text text-anchor="middle" x="243" y="574">False</text>
</g>
<g id="node4" class="node"><title>2</title>
<polygon style="fill:#399de5;stroke:black;" points="707,221 541,221 541,309 707,309 707,221"/>
<text text-anchor="middle" x="624" y="238">LowerLimitAge &lt;= 0.4028</text>
<text text-anchor="middle" x="624" y="254">0.4424</text>
<text text-anchor="middle" x="624" y="270">4033</text>
<text text-anchor="middle" x="624" y="286">[2138, 4335]</text>
<text text-anchor="middle" x="624" y="302">SD</text>
</g>
<g id="edge4" class="edge"><title>1&#45;&gt;2</title>
<path style="fill:none;stroke:black;" d="M436,397C471,372 516,341 553,315"/>
<polygon style="fill:black;stroke:black;" points="551,312 561,309 555,318 551,312"/>
</g>
<g id="node18" class="node"><title>9</title>
<polygon style="fill:#e58139;stroke:black;" points="687,397 561,397 561,485 687,485 687,397"/>
<text text-anchor="middle" x="624" y="414">AGELVL_F &lt;= 0.5</text>
<text text-anchor="middle" x="624" y="430">0.2685</text>
<text text-anchor="middle" x="624" y="446">2675</text>
<text text-anchor="middle" x="624" y="462">[3575, 680]</text>
<text text-anchor="middle" x="624" y="478">NS</text>
</g>
<g id="edge18" class="edge"><title>1&#45;&gt;9</title>
<path style="fill:none;stroke:black;" d="M466,441C493,441 523,441 550,441"/>
<polygon style="fill:black;stroke:black;" points="550,437 560,441 550,444 550,437"/>
</g>
<g id="node6" class="node"><title>3</title>
<polygon style="fill:#399de5;stroke:black;" points="936,86 782,86 782,174 936,174 936,86"/>
<text text-anchor="middle" x="859" y="103">IndAvgSalary &lt;= 0.8333</text>
<text text-anchor="middle" x="859" y="119">0.4722</text>
<text text-anchor="middle" x="859" y="135">1760</text>
<text text-anchor="middle" x="859" y="151">[1080, 1747]</text>
<text text-anchor="middle" x="859" y="167">SD</text>
</g>
<g id="edge6" class="edge"><title>2&#45;&gt;3</title>
<path style="fill:none;stroke:black;" d="M701,221C724,208 749,193 773,179"/>
<polygon style="fill:black;stroke:black;" points="772,176 782,174 775,182 772,176"/>
</g>
<g id="node12" class="node"><title>6</title>
<polygon style="fill:#399de5;stroke:black;" points="941,221 777,221 777,309 941,309 941,221"/>
<text text-anchor="middle" x="859" y="238">LowerLimitAge &lt;= 0.8194</text>
<text text-anchor="middle" x="859" y="254">0.412</text>
<text text-anchor="middle" x="859" y="270">2273</text>
<text text-anchor="middle" x="859" y="286">[1058, 2588]</text>
<text text-anchor="middle" x="859" y="302">SD</text>
</g>
<g id="edge12" class="edge"><title>2&#45;&gt;6</title>
<path style="fill:none;stroke:black;" d="M708,265C727,265 747,265 766,265"/>
<polygon style="fill:black;stroke:black;" points="766,261 776,265 766,268 766,261"/>
</g>
<g id="node8" class="node"><title>4</title>
<polygon style="fill:#399de5;stroke:black;" points="1068,4 988,4 988,76 1068,76 1068,4"/>
<text text-anchor="middle" x="1028" y="21">0.4643</text>
<text text-anchor="middle" x="1028" y="37">1613</text>
<text text-anchor="middle" x="1028" y="53">[953, 1648]</text>
<text text-anchor="middle" x="1028" y="69">SD</text>
</g>
<g id="edge8" class="edge"><title>3&#45;&gt;4</title>
<path style="fill:none;stroke:black;" d="M937,89C951,82 965,74 978,67"/>
<polygon style="fill:black;stroke:black;" points="977,64 987,62 980,70 977,64"/>
</g>
<g id="node10" class="node"><title>5</title>
<polygon style="fill:#e58139;stroke:black;" points="1061,94 995,94 995,166 1061,166 1061,94"/>
<text text-anchor="middle" x="1028" y="111">0.4923</text>
<text text-anchor="middle" x="1028" y="127">147</text>
<text text-anchor="middle" x="1028" y="143">[127, 99]</text>
<text text-anchor="middle" x="1028" y="159">NS</text>
</g>
<g id="edge10" class="edge"><title>3&#45;&gt;5</title>
<path style="fill:none;stroke:black;" d="M937,130C953,130 970,130 985,130"/>
<polygon style="fill:black;stroke:black;" points="985,126 995,130 985,133 985,126"/>
</g>
<g id="node14" class="node"><title>7</title>
<polygon style="fill:#399de5;stroke:black;" points="1067,184 989,184 989,256 1067,256 1067,184"/>
<text text-anchor="middle" x="1028" y="201">0.3485</text>
<text text-anchor="middle" x="1028" y="217">1471</text>
<text text-anchor="middle" x="1028" y="233">[531, 1831]</text>
<text text-anchor="middle" x="1028" y="249">SD</text>
</g>
<g id="edge14" class="edge"><title>6&#45;&gt;7</title>
<path style="fill:none;stroke:black;" d="M942,243C954,240 967,236 979,233"/>
<polygon style="fill:black;stroke:black;" points="979,230 989,231 980,236 979,230"/>
</g>
<g id="node16" class="node"><title>8</title>
<polygon style="fill:#399de5;stroke:black;" points="1064,274 992,274 992,346 1064,346 1064,274"/>
<text text-anchor="middle" x="1028" y="291">0.484</text>
<text text-anchor="middle" x="1028" y="307">802</text>
<text text-anchor="middle" x="1028" y="323">[527, 757]</text>
<text text-anchor="middle" x="1028" y="339">SD</text>
</g>
<g id="edge16" class="edge"><title>6&#45;&gt;8</title>
<path style="fill:none;stroke:black;" d="M942,287C955,291 969,294 982,297"/>
<polygon style="fill:black;stroke:black;" points="983,294 992,300 981,300 983,294"/>
</g>
<g id="node20" class="node"><title>10</title>
<polygon style="fill:#e58139;stroke:black;" points="950,356 768,356 768,444 950,444 950,356"/>
<text text-anchor="middle" x="859" y="373">YearsToRetirement &lt;= 0.5107</text>
<text text-anchor="middle" x="859" y="389">0.2649</text>
<text text-anchor="middle" x="859" y="405">2665</text>
<text text-anchor="middle" x="859" y="421">[3573, 666]</text>
<text text-anchor="middle" x="859" y="437">NS</text>
</g>
<g id="edge20" class="edge"><title>9&#45;&gt;10</title>
<path style="fill:none;stroke:black;" d="M688,430C709,426 734,422 757,418"/>
<polygon style="fill:black;stroke:black;" points="757,415 767,416 758,421 757,415"/>
</g>
<g id="node26" class="node"><title>13</title>
<polygon style="fill:#399de5;stroke:black;" points="886,462 832,462 832,534 886,534 886,462"/>
<text text-anchor="middle" x="859" y="479">0.2188</text>
<text text-anchor="middle" x="859" y="495">10</text>
<text text-anchor="middle" x="859" y="511">[2, 14]</text>
<text text-anchor="middle" x="859" y="527">SD</text>
</g>
<g id="edge26" class="edge"><title>9&#45;&gt;13</title>
<path style="fill:none;stroke:black;" d="M688,456C731,467 786,480 822,489"/>
<polygon style="fill:black;stroke:black;" points="823,486 832,491 822,492 823,486"/>
</g>
<g id="node22" class="node"><title>11</title>
<polygon style="fill:#e58139;stroke:black;" points="1065,364 991,364 991,436 1065,436 1065,364"/>
<text text-anchor="middle" x="1028" y="381">0.4574</text>
<text text-anchor="middle" x="1028" y="397">834</text>
<text text-anchor="middle" x="1028" y="413">[876, 480]</text>
<text text-anchor="middle" x="1028" y="429">NS</text>
</g>
<g id="edge22" class="edge"><title>10&#45;&gt;11</title>
<path style="fill:none;stroke:black;" d="M951,400C961,400 971,400 981,400"/>
<polygon style="fill:black;stroke:black;" points="981,396 991,400 981,403 981,396"/>
</g>
<g id="node24" class="node"><title>12</title>
<polygon style="fill:#e58139;stroke:black;" points="1068,454 988,454 988,526 1068,526 1068,454"/>
<text text-anchor="middle" x="1028" y="471">0.1207</text>
<text text-anchor="middle" x="1028" y="487">1831</text>
<text text-anchor="middle" x="1028" y="503">[2697, 186]</text>
<text text-anchor="middle" x="1028" y="519">NS</text>
</g>
<g id="edge24" class="edge"><title>10&#45;&gt;12</title>
<path style="fill:none;stroke:black;" d="M942,444C955,451 967,458 979,463"/>
<polygon style="fill:black;stroke:black;" points="981,460 988,468 978,466 981,460"/>
</g>
<g id="node30" class="node"><title>15</title>
<polygon style="fill:#399de5;stroke:black;" points="731,544 517,544 517,632 731,632 731,544"/>
<text text-anchor="middle" x="624" y="561">SalaryOverUnderIndAvg &lt;= 0.1667</text>
<text text-anchor="middle" x="624" y="577">0.3899</text>
<text text-anchor="middle" x="624" y="593">703</text>
<text text-anchor="middle" x="624" y="609">[284, 786]</text>
<text text-anchor="middle" x="624" y="625">SD</text>
</g>
<g id="edge30" class="edge"><title>14&#45;&gt;15</title>
<path style="fill:none;stroke:black;" d="M481,588C490,588 498,588 507,588"/>
<polygon style="fill:black;stroke:black;" points="507,584 517,588 507,591 507,584"/>
</g>
<g id="node40" class="node"><title>20</title>
<polygon style="fill:#399de5;stroke:black;" points="656,650 592,650 592,722 656,722 656,650"/>
<text text-anchor="middle" x="624" y="667">0.1457</text>
<text text-anchor="middle" x="624" y="683">78</text>
<text text-anchor="middle" x="624" y="699">[11, 128]</text>
<text text-anchor="middle" x="624" y="715">SD</text>
</g>
<g id="edge40" class="edge"><title>14&#45;&gt;20</title>
<path style="fill:none;stroke:black;" d="M481,630C517,644 554,658 581,669"/>
<polygon style="fill:black;stroke:black;" points="583,666 591,673 580,673 583,666"/>
</g>
<g id="node32" class="node"><title>16</title>
<polygon style="fill:#399de5;stroke:black;" points="892,552 826,552 826,624 892,624 892,552"/>
<text text-anchor="middle" x="859" y="569">0.4523</text>
<text text-anchor="middle" x="859" y="585">123</text>
<text text-anchor="middle" x="859" y="601">[66, 125]</text>
<text text-anchor="middle" x="859" y="617">SD</text>
</g>
<g id="edge32" class="edge"><title>15&#45;&gt;16</title>
<path style="fill:none;stroke:black;" d="M731,588C760,588 791,588 815,588"/>
<polygon style="fill:black;stroke:black;" points="815,584 825,588 815,591 815,584"/>
</g>
<g id="node34" class="node"><title>17</title>
<polygon style="fill:#399de5;stroke:black;" points="923,642 795,642 795,730 923,730 923,642"/>
<text text-anchor="middle" x="859" y="659">AGELVL_E &lt;= 0.5</text>
<text text-anchor="middle" x="859" y="675">0.373</text>
<text text-anchor="middle" x="859" y="691">580</text>
<text text-anchor="middle" x="859" y="707">[218, 661]</text>
<text text-anchor="middle" x="859" y="723">SD</text>
</g>
<g id="edge34" class="edge"><title>15&#45;&gt;17</title>
<path style="fill:none;stroke:black;" d="M730,632C749,640 768,648 785,655"/>
<polygon style="fill:black;stroke:black;" points="787,652 795,659 784,659 787,652"/>
</g>
<g id="node36" class="node"><title>18</title>
<polygon style="fill:#399de5;stroke:black;" points="1064,605 992,605 992,677 1064,677 1064,605"/>
<text text-anchor="middle" x="1028" y="622">0.3803</text>
<text text-anchor="middle" x="1028" y="638">551</text>
<text text-anchor="middle" x="1028" y="654">[213, 621]</text>
<text text-anchor="middle" x="1028" y="670">SD</text>
</g>
<g id="edge36" class="edge"><title>17&#45;&gt;18</title>
<path style="fill:none;stroke:black;" d="M923,669C942,664 963,658 981,653"/>
<polygon style="fill:black;stroke:black;" points="981,650 991,651 982,656 981,650"/>
</g>
<g id="node38" class="node"><title>19</title>
<polygon style="fill:#399de5;stroke:black;" points="1055,695 1001,695 1001,767 1055,767 1055,695"/>
<text text-anchor="middle" x="1028" y="712">0.1975</text>
<text text-anchor="middle" x="1028" y="728">29</text>
<text text-anchor="middle" x="1028" y="744">[5, 40]</text>
<text text-anchor="middle" x="1028" y="760">SD</text>
</g>
<g id="edge38" class="edge"><title>17&#45;&gt;19</title>
<path style="fill:none;stroke:black;" d="M923,703C946,709 971,716 991,721"/>
<polygon style="fill:black;stroke:black;" points="992,718 1001,724 990,724 992,718"/>
</g>
</g>
</svg>
